<?xml version="1.0" encoding="utf-8"?>
<!-- Generator: Adobe Illustrator 21.1.0, SVG Export Plug-In . SVG Version: 6.00 Build 0)  -->
<svg version="1.1" id="ZooUno" xmlns="http://www.w3.org/2000/svg" xmlns:xlink="http://www.w3.org/1999/xlink" x="0px" y="0px"
	 viewBox="0 0 270.58 382.68" style="enable-background:new 0 0 270.58 382.68;" xml:space="preserve">
<style type="text/css">
	.st0{fill:#5BB9EB;}
	.st1{fill:none;stroke:#000000;stroke-width:0.92;stroke-miterlimit:10;}
	.st2{clip-path:url(#SVGID_2_);}
	.st3{fill:none;}
	.st4{enable-background:new    ;}
</style>
<title>ZooUno Fields Cartas Finais pra Lari</title>
<g id="Final_Cards">
	<g id="Mamíferos">
		<g id="Mamíferos-2">
			<g id="_3_2">
				<path class="st0" d="M102.46,66c8.42-3.96,17.47-6.4,26.74-7.2c2.32-0.21,4.64-0.29,7-0.28l3.49,0.06l3.49,0.24
					c4.65,0.41,9.26,1.21,13.77,2.4c9.05,2.4,17.61,6.38,25.26,11.78c3.85,2.68,7.46,5.7,10.79,9c3.32,3.3,6.36,6.88,9.07,10.69
					c5.41,7.65,9.45,16.18,11.93,25.21c1.23,4.51,2.08,9.12,2.55,13.77c0.44,4.66,0.46,9.34,0.08,14c-0.73,9.32-3.1,18.44-7,26.94
					c-3.89,8.45-9.21,16.16-15.74,22.79c6.21-6.85,11.22-14.68,14.84-23.19c3.66-8.44,5.8-17.46,6.32-26.65
					c2.4-37.96-21.98-72.46-58.57-82.87c-4.41-1.25-8.92-2.12-13.48-2.62l-3.43-0.3l-3.44-0.13c-2.3-0.06-4.6,0-6.89,0.13
					C120.03,60.32,110.97,62.42,102.46,66z"/>
				<path class="st0" d="M77.79,83.11c-6.44,6.82-11.67,14.68-15.48,23.25c-3.82,8.53-6.11,17.67-6.75,27
					c-0.68,9.28,0.23,18.61,2.69,27.59c5.07,18.02,16.19,33.75,31.5,44.53c23.45,16.36,53.77,19.21,79.86,7.52
					c-8.46,4.19-17.61,6.83-27,7.8c-9.43,0.93-18.96,0.22-28.15-2.09c-38.4-9.83-64-46.04-60.46-85.52
					C55.64,114.18,64.09,96.39,77.79,83.11z"/>
				<path class="st0" d="M104.82,69.36c8-3.58,16.55-5.77,25.29-6.45c2.19-0.17,4.38-0.24,6.57-0.19c2.19,0,4.38,0.16,6.56,0.33
					c4.37,0.43,8.69,1.23,12.93,2.38c8.5,2.31,16.53,6.1,23.72,11.2c7.23,5.05,13.53,11.31,18.62,18.51
					c5.1,7.19,8.91,15.22,11.26,23.72c2.4,8.49,3.29,17.34,2.63,26.14c-0.62,8.77-2.75,17.37-6.31,25.41
					c-3.59,7.99-8.5,15.32-14.53,21.68c5.85-6.47,10.56-13.89,13.93-21.94c3.4-8,5.39-16.54,5.88-25.22
					c2.19-35.94-20.87-68.57-55.47-78.52c-4.17-1.19-8.43-2.04-12.74-2.53c-2.16-0.19-4.33-0.39-6.5-0.41
					c-2.17-0.08-4.34-0.05-6.51,0.09C121.44,64.02,112.87,65.99,104.82,69.36z"/>
				<path class="st0" d="M80.14,86.44c-6.08,6.44-11,13.89-14.56,22c-3.59,8.08-5.72,16.74-6.31,25.56
					c-2.59,36.5,20.93,69.77,56.2,79.51c17.19,4.71,35.48,3.35,51.79-3.84c-8.05,3.8-16.69,6.17-25.55,7
					c-8.89,0.79-17.86,0.04-26.5-2.2c-36.02-9.49-60.05-43.45-57-80.58c0.73-8.9,3.03-17.6,6.79-25.7
					C68.76,100.13,73.88,92.77,80.14,86.44z"/>
				<path class="st0" d="M107.18,72.7c15.26-6.52,32.29-7.58,48.24-3c3.97,1.11,7.85,2.54,11.58,4.3c3.7,1.79,7.25,3.89,10.61,6.26
					c6.74,4.77,12.62,10.65,17.39,17.39c9.59,13.57,14.24,30.02,13.18,46.6c-0.49,8.22-2.4,16.3-5.63,23.88
					c-3.25,7.56-7.75,14.51-13.31,20.58c5.46-6.12,9.85-13.12,13-20.7c9.67-23.11,6.72-49.58-7.79-70
					c-9.47-13.51-23.3-23.37-39.16-27.91C139.42,65.54,122.47,66.46,107.18,72.7z"/>
				<path class="st0" d="M82.5,89.77c-8.54,9.19-14.62,20.39-17.66,32.56c-9.25,38.19,13.39,76.86,51.23,87.47
					c16.2,4.46,33.43,3.23,48.83-3.48c-7.62,3.46-15.77,5.57-24.11,6.25c-2.08,0.18-4.17,0.25-6.26,0.21l-3.13-0.08l-3.13-0.23
					c-4.15-0.4-8.25-1.15-12.27-2.24c-38.73-10.39-61.7-50.21-51.31-88.93C67.87,109.45,74,98.61,82.5,89.77z"/>
				<g id="Ovo_Amnio">
					<path class="st1" d="M120.51,91.51c-17.42,25.49-40.68,69.81-12.68,94.22c15.75,13.66,39.16,13.66,54.91,0
						c28-24.41,4.75-68.73-12.67-94.22c-5.59-8.16-16.73-10.25-24.9-4.66C123.34,88.1,121.76,89.68,120.51,91.51z"/>
					<g>
						<defs>
							<path id="SVGID_1_" d="M135.29,192.9c-9.34,0.01-18.38-3.36-25.43-9.49c-11.39-9.93-14.67-24.6-9.74-43.61
								c4.49-17.31,14.95-34.87,22.93-46.55c4.63-6.76,13.86-8.48,20.62-3.85c1.51,1.04,2.82,2.34,3.85,3.85
								c8,11.68,18.45,29.24,22.94,46.55c4.93,19,1.65,33.68-9.74,43.61C153.67,189.54,144.63,192.91,135.29,192.9z"/>
						</defs>
						<clipPath id="SVGID_2_">
							<use xlink:href="#SVGID_1_"  style="overflow:visible;"/>
						</clipPath>
						<g class="st2">
							<path class="st3" d="M109.92,199.4c2.31,0,2.31,1.26,4.61,1.26s2.3-1.26,4.61-1.26s2.3,1.26,4.61,1.26s2.3-1.26,4.61-1.26
								s2.31,1.26,4.61,1.26s2.31-1.26,4.61-1.26s2.31,1.26,4.61,1.26s2.31-1.26,4.62-1.26s2.3,1.26,4.61,1.26s2.31-1.26,4.62-1.26
								s2.31,1.26,4.62,1.26"/>
							<path d="M108.37,196.87c0.59-0.01,1.18,0.08,1.73,0.29c0.55,0.22,1,0.56,1.59,0.75c0.56,0.18,1.15,0.26,1.74,0.23
								c0.59,0,1.17-0.12,1.71-0.36c0.52-0.28,1.05-0.52,1.6-0.73c0.57-0.16,1.15-0.22,1.74-0.18c0.59,0.02,1.17,0.16,1.7,0.42
								c0.51,0.29,1.05,0.53,1.61,0.7c1.15,0.29,2.36,0.17,3.42-0.35c0.51-0.3,1.05-0.53,1.62-0.68c0.58-0.11,1.17-0.14,1.76-0.07
								c1.22,0.05,2.13,1,3.3,1.16c1.16,0.23,2.37,0.02,3.39-0.57c1.04-0.58,2.24-0.78,3.41-0.55c1.19,0.19,2.09,1.13,3.3,1.17
								c0.58,0.06,1.17,0.04,1.75-0.08c0.57-0.15,1.11-0.38,1.61-0.68c1.07-0.52,2.29-0.63,3.44-0.33c0.56,0.18,1.1,0.42,1.61,0.71
								c0.53,0.26,1.11,0.4,1.7,0.41c0.59,0.04,1.17-0.02,1.74-0.18c0.55-0.21,1.08-0.46,1.6-0.73c0.54-0.24,1.12-0.35,1.71-0.35
								c0.59-0.03,1.18,0.05,1.74,0.24c0.55,0.19,1,0.53,1.59,0.74c0.55,0.21,1.13,0.31,1.72,0.3c-0.59,0.01-1.17-0.08-1.72-0.29
								c-0.55-0.22-1-0.56-1.6-0.75c-0.56-0.18-1.14-0.27-1.73-0.24c-0.59,0-1.17,0.13-1.71,0.36c-0.52,0.27-1.05,0.52-1.6,0.73
								c-0.56,0.16-1.15,0.23-1.74,0.19c-0.59-0.02-1.17-0.16-1.71-0.41c-0.51-0.29-1.04-0.53-1.6-0.71
								c-1.14-0.3-2.36-0.18-3.42,0.34c-0.51,0.3-1.05,0.53-1.62,0.68c-0.58,0.12-1.17,0.14-1.76,0.08c-1.22,0-2.14-1-3.3-1.16
								c-1.16-0.23-2.36-0.03-3.39,0.55c-1.04,0.59-2.25,0.79-3.42,0.57c-1.18-0.17-2.09-1.12-3.29-1.17
								c-0.58-0.07-1.17-0.04-1.75,0.07c-0.57,0.15-1.11,0.37-1.62,0.67c-1.07,0.53-2.29,0.65-3.44,0.35
								c-0.56-0.17-1.1-0.41-1.61-0.71c-0.53-0.25-1.1-0.39-1.69-0.42c-0.59-0.03-1.17,0.03-1.74,0.18
								c-0.55,0.21-1.08,0.46-1.6,0.73c-0.54,0.24-1.12,0.36-1.71,0.36c-0.59,0.03-1.18-0.06-1.74-0.24c-0.56-0.19-1-0.53-1.59-0.75
								C109.55,196.95,108.96,196.86,108.37,196.87z"/>
							<path d="M106.83,194.33c0.62-0.02,1.24,0.09,1.82,0.3c0.58,0.22,1.1,0.57,1.69,0.76c0.59,0.19,1.21,0.27,1.83,0.24
								c0.62-0.01,1.23-0.13,1.8-0.37c0.55-0.28,1.12-0.54,1.7-0.75c0.6-0.16,1.22-0.23,1.84-0.19c0.63,0.02,1.24,0.17,1.81,0.43
								c0.54,0.3,1.11,0.54,1.7,0.72c1.21,0.3,2.48,0.17,3.6-0.36c0.54-0.31,1.12-0.55,1.73-0.7c0.61-0.12,1.23-0.14,1.85-0.08
								c1.29,0,2.27,1,3.5,1.19c1.22,0.23,2.48,0.02,3.57-0.58c1.11-0.6,2.38-0.8,3.62-0.57c1.26,0.19,2.22,1.16,3.49,1.2
								c0.61,0.07,1.23,0.04,1.84-0.07c0.6-0.16,1.17-0.39,1.71-0.7c1.14-0.53,2.42-0.65,3.64-0.34c0.59,0.19,1.16,0.43,1.7,0.73
								c0.56,0.26,1.17,0.41,1.79,0.43c0.62,0.03,1.24-0.03,1.84-0.19c0.58-0.22,1.14-0.47,1.69-0.75c0.58-0.23,1.2-0.36,1.82-0.36
								c0.62-0.03,1.24,0.06,1.83,0.25c0.59,0.19,1.11,0.55,1.69,0.77c0.58,0.21,1.2,0.32,1.82,0.3c-0.62,0.02-1.24-0.09-1.82-0.3
								c-0.58-0.22-1.1-0.57-1.69-0.76c-0.59-0.19-1.21-0.27-1.83-0.24c-0.62,0-1.24,0.13-1.81,0.36c-0.55,0.28-1.11,0.54-1.69,0.76
								c-0.6,0.16-1.23,0.22-1.85,0.19c-0.62-0.02-1.23-0.16-1.8-0.42c-0.54-0.3-1.11-0.55-1.7-0.73c-1.21-0.3-2.48-0.18-3.61,0.35
								c-0.54,0.31-1.12,0.55-1.72,0.71c-0.61,0.12-1.24,0.14-1.86,0.08c-1.29,0-2.27-1-3.49-1.19c-1.22-0.23-2.48-0.03-3.57,0.57
								c-1.1,0.6-2.38,0.81-3.62,0.58c-1.26-0.18-2.23-1.15-3.49-1.2c-0.61-0.07-1.23-0.04-1.84,0.07c-0.6,0.15-1.17,0.38-1.71,0.68
								c-1.14,0.54-2.42,0.66-3.64,0.36c-0.59-0.18-1.17-0.43-1.71-0.73c-0.56-0.26-1.17-0.4-1.79-0.43
								c-0.62-0.04-1.23,0.02-1.83,0.18c-0.58,0.21-1.15,0.47-1.7,0.75c-0.57,0.24-1.19,0.36-1.81,0.37
								c-0.62,0.02-1.24-0.06-1.83-0.25c-0.59-0.19-1.11-0.55-1.69-0.77C108.07,194.42,107.45,194.31,106.83,194.33z"/>
							<path d="M105.28,191.79c0.65-0.02,1.3,0.09,1.92,0.3c0.61,0.23,1.17,0.59,1.79,0.78c0.62,0.19,1.27,0.28,1.92,0.25
								c0.65,0,1.3-0.13,1.9-0.38c0.58-0.3,1.18-0.55,1.8-0.77c0.63-0.17,1.29-0.23,1.94-0.2c0.66,0.03,1.3,0.18,1.9,0.44
								c0.57,0.31,1.18,0.56,1.8,0.74c1.27,0.3,2.61,0.17,3.79-0.38c0.57-0.32,1.18-0.56,1.82-0.71c0.66-0.13,1.33-0.15,2-0.08
								c1.36,0.05,2.41,1.05,3.69,1.21c1.28,0.23,2.6,0.02,3.75-0.59c1.18-0.62,2.52-0.82,3.83-0.58c1.32,0.19,2.35,1.19,3.68,1.23
								c0.64,0.06,1.29,0.04,1.93-0.08c0.63-0.15,1.24-0.39,1.8-0.71c1.21-0.54,2.56-0.66,3.84-0.35c0.63,0.19,1.23,0.45,1.81,0.76
								c0.59,0.26,1.23,0.41,1.88,0.43c0.65,0.04,1.3-0.02,1.93-0.19c0.61-0.22,1.21-0.47,1.79-0.77c0.61-0.24,1.26-0.36,1.91-0.36
								c0.65-0.03,1.31,0.06,1.93,0.25c0.63,0.2,1.18,0.56,1.79,0.79c0.62,0.22,1.27,0.32,1.92,0.31c-0.65,0.02-1.3-0.09-1.92-0.3
								c-0.62-0.23-1.17-0.59-1.79-0.78c-0.62-0.19-1.28-0.28-1.93-0.25c-0.65,0.01-1.3,0.14-1.9,0.38c-0.59,0.3-1.19,0.58-1.8,0.82
								c-0.63,0.17-1.29,0.23-1.94,0.2c-0.66-0.02-1.3-0.16-1.9-0.43c-0.57-0.31-1.18-0.55-1.8-0.74c-1.27-0.31-2.6-0.18-3.79,0.36
								c-0.57,0.32-1.19,0.56-1.82,0.72c-0.66,0.12-1.33,0.15-2,0.09c-1.36,0-2.41-1-3.69-1.22c-1.28-0.23-2.6-0.03-3.75,0.58
								c-1.17,0.63-2.52,0.84-3.83,0.6c-1.33-0.19-2.36-1.19-3.68-1.24c-0.64-0.07-1.29-0.04-1.93,0.07
								c-0.63,0.15-1.24,0.39-1.81,0.71c-1.2,0.55-2.56,0.67-3.84,0.36c-0.63-0.18-1.23-0.43-1.8-0.75
								c-0.59-0.27-1.23-0.42-1.88-0.44c-0.65-0.04-1.3,0.02-1.93,0.19c-0.61,0.21-1.21,0.47-1.79,0.76
								c-0.61,0.25-1.26,0.37-1.92,0.37c-0.65,0.03-1.31-0.06-1.93-0.25c-0.62-0.2-1.17-0.56-1.78-0.79
								C106.58,191.92,105.93,191.79,105.28,191.79z"/>
							<path d="M103.73,189.25c0.68-0.02,1.36,0.09,2,0.31c0.65,0.23,1.23,0.6,1.89,0.8c0.65,0.19,1.32,0.27,2,0.24
								c0.68,0,1.36-0.13,2-0.38c0.61-0.31,1.24-0.57,1.89-0.8c0.65-0.16,1.33-0.23,2-0.19c0.69,0.02,1.37,0.17,2,0.44
								c0.61,0.32,1.24,0.57,1.9,0.76c1.34,0.31,2.75,0.17,4-0.39c0.6-0.33,1.25-0.57,1.92-0.73c0.68-0.12,1.37-0.15,2.06-0.09
								c1.43,0.05,2.55,1.08,3.89,1.25c1.34,0.23,2.72,0.01,3.93-0.62c1.23-0.63,2.64-0.83,4-0.59c0.68,0.13,1.33,0.37,1.94,0.7
								c0.61,0.31,1.26,0.5,1.94,0.56c0.67,0.07,1.34,0.04,2-0.07c0.66-0.16,1.3-0.41,1.9-0.73c1.26-0.55,2.66-0.67,4-0.35
								c0.66,0.19,1.29,0.45,1.9,0.77c0.63,0.27,1.31,0.42,2,0.44c0.67,0.04,1.35-0.02,2-0.19c0.64-0.22,1.28-0.48,1.89-0.78
								c0.64-0.25,1.32-0.37,2-0.37c0.68-0.03,1.35,0.06,2,0.26c0.65,0.2,1.24,0.57,1.88,0.8c0.64,0.22,1.32,0.33,2,0.32
								c-0.68,0.02-1.36-0.09-2-0.31c-0.65-0.22-1.23-0.59-1.89-0.79c-0.65-0.2-1.32-0.28-2-0.25c-0.68,0-1.36,0.13-2,0.38
								c-0.62,0.3-1.25,0.56-1.89,0.79c-0.65,0.17-1.33,0.24-2,0.21c-0.69-0.02-1.37-0.17-2-0.44c-0.61-0.31-1.24-0.57-1.89-0.76
								c-1.34-0.31-2.74-0.19-4,0.37c-0.61,0.33-1.25,0.58-1.92,0.74c-0.68,0.12-1.37,0.16-2.06,0.09c-0.7-0.06-1.38-0.25-2-0.56
								c-0.59-0.32-1.24-0.55-1.9-0.68c-1.34-0.24-2.73-0.03-3.94,0.6c-1.23,0.63-2.64,0.85-4,0.61c-1.4-0.19-2.49-1.22-3.87-1.27
								c-0.67-0.07-1.34-0.04-2,0.07c-0.66,0.16-1.3,0.4-1.9,0.72c-1.26,0.55-2.66,0.68-4,0.37c-0.66-0.19-1.3-0.45-1.91-0.77
								c-0.63-0.27-1.31-0.43-2-0.45c-0.67-0.04-1.35,0.02-2,0.19c-0.65,0.22-1.28,0.48-1.89,0.78c-0.64,0.24-1.32,0.37-2,0.38
								c-0.68,0.02-1.35-0.07-2-0.26c-0.66-0.2-1.24-0.58-1.88-0.81C105.08,189.35,104.41,189.24,103.73,189.25z"/>
							<path d="M102.19,186.71c0.72-0.02,1.43,0.09,2.11,0.31c0.68,0.23,1.3,0.61,2,0.81c0.69,0.19,1.4,0.28,2.11,0.24
								c0.71,0,1.42-0.14,2.08-0.4c0.65-0.31,1.32-0.58,2-0.81c0.7-0.18,1.43-0.24,2.15-0.2c0.72,0.02,1.44,0.17,2.11,0.45
								c0.64,0.33,1.31,0.59,2,0.78c1.39,0.31,2.84,0.17,4.15-0.39c0.63-0.34,1.3-0.59,2-0.76c0.71-0.12,1.44-0.15,2.16-0.08
								c0.72,0.07,1.43,0.27,2.08,0.59c0.63,0.33,1.3,0.56,2,0.68c1.4,0.24,2.84,0.02,4.11-0.62c1.31-0.65,2.8-0.87,4.24-0.61
								c0.7,0.13,1.37,0.37,2,0.71c0.63,0.31,1.3,0.51,2,0.58c0.7,0.07,1.41,0.04,2.11-0.08c0.69-0.17,1.37-0.41,2-0.74
								c1.34-0.57,2.83-0.7,4.25-0.37c0.69,0.2,1.36,0.47,2,0.8c0.69,0.27,1.41,0.4,2.15,0.4c0.71,0.04,1.42-0.02,2.11-0.19
								c0.68-0.23,1.35-0.5,2-0.8c0.68-0.25,1.4-0.38,2.12-0.38c0.72-0.02,1.43,0.07,2.12,0.28c0.7,0.21,1.31,0.59,2,0.83
								c0.68,0.23,1.39,0.35,2.11,0.34c-0.72,0.01-1.43-0.09-2.12-0.31c-0.68-0.23-1.3-0.61-2-0.81c-0.68-0.2-1.4-0.28-2.11-0.25
								c-0.71,0.01-1.42,0.14-2.08,0.4c-0.65,0.31-1.32,0.58-2,0.81c-0.7,0.17-1.43,0.25-2.15,0.21c-0.72-0.02-1.44-0.17-2.11-0.45
								c-0.64-0.32-1.31-0.58-2-0.77c-1.39-0.33-2.85-0.2-4.16,0.37c-0.63,0.34-1.3,0.59-2,0.76c-0.71,0.12-1.44,0.16-2.16,0.09
								c-0.73-0.06-1.43-0.26-2.09-0.58c-0.63-0.33-1.3-0.57-2-0.69c-1.4-0.25-2.85-0.03-4.12,0.61c-1.98,0.99-4.33,0.96-6.28-0.09
								c-0.63-0.31-1.3-0.51-2-0.58c-0.7-0.07-1.41-0.04-2.11,0.07c-0.7,0.15-1.37,0.4-2,0.73c-1.34,0.58-2.83,0.71-4.25,0.39
								c-0.69-0.2-1.36-0.46-2-0.79c-0.65-0.28-1.35-0.43-2.06-0.46c-0.71-0.04-1.42,0.02-2.11,0.19c-0.68,0.23-1.35,0.49-2,0.8
								c-0.68,0.26-1.4,0.38-2.12,0.38c-0.72,0.03-1.44-0.07-2.13-0.27c-0.69-0.21-1.3-0.6-2-0.84
								C103.62,186.79,102.9,186.69,102.19,186.71z"/>
							<path d="M100.64,184.17c0.75-0.02,1.5,0.09,2.22,0.31c0.71,0.24,1.36,0.63,2.08,0.83c0.72,0.2,1.46,0.28,2.2,0.24
								c0.74-0.01,1.48-0.14,2.18-0.4c0.68-0.32,1.37-0.6,2.08-0.84c0.74-0.18,1.49-0.24,2.25-0.2c0.76,0.02,1.51,0.17,2.21,0.46
								c0.67,0.33,1.36,0.59,2.08,0.79c1.45,0.32,2.97,0.18,4.34-0.4c0.67-0.35,1.38-0.61,2.12-0.77c0.75-0.13,1.51-0.16,2.26-0.09
								c0.76,0.07,1.5,0.28,2.19,0.61c0.66,0.33,1.36,0.56,2.09,0.69c1.46,0.24,2.96,0.02,4.29-0.64c1.38-0.66,2.94-0.88,4.45-0.62
								c0.74,0.14,1.46,0.39,2.14,0.73c0.66,0.32,1.38,0.52,2.11,0.59c0.74,0.07,1.48,0.04,2.21-0.08c0.72-0.17,1.42-0.42,2.08-0.75
								c1.41-0.58,2.97-0.72,4.46-0.38c0.72,0.21,1.43,0.48,2.1,0.81c0.68,0.29,1.41,0.44,2.15,0.46c0.74,0.04,1.49-0.02,2.21-0.2
								c0.7-0.23,1.39-0.5,2.07-0.81c0.71-0.26,1.46-0.39,2.22-0.38c0.75-0.03,1.51,0.07,2.23,0.28c0.72,0.21,1.37,0.61,2.07,0.85
								c0.71,0.24,1.46,0.36,2.21,0.35c-0.75,0.02-1.5-0.09-2.22-0.32c-0.71-0.23-1.36-0.62-2.08-0.82
								c-0.72-0.2-1.46-0.28-2.21-0.25c-0.74,0.01-1.48,0.14-2.17,0.41c-0.68,0.32-1.38,0.59-2.09,0.83
								c-0.73,0.18-1.49,0.25-2.24,0.21c-0.76-0.02-1.51-0.17-2.21-0.45c-0.67-0.33-1.36-0.6-2.08-0.8
								c-1.45-0.32-2.97-0.18-4.34,0.39c-0.67,0.34-1.38,0.6-2.12,0.77c-0.75,0.13-1.51,0.17-2.27,0.1
								c-0.76-0.07-1.49-0.27-2.18-0.6c-0.66-0.34-1.36-0.57-2.09-0.7c-1.46-0.25-2.97-0.03-4.3,0.62c-1.38,0.67-2.93,0.9-4.44,0.64
								c-0.75-0.13-1.47-0.38-2.14-0.73c-0.67-0.32-1.38-0.52-2.12-0.59c-0.73-0.07-1.47-0.05-2.2,0.07
								c-0.72,0.16-1.42,0.41-2.08,0.75c-1.41,0.59-2.97,0.72-4.46,0.39c-0.72-0.2-1.43-0.47-2.1-0.81
								c-0.68-0.29-1.42-0.44-2.16-0.46c-0.74-0.04-1.48,0.02-2.2,0.19c-0.71,0.23-1.41,0.5-2.08,0.82
								c-0.71,0.26-1.46,0.38-2.21,0.38c-0.75,0.02-1.51-0.07-2.23-0.28c-0.73-0.22-1.37-0.61-2.07-0.86
								C102.14,184.28,101.39,184.16,100.64,184.17z"/>
							<path d="M99.1,181.63c0.78-0.02,1.56,0.09,2.31,0.32c0.74,0.24,1.43,0.64,2.18,0.84c0.75,0.2,1.53,0.28,2.3,0.25
								c0.77-0.01,1.54-0.16,2.27-0.42c0.71-0.33,1.44-0.61,2.18-0.85c0.77-0.19,1.56-0.26,2.35-0.22c0.79,0.02,1.57,0.17,2.31,0.45
								c0.69,0.34,1.42,0.61,2.17,0.8c1.51,0.33,3.09,0.18,4.52-0.41c0.71-0.35,1.45-0.62,2.22-0.79c0.78-0.13,1.58-0.15,2.37-0.08
								c0.79,0.07,1.57,0.27,2.29,0.61c2.09,1.06,4.55,1.08,6.66,0.06c1.45-0.68,3.07-0.9,4.64-0.63c0.78,0.13,1.54,0.38,2.25,0.74
								c0.69,0.33,1.44,0.54,2.2,0.6c0.77,0.07,1.54,0.05,2.3-0.08c0.75-0.16,1.48-0.42,2.17-0.77c1.48-0.59,3.1-0.73,4.66-0.38
								c0.76,0.21,1.49,0.49,2.2,0.83c0.72,0.29,1.48,0.45,2.25,0.47c0.77,0.04,1.55-0.02,2.3-0.2c0.74-0.24,1.46-0.52,2.17-0.84
								c0.75-0.26,1.53-0.38,2.32-0.38c0.78-0.02,1.57,0.07,2.32,0.29c0.76,0.22,1.44,0.63,2.17,0.88c0.74,0.24,1.52,0.35,2.3,0.35
								c-0.78,0.02-1.56-0.09-2.31-0.32c-0.74-0.24-1.43-0.64-2.18-0.84c-0.75-0.2-1.53-0.28-2.3-0.25
								c-0.77,0.01-1.54,0.14-2.27,0.41c-0.71,0.33-1.44,0.62-2.18,0.86c-0.77,0.18-1.56,0.25-2.35,0.21
								c-0.79-0.02-1.57-0.17-2.31-0.46c-0.7-0.34-1.42-0.61-2.17-0.81c-1.51-0.33-3.09-0.19-4.53,0.39
								c-0.71,0.36-1.45,0.62-2.22,0.8c-0.78,0.13-1.57,0.17-2.36,0.1c-0.79-0.07-1.57-0.28-2.29-0.61
								c-2.09-1.07-4.55-1.1-6.66-0.08c-0.72,0.35-1.48,0.58-2.27,0.68c-0.79,0.1-1.58,0.1-2.37,0c-0.78-0.14-1.54-0.39-2.25-0.74
								c-0.69-0.34-1.44-0.54-2.21-0.61c-0.76-0.08-1.53-0.05-2.29,0.07c-0.76,0.16-1.49,0.42-2.18,0.76
								c-1.47,0.6-3.1,0.74-4.65,0.4c-0.76-0.2-1.5-0.48-2.21-0.83c-0.71-0.29-1.47-0.44-2.24-0.47c-0.77-0.04-1.55,0.02-2.3,0.19
								c-0.74,0.24-1.46,0.52-2.17,0.84c-0.74,0.26-1.53,0.4-2.32,0.39c-0.79,0.02-1.57-0.07-2.33-0.29
								c-0.75-0.22-1.43-0.63-2.17-0.88C100.65,181.74,99.88,181.62,99.1,181.63z"/>
							<path d="M97.55,179.09c0.82-0.02,1.63,0.09,2.41,0.32c0.78,0.25,1.49,0.65,2.27,0.86c0.78,0.2,1.59,0.29,2.4,0.25
								c0.81-0.01,1.6-0.16,2.36-0.43c0.74-0.33,1.5-0.62,2.28-0.87c0.8-0.19,1.63-0.26,2.45-0.22c0.83,0.02,1.64,0.18,2.41,0.48
								c0.73,0.35,1.49,0.62,2.27,0.83c1.58,0.32,3.21,0.18,4.71-0.42c0.74-0.36,1.52-0.64,2.32-0.81c0.81-0.13,1.64-0.17,2.46-0.09
								c0.83,0.07,1.64,0.28,2.39,0.63c0.72,0.35,1.49,0.59,2.28,0.72c1.58,0.25,3.21,0.02,4.66-0.66c1.52-0.7,3.2-0.92,4.85-0.65
								c0.81,0.14,1.6,0.4,2.34,0.76c0.73,0.34,1.5,0.54,2.3,0.61c0.8,0.08,1.6,0.05,2.39-0.08c0.78-0.17,1.55-0.43,2.27-0.78
								c1.55-0.61,3.24-0.74,4.86-0.39c0.79,0.21,1.55,0.5,2.29,0.85c0.75,0.29,1.54,0.46,2.35,0.48c0.8,0.04,1.61-0.03,2.39-0.21
								c0.77-0.24,1.53-0.52,2.27-0.85c0.78-0.26,1.59-0.4,2.41-0.39c0.82-0.02,1.64,0.08,2.43,0.3c0.79,0.22,1.49,0.64,2.26,0.9
								c0.78,0.24,1.59,0.37,2.4,0.36c-0.82,0.02-1.63-0.09-2.41-0.32c-0.78-0.25-1.49-0.65-2.28-0.86
								c-0.78-0.2-1.59-0.29-2.39-0.25c-0.81,0.01-1.61,0.15-2.37,0.42c-0.74,0.34-1.5,0.63-2.28,0.88
								c-0.8,0.19-1.62,0.26-2.44,0.22c-0.83-0.01-1.64-0.18-2.41-0.48c-0.73-0.34-1.49-0.62-2.27-0.82
								c-1.58-0.34-3.21-0.2-4.71,0.4c-0.74,0.36-1.52,0.64-2.32,0.82c-0.82,0.13-1.65,0.17-2.47,0.09
								c-0.83-0.06-1.64-0.27-2.39-0.62c-0.72-0.35-1.48-0.59-2.27-0.73c-1.58-0.25-3.21-0.02-4.66,0.66
								c-0.75,0.35-1.56,0.58-2.38,0.69c-0.82,0.1-1.65,0.1-2.47,0c-0.82-0.14-1.61-0.39-2.35-0.76c-0.72-0.34-1.5-0.55-2.29-0.62
								c-0.8-0.08-1.6-0.05-2.39,0.07c-0.79,0.17-1.55,0.43-2.27,0.78c-1.54,0.61-3.24,0.75-4.86,0.4c-0.79-0.2-1.56-0.49-2.3-0.84
								c-0.75-0.3-1.54-0.46-2.34-0.49c-0.8-0.04-1.61,0.02-2.39,0.2c-0.77,0.24-1.53,0.53-2.27,0.85c-0.78,0.27-1.6,0.41-2.42,0.4
								c-0.82,0.02-1.63-0.08-2.42-0.3c-0.79-0.22-1.5-0.64-2.27-0.9C99.17,179.22,98.36,179.09,97.55,179.09z"/>
							<path d="M96,176.55c0.85-0.02,1.7,0.09,2.51,0.33c0.81,0.25,1.56,0.66,2.37,0.87c0.81,0.21,1.65,0.29,2.49,0.25
								c0.84-0.01,1.67-0.15,2.46-0.43c0.77-0.35,1.57-0.65,2.38-0.9c0.83-0.19,1.69-0.26,2.54-0.22c0.86,0.02,1.71,0.18,2.51,0.49
								c0.76,0.35,1.56,0.63,2.37,0.84c1.64,0.34,3.34,0.19,4.89-0.43c0.77-0.37,1.58-0.64,2.42-0.82c0.85-0.14,1.71-0.17,2.57-0.1
								c0.86,0.07,1.7,0.29,2.49,0.64c2.27,1.1,4.92,1.12,7.21,0.06c2.39-1.08,5.14-1.03,7.5,0.12c0.76,0.34,1.56,0.56,2.39,0.63
								c1.66,0.19,3.35-0.11,4.84-0.88c1.61-0.63,3.37-0.76,5.06-0.4c0.82,0.22,1.63,0.51,2.4,0.87c0.78,0.3,1.6,0.46,2.43,0.48
								c0.84,0.05,1.67-0.02,2.49-0.2c0.8-0.25,1.59-0.54,2.36-0.87c0.81-0.27,1.66-0.41,2.52-0.39c0.85-0.03,1.7,0.07,2.52,0.3
								c0.82,0.23,1.56,0.66,2.36,0.92c0.81,0.25,1.65,0.38,2.5,0.37c-0.85,0.02-1.69-0.09-2.51-0.32
								c-0.81-0.25-1.56-0.67-2.37-0.88c-0.82-0.21-1.66-0.29-2.5-0.25c-0.83,0.01-1.66,0.16-2.45,0.43
								c-0.78,0.34-1.57,0.64-2.38,0.9c-0.84,0.19-1.69,0.26-2.55,0.22c-0.86-0.01-1.71-0.18-2.51-0.48
								c-0.76-0.35-1.55-0.63-2.36-0.84c-1.64-0.34-3.34-0.2-4.9,0.41c-0.77,0.37-1.58,0.65-2.42,0.83
								c-0.85,0.14-1.71,0.18-2.56,0.1c-0.86-0.07-1.7-0.28-2.49-0.63c-2.28-1.1-4.92-1.13-7.22-0.08c-0.78,0.36-1.61,0.6-2.47,0.71
								c-0.86,0.11-1.72,0.11-2.58,0c-0.85-0.14-1.67-0.4-2.44-0.77c-0.75-0.35-1.56-0.56-2.39-0.63c-0.83-0.08-1.66-0.05-2.48,0.07
								c-0.82,0.17-1.61,0.44-2.37,0.8c-1.61,0.62-3.37,0.76-5.06,0.4c-0.82-0.21-1.62-0.5-2.39-0.86c-0.78-0.3-1.6-0.47-2.44-0.49
								c-0.83-0.05-1.67,0.02-2.48,0.2c-0.81,0.24-1.6,0.53-2.37,0.87c-0.81,0.27-1.66,0.41-2.51,0.4c-0.85,0.02-1.7-0.08-2.52-0.31
								c-0.83-0.23-1.57-0.66-2.37-0.92C97.69,176.7,96.85,176.56,96,176.55z"/>
							<path d="M94.46,174c0.88-0.02,1.75,0.09,2.6,0.33c0.84,0.25,1.62,0.68,2.47,0.89c0.85,0.21,1.72,0.3,2.59,0.25
								c0.87,0,1.73-0.15,2.55-0.44c0.8-0.35,1.63-0.66,2.47-0.91c0.87-0.2,1.76-0.27,2.65-0.23c0.89,0.02,1.78,0.19,2.61,0.5
								c0.79,0.36,1.61,0.65,2.46,0.85c1.7,0.34,3.46,0.2,5.08-0.43c1.6-0.81,3.4-1.14,5.18-0.94c0.9,0.07,1.78,0.29,2.6,0.65
								c0.78,0.37,1.6,0.62,2.45,0.75c1.7,0.25,3.43,0.01,5-0.69c0.82-0.38,1.69-0.62,2.58-0.72c0.89-0.1,1.79-0.1,2.68,0
								c0.88,0.15,1.74,0.42,2.55,0.8c0.78,0.35,1.62,0.57,2.48,0.64c0.86,0.07,1.72,0.05,2.57-0.08c0.85-0.18,1.67-0.45,2.46-0.82
								c1.68-0.63,3.5-0.76,5.26-0.4c0.86,0.22,1.69,0.51,2.49,0.89c0.81,0.3,1.67,0.47,2.53,0.49c0.87,0.05,1.73-0.02,2.58-0.2
								c0.84-0.25,1.66-0.55,2.46-0.89c0.85-0.27,1.73-0.41,2.62-0.4c0.88-0.02,1.77,0.08,2.62,0.31c0.85,0.24,1.62,0.67,2.45,0.94
								c0.84,0.26,1.71,0.39,2.59,0.38c-0.88,0.02-1.75-0.09-2.6-0.33c-0.85-0.25-1.63-0.67-2.47-0.89
								c-0.85-0.21-1.72-0.29-2.59-0.25c-0.87,0.01-1.73,0.16-2.55,0.44c-0.81,0.35-1.64,0.66-2.48,0.91
								c-0.87,0.19-1.75,0.28-2.64,0.24c-0.89-0.02-1.77-0.19-2.61-0.5c-0.79-0.36-1.62-0.65-2.46-0.86
								c-1.7-0.34-3.46-0.19-5.08,0.43c-0.81,0.38-1.65,0.66-2.52,0.85c-0.88,0.14-1.78,0.18-2.67,0.1
								c-0.89-0.07-1.77-0.29-2.59-0.64c-0.78-0.37-1.61-0.63-2.46-0.76c-1.7-0.25-3.43-0.02-5,0.68c-0.82,0.37-1.69,0.61-2.58,0.72
								c-0.89,0.11-1.78,0.11-2.67,0c-0.88-0.14-1.74-0.4-2.55-0.79c-0.78-0.35-1.62-0.57-2.48-0.64c-0.86-0.08-1.72-0.05-2.57,0.07
								c-0.85,0.17-1.68,0.44-2.46,0.81c-1.68,0.64-3.5,0.78-5.26,0.42c-0.86-0.22-1.69-0.52-2.5-0.89
								c-0.81-0.31-1.66-0.47-2.52-0.5c-0.87-0.04-1.73,0.02-2.58,0.2c-0.84,0.25-1.66,0.55-2.46,0.89
								c-0.85,0.27-1.73,0.41-2.62,0.4c-0.88,0.03-1.77-0.07-2.62-0.31c-0.85-0.23-1.62-0.67-2.46-0.94
								C96.2,174.13,95.33,174,94.46,174z"/>
							<path d="M92.91,171.47c0.91-0.02,1.82,0.09,2.7,0.34c0.88,0.25,1.69,0.69,2.57,0.9c0.88,0.22,1.78,0.3,2.68,0.26
								c0.9-0.01,1.8-0.17,2.65-0.46c0.84-0.36,1.7-0.67,2.57-0.93c0.9-0.2,1.82-0.27,2.74-0.23c0.93,0.01,1.84,0.19,2.71,0.51
								c0.83,0.36,1.68,0.65,2.56,0.87c1.76,0.34,3.58,0.19,5.26-0.45c1.67-0.84,3.53-1.18,5.39-1c0.93,0.07,1.84,0.3,2.69,0.66
								c2.46,1.15,5.29,1.17,7.77,0.06c0.85-0.38,1.75-0.63,2.68-0.73c0.92-0.11,1.85-0.11,2.77,0c0.92,0.15,1.81,0.43,2.65,0.82
								c0.82,0.35,1.68,0.57,2.57,0.65c0.89,0.08,1.79,0.05,2.67-0.08c0.88-0.18,1.73-0.46,2.55-0.83c1.75-0.64,3.64-0.78,5.46-0.41
								c0.89,0.22,1.76,0.53,2.6,0.9c0.84,0.32,1.72,0.49,2.62,0.51c0.9,0.05,1.79-0.03,2.67-0.21c0.87-0.26,1.72-0.56,2.56-0.9
								c0.88-0.28,1.79-0.42,2.71-0.41c0.92-0.02,1.83,0.08,2.72,0.32c0.89,0.24,1.69,0.69,2.55,1c0.87,0.26,1.78,0.4,2.69,0.39
								c-0.91,0.03-1.82-0.09-2.7-0.33c-0.88-0.26-1.69-0.69-2.57-0.9c-0.88-0.22-1.78-0.3-2.68-0.26c-0.9,0.01-1.8,0.16-2.65,0.45
								c-0.84,0.36-1.7,0.67-2.57,0.93c-0.9,0.2-1.82,0.28-2.74,0.24c-0.93-0.02-1.85-0.18-2.72-0.5c-0.82-0.37-1.67-0.67-2.55-0.88
								c-1.76-0.35-3.59-0.19-5.27,0.44c-0.83,0.39-1.71,0.67-2.61,0.86c-0.92,0.15-1.85,0.18-2.77,0.11
								c-0.93-0.07-1.84-0.29-2.7-0.66c-0.81-0.37-1.67-0.63-2.55-0.77c-1.77-0.27-3.57-0.03-5.21,0.69
								c-0.85,0.38-1.75,0.63-2.68,0.74c-0.92,0.11-1.86,0.11-2.78,0c-0.92-0.14-1.81-0.41-2.65-0.81
								c-0.81-0.36-1.68-0.58-2.57-0.65c-0.89-0.08-1.79-0.06-2.67,0.07c-0.88,0.17-1.74,0.45-2.55,0.83
								c-1.76,0.63-3.65,0.76-5.48,0.38c-0.89-0.22-1.76-0.53-2.59-0.91c-0.84-0.31-1.72-0.48-2.62-0.5
								c-0.89-0.05-1.79,0.01-2.67,0.2c-0.87,0.26-1.72,0.56-2.56,0.9c-0.88,0.28-1.79,0.42-2.71,0.41
								c-0.92,0.03-1.83-0.08-2.72-0.32c-0.89-0.24-1.69-0.68-2.56-1C94.7,171.55,93.81,171.44,92.91,171.47z"/>
							<path d="M91.36,168.93c0.94-0.02,1.89,0.09,2.8,0.34c0.91,0.26,1.76,0.7,2.67,0.92c0.91,0.22,1.85,0.3,2.78,0.26
								c0.93-0.01,1.85-0.17,2.73-0.47c0.87-0.38,1.76-0.7,2.66-0.98c0.94-0.2,1.89-0.27,2.85-0.23c0.96,0.01,1.91,0.19,2.81,0.51
								c0.85,0.38,1.74,0.67,2.65,0.89c1.82,0.35,3.71,0.19,5.45-0.45c1.73-0.84,3.66-1.19,5.58-1c0.96,0.07,1.91,0.3,2.8,0.68
								c0.84,0.38,1.73,0.64,2.64,0.78c1.83,0.26,3.7,0.02,5.4-0.72c0.88-0.39,1.82-0.64,2.78-0.75c0.96-0.09,1.93-0.08,2.88,0.05
								c0.95,0.15,1.87,0.43,2.75,0.83c0.85,0.36,1.74,0.58,2.66,0.66c0.92,0.08,1.85,0.05,2.76-0.08c0.91-0.18,1.8-0.46,2.65-0.84
								c1.81-0.66,3.77-0.81,5.66-0.42c0.92,0.23,1.82,0.54,2.69,0.92c0.87,0.32,1.78,0.5,2.71,0.52c0.93,0.05,1.86-0.02,2.77-0.21
								c0.91-0.2,1.74-0.63,2.65-0.92c0.91-0.29,1.86-0.43,2.82-0.42c0.95-0.02,1.9,0.09,2.82,0.33c0.92,0.25,1.75,0.71,2.64,1
								c0.9,0.26,1.84,0.4,2.78,0.39c-0.94,0.03-1.88-0.09-2.79-0.33c-0.91-0.26-1.76-0.7-2.67-0.92c-0.9-0.22-1.82-0.31-2.74-0.27
								c-0.93,0.01-1.86,0.17-2.74,0.46c-0.87,0.37-1.76,0.68-2.66,0.95c-0.94,0.2-1.89,0.28-2.85,0.24
								c-0.96-0.01-1.91-0.19-2.81-0.51c-0.86-0.37-1.74-0.67-2.65-0.89c-1.82-0.35-3.71-0.2-5.45,0.44
								c-0.87,0.4-1.78,0.7-2.72,0.89c-0.95,0.14-1.91,0.18-2.87,0.11c-0.96-0.07-1.9-0.3-2.79-0.67c-0.84-0.39-1.73-0.65-2.65-0.79
								c-1.83-0.27-3.69-0.02-5.39,0.71c-0.89,0.39-1.83,0.65-2.79,0.76c-0.96,0.09-1.92,0.08-2.87-0.05
								c-0.95-0.15-1.88-0.43-2.75-0.83c-0.85-0.36-1.74-0.58-2.66-0.66c-0.92-0.09-1.85-0.06-2.77,0.07
								c-0.91,0.18-1.79,0.46-2.64,0.84c-1.81,0.66-3.77,0.81-5.66,0.43c-0.92-0.23-1.82-0.54-2.69-0.92
								c-0.87-0.32-1.79-0.5-2.72-0.52c-0.93-0.05-1.85,0.02-2.76,0.21c-0.9,0.26-1.79,0.56-2.66,0.92
								c-0.91,0.28-1.86,0.42-2.81,0.41c-0.95,0.02-1.9-0.08-2.82-0.32c-0.92-0.25-1.75-0.71-2.65-1
								C93.25,169.03,92.31,168.91,91.36,168.93z"/>
							<path d="M89.82,166.39c0.98-0.02,1.95,0.09,2.89,0.35c1,0.26,1.82,0.71,2.76,0.93c0.94,0.22,1.91,0.31,2.88,0.26
								c0.96-0.01,1.92-0.17,2.83-0.47c0.9-0.39,1.83-0.72,2.77-1c0.97-0.21,1.95-0.29,2.94-0.25c0.99,0.02,1.98,0.19,2.92,0.52
								c0.88,0.38,1.8,0.68,2.74,0.89c1.88,0.36,3.82,0.2,5.62-0.46c0.91-0.41,1.86-0.71,2.83-0.9c0.99-0.15,2-0.18,3-0.1
								c1,0.08,1.98,0.32,2.9,0.7c2.64,1.19,5.65,1.21,8.31,0.07c0.92-0.39,1.89-0.65,2.89-0.77c1-0.11,2-0.11,3,0
								c0.98,0.15,1.94,0.44,2.85,0.84c0.87,0.37,1.8,0.6,2.75,0.67c0.95,0.08,1.91,0.05,2.85-0.09c0.94-0.18,1.86-0.47,2.73-0.86
								c1.89-0.67,3.92-0.82,5.88-0.42c0.96,0.23,1.89,0.55,2.79,0.95c0.9,0.33,1.84,0.5,2.8,0.53c0.96,0.05,1.92-0.01,2.86-0.2
								c0.94-0.2,1.81-0.63,2.75-0.93c0.94-0.29,1.93-0.44,2.92-0.42c0.98-0.02,1.96,0.09,2.91,0.33c1,0.25,1.82,0.72,2.74,1
								c0.94,0.27,1.91,0.41,2.88,0.4c-0.98,0.03-1.96-0.08-2.9-0.34c-0.94-0.26-1.81-0.71-2.76-0.93
								c-0.94-0.22-1.91-0.31-2.87-0.26c-0.96,0.01-1.92,0.17-2.83,0.47c-0.9,0.38-1.83,0.72-2.77,1c-0.97,0.21-1.95,0.29-2.94,0.25
								c-0.99-0.01-1.98-0.19-2.92-0.51c-0.88-0.38-1.8-0.68-2.74-0.9c-1.88-0.35-3.83-0.2-5.63,0.45c-1.8,0.86-3.8,1.2-5.79,1
								c-1-0.08-1.98-0.31-2.9-0.69c-0.87-0.39-1.79-0.66-2.74-0.8c-1.89-0.28-3.82-0.04-5.58,0.71c-0.92,0.4-1.89,0.66-2.88,0.77
								c-1,0.11-2,0.11-3,0c-0.98-0.15-1.94-0.43-2.85-0.84c-0.87-0.37-1.8-0.6-2.75-0.67c-0.95-0.08-1.91-0.06-2.85,0.08
								c-0.94,0.18-1.86,0.47-2.73,0.86c-1.88,0.68-3.92,0.83-5.88,0.43c-0.96-0.23-1.89-0.55-2.79-0.95
								c-0.9-0.33-1.84-0.5-2.8-0.53c-0.96-0.05-1.92,0.01-2.86,0.2c-0.93,0.26-1.85,0.57-2.75,0.93c-0.95,0.29-1.93,0.43-2.92,0.42
								c-0.98,0.02-1.96-0.09-2.91-0.33c-1-0.25-1.82-0.72-2.75-1C91.78,166.51,90.8,166.38,89.82,166.39z"/>
							<path d="M88.27,163.86c1.01-0.03,2.02,0.08,3,0.34c1,0.27,1.89,0.73,2.86,1c0.98,0.23,1.99,0.32,3,0.27
								c1-0.02,1.98-0.18,2.93-0.49c0.93-0.39,1.89-0.72,2.86-1c0.99-0.2,1.99-0.29,3-0.25c1.02,0.01,2.03,0.19,3,0.52
								c0.92,0.39,1.87,0.7,2.84,0.92c1.95,0.35,3.95,0.18,5.81-0.48c1.87-0.87,3.95-1.22,6-1c1.03,0.07,2.04,0.31,3,0.7
								c0.9,0.4,1.85,0.67,2.82,0.81c1.95,0.28,3.95,0.03,5.77-0.73c0.95-0.41,1.97-0.68,3-0.78c1.02-0.12,2.06-0.12,3.08,0
								c1.02,0.15,2.01,0.44,2.95,0.86c0.91,0.38,1.87,0.61,2.85,0.68c0.98,0.09,1.97,0.06,2.94-0.09c0.97-0.19,1.92-0.48,2.83-0.87
								c1.95-0.69,4.05-0.84,6.08-0.43c0.99,0.25,1.95,0.58,2.88,1c0.93,0.33,1.91,0.51,2.9,0.54c1,0.06,2.01-0.01,3-0.21
								c0.97-0.28,1.92-0.62,2.85-1c0.97-0.29,1.98-0.43,3-0.42c1.01-0.02,2.02,0.09,3,0.34c1,0.26,1.89,0.74,2.84,1
								c0.97,0.28,1.99,0.42,3,0.42c-1.01,0.02-2.02-0.09-3-0.35c-1-0.27-1.88-0.73-2.85-0.95c-0.98-0.23-1.99-0.32-3-0.27
								c-1,0.02-1.98,0.18-2.93,0.49c-0.94,0.31-1.85,0.77-2.86,1c-0.99,0.2-1.99,0.29-3,0.25c-1.02-0.01-2.03-0.19-3-0.52
								c-0.91-0.39-1.86-0.69-2.83-0.91c-1.94-0.36-3.95-0.2-5.81,0.46c-0.94,0.42-1.91,0.73-2.92,0.92
								c-1.02,0.15-2.05,0.19-3.08,0.11c-1.03-0.08-2.04-0.31-3-0.7c-2.73-1.22-5.84-1.25-8.59-0.09c-0.96,0.41-1.97,0.67-3,0.78
								c-1.02,0.12-2.06,0.12-3.08,0c-1.03-0.15-2.04-0.44-3-0.86c-0.91-0.37-1.86-0.6-2.84-0.68c-0.98-0.08-1.97-0.06-2.94,0.08
								c-0.97,0.18-1.92,0.48-2.83,0.88c-1.95,0.69-4.05,0.84-6.08,0.44c-0.99-0.25-1.96-0.58-2.89-1c-0.93-0.33-1.9-0.52-2.89-0.55
								c-1-0.06-2.01,0.01-3,0.21c-0.97,0.27-1.92,0.58-2.85,0.94c-0.97,0.3-1.98,0.44-3,0.43c-1.01,0.02-2.02-0.09-3-0.34
								c-1-0.26-1.88-0.74-2.84-1C90.28,163.99,89.28,163.85,88.27,163.86z"/>
							<path d="M86.73,161.32c1.04-0.03,2.08,0.08,3.09,0.35c1,0.27,1.94,0.74,3,1c1.01,0.23,2.04,0.32,3.07,0.27
								c1.02-0.01,2.03-0.18,3-0.5c0.98-0.39,1.98-0.73,3-1c1.03-0.22,2.09-0.31,3.15-0.27c1.06,0.01,2.11,0.2,3.12,0.54
								c0.95,0.39,1.93,0.7,2.93,0.93c2.01,0.36,4.08,0.19,6-0.49c0.96-0.42,1.97-0.73,3-0.93c1.05-0.15,2.12-0.19,3.18-0.1
								c1.07,0.07,2.11,0.32,3.1,0.72c0.93,0.41,1.91,0.68,2.92,0.82c2.01,0.29,4.07,0.03,5.95-0.75c0.98-0.42,2.03-0.68,3.09-0.79
								c1.06-0.11,2.12-0.11,3.18,0c1.05,0.16,2.08,0.46,3.05,0.88c0.94,0.38,1.93,0.62,2.94,0.69c1,0.08,2.01,0.05,3-0.09
								c1-0.19,1.98-0.49,2.92-0.89c2.02-0.7,4.18-0.85,6.28-0.44c1.03,0.25,2.03,0.58,3,1c0.96,0.34,1.98,0.53,3,0.56
								c1.02,0.05,2.05-0.02,3.05-0.21c1-0.2,1.93-0.66,2.94-1c1.01-0.3,2.06-0.44,3.12-0.43c1.05-0.02,2.09,0.09,3.11,0.35
								c1,0.27,1.94,0.76,2.93,1c1,0.28,2.03,0.43,3.07,0.43c-1.04,0.02-2.08-0.09-3.09-0.35c-1-0.27-1.95-0.74-2.95-1
								c-1.01-0.22-2.04-0.32-3.07-0.27c-1.02,0.02-2.03,0.19-3,0.5c-0.98,0.39-1.98,0.72-3,1c-1.03,0.22-2.09,0.3-3.14,0.26
								c-1.06-0.02-2.11-0.19-3.12-0.53c-0.95-0.4-1.93-0.71-2.93-0.93c-2.01-0.36-4.07-0.19-6,0.47c-0.96,0.42-1.97,0.74-3,0.94
								c-1.05,0.15-2.11,0.19-3.17,0.11c-1.07-0.08-2.12-0.32-3.11-0.72c-0.93-0.4-1.91-0.68-2.91-0.83c-2.03-0.29-4.1-0.04-6,0.74
								c-0.99,0.42-2.03,0.69-3.09,0.8c-1.06,0.12-2.12,0.12-3.18,0c-1.03-0.16-2.04-0.45-3-0.87c-0.94-0.39-1.93-0.62-2.94-0.7
								c-1-0.08-2.01-0.05-3,0.09c-1,0.18-1.98,0.48-2.92,0.89c-2.02,0.7-4.19,0.85-6.29,0.44c-1.03-0.24-2.03-0.58-3-1
								c-0.96-0.34-1.98-0.53-3-0.55c-1-0.05-2.01,0.01-3,0.2c-1,0.28-1.98,0.61-2.94,1c-1.01,0.3-2.06,0.44-3.11,0.43
								c-1.05,0.02-2.09-0.09-3.11-0.35c-1-0.26-2-0.75-2.94-1C88.88,161.44,87.8,161.3,86.73,161.32z"/>
							<path d="M85.18,158.78c1.07-0.03,2.15,0.08,3.19,0.35c1,0.28,2,0.75,3,1c1.04,0.23,2.1,0.33,3.16,0.27
								c1.06-0.01,2.1-0.18,3.11-0.5c1-0.39,2.02-0.72,3.06-1c1.06-0.22,2.15-0.31,3.24-0.27c1.1,0.01,2.18,0.2,3.22,0.55
								c0.97,0.39,1.98,0.71,3,0.94c2.07,0.36,4.19,0.19,6.18-0.49c1-0.44,2.05-0.76,3.12-0.95c1.08-0.16,2.18-0.2,3.27-0.11
								c1.1,0.08,2.18,0.33,3.21,0.73c0.96,0.42,1.97,0.7,3,0.84c1.04,0.11,2.09,0.11,3.13,0c1.03-0.13,2.04-0.39,3-0.79
								c1.02-0.42,2.09-0.7,3.19-0.81c1.09-0.12,2.19-0.12,3.28,0c1.09,0.16,2.15,0.47,3.16,0.9c0.96,0.39,1.97,0.62,3,0.7
								c1.04,0.09,2.09,0.06,3.13-0.09c1.03-0.19,2.04-0.49,3-0.91c2.09-0.71,4.33-0.86,6.49-0.44c1.05,0.25,2.08,0.58,3.08,1
								c0.99,0.35,2.03,0.53,3.08,0.56c1.05,0.06,2.11-0.01,3.14-0.21c1.02-0.28,2.02-0.62,3-1c1.04-0.3,2.12-0.45,3.21-0.43
								c1.08-0.03,2.16,0.1,3.21,0.36c1.05,0.26,2,0.76,3,1.06c1.03,0.29,2.1,0.44,3.17,0.44c-1.07,0.03-2.15-0.09-3.19-0.36
								c-1-0.27-2-0.75-3.05-1c-1.04-0.22-2.1-0.32-3.16-0.27c-1.06,0.02-2.11,0.19-3.12,0.51c-0.98,0.38-1.98,0.72-3,1
								c-1.06,0.22-2.15,0.31-3.24,0.27c-1.1-0.01-2.19-0.19-3.23-0.54c-0.97-0.39-1.98-0.71-3-0.94c-2.07-0.37-4.19-0.2-6.18,0.48
								c-1,0.45-2.05,0.78-3.12,1c-1.09,0.15-2.19,0.19-3.28,0.11c-1.1-0.08-2.18-0.33-3.2-0.73c-0.96-0.41-1.97-0.69-3-0.84
								c-2.08-0.29-4.19-0.04-6.14,0.75c-1.02,0.42-2.09,0.7-3.18,0.82c-1.09,0.11-2.2,0.11-3.29,0c-1.08-0.16-2.14-0.46-3.15-0.89
								c-0.96-0.39-1.97-0.63-3-0.71c-2.1-0.21-4.22,0.13-6.14,1c-2.08,0.72-4.32,0.88-6.48,0.45c-1.05-0.24-2.08-0.58-3.08-1
								c-0.96-0.34-1.96-0.54-2.98-0.59c-1.05-0.06-2.11,0.01-3.15,0.21c-1.02,0.28-2.02,0.61-3,1c-1.05,0.31-2.13,0.45-3.22,0.44
								c-1.08,0.02-2.15-0.1-3.2-0.36c-1.06-0.27-2-0.77-3-1.07C87.37,158.92,86.28,158.77,85.18,158.78z"/>
							<path d="M83.63,156.24c1.11-0.03,2.21,0.09,3.29,0.35c1.07,0.29,2.08,0.77,3.14,1c1.07,0.23,2.17,0.33,3.26,0.28
								c1.09-0.02,2.17-0.19,3.21-0.52c1.03-0.41,2.08-0.76,3.15-1.06c1.09-0.23,2.21-0.33,3.32-0.29c1.13,0.01,2.25,0.2,3.32,0.55
								c1.01,0.42,2.05,0.76,3.12,1c2.13,0.37,4.32,0.2,6.36-0.5c2.07-0.93,4.34-1.3,6.6-1.08c1.13,0.08,2.25,0.33,3.3,0.75
								c1,0.42,2.04,0.7,3.11,0.85c1.07,0.11,2.15,0.11,3.22,0c1.07-0.12,2.11-0.39,3.1-0.81c1.05-0.43,2.16-0.71,3.29-0.82
								c1.13-0.11,2.26-0.09,3.38,0.05c1.12,0.16,2.21,0.46,3.25,0.91c1,0.39,2.05,0.63,3.12,0.71c2.16,0.22,4.34-0.12,6.33-1
								c2.15-0.73,4.45-0.88,6.68-0.45c1.09,0.24,2.16,0.58,3.19,1c1.02,0.35,2.09,0.54,3.17,0.57c1.08,0.06,2.17-0.02,3.24-0.22
								c1.06-0.2,2.05-0.67,3.13-1c1.08-0.31,2.19-0.46,3.31-0.44c1.11-0.02,2.23,0.1,3.31,0.37c1.08,0.27,2.07,0.78,3.12,1.08
								c1.09,0.32,2.22,0.48,3.35,0.48c-1.11,0.03-2.21-0.09-3.29-0.36c-1.07-0.28-2.08-0.76-3.15-1c-1.07-0.23-2.16-0.32-3.25-0.27
								c-1.09,0.02-2.17,0.19-3.21,0.52c-1.03,0.39-2.09,0.72-3.16,1c-1.1,0.23-2.22,0.32-3.34,0.28c-1.13-0.01-2.25-0.2-3.32-0.55
								c-1.01-0.42-2.05-0.75-3.12-1c-1.07-0.18-2.15-0.23-3.23-0.15c-1.07,0.06-2.13,0.27-3.14,0.64c-1.03,0.45-2.11,0.79-3.21,1
								c-1.12,0.16-2.25,0.2-3.38,0.12c-1.13-0.08-2.25-0.33-3.31-0.74c-3-1.28-6.39-1.31-9.42-0.09c-1.05,0.43-2.16,0.71-3.29,0.83
								c-1.13,0.1-2.26,0.09-3.38-0.05c-1.12-0.16-2.22-0.46-3.26-0.91c-1-0.39-2.04-0.64-3.11-0.72c-1.08-0.09-2.16-0.06-3.23,0.09
								c-1.06,0.19-2.1,0.5-3.1,0.92c-2.15,0.73-4.46,0.89-6.69,0.46c-1.09-0.24-2.15-0.58-3.18-1c-1.02-0.35-2.09-0.55-3.17-0.57
								c-1.08-0.07-2.17,0-3.24,0.21c-1.06,0.2-2,0.67-3.13,1c-1.08,0.31-2.19,0.46-3.31,0.45c-1.11,0.02-2.23-0.11-3.31-0.37
								c-1.08-0.27-2.07-0.78-3.13-1.09C85.86,156.36,84.75,156.23,83.63,156.24z"/>
							<path d="M82.09,153.7c1.14-0.03,2.27,0.09,3.38,0.36c1.11,0.29,2.14,0.78,3.24,1c1.1,0.23,2.23,0.32,3.36,0.27
								c1.12-0.02,2.23-0.2,3.3-0.53c1.06-0.42,2.15-0.78,3.25-1.08c1.13-0.22,2.29-0.32,3.44-0.27c1.16,0.01,2.32,0.2,3.42,0.56
								c1.04,0.42,2.12,0.76,3.22,1c2.19,0.37,4.44,0.2,6.55-0.51c1.07-0.46,2.18-0.79,3.32-1c1.15-0.15,2.31-0.19,3.47-0.11
								c1.17,0.08,2.32,0.34,3.41,0.76c1.02,0.43,2.1,0.72,3.2,0.87c1.1,0.12,2.21,0.12,3.31,0c1.1-0.12,2.17-0.39,3.19-0.81
								c1.08-0.44,2.23-0.72,3.39-0.84c1.16-0.11,2.33-0.09,3.49,0.05c1.15,0.16,2.28,0.48,3.35,0.93c1.03,0.4,2.11,0.65,3.21,0.72
								c2.22,0.24,4.46-0.11,6.51-1c2.22-0.74,4.59-0.89,6.89-0.45c1.12,0.24,2.22,0.58,3.28,1c1.05,0.36,2.15,0.56,3.26,0.59
								c1.12,0.06,2.24-0.02,3.34-0.22c1.09-0.21,2.11-0.68,3.23-1c1.11-0.31,2.26-0.47,3.41-0.45c1.15-0.02,2.29,0.1,3.4,0.38
								c1.12,0.27,2.14,0.79,3.22,1.11c1.09,0.3,2.22,0.45,3.36,0.45c-1.14,0.03-2.27-0.09-3.38-0.36c-1.11-0.29-2.14-0.78-3.24-1
								c-1.1-0.24-2.23-0.33-3.36-0.27c-1.12,0.02-2.23,0.19-3.3,0.53c-1.06,0.33-2.11,0.83-3.25,1.07
								c-1.13,0.23-2.29,0.33-3.44,0.28c-1.16-0.01-2.31-0.2-3.42-0.55c-1.04-0.42-2.12-0.76-3.22-1c-1.1-0.18-2.21-0.23-3.32-0.15
								c-1.1,0.05-2.19,0.27-3.23,0.65c-1.07,0.45-2.18,0.79-3.32,1c-1.15,0.16-2.32,0.2-3.48,0.12c-1.17-0.08-2.31-0.34-3.4-0.76
								c-1.03-0.42-2.1-0.71-3.2-0.87c-1.1-0.12-2.21-0.12-3.31,0c-1.1,0.12-2.17,0.39-3.19,0.81c-1.08,0.44-2.23,0.73-3.39,0.85
								c-1.16,0.11-2.33,0.09-3.49-0.05c-1.15-0.16-2.28-0.47-3.35-0.92c-1.03-0.41-2.11-0.66-3.21-0.74
								c-1.11-0.09-2.22-0.06-3.32,0.09c-1.1,0.2-2.17,0.51-3.2,0.94c-2.22,0.74-4.59,0.9-6.88,0.46c-1.12-0.24-2.22-0.58-3.28-1
								c-1.07-0.37-2.18-0.58-3.31-0.61c-1.11-0.06-2.23,0.02-3.33,0.22c-1.09,0.28-2.17,0.61-3.23,1
								c-1.11,0.31-2.26,0.46-3.41,0.45c-1.14,0.02-2.29-0.11-3.4-0.38c-1.12-0.27-2.14-0.8-3.23-1.11
								C84.32,153.87,83.21,153.71,82.09,153.7z"/>
							<path d="M80.54,151.16c1.17-0.03,2.34,0.09,3.48,0.36c1.14,0.29,2.21,0.8,3.34,1c1.13,0.23,2.29,0.33,3.45,0.27
								c1.15-0.02,2.3-0.2,3.4-0.54c1.09-0.42,2.21-0.78,3.34-1.09c1.17-0.23,2.35-0.33,3.54-0.29c1.2,0.01,2.39,0.21,3.53,0.57
								c1.07,0.43,2.17,0.76,3.3,1c1.13,0.18,2.28,0.23,3.42,0.15c1.13-0.06,2.25-0.28,3.32-0.67c1.1-0.46,2.25-0.79,3.42-1
								c1.19-0.16,2.39-0.2,3.58-0.12c1.2,0.08,2.38,0.34,3.51,0.77c1.05,0.44,2.15,0.74,3.28,0.89c1.13,0.11,2.28,0.11,3.41,0
								c1.13-0.12,2.24-0.4,3.29-0.83c1.12-0.45,2.29-0.73,3.49-0.85c1.19-0.12,2.39-0.12,3.58,0c1.19,0.17,2.34,0.48,3.45,0.94
								c1.06,0.41,2.18,0.66,3.31,0.74c2.28,0.24,4.59-0.1,6.7-1c2.29-0.75,4.72-0.92,7.09-0.47c1.15,0.27,2.28,0.62,3.37,1.07
								c1.08,0.37,2.22,0.57,3.36,0.59c1.15,0.07,2.3-0.01,3.43-0.22c1.12-0.21,2.18-0.69,3.32-1c1.14-0.32,2.32-0.47,3.51-0.46
								c1.18-0.02,2.36,0.12,3.51,0.39c1.15,0.28,2.2,0.81,3.31,1.13c1.11,0.32,2.26,0.49,3.42,0.51c-1.17,0.03-2.34-0.09-3.48-0.36
								c-1.14-0.29-2.21-0.79-3.34-1c-1.13-0.24-2.29-0.34-3.45-0.28c-1.15,0.02-2.3,0.2-3.4,0.53c-1.09,0.43-2.2,0.8-3.33,1.11
								c-1.17,0.23-2.36,0.33-3.55,0.29c-1.2-0.02-2.38-0.21-3.52-0.57c-1.07-0.42-2.18-0.76-3.31-1c-1.13-0.18-2.27-0.23-3.41-0.15
								c-1.14,0.06-2.26,0.28-3.33,0.66c-1.1,0.45-2.24,0.79-3.41,1c-1.19,0.16-2.39,0.2-3.58,0.12c-1.2-0.08-2.39-0.34-3.51-0.77
								c-1.06-0.43-2.16-0.73-3.29-0.88c-1.13-0.12-2.27-0.12-3.4,0c-1.13,0.12-2.24,0.39-3.29,0.82c-1.12,0.45-2.29,0.74-3.49,0.86
								c-1.19,0.12-2.39,0.12-3.58,0c-1.19-0.16-2.35-0.48-3.46-0.94c-1.06-0.42-2.17-0.66-3.3-0.74c-1.14-0.09-2.28-0.06-3.41,0.09
								c-1.13,0.19-2.23,0.51-3.29,0.95c-1.13,0.4-2.32,0.63-3.52,0.68c-1.19,0.06-2.39-0.01-3.57-0.21
								c-1.15-0.26-2.28-0.62-3.37-1.07c-1.08-0.37-2.22-0.56-3.36-0.59c-1.15-0.07-2.3,0-3.43,0.21c-1.13,0.21-2.18,0.7-3.32,1
								c-1.14,0.32-2.32,0.47-3.51,0.45c-1.18,0.02-2.36-0.1-3.51-0.38c-1.15-0.28-2.2-0.81-3.32-1.13
								C82.85,151.37,81.7,151.19,80.54,151.16z"/>
							<path d="M79,148.62c1.2-0.03,2.41,0.09,3.58,0.37c1.17,0.29,2.27,0.8,3.44,1c1.16,0.24,2.35,0.33,3.54,0.27
								c1.19-0.02,2.36-0.2,3.5-0.54c1.13-0.44,2.27-0.81,3.44-1.12c1.2-0.24,2.42-0.33,3.64-0.29c1.23,0.01,2.45,0.21,3.62,0.58
								c1.1,0.43,2.24,0.76,3.4,1c1.16,0.18,2.34,0.23,3.51,0.15c1.17-0.06,2.32-0.28,3.42-0.68c1.13-0.46,2.31-0.79,3.52-1
								c1.22-0.16,2.45-0.2,3.67-0.11c1.23,0.08,2.45,0.34,3.61,0.78c1.09,0.44,2.22,0.74,3.38,0.9c1.16,0.12,2.34,0.12,3.5,0
								c1.16-0.13,2.3-0.41,3.38-0.84c1.15-0.46,2.36-0.75,3.59-0.87c1.23-0.12,2.46-0.12,3.69,0c1.22,0.19,2.41,0.52,3.55,1
								c1.09,0.42,2.23,0.67,3.39,0.75c2.35,0.24,4.72-0.13,6.89-1.06c1.17-0.4,2.39-0.64,3.63-0.69c1.22-0.06,2.45,0.01,3.66,0.22
								c1.19,0.27,2.35,0.63,3.48,1.09c1.12,0.37,2.28,0.57,3.45,0.6c1.17,0.09,2.36,0.05,3.52-0.13c1.16-0.21,2.24-0.71,3.42-1.05
								c1.18-0.32,2.39-0.47,3.61-0.45c1.21-0.03,2.42,0.11,3.6,0.39c1.18,0.28,2.26,0.83,3.41,1.15c1.16,0.31,2.35,0.47,3.55,0.47
								c-1.2,0.03-2.4-0.09-3.57-0.37c-1.18-0.29-2.28-0.8-3.44-1c-1.17-0.24-2.36-0.34-3.55-0.28c-1.18,0.02-2.36,0.2-3.49,0.54
								c-1.13,0.43-2.28,0.81-3.44,1.12c-1.2,0.24-2.42,0.33-3.64,0.29c-1.23-0.01-2.45-0.21-3.62-0.57c-1.11-0.42-2.25-0.76-3.41-1
								c-1.16-0.18-2.33-0.23-3.5-0.15c-1.17,0.06-2.32,0.28-3.42,0.67c-1.14,0.46-2.31,0.79-3.52,1c-1.22,0.16-2.45,0.21-3.68,0.12
								c-1.23-0.08-2.45-0.35-3.61-0.78c-1.08-0.44-2.22-0.75-3.38-0.9c-1.16-0.12-2.34-0.12-3.5,0c-1.16,0.12-2.29,0.4-3.37,0.84
								c-1.15,0.45-2.36,0.74-3.59,0.87c-1.23,0.11-2.46,0.09-3.69-0.05c-1.22-0.16-2.41-0.48-3.55-0.95
								c-1.09-0.42-2.23-0.68-3.4-0.76c-1.17-0.09-2.34-0.06-3.5,0.09c-1.16,0.21-2.3,0.55-3.39,1c-1.17,0.41-2.39,0.65-3.62,0.7
								c-1.22,0.06-2.45-0.01-3.66-0.22c-1.19-0.26-2.35-0.62-3.48-1.08c-1.11-0.37-2.28-0.58-3.45-0.61
								c-1.18-0.06-2.36,0.01-3.52,0.22c-1.16,0.28-2.3,0.61-3.42,1c-1.17,0.33-2.39,0.48-3.61,0.46c-1.21,0.03-2.42-0.1-3.6-0.39
								c-1.18-0.28-2.27-0.82-3.42-1.15C81.4,148.83,80.2,148.65,79,148.62z"/>
							<path d="M77.45,146.08c1.23-0.03,2.47,0.09,3.67,0.37c1.21,0.3,2.34,0.82,3.54,1.07c1.2,0.24,2.42,0.34,3.64,0.28
								c1.21-0.02,2.42-0.21,3.58-0.56c1.16-0.44,2.34-0.82,3.54-1.14c1.23-0.24,2.49-0.34,3.74-0.29c1.26,0.01,2.51,0.21,3.72,0.58
								c1.14,0.43,2.31,0.77,3.5,1c1.19,0.19,2.4,0.24,3.6,0.15c1.2-0.06,2.38-0.29,3.51-0.69c1.17-0.46,2.38-0.8,3.62-1
								c1.25-0.17,2.52-0.21,3.78-0.12c1.27,0.08,2.52,0.35,3.71,0.79c1.11,0.45,2.28,0.76,3.47,0.91c1.2,0.13,2.4,0.13,3.6,0
								c1.19-0.13,2.35-0.41,3.46-0.86c1.19-0.46,2.43-0.76,3.7-0.88c1.26-0.12,2.52-0.12,3.78,0c1.25,0.18,2.48,0.52,3.65,1
								c1.12,0.42,2.3,0.68,3.49,0.77c1.2,0.09,2.41,0.05,3.6-0.1c1.19-0.21,2.36-0.54,3.48-1c1.2-0.41,2.45-0.65,3.72-0.7
								c1.26-0.06,2.53,0.01,3.77,0.23c1.22,0.27,2.41,0.64,3.57,1.1c1.14,0.38,2.34,0.59,3.54,0.62c1.21,0.06,2.43-0.02,3.62-0.23
								c1.19-0.29,2.37-0.65,3.52-1.06c1.21-0.33,2.46-0.48,3.71-0.46c1.24-0.02,2.48,0.12,3.69,0.4c1.22,0.29,2.33,0.84,3.51,1.17
								c1.19,0.32,2.42,0.48,3.65,0.48c-1.23,0.04-2.47-0.08-3.67-0.37c-1.21-0.3-2.34-0.81-3.54-1.06
								c-1.2-0.24-2.42-0.34-3.64-0.28c-1.22,0.02-2.42,0.2-3.59,0.55c-1.16,0.44-2.33,0.82-3.53,1.14
								c-1.23,0.24-2.49,0.34-3.74,0.3c-1.26-0.01-2.52-0.21-3.73-0.58c-1.13-0.43-2.3-0.76-3.49-1c-1.19-0.18-2.4-0.23-3.61-0.15
								c-1.2,0.06-2.38,0.29-3.51,0.69c-2.33,0.98-4.87,1.38-7.39,1.16c-1.27-0.08-2.52-0.35-3.71-0.79
								c-1.11-0.45-2.28-0.76-3.47-0.92c-1.2-0.11-2.4-0.11-3.6,0c-1.19,0.13-2.36,0.41-3.47,0.85c-1.18,0.47-2.42,0.77-3.69,0.89
								c-1.26,0.11-2.53,0.1-3.78-0.05c-1.26-0.18-2.49-0.51-3.66-1c-1.12-0.43-2.29-0.69-3.48-0.77c-1.2-0.09-2.41-0.06-3.6,0.09
								c-1.19,0.21-2.36,0.55-3.48,1c-1.2,0.41-2.45,0.65-3.72,0.71c-1.26,0.06-2.52-0.01-3.77-0.22c-1.22-0.27-2.41-0.64-3.57-1.11
								c-1.15-0.37-2.34-0.58-3.55-0.62c-1.21-0.06-2.42,0.02-3.61,0.23c-1.19,0.29-2.37,0.65-3.53,1.07
								c-1.21,0.33-2.46,0.48-3.71,0.46c-1.25,0.03-2.49-0.11-3.7-0.4c-1.21-0.29-2.33-0.84-3.51-1.17
								C79.9,146.24,78.68,146.08,77.45,146.08z"/>
							<path d="M75.9,143.54c1.27-0.04,2.54,0.08,3.78,0.37c1.24,0.3,2.4,0.83,3.63,1.08c1.23,0.25,2.48,0.34,3.73,0.29
								c1.25-0.02,2.48-0.21,3.68-0.57c1.19-0.45,2.41-0.83,3.64-1.15c1.26-0.25,2.55-0.35,3.84-0.3c1.3,0.01,2.58,0.21,3.82,0.59
								c1.17,0.43,2.37,0.76,3.59,1c1.22,0.18,2.46,0.23,3.7,0.15c1.23-0.07,2.44-0.31,3.6-0.71c1.2-0.48,2.44-0.83,3.71-1.05
								c1.29-0.17,2.59-0.21,3.88-0.12c1.3,0.08,2.59,0.35,3.81,0.81c1.15,0.46,2.35,0.77,3.57,0.92c1.23,0.13,2.46,0.13,3.69,0
								c1.22-0.13,2.42-0.42,3.56-0.87c1.21-0.48,2.49-0.78,3.79-0.9c1.29-0.12,2.6-0.12,3.89,0c1.29,0.18,2.55,0.51,3.75,1
								c1.15,0.43,2.36,0.7,3.58,0.78c1.23,0.09,2.47,0.05,3.69-0.1c1.22-0.21,2.42-0.55,3.57-1c1.23-0.43,2.53-0.66,3.83-0.71
								c1.29-0.07,2.59,0.01,3.86,0.23c1.25,0.27,2.48,0.65,3.67,1.12c1.18,0.38,2.4,0.59,3.64,0.62c1.24,0.07,2.49-0.01,3.71-0.22
								c1.22-0.22,2.37-0.73,3.61-1.08c1.24-0.33,2.52-0.49,3.81-0.47c1.28-0.03,2.56,0.11,3.8,0.4c1.25,0.3,2.4,0.86,3.61,1.19
								c1.22,0.33,2.48,0.5,3.74,0.5c-1.27,0.05-2.54-0.08-3.78-0.36c-1.24-0.3-2.4-0.83-3.63-1.08c-1.23-0.25-2.48-0.35-3.73-0.29
								c-1.25,0.02-2.49,0.21-3.69,0.56c-1.18,0.36-2.35,0.9-3.63,1.16c-1.26,0.24-2.55,0.34-3.84,0.3
								c-1.3-0.01-2.58-0.21-3.82-0.59c-1.17-0.43-2.37-0.76-3.59-1c-1.22-0.18-2.46-0.23-3.7-0.15c-1.23,0.06-2.44,0.29-3.6,0.7
								c-2.4,1-5,1.41-7.59,1.18c-1.31-0.08-2.59-0.36-3.82-0.81c-1.14-0.45-2.34-0.76-3.56-0.92c-1.23-0.13-2.46-0.13-3.69,0
								c-1.22,0.12-2.42,0.41-3.56,0.86c-1.22,0.47-2.49,0.77-3.79,0.9c-1.29,0.13-2.6,0.13-3.89,0c-1.29-0.17-2.55-0.51-3.75-1
								c-1.15-0.43-2.36-0.69-3.58-0.78c-1.23-0.09-2.47-0.06-3.69,0.09c-1.22,0.21-2.42,0.55-3.58,1
								c-1.23,0.42-2.52,0.67-3.82,0.72c-1.29,0.06-2.59-0.01-3.87-0.23c-1.25-0.27-2.47-0.65-3.66-1.12
								c-1.18-0.38-2.4-0.6-3.64-0.63c-1.24-0.07-2.49,0.01-3.72,0.22c-1.21,0.22-2.36,0.73-3.61,1.08
								c-1.24,0.33-2.52,0.49-3.8,0.48c-1.28,0.02-2.55-0.12-3.8-0.41c-1.25-0.29-2.4-0.85-3.61-1.19
								C78.42,143.71,77.16,143.55,75.9,143.54z"/>
						</g>
					</g>
				</g>
				<g class="st4">
					<path d="M69.2,41.31c-5.31,0-8.31-3.74-8.31-7.44c0-3.51,2.85-7.44,8.31-7.44c5.46,0,8.29,3.95,8.29,7.44
						C77.49,37.59,74.41,41.31,69.2,41.31z M69.2,29.45c-2.76,0-4.59,1.76-4.59,4.42s1.83,4.42,4.59,4.42
						c2.74,0,4.57-1.76,4.57-4.42S71.94,29.45,69.2,29.45z"/>
				</g>
				<g class="st4">
					<path d="M78.53,31.32h3.29l2.08,5.4l2.1-5.4h3.27l-4.51,9.99h-1.72L78.53,31.32z"/>
				</g>
				<g class="st4">
					<path d="M95.23,41.31c-3.21,0-5.55-2.02-5.55-5.1c0-3.34,2.66-5.08,5.55-5.08c2.4,0,5.51,1.34,5.51,5.1
						C100.74,40.12,97.4,41.31,95.23,41.31z M95.23,32.96c-1.34,0-2.25,1.04-2.25,3.25c0,2.53,1.08,3.27,2.25,3.27
						c1.45,0,2.21-1.19,2.21-3.34C97.44,34.23,96.79,32.96,95.23,32.96z"/>
				</g>
				<g class="st4">
				</g>
				<g class="st4">
					<path d="M121.85,41.12h-3.89l-1.19-2.87h-6.48l-1.08,2.87h-3.83l5.85-14.5h4.19L121.85,41.12z M113.37,30.09l-2.13,5.63h4.46
						L113.37,30.09z"/>
					<path d="M126.33,32.58c0.53-0.49,1.08-0.85,1.64-1.11c0.57-0.23,1.15-0.34,1.76-0.34c1.7,0,2.85,0.68,3.53,2.08
						c1.28-1.47,2.4-2.08,3.87-2.08c2.23,0,3.83,1.47,3.83,3.7v6.29h-3.08v-5.74c0-1.4-0.68-2.19-1.81-2.19
						c-0.89,0-1.72,0.57-2.42,1.66v6.27h-3.08v-5.8c0-1.59-0.96-2.13-1.87-2.13c-0.81,0-1.62,0.47-2.36,1.36v6.57h-3.08v-9.8h3.08
						V32.58z"/>
					<path d="M146.62,32.72c0.98-1.13,1.93-1.59,3.19-1.59c1.53,0,3.57,0.87,3.57,3.76v6.23h-3.08v-5.97c0-1.38-0.66-1.96-1.53-1.96
						c-0.77,0-1.34,0.4-2.15,1.62v6.31h-3.08v-9.8h3.08V32.72z"/>
					<path d="M159.22,28.13c0,0.94-0.77,1.7-1.7,1.7c-0.94,0-1.7-0.76-1.7-1.7c0-0.93,0.77-1.7,1.7-1.7
						C158.46,26.43,159.22,27.2,159.22,28.13z M159.07,41.12h-3.08v-9.8h3.08V41.12z"/>
					<path d="M166.74,41.31c-3.21,0-5.55-2.02-5.55-5.1c0-3.34,2.66-5.08,5.55-5.08c2.4,0,5.51,1.34,5.51,5.1
						C172.25,40.12,168.91,41.31,166.74,41.31z M166.74,32.96c-1.34,0-2.25,1.04-2.25,3.25c0,2.53,1.08,3.27,2.25,3.27
						c1.45,0,2.21-1.19,2.21-3.34C168.96,34.23,168.3,32.96,166.74,32.96z M166.62,29.85h-1.57l1.57-3.1h3.51L166.62,29.85z"/>
					<path d="M181.34,33.43h-3.57v4.04c0,0.96,0.55,1.57,1.51,1.57c0.64,0,1.23-0.15,2.06-0.57v2.23c-1.08,0.45-1.89,0.62-2.85,0.62
						c-2.04,0-3.81-0.94-3.81-3.68v-4.21h-1.4v-0.6l4.1-4.59h0.38v3.08h3.57V33.43z"/>
					<path d="M186.23,28.13c0,0.94-0.76,1.7-1.7,1.7s-1.7-0.76-1.7-1.7c0-0.93,0.76-1.7,1.7-1.7S186.23,27.2,186.23,28.13z
						 M186.08,41.12H183v-9.8h3.08V41.12z"/>
					<path d="M197.26,40.65c-1.23,0.45-2.27,0.66-3.32,0.66c-3.44,0-5.68-2-5.68-5.06c0-3,2.32-5.12,5.55-5.12
						c1,0,2.27,0.25,3.29,0.64v2.3c-0.81-0.43-1.74-0.66-2.51-0.66c-1.85,0-3.04,1.11-3.04,2.83c0,1.74,1.17,2.89,2.93,2.89
						c0.74,0,1.4-0.17,2.76-0.68V40.65z"/>
					<path d="M204.38,41.31c-3.21,0-5.55-2.02-5.55-5.1c0-3.34,2.66-5.08,5.55-5.08c2.4,0,5.5,1.34,5.5,5.1
						C209.88,40.12,206.55,41.31,204.38,41.31z M204.38,32.96c-1.34,0-2.25,1.04-2.25,3.25c0,2.53,1.08,3.27,2.25,3.27
						c1.45,0,2.21-1.19,2.21-3.34C206.59,34.23,205.93,32.96,204.38,32.96z"/>
				</g>
				<g class="st4">
					<path d="M33.18,239.38c-1.26-0.74-2.34-1.07-3.52-1.07c-2.34,0-4.08,1.67-4.08,3.92c0,2.29,1.68,3.88,4.14,3.88
						c1.16,0,2.42-0.41,3.57-1.16v1.61c-1.01,0.52-2.1,0.9-3.71,0.9c-3.84,0-5.52-2.96-5.52-5.1c0-3.12,2.35-5.4,5.61-5.4
						c1.05,0,2.12,0.25,3.51,0.84V239.38z"/>
					<path d="M40.12,246.94c-0.61,0.4-0.87,0.52-1.29,0.52c-0.58,0-0.9-0.21-1.02-0.69c-0.58,0.46-1.2,0.69-1.81,0.69
						c-0.99,0-1.65-0.78-1.65-1.65c0-1.33,1.21-1.74,2.29-2.13l1.18-0.42v-0.36c0-0.84-0.4-1.18-1.21-1.18
						c-0.73,0-1.48,0.34-2.13,1.11v-1.46c0.52-0.61,1.26-0.92,2.23-0.92c1.37,0,2.44,0.69,2.44,2.22v3.46
						c0,0.25,0.09,0.34,0.26,0.34c0.13,0,0.4-0.13,0.7-0.36V246.94z M37.83,244c-1.14,0.39-2.13,0.78-2.13,1.58
						c0,0.55,0.41,0.95,0.96,0.95c0.42,0,0.81-0.21,1.17-0.56V244z"/>
					<path d="M45.22,242.33c-0.75-0.5-1.46-0.71-1.95-0.71c-0.54,0-0.88,0.26-0.88,0.62c0,0.3,0.45,0.66,1.63,1.35
						c1.11,0.73,1.52,1.2,1.52,1.89c0,1.18-0.94,1.98-2.22,1.98c-0.83,0-1.47-0.17-2.34-0.62v-1.44c0.87,0.6,1.67,0.88,2.21,0.88
						c0.54-0.03,0.99-0.29,0.99-0.76c0-0.93-3.15-1.42-3.15-3.24c0-1.14,0.87-1.83,2.22-1.83c0.63,0,1.27,0.18,1.98,0.56V242.33z"/>
					<path d="M53.88,243.9c0,2.13-1.48,3.57-3.65,3.57c-2.07,0-3.55-1.5-3.55-3.57c0-1.94,1.54-3.44,3.55-3.44
						C52.35,240.46,53.88,241.9,53.88,243.9z M48.04,243.9c0,1.42,0.89,2.37,2.18,2.37c1.41,0,2.29-0.9,2.29-2.35
						c0-1.3-0.96-2.25-2.29-2.25C48.96,241.66,48.04,242.61,48.04,243.9z"/>
				</g>
				<g class="st4">
				</g>
				<g class="st4">
					<path d="M61.96,240.6h1.46l1.81,4.14L67,240.6h1.42l-2.97,6.87h-0.45L61.96,240.6z"/>
				</g>
				<g class="st4">
					<path d="M75.93,243.9c0,2.13-1.48,3.57-3.65,3.57c-2.07,0-3.55-1.5-3.55-3.57c0-1.94,1.54-3.44,3.55-3.44
						C74.4,240.46,75.93,241.9,75.93,243.9z M70.09,243.9c0,1.42,0.89,2.37,2.18,2.37c1.41,0,2.29-0.9,2.29-2.35
						c0-1.3-0.96-2.25-2.29-2.25C71.01,241.66,70.09,242.61,70.09,243.9z"/>
					<path d="M82.36,242.35c-0.76-0.51-1.27-0.66-1.86-0.66c-1.21,0-2.05,0.92-2.05,2.28c0,1.39,0.9,2.23,2.28,2.23
						c0.57,0,1.11-0.15,1.79-0.45v1.32c-0.45,0.21-1.31,0.39-2.01,0.39c-2.01,0-3.42-1.39-3.42-3.38c0-2.22,1.29-3.63,3.33-3.63
						c0.78,0,1.31,0.18,1.95,0.47V242.35z"/>
					<path d="M89.61,246.67c-0.81,0.54-1.54,0.79-2.69,0.79c-2.1,0-3.27-1.72-3.27-3.58c0-2.04,1.29-3.42,3.15-3.42
						c1.79,0,2.93,1.22,2.93,3.71h-4.74c0.21,1.33,0.98,2.03,2.27,2.03c0.81,0,1.57-0.3,2.35-0.81V246.67z M88.72,239.74H87.9
						l-1.31-1.3l-1.24,1.3h-0.79l1.36-2.26h1.4L88.72,239.74z M88.41,243.28c-0.04-1.02-0.63-1.67-1.57-1.67
						c-1.02,0-1.63,0.6-1.81,1.67H88.41z"/>
				</g>
				<g class="st4">
				</g>
				<g class="st4">
					<path d="M102.59,242.33c-0.75-0.5-1.46-0.71-1.95-0.71c-0.54,0-0.88,0.26-0.88,0.62c0,0.3,0.45,0.66,1.63,1.35
						c1.11,0.73,1.52,1.2,1.52,1.89c0,1.18-0.94,1.98-2.22,1.98c-0.83,0-1.47-0.17-2.34-0.62v-1.44c0.87,0.6,1.67,0.88,2.21,0.88
						c0.54-0.03,0.99-0.29,0.99-0.76c0-0.93-3.15-1.42-3.15-3.24c0-1.14,0.87-1.83,2.22-1.83c0.63,0,1.27,0.18,1.98,0.56V242.33z"/>
					<path d="M110.07,246.67c-0.81,0.54-1.54,0.79-2.69,0.79c-2.1,0-3.27-1.72-3.27-3.58c0-2.04,1.29-3.42,3.15-3.42
						c1.79,0,2.93,1.22,2.93,3.71h-4.74c0.21,1.33,0.98,2.03,2.27,2.03c0.81,0,1.57-0.3,2.35-0.81V246.67z M108.87,243.28
						c-0.04-1.02-0.63-1.67-1.57-1.67c-1.02,0-1.64,0.6-1.81,1.67H108.87z"/>
					<path d="M112.94,248.21c0,1.44-0.45,2.08-1.33,2.57l-1-0.99c0.58-0.24,1-0.72,1-1.47v-7.72h1.33V248.21z M112.28,239.35
						c-0.44,0-0.79-0.36-0.79-0.79c0-0.44,0.36-0.79,0.79-0.79s0.79,0.36,0.79,0.79C113.07,238.99,112.71,239.35,112.28,239.35z"/>
					<path d="M120.14,246.94c-0.61,0.4-0.87,0.52-1.29,0.52c-0.58,0-0.9-0.21-1.02-0.69c-0.58,0.46-1.2,0.69-1.81,0.69
						c-0.99,0-1.65-0.78-1.65-1.65c0-1.33,1.21-1.74,2.29-2.13l1.18-0.42v-0.36c0-0.84-0.4-1.18-1.21-1.18
						c-0.73,0-1.48,0.34-2.13,1.11v-1.46c0.52-0.61,1.26-0.92,2.23-0.92c1.37,0,2.44,0.69,2.44,2.22v3.46
						c0,0.25,0.09,0.34,0.26,0.34c0.13,0,0.4-0.13,0.7-0.36V246.94z M117.84,244c-1.14,0.39-2.13,0.78-2.13,1.58
						c0,0.55,0.41,0.95,0.96,0.95c0.42,0,0.81-0.21,1.17-0.56V244z"/>
				</g>
				<g class="st4">
				</g>
				<g class="st4">
					<path d="M134.04,246.94c-0.61,0.4-0.87,0.52-1.29,0.52c-0.58,0-0.9-0.21-1.02-0.69c-0.58,0.46-1.2,0.69-1.81,0.69
						c-0.99,0-1.65-0.78-1.65-1.65c0-1.33,1.21-1.74,2.29-2.13l1.18-0.42v-0.36c0-0.84-0.4-1.18-1.21-1.18
						c-0.73,0-1.48,0.34-2.13,1.11v-1.46c0.52-0.61,1.26-0.92,2.23-0.92c1.37,0,2.44,0.69,2.44,2.22v3.46
						c0,0.25,0.09,0.34,0.26,0.34c0.13,0,0.4-0.13,0.7-0.36V246.94z M131.75,244c-1.14,0.39-2.13,0.78-2.13,1.58
						c0,0.55,0.41,0.95,0.96,0.95c0.42,0,0.81-0.21,1.17-0.56V244z"/>
					<path d="M136.59,247.33h-1.33V237.1h1.33V247.33z"/>
				</g>
				<g class="st4">
					<path d="M137.62,240.6h1.46l1.81,4.14l1.77-4.14h1.42l-2.97,6.87h-0.45L137.62,240.6z"/>
				</g>
				<g class="st4">
					<path d="M151.58,243.9c0,2.13-1.49,3.57-3.65,3.57c-2.07,0-3.55-1.5-3.55-3.57c0-1.94,1.54-3.44,3.55-3.44
						C150.05,240.46,151.58,241.9,151.58,243.9z M145.75,243.9c0,1.42,0.88,2.37,2.17,2.37c1.41,0,2.29-0.9,2.29-2.35
						c0-1.3-0.96-2.25-2.29-2.25C146.66,241.66,145.75,242.61,145.75,243.9z"/>
				</g>
				<g class="st4">
				</g>
				<g class="st4">
					<path d="M166.39,247.33h-2.83c-2.01,0-3.27-1.37-3.27-3.52c0-1.95,1.39-3.35,3.36-3.35c0.45,0,0.87,0.08,1.41,0.27v-3.63h1.33
						V247.33z M165.06,241.92c-0.45-0.18-0.79-0.25-1.24-0.25c-1.29,0-2.16,0.93-2.16,2.34c0,1.26,0.51,2.21,2.05,2.21h1.35V241.92z
						"/>
					<path d="M173.85,246.67c-0.81,0.54-1.54,0.79-2.68,0.79c-2.1,0-3.27-1.72-3.27-3.58c0-2.04,1.29-3.42,3.15-3.42
						c1.79,0,2.92,1.22,2.92,3.71h-4.74c0.21,1.33,0.98,2.03,2.27,2.03c0.81,0,1.57-0.3,2.35-0.81V246.67z M172.65,243.28
						c-0.04-1.02-0.63-1.67-1.57-1.67c-1.02,0-1.64,0.6-1.82,1.67H172.65z"/>
				</g>
				<g class="st4">
				</g>
				<g class="st4">
					<path d="M187.19,247.33v-0.85c-0.55,0.6-1.33,0.99-1.99,0.99c-1.37,0-2.33-0.97-2.33-2.68v-4.18h1.33v4.27
						c0,0.95,0.46,1.49,1.38,1.49c0.6,0,1.17-0.33,1.6-0.95v-4.81h1.33v6.73H187.19z"/>
					<path d="M191.69,240.6v0.88c0.69-0.69,1.33-1.02,1.97-1.02c0.85,0,1.56,0.42,2.01,1.22c0.58-0.66,1.29-1.22,2.25-1.22
						c1.36,0,2.23,1.05,2.23,2.64v4.23h-1.33v-4.17c0-1.02-0.63-1.58-1.39-1.58c-0.44-0.01-1.02,0.36-1.5,0.86v4.89h-1.33v-4.18
						c0-1.09-0.56-1.56-1.21-1.56c-0.67,0-1.13,0.21-1.68,0.86v4.89h-1.33v-6.73H191.69z"/>
				</g>
				<g class="st4">
				</g>
				<g class="st4">
					<path d="M215.11,246.67c-0.81,0.54-1.54,0.79-2.68,0.79c-2.1,0-3.27-1.72-3.27-3.58c0-2.04,1.29-3.42,3.15-3.42
						c1.79,0,2.92,1.22,2.92,3.71h-4.74c0.21,1.33,0.98,2.03,2.27,2.03c0.81,0,1.57-0.3,2.35-0.81V246.67z M213.91,243.28
						c-0.04-1.02-0.63-1.67-1.57-1.67c-1.02,0-1.63,0.6-1.82,1.67H213.91z"/>
				</g>
				<g class="st4">
					<path d="M220.17,238.41c-0.22-0.09-0.36-0.12-0.6-0.12c-1.08,0-1.43,0.63-1.43,1.67v0.65h1.21v1.2h-1.21v5.54h-1.33v-5.54
						h-0.95v-1.2h0.95v-0.5c0-1.32,0.31-1.95,0.85-2.49c0.57-0.57,1.33-0.84,2.5-0.51V238.41z"/>
				</g>
				<g class="st4">
					<path d="M225.9,246.67c-0.81,0.54-1.54,0.79-2.68,0.79c-2.1,0-3.27-1.72-3.27-3.58c0-2.04,1.29-3.42,3.15-3.42
						c1.79,0,2.92,1.22,2.92,3.71h-4.74c0.21,1.33,0.98,2.03,2.27,2.03c0.81,0,1.57-0.3,2.35-0.81V246.67z M224.7,243.28
						c-0.04-1.02-0.63-1.67-1.57-1.67c-1.02,0-1.63,0.6-1.82,1.67H224.7z"/>
					<path d="M228.17,239.35c-0.44,0-0.79-0.36-0.79-0.79c0-0.44,0.36-0.79,0.79-0.79c0.43,0,0.79,0.36,0.79,0.79
						C228.96,238.99,228.6,239.35,228.17,239.35z M228.83,247.33h-1.33v-6.73h1.33V247.33z"/>
					<path d="M232.3,240.6h2.13v1.2h-2.13v3.45c0,0.79,0.57,1.02,0.96,1.02c0.48,0,0.97-0.16,1.51-0.49v1.24
						c-0.46,0.26-1.18,0.45-1.62,0.45c-1.46,0-2.19-0.9-2.19-2.11v-3.56h-1.17v-0.15l2.5-2.45V240.6z"/>
					<path d="M242.53,243.9c0,2.13-1.48,3.57-3.64,3.57c-2.07,0-3.55-1.5-3.55-3.57c0-1.94,1.54-3.44,3.55-3.44
						C241,240.46,242.53,241.9,242.53,243.9z M236.7,243.9c0,1.42,0.89,2.37,2.18,2.37c1.41,0,2.29-0.9,2.29-2.35
						c0-1.3-0.96-2.25-2.29-2.25C237.61,241.66,236.7,242.61,236.7,243.9z"/>
				</g>
				<g class="st4">
					<path d="M30.1,267.33h-2.83c-2.01,0-3.27-1.37-3.27-3.52c0-1.95,1.39-3.35,3.36-3.35c0.45,0,0.87,0.08,1.41,0.27v-3.63h1.33
						V267.33z M28.77,261.92c-0.45-0.18-0.79-0.25-1.24-0.25c-1.29,0-2.16,0.93-2.16,2.34c0,1.26,0.51,2.21,2.06,2.21h1.35V261.92z"
						/>
					<path d="M32.64,259.35c-0.44,0-0.79-0.36-0.79-0.79c0-0.44,0.36-0.79,0.79-0.79s0.79,0.36,0.79,0.79
						C33.43,258.99,33.07,259.35,32.64,259.35z M33.3,267.33h-1.33v-6.73h1.33V267.33z"/>
				</g>
				<g class="st4">
					<path d="M38.72,258.41c-0.22-0.09-0.36-0.12-0.6-0.12c-1.08,0-1.42,0.63-1.42,1.67v0.65h1.21v1.2H36.7v5.54h-1.33v-5.54h-0.95
						v-1.2h0.95v-0.5c0-1.32,0.31-1.95,0.85-2.49c0.57-0.57,1.33-0.84,2.5-0.51V258.41z"/>
				</g>
				<g class="st4">
					<path d="M44.45,266.67c-0.81,0.54-1.54,0.79-2.69,0.79c-2.1,0-3.27-1.72-3.27-3.58c0-2.04,1.29-3.42,3.15-3.42
						c1.79,0,2.93,1.22,2.93,3.71h-4.74c0.21,1.33,0.98,2.03,2.27,2.03c0.81,0,1.57-0.3,2.35-0.81V266.67z M43.25,263.28
						c-0.04-1.02-0.63-1.67-1.57-1.67c-1.02,0-1.63,0.6-1.81,1.67H43.25z"/>
				</g>
				<g class="st4">
					<path d="M47.43,260.6v1.54h0.03c0.67-1.19,1.32-1.68,1.95-1.68c0.54,0,1.05,0.26,1.6,0.78l-0.7,1.16
						c-0.41-0.39-0.93-0.66-1.25-0.66c-0.92,0-1.63,0.92-1.63,2.07v3.52H46.1v-6.73H47.43z"/>
				</g>
				<g class="st4">
					<path d="M57.27,266.67c-0.81,0.54-1.54,0.79-2.69,0.79c-2.1,0-3.27-1.72-3.27-3.58c0-2.04,1.29-3.42,3.15-3.42
						c1.79,0,2.93,1.22,2.93,3.71h-4.74c0.21,1.33,0.98,2.03,2.27,2.03c0.81,0,1.57-0.3,2.35-0.81V266.67z M56.07,263.28
						c-0.04-1.02-0.63-1.67-1.57-1.67c-1.02,0-1.63,0.6-1.81,1.67H56.07z"/>
					<path d="M60.14,261.48h0.03c0.51-0.65,1.26-1.02,2.01-1.02c1.27,0,2.29,0.87,2.29,2.71v4.16h-1.33v-4.17
						c0-0.99-0.51-1.63-1.32-1.63c-0.58,0-1.05,0.27-1.68,0.97v4.83H58.8v-6.73h1.33V261.48z"/>
					<path d="M67.89,260.6h2.13v1.2h-2.13v3.45c0,0.79,0.57,1.02,0.96,1.02c0.48,0,0.98-0.16,1.52-0.49v1.24
						c-0.47,0.26-1.19,0.45-1.62,0.45c-1.46,0-2.19-0.9-2.19-2.11v-3.56h-1.17v-0.15l2.5-2.45V260.6z"/>
					<path d="M76.95,266.67c-0.81,0.54-1.54,0.79-2.69,0.79c-2.1,0-3.27-1.72-3.27-3.58c0-2.04,1.29-3.42,3.15-3.42
						c1.79,0,2.93,1.22,2.93,3.71h-4.74c0.21,1.33,0.98,2.03,2.27,2.03c0.81,0,1.57-0.3,2.35-0.81V266.67z M75.75,263.28
						c-0.04-1.02-0.63-1.67-1.57-1.67c-1.02,0-1.63,0.6-1.81,1.67H75.75z"/>
				</g>
				<g class="st4">
				</g>
				<g class="st4">
					<path d="M105.98,267.33h-2.83c-2.01,0-3.27-1.37-3.27-3.52c0-1.95,1.39-3.35,3.36-3.35c0.45,0,0.87,0.08,1.41,0.27v-3.63h1.33
						V267.33z M104.65,261.92c-0.45-0.18-0.79-0.25-1.24-0.25c-1.29,0-2.16,0.93-2.16,2.34c0,1.26,0.51,2.21,2.05,2.21h1.35V261.92z
						"/>
					<path d="M113.44,266.67c-0.81,0.54-1.54,0.79-2.68,0.79c-2.1,0-3.27-1.72-3.27-3.58c0-2.04,1.29-3.42,3.15-3.42
						c1.79,0,2.92,1.22,2.92,3.71h-4.74c0.21,1.33,0.98,2.03,2.27,2.03c0.81,0,1.57-0.3,2.35-0.81V266.67z M112.24,263.28
						c-0.04-1.02-0.63-1.67-1.57-1.67c-1.02,0-1.64,0.6-1.82,1.67H112.24z"/>
				</g>
				<g class="st4">
				</g>
				<g class="st4">
					<path d="M136.83,257.1h2.97c2.21,0,3.15,1.32,3.15,2.61c0,1.07-0.5,1.75-1.56,2.19v0.03c1.53,0.28,2.46,1.29,2.46,2.67
						c0,1.26-0.94,2.73-3.51,2.73h-3.51V257.1z M138.3,261.48h0.98c1.46,0,2.16-0.54,2.16-1.63c0-0.77-0.44-1.42-1.79-1.42h-1.35
						V261.48z M138.3,266.01h1.85c1.72,0,2.19-0.85,2.19-1.62c0-0.93-0.72-1.59-2.26-1.59h-1.77V266.01z"/>
					<path d="M146.46,267.33h-1.33V257.1h1.33V267.33z"/>
					<path d="M155.18,263.9c0,2.13-1.49,3.57-3.65,3.57c-2.07,0-3.55-1.5-3.55-3.57c0-1.94,1.54-3.44,3.55-3.44
						C153.65,260.46,155.18,261.9,155.18,263.9z M149.34,263.9c0,1.42,0.88,2.37,2.17,2.37c1.41,0,2.29-0.9,2.29-2.35
						c0-1.3-0.96-2.25-2.29-2.25C150.26,261.66,149.34,262.61,149.34,263.9z"/>
					<path d="M161.03,267.22c-0.49,0.15-0.97,0.24-1.35,0.24c-2,0-3.42-1.42-3.42-3.45c0-1.08,0.54-3.42,3.65-3.42h2.46v10.18h-1.33
						V267.22z M159.81,261.79c-1.06,0-2.19,0.68-2.19,2.21c0,1.3,0.9,2.34,2.14,2.34c0.42,0,0.86-0.1,1.26-0.3v-4.25H159.81z"/>
					<path d="M168.44,267.33v-0.85c-0.55,0.6-1.33,0.99-1.99,0.99c-1.37,0-2.33-0.97-2.33-2.68v-4.18h1.33v4.27
						c0,0.95,0.46,1.49,1.38,1.49c0.6,0,1.17-0.33,1.6-0.95v-4.81h1.33v6.73H168.44z"/>
					<path d="M177.29,266.67c-0.81,0.54-1.54,0.79-2.69,0.79c-2.1,0-3.27-1.72-3.27-3.58c0-2.04,1.29-3.42,3.15-3.42
						c1.79,0,2.93,1.22,2.93,3.71h-4.74c0.21,1.33,0.97,2.03,2.26,2.03c0.81,0,1.58-0.3,2.36-0.81V266.67z M176.09,263.28
						c-0.04-1.02-0.63-1.67-1.58-1.67c-1.02,0-1.63,0.6-1.81,1.67H176.09z"/>
					<path d="M179.55,259.35c-0.44,0-0.79-0.36-0.79-0.79c0-0.44,0.36-0.79,0.79-0.79c0.43,0,0.79,0.36,0.79,0.79
						C180.35,258.99,179.99,259.35,179.55,259.35z M180.21,267.33h-1.33v-6.73h1.33V267.33z"/>
				</g>
				<g class="st4">
					<path d="M188.93,263.9c0,2.13-1.48,3.57-3.64,3.57c-2.07,0-3.55-1.5-3.55-3.57c0-1.94,1.54-3.44,3.55-3.44
						C187.4,260.46,188.93,261.9,188.93,263.9z M183.09,263.9c0,1.42,0.89,2.37,2.18,2.37c1.41,0,2.29-0.9,2.29-2.35
						c0-1.3-0.96-2.25-2.29-2.25C184.01,261.66,183.09,262.61,183.09,263.9z"/>
				</g>
				<g class="st4">
					<path d="M189.9,268.82c0.5-0.33,0.68-1.1,0.54-1.64c-0.44-0.01-0.74-0.34-0.74-0.84s0.38-0.85,0.88-0.85
						c0.65,0,1.07,0.57,1.07,1.46c0,0.85-0.57,1.83-1.76,2.16V268.82z"/>
				</g>
				<g class="st4">
				</g>
				<g class="st4">
					<path d="M214.66,270.78h-1.33V260.6h2.31c2.46,0,3.79,1.2,3.79,3.42c0,2.02-1.42,3.45-3.42,3.45c-0.43,0-0.84-0.09-1.35-0.3
						V270.78z M214.66,265.96c0.4,0.2,0.84,0.3,1.26,0.3c1.25,0,2.14-0.96,2.14-2.26c0-1.39-0.73-2.21-2.19-2.21h-1.21V265.96z"/>
					<path d="M227.71,263.9c0,2.13-1.49,3.57-3.65,3.57c-2.07,0-3.55-1.5-3.55-3.57c0-1.94,1.54-3.44,3.55-3.44
						C226.18,260.46,227.71,261.9,227.71,263.9z M221.88,263.9c0,1.42,0.88,2.37,2.17,2.37c1.41,0,2.29-0.9,2.29-2.35
						c0-1.3-0.96-2.25-2.29-2.25C222.79,261.66,221.88,262.61,221.88,263.9z"/>
					<path d="M235.01,267.33h-2.83c-2.01,0-3.27-1.37-3.27-3.52c0-1.95,1.39-3.35,3.36-3.35c0.45,0,0.87,0.08,1.41,0.27v-3.63h1.33
						V267.33z M233.68,261.92c-0.45-0.18-0.79-0.25-1.25-0.25c-1.29,0-2.16,0.93-2.16,2.34c0,1.26,0.51,2.21,2.05,2.21h1.35V261.92z
						"/>
					<path d="M242.47,266.67c-0.81,0.54-1.54,0.79-2.69,0.79c-2.1,0-3.27-1.72-3.27-3.58c0-2.04,1.29-3.42,3.15-3.42
						c1.79,0,2.93,1.22,2.93,3.71h-4.74c0.21,1.33,0.97,2.03,2.26,2.03c0.81,0,1.58-0.3,2.36-0.81V266.67z M241.27,263.28
						c-0.04-1.02-0.63-1.67-1.58-1.67c-1.02,0-1.63,0.6-1.81,1.67H241.27z"/>
				</g>
				<g class="st4">
					<path d="M30.1,287.33h-2.83c-2.01,0-3.27-1.37-3.27-3.52c0-1.95,1.39-3.35,3.36-3.35c0.45,0,0.87,0.08,1.41,0.27v-3.63h1.33
						V287.33z M28.77,281.92c-0.45-0.18-0.79-0.25-1.24-0.25c-1.29,0-2.16,0.93-2.16,2.34c0,1.26,0.51,2.21,2.06,2.21h1.35V281.92z"
						/>
					<path d="M37.56,286.67c-0.81,0.54-1.54,0.79-2.69,0.79c-2.1,0-3.27-1.72-3.27-3.58c0-2.04,1.29-3.42,3.15-3.42
						c1.79,0,2.93,1.22,2.93,3.71h-4.74c0.21,1.33,0.98,2.03,2.27,2.03c0.81,0,1.57-0.3,2.35-0.81V286.67z M36.36,283.28
						c-0.04-1.02-0.63-1.67-1.57-1.67c-1.02,0-1.64,0.6-1.81,1.67H36.36z"/>
					<path d="M43.03,282.33c-0.75-0.5-1.46-0.71-1.95-0.71c-0.54,0-0.88,0.26-0.88,0.62c0,0.3,0.45,0.66,1.63,1.35
						c1.11,0.73,1.52,1.2,1.52,1.89c0,1.18-0.94,1.98-2.22,1.98c-0.83,0-1.47-0.17-2.34-0.62v-1.44c0.87,0.6,1.67,0.88,2.21,0.88
						c0.54-0.03,0.99-0.29,0.99-0.76c0-0.93-3.15-1.42-3.15-3.24c0-1.14,0.87-1.83,2.22-1.83c0.63,0,1.27,0.18,1.98,0.56V282.33z"/>
					<path d="M49.84,282.35c-0.76-0.51-1.27-0.66-1.86-0.66c-1.21,0-2.05,0.92-2.05,2.28c0,1.39,0.9,2.23,2.28,2.23
						c0.57,0,1.11-0.15,1.79-0.45v1.32c-0.45,0.21-1.31,0.39-2.01,0.39c-2.01,0-3.42-1.39-3.42-3.38c0-2.22,1.29-3.63,3.33-3.63
						c0.78,0,1.31,0.18,1.95,0.47V282.35z"/>
					<path d="M56.68,286.94c-0.61,0.4-0.87,0.52-1.29,0.52c-0.58,0-0.9-0.21-1.02-0.69c-0.58,0.46-1.2,0.69-1.81,0.69
						c-0.99,0-1.65-0.78-1.65-1.65c0-1.33,1.21-1.74,2.29-2.13l1.18-0.42v-0.36c0-0.84-0.4-1.18-1.21-1.18
						c-0.73,0-1.48,0.34-2.13,1.11v-1.46c0.52-0.61,1.26-0.92,2.23-0.92c1.37,0,2.44,0.69,2.44,2.22v3.46
						c0,0.25,0.09,0.34,0.26,0.34c0.13,0,0.4-0.13,0.7-0.36V286.94z M54.39,284c-1.14,0.39-2.13,0.78-2.13,1.58
						c0,0.55,0.41,0.95,0.96,0.95c0.42,0,0.81-0.21,1.17-0.56V284z"/>
				</g>
				<g class="st4">
					<path d="M59.28,280.6v1.54h0.03c0.67-1.19,1.32-1.68,1.95-1.68c0.54,0,1.05,0.26,1.6,0.78l-0.7,1.16
						c-0.41-0.39-0.93-0.66-1.25-0.66c-0.92,0-1.63,0.92-1.63,2.07v3.52h-1.33v-6.73H59.28z"/>
				</g>
				<g class="st4">
					<path d="M65.65,280.6h2.13v1.2h-2.13v3.45c0,0.79,0.57,1.02,0.96,1.02c0.48,0,0.98-0.16,1.52-0.49v1.24
						c-0.47,0.26-1.19,0.45-1.62,0.45c-1.46,0-2.19-0.9-2.19-2.11v-3.56h-1.17v-0.15l2.5-2.45V280.6z"/>
					<path d="M74.31,286.94c-0.61,0.4-0.87,0.52-1.29,0.52c-0.58,0-0.9-0.21-1.02-0.69c-0.58,0.46-1.2,0.69-1.81,0.69
						c-0.99,0-1.65-0.78-1.65-1.65c0-1.33,1.21-1.74,2.29-2.13l1.18-0.42v-0.36c0-0.84-0.4-1.18-1.21-1.18
						c-0.73,0-1.48,0.34-2.13,1.11v-1.46c0.52-0.61,1.26-0.92,2.23-0.92c1.37,0,2.44,0.69,2.44,2.22v3.46
						c0,0.25,0.09,0.34,0.26,0.34c0.13,0,0.4-0.13,0.7-0.36V286.94z M72.01,284c-1.14,0.39-2.13,0.78-2.13,1.58
						c0,0.55,0.41,0.95,0.96,0.95c0.42,0,0.81-0.21,1.17-0.56V284z"/>
					<path d="M76.92,280.6v1.54h0.03c0.67-1.19,1.32-1.68,1.95-1.68c0.54,0,1.05,0.26,1.6,0.78l-0.7,1.16
						c-0.41-0.39-0.93-0.66-1.25-0.66c-0.92,0-1.63,0.92-1.63,2.07v3.52h-1.33v-6.73H76.92z"/>
				</g>
				<g class="st4">
				</g>
				<g class="st4">
					<path d="M91.73,287.33v-0.85c-0.55,0.6-1.33,0.99-1.99,0.99c-1.37,0-2.33-0.97-2.33-2.68v-4.18h1.33v4.27
						c0,0.95,0.46,1.49,1.38,1.49c0.6,0,1.17-0.33,1.6-0.95v-4.81h1.33v6.73H91.73z"/>
					<path d="M96.23,280.6v0.88c0.69-0.69,1.33-1.02,1.97-1.02c0.85,0,1.56,0.42,2.01,1.22c0.58-0.66,1.29-1.22,2.25-1.22
						c1.36,0,2.23,1.05,2.23,2.64v4.23h-1.33v-4.17c0-1.02-0.63-1.58-1.39-1.58c-0.44-0.01-1.02,0.36-1.5,0.86v4.89h-1.33v-4.18
						c0-1.09-0.56-1.56-1.21-1.56c-0.67,0-1.13,0.21-1.68,0.86v4.89h-1.33v-6.73H96.23z"/>
					<path d="M111.74,286.94c-0.61,0.4-0.87,0.52-1.29,0.52c-0.58,0-0.9-0.21-1.02-0.69c-0.58,0.46-1.2,0.69-1.81,0.69
						c-0.99,0-1.65-0.78-1.65-1.65c0-1.33,1.21-1.74,2.29-2.13l1.18-0.42v-0.36c0-0.84-0.4-1.18-1.21-1.18
						c-0.73,0-1.48,0.34-2.13,1.11v-1.46c0.53-0.61,1.26-0.92,2.24-0.92c1.37,0,2.44,0.69,2.44,2.22v3.46
						c0,0.25,0.09,0.34,0.26,0.34c0.13,0,0.4-0.13,0.7-0.36V286.94z M109.44,284c-1.14,0.39-2.13,0.78-2.13,1.58
						c0,0.55,0.41,0.95,0.96,0.95c0.42,0,0.81-0.21,1.17-0.56V284z"/>
				</g>
				<g class="st4">
				</g>
				<g class="st4">
					<path d="M123.89,282.35c-0.76-0.51-1.27-0.66-1.86-0.66c-1.21,0-2.05,0.92-2.05,2.28c0,1.39,0.9,2.23,2.28,2.23
						c0.57,0,1.11-0.15,1.79-0.45v1.32c-0.45,0.21-1.31,0.39-2.01,0.39c-2.01,0-3.42-1.39-3.42-3.38c0-2.22,1.29-3.63,3.33-3.63
						c0.78,0,1.31,0.18,1.95,0.47V282.35z"/>
					<path d="M130.73,286.94c-0.61,0.4-0.87,0.52-1.29,0.52c-0.58,0-0.9-0.21-1.02-0.69c-0.58,0.46-1.2,0.69-1.81,0.69
						c-0.99,0-1.65-0.78-1.65-1.65c0-1.33,1.21-1.74,2.29-2.13l1.18-0.42v-0.36c0-0.84-0.4-1.18-1.21-1.18
						c-0.73,0-1.48,0.34-2.13,1.11v-1.46c0.52-0.61,1.26-0.92,2.23-0.92c1.37,0,2.44,0.69,2.44,2.22v3.46
						c0,0.25,0.09,0.34,0.26,0.34c0.13,0,0.4-0.13,0.7-0.36V286.94z M128.44,284c-1.14,0.39-2.13,0.78-2.13,1.58
						c0,0.55,0.41,0.95,0.96,0.95c0.42,0,0.81-0.21,1.17-0.56V284z"/>
				</g>
				<g class="st4">
					<path d="M133.35,280.6v1.54h0.03c0.67-1.19,1.32-1.68,1.95-1.68c0.54,0,1.05,0.26,1.6,0.78l-0.7,1.16
						c-0.41-0.39-0.93-0.66-1.25-0.66c-0.92,0-1.63,0.92-1.63,2.07v3.52h-1.33v-6.73H133.35z"/>
				</g>
				<g class="st4">
					<path d="M139.72,280.6h2.13v1.2h-2.13v3.45c0,0.79,0.57,1.02,0.96,1.02c0.48,0,0.98-0.16,1.52-0.49v1.24
						c-0.47,0.26-1.19,0.45-1.62,0.45c-1.46,0-2.19-0.9-2.19-2.11v-3.56h-1.17v-0.15l2.5-2.45V280.6z"/>
					<path d="M148.38,286.94c-0.62,0.4-0.87,0.52-1.29,0.52c-0.58,0-0.9-0.21-1.02-0.69c-0.58,0.46-1.2,0.69-1.82,0.69
						c-0.99,0-1.65-0.78-1.65-1.65c0-1.33,1.21-1.74,2.29-2.13l1.18-0.42v-0.36c0-0.84-0.41-1.18-1.21-1.18
						c-0.74,0-1.49,0.34-2.13,1.11v-1.46c0.52-0.61,1.26-0.92,2.23-0.92c1.37,0,2.45,0.69,2.45,2.22v3.46
						c0,0.25,0.09,0.34,0.25,0.34c0.13,0,0.41-0.13,0.71-0.36V286.94z M146.08,284c-1.14,0.39-2.13,0.78-2.13,1.58
						c0,0.55,0.41,0.95,0.96,0.95c0.42,0,0.81-0.21,1.17-0.56V284z"/>
				</g>
				<g class="st4">
				</g>
				<g class="st4">
					<path d="M161.4,287.33h-2.83c-2.01,0-3.27-1.37-3.27-3.52c0-1.95,1.39-3.35,3.36-3.35c0.45,0,0.87,0.08,1.41,0.27v-3.63h1.33
						V287.33z M160.07,281.92c-0.45-0.18-0.79-0.25-1.24-0.25c-1.29,0-2.16,0.93-2.16,2.34c0,1.26,0.51,2.21,2.05,2.21h1.35V281.92z
						"/>
					<path d="M168.86,286.67c-0.81,0.54-1.54,0.79-2.68,0.79c-2.1,0-3.27-1.72-3.27-3.58c0-2.04,1.29-3.42,3.15-3.42
						c1.79,0,2.92,1.22,2.92,3.71h-4.74c0.21,1.33,0.98,2.03,2.27,2.03c0.81,0,1.57-0.3,2.35-0.81V286.67z M167.66,283.28
						c-0.04-1.02-0.63-1.67-1.57-1.67c-1.02,0-1.64,0.6-1.82,1.67H167.66z"/>
				</g>
				<g class="st4">
				</g>
				<g class="st4">
					<path d="M179.22,277.1c2.07,0,3.36,1.09,3.36,2.87c0,1.18-0.62,2.07-1.71,2.5c0.93,0.61,1.5,1.56,2.28,2.83
						c0.44,0.71,0.69,1.05,1.4,2.03h-1.75l-1.35-2.1c-1.35-2.1-1.96-2.34-2.71-2.34h-0.61v4.44h-1.47V277.1H179.22z M178.12,281.57
						h0.94c1.58,0,2.03-0.81,2.01-1.67c-0.01-0.96-0.58-1.54-2.01-1.54h-0.94V281.57z"/>
					<path d="M191.12,286.67c-0.81,0.54-1.54,0.79-2.69,0.79c-2.1,0-3.27-1.72-3.27-3.58c0-2.04,1.29-3.42,3.15-3.42
						c1.79,0,2.93,1.22,2.93,3.71h-4.74c0.21,1.33,0.97,2.03,2.26,2.03c0.81,0,1.58-0.3,2.36-0.81V286.67z M189.92,283.28
						c-0.04-1.02-0.63-1.67-1.58-1.67c-1.02,0-1.63,0.6-1.81,1.67H189.92z M189.81,277.52l-1.68,2.21h-0.83l1-2.21H189.81z"/>
					<path d="M193.92,290.78h-1.33V280.6h2.31c2.46,0,3.79,1.2,3.79,3.42c0,2.02-1.42,3.45-3.42,3.45c-0.43,0-0.84-0.09-1.35-0.3
						V290.78z M193.92,285.96c0.4,0.2,0.84,0.3,1.26,0.3c1.25,0,2.14-0.96,2.14-2.26c0-1.39-0.73-2.21-2.19-2.21h-1.21V285.96z"/>
					<path d="M201.74,280.6h2.13v1.2h-2.13v3.45c0,0.79,0.57,1.02,0.96,1.02c0.48,0,0.98-0.16,1.52-0.49v1.24
						c-0.47,0.26-1.19,0.45-1.62,0.45c-1.46,0-2.19-0.9-2.19-2.11v-3.56h-1.17v-0.15l2.5-2.45V280.6z"/>
					<path d="M205.88,279.35c-0.44,0-0.79-0.36-0.79-0.79c0-0.44,0.36-0.79,0.79-0.79c0.43,0,0.79,0.36,0.79,0.79
						C206.67,278.99,206.31,279.35,205.88,279.35z M206.54,287.33h-1.33v-6.73h1.33V287.33z"/>
					<path d="M209.82,287.33h-1.33V277.1h1.33V287.33z"/>
				</g>
				<g class="st4">
				</g>
				<g class="st4">
					<path d="M219.02,290.78h-1.33V280.6H220c2.46,0,3.79,1.2,3.79,3.42c0,2.02-1.43,3.45-3.42,3.45c-0.44,0-0.84-0.09-1.35-0.3
						V290.78z M219.02,285.96c0.41,0.2,0.84,0.3,1.26,0.3c1.25,0,2.15-0.96,2.15-2.26c0-1.39-0.74-2.21-2.19-2.21h-1.21V285.96z"/>
					<path d="M230.49,286.94c-0.61,0.4-0.87,0.52-1.29,0.52c-0.58,0-0.9-0.21-1.02-0.69c-0.58,0.46-1.2,0.69-1.81,0.69
						c-0.99,0-1.65-0.78-1.65-1.65c0-1.33,1.21-1.74,2.29-2.13l1.18-0.42v-0.36c0-0.84-0.4-1.18-1.21-1.18
						c-0.73,0-1.48,0.34-2.13,1.11v-1.46c0.53-0.61,1.26-0.92,2.24-0.92c1.37,0,2.44,0.69,2.44,2.22v3.46
						c0,0.25,0.09,0.34,0.26,0.34c0.13,0,0.4-0.13,0.7-0.36V286.94z M228.2,284c-1.14,0.39-2.13,0.78-2.13,1.58
						c0,0.55,0.41,0.95,0.96,0.95c0.42,0,0.81-0.21,1.17-0.56V284z"/>
					<path d="M233.1,280.6v1.54h0.03c0.67-1.19,1.32-1.68,1.95-1.68c0.54,0,1.05,0.26,1.61,0.78l-0.71,1.16
						c-0.41-0.39-0.93-0.66-1.25-0.66c-0.92,0-1.63,0.92-1.63,2.07v3.52h-1.33v-6.73H233.1z"/>
					<path d="M242.84,286.94c-0.61,0.4-0.87,0.52-1.29,0.52c-0.58,0-0.9-0.21-1.02-0.69c-0.58,0.46-1.2,0.69-1.81,0.69
						c-0.99,0-1.65-0.78-1.65-1.65c0-1.33,1.21-1.74,2.29-2.13l1.18-0.42v-0.36c0-0.84-0.4-1.18-1.21-1.18
						c-0.73,0-1.48,0.34-2.13,1.11v-1.46c0.53-0.61,1.26-0.92,2.24-0.92c1.37,0,2.44,0.69,2.44,2.22v3.46
						c0,0.25,0.09,0.34,0.26,0.34c0.13,0,0.4-0.13,0.7-0.36V286.94z M240.54,284c-1.14,0.39-2.13,0.78-2.13,1.58
						c0,0.55,0.41,0.95,0.96,0.95c0.42,0,0.81-0.21,1.17-0.56V284z"/>
				</g>
				<g class="st4">
					<path d="M25.84,300.6h2.13v1.2h-2.13v3.45c0,0.79,0.57,1.02,0.96,1.02c0.48,0,0.98-0.16,1.52-0.49v1.24
						c-0.47,0.26-1.19,0.45-1.62,0.45c-1.46,0-2.19-0.9-2.19-2.11v-3.56h-1.17v-0.15l2.5-2.45V300.6z"/>
					<path d="M36.07,303.9c0,2.13-1.48,3.57-3.65,3.57c-2.07,0-3.55-1.5-3.55-3.57c0-1.94,1.54-3.44,3.55-3.44
						C34.54,300.46,36.07,301.9,36.07,303.9z M30.24,303.9c0,1.42,0.89,2.37,2.18,2.37c1.41,0,2.29-0.9,2.29-2.35
						c0-1.3-0.96-2.25-2.29-2.25C31.15,301.66,30.24,302.61,30.24,303.9z"/>
					<path d="M38.98,300.6v1.54h0.03c0.67-1.19,1.32-1.68,1.95-1.68c0.54,0,1.05,0.26,1.6,0.78l-0.7,1.16
						c-0.41-0.39-0.93-0.66-1.25-0.66c-0.92,0-1.63,0.92-1.63,2.07v3.52h-1.33v-6.73H38.98z"/>
					<path d="M44.8,301.48h0.03c0.51-0.65,1.26-1.02,2.01-1.02c1.27,0,2.29,0.87,2.29,2.71v4.16H47.8v-4.17
						c0-0.99-0.51-1.63-1.32-1.63c-0.58,0-1.05,0.27-1.68,0.97v4.83h-1.33v-6.73h1.33V301.48z"/>
					<path d="M56.22,306.94c-0.61,0.4-0.87,0.52-1.29,0.52c-0.58,0-0.9-0.21-1.02-0.69c-0.58,0.46-1.2,0.69-1.81,0.69
						c-0.99,0-1.65-0.78-1.65-1.65c0-1.33,1.21-1.74,2.29-2.13l1.18-0.42v-0.36c0-0.84-0.4-1.18-1.21-1.18
						c-0.73,0-1.48,0.34-2.13,1.11v-1.46c0.52-0.61,1.26-0.92,2.23-0.92c1.37,0,2.44,0.69,2.44,2.22v3.46
						c0,0.25,0.09,0.34,0.26,0.34c0.13,0,0.4-0.13,0.7-0.36V306.94z M53.92,304c-1.14,0.39-2.13,0.78-2.13,1.58
						c0,0.55,0.41,0.95,0.96,0.95c0.42,0,0.81-0.21,1.17-0.56V304z M54.93,297.52l-1.68,2.21h-0.82l1-2.21H54.93z"/>
					<path d="M60.7,304.72h-3.64v-1.39h3.64V304.72z"/>
					<path d="M63.61,307.33h-1.33V297.1h1.33V307.33z"/>
					<path d="M72.33,303.9c0,2.13-1.48,3.57-3.65,3.57c-2.07,0-3.55-1.5-3.55-3.57c0-1.94,1.54-3.44,3.55-3.44
						C70.8,300.46,72.33,301.9,72.33,303.9z M66.49,303.9c0,1.42,0.89,2.37,2.17,2.37c1.41,0,2.29-0.9,2.29-2.35
						c0-1.3-0.96-2.25-2.29-2.25C67.41,301.66,66.49,302.61,66.49,303.9z"/>
				</g>
				<g class="st4">
				</g>
				<g class="st4">
					<path d="M84.42,297.1h2.97c2.21,0,3.15,1.32,3.15,2.61c0,1.07-0.5,1.75-1.56,2.19v0.03c1.53,0.28,2.46,1.29,2.46,2.67
						c0,1.26-0.94,2.73-3.51,2.73h-3.51V297.1z M85.89,301.48h0.98c1.46,0,2.16-0.54,2.16-1.63c0-0.77-0.44-1.42-1.79-1.42h-1.35
						V301.48z M85.89,306.01h1.85c1.72,0,2.19-0.85,2.19-1.62c0-0.93-0.72-1.59-2.27-1.59h-1.77V306.01z"/>
					<path d="M94.05,307.33h-1.33V297.1h1.33V307.33z"/>
					<path d="M102.77,303.9c0,2.13-1.48,3.57-3.65,3.57c-2.07,0-3.55-1.5-3.55-3.57c0-1.94,1.54-3.44,3.55-3.44
						C101.24,300.46,102.77,301.9,102.77,303.9z M96.93,303.9c0,1.42,0.89,2.37,2.18,2.37c1.41,0,2.29-0.9,2.29-2.35
						c0-1.3-0.96-2.25-2.29-2.25C97.85,301.66,96.93,302.61,96.93,303.9z"/>
					<path d="M108.62,307.22c-0.49,0.15-0.97,0.24-1.35,0.24c-2,0-3.42-1.42-3.42-3.45c0-1.08,0.54-3.42,3.65-3.42h2.46v10.18h-1.33
						V307.22z M107.4,301.79c-1.06,0-2.19,0.68-2.19,2.21c0,1.3,0.9,2.34,2.15,2.34c0.42,0,0.85-0.1,1.26-0.3v-4.25H107.4z"/>
					<path d="M116.03,307.33v-0.85c-0.55,0.6-1.33,0.99-1.99,0.99c-1.37,0-2.33-0.97-2.33-2.68v-4.18h1.33v4.27
						c0,0.95,0.46,1.49,1.38,1.49c0.6,0,1.17-0.33,1.6-0.95v-4.81h1.33v6.73H116.03z"/>
					<path d="M124.88,306.67c-0.81,0.54-1.54,0.79-2.69,0.79c-2.1,0-3.27-1.72-3.27-3.58c0-2.04,1.29-3.42,3.15-3.42
						c1.79,0,2.93,1.22,2.93,3.71h-4.74c0.21,1.33,0.98,2.03,2.27,2.03c0.81,0,1.57-0.3,2.35-0.81V306.67z M123.68,303.28
						c-0.04-1.02-0.63-1.67-1.57-1.67c-1.02,0-1.63,0.6-1.81,1.67H123.68z"/>
					<path d="M127.14,299.35c-0.44,0-0.79-0.36-0.79-0.79c0-0.44,0.36-0.79,0.79-0.79s0.79,0.36,0.79,0.79
						C127.94,298.99,127.58,299.35,127.14,299.35z M127.8,307.33h-1.33v-6.73h1.33V307.33z"/>
				</g>
				<g class="st4">
					<path d="M136.52,303.9c0,2.13-1.48,3.57-3.64,3.57c-2.07,0-3.55-1.5-3.55-3.57c0-1.94,1.54-3.44,3.55-3.44
						C134.99,300.46,136.52,301.9,136.52,303.9z M130.68,303.9c0,1.42,0.89,2.37,2.18,2.37c1.41,0,2.29-0.9,2.29-2.35
						c0-1.3-0.96-2.25-2.29-2.25C131.6,301.66,130.68,302.61,130.68,303.9z"/>
				</g>
				<g class="st4">
					<path d="M139.14,306.57c0,0.5-0.4,0.9-0.9,0.9s-0.9-0.4-0.9-0.9s0.41-0.9,0.9-0.9S139.14,306.07,139.14,306.57z"/>
				</g>
				<g class="st4">
				</g>
				<g class="st4">
					<path d="M158.67,299.38c-1.26-0.74-2.34-1.07-3.53-1.07c-2.34,0-4.08,1.67-4.08,3.92c0,2.29,1.68,3.88,4.14,3.88
						c1.16,0,2.42-0.41,3.57-1.16v1.61c-1,0.52-2.1,0.9-3.71,0.9c-3.84,0-5.52-2.96-5.52-5.1c0-3.12,2.35-5.4,5.61-5.4
						c1.05,0,2.12,0.25,3.51,0.84V299.38z"/>
					<path d="M165.61,306.94c-0.61,0.4-0.87,0.52-1.29,0.52c-0.58,0-0.9-0.21-1.02-0.69c-0.58,0.46-1.2,0.69-1.81,0.69
						c-0.99,0-1.65-0.78-1.65-1.65c0-1.33,1.21-1.74,2.29-2.13l1.18-0.42v-0.36c0-0.84-0.4-1.18-1.21-1.18
						c-0.73,0-1.48,0.34-2.13,1.11v-1.46c0.53-0.61,1.26-0.92,2.24-0.92c1.37,0,2.44,0.69,2.44,2.22v3.46
						c0,0.25,0.09,0.34,0.26,0.34c0.13,0,0.4-0.13,0.7-0.36V306.94z M163.32,304c-1.14,0.39-2.13,0.78-2.13,1.58
						c0,0.55,0.41,0.95,0.96,0.95c0.42,0,0.81-0.21,1.17-0.56V304z"/>
					<path d="M170.71,302.33c-0.75-0.5-1.46-0.71-1.95-0.71c-0.54,0-0.88,0.26-0.88,0.62c0,0.3,0.45,0.66,1.63,1.35
						c1.11,0.73,1.51,1.2,1.51,1.89c0,1.18-0.94,1.98-2.22,1.98c-0.83,0-1.47-0.17-2.34-0.62v-1.44c0.87,0.6,1.67,0.88,2.21,0.88
						c0.54-0.03,0.99-0.29,0.99-0.76c0-0.93-3.15-1.42-3.15-3.24c0-1.14,0.87-1.83,2.22-1.83c0.63,0,1.28,0.18,1.98,0.56V302.33z"/>
					<path d="M179.37,303.9c0,2.13-1.48,3.57-3.64,3.57c-2.07,0-3.55-1.5-3.55-3.57c0-1.94,1.54-3.44,3.55-3.44
						C177.84,300.46,179.37,301.9,179.37,303.9z M173.53,303.9c0,1.42,0.89,2.37,2.18,2.37c1.41,0,2.29-0.9,2.29-2.35
						c0-1.3-0.96-2.25-2.29-2.25C174.45,301.66,173.53,302.61,173.53,303.9z"/>
				</g>
				<g class="st4">
				</g>
				<g class="st4">
					<path d="M195.19,302.33c-0.75-0.5-1.46-0.71-1.95-0.71c-0.54,0-0.88,0.26-0.88,0.62c0,0.3,0.45,0.66,1.63,1.35
						c1.11,0.73,1.52,1.2,1.52,1.89c0,1.18-0.95,1.98-2.22,1.98c-0.83,0-1.47-0.17-2.34-0.62v-1.44c0.87,0.6,1.67,0.88,2.21,0.88
						c0.54-0.03,0.99-0.29,0.99-0.76c0-0.93-3.15-1.42-3.15-3.24c0-1.14,0.87-1.83,2.22-1.83c0.63,0,1.27,0.18,1.98,0.56V302.33z"/>
					<path d="M202.67,306.67c-0.81,0.54-1.54,0.79-2.69,0.79c-2.1,0-3.27-1.72-3.27-3.58c0-2.04,1.29-3.42,3.15-3.42
						c1.79,0,2.93,1.22,2.93,3.71h-4.74c0.21,1.33,0.97,2.03,2.26,2.03c0.81,0,1.58-0.3,2.36-0.81V306.67z M201.47,303.28
						c-0.04-1.02-0.63-1.67-1.58-1.67c-1.02,0-1.63,0.6-1.81,1.67H201.47z"/>
					<path d="M205.54,308.21c0,1.44-0.45,2.08-1.33,2.57l-1-0.99c0.58-0.24,1-0.72,1-1.47v-7.72h1.33V308.21z M204.88,299.35
						c-0.44,0-0.79-0.36-0.79-0.79c0-0.44,0.36-0.79,0.79-0.79c0.43,0,0.79,0.36,0.79,0.79
						C205.67,298.99,205.31,299.35,204.88,299.35z"/>
					<path d="M212.74,306.94c-0.62,0.4-0.87,0.52-1.29,0.52c-0.58,0-0.9-0.21-1.02-0.69c-0.58,0.46-1.2,0.69-1.82,0.69
						c-0.99,0-1.65-0.78-1.65-1.65c0-1.33,1.21-1.74,2.29-2.13l1.18-0.42v-0.36c0-0.84-0.41-1.18-1.21-1.18
						c-0.74,0-1.49,0.34-2.13,1.11v-1.46c0.52-0.61,1.26-0.92,2.23-0.92c1.37,0,2.45,0.69,2.45,2.22v3.46
						c0,0.25,0.09,0.34,0.25,0.34c0.13,0,0.41-0.13,0.71-0.36V306.94z M210.44,304c-1.14,0.39-2.13,0.78-2.13,1.58
						c0,0.55,0.41,0.95,0.96,0.95c0.42,0,0.81-0.21,1.17-0.56V304z"/>
				</g>
				<g class="st4">
				</g>
				<g class="st4">
					<path d="M228.26,302.33c-0.75-0.5-1.46-0.71-1.95-0.71c-0.54,0-0.88,0.26-0.88,0.62c0,0.3,0.45,0.66,1.63,1.35
						c1.11,0.73,1.52,1.2,1.52,1.89c0,1.18-0.95,1.98-2.22,1.98c-0.83,0-1.47-0.17-2.34-0.62v-1.44c0.87,0.6,1.67,0.88,2.21,0.88
						c0.54-0.03,0.99-0.29,0.99-0.76c0-0.93-3.15-1.42-3.15-3.24c0-1.14,0.87-1.83,2.22-1.83c0.63,0,1.27,0.18,1.98,0.56V302.33z"/>
					<path d="M234.39,307.33v-0.85c-0.55,0.6-1.33,0.99-1.99,0.99c-1.37,0-2.33-0.97-2.33-2.68v-4.18h1.33v4.27
						c0,0.95,0.46,1.49,1.38,1.49c0.6,0,1.17-0.33,1.6-0.95v-4.81h1.33v6.73H234.39z"/>
					<path d="M242.84,306.94c-0.62,0.4-0.87,0.52-1.29,0.52c-0.58,0-0.9-0.21-1.02-0.69c-0.58,0.46-1.2,0.69-1.82,0.69
						c-0.99,0-1.65-0.78-1.65-1.65c0-1.33,1.21-1.74,2.29-2.13l1.18-0.42v-0.36c0-0.84-0.41-1.18-1.21-1.18
						c-0.74,0-1.49,0.34-2.13,1.11v-1.46c0.52-0.61,1.26-0.92,2.23-0.92c1.37,0,2.45,0.69,2.45,2.22v3.46
						c0,0.25,0.09,0.34,0.25,0.34c0.13,0,0.41-0.13,0.71-0.36V306.94z M240.54,304c-1.14,0.39-2.13,0.78-2.13,1.58
						c0,0.55,0.41,0.95,0.96,0.95c0.42,0,0.81-0.21,1.17-0.56V304z"/>
				</g>
				<g class="st4">
					<path d="M28.56,327.33v-0.85c-0.55,0.6-1.33,0.99-1.99,0.99c-1.37,0-2.33-0.97-2.33-2.68v-4.18h1.33v4.27
						c0,0.95,0.46,1.49,1.38,1.49c0.6,0,1.17-0.33,1.6-0.95v-4.81h1.33v6.73H28.56z M28.77,317.52l-1.68,2.21h-0.83l1-2.21H28.77z"
						/>
					<path d="M33.15,327.33h-1.33V317.1h1.33V327.33z"/>
					<path d="M36.63,320.6h2.13v1.2h-2.13v3.45c0,0.79,0.57,1.02,0.96,1.02c0.48,0,0.98-0.16,1.52-0.49v1.24
						c-0.47,0.26-1.19,0.45-1.62,0.45c-1.46,0-2.19-0.9-2.19-2.11v-3.56h-1.17v-0.15l2.5-2.45V320.6z"/>
					<path d="M40.77,319.35c-0.44,0-0.79-0.36-0.79-0.79c0-0.44,0.36-0.79,0.79-0.79s0.79,0.36,0.79,0.79
						C41.56,318.99,41.2,319.35,40.77,319.35z M41.43,327.33h-1.33v-6.73h1.33V327.33z"/>
					<path d="M44.62,320.6v0.88c0.69-0.69,1.33-1.02,1.97-1.02c0.85,0,1.56,0.42,2.01,1.22c0.58-0.66,1.29-1.22,2.25-1.22
						c1.36,0,2.23,1.05,2.23,2.64v4.23h-1.33v-4.17c0-1.02-0.63-1.58-1.4-1.58c-0.44-0.01-1.02,0.36-1.5,0.86v4.89h-1.33v-4.18
						c0-1.09-0.55-1.56-1.21-1.56c-0.67,0-1.13,0.21-1.68,0.86v4.89h-1.33v-6.73H44.62z"/>
					<path d="M60.13,326.94c-0.61,0.4-0.87,0.52-1.29,0.52c-0.58,0-0.9-0.21-1.02-0.69c-0.58,0.46-1.2,0.69-1.81,0.69
						c-0.99,0-1.65-0.78-1.65-1.65c0-1.33,1.21-1.74,2.29-2.13l1.18-0.42v-0.36c0-0.84-0.4-1.18-1.21-1.18
						c-0.73,0-1.48,0.34-2.13,1.11v-1.46c0.52-0.61,1.26-0.92,2.23-0.92c1.37,0,2.44,0.69,2.44,2.22v3.46
						c0,0.25,0.09,0.34,0.26,0.34c0.13,0,0.4-0.13,0.7-0.36V326.94z M57.84,324c-1.14,0.39-2.13,0.78-2.13,1.58
						c0,0.55,0.41,0.95,0.96,0.95c0.42,0,0.81-0.21,1.17-0.56V324z"/>
				</g>
				<g class="st4">
				</g>
				<g class="st4">
					<path d="M74.39,322.35c-0.76-0.51-1.27-0.66-1.86-0.66c-1.21,0-2.05,0.92-2.05,2.28c0,1.39,0.9,2.23,2.28,2.23
						c0.57,0,1.11-0.15,1.79-0.45v1.32c-0.45,0.21-1.31,0.39-2.01,0.39c-2.01,0-3.42-1.39-3.42-3.38c0-2.22,1.29-3.63,3.33-3.63
						c0.78,0,1.31,0.18,1.95,0.47V322.35z"/>
					<path d="M81.23,326.94c-0.61,0.4-0.87,0.52-1.29,0.52c-0.58,0-0.9-0.21-1.02-0.69c-0.58,0.46-1.2,0.69-1.81,0.69
						c-0.99,0-1.65-0.78-1.65-1.65c0-1.33,1.21-1.74,2.29-2.13l1.18-0.42v-0.36c0-0.84-0.4-1.18-1.21-1.18
						c-0.73,0-1.48,0.34-2.13,1.11v-1.46c0.52-0.61,1.26-0.92,2.23-0.92c1.37,0,2.44,0.69,2.44,2.22v3.46
						c0,0.25,0.09,0.34,0.26,0.34c0.13,0,0.4-0.13,0.7-0.36V326.94z M78.94,324c-1.14,0.39-2.13,0.78-2.13,1.58
						c0,0.55,0.41,0.95,0.96,0.95c0.42,0,0.81-0.21,1.17-0.56V324z"/>
				</g>
				<g class="st4">
					<path d="M83.84,320.6v1.54h0.03c0.67-1.19,1.32-1.68,1.95-1.68c0.54,0,1.05,0.26,1.61,0.78l-0.71,1.16
						c-0.41-0.39-0.93-0.66-1.25-0.66c-0.92,0-1.63,0.92-1.63,2.07v3.52H82.5v-6.73H83.84z"/>
				</g>
				<g class="st4">
					<path d="M90.21,320.6h2.13v1.2h-2.13v3.45c0,0.79,0.57,1.02,0.96,1.02c0.48,0,0.98-0.16,1.52-0.49v1.24
						c-0.47,0.26-1.19,0.45-1.62,0.45c-1.46,0-2.19-0.9-2.19-2.11v-3.56h-1.17v-0.15l2.5-2.45V320.6z"/>
					<path d="M98.87,326.94c-0.61,0.4-0.87,0.52-1.29,0.52c-0.58,0-0.9-0.21-1.02-0.69c-0.58,0.46-1.2,0.69-1.81,0.69
						c-0.99,0-1.65-0.78-1.65-1.65c0-1.33,1.21-1.74,2.29-2.13l1.18-0.42v-0.36c0-0.84-0.4-1.18-1.21-1.18
						c-0.73,0-1.48,0.34-2.13,1.11v-1.46c0.52-0.61,1.26-0.92,2.23-0.92c1.37,0,2.44,0.69,2.44,2.22v3.46
						c0,0.25,0.09,0.34,0.26,0.34c0.13,0,0.4-0.13,0.7-0.36V326.94z M96.57,324c-1.14,0.39-2.13,0.78-2.13,1.58
						c0,0.55,0.41,0.95,0.96,0.95c0.42,0,0.81-0.21,1.17-0.56V324z"/>
				</g>
				<g class="st4">
					<path d="M99.99,328.82c0.5-0.33,0.68-1.1,0.54-1.64c-0.44-0.01-0.73-0.34-0.73-0.84s0.38-0.85,0.88-0.85
						c0.65,0,1.06,0.57,1.06,1.46c0,0.85-0.57,1.83-1.75,2.16V328.82z"/>
				</g>
				<g class="st4">
				</g>
				<g class="st4">
					<path d="M114.91,322.35c-0.76-0.51-1.27-0.66-1.86-0.66c-1.21,0-2.05,0.92-2.05,2.28c0,1.39,0.9,2.23,2.28,2.23
						c0.57,0,1.11-0.15,1.79-0.45v1.32c-0.45,0.21-1.31,0.39-2.01,0.39c-2.01,0-3.42-1.39-3.42-3.38c0-2.22,1.29-3.63,3.33-3.63
						c0.78,0,1.31,0.18,1.95,0.47V322.35z"/>
					<path d="M123.33,323.9c0,2.13-1.48,3.57-3.65,3.57c-2.07,0-3.55-1.5-3.55-3.57c0-1.94,1.54-3.44,3.55-3.44
						C121.8,320.46,123.33,321.9,123.33,323.9z M117.49,323.9c0,1.42,0.89,2.37,2.17,2.37c1.41,0,2.29-0.9,2.29-2.35
						c0-1.3-0.96-2.25-2.29-2.25C118.41,321.66,117.49,322.61,117.49,323.9z"/>
					<path d="M126.09,320.6v0.88c0.69-0.69,1.33-1.02,1.97-1.02c0.85,0,1.56,0.42,2.01,1.22c0.58-0.66,1.29-1.22,2.25-1.22
						c1.36,0,2.23,1.05,2.23,2.64v4.23h-1.33v-4.17c0-1.02-0.63-1.58-1.4-1.58c-0.44-0.01-1.02,0.36-1.5,0.86v4.89h-1.33v-4.18
						c0-1.09-0.56-1.56-1.21-1.56c-0.67,0-1.13,0.21-1.68,0.86v4.89h-1.33v-6.73H126.09z"/>
					<path d="M137.63,330.78h-1.34V320.6h2.31c2.46,0,3.79,1.2,3.79,3.42c0,2.02-1.43,3.45-3.42,3.45c-0.44,0-0.84-0.09-1.35-0.3
						V330.78z M137.63,325.96c0.4,0.2,0.84,0.3,1.26,0.3c1.24,0,2.14-0.96,2.14-2.26c0-1.39-0.73-2.21-2.19-2.21h-1.21V325.96z"/>
				</g>
				<g class="st4">
					<path d="M145.3,320.6v1.54h0.03c0.67-1.19,1.32-1.68,1.95-1.68c0.54,0,1.05,0.26,1.61,0.78l-0.71,1.16
						c-0.41-0.39-0.93-0.66-1.25-0.66c-0.92,0-1.63,0.92-1.63,2.07v3.52h-1.33v-6.73H145.3z"/>
				</g>
				<g class="st4">
					<path d="M155.14,326.67c-0.81,0.54-1.54,0.79-2.68,0.79c-2.1,0-3.27-1.72-3.27-3.58c0-2.04,1.29-3.42,3.15-3.42
						c1.79,0,2.92,1.22,2.92,3.71h-4.74c0.21,1.33,0.98,2.03,2.27,2.03c0.81,0,1.57-0.3,2.35-0.81V326.67z M153.94,323.28
						c-0.04-1.02-0.63-1.67-1.57-1.67c-1.02,0-1.63,0.6-1.82,1.67H153.94z"/>
				</g>
				<g class="st4">
				</g>
				<g class="st4">
					<path d="M168.88,318.5v2.92h2.92v1.23h-2.92v2.92h-1.23v-2.92h-2.92v-1.23h2.92v-2.92H168.88z"/>
					<path d="M177.14,327.33h-1.47V317.1h1.47V327.33z"/>
				</g>
				<g class="st4">
				</g>
				<g class="st4">
					<path d="M194.43,326.94c-0.61,0.4-0.87,0.52-1.29,0.52c-0.58,0-0.9-0.21-1.02-0.69c-0.58,0.46-1.2,0.69-1.81,0.69
						c-0.99,0-1.65-0.78-1.65-1.65c0-1.33,1.21-1.74,2.29-2.13l1.18-0.42v-0.36c0-0.84-0.41-1.18-1.21-1.18
						c-0.74,0-1.49,0.34-2.13,1.11v-1.46c0.53-0.61,1.26-0.92,2.23-0.92c1.37,0,2.45,0.69,2.45,2.22v3.46
						c0,0.25,0.09,0.34,0.26,0.34c0.13,0,0.4-0.13,0.7-0.36V326.94z M192.14,324c-1.14,0.39-2.13,0.78-2.13,1.58
						c0,0.55,0.41,0.95,0.96,0.95c0.42,0,0.81-0.21,1.17-0.56V324z"/>
					<path d="M196.92,321.48h0.03c0.51-0.65,1.26-1.02,2.01-1.02c1.28,0,2.29,0.87,2.29,2.71v4.16h-1.33v-4.17
						c0-0.99-0.51-1.63-1.32-1.63c-0.58,0-1.05,0.27-1.68,0.97v4.83h-1.33v-6.73h1.33V321.48z"/>
					<path d="M204.68,320.6h2.13v1.2h-2.13v3.45c0,0.79,0.57,1.02,0.96,1.02c0.48,0,0.98-0.16,1.51-0.49v1.24
						c-0.46,0.26-1.18,0.45-1.62,0.45c-1.46,0-2.19-0.9-2.19-2.11v-3.56h-1.17v-0.15l2.5-2.45V320.6z"/>
					<path d="M213.74,326.67c-0.81,0.54-1.54,0.79-2.69,0.79c-2.1,0-3.27-1.72-3.27-3.58c0-2.04,1.29-3.42,3.15-3.42
						c1.79,0,2.92,1.22,2.92,3.71h-4.74c0.21,1.33,0.98,2.03,2.27,2.03c0.81,0,1.57-0.3,2.36-0.81V326.67z M212.54,323.28
						c-0.04-1.02-0.63-1.67-1.57-1.67c-1.02,0-1.63,0.6-1.81,1.67H212.54z"/>
					<path d="M219.21,322.33c-0.75-0.5-1.46-0.71-1.95-0.71c-0.54,0-0.88,0.26-0.88,0.62c0,0.3,0.45,0.66,1.63,1.35
						c1.11,0.73,1.52,1.2,1.52,1.89c0,1.18-0.95,1.98-2.22,1.98c-0.83,0-1.47-0.17-2.34-0.62v-1.44c0.87,0.6,1.67,0.88,2.21,0.88
						c0.54-0.03,0.99-0.29,0.99-0.76c0-0.93-3.15-1.42-3.15-3.24c0-1.14,0.87-1.83,2.22-1.83c0.63,0,1.28,0.18,1.98,0.56V322.33z"/>
				</g>
				<g class="st4">
				</g>
				<g class="st4">
					<path d="M235,327.33h-2.83c-2.01,0-3.27-1.37-3.27-3.52c0-1.95,1.39-3.35,3.36-3.35c0.45,0,0.87,0.08,1.41,0.27v-3.63H235
						V327.33z M233.67,321.92c-0.45-0.18-0.79-0.25-1.25-0.25c-1.29,0-2.16,0.93-2.16,2.34c0,1.26,0.51,2.21,2.06,2.21h1.35V321.92z
						"/>
					<path d="M242.46,326.67c-0.81,0.54-1.54,0.79-2.69,0.79c-2.1,0-3.27-1.72-3.27-3.58c0-2.04,1.29-3.42,3.15-3.42
						c1.79,0,2.93,1.22,2.93,3.71h-4.74c0.21,1.33,0.97,2.03,2.26,2.03c0.81,0,1.58-0.3,2.36-0.81V326.67z M241.26,323.28
						c-0.04-1.02-0.63-1.67-1.58-1.67c-1.02,0-1.63,0.6-1.81,1.67H241.26z"/>
				</g>
				<g class="st4">
					<path d="M111.25,347.33h-2.83c-2.01,0-3.27-1.37-3.27-3.52c0-1.95,1.39-3.35,3.36-3.35c0.45,0,0.87,0.08,1.41,0.27v-3.63h1.33
						V347.33z M109.92,341.92c-0.45-0.18-0.79-0.25-1.25-0.25c-1.29,0-2.16,0.93-2.16,2.34c0,1.26,0.51,2.21,2.06,2.21h1.35V341.92z
						"/>
					<path d="M118.71,346.67c-0.81,0.54-1.54,0.79-2.69,0.79c-2.1,0-3.27-1.72-3.27-3.58c0-2.04,1.29-3.42,3.15-3.42
						c1.79,0,2.93,1.22,2.93,3.71h-4.74c0.21,1.33,0.97,2.03,2.26,2.03c0.81,0,1.58-0.3,2.36-0.81V346.67z M117.51,343.28
						c-0.04-1.02-0.63-1.67-1.58-1.67c-1.02,0-1.63,0.6-1.81,1.67H117.51z"/>
					<path d="M124.18,342.33c-0.75-0.5-1.46-0.71-1.95-0.71c-0.54,0-0.88,0.26-0.88,0.62c0,0.3,0.45,0.66,1.63,1.35
						c1.11,0.73,1.52,1.2,1.52,1.89c0,1.18-0.95,1.98-2.22,1.98c-0.83,0-1.47-0.17-2.34-0.62v-1.44c0.87,0.6,1.67,0.88,2.21,0.88
						c0.54-0.03,0.99-0.29,0.99-0.76c0-0.93-3.15-1.42-3.15-3.24c0-1.14,0.87-1.83,2.22-1.83c0.63,0,1.27,0.18,1.98,0.56V342.33z"/>
					<path d="M130.99,342.35c-0.76-0.51-1.27-0.66-1.86-0.66c-1.21,0-2.05,0.92-2.05,2.28c0,1.39,0.9,2.23,2.28,2.23
						c0.57,0,1.11-0.15,1.79-0.45v1.32c-0.45,0.21-1.3,0.39-2.01,0.39c-2.01,0-3.42-1.39-3.42-3.38c0-2.22,1.29-3.63,3.33-3.63
						c0.78,0,1.3,0.18,1.95,0.47V342.35z"/>
					<path d="M137.83,346.94c-0.61,0.4-0.87,0.52-1.29,0.52c-0.58,0-0.9-0.21-1.02-0.69c-0.58,0.46-1.2,0.69-1.81,0.69
						c-0.99,0-1.65-0.78-1.65-1.65c0-1.33,1.21-1.74,2.29-2.13l1.18-0.42v-0.36c0-0.84-0.4-1.18-1.21-1.18
						c-0.73,0-1.48,0.34-2.13,1.11v-1.46c0.53-0.61,1.26-0.92,2.24-0.92c1.37,0,2.44,0.69,2.44,2.22v3.46
						c0,0.25,0.09,0.34,0.26,0.34c0.13,0,0.4-0.13,0.7-0.36V346.94z M135.54,344c-1.14,0.39-2.13,0.78-2.13,1.58
						c0,0.55,0.41,0.95,0.96,0.95c0.42,0,0.81-0.21,1.17-0.56V344z"/>
				</g>
				<g class="st4">
					<path d="M140.43,340.6v1.54h0.03c0.67-1.19,1.32-1.68,1.95-1.68c0.54,0,1.05,0.26,1.61,0.78l-0.71,1.16
						c-0.41-0.39-0.93-0.66-1.25-0.66c-0.92,0-1.63,0.92-1.63,2.07v3.52h-1.33v-6.73H140.43z"/>
				</g>
				<g class="st4">
					<path d="M146.8,340.6h2.13v1.2h-2.13v3.45c0,0.79,0.57,1.02,0.96,1.02c0.48,0,0.98-0.16,1.52-0.49v1.24
						c-0.47,0.26-1.19,0.45-1.62,0.45c-1.46,0-2.19-0.9-2.19-2.11v-3.56h-1.17v-0.15l2.5-2.45V340.6z"/>
					<path d="M155.46,346.94c-0.62,0.4-0.87,0.52-1.29,0.52c-0.58,0-0.9-0.21-1.02-0.69c-0.58,0.46-1.2,0.69-1.82,0.69
						c-0.99,0-1.65-0.78-1.65-1.65c0-1.33,1.21-1.74,2.29-2.13l1.18-0.42v-0.36c0-0.84-0.41-1.18-1.21-1.18
						c-0.74,0-1.49,0.34-2.13,1.11v-1.46c0.52-0.61,1.26-0.92,2.23-0.92c1.37,0,2.45,0.69,2.45,2.22v3.46
						c0,0.25,0.09,0.34,0.25,0.34c0.13,0,0.41-0.13,0.71-0.36V346.94z M153.17,344c-1.14,0.39-2.13,0.78-2.13,1.58
						c0,0.55,0.41,0.95,0.96,0.95c0.42,0,0.81-0.21,1.17-0.56V344z"/>
				</g>
				<g class="st4">
					<path d="M158.07,340.6v1.54h0.03c0.67-1.19,1.32-1.68,1.95-1.68c0.54,0,1.05,0.26,1.6,0.78l-0.7,1.16
						c-0.41-0.39-0.93-0.66-1.25-0.66c-0.92,0-1.63,0.92-1.63,2.07v3.52h-1.33v-6.73H158.07z"/>
					<path d="M161.17,346.57c0,0.5-0.41,0.9-0.9,0.9c-0.49,0-0.9-0.4-0.9-0.9s0.41-0.9,0.9-0.9
						C160.77,345.67,161.17,346.07,161.17,346.57z"/>
				</g>
				<g id="Border">
					<g id="Outer_Line">
						<path d="M269.19,1.39v379.89H1.39V1.39H269.19 M270.58,0H0v382.68h270.58V0z"/>
					</g>
					<path d="M266.68,4.47V378.2H3.9V4.47H266.68 M267.81,3.35H2.77v376h265v-376H267.81z"/>
					<path d="M264.18,7.55v367.57H6.4V7.55H264.18 M265.04,6.69H5.54V376H265V6.69H265.04z"/>
					<path d="M261.68,10.63V372H8.9V10.63H261.68 M262.27,10.04H8.31v362.6h254V10L262.27,10.04z"/>
					<path d="M259.17,13.71V369H11.41V13.71H259.17 M259.5,13.39H11.08v355.9H259.5V13.39z"/>
					<g id="Inner_Line">
						<path d="M256.67,16.79v349.09H13.91V16.79H256.67 M256.73,16.73H13.85V366h242.88C256.73,366,256.73,16.73,256.73,16.73z"/>
					</g>
				</g>
			</g>
		</g>
	</g>
</g>
</svg>
