<?xml version="1.0" encoding="utf-8"?>
<!-- Generator: Adobe Illustrator 21.1.0, SVG Export Plug-In . SVG Version: 6.00 Build 0)  -->
<svg version="1.1" id="ZooUno" xmlns="http://www.w3.org/2000/svg" xmlns:xlink="http://www.w3.org/1999/xlink" x="0px" y="0px"
	 viewBox="0 0 270.58 382.68" style="enable-background:new 0 0 270.58 382.68;" xml:space="preserve">
<style type="text/css">
	.st0{fill:#F39400;}
	.st1{fill:#BFBFBF;}
	.st2{enable-background:new    ;}
	.st3{fill:none;stroke:#000000;stroke-width:0.9;stroke-miterlimit:10;}
	.st4{fill:none;stroke:#000000;stroke-width:0.54;stroke-miterlimit:10;}
	.st5{fill:none;stroke:#000000;stroke-width:2.46;stroke-miterlimit:10;}
</style>
<title>ZooUno Fields Cartas Finais pra Lari</title>
<g id="Final_Cards">
	<g id="Aves">
		<g id="Aves-2">
			<g id="_3_3">
				<path class="st0" d="M102.46,66c8.42-3.96,17.47-6.4,26.74-7.2c2.32-0.21,4.64-0.29,7-0.28l3.49,0.06l3.49,0.24
					c4.65,0.41,9.26,1.21,13.77,2.4c9.05,2.4,17.61,6.38,25.26,11.78c3.85,2.68,7.46,5.7,10.79,9c3.32,3.3,6.36,6.88,9.07,10.69
					c5.41,7.65,9.45,16.18,11.93,25.21c1.23,4.51,2.08,9.12,2.55,13.77c0.44,4.66,0.46,9.34,0.08,14c-0.73,9.32-3.1,18.44-7,26.94
					c-3.89,8.45-9.21,16.16-15.74,22.79c6.21-6.85,11.22-14.68,14.84-23.19c3.66-8.44,5.8-17.46,6.32-26.65
					c2.4-37.96-21.98-72.46-58.57-82.87c-4.41-1.25-8.92-2.12-13.48-2.62l-3.43-0.3l-3.44-0.13c-2.3-0.06-4.6,0-6.89,0.13
					C120.03,60.32,110.97,62.42,102.46,66z"/>
				<path class="st0" d="M104.82,69.36c8-3.58,16.55-5.77,25.29-6.45c2.19-0.17,4.38-0.24,6.57-0.19c2.19,0,4.38,0.16,6.56,0.33
					c4.37,0.43,8.69,1.23,12.93,2.38c8.5,2.31,16.53,6.1,23.72,11.2c7.23,5.05,13.53,11.31,18.62,18.51
					c5.1,7.19,8.91,15.22,11.26,23.72c2.4,8.49,3.29,17.34,2.63,26.14c-0.62,8.77-2.75,17.37-6.31,25.41
					c-3.59,7.99-8.5,15.32-14.53,21.68c5.85-6.47,10.56-13.89,13.93-21.94c3.4-8,5.39-16.54,5.88-25.22
					c2.19-35.94-20.87-68.57-55.47-78.52c-4.17-1.19-8.43-2.04-12.74-2.53c-2.16-0.19-4.33-0.39-6.5-0.41
					c-2.17-0.08-4.34-0.05-6.51,0.09C121.44,64.02,112.87,65.99,104.82,69.36z"/>
				<path class="st0" d="M107.18,72.7c15.26-6.52,32.29-7.58,48.24-3c3.97,1.11,7.85,2.54,11.58,4.3c3.7,1.79,7.25,3.89,10.61,6.26
					c6.74,4.77,12.62,10.65,17.39,17.39c9.59,13.57,14.24,30.02,13.18,46.6c-0.49,8.22-2.4,16.3-5.63,23.88
					c-3.25,7.56-7.75,14.51-13.31,20.58c5.46-6.12,9.85-13.12,13-20.7c9.67-23.11,6.72-49.58-7.79-70
					c-9.47-13.51-23.3-23.37-39.16-27.91C139.42,65.54,122.47,66.46,107.18,72.7z"/>
				<path class="st1" d="M77.79,83.11c-6.44,6.82-11.67,14.68-15.48,23.25c-3.82,8.53-6.11,17.67-6.75,27
					c-0.68,9.28,0.23,18.61,2.69,27.59c5.07,18.02,16.19,33.75,31.5,44.53c23.45,16.36,53.77,19.21,79.86,7.52
					c-8.46,4.19-17.61,6.83-27,7.8c-9.43,0.93-18.96,0.22-28.15-2.09c-38.4-9.83-64-46.04-60.46-85.52
					C55.64,114.18,64.09,96.39,77.79,83.11z"/>
				<path class="st1" d="M80.14,86.44c-6.08,6.44-11,13.89-14.56,22c-3.59,8.08-5.72,16.74-6.31,25.56
					c-2.59,36.5,20.93,69.77,56.2,79.51c17.19,4.71,35.48,3.35,51.79-3.84c-8.05,3.8-16.69,6.17-25.55,7
					c-8.89,0.79-17.86,0.04-26.5-2.2c-36.02-9.49-60.05-43.45-57-80.58c0.73-8.9,3.03-17.6,6.79-25.7
					C68.76,100.13,73.88,92.77,80.14,86.44z"/>
				<path class="st1" d="M82.5,89.77c-8.54,9.19-14.62,20.39-17.66,32.56c-9.25,38.19,13.39,76.86,51.23,87.47
					c16.2,4.46,33.43,3.23,48.83-3.48c-7.62,3.46-15.77,5.57-24.11,6.25c-2.08,0.18-4.17,0.25-6.26,0.21l-3.13-0.08l-3.13-0.23
					c-4.15-0.4-8.25-1.15-12.27-2.24c-38.73-10.39-61.7-50.21-51.31-88.93C67.87,109.45,74,98.61,82.5,89.77z"/>
				<g class="st2">
					<path d="M35.53,247.33h-1.5l-1.37-3.01h-4.35l-1.29,3.01h-1.5l4.39-10.29h1.04L35.53,247.33z M28.89,243h3.18l-1.65-3.71
						L28.89,243z"/>
					<path d="M43.27,243.9c0,2.13-1.48,3.57-3.64,3.57c-2.07,0-3.55-1.5-3.55-3.57c0-1.94,1.54-3.44,3.55-3.44
						C41.75,240.46,43.27,241.9,43.27,243.9z M37.44,243.9c0,1.42,0.89,2.37,2.18,2.37c1.41,0,2.29-0.9,2.29-2.35
						c0-1.3-0.96-2.25-2.29-2.25C38.35,241.66,37.44,242.61,37.44,243.9z"/>
				</g>
				<g class="st2">
				</g>
				<g class="st2">
					<path d="M49.61,240.6v1.54h0.03c0.67-1.19,1.32-1.68,1.95-1.68c0.54,0,1.05,0.26,1.6,0.78l-0.7,1.16
						c-0.41-0.39-0.93-0.66-1.25-0.66c-0.92,0-1.63,0.92-1.63,2.07v3.52h-1.33v-6.73H49.61z"/>
				</g>
				<g class="st2">
					<path d="M59.45,246.67c-0.81,0.54-1.54,0.79-2.69,0.79c-2.1,0-3.27-1.72-3.27-3.58c0-2.04,1.29-3.42,3.15-3.42
						c1.79,0,2.93,1.22,2.93,3.71h-4.74c0.21,1.33,0.98,2.03,2.27,2.03c0.81,0,1.57-0.3,2.35-0.81V246.67z M58.25,243.28
						c-0.04-1.02-0.63-1.67-1.57-1.67c-1.02,0-1.63,0.6-1.81,1.67H58.25z"/>
					<path d="M65.96,242.35c-0.76-0.51-1.27-0.66-1.86-0.66c-1.21,0-2.05,0.92-2.05,2.28c0,1.39,0.9,2.23,2.28,2.23
						c0.57,0,1.11-0.15,1.79-0.45v1.32c-0.45,0.21-1.31,0.39-2.01,0.39c-2.01,0-3.42-1.39-3.42-3.38c0-2.22,1.29-3.63,3.33-3.63
						c0.78,0,1.31,0.18,1.95,0.47V242.35z"/>
					<path d="M73.2,246.67c-0.81,0.54-1.54,0.79-2.69,0.79c-2.1,0-3.27-1.72-3.27-3.58c0-2.04,1.29-3.42,3.15-3.42
						c1.79,0,2.93,1.22,2.93,3.71h-4.74c0.21,1.33,0.98,2.03,2.27,2.03c0.81,0,1.57-0.3,2.35-0.81V246.67z M72,243.28
						c-0.04-1.02-0.63-1.67-1.57-1.67c-1.02,0-1.63,0.6-1.81,1.67H72z"/>
					<path d="M76.04,241.08c0.58-0.42,1.19-0.62,1.86-0.62c1.68,0,2.91,1.43,2.91,3.36c0,2.28-1.35,3.64-3.6,3.64
						c-0.88,0-1.84-0.19-2.5-0.51v-9.85h1.33V241.08z M76.04,246c0.39,0.12,0.96,0.21,1.35,0.21c1.2,0,2.06-0.92,2.06-2.19
						c0-1.43-0.75-2.36-1.88-2.36c-0.56,0-0.96,0.18-1.53,0.69V246z"/>
					<path d="M87.89,246.67c-0.81,0.54-1.54,0.79-2.69,0.79c-2.1,0-3.27-1.72-3.27-3.58c0-2.04,1.29-3.42,3.15-3.42
						c1.79,0,2.93,1.22,2.93,3.71h-4.74c0.21,1.33,0.98,2.03,2.27,2.03c0.81,0,1.57-0.3,2.35-0.81V246.67z M86.69,243.28
						c-0.04-1.02-0.63-1.67-1.57-1.67c-1.02,0-1.63,0.6-1.81,1.67H86.69z"/>
					<path d="M90.87,240.6v1.54h0.03c0.67-1.19,1.32-1.68,1.95-1.68c0.54,0,1.05,0.26,1.6,0.78l-0.7,1.16
						c-0.41-0.39-0.93-0.66-1.25-0.66c-0.92,0-1.63,0.92-1.63,2.07v3.52h-1.33v-6.73H90.87z"/>
				</g>
				<g class="st2">
				</g>
				<g class="st2">
					<path d="M103.1,247.33v-0.85c-0.55,0.6-1.33,0.99-1.99,0.99c-1.37,0-2.33-0.97-2.33-2.68v-4.18h1.33v4.27
						c0,0.95,0.46,1.49,1.38,1.49c0.6,0,1.17-0.33,1.6-0.95v-4.81h1.33v6.73H103.1z"/>
					<path d="M107.6,240.6v0.88c0.69-0.69,1.33-1.02,1.97-1.02c0.85,0,1.56,0.42,2.01,1.22c0.58-0.66,1.29-1.22,2.25-1.22
						c1.36,0,2.23,1.05,2.23,2.64v4.23h-1.33v-4.17c0-1.02-0.63-1.58-1.4-1.58c-0.44-0.01-1.02,0.36-1.5,0.86v4.89h-1.33v-4.18
						c0-1.09-0.56-1.56-1.21-1.56c-0.67,0-1.13,0.21-1.68,0.86v4.89h-1.33v-6.73H107.6z"/>
				</g>
				<g class="st2">
				</g>
				<g class="st2">
					<path d="M125.36,238.5v2.92h2.93v1.23h-2.93v2.92h-1.23v-2.92h-2.92v-1.23h2.92v-2.92H125.36z"/>
					<path d="M136.12,247.33h-6.48v-0.11c1.13-1.36,2.69-3.22,3.56-4.71c0.48-0.83,0.72-1.33,0.72-2.19c0-1.13-0.75-1.92-1.75-1.92
						c-0.73,0-1.48,0.33-2.31,1.38v-1.84c0.83-0.66,1.59-0.97,2.42-0.97c1.85,0,3.12,1.3,3.12,3.19c0,1.67-0.9,3.06-3.18,5.78h3.91
						V247.33z"/>
				</g>
				<g class="st2">
				</g>
				<g class="st2">
					<path d="M147.8,243.9c0,2.13-1.49,3.57-3.65,3.57c-2.07,0-3.55-1.5-3.55-3.57c0-1.94,1.54-3.44,3.55-3.44
						C146.27,240.46,147.8,241.9,147.8,243.9z M141.96,243.9c0,1.42,0.88,2.37,2.17,2.37c1.41,0,2.29-0.9,2.29-2.35
						c0-1.3-0.96-2.25-2.29-2.25C142.88,241.66,141.96,242.61,141.96,243.9z"/>
					<path d="M153.56,247.33v-0.85c-0.55,0.6-1.33,0.99-2,0.99c-1.37,0-2.33-0.97-2.33-2.68v-4.18h1.33v4.27
						c0,0.95,0.46,1.49,1.38,1.49c0.6,0,1.17-0.33,1.61-0.95v-4.81h1.33v6.73H153.56z"/>
				</g>
				<g class="st2">
				</g>
				<g class="st2">
					<path d="M164.25,238.5v2.92h2.92v1.23h-2.92v2.92h-1.23v-2.92h-2.92v-1.23h2.92v-2.92H164.25z"/>
					<path d="M173.99,242.65h1.1v1.32h-1.1v3.36h-1.47v-3.36h-4.33v-0.68l5.17-6.33h0.63V242.65z M170.15,242.65h2.37v-2.91h-0.03
						L170.15,242.65z"/>
				</g>
				<g class="st2">
					<path d="M176.4,248.82c0.5-0.33,0.68-1.1,0.54-1.64c-0.44-0.01-0.74-0.34-0.74-0.84s0.38-0.85,0.88-0.85
						c0.65,0,1.07,0.57,1.07,1.46c0,0.85-0.57,1.83-1.76,2.16V248.82z"/>
				</g>
				<g class="st2">
				</g>
				<g class="st2">
					<path d="M180.79,240.6h1.46l1.81,4.14l1.77-4.14h1.42l-2.97,6.87h-0.45L180.79,240.6z"/>
				</g>
				<g class="st2">
					<path d="M194.75,243.9c0,2.13-1.49,3.57-3.65,3.57c-2.07,0-3.55-1.5-3.55-3.57c0-1.94,1.54-3.44,3.55-3.44
						C193.22,240.46,194.75,241.9,194.75,243.9z M188.92,243.9c0,1.42,0.88,2.37,2.17,2.37c1.41,0,2.29-0.9,2.29-2.35
						c0-1.3-0.96-2.25-2.29-2.25C189.83,241.66,188.92,242.61,188.92,243.9z"/>
					<path d="M201.18,242.35c-0.76-0.51-1.28-0.66-1.86-0.66c-1.21,0-2.05,0.92-2.05,2.28c0,1.39,0.9,2.23,2.28,2.23
						c0.57,0,1.11-0.15,1.79-0.45v1.32c-0.45,0.21-1.31,0.39-2.01,0.39c-2.01,0-3.42-1.39-3.42-3.38c0-2.22,1.29-3.63,3.33-3.63
						c0.78,0,1.31,0.18,1.95,0.47V242.35z"/>
					<path d="M208.43,246.67c-0.81,0.54-1.54,0.79-2.69,0.79c-2.1,0-3.27-1.72-3.27-3.58c0-2.04,1.29-3.42,3.15-3.42
						c1.79,0,2.93,1.22,2.93,3.71h-4.74c0.21,1.33,0.97,2.03,2.26,2.03c0.81,0,1.58-0.3,2.36-0.81V246.67z M207.54,239.74h-0.82
						l-1.31-1.3l-1.24,1.3h-0.79l1.36-2.26h1.4L207.54,239.74z M207.23,243.28c-0.04-1.02-0.63-1.67-1.58-1.67
						c-1.02,0-1.63,0.6-1.81,1.67H207.23z"/>
				</g>
				<g class="st2">
				</g>
				<g class="st2">
					<path d="M214.66,250.78h-1.33V240.6h2.31c2.46,0,3.79,1.2,3.79,3.42c0,2.02-1.42,3.45-3.42,3.45c-0.43,0-0.84-0.09-1.35-0.3
						V250.78z M214.66,245.96c0.4,0.2,0.84,0.3,1.26,0.3c1.25,0,2.14-0.96,2.14-2.26c0-1.39-0.73-2.21-2.19-2.21h-1.21V245.96z"/>
					<path d="M227.71,243.9c0,2.13-1.49,3.57-3.65,3.57c-2.07,0-3.55-1.5-3.55-3.57c0-1.94,1.54-3.44,3.55-3.44
						C226.18,240.46,227.71,241.9,227.71,243.9z M221.88,243.9c0,1.42,0.88,2.37,2.17,2.37c1.41,0,2.29-0.9,2.29-2.35
						c0-1.3-0.96-2.25-2.29-2.25C222.79,241.66,221.88,242.61,221.88,243.9z"/>
					<path d="M235.01,247.33h-2.83c-2.01,0-3.27-1.37-3.27-3.52c0-1.95,1.39-3.35,3.36-3.35c0.45,0,0.87,0.08,1.41,0.27v-3.63h1.33
						V247.33z M233.68,241.92c-0.45-0.18-0.79-0.25-1.25-0.25c-1.29,0-2.16,0.93-2.16,2.34c0,1.26,0.51,2.21,2.05,2.21h1.35V241.92z
						"/>
					<path d="M242.47,246.67c-0.81,0.54-1.54,0.79-2.69,0.79c-2.1,0-3.27-1.72-3.27-3.58c0-2.04,1.29-3.42,3.15-3.42
						c1.79,0,2.93,1.22,2.93,3.71h-4.74c0.21,1.33,0.97,2.03,2.26,2.03c0.81,0,1.58-0.3,2.36-0.81V246.67z M241.27,243.28
						c-0.04-1.02-0.63-1.67-1.58-1.67c-1.02,0-1.63,0.6-1.81,1.67H241.27z"/>
				</g>
				<g class="st2">
					<path d="M30.1,267.33h-2.83c-2.01,0-3.27-1.37-3.27-3.52c0-1.95,1.39-3.35,3.36-3.35c0.45,0,0.87,0.08,1.41,0.27v-3.63h1.33
						V267.33z M28.77,261.92c-0.45-0.18-0.79-0.25-1.24-0.25c-1.29,0-2.16,0.93-2.16,2.34c0,1.26,0.51,2.21,2.06,2.21h1.35V261.92z"
						/>
					<path d="M37.56,266.67c-0.81,0.54-1.54,0.79-2.69,0.79c-2.1,0-3.27-1.72-3.27-3.58c0-2.04,1.29-3.42,3.15-3.42
						c1.79,0,2.93,1.22,2.93,3.71h-4.74c0.21,1.33,0.98,2.03,2.27,2.03c0.81,0,1.57-0.3,2.35-0.81V266.67z M36.36,263.28
						c-0.04-1.02-0.63-1.67-1.57-1.67c-1.02,0-1.64,0.6-1.81,1.67H36.36z"/>
					<path d="M43.03,262.33c-0.75-0.5-1.46-0.71-1.95-0.71c-0.54,0-0.88,0.26-0.88,0.62c0,0.3,0.45,0.66,1.63,1.35
						c1.11,0.73,1.52,1.2,1.52,1.89c0,1.18-0.94,1.98-2.22,1.98c-0.83,0-1.47-0.17-2.34-0.62v-1.44c0.87,0.6,1.67,0.88,2.21,0.88
						c0.54-0.03,0.99-0.29,0.99-0.76c0-0.93-3.15-1.42-3.15-3.24c0-1.14,0.87-1.83,2.22-1.83c0.63,0,1.27,0.18,1.98,0.56V262.33z"/>
					<path d="M49.84,262.35c-0.76-0.51-1.27-0.66-1.86-0.66c-1.21,0-2.05,0.92-2.05,2.28c0,1.39,0.9,2.23,2.28,2.23
						c0.57,0,1.11-0.15,1.79-0.45v1.32c-0.45,0.21-1.31,0.39-2.01,0.39c-2.01,0-3.42-1.39-3.42-3.38c0-2.22,1.29-3.63,3.33-3.63
						c0.78,0,1.31,0.18,1.95,0.47V262.35z"/>
					<path d="M56.68,266.94c-0.61,0.4-0.87,0.52-1.29,0.52c-0.58,0-0.9-0.21-1.02-0.69c-0.58,0.46-1.2,0.69-1.81,0.69
						c-0.99,0-1.65-0.78-1.65-1.65c0-1.33,1.21-1.74,2.29-2.13l1.18-0.42v-0.36c0-0.84-0.4-1.18-1.21-1.18
						c-0.73,0-1.48,0.34-2.13,1.11v-1.46c0.52-0.61,1.26-0.92,2.23-0.92c1.37,0,2.44,0.69,2.44,2.22v3.46
						c0,0.25,0.09,0.34,0.26,0.34c0.13,0,0.4-0.13,0.7-0.36V266.94z M54.39,264c-1.14,0.39-2.13,0.78-2.13,1.58
						c0,0.55,0.41,0.95,0.96,0.95c0.42,0,0.81-0.21,1.17-0.56V264z"/>
				</g>
				<g class="st2">
					<path d="M59.28,260.6v1.54h0.03c0.67-1.19,1.32-1.68,1.95-1.68c0.54,0,1.05,0.26,1.6,0.78l-0.7,1.16
						c-0.41-0.39-0.93-0.66-1.25-0.66c-0.92,0-1.63,0.92-1.63,2.07v3.52h-1.33v-6.73H59.28z"/>
				</g>
				<g class="st2">
					<path d="M65.65,260.6h2.13v1.2h-2.13v3.45c0,0.79,0.57,1.02,0.96,1.02c0.48,0,0.98-0.16,1.52-0.49v1.24
						c-0.47,0.26-1.19,0.45-1.62,0.45c-1.46,0-2.19-0.9-2.19-2.11v-3.56h-1.17v-0.15l2.5-2.45V260.6z"/>
					<path d="M74.31,266.94c-0.61,0.4-0.87,0.52-1.29,0.52c-0.58,0-0.9-0.21-1.02-0.69c-0.58,0.46-1.2,0.69-1.81,0.69
						c-0.99,0-1.65-0.78-1.65-1.65c0-1.33,1.21-1.74,2.29-2.13l1.18-0.42v-0.36c0-0.84-0.4-1.18-1.21-1.18
						c-0.73,0-1.48,0.34-2.13,1.11v-1.46c0.52-0.61,1.26-0.92,2.23-0.92c1.37,0,2.44,0.69,2.44,2.22v3.46
						c0,0.25,0.09,0.34,0.26,0.34c0.13,0,0.4-0.13,0.7-0.36V266.94z M72.01,264c-1.14,0.39-2.13,0.78-2.13,1.58
						c0,0.55,0.41,0.95,0.96,0.95c0.42,0,0.81-0.21,1.17-0.56V264z"/>
					<path d="M76.92,260.6v1.54h0.03c0.67-1.19,1.32-1.68,1.95-1.68c0.54,0,1.05,0.26,1.6,0.78l-0.7,1.16
						c-0.41-0.39-0.93-0.66-1.25-0.66c-0.92,0-1.63,0.92-1.63,2.07v3.52h-1.33v-6.73H76.92z"/>
				</g>
				<g class="st2">
				</g>
				<g class="st2">
					<path d="M90.3,267.33v-0.85c-0.55,0.6-1.33,0.99-1.99,0.99c-1.37,0-2.33-0.97-2.33-2.68v-4.18h1.33v4.27
						c0,0.95,0.46,1.49,1.38,1.49c0.6,0,1.17-0.33,1.6-0.95v-4.81h1.33v6.73H90.3z"/>
					<path d="M94.8,260.6v0.88c0.69-0.69,1.33-1.02,1.97-1.02c0.85,0,1.56,0.42,2.01,1.22c0.58-0.66,1.29-1.22,2.25-1.22
						c1.36,0,2.23,1.05,2.23,2.64v4.23h-1.33v-4.17c0-1.02-0.63-1.58-1.4-1.58c-0.44-0.01-1.02,0.36-1.5,0.86v4.89h-1.33v-4.18
						c0-1.09-0.56-1.56-1.21-1.56c-0.67,0-1.13,0.21-1.68,0.86v4.89h-1.33v-6.73H94.8z"/>
					<path d="M110.31,266.94c-0.61,0.4-0.87,0.52-1.29,0.52c-0.58,0-0.9-0.21-1.02-0.69c-0.58,0.46-1.2,0.69-1.81,0.69
						c-0.99,0-1.65-0.78-1.65-1.65c0-1.33,1.21-1.74,2.29-2.13l1.18-0.42v-0.36c0-0.84-0.4-1.18-1.21-1.18
						c-0.73,0-1.48,0.34-2.13,1.11v-1.46c0.52-0.61,1.26-0.92,2.23-0.92c1.37,0,2.44,0.69,2.44,2.22v3.46
						c0,0.25,0.09,0.34,0.26,0.34c0.13,0,0.4-0.13,0.7-0.36V266.94z M108.01,264c-1.14,0.39-2.13,0.78-2.13,1.58
						c0,0.55,0.41,0.95,0.96,0.95c0.42,0,0.81-0.21,1.17-0.56V264z"/>
				</g>
				<g class="st2">
				</g>
				<g class="st2">
					<path d="M121.02,262.35c-0.76-0.51-1.27-0.66-1.86-0.66c-1.21,0-2.05,0.92-2.05,2.28c0,1.39,0.9,2.23,2.28,2.23
						c0.57,0,1.11-0.15,1.79-0.45v1.32c-0.45,0.21-1.31,0.39-2.01,0.39c-2.01,0-3.42-1.39-3.42-3.38c0-2.22,1.29-3.63,3.33-3.63
						c0.78,0,1.31,0.18,1.95,0.47V262.35z"/>
					<path d="M127.86,266.94c-0.61,0.4-0.87,0.52-1.29,0.52c-0.58,0-0.9-0.21-1.02-0.69c-0.58,0.46-1.2,0.69-1.81,0.69
						c-0.99,0-1.65-0.78-1.65-1.65c0-1.33,1.21-1.74,2.29-2.13l1.18-0.42v-0.36c0-0.84-0.4-1.18-1.21-1.18
						c-0.73,0-1.48,0.34-2.13,1.11v-1.46c0.52-0.61,1.26-0.92,2.23-0.92c1.37,0,2.44,0.69,2.44,2.22v3.46
						c0,0.25,0.09,0.34,0.26,0.34c0.13,0,0.4-0.13,0.7-0.36V266.94z M125.57,264c-1.14,0.39-2.13,0.78-2.13,1.58
						c0,0.55,0.41,0.95,0.96,0.95c0.42,0,0.81-0.21,1.17-0.56V264z"/>
				</g>
				<g class="st2">
					<path d="M130.47,260.6v1.54h0.03c0.67-1.19,1.32-1.68,1.95-1.68c0.54,0,1.05,0.26,1.6,0.78l-0.7,1.16
						c-0.41-0.39-0.93-0.66-1.25-0.66c-0.92,0-1.63,0.92-1.63,2.07v3.52h-1.33v-6.73H130.47z"/>
				</g>
				<g class="st2">
					<path d="M136.84,260.6h2.13v1.2h-2.13v3.45c0,0.79,0.57,1.02,0.96,1.02c0.48,0,0.98-0.16,1.52-0.49v1.24
						c-0.47,0.26-1.19,0.45-1.62,0.45c-1.46,0-2.19-0.9-2.19-2.11v-3.56h-1.17v-0.15l2.5-2.45V260.6z"/>
					<path d="M145.5,266.94c-0.62,0.4-0.87,0.52-1.29,0.52c-0.58,0-0.9-0.21-1.02-0.69c-0.58,0.46-1.2,0.69-1.82,0.69
						c-0.99,0-1.65-0.78-1.65-1.65c0-1.33,1.21-1.74,2.29-2.13l1.18-0.42v-0.36c0-0.84-0.41-1.18-1.21-1.18
						c-0.74,0-1.49,0.34-2.13,1.11v-1.46c0.52-0.61,1.26-0.92,2.23-0.92c1.37,0,2.45,0.69,2.45,2.22v3.46
						c0,0.25,0.09,0.34,0.25,0.34c0.13,0,0.41-0.13,0.71-0.36V266.94z M143.21,264c-1.14,0.39-2.13,0.78-2.13,1.58
						c0,0.55,0.41,0.95,0.96,0.95c0.42,0,0.81-0.21,1.17-0.56V264z"/>
				</g>
				<g class="st2">
				</g>
				<g class="st2">
					<path d="M157.09,267.33h-2.83c-2.01,0-3.27-1.37-3.27-3.52c0-1.95,1.39-3.35,3.36-3.35c0.45,0,0.87,0.08,1.41,0.27v-3.63h1.33
						V267.33z M155.76,261.92c-0.45-0.18-0.79-0.25-1.25-0.25c-1.29,0-2.16,0.93-2.16,2.34c0,1.26,0.51,2.21,2.06,2.21h1.35V261.92z
						"/>
					<path d="M164.55,266.67c-0.81,0.54-1.54,0.79-2.69,0.79c-2.1,0-3.27-1.72-3.27-3.58c0-2.04,1.29-3.42,3.15-3.42
						c1.79,0,2.93,1.22,2.93,3.71h-4.74c0.21,1.33,0.97,2.03,2.26,2.03c0.81,0,1.58-0.3,2.36-0.81V266.67z M163.35,263.28
						c-0.04-1.02-0.63-1.67-1.58-1.67c-1.02,0-1.63,0.6-1.81,1.67H163.35z"/>
				</g>
				<g class="st2">
				</g>
				<g class="st2">
					<path d="M179.59,259.38c-1.26-0.74-2.34-1.07-3.53-1.07c-2.34,0-4.08,1.67-4.08,3.92c0,2.29,1.68,3.88,4.14,3.88
						c1.15,0,2.41-0.41,3.57-1.16v1.61c-1.01,0.52-2.1,0.9-3.71,0.9c-3.84,0-5.52-2.96-5.52-5.1c0-3.12,2.35-5.4,5.61-5.4
						c1.05,0,2.12,0.25,3.51,0.84V259.38z"/>
					<path d="M182.62,261.48h0.03c0.51-0.65,1.26-1.02,2.01-1.02c1.28,0,2.29,0.87,2.29,2.71v4.16h-1.33v-4.17
						c0-0.99-0.51-1.63-1.32-1.63c-0.58,0-1.05,0.27-1.68,0.97v4.83h-1.33v-6.73h1.33V261.48z"/>
					<path d="M189.52,259.35c-0.43,0-0.79-0.36-0.79-0.79c0-0.44,0.36-0.79,0.79-0.79c0.44,0,0.79,0.36,0.79,0.79
						C190.31,258.99,189.96,259.35,189.52,259.35z M190.18,267.33h-1.33v-6.73h1.33V267.33z"/>
					<path d="M197.92,267.33h-2.84c-2.01,0-3.27-1.37-3.27-3.52c0-1.95,1.39-3.35,3.36-3.35c0.45,0,0.87,0.08,1.41,0.27v-3.63h1.34
						V267.33z M196.58,261.92c-0.45-0.18-0.79-0.25-1.24-0.25c-1.29,0-2.16,0.93-2.16,2.34c0,1.26,0.51,2.21,2.05,2.21h1.35V261.92z
						"/>
					<path d="M204.97,266.94c-0.61,0.4-0.87,0.52-1.29,0.52c-0.58,0-0.9-0.21-1.02-0.69c-0.59,0.46-1.2,0.69-1.82,0.69
						c-0.99,0-1.65-0.78-1.65-1.65c0-1.33,1.21-1.74,2.29-2.13l1.18-0.42v-0.36c0-0.84-0.4-1.18-1.21-1.18
						c-0.73,0-1.48,0.34-2.13,1.11v-1.46c0.52-0.61,1.26-0.92,2.23-0.92c1.37,0,2.45,0.69,2.45,2.22v3.46
						c0,0.25,0.09,0.34,0.25,0.34c0.13,0,0.41-0.13,0.7-0.36V266.94z M202.67,264c-1.14,0.39-2.13,0.78-2.13,1.58
						c0,0.55,0.4,0.95,0.96,0.95c0.42,0,0.81-0.21,1.17-0.56V264z M203.68,257.52l-1.68,2.21h-0.83l1-2.21H203.68z"/>
					<path d="M207.58,260.6v1.54h0.03c0.67-1.19,1.32-1.68,1.95-1.68c0.54,0,1.05,0.26,1.61,0.78l-0.71,1.16
						c-0.4-0.39-0.93-0.66-1.24-0.66c-0.92,0-1.63,0.92-1.63,2.07v3.52h-1.34v-6.73H207.58z"/>
					<path d="M212.8,259.35c-0.43,0-0.79-0.36-0.79-0.79c0-0.44,0.36-0.79,0.79-0.79c0.44,0,0.79,0.36,0.79,0.79
						C213.59,258.99,213.23,259.35,212.8,259.35z M213.46,267.33h-1.33v-6.73h1.33V267.33z"/>
					<path d="M222.17,263.9c0,2.13-1.48,3.57-3.64,3.57c-2.07,0-3.55-1.5-3.55-3.57c0-1.94,1.54-3.44,3.55-3.44
						C220.64,260.46,222.17,261.9,222.17,263.9z M216.34,263.9c0,1.42,0.88,2.37,2.17,2.37c1.41,0,2.29-0.9,2.29-2.35
						c0-1.3-0.96-2.25-2.29-2.25C217.25,261.66,216.34,262.61,216.34,263.9z"/>
				</g>
				<g class="st2">
				</g>
				<g class="st2">
					<path d="M235.04,263.9c0,2.13-1.49,3.57-3.65,3.57c-2.07,0-3.55-1.5-3.55-3.57c0-1.94,1.54-3.44,3.55-3.44
						C233.51,260.46,235.04,261.9,235.04,263.9z M229.21,263.9c0,1.42,0.88,2.37,2.17,2.37c1.41,0,2.29-0.9,2.29-2.35
						c0-1.3-0.96-2.25-2.29-2.25C230.12,261.66,229.21,262.61,229.21,263.9z"/>
					<path d="M240.8,267.33v-0.85c-0.55,0.6-1.33,0.99-2,0.99c-1.37,0-2.33-0.97-2.33-2.68v-4.18h1.33v4.27
						c0,0.95,0.46,1.49,1.38,1.49c0.6,0,1.17-0.33,1.61-0.95v-4.81h1.33v6.73H240.8z"/>
				</g>
				<g class="st2">
					<path d="M33.97,287.33H32.5v-7.96h-0.03l-3.15,3.96h-0.24l-3.15-3.96H25.9v7.96h-1.47V277.1h1.38l3.39,4.2l3.4-4.2h1.37V287.33
						z"/>
					<path d="M42.79,283.9c0,2.13-1.48,3.57-3.65,3.57c-2.07,0-3.55-1.5-3.55-3.57c0-1.94,1.54-3.44,3.55-3.44
						C41.26,280.46,42.79,281.9,42.79,283.9z M36.96,283.9c0,1.42,0.89,2.37,2.18,2.37c1.41,0,2.29-0.9,2.29-2.35
						c0-1.3-0.96-2.25-2.29-2.25C37.87,281.66,36.96,282.61,36.96,283.9z"/>
					<path d="M45.64,287.33h-1.33V277.1h1.33V287.33z"/>
					<path d="M51.84,287.33v-0.85c-0.55,0.6-1.33,0.99-1.99,0.99c-1.37,0-2.33-0.97-2.33-2.68v-4.18h1.33v4.27
						c0,0.95,0.46,1.49,1.38,1.49c0.6,0,1.17-0.33,1.6-0.95v-4.81h1.33v6.73H51.84z"/>
					<path d="M58.98,282.33c-0.75-0.5-1.46-0.71-1.95-0.71c-0.54,0-0.88,0.26-0.88,0.62c0,0.3,0.45,0.66,1.63,1.35
						c1.11,0.73,1.52,1.2,1.52,1.89c0,1.18-0.94,1.98-2.22,1.98c-0.83,0-1.47-0.17-2.34-0.62v-1.44c0.87,0.6,1.67,0.88,2.21,0.88
						c0.54-0.03,0.99-0.29,0.99-0.76c0-0.93-3.15-1.42-3.15-3.24c0-1.14,0.87-1.83,2.22-1.83c0.63,0,1.27,0.18,1.98,0.56V282.33z"/>
					<path d="M65.79,282.35c-0.76-0.51-1.27-0.66-1.86-0.66c-1.21,0-2.05,0.92-2.05,2.28c0,1.39,0.9,2.23,2.28,2.23
						c0.57,0,1.11-0.15,1.79-0.45v1.32c-0.45,0.21-1.31,0.39-2.01,0.39c-2.01,0-3.42-1.39-3.42-3.38c0-2.22,1.29-3.63,3.33-3.63
						c0.78,0,1.31,0.18,1.95,0.47V282.35z"/>
					<path d="M74.2,283.9c0,2.13-1.48,3.57-3.65,3.57c-2.07,0-3.55-1.5-3.55-3.57c0-1.94,1.54-3.44,3.55-3.44
						C72.67,280.46,74.2,281.9,74.2,283.9z M68.37,283.9c0,1.42,0.89,2.37,2.17,2.37c1.41,0,2.29-0.9,2.29-2.35
						c0-1.3-0.96-2.25-2.29-2.25C69.28,281.66,68.37,282.61,68.37,283.9z"/>
				</g>
				<g class="st2">
				</g>
				<g class="st2">
					<path d="M83.61,290.78h-1.33V280.6h2.31c2.46,0,3.79,1.2,3.79,3.42c0,2.02-1.43,3.45-3.42,3.45c-0.44,0-0.84-0.09-1.35-0.3
						V290.78z M83.61,285.96c0.4,0.2,0.84,0.3,1.26,0.3c1.25,0,2.15-0.96,2.15-2.26c0-1.39-0.73-2.21-2.19-2.21h-1.21V285.96z"/>
					<path d="M95.08,286.94c-0.61,0.4-0.87,0.52-1.29,0.52c-0.58,0-0.9-0.21-1.02-0.69c-0.58,0.46-1.2,0.69-1.81,0.69
						c-0.99,0-1.65-0.78-1.65-1.65c0-1.33,1.21-1.74,2.29-2.13l1.18-0.42v-0.36c0-0.84-0.4-1.18-1.21-1.18
						c-0.73,0-1.48,0.34-2.13,1.11v-1.46c0.52-0.61,1.26-0.92,2.23-0.92c1.37,0,2.44,0.69,2.44,2.22v3.46
						c0,0.25,0.09,0.34,0.26,0.34c0.13,0,0.4-0.13,0.7-0.36V286.94z M92.79,284c-1.14,0.39-2.13,0.78-2.13,1.58
						c0,0.55,0.41,0.95,0.96,0.95c0.42,0,0.81-0.21,1.17-0.56V284z"/>
					<path d="M97.69,280.6v1.54h0.03c0.67-1.19,1.32-1.68,1.95-1.68c0.54,0,1.05,0.26,1.6,0.78l-0.7,1.16
						c-0.41-0.39-0.93-0.66-1.25-0.66c-0.92,0-1.63,0.92-1.63,2.07v3.52h-1.33v-6.73H97.69z"/>
					<path d="M107.43,286.94c-0.61,0.4-0.87,0.52-1.29,0.52c-0.58,0-0.9-0.21-1.02-0.69c-0.58,0.46-1.2,0.69-1.81,0.69
						c-0.99,0-1.65-0.78-1.65-1.65c0-1.33,1.21-1.74,2.29-2.13l1.18-0.42v-0.36c0-0.84-0.4-1.18-1.21-1.18
						c-0.73,0-1.48,0.34-2.13,1.11v-1.46c0.52-0.61,1.26-0.92,2.23-0.92c1.37,0,2.44,0.69,2.44,2.22v3.46
						c0,0.25,0.09,0.34,0.26,0.34c0.13,0,0.4-0.13,0.7-0.36V286.94z M105.13,284c-1.14,0.39-2.13,0.78-2.13,1.58
						c0,0.55,0.41,0.95,0.96,0.95c0.42,0,0.81-0.21,1.17-0.56V284z"/>
				</g>
				<g class="st2">
				</g>
				<g class="st2">
					<path d="M116.61,281.48h0.03c0.51-0.65,1.26-1.02,2.01-1.02c1.27,0,2.29,0.87,2.29,2.71v4.16h-1.33v-4.17
						c0-0.99-0.51-1.63-1.32-1.63c-0.58,0-1.05,0.27-1.68,0.97v4.83h-1.33v-6.73h1.33V281.48z"/>
					<path d="M128.43,286.67c-0.81,0.54-1.54,0.79-2.69,0.79c-2.1,0-3.27-1.72-3.27-3.58c0-2.04,1.29-3.42,3.15-3.42
						c1.79,0,2.93,1.22,2.93,3.71h-4.74c0.21,1.33,0.98,2.03,2.27,2.03c0.81,0,1.57-0.3,2.35-0.81V286.67z M127.23,283.28
						c-0.04-1.02-0.63-1.67-1.57-1.67c-1.02,0-1.63,0.6-1.81,1.67H127.23z"/>
					<path d="M135.36,281.63h-1.38c0.53,0.53,0.71,0.9,0.71,1.47c0,0.55-0.31,1.2-0.63,1.51c-0.9,0.96-2.73,0.48-2.73,1.28
						c0,0.37,0.71,0.6,2.06,0.87c1.44,0.29,1.95,1.02,1.95,1.88c0,1.33-1.19,2.15-3.18,2.15c-1.81,0-3.1-0.86-3.1-2.04
						c0-0.99,0.52-1.58,1.69-1.86c-0.46-0.29-0.67-0.55-0.67-0.85c0-0.44,0.42-0.81,1.06-0.96v-0.03c-0.5-0.21-0.87-0.5-1.13-0.85
						c-0.24-0.35-0.36-0.77-0.36-1.26c0-1.44,1.13-2.32,2.94-2.32h2.77V281.63z M131.83,287.66c-0.9,0-1.53,0.42-1.53,1.02
						c0,0.68,0.66,1.04,1.88,1.04c1.17,0,1.86-0.36,1.86-0.97C134.04,287.88,132.66,287.66,131.83,287.66z M132.18,281.75
						c-0.73,0-1.33,0.56-1.33,1.21c0,0.74,0.54,1.23,1.35,1.23c0.75,0,1.29-0.53,1.29-1.26
						C133.48,282.29,132.88,281.75,132.18,281.75z"/>
					<path d="M141.61,286.94c-0.61,0.4-0.87,0.52-1.29,0.52c-0.58,0-0.9-0.21-1.02-0.69c-0.58,0.46-1.2,0.69-1.81,0.69
						c-0.99,0-1.65-0.78-1.65-1.65c0-1.33,1.21-1.74,2.29-2.13l1.18-0.42v-0.36c0-0.84-0.4-1.18-1.21-1.18
						c-0.73,0-1.48,0.34-2.13,1.11v-1.46c0.53-0.61,1.26-0.92,2.24-0.92c1.37,0,2.44,0.69,2.44,2.22v3.46
						c0,0.25,0.09,0.34,0.26,0.34c0.13,0,0.4-0.13,0.7-0.36V286.94z M139.32,284c-1.14,0.39-2.13,0.78-2.13,1.58
						c0,0.55,0.41,0.95,0.96,0.95c0.42,0,0.81-0.21,1.17-0.56V284z"/>
					<path d="M144.22,280.6v1.54h0.03c0.67-1.19,1.32-1.68,1.95-1.68c0.54,0,1.05,0.26,1.61,0.78l-0.71,1.16
						c-0.41-0.39-0.93-0.66-1.25-0.66c-0.92,0-1.63,0.92-1.63,2.07v3.52h-1.33v-6.73H144.22z"/>
				</g>
				<g class="st2">
				</g>
				<g class="st2">
					<path d="M162.21,283.9c0,2.13-1.49,3.57-3.65,3.57c-2.07,0-3.55-1.5-3.55-3.57c0-1.94,1.54-3.44,3.55-3.44
						C160.68,280.46,162.21,281.9,162.21,283.9z M156.38,283.9c0,1.42,0.88,2.37,2.17,2.37c1.41,0,2.29-0.9,2.29-2.35
						c0-1.3-0.96-2.25-2.29-2.25C157.29,281.66,156.38,282.61,156.38,283.9z"/>
				</g>
				<g class="st2">
				</g>
				<g class="st2">
					<path d="M176.01,286.67c-0.81,0.54-1.54,0.79-2.68,0.79c-2.1,0-3.27-1.72-3.27-3.58c0-2.04,1.29-3.42,3.15-3.42
						c1.79,0,2.92,1.22,2.92,3.71h-4.74c0.21,1.33,0.98,2.03,2.27,2.03c0.81,0,1.57-0.3,2.35-0.81V286.67z M174.81,283.28
						c-0.04-1.02-0.63-1.67-1.57-1.67c-1.02,0-1.63,0.6-1.82,1.67H174.81z"/>
				</g>
				<g class="st2">
					<path d="M181.07,278.41c-0.23-0.09-0.36-0.12-0.6-0.12c-1.08,0-1.42,0.63-1.42,1.67v0.65h1.21v1.2h-1.21v5.54h-1.33v-5.54
						h-0.95v-1.2h0.95v-0.5c0-1.32,0.32-1.95,0.86-2.49c0.57-0.57,1.33-0.84,2.5-0.51V278.41z"/>
				</g>
				<g class="st2">
					<path d="M186.8,286.67c-0.81,0.54-1.54,0.79-2.68,0.79c-2.1,0-3.27-1.72-3.27-3.58c0-2.04,1.29-3.42,3.15-3.42
						c1.79,0,2.93,1.22,2.93,3.71h-4.74c0.21,1.33,0.97,2.03,2.27,2.03c0.81,0,1.57-0.3,2.35-0.81V286.67z M185.6,283.28
						c-0.04-1.02-0.63-1.67-1.57-1.67c-1.02,0-1.63,0.6-1.82,1.67H185.6z"/>
					<path d="M189.06,279.35c-0.43,0-0.79-0.36-0.79-0.79c0-0.44,0.36-0.79,0.79-0.79c0.44,0,0.79,0.36,0.79,0.79
						C189.86,278.99,189.5,279.35,189.06,279.35z M189.72,287.33h-1.33v-6.73h1.33V287.33z"/>
					<path d="M193.21,280.6h2.13v1.2h-2.13v3.45c0,0.79,0.57,1.02,0.96,1.02c0.48,0,0.98-0.16,1.52-0.49v1.24
						c-0.46,0.26-1.19,0.45-1.62,0.45c-1.46,0-2.19-0.9-2.19-2.11v-3.56h-1.17v-0.15l2.51-2.45V280.6z"/>
				</g>
				<g class="st2">
					<path d="M203.44,283.9c0,2.13-1.48,3.57-3.64,3.57c-2.07,0-3.55-1.5-3.55-3.57c0-1.94,1.54-3.44,3.55-3.44
						C201.91,280.46,203.44,281.9,203.44,283.9z M197.6,283.9c0,1.42,0.89,2.37,2.18,2.37c1.41,0,2.29-0.9,2.29-2.35
						c0-1.3-0.96-2.25-2.29-2.25C198.52,281.66,197.6,282.61,197.6,283.9z"/>
				</g>
				<g class="st2">
					<path d="M206.06,286.57c0,0.5-0.4,0.9-0.9,0.9s-0.9-0.4-0.9-0.9s0.41-0.9,0.9-0.9S206.06,286.07,206.06,286.57z"/>
				</g>
				<g class="st2">
				</g>
				<g class="st2">
					<path d="M221.85,279.38c-1.26-0.74-2.34-1.07-3.52-1.07c-2.34,0-4.08,1.67-4.08,3.92c0,2.29,1.68,3.88,4.14,3.88
						c1.16,0,2.42-0.41,3.57-1.16v1.61c-1.01,0.52-2.1,0.9-3.71,0.9c-3.84,0-5.52-2.96-5.52-5.1c0-3.12,2.36-5.4,5.61-5.4
						c1.05,0,2.12,0.25,3.51,0.84V279.38z"/>
					<path d="M228.79,286.94c-0.62,0.4-0.87,0.52-1.29,0.52c-0.58,0-0.9-0.21-1.02-0.69c-0.58,0.46-1.2,0.69-1.82,0.69
						c-0.99,0-1.65-0.78-1.65-1.65c0-1.33,1.21-1.74,2.29-2.13l1.18-0.42v-0.36c0-0.84-0.41-1.18-1.21-1.18
						c-0.74,0-1.49,0.34-2.13,1.11v-1.46c0.52-0.61,1.26-0.92,2.23-0.92c1.37,0,2.45,0.69,2.45,2.22v3.46
						c0,0.25,0.09,0.34,0.25,0.34c0.13,0,0.41-0.13,0.71-0.36V286.94z M226.5,284c-1.14,0.39-2.13,0.78-2.13,1.58
						c0,0.55,0.41,0.95,0.96,0.95c0.42,0,0.81-0.21,1.17-0.56V284z"/>
					<path d="M233.89,282.33c-0.75-0.5-1.46-0.71-1.95-0.71c-0.54,0-0.88,0.26-0.88,0.62c0,0.3,0.45,0.66,1.63,1.35
						c1.11,0.73,1.52,1.2,1.52,1.89c0,1.18-0.95,1.98-2.22,1.98c-0.83,0-1.47-0.17-2.34-0.62v-1.44c0.87,0.6,1.67,0.88,2.21,0.88
						c0.54-0.03,0.99-0.29,0.99-0.76c0-0.93-3.15-1.42-3.15-3.24c0-1.14,0.87-1.83,2.22-1.83c0.63,0,1.27,0.18,1.98,0.56V282.33z"/>
					<path d="M242.55,283.9c0,2.13-1.49,3.57-3.65,3.57c-2.07,0-3.55-1.5-3.55-3.57c0-1.94,1.54-3.44,3.55-3.44
						C241.02,280.46,242.55,281.9,242.55,283.9z M236.71,283.9c0,1.42,0.88,2.37,2.17,2.37c1.41,0,2.29-0.9,2.29-2.35
						c0-1.3-0.96-2.25-2.29-2.25C237.63,281.66,236.71,282.61,236.71,283.9z"/>
				</g>
				<g class="st2">
					<path d="M28.2,302.33c-0.75-0.5-1.46-0.71-1.95-0.71c-0.54,0-0.88,0.26-0.88,0.62c0,0.3,0.45,0.66,1.63,1.35
						c1.11,0.73,1.52,1.2,1.52,1.89c0,1.18-0.94,1.98-2.22,1.98c-0.83,0-1.47-0.17-2.34-0.62v-1.44c0.87,0.6,1.67,0.88,2.21,0.88
						c0.54-0.03,0.99-0.29,0.99-0.76c0-0.93-3.15-1.42-3.15-3.24c0-1.14,0.87-1.83,2.22-1.83c0.63,0,1.27,0.18,1.98,0.56V302.33z"/>
					<path d="M35.68,306.67c-0.81,0.54-1.54,0.79-2.69,0.79c-2.1,0-3.27-1.72-3.27-3.58c0-2.04,1.29-3.42,3.15-3.42
						c1.79,0,2.93,1.22,2.93,3.71h-4.74c0.21,1.33,0.98,2.03,2.27,2.03c0.81,0,1.57-0.3,2.35-0.81V306.67z M34.48,303.28
						c-0.04-1.02-0.63-1.67-1.57-1.67c-1.02,0-1.64,0.6-1.81,1.67H34.48z"/>
					<path d="M38.55,308.21c0,1.44-0.45,2.08-1.33,2.57l-1-0.99c0.58-0.24,1-0.72,1-1.47v-7.72h1.33V308.21z M37.89,299.35
						c-0.44,0-0.79-0.36-0.79-0.79c0-0.44,0.36-0.79,0.79-0.79s0.79,0.36,0.79,0.79C38.68,298.99,38.32,299.35,37.89,299.35z"/>
					<path d="M45.75,306.94c-0.61,0.4-0.87,0.52-1.29,0.52c-0.58,0-0.9-0.21-1.02-0.69c-0.58,0.46-1.2,0.69-1.81,0.69
						c-0.99,0-1.65-0.78-1.65-1.65c0-1.33,1.21-1.74,2.29-2.13l1.18-0.42v-0.36c0-0.84-0.4-1.18-1.21-1.18
						c-0.73,0-1.48,0.34-2.13,1.11v-1.46c0.52-0.61,1.26-0.92,2.23-0.92c1.37,0,2.44,0.69,2.44,2.22v3.46
						c0,0.25,0.09,0.34,0.26,0.34c0.13,0,0.4-0.13,0.7-0.36V306.94z M43.45,304c-1.14,0.39-2.13,0.78-2.13,1.58
						c0,0.55,0.41,0.95,0.96,0.95c0.42,0,0.81-0.21,1.17-0.56V304z"/>
				</g>
				<g class="st2">
				</g>
				<g class="st2">
					<path d="M59.84,302.33c-0.75-0.5-1.46-0.71-1.95-0.71c-0.54,0-0.88,0.26-0.88,0.62c0,0.3,0.45,0.66,1.63,1.35
						c1.11,0.73,1.52,1.2,1.52,1.89c0,1.18-0.94,1.98-2.22,1.98c-0.83,0-1.47-0.17-2.34-0.62v-1.44c0.87,0.6,1.67,0.88,2.21,0.88
						c0.54-0.03,0.99-0.29,0.99-0.76c0-0.93-3.15-1.42-3.15-3.24c0-1.14,0.87-1.83,2.22-1.83c0.63,0,1.27,0.18,1.98,0.56V302.33z"/>
					<path d="M65.97,307.33v-0.85c-0.55,0.6-1.33,0.99-1.99,0.99c-1.37,0-2.33-0.97-2.33-2.68v-4.18h1.33v4.27
						c0,0.95,0.46,1.49,1.38,1.49c0.6,0,1.17-0.33,1.6-0.95v-4.81h1.33v6.73H65.97z"/>
					<path d="M74.42,306.94c-0.61,0.4-0.87,0.52-1.29,0.52c-0.58,0-0.9-0.21-1.02-0.69c-0.58,0.46-1.2,0.69-1.81,0.69
						c-0.99,0-1.65-0.78-1.65-1.65c0-1.33,1.21-1.74,2.29-2.13l1.18-0.42v-0.36c0-0.84-0.4-1.18-1.21-1.18
						c-0.73,0-1.48,0.34-2.13,1.11v-1.46c0.52-0.61,1.26-0.92,2.23-0.92c1.37,0,2.44,0.69,2.44,2.22v3.46
						c0,0.25,0.09,0.34,0.26,0.34c0.13,0,0.4-0.13,0.7-0.36V306.94z M72.12,304c-1.14,0.39-2.13,0.78-2.13,1.58
						c0,0.55,0.41,0.95,0.96,0.95c0.42,0,0.81-0.21,1.17-0.56V304z"/>
				</g>
				<g class="st2">
				</g>
				<g class="st2">
					<path d="M88.87,307.33v-0.85c-0.55,0.6-1.33,0.99-1.99,0.99c-1.37,0-2.33-0.97-2.33-2.68v-4.18h1.33v4.27
						c0,0.95,0.46,1.49,1.38,1.49c0.6,0,1.17-0.33,1.6-0.95v-4.81h1.33v6.73H88.87z M89.08,297.52l-1.68,2.21h-0.83l1-2.21H89.08z"
						/>
					<path d="M93.46,307.33h-1.33V297.1h1.33V307.33z"/>
					<path d="M96.94,300.6h2.13v1.2h-2.13v3.45c0,0.79,0.57,1.02,0.96,1.02c0.48,0,0.98-0.16,1.52-0.49v1.24
						c-0.47,0.26-1.19,0.45-1.62,0.45c-1.46,0-2.19-0.9-2.19-2.11v-3.56h-1.17v-0.15l2.5-2.45V300.6z"/>
					<path d="M101.08,299.35c-0.44,0-0.79-0.36-0.79-0.79c0-0.44,0.36-0.79,0.79-0.79s0.79,0.36,0.79,0.79
						C101.87,298.99,101.51,299.35,101.08,299.35z M101.74,307.33h-1.33v-6.73h1.33V307.33z"/>
					<path d="M104.93,300.6v0.88c0.69-0.69,1.33-1.02,1.97-1.02c0.85,0,1.56,0.42,2.01,1.22c0.58-0.66,1.29-1.22,2.25-1.22
						c1.36,0,2.23,1.05,2.23,2.64v4.23h-1.33v-4.17c0-1.02-0.63-1.58-1.4-1.58c-0.44-0.01-1.02,0.36-1.5,0.86v4.89h-1.33v-4.18
						c0-1.09-0.55-1.56-1.21-1.56c-0.67,0-1.13,0.21-1.68,0.86v4.89h-1.33v-6.73H104.93z"/>
					<path d="M120.44,306.94c-0.61,0.4-0.87,0.52-1.29,0.52c-0.58,0-0.9-0.21-1.02-0.69c-0.58,0.46-1.2,0.69-1.81,0.69
						c-0.99,0-1.65-0.78-1.65-1.65c0-1.33,1.21-1.74,2.29-2.13l1.18-0.42v-0.36c0-0.84-0.4-1.18-1.21-1.18
						c-0.73,0-1.48,0.34-2.13,1.11v-1.46c0.52-0.61,1.26-0.92,2.23-0.92c1.37,0,2.44,0.69,2.44,2.22v3.46
						c0,0.25,0.09,0.34,0.26,0.34c0.13,0,0.4-0.13,0.7-0.36V306.94z M118.15,304c-1.14,0.39-2.13,0.78-2.13,1.58
						c0,0.55,0.41,0.95,0.96,0.95c0.42,0,0.81-0.21,1.17-0.56V304z"/>
				</g>
				<g class="st2">
				</g>
				<g class="st2">
					<path d="M135.58,302.35c-0.76-0.51-1.27-0.66-1.86-0.66c-1.21,0-2.05,0.92-2.05,2.28c0,1.39,0.9,2.23,2.28,2.23
						c0.57,0,1.11-0.15,1.79-0.45v1.32c-0.45,0.21-1.31,0.39-2.01,0.39c-2.01,0-3.42-1.39-3.42-3.38c0-2.22,1.29-3.63,3.33-3.63
						c0.78,0,1.31,0.18,1.95,0.47V302.35z"/>
					<path d="M142.42,306.94c-0.62,0.4-0.87,0.52-1.29,0.52c-0.58,0-0.9-0.21-1.02-0.69c-0.58,0.46-1.2,0.69-1.82,0.69
						c-0.99,0-1.65-0.78-1.65-1.65c0-1.33,1.21-1.74,2.29-2.13l1.18-0.42v-0.36c0-0.84-0.41-1.18-1.21-1.18
						c-0.74,0-1.49,0.34-2.13,1.11v-1.46c0.52-0.61,1.26-0.92,2.23-0.92c1.37,0,2.45,0.69,2.45,2.22v3.46
						c0,0.25,0.09,0.34,0.25,0.34c0.13,0,0.41-0.13,0.71-0.36V306.94z M140.13,304c-1.14,0.39-2.13,0.78-2.13,1.58
						c0,0.55,0.41,0.95,0.96,0.95c0.42,0,0.81-0.21,1.17-0.56V304z"/>
				</g>
				<g class="st2">
					<path d="M145.03,300.6v1.54h0.03c0.67-1.19,1.32-1.68,1.95-1.68c0.54,0,1.05,0.26,1.6,0.78l-0.7,1.16
						c-0.41-0.39-0.93-0.66-1.25-0.66c-0.92,0-1.63,0.92-1.63,2.07v3.52h-1.33v-6.73H145.03z"/>
				</g>
				<g class="st2">
					<path d="M151.41,300.6h2.13v1.2h-2.13v3.45c0,0.79,0.57,1.02,0.96,1.02c0.48,0,0.97-0.16,1.51-0.49v1.24
						c-0.46,0.26-1.18,0.45-1.62,0.45c-1.46,0-2.19-0.9-2.19-2.11v-3.56h-1.17v-0.15l2.5-2.45V300.6z"/>
					<path d="M160.06,306.94c-0.61,0.4-0.87,0.52-1.29,0.52c-0.58,0-0.9-0.21-1.02-0.69c-0.58,0.46-1.2,0.69-1.81,0.69
						c-0.99,0-1.65-0.78-1.65-1.65c0-1.33,1.21-1.74,2.29-2.13l1.18-0.42v-0.36c0-0.84-0.4-1.18-1.21-1.18
						c-0.73,0-1.48,0.34-2.13,1.11v-1.46c0.53-0.61,1.26-0.92,2.24-0.92c1.37,0,2.44,0.69,2.44,2.22v3.46
						c0,0.25,0.09,0.34,0.26,0.34c0.13,0,0.4-0.13,0.7-0.36V306.94z M157.76,304c-1.14,0.39-2.13,0.78-2.13,1.58
						c0,0.55,0.41,0.95,0.96,0.95c0.42,0,0.81-0.21,1.17-0.56V304z"/>
				</g>
				<g class="st2">
					<path d="M161.18,308.82c0.5-0.33,0.68-1.1,0.54-1.64c-0.43-0.01-0.73-0.34-0.73-0.84s0.38-0.85,0.88-0.85
						c0.64,0,1.06,0.57,1.06,1.46c0,0.85-0.57,1.83-1.75,2.16V308.82z"/>
				</g>
				<g class="st2">
				</g>
				<g class="st2">
					<path d="M176.97,302.35c-0.76-0.51-1.28-0.66-1.86-0.66c-1.21,0-2.05,0.92-2.05,2.28c0,1.39,0.9,2.23,2.28,2.23
						c0.57,0,1.11-0.15,1.79-0.45v1.32c-0.45,0.21-1.31,0.39-2.01,0.39c-2.01,0-3.42-1.39-3.42-3.38c0-2.22,1.29-3.63,3.33-3.63
						c0.78,0,1.31,0.18,1.95,0.47V302.35z"/>
					<path d="M185.39,303.9c0,2.13-1.49,3.57-3.65,3.57c-2.07,0-3.55-1.5-3.55-3.57c0-1.94,1.54-3.44,3.55-3.44
						C183.86,300.46,185.39,301.9,185.39,303.9z M179.55,303.9c0,1.42,0.88,2.37,2.17,2.37c1.41,0,2.29-0.9,2.29-2.35
						c0-1.3-0.96-2.25-2.29-2.25C180.47,301.66,179.55,302.61,179.55,303.9z"/>
					<path d="M188.15,300.6v0.88c0.69-0.69,1.33-1.02,1.96-1.02c0.86,0,1.56,0.42,2.01,1.22c0.58-0.66,1.29-1.22,2.25-1.22
						c1.37,0,2.24,1.05,2.24,2.64v4.23h-1.33v-4.17c0-1.02-0.63-1.58-1.4-1.58c-0.43-0.01-1.02,0.36-1.5,0.86v4.89h-1.33v-4.18
						c0-1.09-0.55-1.56-1.21-1.56c-0.67,0-1.13,0.21-1.68,0.86v4.89h-1.33v-6.73H188.15z"/>
					<path d="M199.68,310.78h-1.33V300.6h2.31c2.46,0,3.79,1.2,3.79,3.42c0,2.02-1.42,3.45-3.42,3.45c-0.43,0-0.84-0.09-1.35-0.3
						V310.78z M199.68,305.96c0.4,0.2,0.84,0.3,1.26,0.3c1.25,0,2.14-0.96,2.14-2.26c0-1.39-0.73-2.21-2.19-2.21h-1.21V305.96z"/>
				</g>
				<g class="st2">
					<path d="M207.36,300.6v1.54h0.03c0.67-1.19,1.32-1.68,1.95-1.68c0.54,0,1.05,0.26,1.6,0.78l-0.7,1.16
						c-0.41-0.39-0.93-0.66-1.25-0.66c-0.92,0-1.63,0.92-1.63,2.07v3.52h-1.33v-6.73H207.36z"/>
				</g>
				<g class="st2">
					<path d="M217.2,306.67c-0.81,0.54-1.54,0.79-2.69,0.79c-2.1,0-3.27-1.72-3.27-3.58c0-2.04,1.29-3.42,3.15-3.42
						c1.79,0,2.93,1.22,2.93,3.71h-4.74c0.21,1.33,0.97,2.03,2.26,2.03c0.81,0,1.58-0.3,2.36-0.81V306.67z M216,303.28
						c-0.04-1.02-0.63-1.67-1.58-1.67c-1.02,0-1.63,0.6-1.81,1.67H216z"/>
				</g>
				<g class="st2">
				</g>
				<g class="st2">
					<path d="M231.81,298.5v2.92h2.93v1.23h-2.93v2.92h-1.23v-2.92h-2.92v-1.23h2.92v-2.92H231.81z"/>
					<path d="M240.08,307.33h-1.47V297.1h1.47V307.33z"/>
				</g>
				<g class="st2">
					<path d="M83.14,326.94c-0.61,0.4-0.87,0.52-1.29,0.52c-0.58,0-0.9-0.21-1.02-0.69c-0.58,0.46-1.2,0.69-1.81,0.69
						c-0.99,0-1.65-0.78-1.65-1.65c0-1.33,1.21-1.74,2.29-2.13l1.18-0.42v-0.36c0-0.84-0.4-1.18-1.21-1.18
						c-0.73,0-1.48,0.34-2.13,1.11v-1.46c0.52-0.61,1.26-0.92,2.23-0.92c1.37,0,2.44,0.69,2.44,2.22v3.46
						c0,0.25,0.09,0.34,0.26,0.34c0.13,0,0.4-0.13,0.7-0.36V326.94z M80.85,324c-1.14,0.39-2.13,0.78-2.13,1.58
						c0,0.55,0.41,0.95,0.96,0.95c0.42,0,0.81-0.21,1.17-0.56V324z"/>
					<path d="M85.63,321.48h0.03c0.51-0.65,1.26-1.02,2.01-1.02c1.27,0,2.29,0.87,2.29,2.71v4.16h-1.33v-4.17
						c0-0.99-0.51-1.63-1.32-1.63c-0.58,0-1.05,0.27-1.68,0.97v4.83H84.3v-6.73h1.33V321.48z"/>
					<path d="M93.39,320.6h2.13v1.2h-2.13v3.45c0,0.79,0.57,1.02,0.96,1.02c0.48,0,0.98-0.16,1.52-0.49v1.24
						c-0.47,0.26-1.19,0.45-1.62,0.45c-1.46,0-2.19-0.9-2.19-2.11v-3.56h-1.17v-0.15l2.5-2.45V320.6z"/>
					<path d="M102.45,326.67c-0.81,0.54-1.54,0.79-2.69,0.79c-2.1,0-3.27-1.72-3.27-3.58c0-2.04,1.29-3.42,3.15-3.42
						c1.79,0,2.93,1.22,2.93,3.71h-4.74c0.21,1.33,0.98,2.03,2.27,2.03c0.81,0,1.57-0.3,2.35-0.81V326.67z M101.25,323.28
						c-0.04-1.02-0.63-1.67-1.57-1.67c-1.02,0-1.64,0.6-1.81,1.67H101.25z"/>
					<path d="M107.92,322.33c-0.75-0.5-1.46-0.71-1.95-0.71c-0.54,0-0.88,0.26-0.88,0.62c0,0.3,0.45,0.66,1.63,1.35
						c1.11,0.73,1.52,1.2,1.52,1.89c0,1.18-0.94,1.98-2.22,1.98c-0.83,0-1.47-0.17-2.34-0.62v-1.44c0.87,0.6,1.67,0.88,2.21,0.88
						c0.54-0.03,0.99-0.29,0.99-0.76c0-0.93-3.15-1.42-3.15-3.24c0-1.14,0.87-1.83,2.22-1.83c0.63,0,1.27,0.18,1.98,0.56V322.33z"/>
					<path d="M119.77,327.33h-2.83c-2.01,0-3.27-1.37-3.27-3.52c0-1.95,1.39-3.35,3.36-3.35c0.45,0,0.87,0.08,1.41,0.27v-3.63h1.33
						V327.33z M118.44,321.92c-0.45-0.18-0.79-0.25-1.24-0.25c-1.29,0-2.16,0.93-2.16,2.34c0,1.26,0.51,2.21,2.06,2.21h1.35V321.92z
						"/>
					<path d="M127.23,326.67c-0.81,0.54-1.54,0.79-2.69,0.79c-2.1,0-3.27-1.72-3.27-3.58c0-2.04,1.29-3.42,3.15-3.42
						c1.79,0,2.93,1.22,2.93,3.71h-4.74c0.21,1.33,0.98,2.03,2.27,2.03c0.81,0,1.57-0.3,2.35-0.81V326.67z M126.03,323.28
						c-0.04-1.02-0.63-1.67-1.57-1.67c-1.02,0-1.64,0.6-1.81,1.67H126.03z"/>
					<path d="M138.78,327.33h-2.84c-2.01,0-3.27-1.37-3.27-3.52c0-1.95,1.39-3.35,3.36-3.35c0.45,0,0.87,0.08,1.41,0.27v-3.63h1.34
						V327.33z M137.44,321.92c-0.45-0.18-0.79-0.25-1.24-0.25c-1.29,0-2.16,0.93-2.16,2.34c0,1.26,0.51,2.21,2.05,2.21h1.35V321.92z
						"/>
					<path d="M146.23,326.67c-0.81,0.54-1.54,0.79-2.69,0.79c-2.1,0-3.27-1.72-3.27-3.58c0-2.04,1.29-3.42,3.15-3.42
						c1.79,0,2.92,1.22,2.92,3.71h-4.74c0.21,1.33,0.98,2.03,2.27,2.03c0.81,0,1.57-0.3,2.36-0.81V326.67z M145.03,323.28
						c-0.04-1.02-0.63-1.67-1.57-1.67c-1.02,0-1.63,0.6-1.81,1.67H145.03z"/>
					<path d="M151.71,322.33c-0.75-0.5-1.46-0.71-1.95-0.71c-0.54,0-0.88,0.26-0.88,0.62c0,0.3,0.45,0.66,1.63,1.35
						c1.11,0.73,1.51,1.2,1.51,1.89c0,1.18-0.94,1.98-2.22,1.98c-0.83,0-1.47-0.17-2.34-0.62v-1.44c0.87,0.6,1.67,0.88,2.21,0.88
						c0.54-0.03,0.99-0.29,0.99-0.76c0-0.93-3.15-1.42-3.15-3.24c0-1.14,0.87-1.83,2.22-1.83c0.63,0,1.28,0.18,1.98,0.56V322.33z"/>
					<path d="M158.52,322.35c-0.76-0.51-1.27-0.66-1.86-0.66c-1.21,0-2.05,0.92-2.05,2.28c0,1.39,0.9,2.23,2.28,2.23
						c0.57,0,1.11-0.15,1.79-0.45v1.32c-0.45,0.21-1.31,0.39-2.01,0.39c-2.01,0-3.42-1.39-3.42-3.38c0-2.22,1.29-3.63,3.33-3.63
						c0.78,0,1.31,0.18,1.95,0.47V322.35z"/>
					<path d="M165.36,326.94c-0.61,0.4-0.87,0.52-1.29,0.52c-0.58,0-0.9-0.21-1.02-0.69c-0.58,0.46-1.2,0.69-1.81,0.69
						c-0.99,0-1.65-0.78-1.65-1.65c0-1.33,1.21-1.74,2.29-2.13l1.18-0.42v-0.36c0-0.84-0.41-1.18-1.21-1.18
						c-0.74,0-1.49,0.34-2.13,1.11v-1.46c0.53-0.61,1.26-0.92,2.23-0.92c1.37,0,2.45,0.69,2.45,2.22v3.46
						c0,0.25,0.09,0.34,0.26,0.34c0.13,0,0.4-0.13,0.7-0.36V326.94z M163.06,324c-1.14,0.39-2.13,0.78-2.13,1.58
						c0,0.55,0.41,0.95,0.96,0.95c0.42,0,0.81-0.21,1.17-0.56V324z"/>
				</g>
				<g class="st2">
					<path d="M167.94,320.6v1.54h0.03c0.67-1.19,1.32-1.68,1.95-1.68c0.54,0,1.05,0.26,1.6,0.78l-0.7,1.16
						c-0.41-0.39-0.93-0.66-1.25-0.66c-0.92,0-1.63,0.92-1.63,2.07v3.52h-1.33v-6.73H167.94z"/>
				</g>
				<g class="st2">
					<path d="M174.31,320.6h2.13v1.2h-2.13v3.45c0,0.79,0.57,1.02,0.96,1.02c0.48,0,0.98-0.16,1.52-0.49v1.24
						c-0.47,0.26-1.19,0.45-1.62,0.45c-1.46,0-2.19-0.9-2.19-2.11v-3.56h-1.17v-0.15l2.5-2.45V320.6z"/>
					<path d="M182.97,326.94c-0.62,0.4-0.87,0.52-1.29,0.52c-0.58,0-0.9-0.21-1.02-0.69c-0.58,0.46-1.2,0.69-1.82,0.69
						c-0.99,0-1.65-0.78-1.65-1.65c0-1.33,1.21-1.74,2.29-2.13l1.18-0.42v-0.36c0-0.84-0.41-1.18-1.21-1.18
						c-0.74,0-1.49,0.34-2.13,1.11v-1.46c0.52-0.61,1.26-0.92,2.23-0.92c1.37,0,2.45,0.69,2.45,2.22v3.46
						c0,0.25,0.09,0.34,0.25,0.34c0.13,0,0.41-0.13,0.71-0.36V326.94z M180.67,324c-1.14,0.39-2.13,0.78-2.13,1.58
						c0,0.55,0.41,0.95,0.96,0.95c0.42,0,0.81-0.21,1.17-0.56V324z"/>
				</g>
				<g class="st2">
					<path d="M185.58,320.6v1.54h0.03c0.68-1.19,1.32-1.68,1.95-1.68c0.54,0,1.05,0.26,1.6,0.78l-0.7,1.16
						c-0.41-0.39-0.93-0.66-1.25-0.66c-0.92,0-1.63,0.92-1.63,2.07v3.52h-1.33v-6.73H185.58z"/>
					<path d="M188.68,326.57c0,0.5-0.41,0.9-0.9,0.9c-0.5,0-0.9-0.4-0.9-0.9s0.41-0.9,0.9-0.9
						C188.28,325.67,188.68,326.07,188.68,326.57z"/>
				</g>
				<g id="Border">
					<g id="Outer_Line">
						<path d="M269.19,1.39v379.89H1.39V1.39H269.19 M270.58,0H0v382.68h270.58V0z"/>
					</g>
					<path d="M266.68,4.47V378.2H3.9V4.47H266.68 M267.81,3.35H2.77v376h265v-376H267.81z"/>
					<path d="M264.18,7.55v367.57H6.4V7.55H264.18 M265.04,6.69H5.54V376H265V6.69H265.04z"/>
					<path d="M261.68,10.63V372H8.9V10.63H261.68 M262.27,10.04H8.31v362.6h254V10L262.27,10.04z"/>
					<path d="M259.17,13.71V369H11.41V13.71H259.17 M259.5,13.39H11.08v355.9H259.5V13.39z"/>
					<g id="Inner_Line">
						<path d="M256.67,16.79v349.09H13.91V16.79H256.67 M256.73,16.73H13.85V366h242.88C256.73,366,256.73,16.73,256.73,16.73z"/>
					</g>
				</g>
				<g class="st2">
					<path d="M28.21,31.19c-1.78-0.79-2.84-1.1-3.89-1.1c-1.1,0-1.8,0.4-1.8,1.01c0,1.85,6.25,1.33,6.25,5.62
						c0,2.36-1.98,3.73-4.72,3.73c-2.14,0-3.21-0.56-4.43-1.19v-2.65c1.76,1.17,2.84,1.58,4.2,1.58c1.17,0,1.8-0.41,1.8-1.13
						c0-2.02-6.25-1.28-6.25-5.69c0-2.12,1.84-3.53,4.68-3.53c1.37,0,2.61,0.29,4.16,0.95V31.19z"/>
					<path d="M38.65,39.34c-1.49,1.1-3.06,1.1-3.71,1.1c-2.92,0-4.81-1.69-4.81-4.29c0-2.54,1.82-4.34,4.38-4.34
						c2.41,0,4.41,1.71,4.29,4.74h-5.96c0.09,1.48,1.1,2.34,2.74,2.34c1.04,0,1.85-0.31,3.08-1.19V39.34z M36.49,35.18
						c-0.11-1.13-0.79-1.82-1.8-1.82c-1.03,0-1.69,0.67-1.8,1.82H36.49z"/>
					<path d="M43.1,33.17c0.83-0.95,1.64-1.35,2.7-1.35c1.3,0,3.02,0.74,3.02,3.19v5.28h-2.61v-5.06c0-1.17-0.56-1.66-1.3-1.66
						c-0.65,0-1.13,0.34-1.82,1.37v5.35h-2.61v-8.3h2.61V33.17z"/>
					<path d="M59.08,39.34c-1.49,1.1-3.06,1.1-3.71,1.1c-2.92,0-4.81-1.69-4.81-4.29c0-2.54,1.82-4.34,4.38-4.34
						c2.41,0,4.41,1.71,4.29,4.74h-5.96c0.09,1.48,1.1,2.34,2.74,2.34c1.04,0,1.85-0.31,3.08-1.19V39.34z M56.92,35.18
						c-0.11-1.13-0.79-1.82-1.8-1.82c-1.03,0-1.69,0.67-1.8,1.82H56.92z"/>
					<path d="M66.63,34.28c-1.13-0.7-2.25-0.92-2.77-0.92c-0.34,0-0.94,0.07-0.94,0.65c0,0.92,4.12,0.95,4.12,3.73
						c0,1.73-1.22,2.7-3.38,2.7c-1.33,0-2.61-0.41-2.97-0.61v-1.84c0.85,0.36,1.69,0.7,2.68,0.7c0.77,0,1.26-0.23,1.26-0.61
						c0-1.21-4.12-0.99-4.12-3.71c0-1.53,1.39-2.56,3.44-2.56c1.04,0,1.82,0.18,2.68,0.61V34.28z"/>
					<path d="M75.86,39.88c-1.04,0.38-1.93,0.56-2.81,0.56c-2.92,0-4.81-1.69-4.81-4.29c0-2.54,1.96-4.34,4.7-4.34
						c0.85,0,1.93,0.22,2.79,0.54v1.94c-0.68-0.36-1.48-0.56-2.12-0.56c-1.57,0-2.57,0.94-2.57,2.39c0,1.48,0.99,2.45,2.48,2.45
						c0.63,0,1.19-0.14,2.34-0.58V39.88z"/>
					<path d="M85.71,39.34c-1.49,1.1-3.06,1.1-3.71,1.1c-2.92,0-4.81-1.69-4.81-4.29c0-2.54,1.82-4.34,4.38-4.34
						c2.41,0,4.41,1.71,4.29,4.74h-5.96c0.09,1.48,1.1,2.34,2.74,2.34c1.04,0,1.85-0.31,3.08-1.19V39.34z M84.52,31.15h-1.6
						l-1.4-1.57l-1.44,1.57h-1.58L80.27,28h2.47L84.52,31.15z M83.54,35.18c-0.11-1.13-0.79-1.82-1.8-1.82
						c-1.03,0-1.69,0.67-1.8,1.82H83.54z"/>
					<path d="M90.15,33.17c0.83-0.95,1.64-1.35,2.7-1.35c1.3,0,3.02,0.74,3.02,3.19v5.28h-2.61v-5.06c0-1.17-0.56-1.66-1.3-1.66
						c-0.65,0-1.13,0.34-1.82,1.37v5.35h-2.61v-8.3h2.61V33.17z"/>
					<path d="M105.29,39.88c-1.04,0.38-1.93,0.56-2.81,0.56c-2.92,0-4.81-1.69-4.81-4.29c0-2.54,1.96-4.34,4.7-4.34
						c0.85,0,1.93,0.22,2.79,0.54v1.94c-0.68-0.36-1.48-0.56-2.12-0.56c-1.57,0-2.57,0.94-2.57,2.39c0,1.48,0.99,2.45,2.48,2.45
						c0.63,0,1.19-0.14,2.34-0.58V39.88z"/>
					<path d="M109.82,29.28c0,0.79-0.65,1.44-1.44,1.44c-0.79,0-1.44-0.65-1.44-1.44c0-0.79,0.65-1.44,1.44-1.44
						C109.18,27.84,109.82,28.49,109.82,29.28z M109.7,40.28h-2.61v-8.3h2.61V40.28z"/>
					<path d="M120.39,39.69c-0.72,0.43-1.75,0.76-2.45,0.76c-0.86,0-1.28-0.27-1.46-0.94c-1.01,0.68-1.84,0.94-2.74,0.94
						c-1.33,0-2.32-0.99-2.32-2.04c0-1.98,1.46-2.38,4.93-3.46c0.05-0.77-0.31-1.39-1.44-1.39c-1.04,0-2.23,0.54-3.06,1.39v-2.12
						c1.08-0.67,2.29-1.01,3.6-1.01c2.09,0,3.51,0.7,3.51,2.52v3.78c0,0.41,0.16,0.58,0.43,0.58c0.18,0,0.38-0.04,0.99-0.47V39.69z
						 M116.36,36.26c-1.55,0.56-2.29,0.92-2.29,1.75c0,0.49,0.38,0.88,0.85,0.88c0.49,0,1.01-0.23,1.44-0.63V36.26z"/>
					<path d="M139.2,40.28h-2.57l-6.79-7.87v7.87h-3.06V28h2.81l6.55,7.51V28h3.06V40.28z"/>
					<path d="M149.77,39.34c-1.49,1.1-3.06,1.1-3.71,1.1c-2.92,0-4.81-1.69-4.81-4.29c0-2.54,1.82-4.34,4.38-4.34
						c2.41,0,4.41,1.71,4.29,4.74h-5.96c0.09,1.48,1.1,2.34,2.74,2.34c1.04,0,1.85-0.31,3.08-1.19V39.34z M147.61,35.18
						c-0.11-1.13-0.79-1.82-1.8-1.82c-1.03,0-1.69,0.67-1.8,1.82H147.61z"/>
					<path d="M160.06,33.73h-1.19c0.29,0.5,0.41,0.9,0.41,1.39c0,0.74-0.31,1.37-0.76,1.82c-1.48,1.48-3.89,0.61-3.89,1.58
						c0,0.95,3.17,0.13,4.54,1.51c0.54,0.54,0.67,1.19,0.67,1.6c0,1.93-1.71,2.79-4.39,2.79c-3.49,0-4.43-1.31-4.43-2.41
						c0-0.7,0.38-1.6,2.21-2.07V39.9c-0.56-0.16-1.01-0.49-1.01-1.08c0-0.88,1.03-1.12,1.51-1.22v-0.04
						c-1.06-0.16-2.32-1.03-2.32-2.56c0-1.03,0.72-3.03,3.71-3.03h4.93V33.73z M155.42,40.91c-1.22,0-1.98,0.38-1.98,0.99
						c0,0.63,0.76,0.97,2.14,0.97c1.15,0,1.87-0.49,1.87-1.04C157.45,41.23,156.71,40.91,155.42,40.91z M155.36,36.54
						c0.83,0,1.49-0.72,1.49-1.58c0-0.76-0.59-1.42-1.49-1.42c-0.86,0-1.51,0.67-1.51,1.51C153.85,35.85,154.54,36.54,155.36,36.54z
						"/>
					<path d="M164.02,40.28h-2.61V28h2.61V40.28z"/>
					<path d="M169.02,29.28c0,0.79-0.65,1.44-1.44,1.44c-0.79,0-1.44-0.65-1.44-1.44c0-0.79,0.65-1.44,1.44-1.44
						C168.38,27.84,169.02,28.49,169.02,29.28z M168.9,40.28h-2.61v-8.3h2.61V40.28z"/>
				</g>
				<g class="st2">
					<path d="M179.55,33.73h-1.19c0.29,0.5,0.41,0.9,0.41,1.39c0,0.74-0.31,1.37-0.76,1.82c-1.48,1.48-3.89,0.61-3.89,1.58
						c0,0.95,3.17,0.13,4.54,1.51c0.54,0.54,0.67,1.19,0.67,1.6c0,1.93-1.71,2.79-4.39,2.79c-3.49,0-4.43-1.31-4.43-2.41
						c0-0.7,0.38-1.6,2.21-2.07V39.9c-0.56-0.16-1.01-0.49-1.01-1.08c0-0.88,1.03-1.12,1.51-1.22v-0.04
						c-1.06-0.16-2.32-1.03-2.32-2.56c0-1.03,0.72-3.03,3.71-3.03h4.93V33.73z M174.91,40.91c-1.22,0-1.98,0.38-1.98,0.99
						c0,0.63,0.76,0.97,2.14,0.97c1.15,0,1.87-0.49,1.87-1.04C176.94,41.23,176.2,40.91,174.91,40.91z M174.85,36.54
						c0.83,0,1.49-0.72,1.49-1.58c0-0.76-0.59-1.42-1.49-1.42c-0.86,0-1.51,0.67-1.51,1.51C173.34,35.85,174.03,36.54,174.85,36.54z
						"/>
				</g>
				<g class="st2">
					<path d="M188.67,39.34c-1.49,1.1-3.06,1.1-3.71,1.1c-2.92,0-4.81-1.69-4.81-4.29c0-2.54,1.82-4.34,4.38-4.34
						c2.41,0,4.41,1.71,4.29,4.74h-5.96c0.09,1.48,1.1,2.34,2.74,2.34c1.04,0,1.85-0.31,3.08-1.19V39.34z M186.51,35.18
						c-0.11-1.13-0.79-1.82-1.8-1.82c-1.03,0-1.69,0.67-1.8,1.82H186.51z"/>
					<path d="M193.12,33.17c0.83-0.95,1.64-1.35,2.7-1.35c1.3,0,3.03,0.74,3.03,3.19v5.28h-2.61v-5.06c0-1.17-0.56-1.66-1.3-1.66
						c-0.65,0-1.13,0.34-1.82,1.37v5.35h-2.61v-8.3h2.61V33.17z"/>
					<path d="M208.26,39.88c-1.04,0.38-1.93,0.56-2.81,0.56c-2.92,0-4.81-1.69-4.81-4.29c0-2.54,1.96-4.34,4.7-4.34
						c0.85,0,1.93,0.22,2.79,0.54v1.94c-0.68-0.36-1.48-0.56-2.12-0.56c-1.57,0-2.58,0.94-2.58,2.39c0,1.48,0.99,2.45,2.48,2.45
						c0.63,0,1.19-0.14,2.34-0.58V39.88z"/>
					<path d="M212.79,29.28c0,0.79-0.65,1.44-1.44,1.44s-1.44-0.65-1.44-1.44c0-0.79,0.65-1.44,1.44-1.44S212.79,28.49,212.79,29.28
						z M212.67,40.28h-2.61v-8.3h2.61V40.28z"/>
					<path d="M223.36,39.69c-0.72,0.43-1.75,0.76-2.45,0.76c-0.86,0-1.28-0.27-1.46-0.94c-1.01,0.68-1.84,0.94-2.74,0.94
						c-1.33,0-2.32-0.99-2.32-2.04c0-1.98,1.46-2.38,4.93-3.46c0.05-0.77-0.31-1.39-1.44-1.39c-1.04,0-2.23,0.54-3.06,1.39v-2.12
						c1.08-0.67,2.29-1.01,3.6-1.01c2.09,0,3.51,0.7,3.51,2.52v3.78c0,0.41,0.16,0.58,0.43,0.58c0.18,0,0.38-0.04,0.99-0.47V39.69z
						 M219.33,36.26c-1.55,0.56-2.29,0.92-2.29,1.75c0,0.49,0.38,0.88,0.85,0.88c0.49,0,1.01-0.23,1.44-0.63V36.26z M218.48,30.74
						h-1.33l1.33-2.63h2.97L218.48,30.74z"/>
				</g>
				<g class="st2">
					<path d="M223.39,31.98h2.79l1.76,4.57l1.78-4.57h2.77l-3.82,8.46h-1.46L223.39,31.98z"/>
				</g>
				<g class="st2">
					<path d="M241.35,39.34c-1.49,1.1-3.06,1.1-3.71,1.1c-2.92,0-4.81-1.69-4.81-4.29c0-2.54,1.82-4.34,4.38-4.34
						c2.41,0,4.41,1.71,4.29,4.74h-5.96c0.09,1.48,1.1,2.34,2.74,2.34c1.04,0,1.85-0.31,3.08-1.19V39.34z M239.19,35.18
						c-0.11-1.13-0.79-1.82-1.8-1.82c-1.03,0-1.69,0.67-1.8,1.82H239.19z"/>
					<path d="M245.85,40.28h-2.61V28h2.61V40.28z"/>
				</g>
				<g id="Sen_Neg">
					<path d="M135.29,98.84c22.64,0,41,18.36,41,41s-18.36,41-41,41s-41-18.36-41-41l0,0C94.32,117.21,112.66,98.87,135.29,98.84
						 M135.29,97.94c-23.15,0-41.91,18.76-41.91,41.91s18.76,41.91,41.91,41.91S177.2,163,177.2,139.85l0,0
						C177.2,116.7,158.44,97.94,135.29,97.94C135.29,97.94,135.29,97.94,135.29,97.94z"/>
					<line class="st3" x1="135.29" y1="180.41" x2="135.29" y2="176.07"/>
					<line class="st3" x1="135.29" y1="103.63" x2="135.29" y2="99.29"/>
					<line class="st3" x1="175.85" y1="139.85" x2="171.51" y2="139.85"/>
					<line class="st3" x1="99.06" y1="139.85" x2="94.73" y2="139.85"/>
					<line class="st4" x1="106.61" y1="168.53" x2="109.68" y2="165.46"/>
					<line class="st4" x1="160.9" y1="114.24" x2="163.97" y2="111.17"/>
					<line class="st4" x1="163.97" y1="168.53" x2="160.9" y2="165.46"/>
					<line class="st4" x1="109.67" y1="114.23" x2="106.61" y2="111.17"/>
					<path d="M135.41,139.4l32.07,0.58l-32.07,0.57c-0.32-0.04-0.54-0.33-0.5-0.65C134.95,139.64,135.15,139.43,135.41,139.4
						L135.41,139.4z"/>
					<path d="M135.82,139.57l13,13.82l-13.82-13c-0.22-0.22-0.23-0.58,0-0.81c0,0,0,0,0,0c0.22-0.22,0.57-0.22,0.79-0.01
						c0,0,0.01,0.01,0.01,0.01L135.82,139.57z"/>
					<path d="M135.29,88.52c28.35-0.02,51.35,22.94,51.37,51.29s-22.94,51.35-51.29,51.37c-28.35,0.02-51.35-22.94-51.37-51.29
						c0-0.01,0-0.03,0-0.04c0.03-28.34,22.99-51.3,51.33-51.33 M135.33,86.07c-29.7,0-53.78,24.08-53.78,53.78
						s24.08,53.78,53.78,53.78s53.78-24.08,53.78-53.78l0,0C189.11,110.15,165.03,86.07,135.33,86.07z"/>
					<line class="st5" x1="97.26" y1="177.88" x2="173.32" y2="101.82"/>
				</g>
			</g>
		</g>
	</g>
</g>
</svg>
