<?xml version="1.0" encoding="utf-8"?>
<!-- Generator: Adobe Illustrator 21.1.0, SVG Export Plug-In . SVG Version: 6.00 Build 0)  -->
<svg version="1.1" id="ZooUno" xmlns="http://www.w3.org/2000/svg" xmlns:xlink="http://www.w3.org/1999/xlink" x="0px" y="0px"
	 viewBox="0 0 270.6 382.7" style="enable-background:new 0 0 270.6 382.7;" xml:space="preserve">
<style type="text/css">
	.st0{fill:url(#SVGID_1_);}
	.st1{fill:url(#SVGID_2_);}
	.st2{fill:url(#SVGID_3_);}
	.st3{fill:url(#SVGID_4_);}
	.st4{fill:url(#SVGID_5_);}
	.st5{fill:url(#SVGID_6_);}
	.st6{fill:url(#SVGID_7_);}
	.st7{fill:url(#SVGID_8_);}
	.st8{fill:none;stroke:#000000;stroke-width:4;stroke-miterlimit:10;}
</style>
<title>+2 Cnidário</title>
<g id="Logo">
	<g id="Carved_Base">
		<path id="Taxon_Z_Carved_" d="M196.6,252.6l1.5,1.5c-16.6,16.7-39.2,26-62.8,26h-0.9H134h0l-0.8,0c-0.3,0-0.6,0-0.9,0h-0.2H132
			l-0.7,0h0c-0.3,0-0.5,0-0.7,0c-0.2,0-0.6,0-0.9,0l-0.5,0c-0.1,0-0.2,0-0.3,0h-0.1c-0.2,0-0.4,0-0.6,0l-0.3,0l-0.7-0.1h0l-0.3,0
			l-0.6-0.1l-0.6-0.1l-0.4,0l-0.5-0.1c-0.2,0-0.3,0-0.5-0.1c-0.2,0-0.5-0.1-0.7-0.1c-0.3,0-0.6-0.1-1-0.1l-0.5-0.1l-0.4-0.1l-0.1,0
			l-0.1,0l-0.2,0l-0.1,0l-0.1,0l-0.4-0.1c-0.3-0.1-0.6-0.1-1-0.2l-0.7-0.1l-0.5-0.1l-0.1,0l-0.1,0h0c-0.2,0-0.4-0.1-0.6-0.1
			c-0.1,0-0.3,0-0.4-0.1c-0.2,0-0.4-0.1-0.5-0.1l-0.1,0c-0.2,0-0.4-0.1-0.6-0.1l-0.4-0.1c-0.1,0-0.2,0-0.3-0.1
			c-0.3-0.1-0.7-0.2-1-0.3s-0.7-0.2-1-0.3c-0.7-0.2-1.4-0.4-2.1-0.6c-0.6-0.2-1.3-0.4-1.9-0.6l0,0c-0.3-0.1-0.6-0.2-1-0.3
			s-0.6-0.2-0.9-0.3h0l-0.9-0.3h0c-0.3-0.1-0.5-0.2-0.8-0.3c-0.1,0-0.1,0-0.2-0.1l0,0c-0.3-0.1-0.6-0.2-0.9-0.3s-0.6-0.2-0.9-0.4
			l-0.7-0.3l-0.1-0.1l-0.2-0.1l-0.8-0.3c-0.3-0.1-0.6-0.3-0.9-0.4c-0.2-0.1-0.4-0.1-0.6-0.2l-0.5-0.2l0,0l-0.6-0.3l-0.7-0.3l-0.1,0
			c-0.2-0.1-0.3-0.1-0.5-0.2c-0.2-0.1-0.3-0.1-0.4-0.2l-0.4-0.2c-0.5-0.3-1.1-0.5-1.6-0.8l-0.4-0.2l-0.2-0.1l-0.1-0.1l-0.7-0.4
			l-0.1-0.1l0,0c-0.2-0.1-0.4-0.2-0.6-0.3l-0.7-0.4l-0.7-0.4l-0.2-0.1l0,0l-0.6-0.3l-0.7-0.4c-0.4-0.3-0.9-0.5-1.3-0.8
			c-0.3-0.2-0.6-0.4-0.9-0.5l-0.7-0.5c-0.2-0.1-0.5-0.3-0.7-0.5l-0.7-0.5l-0.7-0.5l-0.7-0.5c-0.5-0.4-1.1-0.8-1.6-1.2
			c-0.2-0.1-0.4-0.3-0.6-0.4c-0.1-0.1-0.3-0.2-0.4-0.3c-0.4-0.3-0.9-0.7-1.3-1c-0.5-0.4-1-0.8-1.5-1.2c-0.4-0.3-0.8-0.7-1.3-1.1
			l-0.4-0.4c-0.2-0.2-0.4-0.3-0.6-0.5l0,0c-0.5-0.5-1.1-0.9-1.6-1.4l0,0c-0.2-0.2-0.3-0.3-0.5-0.5c-0.5-0.5-1-1-1.5-1.5
			c-0.2-0.2-0.3-0.3-0.5-0.5c-0.2-0.2-0.5-0.5-0.7-0.7l-0.1-0.1c-0.2-0.3-0.5-0.5-0.7-0.7c-0.2-0.2-0.3-0.3-0.5-0.5
			c-0.2-0.2-0.4-0.4-0.6-0.7l0,0l-0.1-0.1l-0.1-0.1c-0.2-0.2-0.4-0.5-0.7-0.7l1.5-1.5l0.5-0.5l1.5-1.5l0.5-0.5l1.5-1.5l0.5-0.5l0,0
			l36.7-36.7l14.8-14.8c0.6,3.9,3.7,7,7.6,7.6h0l-50,50c31,27,77.6,25.4,106.6-3.7l1.5,1.5l0,0c-20.8,20.7-51.2,28.5-79.3,20.3
			l-0.6,0.6c28.5,8.5,59.4,0.7,80.4-20.3l0,0l1.5,1.5l0,0l0,0c-7.6,7.6-16.5,13.6-26.4,17.8c-1.9,0.8-3.8,1.5-5.7,2.2l-1,0.3
			c-0.3,0.1-0.6,0.2-0.9,0.3l-0.3,0.1c-0.2,0.1-0.3,0.1-0.5,0.2l-0.1,0l-0.2,0.1c-0.3,0.1-0.6,0.2-0.9,0.3l-0.1,0l-0.1,0l-0.2,0.1
			l-0.8,0.2l-0.2,0l-0.2,0l-0.4,0.1l-1,0.3c-0.7,0.2-1.3,0.3-2,0.5c-0.3,0.1-0.7,0.1-1,0.2l-0.8,0.1l-0.1,0l-0.5,0.1l-0.2,0
			l-0.3,0.1l-0.3,0.1c-9.6,1.7-19.4,1.7-29,0l-0.4-0.1l-0.4-0.1l-0.5-0.1l-0.3-0.1c-0.3-0.1-0.6-0.1-0.9-0.2l-0.1,0
			c-0.3-0.1-0.7-0.1-1-0.2h0l-1.1-0.3l-0.9-0.2l-0.3-0.1l-0.2-0.1c-0.1,0-0.3-0.1-0.4-0.1l-0.4-0.1l-0.7-0.2l-0.3-0.1h0l-0.7-0.2
			l-0.3-0.1h0c-0.3-0.1-0.5-0.1-0.8-0.2c-0.2-0.1-0.4-0.1-0.6-0.2l-0.1,0c-0.3-0.1-0.5-0.1-0.8-0.2c-0.3-0.1-0.6-0.2-0.9-0.3
			l-0.3-0.1c-0.3-0.1-0.6-0.2-0.9-0.3c-0.3-0.1-0.7-0.2-1-0.4c-10.3-3.8-19.7-9.6-27.7-17l-0.5-0.5c-0.5-0.5-1-1-1.5-1.5l1.5-1.5
			l10.2-10.2v-1l-12.7,12.7l0.3,0.3l0.3,0.3c0.5,0.5,1,1,1.5,1.5c0.2,0.2,0.3,0.3,0.5,0.5c33,30.6,84.4,29.7,116.2-2.2l1.5,1.5l0,0
			l0,0c-13.5,13.5-31.2,22.2-50.2,24.5l-0.9,0.1c-0.1,0-0.2,0-0.3,0c-0.3,0-0.5,0.1-0.8,0.1l-1,0.1l-1,0.1l-1,0.1
			c-0.3,0-0.7,0-1,0.1h-0.2c-0.7,0-1.4,0.1-2.1,0.1l-0.9,0h-0.1h-0.3c-0.3,0-0.6,0-1,0c-0.4,0-0.8,0-1.2,0l-1,0h-0.1h-0.2
			c-0.3,0-0.7,0-1,0c-0.3,0-0.7,0-1.1,0c-0.1,0-0.1,0-0.2,0h-0.2l-0.8,0h-0.1c-0.3,0-0.7,0-1-0.1c-0.6,0-1.2-0.1-1.8-0.2
			c-0.6-0.1-1.2-0.1-1.8-0.2l-0.9-0.1c-17.5-2.4-33.9-10.1-46.9-22.2l-0.5-0.5c-0.5-0.5-1-1-1.5-1.5c-0.2-0.2-0.3-0.3-0.5-0.5
			c-0.5-0.5-1-1-1.5-1.5l1.5-1.5l0.5-0.5l1.1-1.1l37-36.9v-1l-34.9,35l-2.1,2.1l-1.5,1.5l-2.5,2.5c0.2,0.2,0.3,0.3,0.5,0.5
			c0.5,0.5,1,1,1.5,1.5l0.3,0.3l0.3,0.3c0.5,0.5,1,1,1.5,1.5c0.2,0.2,0.3,0.3,0.5,0.5c5.5,5.1,11.7,9.5,18.3,13.1
			c0.2,0.1,0.4,0.2,0.6,0.3c0.6,0.3,1.2,0.6,1.7,0.9c0.3,0.1,0.6,0.3,0.9,0.4c0.3,0.1,0.6,0.3,0.9,0.4c0.3,0.1,0.6,0.3,0.9,0.4
			c0.3,0.1,0.6,0.3,0.9,0.4c0.2,0.1,0.4,0.2,0.6,0.3l0.2,0.1l0.2,0.1l0.1,0c0.3,0.1,0.6,0.2,0.8,0.3c0.3,0.1,0.7,0.3,1,0.4
			c0.3,0.1,0.6,0.2,0.9,0.3c0.1,0,0.2,0.1,0.2,0.1l0.1,0l0.5,0.2l0.1,0c0.2,0.1,0.5,0.2,0.7,0.3l0.1,0c0.2,0.1,0.4,0.1,0.6,0.2
			l0.5,0.2c0.1,0.1,0.3,0.1,0.4,0.1l0,0l0.1,0l0.2,0.1c0.2,0.1,0.4,0.1,0.6,0.2c0.6,0.2,1.2,0.4,1.8,0.6c0.3,0.1,0.6,0.2,0.9,0.3
			c0.3,0.1,0.6,0.2,0.9,0.3c4.8,1.3,9.7,2.2,14.7,2.7c0.3,0,0.7,0.1,1,0.1c0.3,0,0.7,0.1,1,0.1c0.7,0,1.3,0.1,2,0.1l0.5,0l0.5,0
			c0.3,0,0.6,0,0.9,0l0.7,0h0.4c0.3,0,0.7,0,1,0c0.7,0,1.5,0,2.2,0l0.5,0c0.2,0,0.5,0,0.7,0l0.7,0h0.1l0.6,0l0.2,0h0.1
			c0.1,0,0.3,0,0.5,0l0.7,0l0.4,0l0.7-0.1h0c0.2,0,0.3,0,0.5,0l0.6-0.1l0.6-0.1l0.6-0.1c0.6-0.1,1.1-0.1,1.7-0.2
			c0.3,0,0.6-0.1,0.9-0.1c0.5-0.1,0.9-0.1,1.4-0.2c3.2-0.5,6.4-1.2,9.5-2.1c0.3-0.1,0.6-0.1,0.9-0.2l0.1,0l0.1,0l0.1,0h0l0.1,0
			c0.2,0,0.3-0.1,0.5-0.1c0.3-0.1,0.6-0.2,0.9-0.3l0.5-0.2c0.2,0,0.3-0.1,0.5-0.2c0.3-0.1,0.7-0.2,1-0.3c0.3-0.1,0.7-0.2,1-0.3
			c0.6-0.2,1.3-0.4,1.9-0.7c0.3-0.1,0.7-0.3,1-0.4c0.3-0.1,0.7-0.3,1-0.4c0.3-0.1,0.7-0.3,1-0.4c0.3-0.1,0.7-0.3,1-0.4l0.8-0.4
			l0.4-0.2c0.2-0.1,0.5-0.2,0.7-0.3c0.3-0.1,0.6-0.3,1-0.4c0.5-0.2,1-0.5,1.5-0.7c0.2-0.1,0.4-0.2,0.6-0.3c0.4-0.2,0.7-0.4,1.1-0.6
			l0.9-0.5l0.8-0.4c3.7-2.1,7.3-4.5,10.6-7.1l0.7-0.6c0.3-0.2,0.6-0.4,0.8-0.7c0.3-0.2,0.6-0.4,0.9-0.7c0.3-0.3,0.6-0.5,1-0.8
			c0.2-0.1,0.3-0.3,0.5-0.4c0.4-0.3,0.7-0.7,1.1-1c0.2-0.2,0.4-0.3,0.6-0.5s0.4-0.4,0.6-0.6l0.3-0.3l0.3-0.3l0.3-0.3
			c0.1-0.1,0.2-0.2,0.3-0.3l0.3-0.3C196.3,252.8,196.4,252.7,196.6,252.6z M201.1,131.7L201.1,131.7l-0.1-0.2v0
			c-0.2-0.2-0.4-0.4-0.6-0.7c-0.2-0.2-0.3-0.3-0.5-0.5c-0.2-0.3-0.5-0.5-0.7-0.7l-0.1-0.1c-0.2-0.2-0.4-0.5-0.7-0.7
			c-0.2-0.2-0.3-0.3-0.5-0.5c-0.5-0.5-1-1-1.5-1.5c-0.2-0.2-0.3-0.3-0.5-0.5l0,0l0,0c-0.5-0.5-1-1-1.6-1.4l0,0
			c-0.2-0.2-0.4-0.3-0.6-0.5l-0.4-0.4c-0.4-0.4-0.8-0.7-1.2-1c-0.5-0.4-1-0.8-1.5-1.2c-0.4-0.4-0.9-0.7-1.3-1
			c-0.1-0.1-0.3-0.2-0.4-0.3c-0.2-0.1-0.4-0.3-0.6-0.4c-0.5-0.4-1.1-0.8-1.6-1.2l-0.7-0.5l-0.7-0.5l-0.7-0.5
			c-0.2-0.2-0.5-0.3-0.7-0.5l-0.7-0.5c-0.3-0.2-0.6-0.4-0.9-0.5c-0.4-0.3-0.9-0.6-1.3-0.8l-0.7-0.4l-0.6-0.3l0,0l-0.2-0.1l-0.7-0.4
			l-0.7-0.4c-0.2-0.1-0.4-0.2-0.6-0.3l0,0l-0.1-0.1l-0.7-0.4l-0.1-0.1l-0.2-0.1l-0.4-0.2c-0.5-0.3-1.1-0.5-1.6-0.8l-0.4-0.2
			c-0.1-0.1-0.3-0.1-0.4-0.2c-0.1-0.1-0.3-0.1-0.5-0.2l-0.1,0l-0.7-0.3l-0.6-0.3l0,0l-0.5-0.2c-0.2-0.1-0.4-0.2-0.6-0.2
			c-0.3-0.1-0.6-0.3-0.9-0.4c-0.3-0.1-0.5-0.2-0.8-0.3l-0.1-0.1l-0.1-0.1l-0.7-0.3c-0.3-0.1-0.6-0.2-0.9-0.4s-0.6-0.2-0.9-0.3l0,0
			c-0.1,0-0.1-0.1-0.2-0.1c-0.3-0.1-0.5-0.2-0.8-0.3h0l-0.9-0.3h0c-0.3-0.1-0.6-0.2-0.9-0.3c-0.3-0.1-0.6-0.2-1-0.3l0,0
			c-0.6-0.2-1.3-0.4-1.9-0.6c-0.7-0.2-1.4-0.4-2.1-0.6c-0.3-0.1-0.7-0.2-1-0.3c-0.3-0.1-0.7-0.2-1-0.3c-0.1,0-0.2,0-0.3-0.1
			l-0.4-0.1c-0.2,0-0.4-0.1-0.6-0.1l-0.1,0c-0.2,0-0.4-0.1-0.5-0.1c-0.1,0-0.3-0.1-0.4-0.1c-0.2,0-0.4-0.1-0.6-0.1h0l-0.1,0l-0.1,0
			l-0.5-0.1l-0.7-0.1c-0.3-0.1-0.6-0.1-1-0.2l-0.4-0.1l-0.1,0l-0.1,0l-0.2,0l-0.1,0l-0.1,0l-0.4-0.1l-0.5-0.1c-0.3,0-0.6-0.1-1-0.1
			c-0.2,0-0.5-0.1-0.7-0.1c-0.2,0-0.3,0-0.5-0.1l-0.5-0.1l-0.4,0l-0.6-0.1l-0.6-0.1l-0.3,0h0l-0.7-0.1l-0.3,0c-0.2,0-0.4,0-0.6,0
			h-0.1c-0.1,0-0.2,0-0.3,0l-0.5,0c-0.3,0-0.6,0-0.9,0c-0.3,0-0.5,0-0.7,0h0l-0.7,0h-0.1h-0.2c-0.3,0-0.6,0-0.9,0l-0.8,0h0h-0.4
			c-0.3,0-0.6,0-0.9,0c-23.5,0-46.2,9.3-62.8,26L74,130c0.1-0.1,0.2-0.2,0.3-0.3l0.3-0.3c0.1-0.1,0.2-0.2,0.3-0.3l0.3-0.3l0.3-0.3
			l0.3-0.3c0.2-0.2,0.4-0.4,0.6-0.6c0.2-0.2,0.4-0.3,0.6-0.5c0.4-0.3,0.7-0.7,1.1-1c0.2-0.1,0.3-0.3,0.5-0.4c0.3-0.3,0.6-0.6,1-0.8
			c0.3-0.2,0.6-0.5,0.9-0.7c0.3-0.2,0.6-0.4,0.8-0.7l0.7-0.6c3.4-2.6,6.9-5,10.6-7.1l0.8-0.4l0.9-0.5c0.4-0.2,0.7-0.4,1.1-0.6
			c0.2-0.1,0.4-0.2,0.6-0.3c0.5-0.3,1-0.5,1.5-0.7c0.3-0.1,0.6-0.3,1-0.4c0.2-0.1,0.5-0.2,0.7-0.3l0.4-0.2l0.8-0.4
			c0.3-0.1,0.6-0.3,1-0.4c0.3-0.1,0.7-0.3,1-0.4c0.3-0.1,0.7-0.3,1-0.4c0.3-0.1,0.7-0.3,1-0.4c0.6-0.2,1.3-0.5,1.9-0.7
			c0.3-0.1,0.7-0.2,1-0.3s0.7-0.2,1-0.3c0.2-0.1,0.3-0.1,0.5-0.2l0.5-0.2c0.3-0.1,0.6-0.2,0.9-0.3c0.2-0.1,0.3-0.1,0.5-0.1l0.1,0h0
			l0.1,0l0.1,0l0.1,0c0.3-0.1,0.6-0.2,0.9-0.2c3.1-0.9,6.3-1.5,9.5-2.1c0.5-0.1,0.9-0.1,1.4-0.2c0.3,0,0.6-0.1,0.9-0.1
			c0.6-0.1,1.1-0.1,1.7-0.2l0.6-0.1l0.6-0.1l0.6-0.1c0.2,0,0.3,0,0.5,0h0l0.7-0.1l0.4,0l0.7,0c0.1,0,0.3,0,0.5,0h0.1l0.2,0l0.6,0
			h0.1l0.7,0c0.2,0,0.5,0,0.7,0l0.5,0c0.7,0,1.5,0,2.2,0c0.3,0,0.7,0,1,0h0.4l0.7,0c0.3,0,0.6,0,0.9,0c0.2,0,0.3,0,0.5,0l0.5,0
			c0.7,0,1.3,0.1,2,0.1c0.3,0,0.7,0,1,0.1s0.7,0.1,1,0.1c5,0.5,9.9,1.3,14.7,2.7c0.3,0.1,0.6,0.2,0.9,0.3s0.6,0.2,0.9,0.3
			c0.6,0.2,1.2,0.4,1.8,0.6c0.2,0.1,0.4,0.1,0.6,0.2l0.2,0.1l0.1,0l0,0c0.1,0,0.3,0.1,0.5,0.1l0.5,0.2c0.2,0.1,0.4,0.1,0.6,0.2
			l0.1,0c0.2,0.1,0.5,0.2,0.7,0.3l0.1,0l0.5,0.2l0.1,0c0.1,0,0.2,0.1,0.2,0.1c0.3,0.1,0.6,0.2,0.9,0.3c0.3,0.1,0.7,0.3,1,0.4
			c0.3,0.1,0.6,0.2,0.8,0.3l0.1,0l0.2,0.1l0.2,0.1c0.2,0.1,0.4,0.2,0.6,0.3c0.3,0.1,0.6,0.3,0.9,0.4c0.3,0.1,0.6,0.3,0.9,0.4
			c0.3,0.1,0.6,0.3,0.9,0.4c0.3,0.1,0.6,0.3,0.9,0.4c0.6,0.3,1.2,0.6,1.7,0.9c0.2,0.1,0.4,0.2,0.6,0.3c6.7,3.5,12.8,7.9,18.3,13.1
			c0.2,0.2,0.3,0.3,0.5,0.5c0.5,0.5,1,1,1.5,1.5l0.3,0.3l0.3,0.3c0.5,0.5,1,1,1.5,1.5c0.2,0.2,0.3,0.3,0.5,0.5l-2.6,2.5l-1.5,1.5
			l-2.1,2.1l-35,35v-1l34.1-34.1l2.5-2.5l0.3-0.3l1.1-1.1l0.5-0.5l1.5-1.5c-0.5-0.5-1-1-1.5-1.5c-0.2-0.2-0.3-0.3-0.5-0.5
			c-0.5-0.5-1-1-1.5-1.5l-0.5-0.5c-13-12.1-29.4-19.8-46.9-22.2l-0.9-0.1c-0.6-0.1-1.2-0.1-1.8-0.2c-0.6-0.1-1.2-0.1-1.8-0.2
			c-0.3,0-0.7-0.1-1-0.1h-0.1l-0.8,0h-0.2c-0.1,0-0.1,0-0.2,0c-0.4,0-0.7,0-1.1,0s-0.7,0-1,0h-0.1h-0.1c-0.3,0-0.7,0-1,0
			c-0.4,0-0.8,0-1.2,0c-0.3,0-0.6,0-1,0H134h-0.1l-0.9,0c-0.7,0-1.4,0-2.1,0.1h-0.1c-0.3,0-0.7,0-1,0.1s-0.7,0-1,0.1l-1,0.1l-1,0.1
			c-0.3,0-0.5,0.1-0.8,0.1c-0.1,0-0.2,0-0.3,0c-0.3,0-0.6,0.1-0.9,0.1c-19,2.3-36.7,11-50.2,24.5l0,0l0,0l1.5,1.5l0,0
			c31.8-31.9,83.2-32.9,116.2-2.2c0.2,0.2,0.3,0.3,0.5,0.5c0.5,0.5,1,1,1.5,1.5l0.3,0.3l0.3,0.3l-2.5,2.5l-1.3,1.3l-8.9,8.9v-1
			l11.7-11.6c-0.5-0.5-1-1-1.5-1.5l-0.5-0.5c-8-7.5-17.5-13.2-27.7-17c-0.3-0.1-0.7-0.2-1-0.4c-0.3-0.1-0.6-0.2-0.9-0.3l-0.3-0.1
			c-0.3-0.1-0.6-0.2-0.9-0.3c-0.3-0.1-0.5-0.2-0.8-0.2l-0.1,0c-0.2-0.1-0.4-0.1-0.6-0.2c-0.3-0.1-0.5-0.1-0.8-0.2h0l-0.3-0.1
			l-0.7-0.2h0l-0.4-0.1l-0.6-0.1l-0.4-0.1c-0.1,0-0.3-0.1-0.4-0.1l-0.2-0.1l-0.3-0.1l-0.9-0.2l-1.1-0.3h0c-0.3-0.1-0.7-0.1-1-0.2
			l-0.1,0c-0.3-0.1-0.6-0.1-0.9-0.2l-0.3-0.1l-0.5-0.1l-0.4-0.1l-0.4-0.1c-9.6-1.7-19.4-1.7-29,0l-0.3,0.1l-0.3,0.1l-0.2,0l-0.5,0.1
			l-0.1,0l-0.8,0.1c-0.3,0.1-0.7,0.1-1,0.2c-0.7,0.1-1.3,0.3-2,0.5l-1,0.3l-0.4,0.1l-0.2,0l-0.2,0l-0.8,0.2l-0.2,0.1l-0.1,0l-0.1,0
			c-0.3,0.1-0.6,0.2-0.9,0.3l-0.2,0.1l-0.1,0c-0.2,0.1-0.3,0.1-0.5,0.2l-0.3,0.1c-0.3,0.1-0.6,0.2-0.9,0.3l-1,0.3
			c-1.9,0.6-3.8,1.4-5.7,2.2c-9.9,4.2-18.8,10.2-26.4,17.8l0,0l0,0l1.5,1.5l0,0c21-21,51.9-28.8,80.4-20.3l-0.6,0.6
			c-28.2-8.3-58.6-0.5-79.3,20.3l0,0l1.5,1.5c28.9-29.1,75.5-30.7,106.5-3.7l-35.2,35.2l-14.8,14.8h0c3.9,0.6,7,3.7,7.6,7.6
			l14.8-14.8l36.7-36.7l0,0l0.5-0.5l1.5-1.5l0.5-0.5l1.5-1.5l0.5-0.5l1.5-1.5C201.5,132.2,201.3,132,201.1,131.7z"/>
		<g id="Cell_no_BG_">
			<path d="M135.3,183.6c0.4,0,0.7,0,1.1,0.1l0.1,0h0.1c3.3,0.5,5.9,3.2,6.4,6.5c0,0,0,0,0,0c0,0.4,0.1,0.7,0.1,1.1
				c0,4.3-3.4,7.7-7.7,7.7c-0.4,0-0.7,0-1.1-0.1l-0.1,0h0c-3.3-0.6-5.9-3.2-6.4-6.5c0,0,0,0,0,0c0-0.4-0.1-0.7-0.1-1.1
				C127.6,187.1,131,183.6,135.3,183.6 M135.3,182.4c-5,0-9,4-9,9c0,0.4,0,0.9,0.1,1.3c0,0,0,0,0,0c0.6,3.9,3.7,7,7.6,7.6h0
				c0.4,0.1,0.9,0.1,1.3,0.1c5,0,9-4,9-9c0-0.4,0-0.9-0.1-1.3c0,0,0,0,0,0c-0.6-3.9-3.7-7-7.6-7.6h0
				C136.2,182.4,135.7,182.4,135.3,182.4z"/>
			<path d="M133.8,190c0.7-0.8,2-0.9,2.9-0.1c0.1,0,0.1,0.1,0.1,0.1l0.3-0.2c-0.9-1-2.4-1.2-3.4-0.3c-0.1,0.1-0.2,0.2-0.3,0.3
				L133.8,190z"/>
			<path d="M137.1,190.3c0.6,1,0.2,2.2-0.7,2.8c-0.3,0.1-0.5,0.2-0.8,0.3v0.4c1.3-0.1,2.3-1.3,2.2-2.6c0-0.4-0.1-0.7-0.3-1
				L137.1,190.3z"/>
			<path d="M135.1,193.4c-1.1-0.1-1.9-1.1-1.8-2.2c0-0.3,0.1-0.6,0.3-0.8l-0.3-0.2c-0.7,1.2-0.3,2.6,0.9,3.3c0.3,0.2,0.7,0.3,1,0.3
				L135.1,193.4L135.1,193.4z"/>
			<circle cx="135.3" cy="191.3" r="1.5"/>
		</g>
	</g>
	<g id="Taxon_Colours">
		
			<linearGradient id="SVGID_1_" gradientUnits="userSpaceOnUse" x1="72.9645" y1="423.6848" x2="134.8242" y2="423.6848" gradientTransform="matrix(1 0 0 -1 0 540)">
			<stop  offset="0" style="stop-color:#FF33A2"/>
			<stop  offset="1" style="stop-color:#FF33A2;stop-opacity:0"/>
		</linearGradient>
		<path class="st0" d="M74,130.1l-1.5-1.5c16.6-16.7,39.2-26,62.8-26v2.1c-0.7,0-1.5,0-2.2,0l-0.5,0c-0.2,0-0.5,0-0.7,0l-0.7,0h-0.1
			l-0.6,0l-0.2,0h-0.1c-0.1,0-0.3,0-0.5,0l-0.7,0l-0.4,0l-0.7,0.1h0c-0.2,0-0.3,0-0.5,0l-0.6,0.1l-0.6,0.1l-0.6,0.1
			c-0.6,0.1-1.1,0.1-1.7,0.2c-0.3,0-0.6,0.1-0.9,0.1c-0.5,0.1-0.9,0.1-1.4,0.2c-3.2,0.5-6.4,1.2-9.5,2.1c-0.3,0.1-0.6,0.1-0.9,0.2
			l-0.1,0l-0.1,0l-0.1,0h0l-0.1,0c-0.2,0-0.3,0.1-0.5,0.1c-0.3,0.1-0.6,0.2-0.9,0.3l-0.5,0.2c-0.2,0-0.3,0.1-0.5,0.2
			c-0.3,0.1-0.7,0.2-1,0.3c-0.3,0.1-0.7,0.2-1,0.3c-0.6,0.2-1.3,0.4-1.9,0.7c-0.3,0.1-0.7,0.3-1,0.4c-0.3,0.1-0.7,0.3-1,0.4
			c-0.3,0.1-0.7,0.3-1,0.4c-0.3,0.1-0.7,0.3-1,0.4l-0.8,0.4l-0.4,0.2c-0.2,0.1-0.5,0.2-0.7,0.3c-0.3,0.1-0.6,0.3-1,0.4
			c-0.5,0.2-1,0.5-1.5,0.7c-0.2,0.1-0.4,0.2-0.6,0.3c-0.4,0.2-0.8,0.4-1.1,0.6l-0.9,0.5l-0.8,0.4c-3.7,2.1-7.3,4.5-10.6,7.1
			l-0.7,0.6c-0.3,0.2-0.6,0.4-0.8,0.7c-0.3,0.2-0.6,0.4-0.9,0.7c-0.3,0.3-0.6,0.5-1,0.8c-0.2,0.1-0.3,0.3-0.5,0.4
			c-0.4,0.3-0.7,0.7-1.1,1c-0.2,0.2-0.4,0.3-0.6,0.5c-0.2,0.2-0.4,0.4-0.6,0.6l-0.3,0.3l-0.3,0.3l-0.3,0.3c-0.1,0.1-0.2,0.2-0.3,0.3
			l-0.3,0.3C74.2,129.9,74.1,130,74,130.1z"/>
		
			<linearGradient id="SVGID_2_" gradientUnits="userSpaceOnUse" x1="72.9645" y1="421.2488" x2="134.8242" y2="421.2488" gradientTransform="matrix(1 0 0 -1 0 540)">
			<stop  offset="0" style="stop-color:#E41718"/>
			<stop  offset="1" style="stop-color:#E41718;stop-opacity:0"/>
		</linearGradient>
		<path class="st1" d="M135.3,107.5c-22.2,0-43.6,8.8-59.3,24.6l0,0l-1.5-1.5l0,0l0,0c13.5-13.5,31.2-22.2,50.2-24.5
			c0.3,0,0.6-0.1,0.9-0.1c0.1,0,0.2,0,0.3,0c0.3,0,0.5-0.1,0.8-0.1l1-0.1l1-0.1c0.3,0,0.7,0,1-0.1c0.3,0,0.7,0,1-0.1h0.2
			c0.7,0,1.4-0.1,2.1-0.1l0.9,0h0.1h0.3c0.3,0,0.6,0,1,0L135.3,107.5z"/>
		
			<linearGradient id="SVGID_3_" gradientUnits="userSpaceOnUse" x1="72.9645" y1="418.8341" x2="134.8242" y2="418.8341" gradientTransform="matrix(1 0 0 -1 0 540)">
			<stop  offset="0" style="stop-color:#5BB9EB"/>
			<stop  offset="1" style="stop-color:#5BB9EB;stop-opacity:0"/>
		</linearGradient>
		<path class="st2" d="M135.3,110.4c-21.5,0-42.1,8.5-57.2,23.7l0,0l-1.5-1.5l0,0l0,0c7.6-7.6,16.5-13.6,26.4-17.8
			c1.9-0.8,3.8-1.5,5.7-2.2l1-0.3c0.3-0.1,0.6-0.2,0.9-0.3l0.3-0.1c0.2-0.1,0.3-0.1,0.5-0.2l0.1,0l0.2-0.1c0.3-0.1,0.6-0.2,0.9-0.3
			l0.1,0l0.1,0l0.2-0.1l0.8-0.2l0.2,0l0.2,0l0.4-0.1l1-0.3c0.7-0.2,1.3-0.3,2-0.5c0.3-0.1,0.7-0.1,1-0.2l0.8-0.1l0.1,0l0.5-0.1
			l0.2,0l0.3-0.1l0.3-0.1c4.8-0.9,9.6-1.3,14.5-1.3L135.3,110.4C135.2,110.4,135.3,110.4,135.3,110.4z"/>
		
			<linearGradient id="SVGID_4_" gradientUnits="userSpaceOnUse" x1="72.9645" y1="416.3981" x2="134.8242" y2="416.3981" gradientTransform="matrix(1 0 0 -1 0 540)">
			<stop  offset="0" style="stop-color:#002DAA"/>
			<stop  offset="1" style="stop-color:#002DAA;stop-opacity:0"/>
		</linearGradient>
		<path class="st3" d="M78.6,134.6c15-15.1,35.5-23.5,56.7-23.5v2.1c-20.7,0-40.6,8.2-55.2,22.9L78.6,134.6L78.6,134.6z"/>
		
			<linearGradient id="SVGID_5_" gradientUnits="userSpaceOnUse" x1="197.8997" y1="280.9217" x2="135.8135" y2="280.9217" gradientTransform="matrix(1 0 0 -1 0 540)">
			<stop  offset="0" style="stop-color:#FBF796"/>
			<stop  offset="1" style="stop-color:#FBF796;stop-opacity:0"/>
		</linearGradient>
		<path class="st4" d="M166.5,265.3c-9.9,4.2-20.5,6.3-31.2,6.3v-2.1c20.7,0,40.6-8.2,55.2-22.9l1.5,1.5l0,0
			C184.7,255.4,176.1,261.2,166.5,265.3z"/>
		
			<linearGradient id="SVGID_6_" gradientUnits="userSpaceOnUse" x1="197.8997" y1="278.5174" x2="135.8135" y2="278.5174" gradientTransform="matrix(1 0 0 -1 0 540)">
			<stop  offset="0" style="stop-color:#44AC36"/>
			<stop  offset="1" style="stop-color:#44AC36;stop-opacity:0"/>
		</linearGradient>
		<path class="st5" d="M149.8,273.2c-4.8,0.9-9.6,1.3-14.5,1.3v-2.2c21.5,0,42.1-8.5,57.2-23.7l0,0l1.5,1.5l0,0l0,0
			c-7.6,7.6-16.5,13.6-26.4,17.8c-1.9,0.8-3.8,1.5-5.7,2.2l-1,0.3c-0.3,0.1-0.6,0.2-0.9,0.3l-0.3,0.1c-0.2,0.1-0.3,0.1-0.5,0.2
			l-0.1,0l-0.2,0.1c-0.3,0.1-0.6,0.2-0.9,0.3l-0.1,0l-0.1,0l-0.2,0.1l-0.8,0.2l-0.2,0l-0.2,0l-0.4,0.1l-1,0.3
			c-0.7,0.2-1.3,0.3-2,0.5c-0.3,0.1-0.7,0.1-1,0.2l-0.8,0.1l-0.1,0l-0.5,0.1l-0.2,0l-0.3,0.1L149.8,273.2z"/>
		
			<linearGradient id="SVGID_7_" gradientUnits="userSpaceOnUse" x1="197.8997" y1="276.0711" x2="135.8135" y2="276.0711" gradientTransform="matrix(1 0 0 -1 0 540)">
			<stop  offset="0" style="stop-color:#F39400"/>
			<stop  offset="1" style="stop-color:#F39400;stop-opacity:0"/>
		</linearGradient>
		<path class="st6" d="M136.3,277.3c-0.3,0-0.6,0-1,0v-2.1c22.2,0,43.6-8.8,59.3-24.6l1.5,1.5l0,0l0,0
			c-13.5,13.5-31.2,22.2-50.2,24.5l-0.9,0.1c-0.1,0-0.2,0-0.3,0c-0.3,0-0.5,0.1-0.8,0.1l-1,0.1l-1,0.1l-1,0.1c-0.3,0-0.7,0-1,0.1
			h-0.2c-0.7,0-1.4,0.1-2.1,0.1l-0.9,0h-0.1H136.3z"/>
		
			<linearGradient id="SVGID_8_" gradientUnits="userSpaceOnUse" x1="197.8997" y1="273.6778" x2="135.8135" y2="273.6778" gradientTransform="matrix(1 0 0 -1 0 540)">
			<stop  offset="0" style="stop-color:#BFBFBF"/>
			<stop  offset="1" style="stop-color:#BFBFBF;stop-opacity:0"/>
		</linearGradient>
		<path class="st7" d="M198.1,254.1c-16.6,16.7-39.2,26-62.8,26V278c0.7,0,1.5,0,2.2,0l0.5,0c0.2,0,0.5,0,0.7,0l0.7,0h0.1l0.6,0
			l0.2,0h0.1c0.1,0,0.3,0,0.5,0l0.7,0l0.4,0l0.7-0.1h0c0.2,0,0.3,0,0.5,0l0.6-0.1l0.6-0.1l0.6-0.1c0.6-0.1,1.1-0.1,1.7-0.2
			c0.3,0,0.6-0.1,0.9-0.1c0.5-0.1,0.9-0.1,1.4-0.2c3.2-0.5,6.4-1.2,9.5-2.1c0.3-0.1,0.6-0.1,0.9-0.2l0.1,0l0.1,0l0.1,0h0l0.1,0
			c0.2,0,0.3-0.1,0.5-0.1c0.3-0.1,0.6-0.2,0.9-0.3l0.5-0.2c0.2,0,0.3-0.1,0.5-0.2c0.3-0.1,0.7-0.2,1-0.3c0.3-0.1,0.7-0.2,1-0.3
			c0.6-0.2,1.3-0.4,1.9-0.7c0.3-0.1,0.7-0.3,1-0.4c0.3-0.1,0.7-0.3,1-0.4c0.3-0.1,0.7-0.3,1-0.4c0.3-0.1,0.7-0.3,1-0.4l0.8-0.4
			l0.4-0.2c0.2-0.1,0.5-0.2,0.7-0.3c0.3-0.1,0.6-0.3,1-0.4c0.5-0.2,1-0.5,1.5-0.7c0.2-0.1,0.4-0.2,0.6-0.3c0.4-0.2,0.7-0.4,1.1-0.6
			l0.9-0.5l0.8-0.4c3.7-2.1,7.3-4.5,10.6-7.1l0.7-0.6c0.3-0.2,0.6-0.4,0.8-0.7c0.3-0.2,0.6-0.4,0.9-0.7c0.3-0.3,0.6-0.5,1-0.8
			c0.2-0.1,0.3-0.3,0.5-0.4c0.4-0.3,0.7-0.7,1.1-1c0.2-0.2,0.4-0.3,0.6-0.5s0.4-0.4,0.6-0.6l0.3-0.3l0.3-0.3l0.3-0.3
			c0.1-0.1,0.2-0.2,0.3-0.3l0.3-0.3c0.1-0.1,0.2-0.2,0.3-0.3L198.1,254.1z"/>
	</g>
	<g id="Circle_silhouette">
		<g id="Circle_sides">
			<path id="Circle_BU" class="st8" d="M67.3,239.7c-21.8-30.6-20.4-71.9,3.2-101"/>
			<path id="Circle_BU-2" class="st8" d="M203.3,143c21.8,30.6,20.4,71.9-3.2,101"/>
		</g>
	</g>
</g>
</svg>
