<?xml version="1.0" encoding="utf-8"?>
<!-- Generator: Adobe Illustrator 24.0.1, SVG Export Plug-In . SVG Version: 6.00 Build 0)  -->
<svg version="1.1" id="ZooUno" xmlns="http://www.w3.org/2000/svg" xmlns:xlink="http://www.w3.org/1999/xlink" x="0px" y="0px"
	 viewBox="0 0 1000 1000" style="enable-background:new 0 0 1000 1000;" xml:space="preserve">
<style type="text/css">
	.st0{fill:url(#SVGID_1_);}
	.st1{fill:url(#SVGID_2_);}
	.st2{fill:url(#SVGID_3_);}
	.st3{fill:url(#SVGID_4_);}
	.st4{fill:url(#SVGID_5_);}
	.st5{fill:url(#SVGID_6_);}
	.st6{fill:url(#SVGID_7_);}
	.st7{fill:url(#SVGID_8_);}
	.st8{fill:none;stroke:#000000;stroke-width:4;stroke-miterlimit:10;}
</style>
<title font-family="DejaVu Sans">Logo (CL)</title>
<g id="Logo">
	<g id="Carved_Base">
		<path id="Taxon_Z_Carved_" d="M786.7,786.7l7.1,7.1C716,871.8,610.2,915.6,500,915.5h-4.2H494h-0.1l-3.8-0.1c-1.3,0-2.6-0.1-4-0.1
			h-0.9h-0.4l-3.4-0.1h-0.2c-1.2,0-2.4-0.1-3.5-0.2s-2.6-0.1-4-0.2l-2.4-0.2c-0.5,0-1.1-0.1-1.6-0.1h-0.6c-1-0.1-2-0.2-3-0.2
			l-1.2-0.1l-3.3-0.3h-0.2l-1.5-0.2l-2.9-0.3l-2.6-0.3l-1.7-0.2l-2.4-0.3c-0.8-0.1-1.6-0.2-2.4-0.3c-1.1-0.1-2.3-0.3-3.4-0.4
			c-1.5-0.2-3-0.4-4.5-0.6l-2.2-0.3l-2.1-0.3l-0.7-0.1l-0.6-0.1l-0.8-0.1l-0.4-0.1l-0.3-0.1l-1.9-0.3c-1.5-0.3-3-0.5-4.5-0.8
			l-3.5-0.6l-2.4-0.5l-0.6-0.1l-0.5-0.1h-0.2c-0.9-0.2-1.9-0.4-2.8-0.6c-0.6-0.1-1.2-0.2-1.9-0.4c-0.8-0.2-1.7-0.3-2.5-0.5l-0.5-0.1
			c-1-0.2-2-0.4-3-0.7l-2.1-0.5c-0.5-0.1-1-0.2-1.4-0.3c-1.6-0.4-3.3-0.8-4.9-1.2s-3.2-0.8-4.9-1.2c-3.2-0.8-6.5-1.7-9.7-2.6
			c-3-0.9-6-1.8-9-2.7l0,0c-1.5-0.5-3-0.9-4.5-1.4s-2.9-1-4.4-1.5h-0.2l-4.3-1.5h-0.1c-1.2-0.4-2.5-0.9-3.7-1.3
			c-0.3-0.1-0.7-0.2-1-0.4l0,0c-1.3-0.5-2.7-1-4-1.5s-2.9-1.1-4.4-1.7l-3.4-1.3L346,886l-0.9-0.3l-3.8-1.5c-1.4-0.6-2.9-1.2-4.3-1.8
			c-0.9-0.4-1.7-0.7-2.6-1.1l-2.4-1l-0.2-0.1l-2.7-1.2l-3.3-1.5l-0.3-0.1c-0.8-0.3-1.5-0.7-2.3-1.1s-1.2-0.6-1.8-0.9l-1.8-0.9
			c-2.5-1.2-5-2.4-7.5-3.7l-2-1l-1-0.5l-0.6-0.3l-3.3-1.7l-0.6-0.3l-0.2-0.1c-1-0.5-2-1-3-1.6l-3.5-2l-3.4-1.9l-0.8-0.4l-0.1-0.1
			l-2.8-1.6l-3.5-2.1c-2.1-1.3-4.2-2.5-6.3-3.8c-1.4-0.8-2.7-1.7-4-2.5l-3.4-2.2c-1.1-0.7-2.3-1.5-3.4-2.2l-3.4-2.2l-3.3-2.3
			l-3.3-2.3c-2.5-1.8-5-3.6-7.5-5.4c-0.9-0.7-1.9-1.4-2.8-2.1c-0.6-0.5-1.3-1-1.9-1.4c-2.1-1.6-4.2-3.3-6.3-4.9
			c-2.4-1.9-4.8-3.8-7.1-5.8c-2-1.6-3.9-3.3-5.9-5l-2-1.7c-0.9-0.8-1.7-1.5-2.6-2.3l0,0c-2.5-2.2-5-4.4-7.4-6.7l0,0
			c-0.8-0.8-1.6-1.5-2.4-2.3c-2.4-2.3-4.8-4.6-7.2-7c-0.8-0.8-1.6-1.6-2.4-2.4c-1.1-1.1-2.2-2.2-3.2-3.3l-0.4-0.4
			c-1.1-1.2-2.2-2.3-3.4-3.5c-0.8-0.8-1.5-1.6-2.3-2.5c-1-1-2-2.1-2.9-3.2l0,0l-0.4-0.4l-0.3-0.3c-1-1.1-2.1-2.3-3.1-3.4l7.1-7.1
			l2.5-2.5l6.9-6.9l2.5-2.5l6.9-6.9l2.4-2.5l0,0l171.7-171.8l69.2-69.2c2.7,18.3,17.1,32.6,35.4,35.4h0.1l-234,234
			c145.3,126.3,363.3,118.8,499-17.3l7.1,7.1l0,0c-97.2,97-239.5,133.4-371.3,94.9l-2.6,2.6c133.4,39.7,277.9,3.2,376.3-95.2
			l0.1,0.1l6.9,6.9l0.1,0.1l0,0c-35.4,35.5-77.4,63.8-123.6,83.3c-8.8,3.7-17.7,7.1-26.7,10.1l-4.5,1.5c-1.4,0.5-2.9,0.9-4.3,1.4
			l-1.2,0.4c-0.8,0.3-1.6,0.5-2.4,0.8l-0.6,0.2l-1,0.3c-1.4,0.4-2.8,0.8-4.2,1.2l-0.6,0.2l-0.4,0.1l-1,0.3l-3.6,1l-0.8,0.2l-0.8,0.2
			l-2,0.5l-4.7,1.2c-3.1,0.8-6.3,1.5-9.4,2.2c-1.6,0.3-3.2,0.7-4.7,1l-3.6,0.7l-0.4,0.1l-2.2,0.4l-1,0.2l-1.6,0.3l-1.6,0.3
			c-44.9,7.9-90.8,7.9-135.7,0l-1.7-0.3l-1.7-0.3l-2.4-0.5l-1.4-0.3c-1.4-0.3-2.8-0.5-4.1-0.8l-0.5-0.1c-1.6-0.3-3.1-0.7-4.7-1h-0.2
			l-5-1.2l-4.4-1.1l-1.3-0.3l-1.1-0.3c-0.6-0.2-1.3-0.3-1.9-0.5l-1.9-0.5L397,875l-1.4-0.4h-0.1l-3.1-0.9l-1.2-0.3H391
			c-1.2-0.4-2.5-0.7-3.7-1.1c-1-0.3-1.9-0.6-2.9-0.9l-0.5-0.2c-1.2-0.4-2.4-0.7-3.6-1.1c-1.5-0.5-3-1-4.4-1.5l-1.4-0.5
			c-1.3-0.5-2.7-0.9-4-1.4c-1.6-0.6-3.1-1.1-4.7-1.7c-48.1-17.8-92.2-44.9-129.8-79.7l-2.4-2.3c-2.4-2.3-4.8-4.6-7.2-7l6.9-6.9
			l47.7-47.7v-4.7l-59.4,59.4l1.2,1.2l1.2,1.2c2.4,2.4,4.8,4.7,7.2,7c0.8,0.8,1.6,1.5,2.4,2.3c154.6,143.4,394.9,138.8,543.8-10.4
			l6.9,6.9l0.1,0.1l0,0c-63.3,63.4-145.9,103.8-234.8,114.8l-4.3,0.5c-0.5,0.1-1.1,0.1-1.6,0.2c-1.3,0.1-2.5,0.3-3.8,0.4l-4.6,0.4
			l-4.6,0.4l-4.7,0.3c-1.6,0.1-3.2,0.2-4.8,0.3h-0.8c-3.3,0.2-6.6,0.3-9.9,0.4l-4,0.1H506h-1.6c-1.5,0-3,0-4.5,0c-1.9,0-3.7,0-5.6,0
			l-4.6-0.1H489h-0.9c-1.6,0-3.3-0.1-4.9-0.2s-3.5-0.2-5.2-0.2c-0.3,0-0.6,0-1-0.1h-0.8l-3.9-0.2h-0.5c-1.6-0.1-3.1-0.2-4.7-0.4
			c-2.8-0.2-5.7-0.5-8.5-0.8c-2.9-0.3-5.7-0.6-8.6-1l-4-0.5c-82.1-11.1-158.8-47.4-219.5-103.9l-2.5-2.3c-2.4-2.3-4.8-4.6-7.2-7
			c-0.8-0.8-1.6-1.6-2.4-2.4c-2.4-2.4-4.7-4.8-7-7.2l6.9-6.9l2.5-2.5l5.3-5.3l173-172.9v-4.8L231.6,747.2l-9.9,9.9l-6.9,6.9
			l-11.9,11.9c0.8,0.8,1.5,1.6,2.3,2.5c2.3,2.4,4.6,4.8,7,7.2l1.2,1.2l1.2,1.2c2.4,2.3,4.8,4.7,7.2,7c0.8,0.8,1.6,1.5,2.4,2.3
			c25.8,24,54.7,44.6,85.8,61.1c0.9,0.5,1.8,1,2.7,1.4c2.7,1.4,5.4,2.8,8.1,4.1c1.3,0.7,2.7,1.3,4.1,2c1.5,0.7,2.9,1.4,4.4,2.1
			s2.9,1.3,4.4,2s2.7,1.2,4,1.8c1,0.4,2,0.9,3,1.3l0.8,0.3l1.1,0.5l0.5,0.2c1.3,0.5,2.6,1.1,3.9,1.6c1.6,0.7,3.1,1.3,4.7,1.9
			c1.4,0.5,2.8,1.1,4.1,1.6c0.4,0.2,0.8,0.3,1.1,0.4l0.5,0.2l2.4,0.9l0.3,0.1c1.1,0.4,2.2,0.8,3.3,1.2l0.5,0.2c1,0.4,2,0.7,3,1
			l2.4,0.8c0.7,0.3,1.4,0.5,2.1,0.7l0.2,0.1l0.6,0.2l0.8,0.3c1,0.3,1.9,0.6,2.9,0.9c2.8,0.9,5.7,1.8,8.5,2.6
			c1.4,0.4,2.9,0.8,4.3,1.3s3,0.8,4.4,1.2c22.5,6.1,45.5,10.3,68.7,12.5c1.6,0.2,3.1,0.3,4.7,0.4s3.1,0.3,4.7,0.4
			c3.2,0.2,6.3,0.4,9.5,0.5l2.3,0.1l2.3,0.1c1.5,0,2.9,0.1,4.4,0.1l3.4,0.1h2.1c1.6,0,3.2,0,4.8,0c3.4,0,6.8,0,10.2-0.1l2.3-0.1
			c1.1,0,2.2-0.1,3.3-0.1l3.3-0.1h0.3l2.8-0.1l1.1-0.1h0.6c0.7,0,1.5-0.1,2.2-0.1l3.2-0.2l2-0.2l3.3-0.3h0.2c0.8,0,1.6-0.1,2.3-0.2
			l2.7-0.3l2.7-0.3l2.7-0.3c2.7-0.3,5.3-0.6,8-1c1.5-0.2,2.9-0.4,4.3-0.6c2.2-0.3,4.3-0.6,6.5-1c14.9-2.4,29.8-5.6,44.3-9.6
			c1.3-0.3,2.7-0.7,4-1.1l0.3-0.1l0.5-0.2l0.4-0.1h0.2l0.4-0.1c0.8-0.2,1.6-0.5,2.5-0.7c1.4-0.4,2.7-0.8,4.1-1.3l2.4-0.8
			c0.8-0.2,1.6-0.5,2.4-0.8c1.6-0.5,3.2-1,4.7-1.6c1.6-0.5,3.1-1.1,4.7-1.6c3-1,6-2.1,8.9-3.3c1.6-0.6,3.2-1.2,4.7-1.8
			s3.1-1.2,4.7-1.9c1.6-0.7,3.1-1.3,4.7-2c1.6-0.6,3.1-1.3,4.5-1.9l3.9-1.7l1.8-0.8c1.1-0.5,2.2-1,3.3-1.5c1.5-0.7,3-1.4,4.5-2.1
			c2.3-1.1,4.7-2.3,7-3.5c1-0.5,1.9-1,2.8-1.5c1.8-0.9,3.5-1.8,5.3-2.8l4.3-2.3l3.8-2.1c17.4-9.8,34-20.9,49.8-33.2l3.4-2.7
			c1.3-1,2.6-2,3.8-3.1s2.6-2.1,4-3.3c1.5-1.3,3-2.5,4.5-3.8c0.8-0.7,1.6-1.4,2.4-2.1c1.8-1.5,3.5-3.1,5.2-4.7
			c0.9-0.8,1.7-1.6,2.6-2.4s1.9-1.7,2.8-2.6l1.5-1.5l1.5-1.5l1.5-1.5c0.5-0.5,1-1,1.5-1.5l1.5-1.5
			C785.7,787.7,786.2,787.2,786.7,786.7z M807.9,221l-0.3-0.4l-0.4-0.4v-0.1c-1-1.1-1.9-2.1-2.9-3.1c-0.8-0.8-1.5-1.6-2.3-2.4
			c-1.1-1.2-2.2-2.4-3.4-3.5l-0.4-0.4c-1.1-1.1-2.1-2.2-3.2-3.3c-0.8-0.8-1.6-1.6-2.4-2.4c-2.4-2.4-4.8-4.7-7.2-7
			c-0.8-0.8-1.6-1.5-2.5-2.3l0,0l0,0c-2.4-2.3-4.9-4.5-7.4-6.7l0,0c-0.9-0.8-1.7-1.5-2.6-2.3l-2-1.7c-1.9-1.7-3.9-3.3-5.8-4.9
			c-2.3-1.9-4.7-3.9-7.1-5.8c-2.1-1.7-4.2-3.3-6.3-4.9c-0.6-0.5-1.3-1-1.9-1.4c-0.9-0.7-1.8-1.4-2.8-2.1c-2.5-1.8-5-3.6-7.5-5.4
			l-3.3-2.3l-3.3-2.3l-3.3-2.2c-1.1-0.8-2.2-1.5-3.4-2.2l-3.4-2.2c-1.3-0.9-2.7-1.7-4-2.5c-2.1-1.3-4.2-2.6-6.3-3.8l-3.5-2l-2.8-1.6
			l-0.1-0.1l-0.8-0.4l-3.4-1.9l-3.5-2c-1-0.5-2-1.1-3-1.6l-0.2-0.1l-0.6-0.3l-3.3-1.7l-0.6-0.3l-1-0.5l-2-1c-2.5-1.3-5-2.5-7.5-3.7
			l-1.8-0.9c-0.6-0.3-1.2-0.6-1.8-0.9s-1.5-0.7-2.3-1.1l-0.3-0.1l-3.3-1.5l-2.7-1.2l-0.2-0.1l-2.4-1c-0.8-0.4-1.7-0.8-2.6-1.1
			c-1.4-0.6-2.9-1.2-4.3-1.8c-1.2-0.5-2.5-1-3.8-1.5L654,114l-0.7-0.3l-3.4-1.3c-1.5-0.6-2.9-1.1-4.4-1.7s-2.7-1-4-1.5l0,0
			c-0.3-0.1-0.7-0.3-1-0.4c-1.2-0.4-2.5-0.9-3.7-1.3h-0.1l-4.3-1.5h-0.2c-1.5-0.5-2.9-1-4.4-1.4s-3-1-4.5-1.4l0,0
			c-3-0.9-6-1.8-9-2.7c-3.2-0.9-6.4-1.8-9.7-2.6c-1.6-0.4-3.2-0.8-4.9-1.2c-1.6-0.4-3.3-0.8-4.9-1.2c-0.5-0.1-1-0.2-1.4-0.3
			l-2.1-0.5c-1-0.2-2-0.4-3-0.7l-0.5-0.1c-0.8-0.2-1.7-0.4-2.5-0.5c-0.6-0.1-1.2-0.3-1.8-0.4c-0.9-0.2-1.8-0.4-2.8-0.6h-0.2
			l-0.5-0.1l-0.6-0.1l-2.5-0.6l-3.5-0.7c-1.5-0.3-3-0.5-4.5-0.8l-1.9-0.3l-0.3-0.1l-0.4-0.1l-0.8-0.1l-0.6-0.1l-0.7-0.1l-2.1-0.3
			l-2.2-0.3c-1.5-0.2-3-0.4-4.5-0.6c-1.1-0.2-2.3-0.3-3.4-0.4c-0.8-0.1-1.6-0.2-2.4-0.3l-2.4-0.3l-1.7-0.2l-2.6-0.3l-2.8-0.3
			l-1.5-0.2h-0.2l-3.3-0.3l-1.2-0.1c-1-0.1-2-0.2-3-0.2h-0.6c-0.5,0-1.1-0.1-1.6-0.1l-2.4-0.2c-1.3-0.1-2.7-0.2-4-0.2
			c-1.2-0.1-2.4-0.1-3.5-0.2h-0.2l-3.4-0.1h-0.4h-0.9c-1.3,0-2.6-0.1-4-0.1l-3.8-0.1H506h-1.7c-1.4,0-2.8,0-4.2,0
			C389.9,84.3,284.1,128,206.3,206l7.1,7.1c0.5-0.5,1-1,1.5-1.5l1.5-1.5c0.5-0.5,1-1,1.5-1.5l1.5-1.5l1.5-1.5l1.6-1.5
			c0.9-0.9,1.9-1.8,2.8-2.6s1.7-1.6,2.6-2.4c1.7-1.6,3.5-3.1,5.2-4.6c0.8-0.7,1.6-1.4,2.4-2.1c1.5-1.3,3-2.6,4.5-3.9
			c1.3-1.1,2.7-2.2,4-3.3s2.6-2.1,3.8-3.1l3.4-2.6c15.8-12.2,32.4-23.3,49.8-33.2l3.8-2.1l4.3-2.3c1.8-0.9,3.5-1.9,5.3-2.8
			c0.9-0.5,1.9-1,2.9-1.4c2.3-1.2,4.7-2.3,7-3.4c1.5-0.7,3-1.4,4.5-2.1c1.1-0.5,2.2-1,3.3-1.5l1.8-0.8l3.9-1.7
			c1.5-0.7,3-1.3,4.5-1.9s3.1-1.3,4.7-2s3.1-1.3,4.7-1.9s3.1-1.2,4.7-1.8c3-1.1,5.9-2.2,8.9-3.3c1.6-0.6,3.1-1.1,4.7-1.6
			s3.1-1.1,4.7-1.6c0.8-0.3,1.6-0.5,2.4-0.8l2.4-0.8c1.4-0.4,2.7-0.8,4.1-1.3c0.8-0.3,1.6-0.5,2.5-0.7l0.4-0.1h0.2l0.4-0.1l0.5-0.2
			l0.3-0.1c1.3-0.4,2.6-0.8,4-1.1c14.6-4,29.4-7.2,44.3-9.6c2.2-0.3,4.3-0.7,6.5-1c1.4-0.2,2.9-0.4,4.3-0.6c2.7-0.3,5.3-0.7,8-1
			l2.7-0.3l2.7-0.3l2.7-0.3c0.8-0.1,1.6-0.2,2.3-0.2h0.2l3.3-0.3l2-0.2l3.2-0.2c0.7,0,1.5-0.1,2.2-0.1h0.6l1.1-0.1l2.8-0.1h0.3
			l3.3-0.1c1.1,0,2.2-0.1,3.3-0.1l2.3-0.1c3.4-0.1,6.8-0.1,10.2-0.1c1.6,0,3.2,0,4.8,0h2.1l3.4,0.1c1.5,0,2.9,0.1,4.4,0.1
			c0.8,0,1.5,0.1,2.3,0.1l2.3,0.1c3.2,0.1,6.3,0.3,9.5,0.6c1.6,0.1,3.2,0.2,4.7,0.4s3.2,0.3,4.7,0.4c23.2,2.2,46.2,6.3,68.7,12.5
			c1.5,0.4,3,0.8,4.4,1.2s2.9,0.8,4.3,1.3c2.8,0.8,5.7,1.7,8.5,2.6c1,0.3,1.9,0.6,2.9,0.9l0.8,0.3l0.6,0.2l0.2,0.1
			c0.7,0.2,1.4,0.5,2.2,0.7l2.4,0.8c1,0.3,2,0.7,3,1l0.5,0.2c1.1,0.4,2.2,0.8,3.3,1.2l0.3,0.1l2.4,0.9l0.5,0.2
			c0.4,0.1,0.8,0.3,1.1,0.4c1.4,0.5,2.8,1,4.1,1.6c1.6,0.6,3.2,1.3,4.7,1.9c1.3,0.5,2.6,1.1,3.9,1.6l0.5,0.2l1.1,0.5l0.8,0.3
			c1,0.4,2,0.8,3,1.3c1.3,0.6,2.7,1.2,4,1.8c1.5,0.7,2.9,1.3,4.4,2s2.9,1.4,4.4,2.1s2.7,1.3,4.1,2c2.7,1.3,5.4,2.7,8.1,4.1
			c0.9,0.5,1.8,0.9,2.7,1.4c31.2,16.5,60,37.1,85.8,61.1c0.8,0.8,1.6,1.5,2.5,2.3c2.4,2.3,4.8,4.6,7.2,7l1.2,1.2l1.2,1.2
			c2.4,2.4,4.7,4.8,7,7.2c0.8,0.8,1.5,1.6,2.3,2.4l-12,11.9l-6.9,6.9l-9.9,9.9l-163.9,164v-4.8l159.4-159.4l11.9-11.9l1.6-1.6
			l5.3-5.3l2.5-2.5l6.9-6.9c-2.3-2.4-4.6-4.8-7-7.2c-0.8-0.8-1.6-1.6-2.4-2.4c-2.4-2.3-4.8-4.7-7.2-7l-2.5-2.3
			c-60.7-56.5-137.4-92.8-219.5-103.9l-4-0.5c-2.8-0.4-5.7-0.7-8.6-1s-5.7-0.6-8.5-0.8c-1.6-0.1-3.1-0.3-4.7-0.4h-0.5l-3.9-0.2h-0.8
			c-0.3,0-0.6,0-1-0.1c-1.7-0.1-3.4-0.2-5.2-0.2s-3.3-0.1-4.9-0.2H511h-0.7c-1.5,0-3.1-0.1-4.6-0.1c-1.9,0-3.7,0-5.6,0
			c-1.5,0-3,0-4.5,0H494h-0.4l-4,0.1c-3.3,0.1-6.6,0.2-9.9,0.4H479c-1.6,0.1-3.2,0.2-4.8,0.3s-3.1,0.2-4.7,0.3l-4.6,0.4l-4.6,0.4
			c-1.3,0.1-2.5,0.3-3.8,0.4c-0.5,0-1.1,0.1-1.6,0.2c-1.5,0.2-2.9,0.3-4.4,0.5c-88.9,10.9-171.6,51.3-234.8,114.8l0,0l0.1,0.1
			l6.9,6.9l0,0C371.6,73.5,611.9,68.8,766.5,212.2c0.8,0.8,1.6,1.5,2.5,2.3c2.4,2.3,4.8,4.6,7.2,6.9l1.2,1.2l1.2,1.2l-11.8,11.8
			l-6.1,6.1l-41.6,41.6v-4.7l54.6-54.5c-2.4-2.4-4.8-4.7-7.2-7l-2.4-2.3c-37.6-34.9-81.7-62-129.8-79.7c-1.6-0.6-3.1-1.1-4.7-1.7
			c-1.3-0.5-2.7-0.9-4-1.4l-1.3-0.5c-1.5-0.5-3-1-4.4-1.5c-1.2-0.4-2.4-0.8-3.6-1.1l-0.5-0.2c-1-0.3-1.9-0.6-2.8-0.9
			c-1.2-0.4-2.5-0.7-3.7-1.1h-0.2l-1.2-0.3l-3.1-0.9h-0.1L603,125l-2.7-0.7l-1.9-0.5c-0.6-0.2-1.3-0.3-1.9-0.5l-1.1-0.3l-1.3-0.3
			l-4.3-1.1l-5-1.2h-0.2c-1.6-0.3-3.1-0.7-4.7-1l-0.5-0.1c-1.4-0.3-2.8-0.6-4.2-0.8l-1.4-0.3l-2.4-0.5l-1.7-0.3l-1.7-0.3
			c-44.9-7.9-90.8-7.9-135.7,0l-1.6,0.3l-1.6,0.3l-1,0.2l-2.2,0.4l-0.4,0.1l-3.6,0.7c-1.6,0.3-3.2,0.7-4.7,1
			c-3.2,0.7-6.3,1.4-9.4,2.2l-4.7,1.2l-2,0.5l-0.8,0.2l-0.8,0.2l-3.6,1l-1,0.3l-0.4,0.1l-0.6,0.2c-1.4,0.4-2.8,0.8-4.2,1.2l-1,0.3
			l-0.6,0.2c-0.8,0.3-1.6,0.5-2.4,0.8l-1.2,0.4c-1.4,0.4-2.9,0.9-4.3,1.4l-4.5,1.5c-9,3-17.9,6.4-26.7,10.1
			c-46.2,19.5-88.2,47.8-123.6,83.3l0,0l0.1,0.1l6.9,6.9l0.1,0.1c98.5-98.4,242.9-134.9,376.3-95.2l-2.7,2.7
			c-131.8-38.8-274.2-2.4-371.3,94.8l0,0l7.1,7.1C377.3,105.5,595.3,98,740.1,224.5L575.4,389.2l-69.3,69.3h0.1
			c18.3,2.7,32.7,17.1,35.4,35.4l69.2-69.2l171.8-171.8l0,0l2.5-2.4l6.9-6.9l2.5-2.5l6.9-6.9l2.5-2.5l7.1-7.1
			C809.9,223.3,808.9,222.1,807.9,221z"/>
		<g id="Cell_no_BG_">
			<path d="M500,463.9c1.7,0,3.3,0.1,5,0.3l0.4,0.1h0.3c15.5,2.5,27.6,14.8,29.9,30.3c0,0.1,0,0.1,0,0.2c0.2,1.7,0.4,3.4,0.4,5.2
				c0,19.9-16.1,36-36,36.1c-1.7,0-3.5-0.1-5.2-0.4l-0.4-0.1h-0.1c-15.5-2.6-27.5-14.8-29.9-30.3c0-0.1,0-0.1,0-0.2
				c-0.2-1.7-0.4-3.4-0.4-5.2C464,480.1,480.1,464,500,463.9 M500,458c-23.2,0-42,18.8-42,42c0,2,0.1,4.1,0.4,6.1c0,0,0,0,0,0.1
				c2.7,18.3,17.1,32.6,35.4,35.4h0.1c2,0.3,4.1,0.4,6.1,0.5c23.2,0,42-18.8,42-42c0-2-0.1-4.1-0.4-6.1c0,0,0,0,0-0.1
				c-2.7-18.3-17.1-32.7-35.4-35.4h-0.1C504.1,458.2,502.1,458,500,458z"/>
			<path d="M492.9,493.6c3.5-3.9,9.5-4.2,13.4-0.7c0.3,0.2,0.5,0.5,0.7,0.7l1.6-1c-4-4.8-11.2-5.4-16-1.4c-0.5,0.4-1,0.9-1.4,1.4
				L492.9,493.6z"/>
			<path d="M508.3,495.2c2.7,4.5,1.1,10.4-3.4,13c-1.2,0.7-2.5,1.1-3.8,1.2v1.9c6.3-0.5,10.9-6.1,10.4-12.3
				c-0.1-1.7-0.7-3.3-1.5-4.7L508.3,495.2z"/>
			<path d="M499,509.5c-5.2-0.5-9-5.2-8.5-10.4c0.1-1.4,0.6-2.7,1.2-3.8l-1.6-0.9c-3.2,5.4-1.3,12.4,4.1,15.6
				c1.4,0.8,3.1,1.4,4.7,1.5L499,509.5L499,509.5z"/>
			<circle cx="500" cy="500" r="7"/>
		</g>
	</g>
	<g id="Taxon_Colours">
		
			<linearGradient id="SVGID_1_" gradientUnits="userSpaceOnUse" x1="208.33" y1="-7.1001" x2="497.82" y2="-7.1001" gradientTransform="matrix(1 0 0 1 0 156)">
			<stop  offset="0" style="stop-color:#FF33A2"/>
			<stop  offset="1" style="stop-color:#FF33A2;stop-opacity:0"/>
		</linearGradient>
		<path class="st0" d="M213.3,213.3l-7.1-7.1C284,128.2,389.8,84.4,500,84.5v10c-3.4,0-6.8,0-10.2,0.1l-2.3,0.1
			c-1.1,0-2.2,0.1-3.3,0.1l-3.3,0.1h-0.3l-2.8,0.1l-1.1,0.1h-0.6c-0.7,0-1.5,0.1-2.2,0.1l-3.2,0.2l-2,0.2l-3.3,0.3h-0.2
			c-0.8,0-1.6,0.1-2.3,0.2l-2.7,0.3l-2.7,0.3l-2.7,0.3c-2.7,0.3-5.3,0.6-8,1c-1.5,0.2-2.9,0.4-4.3,0.6c-2.2,0.3-4.3,0.6-6.5,1
			c-14.9,2.4-29.8,5.6-44.3,9.6c-1.3,0.3-2.6,0.7-4,1.1l-0.3,0.1l-0.5,0.2l-0.4,0.1h-0.2l-0.4,0.1c-0.8,0.2-1.6,0.5-2.5,0.7
			c-1.4,0.4-2.7,0.8-4.1,1.3l-2.4,0.8c-0.8,0.2-1.6,0.5-2.4,0.8c-1.6,0.5-3.2,1-4.7,1.6c-1.6,0.5-3.1,1.1-4.7,1.6
			c-3,1.1-6,2.1-8.9,3.3c-1.6,0.6-3.2,1.2-4.7,1.8s-3.1,1.3-4.7,1.9c-1.6,0.7-3.1,1.3-4.7,2s-3.1,1.3-4.5,1.9l-3.9,1.7l-1.8,0.8
			c-1.1,0.5-2.2,1-3.3,1.5c-1.5,0.7-3,1.4-4.5,2.1c-2.3,1.1-4.7,2.3-7,3.4c-1,0.5-1.9,0.9-2.9,1.4c-1.8,0.9-3.6,1.8-5.3,2.8
			l-4.3,2.3l-3.7,2.1c-17.4,9.8-34,20.9-49.8,33.2l-3.4,2.6c-1.3,1-2.6,2.1-3.8,3.1s-2.6,2.1-4,3.3c-1.5,1.3-3,2.5-4.5,3.9
			c-0.8,0.7-1.6,1.4-2.4,2.1c-1.7,1.5-3.5,3.1-5.2,4.6c-0.9,0.8-1.7,1.6-2.6,2.4s-1.9,1.7-2.8,2.6l-1.6,1.5l-1.5,1.5l-1.5,1.5
			c-0.5,0.5-1,1-1.5,1.5l-1.5,1.5C214.3,212.3,213.8,212.8,213.3,213.3z"/>
		
			<linearGradient id="SVGID_2_" gradientUnits="userSpaceOnUse" x1="208.33" y1="4.3" x2="497.82" y2="4.3" gradientTransform="matrix(1 0 0 1 0 156)">
			<stop  offset="0" style="stop-color:#E41718"/>
			<stop  offset="1" style="stop-color:#E41718;stop-opacity:0"/>
		</linearGradient>
		<path class="st1" d="M500,107.8c-104-0.1-203.9,41.2-277.3,114.9l0,0l-6.9-6.9l-0.1-0.1l0,0c63.3-63.4,145.9-103.8,234.8-114.8
			c1.5-0.2,2.9-0.3,4.4-0.5c0.5-0.1,1.1-0.1,1.6-0.2c1.3-0.1,2.5-0.3,3.8-0.4l4.6-0.4l4.6-0.4c1.6-0.1,3.1-0.2,4.7-0.3
			c1.6-0.1,3.2-0.2,4.8-0.3h0.8c3.3-0.2,6.6-0.3,9.9-0.4l4-0.1h0.4h1.6c1.5,0,3,0,4.5,0L500,107.8z"/>
		
			<linearGradient id="SVGID_3_" gradientUnits="userSpaceOnUse" x1="208.33" y1="15.6" x2="497.82" y2="15.6" gradientTransform="matrix(1 0 0 1 0 156)">
			<stop  offset="0" style="stop-color:#5BB9EB"/>
			<stop  offset="1" style="stop-color:#5BB9EB;stop-opacity:0"/>
		</linearGradient>
		<path class="st2" d="M500,121.2c-100.5-0.1-196.9,39.8-267.9,111l-0.1-0.1l-6.9-6.9l-0.1-0.1l0,0c35.4-35.5,77.4-63.8,123.6-83.3
			c8.8-3.7,17.7-7.1,26.7-10.1l4.5-1.5c1.4-0.5,2.9-0.9,4.3-1.4l1.2-0.4c0.8-0.3,1.6-0.5,2.4-0.8l0.6-0.2l1-0.3
			c1.4-0.4,2.8-0.8,4.2-1.2l0.6-0.2l0.4-0.1l1-0.3l3.6-1l0.8-0.2l0.8-0.2l2-0.5l4.7-1.2c3.1-0.8,6.3-1.5,9.4-2.2
			c1.6-0.3,3.1-0.7,4.7-1l3.6-0.7l0.4-0.1l2.2-0.4l1-0.2l1.6-0.3l1.6-0.3c22.4-4,45.1-6,67.9-6v10.2H500z"/>
		
			<linearGradient id="SVGID_4_" gradientUnits="userSpaceOnUse" x1="208.33" y1="26.9999" x2="497.82" y2="26.9999" gradientTransform="matrix(1 0 0 1 0 156)">
			<stop  offset="0" style="stop-color:#002DAA"/>
			<stop  offset="1" style="stop-color:#002DAA;stop-opacity:0"/>
		</linearGradient>
		<path class="st3" d="M234.5,234.5c70.3-70.5,165.9-110.1,265.5-110v10c-97-0.2-190,38.4-258.4,107L234.5,234.5L234.5,234.5z"/>
		
			<linearGradient id="SVGID_5_" gradientUnits="userSpaceOnUse" x1="793" y1="661.0004" x2="502.45" y2="661.0004" gradientTransform="matrix(1 0 0 1 0 156)">
			<stop  offset="0" style="stop-color:#FBF796"/>
			<stop  offset="1" style="stop-color:#FBF796;stop-opacity:0"/>
		</linearGradient>
		<path class="st4" d="M646.2,846c-46.2,19.6-95.9,29.6-146.2,29.5v-10c97,0.1,190-38.4,258.4-107l7.1,7.1l0,0
			C731.3,799.8,690.8,827.1,646.2,846z"/>
		
			<linearGradient id="SVGID_6_" gradientUnits="userSpaceOnUse" x1="793" y1="672.2518" x2="502.45" y2="672.2518" gradientTransform="matrix(1 0 0 1 0 156)">
			<stop  offset="0" style="stop-color:#44AC36"/>
			<stop  offset="1" style="stop-color:#44AC36;stop-opacity:0"/>
		</linearGradient>
		<path class="st5" d="M567.9,882.9c-22.4,4-45.1,6-67.9,5.9v-10.1c100.5,0.1,196.9-39.8,267.9-111l0.1,0.1l6.9,6.9l0.1,0.1l0,0
			c-35.4,35.5-77.4,63.8-123.6,83.3c-8.8,3.7-17.7,7.1-26.7,10.1l-4.5,1.5c-1.4,0.5-2.9,0.9-4.3,1.4l-1.2,0.4
			c-0.8,0.3-1.6,0.5-2.4,0.8l-0.6,0.2l-1,0.3c-1.4,0.4-2.8,0.8-4.2,1.2l-0.6,0.2l-0.4,0.1l-1,0.3l-3.6,1l-0.8,0.2l-0.8,0.2l-2,0.5
			l-4.7,1.2c-3.1,0.8-6.3,1.5-9.4,2.2c-1.6,0.3-3.2,0.7-4.7,1l-3.6,0.7l-0.4,0.1l-2.2,0.4l-1,0.2l-1.6,0.3L567.9,882.9z"/>
		
			<linearGradient id="SVGID_7_" gradientUnits="userSpaceOnUse" x1="793" y1="683.7" x2="502.45" y2="683.7" gradientTransform="matrix(1 0 0 1 0 156)">
			<stop  offset="0" style="stop-color:#F39400"/>
			<stop  offset="1" style="stop-color:#F39400;stop-opacity:0"/>
		</linearGradient>
		<path class="st6" d="M504.5,902.1c-1.5,0-3,0-4.5,0v-9.9c104,0.1,203.9-41.2,277.3-114.9l6.9,6.9l0.1,0.1l0,0
			c-63.2,63.4-145.9,103.8-234.8,114.8l-4.3,0.5c-0.5,0.1-1.1,0.1-1.6,0.2c-1.3,0.1-2.5,0.3-3.8,0.4l-4.6,0.4l-4.6,0.4l-4.7,0.3
			c-1.6,0.1-3.2,0.2-4.8,0.3h-0.8c-3.3,0.2-6.6,0.3-9.9,0.4l-4,0.1H506H504.5z"/>
		
			<linearGradient id="SVGID_8_" gradientUnits="userSpaceOnUse" x1="793" y1="694.9003" x2="502.45" y2="694.9003" gradientTransform="matrix(1 0 0 1 0 156)">
			<stop  offset="0" style="stop-color:#BFBFBF"/>
			<stop  offset="1" style="stop-color:#BFBFBF;stop-opacity:0"/>
		</linearGradient>
		<path class="st7" d="M793.8,793.8C716,871.8,610.2,915.6,500,915.5v-10c3.4,0,6.8,0,10.2-0.1l2.3-0.1c1.1,0,2.2-0.1,3.3-0.1
			l3.3-0.1h0.3l2.8-0.1l1.1-0.1h0.6c0.7,0,1.5-0.1,2.2-0.1l3.2-0.2l2-0.2l3.3-0.3h0.2c0.8,0,1.6-0.1,2.3-0.2l2.7-0.3l2.7-0.3
			l2.7-0.3c2.7-0.3,5.3-0.6,8-1c1.5-0.2,2.9-0.4,4.3-0.6c2.2-0.3,4.3-0.6,6.5-1c14.9-2.4,29.8-5.6,44.3-9.6c1.3-0.3,2.7-0.7,4-1.1
			l0.3-0.1l0.5-0.2l0.4-0.1h0.2l0.4-0.1c0.8-0.2,1.6-0.5,2.5-0.7c1.4-0.4,2.7-0.8,4.1-1.3l2.4-0.8c0.8-0.2,1.6-0.5,2.4-0.8
			c1.6-0.5,3.2-1,4.7-1.6c1.6-0.5,3.1-1.1,4.7-1.6c3-1,6-2.1,8.9-3.3c1.6-0.6,3.2-1.2,4.7-1.8c1.6-0.6,3.1-1.3,4.7-1.9
			c1.6-0.7,3.1-1.3,4.7-2s3.1-1.3,4.5-1.9l3.9-1.7l1.8-0.8c1.1-0.5,2.2-1,3.3-1.5c1.5-0.7,3-1.4,4.5-2.1c2.3-1.1,4.7-2.3,7-3.5
			c1-0.5,1.9-1,2.8-1.5c1.8-0.9,3.5-1.8,5.3-2.8l4.3-2.3l3.8-2.1c17.4-9.8,34-20.9,49.8-33.2l3.4-2.7c1.3-1,2.6-2,3.8-3.1
			c1.3-1,2.6-2.1,4-3.3c1.5-1.3,3-2.5,4.5-3.8c0.8-0.7,1.6-1.4,2.4-2.1c1.8-1.5,3.5-3.1,5.2-4.7c0.9-0.8,1.7-1.6,2.6-2.4
			s1.9-1.7,2.8-2.6l1.5-1.5l1.5-1.5l1.5-1.5c0.5-0.5,1-1,1.5-1.5l1.5-1.5c0.5-0.5,1-1,1.5-1.5L793.8,793.8z"/>
	</g>
	<g id="Circle_silhouette">
		<g id="Circle_sides">
			<path id="Circle_BU" class="st8" d="M181.8,726.3C80,583.2,86.3,389.9,197,253.6"/>
			<path id="Circle_BU-2" class="st8" d="M818.2,273.7C920,416.8,913.7,610.1,803,746.4"/>
		</g>
	</g>
</g>
</svg>
