<svg id="ZooUno" xmlns="http://www.w3.org/2000/svg" viewBox="0 0 270.58 382.68"><defs><style>.cls-1{fill:#bfbfbf;}.cls-2{isolation:isolate;}</style></defs><title>+2 Cnidário</title><g id="Final_Cards" data-name="Final Cards"><g id="Cnidaria"><g id="Cnidaria-2"><path class="cls-1" d="M73.05,80.84A108.07,108.07,0,0,1,90.38,67a91.26,91.26,0,0,1,20.09-9.51,81.24,81.24,0,0,1,21.92-3.91,83.28,83.28,0,0,1,22.19,2.13c14.58,3.37,28,10.86,39.24,20.62a126.47,126.47,0,0,1,27.64,34.84,154,154,0,0,1,9.2,20.32,169.62,169.62,0,0,1,6.19,21.42,165.53,165.53,0,0,1,3.37,22A176.7,176.7,0,0,1,233.56,241a150.22,150.22,0,0,1-18.91,40.06,149.79,149.79,0,0,0,18-40.32,175.55,175.55,0,0,0,6.69-43.61l.06-5.53-.13-5.52c0-1.85-.16-3.68-.26-5.52s-.21-3.68-.42-5.51a163.8,163.8,0,0,0-3.42-21.81A167.72,167.72,0,0,0,229,132.1a153.57,153.57,0,0,0-9.16-20,124.67,124.67,0,0,0-27.12-34.5,92.39,92.39,0,0,0-38.47-20.51,82.18,82.18,0,0,0-21.82-2.35,81.18,81.18,0,0,0-21.69,3.6,91.09,91.09,0,0,0-20.12,9A107.58,107.58,0,0,0,73.05,80.84Z"/><path class="cls-1" d="M54.91,103.14a151.07,151.07,0,0,0-17.43,40.11,175,175,0,0,0-6.3,43.22A185.36,185.36,0,0,0,32,208.32c.31,3.63.85,7.24,1.37,10.85l1,5.38c.31,1.79.76,3.56,1.13,5.34a168.86,168.86,0,0,0,6.2,20.94,151.23,151.23,0,0,0,9.09,19.84,125.06,125.06,0,0,0,26.79,34.15,99.15,99.15,0,0,0,17.77,12.54,88.35,88.35,0,0,0,20.18,8,81,81,0,0,0,43.1-.7,88.18,88.18,0,0,0,20.05-8.61,105.71,105.71,0,0,0,17.61-13,105.91,105.91,0,0,1-17.38,13.43,89.16,89.16,0,0,1-20,9.09,82,82,0,0,1-43.69,1.21c-14.4-3.48-27.63-11-38.72-20.68a126.82,126.82,0,0,1-27.3-34.54A152.2,152.2,0,0,1,40,251.44a169.46,169.46,0,0,1-6.19-21.18c-.37-1.8-.81-3.59-1.12-5.4l-1-5.44c-.5-3.64-1-7.28-1.33-10.95a168.92,168.92,0,0,1-.67-22A175.45,175.45,0,0,1,36.62,143,151.36,151.36,0,0,1,54.91,103.14Z"/><path class="cls-1" d="M75.2,83.87A104.39,104.39,0,0,1,91.93,70.45a88.25,88.25,0,0,1,19.4-9.21,78.42,78.42,0,0,1,21.15-3.78,79.52,79.52,0,0,1,21.41,2.12c14,3.32,27,10.61,37.75,20.09a122.87,122.87,0,0,1,26.51,33.75A148.48,148.48,0,0,1,227,133.06a166.78,166.78,0,0,1,6,20.68c.36,1.76.79,3.5,1.08,5.27l.92,5.31c.48,3.56,1,7.11,1.28,10.69a171.59,171.59,0,0,1,.63,21.51,172.44,172.44,0,0,1-6.7,42.39,147.74,147.74,0,0,1-17.81,39,147.48,147.48,0,0,0,17.23-39.12A171.72,171.72,0,0,0,236,196.54a181.58,181.58,0,0,0-.74-21.38c-.29-3.56-.81-7.09-1.3-10.62l-.93-5.27c-.28-1.76-.73-3.49-1.08-5.24a166.17,166.17,0,0,0-6-20.52A150.52,150.52,0,0,0,217.07,114,121.81,121.81,0,0,0,190.9,80.5a89,89,0,0,0-37.23-20,77.47,77.47,0,0,0-42.16,1.31A88.11,88.11,0,0,0,92.09,70.7,104.3,104.3,0,0,0,75.2,83.87Z"/><path class="cls-1" d="M57.21,106.38a148.51,148.51,0,0,0-16.63,38.9,171.74,171.74,0,0,0-6,41.86,177.74,177.74,0,0,0,.83,21.15,163.42,163.42,0,0,0,3.35,20.89,166.22,166.22,0,0,0,6,20.29,146.78,146.78,0,0,0,8.74,19.24,122.11,122.11,0,0,0,25.85,33.2A89.18,89.18,0,0,0,116.09,322a77.46,77.46,0,0,0,41.74-.75l1.27-.36,1.26-.43,2.5-.85,2.47-1c.82-.31,1.64-.65,2.44-1l2.41-1.09,2.37-1.2c1.59-.77,3.09-1.7,4.64-2.55A102.83,102.83,0,0,0,194.12,300a101.6,101.6,0,0,1-16.78,13c-1.53.88-3,1.84-4.62,2.63l-2.36,1.24L168,318c-.8.39-1.61.74-2.44,1.07l-2.46,1-2.51.89-1.26.44-1.27.39a78.37,78.37,0,0,1-42.15,1.09c-13.86-3.43-26.58-10.73-37.23-20.15A123.29,123.29,0,0,1,52.45,269.3a147.14,147.14,0,0,1-8.76-19.42,165.59,165.59,0,0,1-6-20.45,162.67,162.67,0,0,1-3.31-21c-.39-3.53-.54-7.08-.71-10.62l-.08-5.33c0-1.77,0-3.55.07-5.32a171.89,171.89,0,0,1,6.32-42A149,149,0,0,1,57.21,106.38Z"/><path class="cls-1" d="M77.35,86.91a100.86,100.86,0,0,1,16.13-13A84.65,84.65,0,0,1,112.17,65a74.49,74.49,0,0,1,41-1.52c13.5,3.29,25.9,10.35,36.25,19.54a119.17,119.17,0,0,1,25.4,32.65,142.83,142.83,0,0,1,8.48,19,162.9,162.9,0,0,1,5.76,19.95,157.8,157.8,0,0,1,3.17,20.51,171.28,171.28,0,0,1-5.44,61.7,144.88,144.88,0,0,1-16.73,37.83,144.65,144.65,0,0,0,16.44-37.91,168.81,168.81,0,0,0,6-40.89,170.13,170.13,0,0,0-.73-20.69,158.61,158.61,0,0,0-3.23-20.44,162.89,162.89,0,0,0-5.78-19.86A143.77,143.77,0,0,0,214.29,116a118.36,118.36,0,0,0-25.2-32.55c-10.27-9.18-22.59-16.23-36-19.53a75.27,75.27,0,0,0-20.5-2.16,74.24,74.24,0,0,0-20.31,3.57A84,84,0,0,0,93.56,74,101.52,101.52,0,0,0,77.35,86.91Z"/><path class="cls-1" d="M59.52,109.65a146.36,146.36,0,0,0-15.84,37.68A168.4,168.4,0,0,0,38,187.82c-.1,3.42,0,6.83.09,10.25s.35,6.82.74,10.21a160.8,160.8,0,0,0,9,39.84,139.27,139.27,0,0,0,8.41,18.64,118.83,118.83,0,0,0,25,32.24,85.54,85.54,0,0,0,35.48,19.59,74.25,74.25,0,0,0,40.4-.83,82.08,82.08,0,0,0,18.65-8.34A99.11,99.11,0,0,0,192,297a98.36,98.36,0,0,1-16.16,12.57,81.71,81.71,0,0,1-18.64,8.5,74.46,74.46,0,0,1-40.59.94,85.75,85.75,0,0,1-35.72-19.6,119.35,119.35,0,0,1-25.08-32.33,141.62,141.62,0,0,1-8.4-18.74,162.84,162.84,0,0,1-9-40c-.38-3.41-.52-6.83-.72-10.25,0-3.42-.17-6.84-.06-10.26a168.4,168.4,0,0,1,5.77-40.56A146.51,146.51,0,0,1,59.52,109.65Z"/><g class="cls-2"><path d="M206.14,222.1v14.27H126.21a26.23,26.23,0,0,1,1.73-10.31A54.51,54.51,0,0,1,137.72,210q6.72-7.92,19.42-18.31,19.71-16.17,26.64-25.61t6.93-17.86a19.84,19.84,0,0,0-6.31-14.89q-6.31-6.06-16.46-6.06-10.72,0-17.16,6.43t-6.52,17.82L129,149.93q1.57-17.07,11.79-26T168.28,115q17.4,0,27.55,9.65A31.68,31.68,0,0,1,206,148.52a36.28,36.28,0,0,1-3,14.27,55.37,55.37,0,0,1-9.86,14.76q-6.89,7.75-22.89,21.28-13.36,11.22-17.16,15.22a48.88,48.88,0,0,0-6.27,8Z"/></g><g class="cls-2"><path d="M78.45,208.05V186.31H56.87v-9.09H78.45V155.64h9.19v21.58h21.58v9.09H87.64v21.74Z"/></g><g class="cls-2"><path class="cls-1" d="M118.65,30.86a6.73,6.73,0,0,0-3.52-1.07A3.89,3.89,0,0,0,111,33.71a3.83,3.83,0,0,0,4.14,3.88,6.7,6.7,0,0,0,3.57-1.16V38a7.51,7.51,0,0,1-3.71.9,5.23,5.23,0,0,1-5.52-5.1,5.33,5.33,0,0,1,5.61-5.4,8.89,8.89,0,0,1,3.51.84Z"/><path class="cls-1" d="M121.68,33h0a2.6,2.6,0,0,1,2-1c1.27,0,2.29.87,2.29,2.71v4.16h-1.33V34.64c0-1-.51-1.63-1.32-1.63a2.21,2.21,0,0,0-1.68,1v4.83h-1.33V32.08h1.33Z"/><path class="cls-1" d="M128.58,30.83a.79.79,0,1,1,.79-.79A.8.8,0,0,1,128.58,30.83Zm.66,8h-1.33V32.08h1.33Z"/><path class="cls-1" d="M137,38.81h-2.83c-2,0-3.27-1.37-3.27-3.52a3.23,3.23,0,0,1,3.36-3.35,4,4,0,0,1,1.41.27V28.58H137Zm-1.33-5.42a3.09,3.09,0,0,0-1.24-.25,2.13,2.13,0,0,0-2.16,2.34c0,1.26.51,2.21,2.05,2.21h1.35Z"/><path class="cls-1" d="M144,38.42a2.14,2.14,0,0,1-1.29.52c-.58,0-.9-.21-1-.69a2.9,2.9,0,0,1-1.82.69,1.62,1.62,0,0,1-1.65-1.65c0-1.33,1.21-1.74,2.29-2.13l1.18-.42v-.36c0-.84-.41-1.18-1.21-1.18a2.79,2.79,0,0,0-2.13,1.11V32.85a2.76,2.76,0,0,1,2.23-.92,2.16,2.16,0,0,1,2.45,2.22v3.46c0,.25.09.34.25.34a1.6,1.6,0,0,0,.71-.36Zm-2.29-2.94c-1.14.39-2.13.78-2.13,1.58a.92.92,0,0,0,1,.95,1.71,1.71,0,0,0,1.17-.56Zm1-6.48-1.68,2.21h-.83l1-2.21Z"/><path class="cls-1" d="M146.64,32.08v1.54h0c.67-1.19,1.32-1.68,2-1.68a2.35,2.35,0,0,1,1.6.78l-.7,1.16a2.2,2.2,0,0,0-1.25-.66,1.88,1.88,0,0,0-1.63,2.07v3.52H145.3V32.08Z"/><path class="cls-1" d="M151.86,30.83a.79.79,0,1,1,.79-.79A.8.8,0,0,1,151.86,30.83Zm.66,8h-1.33V32.08h1.33Z"/><path class="cls-1" d="M161.23,35.38a3.6,3.6,0,1,1-3.65-3.44A3.43,3.43,0,0,1,161.23,35.38Zm-5.83,0a2.24,2.24,0,1,0,4.47,0,2.19,2.19,0,0,0-2.29-2.25A2.14,2.14,0,0,0,155.4,35.38Z"/></g><path class="cls-1" d="M37,42.66H43.8V45H31.69l9-9.61a3.55,3.55,0,0,0,1-2.45,3.9,3.9,0,0,0-1.07-2.73A3.36,3.36,0,0,0,38.1,29a3.76,3.76,0,0,0-2.25.77,3.66,3.66,0,0,0-1.37,2.37H32.19a6.19,6.19,0,0,1,2.06-4.08,6.08,6.08,0,0,1,4-1.45,5.39,5.39,0,0,1,4,1.83A6.12,6.12,0,0,1,44,32.83,5.53,5.53,0,0,1,43.59,35,8.06,8.06,0,0,1,42,37.25Z"/><path class="cls-1" d="M19.53,35.77h4.36V31.4h1.19v4.37h4.41V37H25.08v4.34H23.89V37H19.53Z"/><path class="cls-1" d="M233.53,339.73h-6.75v-2.37H238.9l-9,9.61a3.55,3.55,0,0,0-1,2.45,3.9,3.9,0,0,0,1.07,2.73,3.36,3.36,0,0,0,2.52,1.16,3.76,3.76,0,0,0,2.25-.77,3.66,3.66,0,0,0,1.37-2.37h2.34a6.19,6.19,0,0,1-2.06,4.08,6.08,6.08,0,0,1-4.05,1.45,5.39,5.39,0,0,1-4.05-1.83,6.12,6.12,0,0,1-1.73-4.34,5.53,5.53,0,0,1,.44-2.22,7.91,7.91,0,0,1,1.55-2.2Z"/><path class="cls-1" d="M251.05,346.62h-4.36V351H245.5v-4.37h-4.41v-1.2h4.41v-4.34h1.19v4.34h4.36Z"/><g id="Border"><g id="Outer_Line" data-name="Outer Line"><path class="cls-1" d="M269.19,1.39V381.28H1.39V1.39h267.8M270.58,0H0V382.68H270.58Z"/></g><path class="cls-1" d="M266.68,4.47V378.2H3.9V4.47H266.68m1.13-1.12H2.77v376h265V3.35Z"/><path class="cls-1" d="M264.18,7.55V375.12H6.4V7.55H264.18m.86-.86H5.54V376H265V6.69Z"/><path class="cls-1" d="M261.68,10.63V372H8.9V10.63H261.68m.59-.59H8.31v362.6h254V10Z"/><path class="cls-1" d="M259.17,13.71V369H11.41V13.71H259.17m.33-.32H11.08v355.9H259.5Z"/><g id="Inner_Line" data-name="Inner Line"><path class="cls-1" d="M256.67,16.79V365.88H13.91V16.79H256.67m.06-.06H13.85V366H256.73Z"/></g></g><g class="cls-2"><path class="cls-1" d="M151.93,351.82a6.73,6.73,0,0,0,3.53,1.07,3.89,3.89,0,0,0,4.08-3.92,3.83,3.83,0,0,0-4.14-3.88,6.7,6.7,0,0,0-3.57,1.16v-1.61a7.51,7.51,0,0,1,3.71-.9,5.23,5.23,0,0,1,5.52,5.1,5.33,5.33,0,0,1-5.61,5.4,8.89,8.89,0,0,1-3.51-.84Z"/><path class="cls-1" d="M148.9,349.72h0a2.6,2.6,0,0,1-2,1c-1.28,0-2.29-.87-2.29-2.71v-4.16h1.33V348c0,1,.51,1.63,1.32,1.63a2.21,2.21,0,0,0,1.68-1v-4.83h1.33v6.73H148.9Z"/><path class="cls-1" d="M142,351.85a.79.79,0,1,1-.79.79A.8.8,0,0,1,142,351.85Zm-.66-8h1.33v6.73h-1.33Z"/><path class="cls-1" d="M133.6,343.87h2.84c2,0,3.27,1.37,3.27,3.52a3.23,3.23,0,0,1-3.36,3.35,4,4,0,0,1-1.41-.27v3.63H133.6Zm1.33,5.42a3.09,3.09,0,0,0,1.24.25,2.13,2.13,0,0,0,2.16-2.34c0-1.26-.51-2.21-2.05-2.21h-1.35Z"/><path class="cls-1" d="M126.55,344.26a2.14,2.14,0,0,1,1.29-.52c.58,0,.9.21,1,.69a2.9,2.9,0,0,1,1.81-.69,1.63,1.63,0,0,1,1.65,1.65c0,1.33-1.21,1.74-2.29,2.13l-1.18.42v.36c0,.84.4,1.18,1.21,1.18a2.79,2.79,0,0,0,2.13-1.11v1.46a2.76,2.76,0,0,1-2.23.92,2.16,2.16,0,0,1-2.44-2.22v-3.46c0-.25-.09-.34-.26-.34a1.59,1.59,0,0,0-.7.36Zm1.29,9.42,1.68-2.21h.82l-1,2.21Zm1-6.48c1.14-.39,2.13-.78,2.13-1.58a.92.92,0,0,0-1-.95,1.71,1.71,0,0,0-1.17.56Z"/><path class="cls-1" d="M123.94,350.6v-1.54h0c-.67,1.19-1.32,1.68-1.95,1.68a2.35,2.35,0,0,1-1.6-.78l.7-1.16a2.2,2.2,0,0,0,1.25.66,1.88,1.88,0,0,0,1.63-2.07v-3.52h1.33v6.73Z"/><path class="cls-1" d="M118.72,351.85a.79.79,0,1,1-.79.79A.8.8,0,0,1,118.72,351.85Zm-.66-8h1.33v6.73h-1.33Z"/><path class="cls-1" d="M109.35,347.3a3.6,3.6,0,1,1,3.65,3.44A3.43,3.43,0,0,1,109.35,347.3Zm5.83,0a2.24,2.24,0,1,0-4.47,0,2.19,2.19,0,0,0,2.29,2.25A2.14,2.14,0,0,0,115.18,347.3Z"/></g></g></g></g></svg>