<?xml version="1.0" encoding="utf-8"?>
<!-- Generator: Adobe Illustrator 21.1.0, SVG Export Plug-In . SVG Version: 6.00 Build 0)  -->
<svg version="1.1" id="ZooUno" xmlns="http://www.w3.org/2000/svg" xmlns:xlink="http://www.w3.org/1999/xlink" x="0px" y="0px"
	 viewBox="0 0 270.58 382.68" style="enable-background:new 0 0 270.58 382.68;" xml:space="preserve">
<style type="text/css">
	.st0{fill:#F39400;}
	.st1{enable-background:new    ;}
</style>
<title>ZooUno Fields Cartas Finais pra Lari</title>
<g id="Final_Cards">
	<g id="Molusca">
		<g id="Molusca-2">
			<path class="st0" d="M73.05,80.84c5.29-5.2,11.09-9.83,17.33-13.84c6.28-3.98,13.03-7.17,20.09-9.51
				c7.09-2.3,14.47-3.62,21.92-3.91c7.46-0.29,14.92,0.43,22.19,2.13c14.58,3.37,28,10.86,39.24,20.62
				c11.2,9.89,20.56,21.69,27.64,34.84c3.55,6.54,6.63,13.33,9.2,20.32c2.53,7,4.6,14.15,6.19,21.42c1.62,7.25,2.74,14.6,3.37,22
				c1.98,22.25-0.28,44.68-6.66,66.09c-4.29,14.21-10.66,27.71-18.91,40.06c7.96-12.48,14.02-26.06,18-40.32
				c4.06-14.2,6.3-28.85,6.69-43.61l0.06-5.53l-0.13-5.52c0-1.85-0.16-3.68-0.26-5.52s-0.21-3.68-0.42-5.51
				c-0.65-7.34-1.79-14.63-3.42-21.81c-1.59-7.17-3.65-14.24-6.17-21.14c-2.57-6.88-5.63-13.56-9.16-20
				c-6.93-13.01-16.11-24.69-27.12-34.5c-11-9.81-24.19-16.84-38.47-20.51c-7.14-1.76-14.47-2.55-21.82-2.35
				c-7.36,0.21-14.66,1.42-21.69,3.6c-7.05,2.17-13.8,5.2-20.12,9C84.31,71.22,78.43,75.75,73.05,80.84z"/>
			<path class="st0" d="M54.91,103.14c-7.72,12.45-13.6,25.97-17.43,40.11c-3.9,14.09-6.01,28.61-6.3,43.22
				c-0.16,7.29,0.12,14.59,0.82,21.85c0.31,3.63,0.85,7.24,1.37,10.85l1,5.38c0.31,1.79,0.76,3.56,1.13,5.34
				c1.61,7.11,3.68,14.1,6.2,20.94c2.55,6.82,5.59,13.45,9.09,19.84c6.87,12.86,15.94,24.42,26.79,34.15
				c5.45,4.82,11.4,9.02,17.77,12.54c6.37,3.49,13.15,6.17,20.18,8c14.17,3.66,29.06,3.42,43.1-0.7c7.01-2.03,13.75-4.92,20.05-8.61
				c6.3-3.71,12.21-8.07,17.61-13c-5.31,5.07-11.14,9.57-17.38,13.43c-6.27,3.84-12.98,6.9-20,9.09
				c-14.19,4.35-29.29,4.77-43.69,1.21c-14.4-3.48-27.63-11-38.72-20.68c-11.04-9.83-20.28-21.52-27.3-34.54
				c-3.55-6.47-6.63-13.2-9.2-20.12c-2.52-6.92-4.59-13.99-6.19-21.18c-0.37-1.8-0.81-3.59-1.12-5.4l-0.95-5.44
				c-0.5-3.64-1-7.28-1.33-10.95c-0.7-7.31-0.93-14.66-0.67-22c0.46-14.72,2.77-29.33,6.88-43.47
				C40.75,128.9,46.91,115.47,54.91,103.14z"/>
			<path class="st0" d="M75.2,83.87c5.1-5.04,10.71-9.53,16.73-13.42c6.07-3.85,12.58-6.94,19.4-9.21
				c6.84-2.22,13.96-3.5,21.15-3.78c7.2-0.27,14.4,0.45,21.41,2.12c14,3.32,27,10.61,37.75,20.09
				c10.75,9.61,19.72,21.03,26.51,33.75c3.42,6.32,6.38,12.89,8.85,19.64c2.44,6.76,4.45,13.66,6,20.68
				c0.36,1.76,0.79,3.5,1.08,5.27l0.92,5.31c0.48,3.56,1,7.11,1.28,10.69c0.66,7.15,0.87,14.33,0.63,21.51
				c-0.46,14.35-2.71,28.59-6.7,42.39c-4.01,13.8-10.01,26.94-17.81,39c7.61-12.13,13.42-25.31,17.23-39.12
				c3.86-13.76,5.99-27.96,6.33-42.25c0.17-7.14-0.07-14.27-0.74-21.38c-0.29-3.56-0.81-7.09-1.3-10.62l-0.93-5.27
				c-0.28-1.76-0.73-3.49-1.08-5.24c-1.56-6.96-3.56-13.82-6-20.52c-2.48-6.7-5.43-13.22-8.84-19.51
				c-6.69-12.61-15.55-23.95-26.17-33.5c-10.62-9.56-23.39-16.42-37.23-20c-13.9-3.47-28.5-3.02-42.16,1.31
				c-6.81,2.16-13.33,5.15-19.42,8.89C86.02,74.5,80.36,78.91,75.2,83.87z"/>
			<path class="st0" d="M57.21,106.38c-7.37,12.11-12.97,25.21-16.63,38.9c-3.72,13.65-5.73,27.71-6,41.86
				c-0.14,7.06,0.13,14.12,0.83,21.15c0.66,7.03,1.78,14.01,3.35,20.89c1.57,6.88,3.57,13.66,6,20.29
				c2.45,6.61,5.37,13.04,8.74,19.24c6.63,12.48,15.38,23.71,25.85,33.2c10.48,9.52,23.07,16.4,36.74,20.09
				c13.72,3.57,28.16,3.32,41.74-0.75l1.27-0.36l1.26-0.43l2.5-0.85l2.47-1c0.82-0.31,1.64-0.65,2.44-1l2.41-1.09l2.37-1.2
				c1.59-0.77,3.09-1.7,4.64-2.55c6.07-3.66,11.74-7.94,16.93-12.77c-5.12,4.91-10.75,9.26-16.78,13c-1.53,0.88-3,1.84-4.62,2.63
				l-2.36,1.24L168,318c-0.8,0.39-1.61,0.74-2.44,1.07l-2.46,1l-2.51,0.89l-1.26,0.44l-1.27,0.39c-13.69,4.21-28.26,4.58-42.15,1.09
				c-13.86-3.43-26.58-10.73-37.23-20.15c-10.61-9.54-19.49-20.85-26.23-33.43c-3.39-6.25-6.31-12.74-8.76-19.42
				c-2.44-6.68-4.44-13.51-6-20.45c-1.56-6.92-2.67-13.94-3.31-21c-0.39-3.53-0.54-7.08-0.71-10.62l-0.08-5.33
				c0-1.77,0-3.55,0.07-5.32c0.36-14.21,2.49-28.32,6.32-42C43.84,131.48,49.65,118.42,57.21,106.38z"/>
			<path class="st0" d="M77.35,86.91c4.92-4.88,10.32-9.23,16.13-13c5.84-3.72,12.12-6.72,18.69-8.91c13.25-4.33,27.46-4.86,41-1.52
				c13.5,3.29,25.9,10.35,36.25,19.54c10.31,9.32,18.9,20.37,25.4,32.65c3.28,6.12,6.12,12.47,8.48,19
				c2.34,6.52,4.27,13.18,5.76,19.95c1.51,6.76,2.56,13.61,3.17,20.51c1.95,20.73,0.11,41.63-5.44,61.7
				c-3.74,13.35-9.37,26.09-16.73,37.83c7.27-11.78,12.8-24.55,16.44-37.91c3.67-13.33,5.68-27.07,6-40.89
				c0.18-6.91-0.07-13.81-0.73-20.69c-0.63-6.88-1.71-13.7-3.23-20.44c-1.5-6.74-3.43-13.37-5.78-19.86
				c-2.37-6.49-5.2-12.79-8.47-18.87c-6.43-12.24-14.96-23.26-25.2-32.55c-10.27-9.18-22.59-16.23-36-19.53
				c-6.7-1.66-13.6-2.38-20.5-2.16c-6.9,0.24-13.74,1.44-20.31,3.57c-6.57,2.11-12.86,5.02-18.72,8.67
				C87.73,77.74,82.3,82.07,77.35,86.91z"/>
			<path class="st0" d="M59.52,109.65c-7.02,11.76-12.35,24.44-15.84,37.68c-3.53,13.22-5.44,26.81-5.68,40.49
				c-0.1,3.42,0,6.83,0.09,10.25s0.35,6.82,0.74,10.21c1.29,13.61,4.32,27,9,39.84c2.34,6.41,5.15,12.64,8.41,18.64
				c6.4,12.1,14.84,23.01,24.95,32.24c10.09,9.28,22.25,16,35.48,19.59c13.28,3.46,27.27,3.18,40.4-0.83
				c6.54-1.99,12.8-4.79,18.65-8.34c5.84-3.57,11.3-7.73,16.28-12.42c-4.93,4.74-10.35,8.95-16.16,12.57
				c-5.83,3.6-12.09,6.46-18.64,8.5c-13.18,4.07-27.23,4.39-40.59,0.94c-13.31-3.57-25.56-10.29-35.72-19.6
				c-10.16-9.25-18.64-20.19-25.08-32.33c-3.25-6.04-6.06-12.3-8.4-18.74c-4.67-12.9-7.7-26.34-9-40
				c-0.38-3.41-0.52-6.83-0.72-10.25c0-3.42-0.17-6.84-0.06-10.26c0.27-13.7,2.2-27.33,5.77-40.56
				C46.99,134.04,52.41,121.37,59.52,109.65z"/>
			<g class="st1">
				<path d="M206.14,222.1v14.27h-79.93c-0.11-3.57,0.47-7.01,1.73-10.31c2.03-5.44,5.29-10.81,9.77-16.08
					c4.48-5.28,10.96-11.38,19.42-18.31c13.14-10.78,22.02-19.31,26.64-25.61c4.62-6.3,6.93-12.25,6.93-17.86
					c0-5.88-2.1-10.85-6.31-14.89s-9.69-6.06-16.46-6.06c-7.15,0-12.87,2.14-17.16,6.43c-4.29,4.29-6.46,10.23-6.52,17.82
					l-15.26-1.57c1.04-11.38,4.98-20.06,11.79-26.02c6.82-5.97,15.97-8.95,27.47-8.95c11.6,0,20.79,3.22,27.55,9.65
					c6.76,6.43,10.15,14.41,10.15,23.92c0,4.84-0.99,9.6-2.97,14.27c-1.98,4.67-5.27,9.6-9.86,14.76
					c-4.59,5.17-12.22,12.26-22.89,21.28c-8.91,7.48-14.63,12.55-17.16,15.22c-2.53,2.67-4.62,5.35-6.27,8.04H206.14z"/>
			</g>
			<g class="st1">
				<path d="M78.45,208.05v-21.74H56.87v-9.09h21.58v-21.58h9.19v21.58h21.58v9.09H87.64v21.74H78.45z"/>
			</g>
			<g class="st1">
				<path class="st0" d="M120.22,38.81h-1.47v-7.96h-0.03l-3.15,3.96h-0.24l-3.15-3.96h-0.03v7.96h-1.47V28.58h1.38l3.39,4.2
					l3.4-4.2h1.37V38.81z"/>
				<path class="st0" d="M129.04,35.38c0,2.13-1.48,3.57-3.65,3.57c-2.07,0-3.55-1.5-3.55-3.57c0-1.94,1.54-3.44,3.55-3.44
					C127.51,31.94,129.04,33.38,129.04,35.38z M123.21,35.38c0,1.42,0.89,2.37,2.18,2.37c1.41,0,2.29-0.9,2.29-2.35
					c0-1.3-0.96-2.25-2.29-2.25C124.12,33.14,123.21,34.09,123.21,35.38z"/>
				<path class="st0" d="M131.89,38.81h-1.33V28.58h1.33V38.81z"/>
				<path class="st0" d="M138.09,38.81v-0.85c-0.55,0.6-1.33,0.99-2,0.99c-1.37,0-2.33-0.97-2.33-2.68v-4.18h1.33v4.27
					c0,0.95,0.46,1.49,1.38,1.49c0.6,0,1.17-0.33,1.61-0.95v-4.81h1.33v6.73H138.09z"/>
				<path class="st0" d="M145.23,33.81c-0.75-0.5-1.46-0.71-1.95-0.71c-0.54,0-0.88,0.26-0.88,0.62c0,0.3,0.45,0.66,1.63,1.35
					c1.11,0.73,1.52,1.2,1.52,1.89c0,1.18-0.95,1.98-2.22,1.98c-0.83,0-1.47-0.17-2.34-0.62v-1.44c0.87,0.6,1.67,0.88,2.21,0.88
					c0.54-0.03,0.99-0.29,0.99-0.76c0-0.93-3.15-1.42-3.15-3.24c0-1.14,0.87-1.83,2.22-1.83c0.63,0,1.27,0.18,1.98,0.56V33.81z"/>
				<path class="st0" d="M152.04,33.83c-0.76-0.51-1.27-0.66-1.86-0.66c-1.21,0-2.05,0.92-2.05,2.28c0,1.39,0.9,2.23,2.28,2.23
					c0.57,0,1.11-0.15,1.79-0.45v1.32c-0.45,0.21-1.3,0.39-2.01,0.39c-2.01,0-3.42-1.39-3.42-3.38c0-2.22,1.29-3.63,3.33-3.63
					c0.78,0,1.3,0.18,1.95,0.47V33.83z"/>
				<path class="st0" d="M160.45,35.38c0,2.13-1.48,3.57-3.64,3.57c-2.07,0-3.55-1.5-3.55-3.57c0-1.94,1.54-3.44,3.55-3.44
					C158.92,31.94,160.45,33.38,160.45,35.38z M154.62,35.38c0,1.42,0.89,2.37,2.17,2.37c1.41,0,2.29-0.9,2.29-2.35
					c0-1.3-0.96-2.25-2.29-2.25C155.53,33.14,154.62,34.09,154.62,35.38z"/>
			</g>
			<path class="st0" d="M37.05,42.66h6.75V45H31.69l9-9.61c0.64-0.66,0.99-1.53,1-2.45c0.01-1.01-0.37-1.99-1.07-2.73
				c-0.63-0.73-1.55-1.15-2.52-1.16c-0.81,0.01-1.6,0.28-2.25,0.77c-0.75,0.58-1.24,1.43-1.37,2.37h-2.29
				c0.14-1.57,0.88-3.03,2.06-4.08c1.12-0.95,2.54-1.46,4-1.45c1.55,0,3.03,0.67,4.05,1.83c1.13,1.16,1.75,2.72,1.73,4.34
				c0.01,0.76-0.14,1.52-0.44,2.22c-0.39,0.82-0.91,1.56-1.55,2.2L37.05,42.66z"/>
			<path class="st0" d="M19.53,35.77h4.36V31.4h1.19v4.37h4.41V37h-4.41v4.34h-1.19V37h-4.36V35.77z"/>
			<path class="st0" d="M233.53,339.73h-6.75v-2.37h12.12l-9,9.61c-0.64,0.66-0.99,1.53-1,2.45c-0.01,1.01,0.37,1.99,1.07,2.73
				c0.63,0.73,1.55,1.15,2.52,1.16c0.81-0.01,1.6-0.28,2.25-0.77c0.75-0.58,1.24-1.43,1.37-2.37h2.34
				c-0.14,1.57-0.88,3.03-2.06,4.08c-1.13,0.96-2.57,1.48-4.05,1.45c-1.55,0-3.03-0.67-4.05-1.83c-1.13-1.16-1.75-2.72-1.73-4.34
				c-0.01-0.76,0.14-1.52,0.44-2.22c0.39-0.82,0.91-1.56,1.55-2.2L233.53,339.73z"/>
			<path class="st0" d="M251.05,346.62h-4.36V351h-1.19v-4.37h-4.41v-1.2h4.41v-4.34h1.19v4.34h4.36V346.62z"/>
			<g id="Border">
				<g id="Outer_Line">
					<path class="st0" d="M269.19,1.39v379.89H1.39V1.39H269.19 M270.58,0H0v382.68h270.58V0z"/>
				</g>
				<path class="st0" d="M266.68,4.47V378.2H3.9V4.47H266.68 M267.81,3.35H2.77v376h265v-376H267.81z"/>
				<path class="st0" d="M264.18,7.55v367.57H6.4V7.55H264.18 M265.04,6.69H5.54V376H265V6.69H265.04z"/>
				<path class="st0" d="M261.68,10.63V372H8.9V10.63H261.68 M262.27,10.04H8.31v362.6h254V10L262.27,10.04z"/>
				<path class="st0" d="M259.17,13.71V369H11.41V13.71H259.17 M259.5,13.39H11.08v355.9H259.5V13.39z"/>
				<g id="Inner_Line">
					<path class="st0" d="M256.67,16.79v349.09H13.91V16.79H256.67 M256.73,16.73H13.85V366h242.88
						C256.73,366,256.73,16.73,256.73,16.73z"/>
				</g>
			</g>
			<g class="st1">
				<path class="st0" d="M150.36,343.87h1.47v7.96h0.03l3.15-3.96h0.24l3.15,3.96h0.03v-7.96h1.47v10.23h-1.38l-3.39-4.2l-3.4,4.2
					h-1.37V343.87z"/>
				<path class="st0" d="M141.54,347.3c0-2.13,1.49-3.57,3.65-3.57c2.07,0,3.55,1.5,3.55,3.57c0,1.94-1.54,3.44-3.55,3.44
					C143.07,350.74,141.54,349.3,141.54,347.3z M147.37,347.3c0-1.42-0.89-2.37-2.18-2.37c-1.41,0-2.29,0.9-2.29,2.35
					c0,1.3,0.96,2.25,2.29,2.25C146.46,349.54,147.37,348.59,147.37,347.3z"/>
				<path class="st0" d="M138.69,343.87h1.33v10.23h-1.33V343.87z"/>
				<path class="st0" d="M132.49,343.87v0.85c0.55-0.6,1.33-0.99,1.99-0.99c1.37,0,2.33,0.97,2.33,2.68v4.18h-1.33v-4.27
					c0-0.95-0.46-1.49-1.38-1.49c-0.6,0-1.17,0.33-1.6,0.95v4.81h-1.33v-6.73H132.49z"/>
				<path class="st0" d="M125.35,348.86c0.75,0.5,1.46,0.71,1.95,0.71c0.54,0,0.88-0.26,0.88-0.62c0-0.3-0.45-0.66-1.63-1.35
					c-1.11-0.73-1.52-1.2-1.52-1.89c0-1.18,0.94-1.98,2.22-1.98c0.83,0,1.47,0.17,2.34,0.62v1.44c-0.87-0.6-1.67-0.88-2.21-0.88
					c-0.54,0.03-0.99,0.29-0.99,0.76c0,0.93,3.15,1.42,3.15,3.24c0,1.14-0.87,1.83-2.22,1.83c-0.63,0-1.27-0.18-1.98-0.56V348.86z"
					/>
				<path class="st0" d="M118.54,348.85c0.76,0.51,1.27,0.66,1.86,0.66c1.21,0,2.05-0.92,2.05-2.28c0-1.39-0.9-2.23-2.28-2.23
					c-0.57,0-1.11,0.15-1.79,0.45v-1.32c0.45-0.21,1.31-0.39,2.01-0.39c2.01,0,3.42,1.39,3.42,3.38c0,2.22-1.29,3.63-3.33,3.63
					c-0.78,0-1.31-0.18-1.95-0.47V348.85z"/>
				<path class="st0" d="M110.13,347.3c0-2.13,1.48-3.57,3.65-3.57c2.07,0,3.55,1.5,3.55,3.57c0,1.94-1.54,3.44-3.55,3.44
					C111.66,350.74,110.13,349.3,110.13,347.3z M115.96,347.3c0-1.42-0.89-2.37-2.17-2.37c-1.41,0-2.29,0.9-2.29,2.35
					c0,1.3,0.96,2.25,2.29,2.25C115.05,349.54,115.96,348.59,115.96,347.3z"/>
			</g>
		</g>
	</g>
</g>
</svg>
