<?xml version="1.0" encoding="utf-8"?>
<!-- Generator: Adobe Illustrator 21.1.0, SVG Export Plug-In . SVG Version: 6.00 Build 0)  -->
<svg version="1.1" id="ZooUno" xmlns="http://www.w3.org/2000/svg" xmlns:xlink="http://www.w3.org/1999/xlink" x="0px" y="0px"
	 viewBox="0 0 270.58 382.68" style="enable-background:new 0 0 270.58 382.68;" xml:space="preserve">
<style type="text/css">
	.st0{enable-background:new    ;}
</style>
<title>ZooUno Fields Cartas Finais pra Lari</title>
<g id="Final_Cards">
	<g id="Répteis">
		<g id="Répteis-2">
			<g id="Cell_no_BG_">
				<path d="M135.29,139.51c2.48,0,4.96,0.17,7.41,0.52l0.31,0.08h0.2c22.41,3.48,39.96,21.1,43.34,43.52c0,0.07,0,0.15,0,0.22
					c0.35,2.48,0.53,4.98,0.53,7.49c-0.03,28.61-23.22,51.8-51.83,51.83c-2.52,0-5.03-0.18-7.52-0.54l-0.31-0.06h-0.1
					c-22.4-3.47-39.95-21.1-43.32-43.52c0-0.08,0-0.15,0-0.23c-0.35-2.48-0.53-4.98-0.53-7.48c0.03-28.61,23.22-51.8,51.83-51.83
					 M135.3,135.51c-30.83-0.01-55.82,24.98-55.83,55.81c0,0.01,0,0.01,0,0.02c0,2.72,0.19,5.44,0.58,8.13c0,0,0,0.06,0,0.08
					c3.63,24.3,22.7,43.37,47,47h0.1c30.52,4.5,58.91-16.6,63.4-47.12c0.4-2.69,0.6-5.4,0.6-8.12c0-2.72-0.19-5.44-0.58-8.14
					c0,0,0,0,0-0.08c-3.62-24.3-22.7-43.38-47-47h-0.08c-2.7-0.39-5.42-0.58-8.14-0.58H135.3z"/>
				<path d="M125.9,182.83c4.67-5.19,12.67-5.6,17.85-0.93c0.33,0.29,0.64,0.6,0.93,0.93l2.18-1.26
					c-5.38-6.39-14.93-7.21-21.32-1.82c-0.66,0.55-1.27,1.16-1.82,1.82L125.9,182.83z"/>
				<path d="M146.26,185c1.13,1.93,1.72,4.12,1.72,6.35c0.01,6.5-4.89,11.96-11.36,12.65v2.46c7.82-0.68,13.82-7.23,13.82-15.08
					c0-2.66-0.71-5.28-2.05-7.58L146.26,185z"/>
				<path d="M134,204c-6.45-0.69-11.35-6.13-11.36-12.62c0-2.23,0.59-4.42,1.72-6.35l-2.13-1.23c-4.18,7.22-1.71,16.47,5.51,20.65
					c1.92,1.11,4.05,1.78,6.26,1.97V204z"/>
				<circle cx="135.29" cy="191.34" r="9.36"/>
			</g>
			<g class="st0">
				<path d="M149.29,300.87v-9.38h-17v-4.41l17.88-25.39h3.93v25.39h5.29v4.41h-5.29v9.38H149.29z M149.29,287.08v-17.67
					l-12.27,17.67H149.29z"/>
			</g>
			<g class="st0">
				<path d="M117.78,291.7v-7.04h-6.99v-2.94h6.99v-6.99h2.98v6.99h6.99v2.94h-6.99v7.04H117.78z"/>
			</g>
			<g class="st0">
				<path d="M121.3,81.81v9.38h17v4.41l-17.88,25.39h-3.93V95.6h-5.29v-4.41h5.29v-9.38H121.3z M121.3,95.6v17.67l12.27-17.67H121.3
					z"/>
			</g>
			<g class="st0">
				<path d="M152.8,90.98v7.04h6.99v2.94h-6.99v6.99h-2.98v-6.99h-6.99v-2.94h6.99v-7.04H152.8z"/>
			</g>
			<g id="Border">
				<g id="Outer_Line">
					<path d="M269.19,1.39v379.89H1.39V1.39H269.19 M270.58,0H0v382.68h270.58V0z"/>
				</g>
				<path d="M266.68,4.47V378.2H3.9V4.47H266.68 M267.81,3.35H2.77v376h265v-376H267.81z"/>
				<path d="M264.18,7.55v367.57H6.4V7.55H264.18 M265.04,6.69H5.54V376H265V6.69H265.04z"/>
				<path d="M261.68,10.63V372H8.9V10.63H261.68 M262.27,10.04H8.31v362.6h254V10L262.27,10.04z"/>
				<path d="M259.17,13.71V369H11.41V13.71H259.17 M259.5,13.39H11.08v355.9H259.5V13.39z"/>
				<g id="Inner_Line">
					<path d="M256.67,16.79v349.09H13.91V16.79H256.67 M256.73,16.73H13.85V366h242.88C256.73,366,256.73,16.73,256.73,16.73z"/>
				</g>
			</g>
			<g class="st0">
				<path d="M109.64,29.9h-4.33v3.09h4.19v1.32h-4.19v3.18h4.47v1.32h-5.94V28.58h5.8V29.9z"/>
				<path d="M115.43,38.81v-0.85c-0.55,0.6-1.33,0.99-1.99,0.99c-1.37,0-2.33-0.97-2.33-2.68v-4.18h1.33v4.27
					c0,0.95,0.46,1.49,1.38,1.49c0.6,0,1.17-0.33,1.6-0.95v-4.81h1.33v6.73H115.43z"/>
				<path d="M123.6,33.83c-0.76-0.51-1.27-0.66-1.86-0.66c-1.21,0-2.05,0.92-2.05,2.28c0,1.39,0.9,2.23,2.28,2.23
					c0.57,0,1.11-0.15,1.79-0.45v1.32c-0.45,0.21-1.31,0.39-2.01,0.39c-2.01,0-3.42-1.39-3.42-3.38c0-2.22,1.29-3.63,3.33-3.63
					c0.78,0,1.31,0.18,1.95,0.47V33.83z"/>
				<path d="M130.44,38.42c-0.61,0.4-0.87,0.52-1.29,0.52c-0.58,0-0.9-0.21-1.02-0.69c-0.58,0.46-1.2,0.69-1.81,0.69
					c-0.99,0-1.65-0.78-1.65-1.65c0-1.33,1.21-1.74,2.29-2.13l1.18-0.42v-0.36c0-0.84-0.4-1.18-1.21-1.18
					c-0.73,0-1.48,0.34-2.13,1.11v-1.46c0.52-0.61,1.26-0.92,2.23-0.92c1.37,0,2.44,0.69,2.44,2.22v3.46c0,0.25,0.09,0.34,0.26,0.34
					c0.13,0,0.4-0.13,0.7-0.36V38.42z M128.15,35.48c-1.14,0.39-2.13,0.78-2.13,1.58c0,0.55,0.41,0.95,0.96,0.95
					c0.42,0,0.81-0.21,1.17-0.56V35.48z"/>
				<path d="M133.05,32.08v1.54h0.03c0.67-1.19,1.32-1.68,1.95-1.68c0.54,0,1.05,0.26,1.61,0.78l-0.71,1.16
					c-0.41-0.39-0.93-0.66-1.25-0.66c-0.92,0-1.63,0.92-1.63,2.07v3.52h-1.33v-6.73H133.05z"/>
				<path d="M138.27,30.83c-0.43,0-0.79-0.36-0.79-0.79c0-0.44,0.36-0.79,0.79-0.79c0.44,0,0.79,0.36,0.79,0.79
					C139.07,30.47,138.71,30.83,138.27,30.83z M138.93,38.81h-1.33v-6.73h1.33V38.81z"/>
				<path d="M147.65,35.38c0,2.13-1.48,3.57-3.64,3.57c-2.07,0-3.55-1.5-3.55-3.57c0-1.94,1.54-3.44,3.55-3.44
					C146.12,31.94,147.65,33.38,147.65,35.38z M141.81,35.38c0,1.42,0.89,2.37,2.17,2.37c1.41,0,2.29-0.9,2.29-2.35
					c0-1.3-0.96-2.25-2.29-2.25C142.73,33.14,141.81,34.09,141.81,35.38z"/>
				<path d="M150.44,32.96h0.03c0.51-0.65,1.26-1.02,2.01-1.02c1.28,0,2.29,0.87,2.29,2.71v4.16h-1.33v-4.17
					c0-0.99-0.51-1.63-1.32-1.63c-0.58,0-1.05,0.27-1.68,0.97v4.83h-1.33v-6.73h1.33V32.96z"/>
				<path d="M158.19,32.08h2.13v1.2h-2.13v3.45c0,0.79,0.57,1.02,0.96,1.02c0.48,0,0.98-0.16,1.52-0.49v1.24
					c-0.47,0.26-1.19,0.45-1.62,0.45c-1.46,0-2.19-0.9-2.19-2.11v-3.56h-1.17v-0.15l2.5-2.45V32.08z"/>
				<path d="M167.25,38.15c-0.81,0.54-1.54,0.79-2.68,0.79c-2.1,0-3.27-1.72-3.27-3.58c0-2.04,1.29-3.42,3.15-3.42
					c1.79,0,2.92,1.22,2.92,3.71h-4.74c0.21,1.33,0.98,2.03,2.27,2.03c0.81,0,1.57-0.3,2.35-0.81V38.15z M166.05,34.76
					c-0.04-1.02-0.63-1.67-1.57-1.67c-1.02,0-1.64,0.6-1.82,1.67H166.05z"/>
			</g>
			<g class="st0">
				<path d="M160.94,353.78h4.33v-3.09h-4.19v-1.32h4.19v-3.18h-4.47v-1.32h5.94v10.23h-5.8V353.78z"/>
				<path d="M155.15,344.87v0.85c0.55-0.6,1.33-0.99,1.99-0.99c1.37,0,2.33,0.97,2.33,2.68v4.18h-1.34v-4.27
					c0-0.95-0.46-1.49-1.38-1.49c-0.6,0-1.17,0.33-1.61,0.95v4.81h-1.33v-6.73H155.15z"/>
				<path d="M146.98,349.85c0.76,0.51,1.27,0.66,1.86,0.66c1.21,0,2.05-0.92,2.05-2.28c0-1.39-0.9-2.23-2.28-2.23
					c-0.57,0-1.11,0.15-1.79,0.45v-1.32c0.45-0.21,1.31-0.39,2.01-0.39c2.01,0,3.42,1.39,3.42,3.38c0,2.22-1.29,3.63-3.33,3.63
					c-0.78,0-1.31-0.18-1.95-0.47V349.85z"/>
				<path d="M140.14,345.26c0.61-0.4,0.87-0.52,1.29-0.52c0.58,0,0.9,0.21,1.02,0.69c0.58-0.46,1.2-0.69,1.81-0.69
					c0.99,0,1.65,0.78,1.65,1.65c0,1.33-1.21,1.74-2.29,2.13l-1.18,0.42v0.36c0,0.84,0.41,1.18,1.21,1.18
					c0.74,0,1.49-0.34,2.13-1.11v1.46c-0.53,0.61-1.26,0.92-2.23,0.92c-1.37,0-2.45-0.69-2.45-2.22v-3.46
					c0-0.25-0.09-0.34-0.26-0.34c-0.13,0-0.4,0.13-0.7,0.36V345.26z M142.43,348.2c1.14-0.39,2.13-0.78,2.13-1.58
					c0-0.55-0.41-0.95-0.96-0.95c-0.42,0-0.81,0.21-1.17,0.56V348.2z"/>
				<path d="M137.53,351.6v-1.54h-0.03c-0.68,1.19-1.32,1.68-1.95,1.68c-0.54,0-1.05-0.26-1.6-0.78l0.7-1.16
					c0.41,0.39,0.93,0.66,1.25,0.66c0.92,0,1.63-0.92,1.63-2.07v-3.52h1.33v6.73H137.53z"/>
				<path d="M132.31,352.85c0.44,0,0.79,0.36,0.79,0.79c0,0.44-0.36,0.79-0.79,0.79s-0.79-0.36-0.79-0.79
					C131.51,353.21,131.87,352.85,132.31,352.85z M131.65,344.87h1.33v6.73h-1.33V344.87z"/>
				<path d="M122.93,348.3c0-2.13,1.48-3.57,3.65-3.57c2.07,0,3.55,1.5,3.55,3.57c0,1.94-1.54,3.44-3.55,3.44
					C124.46,351.74,122.93,350.3,122.93,348.3z M128.77,348.3c0-1.42-0.89-2.37-2.17-2.37c-1.41,0-2.29,0.9-2.29,2.35
					c0,1.3,0.96,2.25,2.29,2.25C127.85,350.54,128.77,349.59,128.77,348.3z"/>
				<path d="M120.14,350.72h-0.03c-0.51,0.65-1.26,1.02-2.01,1.02c-1.27,0-2.29-0.87-2.29-2.71v-4.16h1.33v4.17
					c0,0.99,0.51,1.63,1.32,1.63c0.58,0,1.05-0.27,1.68-0.97v-4.83h1.33v6.73h-1.33V350.72z"/>
				<path d="M112.39,351.6h-2.13v-1.2h2.13v-3.45c0-0.79-0.57-1.02-0.96-1.02c-0.48,0-0.98,0.16-1.52,0.49v-1.24
					c0.47-0.26,1.19-0.45,1.62-0.45c1.46,0,2.19,0.9,2.19,2.11v3.56h1.17v0.15l-2.5,2.45V351.6z"/>
				<path d="M103.33,345.53c0.81-0.54,1.54-0.79,2.69-0.79c2.1,0,3.27,1.72,3.27,3.58c0,2.04-1.29,3.42-3.15,3.42
					c-1.79,0-2.93-1.22-2.93-3.71h4.74c-0.21-1.33-0.98-2.03-2.27-2.03c-0.81,0-1.57,0.3-2.35,0.81V345.53z M104.53,348.92
					c0.04,1.02,0.63,1.67,1.57,1.67c1.02,0,1.64-0.6,1.81-1.67H104.53z"/>
			</g>
			<path d="M73.05,80.84c5.29-5.2,11.09-9.83,17.33-13.84c6.28-3.98,13.03-7.17,20.09-9.51c7.09-2.3,14.47-3.62,21.92-3.91
				c7.46-0.29,14.92,0.43,22.19,2.13c14.58,3.37,28,10.86,39.24,20.62c11.2,9.89,20.56,21.69,27.64,34.84
				c3.55,6.54,6.63,13.33,9.2,20.32c2.53,7,4.6,14.15,6.19,21.42c1.62,7.25,2.74,14.6,3.37,22c1.98,22.25-0.28,44.68-6.66,66.09
				c-4.29,14.21-10.66,27.71-18.91,40.06c7.96-12.48,14.02-26.06,18-40.32c4.06-14.2,6.3-28.85,6.69-43.61l0.06-5.53l-0.13-5.52
				c0-1.85-0.16-3.68-0.26-5.52s-0.21-3.68-0.42-5.51c-0.65-7.34-1.79-14.63-3.42-21.81c-1.59-7.17-3.65-14.24-6.17-21.14
				c-2.57-6.88-5.63-13.56-9.16-20c-6.93-13.01-16.11-24.69-27.12-34.5c-11-9.81-24.19-16.84-38.47-20.51
				c-7.14-1.76-14.47-2.55-21.82-2.35c-7.36,0.21-14.66,1.42-21.69,3.6c-7.05,2.17-13.8,5.2-20.12,9
				C84.31,71.22,78.43,75.75,73.05,80.84z"/>
			<path d="M54.91,103.14c-7.72,12.45-13.6,25.97-17.43,40.11c-3.9,14.09-6.01,28.61-6.3,43.22c-0.16,7.29,0.12,14.59,0.82,21.85
				c0.31,3.63,0.85,7.24,1.37,10.85l1,5.38c0.31,1.79,0.76,3.56,1.13,5.34c1.61,7.11,3.68,14.1,6.2,20.94
				c2.55,6.82,5.59,13.45,9.09,19.84c6.87,12.86,15.94,24.42,26.79,34.15c5.45,4.82,11.4,9.02,17.77,12.54
				c6.37,3.49,13.15,6.17,20.18,8c14.17,3.66,29.06,3.42,43.1-0.7c7.01-2.03,13.75-4.92,20.05-8.61c6.3-3.71,12.21-8.07,17.61-13
				c-5.31,5.07-11.14,9.57-17.38,13.43c-6.27,3.84-12.98,6.9-20,9.09c-14.19,4.35-29.29,4.77-43.69,1.21
				c-14.4-3.48-27.63-11-38.72-20.68c-11.04-9.83-20.28-21.52-27.3-34.54c-3.55-6.47-6.63-13.2-9.2-20.12
				c-2.52-6.92-4.59-13.99-6.19-21.18c-0.37-1.8-0.81-3.59-1.12-5.4l-0.95-5.44c-0.5-3.64-1-7.28-1.33-10.95
				c-0.7-7.31-0.93-14.66-0.67-22c0.46-14.72,2.77-29.33,6.88-43.47C40.75,128.9,46.91,115.47,54.91,103.14z"/>
			<path d="M75.2,83.87c5.1-5.04,10.71-9.53,16.73-13.42c6.07-3.85,12.58-6.94,19.4-9.21c6.84-2.22,13.96-3.5,21.15-3.78
				c7.2-0.27,14.4,0.45,21.41,2.12c14,3.32,27,10.61,37.75,20.09c10.75,9.61,19.72,21.03,26.51,33.75
				c3.42,6.32,6.38,12.89,8.85,19.64c2.44,6.76,4.45,13.66,6,20.68c0.36,1.76,0.79,3.5,1.08,5.27l0.92,5.31
				c0.48,3.56,1,7.11,1.28,10.69c0.66,7.15,0.87,14.33,0.63,21.51c-0.46,14.35-2.71,28.59-6.7,42.39
				c-4.01,13.8-10.01,26.94-17.81,39c7.61-12.13,13.42-25.31,17.23-39.12c3.86-13.76,5.99-27.96,6.33-42.25
				c0.17-7.14-0.07-14.27-0.74-21.38c-0.29-3.56-0.81-7.09-1.3-10.62l-0.93-5.27c-0.28-1.76-0.73-3.49-1.08-5.24
				c-1.56-6.96-3.56-13.82-6-20.52c-2.48-6.7-5.43-13.22-8.84-19.51c-6.69-12.61-15.55-23.95-26.17-33.5
				c-10.62-9.56-23.39-16.42-37.23-20c-13.9-3.47-28.5-3.02-42.16,1.31c-6.81,2.16-13.33,5.15-19.42,8.89
				C86.03,74.5,80.37,78.92,75.2,83.87z"/>
			<path d="M57.21,106.38c-7.37,12.11-12.97,25.21-16.63,38.9c-3.72,13.65-5.73,27.71-6,41.86c-0.14,7.06,0.13,14.12,0.83,21.15
				c0.66,7.03,1.78,14.01,3.35,20.89c1.57,6.88,3.57,13.66,6,20.29c2.45,6.61,5.37,13.04,8.74,19.24
				c6.63,12.48,15.38,23.71,25.85,33.2c10.48,9.52,23.07,16.4,36.74,20.09c13.72,3.57,28.16,3.32,41.74-0.75l1.27-0.36l1.26-0.43
				l2.5-0.85l2.47-1c0.82-0.31,1.64-0.65,2.44-1l2.41-1.09l2.37-1.2c1.59-0.77,3.09-1.7,4.64-2.55c6.07-3.66,11.74-7.94,16.93-12.77
				c-5.12,4.91-10.75,9.26-16.78,13c-1.53,0.88-3,1.84-4.62,2.63l-2.36,1.24L168,318c-0.8,0.39-1.61,0.74-2.44,1.07l-2.46,1
				l-2.51,0.89l-1.26,0.44l-1.27,0.39c-13.69,4.21-28.26,4.58-42.15,1.09c-13.86-3.43-26.58-10.73-37.23-20.15
				c-10.61-9.54-19.49-20.85-26.23-33.43c-3.39-6.25-6.31-12.74-8.76-19.42c-2.44-6.68-4.44-13.51-6-20.45
				c-1.56-6.92-2.67-13.94-3.31-21c-0.39-3.53-0.54-7.08-0.71-10.62l-0.08-5.33c0-1.77,0-3.55,0.07-5.32
				c0.36-14.21,2.49-28.32,6.32-42C43.84,131.48,49.65,118.42,57.21,106.38z"/>
			<path d="M77.35,86.91c4.92-4.88,10.32-9.23,16.13-13c5.84-3.72,12.12-6.72,18.69-8.91c13.25-4.33,27.46-4.86,41-1.52
				c13.5,3.29,25.9,10.35,36.25,19.54c10.31,9.32,18.9,20.37,25.4,32.65c3.28,6.12,6.12,12.47,8.48,19
				c2.34,6.52,4.27,13.18,5.76,19.95c1.51,6.76,2.56,13.61,3.17,20.51c1.95,20.73,0.11,41.63-5.44,61.7
				c-3.74,13.35-9.37,26.09-16.73,37.83c7.27-11.78,12.8-24.55,16.44-37.91c3.67-13.33,5.68-27.07,6-40.89
				c0.18-6.91-0.07-13.81-0.73-20.69c-0.63-6.88-1.71-13.7-3.23-20.44c-1.5-6.74-3.43-13.37-5.78-19.86
				c-2.37-6.49-5.2-12.79-8.47-18.87c-6.43-12.24-14.96-23.26-25.2-32.55c-10.27-9.18-22.59-16.23-36-19.53
				c-6.7-1.66-13.6-2.38-20.5-2.16c-6.9,0.24-13.74,1.44-20.31,3.57c-6.57,2.11-12.86,5.02-18.72,8.67
				C87.73,77.74,82.3,82.07,77.35,86.91z"/>
			<path d="M59.52,109.65c-7.02,11.76-12.35,24.44-15.84,37.68c-3.53,13.22-5.44,26.81-5.68,40.49c-0.1,3.42,0,6.83,0.09,10.25
				s0.35,6.82,0.74,10.21c1.29,13.61,4.32,27,9,39.84c2.34,6.41,5.15,12.64,8.41,18.64c6.4,12.1,14.84,23.01,24.95,32.24
				c10.09,9.28,22.25,16,35.48,19.59c13.28,3.46,27.27,3.18,40.4-0.83c6.54-1.99,12.8-4.79,18.65-8.34
				c5.84-3.57,11.3-7.73,16.28-12.42c-4.94,4.74-10.35,8.95-16.16,12.57c-5.83,3.6-12.09,6.46-18.64,8.5
				c-13.18,4.07-27.23,4.39-40.59,0.94c-13.31-3.57-25.56-10.29-35.72-19.6c-10.16-9.25-18.64-20.19-25.08-32.33
				c-3.25-6.04-6.06-12.3-8.4-18.74c-4.67-12.9-7.7-26.34-9-40c-0.38-3.41-0.52-6.83-0.72-10.25c0-3.42-0.17-6.84-0.06-10.26
				c0.27-13.7,2.2-27.33,5.77-40.56C46.99,134.04,52.41,121.37,59.52,109.65z"/>
			<path d="M42.53,26.69v12.76h1.72v2.09h-1.72V45h-2.18v-3.46h-10L42.53,26.69z M40.3,32.35l-5.65,7.1h5.7v-7.1H40.3z"/>
			<path d="M19.36,35.74h4.37v-4.38h1.2v4.38h4.42v1.2h-4.42v4.35h-1.2v-4.35h-4.37V35.74z"/>
			<path d="M228.05,356v-12.78h-1.72v-2.08h1.72v-3.49h2.18v3.49h10L228.05,356z M230.28,350.34l5.66-7.11h-5.71v7.11H230.28z"/>
			<path d="M251.22,346.93h-4.37v4.39h-1.2v-4.39h-4.42v-1.2h4.42v-4.35h1.2v4.35h4.37V346.93z"/>
		</g>
	</g>
</g>
</svg>
