<?xml version="1.0" encoding="utf-8"?>
<!-- Generator: Adobe Illustrator 21.1.0, SVG Export Plug-In . SVG Version: 6.00 Build 0)  -->
<svg version="1.1" id="ZooUno" xmlns="http://www.w3.org/2000/svg" xmlns:xlink="http://www.w3.org/1999/xlink" x="0px" y="0px"
	 viewBox="0 0 270.58 382.68" style="enable-background:new 0 0 270.58 382.68;" xml:space="preserve">
<style type="text/css">
	.st0{fill:#44AC36;}
	.st1{fill:#FBF796;}
	.st2{enable-background:new    ;}
	.st3{fill:none;stroke:#000000;stroke-width:0.3;stroke-miterlimit:10;}
</style>
<title>ZooUno Fields Cartas Finais pra Lari</title>
<g id="Final_Cards">
	<g id="Aves">
		<g id="Aves-2">
			<g id="_3_2">
				<path class="st0" d="M102.46,66c8.42-3.96,17.47-6.4,26.74-7.2c2.32-0.21,4.64-0.29,7-0.28l3.49,0.06l3.49,0.24
					c4.65,0.41,9.26,1.21,13.77,2.4c9.05,2.4,17.61,6.38,25.26,11.78c3.85,2.68,7.46,5.7,10.79,9c3.32,3.3,6.36,6.88,9.07,10.69
					c5.41,7.65,9.45,16.18,11.93,25.21c1.23,4.51,2.08,9.12,2.55,13.77c0.44,4.66,0.46,9.34,0.08,14c-0.73,9.32-3.1,18.44-7,26.94
					c-3.89,8.45-9.21,16.16-15.74,22.79c6.21-6.85,11.22-14.68,14.84-23.19c3.66-8.44,5.8-17.46,6.32-26.65
					c2.4-37.96-21.98-72.46-58.57-82.87c-4.41-1.25-8.92-2.12-13.48-2.62l-3.43-0.3l-3.44-0.13c-2.3-0.06-4.6,0-6.89,0.13
					C120.03,60.32,110.97,62.42,102.46,66z"/>
				<path class="st0" d="M104.82,69.36c8-3.58,16.55-5.77,25.29-6.45c2.19-0.17,4.38-0.24,6.57-0.19c2.19,0,4.38,0.16,6.56,0.33
					c4.37,0.43,8.69,1.23,12.93,2.38c8.5,2.31,16.53,6.1,23.72,11.2c7.23,5.05,13.53,11.31,18.62,18.51
					c5.1,7.19,8.91,15.22,11.26,23.72c2.4,8.49,3.29,17.34,2.63,26.14c-0.62,8.77-2.75,17.37-6.31,25.41
					c-3.59,7.99-8.5,15.32-14.53,21.68c5.85-6.47,10.56-13.89,13.93-21.94c3.4-8,5.39-16.54,5.88-25.22
					c2.19-35.94-20.87-68.57-55.47-78.52c-4.17-1.19-8.43-2.04-12.74-2.53c-2.16-0.19-4.33-0.39-6.5-0.41
					c-2.17-0.08-4.34-0.05-6.51,0.09C121.44,64.02,112.87,65.99,104.82,69.36z"/>
				<path class="st0" d="M107.18,72.7c15.26-6.52,32.29-7.58,48.24-3c3.97,1.11,7.85,2.54,11.58,4.3c3.7,1.79,7.25,3.89,10.61,6.26
					c6.74,4.77,12.62,10.65,17.39,17.39c9.59,13.57,14.24,30.02,13.18,46.6c-0.49,8.22-2.4,16.3-5.63,23.88
					c-3.25,7.56-7.75,14.51-13.31,20.58c5.46-6.12,9.85-13.12,13-20.7c9.67-23.11,6.72-49.58-7.79-70
					c-9.47-13.51-23.3-23.37-39.16-27.91C139.42,65.54,122.47,66.46,107.18,72.7z"/>
				<path class="st1" d="M77.79,83.11c-6.44,6.82-11.67,14.68-15.48,23.25c-3.82,8.53-6.11,17.67-6.75,27
					c-0.68,9.28,0.23,18.61,2.69,27.59c5.07,18.02,16.19,33.75,31.5,44.53c23.45,16.36,53.77,19.21,79.86,7.52
					c-8.46,4.19-17.61,6.83-27,7.8c-9.43,0.93-18.96,0.22-28.15-2.09c-38.4-9.83-64-46.04-60.46-85.52
					C55.64,114.18,64.09,96.39,77.79,83.11z"/>
				<path class="st1" d="M80.14,86.44c-6.08,6.44-11,13.89-14.56,22c-3.59,8.08-5.72,16.74-6.31,25.56
					c-2.59,36.5,20.93,69.77,56.2,79.51c17.19,4.71,35.48,3.35,51.79-3.84c-8.05,3.8-16.69,6.17-25.55,7
					c-8.89,0.79-17.86,0.04-26.5-2.2c-36.02-9.49-60.05-43.45-57-80.58c0.73-8.9,3.03-17.6,6.79-25.7
					C68.76,100.13,73.88,92.77,80.14,86.44z"/>
				<path class="st1" d="M82.5,89.77c-8.54,9.19-14.62,20.39-17.66,32.56c-9.25,38.19,13.39,76.86,51.23,87.47
					c16.2,4.46,33.43,3.23,48.83-3.48c-7.62,3.46-15.77,5.57-24.11,6.25c-2.08,0.18-4.17,0.25-6.26,0.21l-3.13-0.08l-3.13-0.23
					c-4.15-0.4-8.25-1.15-12.27-2.24c-38.73-10.39-61.7-50.21-51.31-88.93C67.87,109.45,74,98.61,82.5,89.77z"/>
				<g class="st2">
					<path d="M116.11,41.12h-10.69v-14.5h10.54v2.66h-6.93v3.04h6.61v2.66h-6.61v3.49h7.08V41.12z"/>
					<path d="M127.09,40.65c-1.23,0.45-2.27,0.66-3.32,0.66c-3.44,0-5.68-2-5.68-5.06c0-3,2.32-5.12,5.55-5.12
						c1,0,2.27,0.25,3.29,0.64v2.3c-0.81-0.43-1.74-0.66-2.51-0.66c-1.85,0-3.04,1.11-3.04,2.83c0,1.74,1.17,2.89,2.93,2.89
						c0.74,0,1.4-0.17,2.76-0.68V40.65z"/>
					<path d="M139.02,41.12h-3.08v-0.79c-0.87,0.7-1.68,0.98-2.72,0.98c-2.64,0-4.59-2.17-4.59-5.1c0-3,1.96-5.08,4.76-5.08
						c0.89,0,1.72,0.21,2.55,0.62v-5.12h3.08V41.12z M135.93,33.77c-0.45-0.32-1.17-0.57-1.72-0.57c-1.55,0-2.47,1.13-2.47,3.08
						c0,1.79,0.91,2.98,2.36,2.98c0.66,0,1.19-0.23,1.83-0.81V33.77z"/>
					<path d="M144.84,28.13c0,0.94-0.76,1.7-1.7,1.7s-1.7-0.76-1.7-1.7c0-0.93,0.76-1.7,1.7-1.7S144.84,27.2,144.84,28.13z
						 M144.69,41.12h-3.08v-9.8h3.08V41.12z"/>
					<path d="M154.04,34.04c-1.34-0.83-2.66-1.08-3.27-1.08c-0.4,0-1.11,0.08-1.11,0.77c0,1.08,4.87,1.13,4.87,4.4
						c0,2.04-1.45,3.19-4,3.19c-1.57,0-3.08-0.49-3.51-0.72v-2.17c1,0.42,2,0.83,3.17,0.83c0.91,0,1.49-0.28,1.49-0.72
						c0-1.42-4.87-1.17-4.87-4.38c0-1.81,1.64-3.02,4.06-3.02c1.23,0,2.15,0.21,3.17,0.72V34.04z"/>
					<path d="M165.94,40.01c-1.76,1.3-3.61,1.3-4.38,1.3c-3.44,0-5.67-2-5.67-5.06c0-3,2.15-5.12,5.17-5.12
						c2.85,0,5.21,2.02,5.06,5.59h-7.04c0.11,1.74,1.3,2.76,3.23,2.76c1.23,0,2.19-0.36,3.63-1.4V40.01z M163.39,35.1
						c-0.13-1.34-0.93-2.15-2.13-2.15c-1.21,0-2,0.79-2.13,2.15H163.39z"/>
				</g>
				<g class="st2">
					<path d="M33.34,247.33h-1.5l-1.37-3.01h-4.35l-1.29,3.01h-1.5l4.4-10.29h1.03L33.34,247.33z M26.7,243h3.18l-1.65-3.71
						L26.7,243z"/>
					<path d="M41.08,243.9c0,2.13-1.48,3.57-3.65,3.57c-2.07,0-3.55-1.5-3.55-3.57c0-1.94,1.54-3.44,3.55-3.44
						C39.55,240.46,41.08,241.9,41.08,243.9z M35.25,243.9c0,1.42,0.89,2.37,2.18,2.37c1.41,0,2.29-0.9,2.29-2.35
						c0-1.3-0.96-2.25-2.29-2.25C36.16,241.66,35.25,242.61,35.25,243.9z"/>
				</g>
				<g class="st2">
				</g>
				<g class="st2">
					<path d="M51.34,248.21c0,1.44-0.45,2.08-1.33,2.57l-1-0.99c0.58-0.24,1-0.72,1-1.47v-7.72h1.33V248.21z M50.68,239.35
						c-0.44,0-0.79-0.36-0.79-0.79c0-0.44,0.36-0.79,0.79-0.79s0.79,0.36,0.79,0.79C51.47,238.99,51.11,239.35,50.68,239.35z"/>
					<path d="M60.11,243.9c0,2.13-1.48,3.57-3.65,3.57c-2.07,0-3.55-1.5-3.55-3.57c0-1.94,1.54-3.44,3.55-3.44
						C58.58,240.46,60.11,241.9,60.11,243.9z M54.28,243.9c0,1.42,0.89,2.37,2.18,2.37c1.41,0,2.29-0.9,2.29-2.35
						c0-1.3-0.96-2.25-2.29-2.25C55.19,241.66,54.28,242.61,54.28,243.9z"/>
					<path d="M66.97,241.63h-1.38c0.53,0.53,0.71,0.9,0.71,1.47c0,0.55-0.31,1.2-0.63,1.51c-0.9,0.96-2.73,0.48-2.73,1.28
						c0,0.37,0.71,0.6,2.06,0.87c1.44,0.29,1.95,1.02,1.95,1.88c0,1.33-1.19,2.15-3.18,2.15c-1.81,0-3.1-0.86-3.1-2.04
						c0-0.99,0.52-1.58,1.69-1.86c-0.46-0.29-0.67-0.55-0.67-0.85c0-0.44,0.42-0.81,1.06-0.96v-0.03c-0.5-0.21-0.87-0.5-1.13-0.85
						c-0.24-0.35-0.36-0.77-0.36-1.26c0-1.44,1.13-2.32,2.94-2.32h2.77V241.63z M63.44,247.66c-0.9,0-1.53,0.42-1.53,1.02
						c0,0.68,0.66,1.04,1.88,1.04c1.17,0,1.86-0.36,1.86-0.97C65.65,247.88,64.27,247.66,63.44,247.66z M63.79,241.75
						c-0.73,0-1.33,0.56-1.33,1.21c0,0.74,0.54,1.23,1.35,1.23c0.75,0,1.29-0.53,1.29-1.26C65.09,242.29,64.49,241.75,63.79,241.75z
						"/>
					<path d="M73.22,246.94c-0.61,0.4-0.87,0.52-1.29,0.52c-0.58,0-0.9-0.21-1.02-0.69c-0.58,0.46-1.2,0.69-1.81,0.69
						c-0.99,0-1.65-0.78-1.65-1.65c0-1.33,1.21-1.74,2.29-2.13l1.18-0.42v-0.36c0-0.84-0.4-1.18-1.21-1.18
						c-0.73,0-1.48,0.34-2.13,1.11v-1.46c0.52-0.61,1.26-0.92,2.23-0.92c1.37,0,2.44,0.69,2.44,2.22v3.46
						c0,0.25,0.09,0.34,0.26,0.34c0.13,0,0.4-0.13,0.7-0.36V246.94z M70.93,244c-1.14,0.39-2.13,0.78-2.13,1.58
						c0,0.55,0.41,0.95,0.96,0.95c0.42,0,0.81-0.21,1.17-0.56V244z"/>
					<path d="M75.83,240.6v1.54h0.03c0.67-1.19,1.32-1.68,1.95-1.68c0.54,0,1.05,0.26,1.6,0.78l-0.7,1.16
						c-0.41-0.39-0.93-0.66-1.25-0.66c-0.92,0-1.63,0.92-1.63,2.07v3.52H74.5v-6.73H75.83z"/>
				</g>
				<g class="st2">
				</g>
				<g class="st2">
					<path d="M92.1,247.33v-0.85c-0.55,0.6-1.33,0.99-1.99,0.99c-1.37,0-2.33-0.97-2.33-2.68v-4.18h1.33v4.27
						c0,0.95,0.46,1.49,1.38,1.49c0.6,0,1.17-0.33,1.6-0.95v-4.81h1.33v6.73H92.1z"/>
					<path d="M96.6,240.6v0.88c0.69-0.69,1.33-1.02,1.97-1.02c0.85,0,1.56,0.42,2.01,1.22c0.58-0.66,1.29-1.22,2.25-1.22
						c1.36,0,2.23,1.05,2.23,2.64v4.23h-1.33v-4.17c0-1.02-0.63-1.58-1.4-1.58c-0.44-0.01-1.02,0.36-1.5,0.86v4.89h-1.33v-4.18
						c0-1.09-0.56-1.56-1.21-1.56c-0.67,0-1.13,0.21-1.68,0.86v4.89h-1.33v-6.73H96.6z"/>
				</g>
				<g class="st2">
				</g>
				<g class="st2">
					<path d="M116.02,247.33h-1.47V237.1h1.47V247.33z"/>
					<path d="M119.41,241.48h0.03c0.51-0.65,1.26-1.02,2.01-1.02c1.27,0,2.29,0.87,2.29,2.71v4.16h-1.33v-4.17
						c0-0.99-0.51-1.63-1.32-1.63c-0.58,0-1.05,0.27-1.68,0.97v4.83h-1.33v-6.73h1.33V241.48z"/>
					<path d="M129.52,242.33c-0.75-0.5-1.46-0.71-1.95-0.71c-0.54,0-0.88,0.26-0.88,0.62c0,0.3,0.45,0.66,1.63,1.35
						c1.11,0.73,1.52,1.2,1.52,1.89c0,1.18-0.94,1.98-2.22,1.98c-0.83,0-1.47-0.17-2.34-0.62v-1.44c0.87,0.6,1.67,0.88,2.21,0.88
						c0.54-0.03,0.99-0.29,0.99-0.76c0-0.93-3.15-1.42-3.15-3.24c0-1.14,0.87-1.83,2.22-1.83c0.63,0,1.27,0.18,1.98,0.56V242.33z"/>
					<path d="M137,246.67c-0.81,0.54-1.54,0.79-2.69,0.79c-2.1,0-3.27-1.72-3.27-3.58c0-2.04,1.29-3.42,3.15-3.42
						c1.79,0,2.93,1.22,2.93,3.71h-4.74c0.21,1.33,0.98,2.03,2.27,2.03c0.81,0,1.57-0.3,2.35-0.81V246.67z M135.8,243.28
						c-0.04-1.02-0.63-1.67-1.57-1.67c-1.02,0-1.64,0.6-1.81,1.67H135.8z"/>
					<path d="M140.13,240.6h2.13v1.2h-2.13v3.45c0,0.79,0.57,1.02,0.96,1.02c0.48,0,0.97-0.16,1.51-0.49v1.24
						c-0.46,0.26-1.18,0.45-1.62,0.45c-1.46,0-2.19-0.9-2.19-2.11v-3.56h-1.17v-0.15l2.5-2.45V240.6z"/>
					<path d="M150.35,243.9c0,2.13-1.49,3.57-3.65,3.57c-2.07,0-3.55-1.5-3.55-3.57c0-1.94,1.54-3.44,3.55-3.44
						C148.82,240.46,150.35,241.9,150.35,243.9z M144.52,243.9c0,1.42,0.88,2.37,2.17,2.37c1.41,0,2.29-0.9,2.29-2.35
						c0-1.3-0.96-2.25-2.29-2.25C145.43,241.66,144.52,242.61,144.52,243.9z"/>
				</g>
				<g class="st2">
				</g>
				<g class="st2">
					<path d="M166.1,243.9c0,2.13-1.48,3.57-3.64,3.57c-2.07,0-3.55-1.5-3.55-3.57c0-1.94,1.54-3.44,3.55-3.44
						C164.57,240.46,166.1,241.9,166.1,243.9z M160.26,243.9c0,1.42,0.89,2.37,2.18,2.37c1.41,0,2.29-0.9,2.29-2.35
						c0-1.3-0.96-2.25-2.29-2.25C161.18,241.66,160.26,242.61,160.26,243.9z"/>
					<path d="M171.86,247.33v-0.85c-0.55,0.6-1.33,0.99-1.99,0.99c-1.37,0-2.33-0.97-2.33-2.68v-4.18h1.33v4.27
						c0,0.95,0.46,1.49,1.38,1.49c0.6,0,1.17-0.33,1.6-0.95v-4.81h1.33v6.73H171.86z"/>
				</g>
				<g class="st2">
				</g>
				<g class="st2">
					<path d="M188.92,247.33h-1.5l-1.37-3.01h-4.35l-1.29,3.01h-1.5l4.4-10.29h1.03L188.92,247.33z M182.28,243h3.18l-1.65-3.71
						L182.28,243z"/>
					<path d="M191.29,240.6v1.54h0.03c0.67-1.19,1.32-1.68,1.95-1.68c0.54,0,1.05,0.26,1.61,0.78l-0.71,1.16
						c-0.41-0.39-0.93-0.66-1.25-0.66c-0.92,0-1.63,0.92-1.63,2.07v3.52h-1.33v-6.73H191.29z"/>
					<path d="M201.03,246.94c-0.61,0.4-0.87,0.52-1.29,0.52c-0.58,0-0.9-0.21-1.02-0.69c-0.58,0.46-1.2,0.69-1.81,0.69
						c-0.99,0-1.65-0.78-1.65-1.65c0-1.33,1.21-1.74,2.29-2.13l1.18-0.42v-0.36c0-0.84-0.4-1.18-1.21-1.18
						c-0.73,0-1.48,0.34-2.13,1.11v-1.46c0.53-0.61,1.26-0.92,2.24-0.92c1.37,0,2.44,0.69,2.44,2.22v3.46
						c0,0.25,0.09,0.34,0.26,0.34c0.13,0,0.4-0.13,0.7-0.36V246.94z M198.73,244c-1.14,0.39-2.13,0.78-2.13,1.58
						c0,0.55,0.41,0.95,0.96,0.95c0.42,0,0.81-0.21,1.17-0.56V244z"/>
					<path d="M207.16,242.35c-0.76-0.51-1.27-0.66-1.86-0.66c-1.21,0-2.05,0.92-2.05,2.28c0,1.39,0.9,2.23,2.28,2.23
						c0.57,0,1.11-0.15,1.79-0.45v1.32c-0.45,0.21-1.3,0.39-2.01,0.39c-2.01,0-3.42-1.39-3.42-3.38c0-2.22,1.29-3.63,3.33-3.63
						c0.78,0,1.3,0.18,1.95,0.47V242.35z"/>
					<path d="M210.09,241.48h0.03c0.51-0.65,1.26-1.02,2.01-1.02c1.27,0,2.29,0.87,2.29,2.71v4.16h-1.33v-4.17
						c0-0.99-0.51-1.63-1.32-1.63c-0.58,0-1.05,0.27-1.68,0.97v4.83h-1.33v-6.73h1.33V241.48z"/>
					<path d="M218.65,237.52l-1.68,2.21h-0.83l1-2.21H218.65z M217.65,247.33h-1.33v-6.73h1.33V247.33z"/>
					<path d="M225.39,247.33h-2.83c-2.01,0-3.27-1.37-3.27-3.52c0-1.95,1.39-3.35,3.36-3.35c0.45,0,0.87,0.08,1.41,0.27v-3.63h1.33
						V247.33z M224.05,241.92c-0.45-0.18-0.79-0.25-1.25-0.25c-1.29,0-2.16,0.93-2.16,2.34c0,1.26,0.51,2.21,2.05,2.21h1.35V241.92z
						"/>
					<path d="M232.84,246.67c-0.81,0.54-1.54,0.79-2.69,0.79c-2.1,0-3.27-1.72-3.27-3.58c0-2.04,1.29-3.42,3.15-3.42
						c1.79,0,2.93,1.22,2.93,3.71h-4.74c0.21,1.33,0.97,2.03,2.26,2.03c0.81,0,1.58-0.3,2.36-0.81V246.67z M231.64,243.28
						c-0.04-1.02-0.63-1.67-1.58-1.67c-1.02,0-1.63,0.6-1.81,1.67H231.64z"/>
				</g>
				<g class="st2">
					<path d="M241.2,243.9c0,2.13-1.48,3.57-3.64,3.57c-2.07,0-3.55-1.5-3.55-3.57c0-1.94,1.54-3.44,3.55-3.44
						C239.67,240.46,241.2,241.9,241.2,243.9z M235.37,243.9c0,1.42,0.88,2.37,2.17,2.37c1.41,0,2.29-0.9,2.29-2.35
						c0-1.3-0.96-2.25-2.29-2.25C236.28,241.66,235.37,242.61,235.37,243.9z"/>
				</g>
				<g class="st2">
					<path d="M242.17,248.82c0.5-0.33,0.67-1.1,0.54-1.64c-0.44-0.01-0.74-0.34-0.74-0.84s0.38-0.85,0.88-0.85
						c0.65,0,1.07,0.57,1.07,1.46c0,0.85-0.57,1.83-1.75,2.16V248.82z"/>
				</g>
				<g class="st2">
				</g>
				<g class="st2">
					<path d="M29.23,262.35c-0.76-0.51-1.27-0.66-1.86-0.66c-1.21,0-2.05,0.92-2.05,2.28c0,1.39,0.9,2.23,2.28,2.23
						c0.57,0,1.11-0.15,1.79-0.45v1.32c-0.45,0.21-1.31,0.39-2.01,0.39c-2.01,0-3.42-1.39-3.42-3.38c0-2.22,1.29-3.63,3.33-3.63
						c0.78,0,1.31,0.18,1.95,0.47V262.35z"/>
					<path d="M36.07,266.94c-0.61,0.4-0.87,0.52-1.29,0.52c-0.58,0-0.9-0.21-1.02-0.69c-0.58,0.46-1.2,0.69-1.81,0.69
						c-0.99,0-1.65-0.78-1.65-1.65c0-1.33,1.21-1.74,2.29-2.13l1.18-0.42v-0.36c0-0.84-0.4-1.18-1.21-1.18
						c-0.73,0-1.48,0.34-2.13,1.11v-1.46c0.52-0.61,1.26-0.92,2.23-0.92c1.37,0,2.44,0.69,2.44,2.22v3.46
						c0,0.25,0.09,0.34,0.26,0.34c0.13,0,0.4-0.13,0.7-0.36V266.94z M33.78,264c-1.14,0.39-2.13,0.78-2.13,1.58
						c0,0.55,0.41,0.95,0.96,0.95c0.42,0,0.81-0.21,1.17-0.56V264z"/>
					<path d="M41.17,262.33c-0.75-0.5-1.46-0.71-1.95-0.71c-0.54,0-0.88,0.26-0.88,0.62c0,0.3,0.45,0.66,1.63,1.35
						c1.11,0.73,1.52,1.2,1.52,1.89c0,1.18-0.94,1.98-2.22,1.98c-0.83,0-1.47-0.17-2.34-0.62v-1.44c0.87,0.6,1.67,0.88,2.21,0.88
						c0.54-0.03,0.99-0.29,0.99-0.76c0-0.93-3.15-1.42-3.15-3.24c0-1.14,0.87-1.83,2.22-1.83c0.63,0,1.27,0.18,1.98,0.56V262.33z"/>
					<path d="M49.83,263.9c0,2.13-1.48,3.57-3.65,3.57c-2.07,0-3.55-1.5-3.55-3.57c0-1.94,1.54-3.44,3.55-3.44
						C48.3,260.46,49.83,261.9,49.83,263.9z M43.99,263.9c0,1.42,0.89,2.37,2.17,2.37c1.41,0,2.29-0.9,2.29-2.35
						c0-1.3-0.96-2.25-2.29-2.25C44.91,261.66,43.99,262.61,43.99,263.9z"/>
				</g>
				<g class="st2">
				</g>
				<g class="st2">
					<path d="M64.79,266.94c-0.61,0.4-0.87,0.52-1.29,0.52c-0.58,0-0.9-0.21-1.02-0.69c-0.58,0.46-1.2,0.69-1.81,0.69
						c-0.99,0-1.65-0.78-1.65-1.65c0-1.33,1.21-1.74,2.29-2.13l1.18-0.42v-0.36c0-0.84-0.4-1.18-1.21-1.18
						c-0.73,0-1.48,0.34-2.13,1.11v-1.46c0.52-0.61,1.26-0.92,2.23-0.92c1.37,0,2.44,0.69,2.44,2.22v3.46
						c0,0.25,0.09,0.34,0.26,0.34c0.13,0,0.4-0.13,0.7-0.36V266.94z M62.5,264c-1.14,0.39-2.13,0.78-2.13,1.58
						c0,0.55,0.41,0.95,0.96,0.95c0.42,0,0.81-0.21,1.17-0.56V264z"/>
				</g>
				<g class="st2">
				</g>
				<g class="st2">
					<path d="M79.2,262.35c-0.76-0.51-1.27-0.66-1.86-0.66c-1.21,0-2.05,0.92-2.05,2.28c0,1.39,0.9,2.23,2.28,2.23
						c0.57,0,1.11-0.15,1.79-0.45v1.32c-0.45,0.21-1.31,0.39-2.01,0.39c-2.01,0-3.42-1.39-3.42-3.38c0-2.22,1.29-3.63,3.33-3.63
						c0.78,0,1.31,0.18,1.95,0.47V262.35z"/>
					<path d="M86.04,266.94c-0.61,0.4-0.87,0.52-1.29,0.52c-0.58,0-0.9-0.21-1.02-0.69c-0.58,0.46-1.2,0.69-1.81,0.69
						c-0.99,0-1.65-0.78-1.65-1.65c0-1.33,1.21-1.74,2.29-2.13l1.18-0.42v-0.36c0-0.84-0.4-1.18-1.21-1.18
						c-0.73,0-1.48,0.34-2.13,1.11v-1.46c0.52-0.61,1.26-0.92,2.23-0.92c1.37,0,2.44,0.69,2.44,2.22v3.46
						c0,0.25,0.09,0.34,0.26,0.34c0.13,0,0.4-0.13,0.7-0.36V266.94z M83.75,264c-1.14,0.39-2.13,0.78-2.13,1.58
						c0,0.55,0.41,0.95,0.96,0.95c0.42,0,0.81-0.21,1.17-0.56V264z"/>
				</g>
				<g class="st2">
					<path d="M88.65,260.6v1.54h0.03c0.67-1.19,1.32-1.68,1.95-1.68c0.54,0,1.05,0.26,1.6,0.78l-0.7,1.16
						c-0.41-0.39-0.93-0.66-1.25-0.66c-0.92,0-1.63,0.92-1.63,2.07v3.52h-1.33v-6.73H88.65z"/>
				</g>
				<g class="st2">
					<path d="M95.02,260.6h2.13v1.2h-2.13v3.45c0,0.79,0.57,1.02,0.96,1.02c0.48,0,0.98-0.16,1.52-0.49v1.24
						c-0.47,0.26-1.19,0.45-1.62,0.45c-1.46,0-2.19-0.9-2.19-2.11v-3.56h-1.17v-0.15l2.5-2.45V260.6z"/>
					<path d="M103.68,266.94c-0.61,0.4-0.87,0.52-1.29,0.52c-0.58,0-0.9-0.21-1.02-0.69c-0.58,0.46-1.2,0.69-1.81,0.69
						c-0.99,0-1.65-0.78-1.65-1.65c0-1.33,1.21-1.74,2.29-2.13l1.18-0.42v-0.36c0-0.84-0.4-1.18-1.21-1.18
						c-0.73,0-1.48,0.34-2.13,1.11v-1.46c0.52-0.61,1.26-0.92,2.23-0.92c1.37,0,2.44,0.69,2.44,2.22v3.46
						c0,0.25,0.09,0.34,0.26,0.34c0.13,0,0.4-0.13,0.7-0.36V266.94z M101.38,264c-1.14,0.39-2.13,0.78-2.13,1.58
						c0,0.55,0.41,0.95,0.96,0.95c0.42,0,0.81-0.21,1.17-0.56V264z"/>
				</g>
				<g class="st2">
				</g>
				<g class="st2">
					<path d="M118.35,266.94c-0.61,0.4-0.87,0.52-1.29,0.52c-0.58,0-0.9-0.21-1.02-0.69c-0.58,0.46-1.2,0.69-1.81,0.69
						c-0.99,0-1.65-0.78-1.65-1.65c0-1.33,1.21-1.74,2.29-2.13l1.18-0.42v-0.36c0-0.84-0.4-1.18-1.21-1.18
						c-0.73,0-1.48,0.34-2.13,1.11v-1.46c0.52-0.61,1.26-0.92,2.23-0.92c1.37,0,2.44,0.69,2.44,2.22v3.46
						c0,0.25,0.09,0.34,0.26,0.34c0.13,0,0.4-0.13,0.7-0.36V266.94z M116.06,264c-1.14,0.39-2.13,0.78-2.13,1.58
						c0,0.55,0.41,0.95,0.96,0.95c0.42,0,0.81-0.21,1.17-0.56V264z"/>
					<path d="M120.84,261.48h0.03c0.51-0.65,1.26-1.02,2.01-1.02c1.27,0,2.29,0.87,2.29,2.71v4.16h-1.33v-4.17
						c0-0.99-0.51-1.63-1.32-1.63c-0.58,0-1.05,0.27-1.68,0.97v4.83h-1.33v-6.73h1.33V261.48z"/>
					<path d="M128.6,260.6h2.13v1.2h-2.13v3.45c0,0.79,0.57,1.02,0.96,1.02c0.48,0,0.98-0.16,1.52-0.49v1.24
						c-0.47,0.26-1.19,0.45-1.62,0.45c-1.46,0-2.19-0.9-2.19-2.11v-3.56h-1.17v-0.15l2.5-2.45V260.6z"/>
					<path d="M137.66,266.67c-0.81,0.54-1.54,0.79-2.69,0.79c-2.1,0-3.27-1.72-3.27-3.58c0-2.04,1.29-3.42,3.15-3.42
						c1.79,0,2.93,1.22,2.93,3.71h-4.74c0.21,1.33,0.98,2.03,2.27,2.03c0.81,0,1.58-0.3,2.36-0.81V266.67z M136.46,263.28
						c-0.04-1.02-0.63-1.67-1.58-1.67c-1.02,0-1.64,0.6-1.81,1.67H136.46z"/>
					<path d="M140.64,260.6v1.54h0.03c0.67-1.19,1.32-1.68,1.95-1.68c0.54,0,1.05,0.26,1.61,0.78l-0.71,1.16
						c-0.41-0.39-0.93-0.66-1.25-0.66c-0.92,0-1.63,0.92-1.63,2.07v3.52h-1.33v-6.73H140.64z"/>
					<path d="M145.86,259.35c-0.43,0-0.79-0.36-0.79-0.79c0-0.44,0.36-0.79,0.79-0.79c0.44,0,0.79,0.36,0.79,0.79
						C146.66,258.99,146.3,259.35,145.86,259.35z M146.52,267.33h-1.33v-6.73h1.33V267.33z"/>
					<path d="M155.24,263.9c0,2.13-1.48,3.57-3.64,3.57c-2.07,0-3.55-1.5-3.55-3.57c0-1.94,1.54-3.44,3.55-3.44
						C153.71,260.46,155.24,261.9,155.24,263.9z M149.4,263.9c0,1.42,0.89,2.37,2.18,2.37c1.41,0,2.29-0.9,2.29-2.35
						c0-1.3-0.96-2.25-2.29-2.25C150.32,261.66,149.4,262.61,149.4,263.9z"/>
					<path d="M158.15,260.6v1.54h0.03c0.67-1.19,1.32-1.68,1.95-1.68c0.54,0,1.05,0.26,1.61,0.78l-0.71,1.16
						c-0.41-0.39-0.93-0.66-1.25-0.66c-0.92,0-1.63,0.92-1.63,2.07v3.52h-1.33v-6.73H158.15z"/>
				</g>
				<g class="st2">
				</g>
				<g class="st2">
					<path d="M174.85,262.33c-0.75-0.5-1.46-0.71-1.95-0.71c-0.54,0-0.88,0.26-0.88,0.62c0,0.3,0.45,0.66,1.63,1.35
						c1.11,0.73,1.52,1.2,1.52,1.89c0,1.18-0.95,1.98-2.22,1.98c-0.83,0-1.47-0.17-2.34-0.62v-1.44c0.87,0.6,1.67,0.88,2.21,0.88
						c0.54-0.03,0.99-0.29,0.99-0.76c0-0.93-3.15-1.42-3.15-3.24c0-1.14,0.87-1.83,2.22-1.83c0.63,0,1.27,0.18,1.98,0.56V262.33z"/>
					<path d="M182.33,266.67c-0.81,0.54-1.54,0.79-2.69,0.79c-2.1,0-3.27-1.72-3.27-3.58c0-2.04,1.29-3.42,3.15-3.42
						c1.79,0,2.93,1.22,2.93,3.71h-4.74c0.21,1.33,0.97,2.03,2.26,2.03c0.81,0,1.58-0.3,2.36-0.81V266.67z M181.13,263.28
						c-0.04-1.02-0.63-1.67-1.58-1.67c-1.02,0-1.63,0.6-1.81,1.67H181.13z"/>
					<path d="M185.2,268.21c0,1.44-0.45,2.08-1.33,2.57l-1-0.99c0.58-0.24,1-0.72,1-1.47v-7.72h1.33V268.21z M184.54,259.35
						c-0.44,0-0.79-0.36-0.79-0.79c0-0.44,0.36-0.79,0.79-0.79c0.43,0,0.79,0.36,0.79,0.79
						C185.33,258.99,184.97,259.35,184.54,259.35z"/>
					<path d="M192.4,266.94c-0.62,0.4-0.87,0.52-1.29,0.52c-0.58,0-0.9-0.21-1.02-0.69c-0.58,0.46-1.2,0.69-1.82,0.69
						c-0.99,0-1.65-0.78-1.65-1.65c0-1.33,1.21-1.74,2.29-2.13l1.18-0.42v-0.36c0-0.84-0.41-1.18-1.21-1.18
						c-0.74,0-1.49,0.34-2.13,1.11v-1.46c0.52-0.61,1.26-0.92,2.23-0.92c1.37,0,2.45,0.69,2.45,2.22v3.46
						c0,0.25,0.09,0.34,0.25,0.34c0.13,0,0.41-0.13,0.71-0.36V266.94z M190.1,264c-1.14,0.39-2.13,0.78-2.13,1.58
						c0,0.55,0.41,0.95,0.96,0.95c0.42,0,0.81-0.21,1.17-0.56V264z"/>
				</g>
				<g class="st2">
				</g>
				<g class="st2">
					<path d="M207.67,267.33h-2.83c-2.01,0-3.27-1.37-3.27-3.52c0-1.95,1.39-3.35,3.36-3.35c0.45,0,0.87,0.08,1.41,0.27v-3.63h1.33
						V267.33z M206.34,261.92c-0.45-0.18-0.79-0.25-1.25-0.25c-1.29,0-2.16,0.93-2.16,2.34c0,1.26,0.51,2.21,2.06,2.21h1.35V261.92z
						"/>
					<path d="M215.13,266.67c-0.81,0.54-1.54,0.79-2.69,0.79c-2.1,0-3.27-1.72-3.27-3.58c0-2.04,1.29-3.42,3.15-3.42
						c1.79,0,2.93,1.22,2.93,3.71h-4.74c0.21,1.33,0.97,2.03,2.26,2.03c0.81,0,1.58-0.3,2.36-0.81V266.67z M213.93,263.28
						c-0.04-1.02-0.63-1.67-1.58-1.67c-1.02,0-1.63,0.6-1.81,1.67H213.93z"/>
				</g>
				<g class="st2">
				</g>
				<g class="st2">
					<path d="M229.23,267.33v-0.85c-0.55,0.6-1.33,0.99-1.99,0.99c-1.37,0-2.33-0.97-2.33-2.68v-4.18h1.33v4.27
						c0,0.95,0.46,1.49,1.38,1.49c0.6,0,1.17-0.33,1.6-0.95v-4.81h1.33v6.73H229.23z"/>
					<path d="M233.73,260.6v0.88c0.69-0.69,1.33-1.02,1.97-1.02c0.85,0,1.56,0.42,2.01,1.22c0.58-0.66,1.29-1.22,2.25-1.22
						c1.36,0,2.23,1.05,2.23,2.64v4.23h-1.33v-4.17c0-1.02-0.63-1.58-1.39-1.58c-0.44-0.01-1.02,0.36-1.5,0.86v4.89h-1.33v-4.18
						c0-1.09-0.56-1.56-1.21-1.56c-0.67,0-1.13,0.21-1.68,0.86v4.89h-1.33v-6.73H233.73z"/>
				</g>
				<g class="st2">
					<path d="M30.1,287.33h-2.83c-2.01,0-3.27-1.37-3.27-3.52c0-1.95,1.39-3.35,3.36-3.35c0.45,0,0.87,0.08,1.41,0.27v-3.63h1.33
						V287.33z M28.77,281.92c-0.45-0.18-0.79-0.25-1.24-0.25c-1.29,0-2.16,0.93-2.16,2.34c0,1.26,0.51,2.21,2.06,2.21h1.35V281.92z"
						/>
					<path d="M37.56,286.67c-0.81,0.54-1.54,0.79-2.69,0.79c-2.1,0-3.27-1.72-3.27-3.58c0-2.04,1.29-3.42,3.15-3.42
						c1.79,0,2.93,1.22,2.93,3.71h-4.74c0.21,1.33,0.98,2.03,2.27,2.03c0.81,0,1.57-0.3,2.35-0.81V286.67z M36.36,283.28
						c-0.04-1.02-0.63-1.67-1.57-1.67c-1.02,0-1.64,0.6-1.81,1.67H36.36z"/>
					<path d="M43.03,282.33c-0.75-0.5-1.46-0.71-1.95-0.71c-0.54,0-0.88,0.26-0.88,0.62c0,0.3,0.45,0.66,1.63,1.35
						c1.11,0.73,1.52,1.2,1.52,1.89c0,1.18-0.94,1.98-2.22,1.98c-0.83,0-1.47-0.17-2.34-0.62v-1.44c0.87,0.6,1.67,0.88,2.21,0.88
						c0.54-0.03,0.99-0.29,0.99-0.76c0-0.93-3.15-1.42-3.15-3.24c0-1.14,0.87-1.83,2.22-1.83c0.63,0,1.27,0.18,1.98,0.56V282.33z"/>
					<path d="M48.81,282.33c-0.75-0.5-1.46-0.71-1.95-0.71c-0.54,0-0.88,0.26-0.88,0.62c0,0.3,0.45,0.66,1.63,1.35
						c1.11,0.73,1.52,1.2,1.52,1.89c0,1.18-0.94,1.98-2.22,1.98c-0.83,0-1.47-0.17-2.34-0.62v-1.44c0.87,0.6,1.67,0.88,2.21,0.88
						c0.54-0.03,0.99-0.29,0.99-0.76c0-0.93-3.15-1.42-3.15-3.24c0-1.14,0.87-1.83,2.22-1.83c0.63,0,1.27,0.18,1.98,0.56V282.33z"/>
					<path d="M56.29,286.67c-0.81,0.54-1.54,0.79-2.69,0.79c-2.1,0-3.27-1.72-3.27-3.58c0-2.04,1.29-3.42,3.15-3.42
						c1.79,0,2.93,1.22,2.93,3.71h-4.74c0.21,1.33,0.98,2.03,2.27,2.03c0.81,0,1.57-0.3,2.35-0.81V286.67z M55.09,283.28
						c-0.04-1.02-0.63-1.67-1.57-1.67c-1.02,0-1.63,0.6-1.81,1.67H55.09z"/>
					<path d="M61.77,282.33c-0.75-0.5-1.46-0.71-1.95-0.71c-0.54,0-0.88,0.26-0.88,0.62c0,0.3,0.45,0.66,1.63,1.35
						c1.11,0.73,1.52,1.2,1.52,1.89c0,1.18-0.94,1.98-2.22,1.98c-0.83,0-1.47-0.17-2.34-0.62v-1.44c0.87,0.6,1.67,0.88,2.21,0.88
						c0.54-0.03,0.99-0.29,0.99-0.76c0-0.93-3.15-1.42-3.15-3.24c0-1.14,0.87-1.83,2.22-1.83c0.63,0,1.27,0.18,1.98,0.56V282.33z"/>
				</g>
				<g class="st2">
				</g>
				<g class="st2">
					<path d="M73.13,281.63h-1.38c0.53,0.53,0.71,0.9,0.71,1.47c0,0.55-0.31,1.2-0.63,1.51c-0.9,0.96-2.73,0.48-2.73,1.28
						c0,0.37,0.71,0.6,2.06,0.87c1.44,0.29,1.95,1.02,1.95,1.88c0,1.33-1.19,2.15-3.18,2.15c-1.81,0-3.1-0.86-3.1-2.04
						c0-0.99,0.52-1.58,1.69-1.86c-0.46-0.29-0.67-0.55-0.67-0.85c0-0.44,0.42-0.81,1.06-0.96v-0.03c-0.5-0.21-0.87-0.5-1.13-0.85
						c-0.24-0.35-0.36-0.77-0.36-1.26c0-1.44,1.13-2.32,2.94-2.32h2.77V281.63z M69.6,287.66c-0.9,0-1.53,0.42-1.53,1.02
						c0,0.68,0.66,1.04,1.88,1.04c1.17,0,1.86-0.36,1.86-0.97C71.8,287.88,70.42,287.66,69.6,287.66z M69.94,281.75
						c-0.73,0-1.33,0.56-1.33,1.21c0,0.74,0.54,1.23,1.35,1.23c0.75,0,1.29-0.53,1.29-1.26C71.25,282.29,70.65,281.75,69.94,281.75z
						"/>
					<path d="M75.58,280.6v1.54h0.03c0.67-1.19,1.32-1.68,1.95-1.68c0.54,0,1.05,0.26,1.6,0.78l-0.7,1.16
						c-0.41-0.39-0.93-0.66-1.25-0.66c-0.92,0-1.63,0.92-1.63,2.07v3.52h-1.33v-6.73H75.58z"/>
					<path d="M84.37,287.33v-0.85c-0.55,0.6-1.33,0.99-1.99,0.99c-1.37,0-2.33-0.97-2.33-2.68v-4.18h1.33v4.27
						c0,0.95,0.46,1.49,1.38,1.49c0.6,0,1.17-0.33,1.6-0.95v-4.81h1.33v6.73H84.37z"/>
					<path d="M88.84,290.78h-1.33V280.6h2.31c2.46,0,3.79,1.2,3.79,3.42c0,2.02-1.43,3.45-3.42,3.45c-0.44,0-0.84-0.09-1.35-0.3
						V290.78z M88.84,285.96c0.4,0.2,0.84,0.3,1.26,0.3c1.25,0,2.15-0.96,2.15-2.26c0-1.39-0.73-2.21-2.19-2.21h-1.21V285.96z"/>
					<path d="M101.89,283.9c0,2.13-1.48,3.57-3.65,3.57c-2.07,0-3.55-1.5-3.55-3.57c0-1.94,1.54-3.44,3.55-3.44
						C100.36,280.46,101.89,281.9,101.89,283.9z M96.06,283.9c0,1.42,0.89,2.37,2.18,2.37c1.41,0,2.29-0.9,2.29-2.35
						c0-1.3-0.96-2.25-2.29-2.25C96.97,281.66,96.06,282.61,96.06,283.9z"/>
					<path d="M107.29,282.33c-0.75-0.5-1.46-0.71-1.95-0.71c-0.54,0-0.88,0.26-0.88,0.62c0,0.3,0.45,0.66,1.63,1.35
						c1.11,0.73,1.52,1.2,1.52,1.89c0,1.18-0.94,1.98-2.22,1.98c-0.83,0-1.47-0.17-2.34-0.62v-1.44c0.87,0.6,1.67,0.88,2.21,0.88
						c0.54-0.03,0.99-0.29,0.99-0.76c0-0.93-3.15-1.42-3.15-3.24c0-1.14,0.87-1.83,2.22-1.83c0.63,0,1.27,0.18,1.98,0.56V282.33z"/>
				</g>
				<g class="st2">
					<path d="M109.07,288.82c0.5-0.33,0.68-1.1,0.54-1.64c-0.44-0.01-0.73-0.34-0.73-0.84s0.38-0.85,0.88-0.85
						c0.65,0,1.06,0.57,1.06,1.46c0,0.85-0.57,1.83-1.75,2.16V288.82z"/>
				</g>
				<g class="st2">
				</g>
				<g class="st2">
					<path d="M114.17,280.6h1.46l1.81,4.14l1.77-4.14h1.42l-2.97,6.87h-0.45L114.17,280.6z"/>
				</g>
				<g class="st2">
					<path d="M128.12,283.9c0,2.13-1.48,3.57-3.65,3.57c-2.07,0-3.55-1.5-3.55-3.57c0-1.94,1.54-3.44,3.55-3.44
						C126.59,280.46,128.12,281.9,128.12,283.9z M122.28,283.9c0,1.42,0.89,2.37,2.18,2.37c1.41,0,2.29-0.9,2.29-2.35
						c0-1.3-0.96-2.25-2.29-2.25C123.2,281.66,122.28,282.61,122.28,283.9z"/>
					<path d="M134.55,282.35c-0.76-0.51-1.27-0.66-1.86-0.66c-1.21,0-2.05,0.92-2.05,2.28c0,1.39,0.9,2.23,2.28,2.23
						c0.57,0,1.11-0.15,1.79-0.45v1.32c-0.45,0.21-1.31,0.39-2.01,0.39c-2.01,0-3.42-1.39-3.42-3.38c0-2.22,1.29-3.63,3.33-3.63
						c0.78,0,1.31,0.18,1.95,0.47V282.35z"/>
					<path d="M141.8,286.67c-0.81,0.54-1.54,0.79-2.69,0.79c-2.1,0-3.27-1.72-3.27-3.58c0-2.04,1.29-3.42,3.15-3.42
						c1.79,0,2.93,1.22,2.93,3.71h-4.74c0.21,1.33,0.97,2.03,2.26,2.03c0.81,0,1.58-0.3,2.36-0.81V286.67z M140.91,279.74h-0.82
						l-1.31-1.3l-1.24,1.3h-0.79l1.36-2.26h1.4L140.91,279.74z M140.6,283.28c-0.04-1.02-0.63-1.67-1.58-1.67
						c-1.02,0-1.63,0.6-1.81,1.67H140.6z"/>
				</g>
				<g class="st2">
				</g>
				<g class="st2">
					<path d="M148.74,290.78h-1.33V280.6h2.31c2.46,0,3.79,1.2,3.79,3.42c0,2.02-1.42,3.45-3.42,3.45c-0.43,0-0.84-0.09-1.35-0.3
						V290.78z M148.74,285.96c0.4,0.2,0.84,0.3,1.26,0.3c1.25,0,2.14-0.96,2.14-2.26c0-1.39-0.73-2.21-2.19-2.21h-1.21V285.96z"/>
					<path d="M161.79,283.9c0,2.13-1.49,3.57-3.65,3.57c-2.07,0-3.55-1.5-3.55-3.57c0-1.94,1.54-3.44,3.55-3.44
						C160.26,280.46,161.79,281.9,161.79,283.9z M155.96,283.9c0,1.42,0.88,2.37,2.17,2.37c1.41,0,2.29-0.9,2.29-2.35
						c0-1.3-0.96-2.25-2.29-2.25C156.87,281.66,155.96,282.61,155.96,283.9z"/>
					<path d="M169.09,287.33h-2.83c-2.01,0-3.27-1.37-3.27-3.52c0-1.95,1.39-3.35,3.36-3.35c0.45,0,0.87,0.08,1.41,0.27v-3.63h1.33
						V287.33z M167.76,281.92c-0.45-0.18-0.79-0.25-1.25-0.25c-1.29,0-2.16,0.93-2.16,2.34c0,1.26,0.51,2.21,2.05,2.21h1.35V281.92z
						"/>
					<path d="M176.55,286.67c-0.81,0.54-1.54,0.79-2.69,0.79c-2.1,0-3.27-1.72-3.27-3.58c0-2.04,1.29-3.42,3.15-3.42
						c1.79,0,2.93,1.22,2.93,3.71h-4.74c0.21,1.33,0.97,2.03,2.26,2.03c0.81,0,1.58-0.3,2.36-0.81V286.67z M175.35,283.28
						c-0.04-1.02-0.63-1.67-1.58-1.67c-1.02,0-1.63,0.6-1.81,1.67H175.35z"/>
				</g>
				<g class="st2">
				</g>
				<g class="st2">
					<path d="M187.18,282.35c-0.76-0.51-1.28-0.66-1.86-0.66c-1.21,0-2.05,0.92-2.05,2.28c0,1.39,0.9,2.23,2.28,2.23
						c0.57,0,1.11-0.15,1.79-0.45v1.32c-0.45,0.21-1.31,0.39-2.01,0.39c-2.01,0-3.42-1.39-3.42-3.38c0-2.22,1.29-3.63,3.33-3.63
						c0.78,0,1.31,0.18,1.95,0.47V282.35z"/>
					<path d="M194.02,286.94c-0.62,0.4-0.87,0.52-1.29,0.52c-0.58,0-0.9-0.21-1.02-0.69c-0.58,0.46-1.2,0.69-1.82,0.69
						c-0.99,0-1.65-0.78-1.65-1.65c0-1.33,1.21-1.74,2.29-2.13l1.18-0.42v-0.36c0-0.84-0.41-1.18-1.21-1.18
						c-0.74,0-1.49,0.34-2.13,1.11v-1.46c0.52-0.61,1.26-0.92,2.23-0.92c1.37,0,2.45,0.69,2.45,2.22v3.46
						c0,0.25,0.09,0.34,0.25,0.34c0.13,0,0.41-0.13,0.71-0.36V286.94z M191.73,284c-1.14,0.39-2.13,0.78-2.13,1.58
						c0,0.55,0.41,0.95,0.96,0.95c0.42,0,0.81-0.21,1.17-0.56V284z"/>
					<path d="M199.48,287.33v-0.85c-0.55,0.6-1.33,0.99-2,0.99c-1.37,0-2.33-0.97-2.33-2.68v-4.18h1.33v4.27
						c0,0.95,0.46,1.49,1.38,1.49c0.6,0,1.17-0.33,1.61-0.95v-4.81h1.33v6.73H199.48z"/>
					<path d="M206.62,282.33c-0.75-0.5-1.46-0.71-1.95-0.71c-0.54,0-0.88,0.26-0.88,0.62c0,0.3,0.45,0.66,1.63,1.35
						c1.11,0.73,1.52,1.2,1.52,1.89c0,1.18-0.95,1.98-2.22,1.98c-0.83,0-1.47-0.17-2.34-0.62v-1.44c0.87,0.6,1.67,0.88,2.21,0.88
						c0.54-0.03,0.99-0.29,0.99-0.76c0-0.93-3.15-1.42-3.15-3.24c0-1.14,0.87-1.83,2.22-1.83c0.63,0,1.27,0.18,1.98,0.56V282.33z"/>
					<path d="M213.7,286.94c-0.62,0.4-0.87,0.52-1.29,0.52c-0.58,0-0.9-0.21-1.02-0.69c-0.58,0.46-1.2,0.69-1.82,0.69
						c-0.99,0-1.65-0.78-1.65-1.65c0-1.33,1.21-1.74,2.29-2.13l1.18-0.42v-0.36c0-0.84-0.41-1.18-1.21-1.18
						c-0.74,0-1.49,0.34-2.13,1.11v-1.46c0.52-0.61,1.26-0.92,2.23-0.92c1.37,0,2.45,0.69,2.45,2.22v3.46
						c0,0.25,0.09,0.34,0.25,0.34c0.13,0,0.41-0.13,0.71-0.36V286.94z M211.41,284c-1.14,0.39-2.13,0.78-2.13,1.58
						c0,0.55,0.41,0.95,0.96,0.95c0.42,0,0.81-0.21,1.17-0.56V284z"/>
					<path d="M216.31,280.6v1.54h0.03c0.67-1.19,1.32-1.68,1.95-1.68c0.54,0,1.05,0.26,1.6,0.78l-0.7,1.16
						c-0.41-0.39-0.93-0.66-1.25-0.66c-0.92,0-1.63,0.92-1.63,2.07v3.52h-1.33v-6.73H216.31z"/>
				</g>
				<g class="st2">
				</g>
				<g class="st2">
					<path d="M229.23,287.33v-0.85c-0.55,0.6-1.33,0.99-1.99,0.99c-1.37,0-2.33-0.97-2.33-2.68v-4.18h1.33v4.27
						c0,0.95,0.46,1.49,1.38,1.49c0.6,0,1.17-0.33,1.6-0.95v-4.81h1.33v6.73H229.23z"/>
					<path d="M233.73,280.6v0.88c0.69-0.69,1.33-1.02,1.97-1.02c0.85,0,1.56,0.42,2.01,1.22c0.58-0.66,1.29-1.22,2.25-1.22
						c1.36,0,2.23,1.05,2.23,2.64v4.23h-1.33v-4.17c0-1.02-0.63-1.58-1.39-1.58c-0.44-0.01-1.02,0.36-1.5,0.86v4.89h-1.33v-4.18
						c0-1.09-0.56-1.56-1.21-1.56c-0.67,0-1.13,0.21-1.68,0.86v4.89h-1.33v-6.73H233.73z"/>
				</g>
				<g class="st2">
					<path d="M29.94,306.67c-0.81,0.54-1.54,0.79-2.69,0.79c-2.1,0-3.27-1.72-3.27-3.58c0-2.04,1.29-3.42,3.15-3.42
						c1.79,0,2.93,1.22,2.93,3.71h-4.74c0.21,1.33,0.98,2.03,2.27,2.03c0.81,0,1.57-0.3,2.35-0.81V306.67z M28.74,303.28
						c-0.04-1.02-0.63-1.67-1.57-1.67c-1.02,0-1.63,0.6-1.81,1.67H28.74z"/>
				</g>
				<g class="st2">
					<path d="M34.99,298.41c-0.23-0.09-0.36-0.12-0.6-0.12c-1.08,0-1.42,0.63-1.42,1.67v0.65h1.21v1.2h-1.21v5.54h-1.33v-5.54h-0.95
						v-1.2h0.95v-0.5c0-1.32,0.31-1.95,0.85-2.49c0.57-0.57,1.33-0.84,2.5-0.51V298.41z"/>
				</g>
				<g class="st2">
					<path d="M40.73,306.67c-0.81,0.54-1.54,0.79-2.69,0.79c-2.1,0-3.27-1.72-3.27-3.58c0-2.04,1.29-3.42,3.15-3.42
						c1.79,0,2.93,1.22,2.93,3.71h-4.74c0.21,1.33,0.98,2.03,2.27,2.03c0.81,0,1.57-0.3,2.35-0.81V306.67z M39.53,303.28
						c-0.04-1.02-0.63-1.67-1.57-1.67c-1.02,0-1.63,0.6-1.81,1.67H39.53z"/>
					<path d="M43,299.35c-0.44,0-0.79-0.36-0.79-0.79c0-0.44,0.36-0.79,0.79-0.79s0.79,0.36,0.79,0.79
						C43.79,298.99,43.43,299.35,43,299.35z M43.66,307.33h-1.33v-6.73h1.33V307.33z"/>
					<path d="M47.13,300.6h2.13v1.2h-2.13v3.45c0,0.79,0.57,1.02,0.96,1.02c0.48,0,0.98-0.16,1.52-0.49v1.24
						c-0.47,0.26-1.19,0.45-1.62,0.45c-1.46,0-2.19-0.9-2.19-2.11v-3.56h-1.17v-0.15l2.5-2.45V300.6z"/>
					<path d="M57.36,303.9c0,2.13-1.48,3.57-3.65,3.57c-2.07,0-3.55-1.5-3.55-3.57c0-1.94,1.54-3.44,3.55-3.44
						C55.83,300.46,57.36,301.9,57.36,303.9z M51.53,303.9c0,1.42,0.89,2.37,2.18,2.37c1.41,0,2.29-0.9,2.29-2.35
						c0-1.3-0.96-2.25-2.29-2.25C52.44,301.66,51.53,302.61,51.53,303.9z"/>
					<path d="M68.84,307.33H66c-2.01,0-3.27-1.37-3.27-3.52c0-1.95,1.39-3.35,3.36-3.35c0.45,0,0.87,0.08,1.41,0.27v-3.63h1.33
						V307.33z M67.5,301.92c-0.45-0.18-0.79-0.25-1.24-0.25c-1.29,0-2.16,0.93-2.16,2.34c0,1.26,0.51,2.21,2.05,2.21h1.35V301.92z"
						/>
					<path d="M76.29,306.67c-0.81,0.54-1.54,0.79-2.69,0.79c-2.1,0-3.27-1.72-3.27-3.58c0-2.04,1.29-3.42,3.15-3.42
						c1.79,0,2.93,1.22,2.93,3.71h-4.74c0.21,1.33,0.98,2.03,2.27,2.03c0.81,0,1.57-0.3,2.35-0.81V306.67z M75.09,303.28
						c-0.04-1.02-0.63-1.67-1.57-1.67c-1.02,0-1.63,0.6-1.81,1.67H75.09z"/>
					<path d="M86.07,298.5v2.92H89v1.23h-2.93v2.92h-1.23v-2.92h-2.92v-1.23h2.92v-2.92H86.07z"/>
					<path d="M96.83,307.33h-6.48v-0.11c1.13-1.36,2.69-3.22,3.56-4.71c0.48-0.83,0.72-1.33,0.72-2.19c0-1.13-0.75-1.92-1.75-1.92
						c-0.73,0-1.48,0.33-2.31,1.38v-1.84c0.82-0.66,1.59-0.97,2.41-0.97c1.85,0,3.12,1.3,3.12,3.19c0,1.67-0.9,3.06-3.18,5.78h3.92
						V307.33z"/>
					<path d="M107.67,306.94c-0.61,0.4-0.87,0.52-1.29,0.52c-0.58,0-0.9-0.21-1.02-0.69c-0.58,0.46-1.2,0.69-1.81,0.69
						c-0.99,0-1.65-0.78-1.65-1.65c0-1.33,1.21-1.74,2.29-2.13l1.18-0.42v-0.36c0-0.84-0.4-1.18-1.21-1.18
						c-0.73,0-1.48,0.34-2.13,1.11v-1.46c0.52-0.61,1.26-0.92,2.23-0.92c1.37,0,2.44,0.69,2.44,2.22v3.46
						c0,0.25,0.09,0.34,0.26,0.34c0.13,0,0.4-0.13,0.7-0.36V306.94z M105.38,304c-1.14,0.39-2.13,0.78-2.13,1.58
						c0,0.55,0.41,0.95,0.96,0.95c0.42,0,0.81-0.21,1.17-0.56V304z"/>
					<path d="M115.65,303.9c0,2.13-1.48,3.57-3.65,3.57c-2.07,0-3.55-1.5-3.55-3.57c0-1.94,1.54-3.44,3.55-3.44
						C114.12,300.46,115.65,301.9,115.65,303.9z M109.82,303.9c0,1.42,0.89,2.37,2.18,2.37c1.41,0,2.29-0.9,2.29-2.35
						c0-1.3-0.96-2.25-2.29-2.25C110.73,301.66,109.82,302.61,109.82,303.9z"/>
					<path d="M122.61,308.21c0,1.44-0.45,2.08-1.33,2.57l-1-0.99c0.58-0.24,1-0.72,1-1.47v-7.72h1.33V308.21z M121.95,299.35
						c-0.44,0-0.79-0.36-0.79-0.79c0-0.44,0.36-0.79,0.79-0.79s0.79,0.36,0.79,0.79C122.75,298.99,122.39,299.35,121.95,299.35z"/>
					<path d="M131.39,303.9c0,2.13-1.48,3.57-3.65,3.57c-2.07,0-3.55-1.5-3.55-3.57c0-1.94,1.54-3.44,3.55-3.44
						C129.86,300.46,131.39,301.9,131.39,303.9z M125.55,303.9c0,1.42,0.89,2.37,2.17,2.37c1.41,0,2.29-0.9,2.29-2.35
						c0-1.3-0.96-2.25-2.29-2.25C126.47,301.66,125.55,302.61,125.55,303.9z"/>
					<path d="M138.24,301.63h-1.38c0.53,0.53,0.71,0.9,0.71,1.47c0,0.55-0.32,1.2-0.63,1.51c-0.9,0.96-2.73,0.48-2.73,1.28
						c0,0.37,0.71,0.6,2.06,0.87c1.44,0.29,1.95,1.02,1.95,1.88c0,1.33-1.18,2.15-3.18,2.15c-1.81,0-3.1-0.86-3.1-2.04
						c0-0.99,0.52-1.58,1.69-1.86c-0.46-0.29-0.67-0.55-0.67-0.85c0-0.44,0.42-0.81,1.06-0.96v-0.03c-0.5-0.21-0.87-0.5-1.13-0.85
						c-0.24-0.35-0.36-0.77-0.36-1.26c0-1.44,1.13-2.32,2.94-2.32h2.77V301.63z M134.72,307.66c-0.9,0-1.53,0.42-1.53,1.02
						c0,0.68,0.66,1.04,1.88,1.04c1.17,0,1.86-0.36,1.86-0.97C136.92,307.88,135.54,307.66,134.72,307.66z M135.06,301.75
						c-0.73,0-1.33,0.56-1.33,1.21c0,0.74,0.54,1.23,1.35,1.23c0.75,0,1.29-0.53,1.29-1.26
						C136.37,302.29,135.77,301.75,135.06,301.75z"/>
					<path d="M144.5,306.94c-0.62,0.4-0.87,0.52-1.29,0.52c-0.58,0-0.9-0.21-1.02-0.69c-0.58,0.46-1.2,0.69-1.82,0.69
						c-0.99,0-1.65-0.78-1.65-1.65c0-1.33,1.21-1.74,2.29-2.13l1.18-0.42v-0.36c0-0.84-0.41-1.18-1.21-1.18
						c-0.74,0-1.49,0.34-2.13,1.11v-1.46c0.52-0.61,1.26-0.92,2.23-0.92c1.37,0,2.45,0.69,2.45,2.22v3.46
						c0,0.25,0.09,0.34,0.25,0.34c0.13,0,0.41-0.13,0.71-0.36V306.94z M142.2,304c-1.14,0.39-2.13,0.78-2.13,1.58
						c0,0.55,0.41,0.95,0.96,0.95c0.42,0,0.81-0.21,1.17-0.56V304z"/>
					<path d="M151.5,307.33h-2.83c-2.01,0-3.27-1.37-3.27-3.52c0-1.95,1.39-3.35,3.36-3.35c0.45,0,0.87,0.08,1.41,0.27v-3.63h1.33
						V307.33z M150.17,301.92c-0.45-0.18-0.79-0.25-1.25-0.25c-1.29,0-2.16,0.93-2.16,2.34c0,1.26,0.51,2.21,2.06,2.21h1.35V301.92z
						"/>
					<path d="M160.13,303.9c0,2.13-1.49,3.57-3.65,3.57c-2.07,0-3.55-1.5-3.55-3.57c0-1.94,1.54-3.44,3.55-3.44
						C158.6,300.46,160.13,301.9,160.13,303.9z M154.29,303.9c0,1.42,0.88,2.37,2.17,2.37c1.41,0,2.29-0.9,2.29-2.35
						c0-1.3-0.96-2.25-2.29-2.25C155.21,301.66,154.29,302.61,154.29,303.9z"/>
					<path d="M163.04,300.6v1.54h0.03c0.67-1.19,1.32-1.68,1.95-1.68c0.54,0,1.05,0.26,1.6,0.78l-0.7,1.16
						c-0.41-0.39-0.93-0.66-1.25-0.66c-0.92,0-1.63,0.92-1.63,2.07v3.52h-1.33v-6.73H163.04z"/>
					<path d="M176.09,307.22c-0.49,0.15-0.97,0.24-1.35,0.24c-2,0-3.42-1.42-3.42-3.45c0-1.08,0.54-3.42,3.65-3.42h2.46v10.18h-1.33
						V307.22z M174.87,301.79c-1.06,0-2.19,0.68-2.19,2.21c0,1.3,0.9,2.34,2.14,2.34c0.42,0,0.86-0.1,1.26-0.3v-4.25H174.87z"/>
					<path d="M183.5,307.33v-0.85c-0.55,0.6-1.33,0.99-1.99,0.99c-1.37,0-2.33-0.97-2.33-2.68v-4.18h1.33v4.27
						c0,0.95,0.46,1.49,1.38,1.49c0.6,0,1.17-0.33,1.6-0.95v-4.81h1.33v6.73H183.5z"/>
					<path d="M192.35,306.67c-0.81,0.54-1.54,0.79-2.69,0.79c-2.1,0-3.27-1.72-3.27-3.58c0-2.04,1.29-3.42,3.15-3.42
						c1.79,0,2.93,1.22,2.93,3.71h-4.74c0.21,1.33,0.97,2.03,2.26,2.03c0.81,0,1.58-0.3,2.36-0.81V306.67z M191.15,303.28
						c-0.04-1.02-0.63-1.67-1.58-1.67c-1.02,0-1.63,0.6-1.81,1.67H191.15z"/>
					<path d="M203.3,306.94c-0.61,0.4-0.87,0.52-1.29,0.52c-0.58,0-0.9-0.21-1.02-0.69c-0.58,0.46-1.2,0.69-1.81,0.69
						c-0.99,0-1.65-0.78-1.65-1.65c0-1.33,1.21-1.74,2.29-2.13l1.18-0.42v-0.36c0-0.84-0.4-1.18-1.21-1.18
						c-0.73,0-1.48,0.34-2.13,1.11v-1.46c0.53-0.61,1.26-0.92,2.24-0.92c1.37,0,2.44,0.69,2.44,2.22v3.46
						c0,0.25,0.09,0.34,0.26,0.34c0.13,0,0.4-0.13,0.7-0.36V306.94z M201,304c-1.14,0.39-2.13,0.78-2.13,1.58
						c0,0.55,0.41,0.95,0.96,0.95c0.42,0,0.81-0.21,1.17-0.56V304z"/>
					<path d="M209.96,308.21c0,1.44-0.45,2.08-1.33,2.57l-1-0.99c0.58-0.24,1-0.72,1-1.47v-7.72h1.33V308.21z M209.3,299.35
						c-0.43,0-0.79-0.36-0.79-0.79c0-0.44,0.36-0.79,0.79-0.79c0.44,0,0.79,0.36,0.79,0.79
						C210.09,298.99,209.73,299.35,209.3,299.35z"/>
					<path d="M218.73,303.9c0,2.13-1.48,3.57-3.64,3.57c-2.07,0-3.55-1.5-3.55-3.57c0-1.94,1.54-3.44,3.55-3.44
						C217.2,300.46,218.73,301.9,218.73,303.9z M212.9,303.9c0,1.42,0.89,2.37,2.18,2.37c1.41,0,2.29-0.9,2.29-2.35
						c0-1.3-0.96-2.25-2.29-2.25C213.81,301.66,212.9,302.61,212.9,303.9z"/>
				</g>
				<g class="st2">
					<path d="M225.54,301.63h-1.38c0.53,0.53,0.71,0.9,0.71,1.47c0,0.55-0.31,1.2-0.63,1.51c-0.9,0.96-2.73,0.48-2.73,1.28
						c0,0.37,0.71,0.6,2.05,0.87c1.44,0.29,1.95,1.02,1.95,1.88c0,1.33-1.18,2.15-3.18,2.15c-1.82,0-3.1-0.86-3.1-2.04
						c0-0.99,0.52-1.58,1.69-1.86c-0.46-0.29-0.67-0.55-0.67-0.85c0-0.44,0.42-0.81,1.06-0.96v-0.03c-0.49-0.21-0.87-0.5-1.13-0.85
						c-0.24-0.35-0.36-0.77-0.36-1.26c0-1.44,1.13-2.32,2.94-2.32h2.78V301.63z M222.02,307.66c-0.9,0-1.53,0.42-1.53,1.02
						c0,0.68,0.66,1.04,1.88,1.04c1.17,0,1.86-0.36,1.86-0.97C224.22,307.88,222.84,307.66,222.02,307.66z M222.37,301.75
						c-0.74,0-1.34,0.56-1.34,1.21c0,0.74,0.54,1.23,1.35,1.23c0.75,0,1.29-0.53,1.29-1.26
						C223.67,302.29,223.07,301.75,222.37,301.75z"/>
				</g>
				<g class="st2">
					<path d="M233.22,303.9c0,2.13-1.49,3.57-3.65,3.57c-2.07,0-3.55-1.5-3.55-3.57c0-1.94,1.54-3.44,3.55-3.44
						C231.69,300.46,233.22,301.9,233.22,303.9z M227.38,303.9c0,1.42,0.88,2.37,2.18,2.37c1.41,0,2.29-0.9,2.29-2.35
						c0-1.3-0.96-2.25-2.29-2.25C228.3,301.66,227.38,302.61,227.38,303.9z"/>
					<path d="M238.98,307.33v-0.85c-0.55,0.6-1.33,0.99-2,0.99c-1.37,0-2.32-0.97-2.32-2.68v-4.18h1.33v4.27
						c0,0.95,0.46,1.49,1.38,1.49c0.6,0,1.17-0.33,1.6-0.95v-4.81h1.33v6.73H238.98z"/>
				</g>
				<g class="st2">
					<path d="M243.79,306.57c0,0.5-0.41,0.9-0.9,0.9c-0.49,0-0.9-0.4-0.9-0.9s0.41-0.9,0.9-0.9
						C243.39,305.67,243.79,306.07,243.79,306.57z"/>
				</g>
				<g class="st2">
					<path d="M29.18,320.12h-3.27l-0.36,2.57h2.89l-0.13,0.97h-2.9l-0.4,2.7h4.31l-0.14,0.97H23.8l1.19-8.18h4.33L29.18,320.12z"/>
					<path d="M33.33,323.41c-0.61-0.47-1.18-0.71-1.62-0.71c-0.42,0-0.73,0.25-0.73,0.56c0,0.77,2.15,1.14,2.15,2.63
						c0,0.97-0.72,1.61-1.67,1.61c-0.67,0-1.1-0.17-1.87-0.71l0.18-0.98c0.71,0.56,1.22,0.8,1.65,0.8c0.41,0,0.7-0.25,0.7-0.6
						c0-0.9-2.11-1.22-2.11-2.69c0-0.92,0.66-1.55,1.69-1.55c0.56,0,1.13,0.22,1.63,0.56V323.41z"/>
					<path d="M37.58,323.41c-0.61-0.47-1.18-0.71-1.62-0.71c-0.42,0-0.73,0.25-0.73,0.56c0,0.77,2.15,1.14,2.15,2.63
						c0,0.97-0.72,1.61-1.67,1.61c-0.67,0-1.1-0.17-1.87-0.71l0.18-0.98c0.71,0.56,1.22,0.8,1.65,0.8c0.41,0,0.7-0.25,0.7-0.6
						c0-0.9-2.11-1.22-2.11-2.69c0-0.92,0.66-1.55,1.69-1.55c0.56,0,1.13,0.22,1.63,0.56V323.41z"/>
					<path d="M42.46,326.9c-0.54,0.4-1.15,0.6-1.8,0.6c-1.37,0-2.25-1.03-2.25-2.6c0-1.76,1.12-3.12,2.55-3.12
						c1.2,0,2.1,1.12,1.87,2.76h-3.36c-0.25,1.44,0.54,2.12,1.38,2.12c0.5,0,1.08-0.24,1.75-0.73L42.46,326.9z M41.89,323.83
						c0-0.68-0.3-1.21-0.97-1.21c-0.6,0-1.01,0.4-1.28,1.21H41.89z"/>
				</g>
				<g class="st2">
				</g>
				<g class="st2">
					<path d="M53.46,326.9c-0.54,0.4-1.15,0.6-1.8,0.6c-1.37,0-2.25-1.03-2.25-2.6c0-1.76,1.12-3.12,2.55-3.12
						c1.2,0,2.1,1.12,1.87,2.76h-3.36c-0.25,1.44,0.54,2.12,1.38,2.12c0.5,0,1.08-0.24,1.75-0.73L53.46,326.9z M52.88,323.83
						c0-0.68-0.3-1.21-0.97-1.21c-0.6,0-1.01,0.4-1.28,1.21H52.88z"/>
				</g>
				<g class="st2">
					<path d="M57.52,322.84h-1.09l-0.86,6.75h-1l0.86-6.75h-0.86l0.13-0.9h0.85c0.11-1.63,0.9-2.9,2.59-2.9
						c0.46,0,0.86,0.1,1.31,0.25l-0.14,1.01c-0.35-0.19-0.74-0.3-1.06-0.3c-1,0-1.58,0.68-1.69,1.94h1.09L57.52,322.84z"/>
				</g>
				<g class="st2">
					<path d="M61.79,326.9c-0.54,0.4-1.15,0.6-1.8,0.6c-1.37,0-2.25-1.03-2.25-2.6c0-1.76,1.12-3.12,2.55-3.12
						c1.2,0,2.1,1.12,1.87,2.76H58.8c-0.25,1.44,0.54,2.12,1.38,2.12c0.5,0,1.08-0.24,1.75-0.73L61.79,326.9z M61.21,323.83
						c0-0.68-0.3-1.21-0.97-1.21c-0.6,0-1.01,0.4-1.28,1.21H61.21z"/>
					<path d="M63.83,327.33h-1.02l0.76-5.38h1.02L63.83,327.33z M64.85,320.25c0,0.32-0.26,0.59-0.59,0.59
						c-0.32,0-0.59-0.26-0.59-0.59s0.26-0.59,0.59-0.59C64.59,319.67,64.85,319.93,64.85,320.25z"/>
					<path d="M68.1,322.74h-1.08l-0.52,2.95c-0.12,0.68,0.04,0.9,0.53,0.9c0.3,0,0.54-0.07,0.98-0.32l-0.06,1
						c-0.43,0.18-0.72,0.24-1.12,0.24c-1.06,0-1.55-0.67-1.4-1.5l0.56-3.26h-0.95l0.12-0.79h0.98l0.2-1.1h1.01l-0.19,1.1h1.03
						L68.1,322.74z"/>
					<path d="M70.62,327.5c-1.27,0-2.03-0.9-2.03-2.41c0-1.88,1.12-3.31,2.58-3.31c1.22,0,2,0.94,2,2.35
						C73.18,326.14,72.04,327.5,70.62,327.5z M70.59,326.62c0.85,0,1.55-1.07,1.55-2.55c0-0.9-0.37-1.49-0.96-1.49
						c-0.88,0-1.54,1.25-1.54,2.61C69.64,326.06,70.06,326.62,70.59,326.62z"/>
				</g>
				<g class="st2">
				</g>
				<g class="st2">
					<path d="M81.59,321.95c0.16-0.06,0.3-0.11,0.44-0.13c0.14-0.02,0.3-0.04,0.47-0.04c1.27,0,2.23,1.07,2.23,2.51
						c0,1.35-0.91,3.21-3.25,3.21h-0.67l-0.36,2.59h-1.02l0.96-6.81c-0.54,0.4-0.8,0.98-0.9,0.98c-0.04,0-0.05-0.02-0.05-0.07
						c0-0.37,0.49-1.2,1.04-1.63l0.28-1.98h1.02L81.59,321.95z M80.94,326.63h0.49c1.57,0,2.27-1.3,2.27-2.35
						c0-1.21-0.75-1.74-1.54-1.74c-0.26,0-0.38,0.02-0.67,0.16L80.94,326.63z"/>
					<path d="M87.62,327.5c-1.27,0-2.03-0.9-2.03-2.41c0-1.88,1.12-3.31,2.58-3.31c1.22,0,2,0.94,2,2.35
						C90.17,326.14,89.03,327.5,87.62,327.5z M87.58,326.62c0.85,0,1.55-1.07,1.55-2.55c0-0.9-0.37-1.49-0.96-1.49
						c-0.88,0-1.54,1.25-1.54,2.61C86.63,326.06,87.05,326.62,87.58,326.62z"/>
					<path d="M95.12,327.33c-0.43,0.12-0.85,0.17-1.38,0.17c-1.81,0-2.83-0.89-2.83-2.5c0-1.15,0.97-3.23,3.54-3.23h0.43l0.37-2.63
						h1.02L95.12,327.33z M94.76,322.63h-0.26c-1.67,0-2.54,1.2-2.54,2.35c0,1.07,0.64,1.68,1.79,1.68c0.16,0,0.3,0,0.47-0.02
						L94.76,322.63z"/>
					<path d="M100.67,326.9c-0.54,0.4-1.15,0.6-1.8,0.6c-1.37,0-2.25-1.03-2.25-2.6c0-1.76,1.12-3.12,2.55-3.12
						c1.2,0,2.1,1.12,1.87,2.76h-3.36c-0.25,1.44,0.54,2.12,1.38,2.12c0.5,0,1.08-0.24,1.75-0.73L100.67,326.9z M100.1,323.83
						c0-0.68-0.3-1.21-0.97-1.21c-0.6,0-1.01,0.4-1.28,1.21H100.1z"/>
				</g>
				<g class="st2">
				</g>
				<g class="st2">
					<path d="M111.04,323.41c-0.61-0.47-1.18-0.71-1.62-0.71c-0.42,0-0.73,0.25-0.73,0.56c0,0.77,2.15,1.14,2.15,2.63
						c0,0.97-0.72,1.61-1.67,1.61c-0.67,0-1.1-0.17-1.87-0.71l0.18-0.98c0.71,0.56,1.22,0.8,1.65,0.8c0.41,0,0.7-0.25,0.7-0.6
						c0-0.9-2.11-1.22-2.11-2.69c0-0.92,0.66-1.55,1.69-1.55c0.56,0,1.13,0.22,1.63,0.56V323.41z"/>
					<path d="M115.93,326.9c-0.54,0.4-1.15,0.6-1.8,0.6c-1.37,0-2.25-1.03-2.25-2.6c0-1.76,1.12-3.12,2.55-3.12
						c1.2,0,2.1,1.12,1.87,2.76h-3.36c-0.25,1.44,0.54,2.12,1.38,2.12c0.5,0,1.08-0.24,1.75-0.73L115.93,326.9z M115.35,323.83
						c0-0.68-0.3-1.21-0.97-1.21c-0.6,0-1.01,0.4-1.28,1.21H115.35z"/>
					<path d="M118.74,322.96l0.02,0.02c0.64-0.91,0.91-1.13,1.43-1.13c0.16,0,0.26,0.01,0.44,0.08v1.15
						c-0.24-0.13-0.41-0.18-0.62-0.18c-0.53,0-0.89,0.32-1.45,1.38l-0.42,3.03h-1.02l0.76-5.38h1.02L118.74,322.96z"/>
				</g>
				<g class="st2">
				</g>
				<g class="st2">
					<path d="M130.63,327.33h-1.01l0.12-0.89l-0.02-0.02c-0.42,0.44-1.04,1-1.77,1c-0.6,0-1.48-0.43-1.27-1.92l0.5-3.55h1.02
						l-0.5,3.55c-0.13,0.96,0.3,1.14,0.58,1.14c0.4,0,0.89-0.31,1.62-1.19l0.49-3.5h1.02L130.63,327.33z"/>
					<path d="M135.11,322.74h-1.08l-0.52,2.95c-0.12,0.68,0.04,0.9,0.53,0.9c0.3,0,0.54-0.07,0.98-0.32l-0.06,1
						c-0.43,0.18-0.72,0.24-1.12,0.24c-1.06,0-1.55-0.67-1.4-1.5l0.56-3.26h-0.95l0.12-0.79h0.98l0.2-1.1h1.01l-0.19,1.1h1.03
						L135.11,322.74z"/>
					<path d="M136.47,327.33h-1.02l0.76-5.38h1.02L136.47,327.33z M137.49,320.25c0,0.32-0.26,0.59-0.59,0.59
						c-0.32,0-0.59-0.26-0.59-0.59s0.26-0.59,0.59-0.59C137.22,319.67,137.49,319.93,137.49,320.25z"/>
					<path d="M138.72,327.33h-1.02l1.15-8.18h1.02L138.72,327.33z"/>
					<path d="M140.98,327.33h-1.02l0.75-5.38h1.02L140.98,327.33z M142,320.25c0,0.32-0.26,0.59-0.59,0.59
						c-0.32,0-0.59-0.26-0.59-0.59s0.26-0.59,0.59-0.59C141.73,319.67,142,319.93,142,320.25z"/>
					<path d="M143.72,326.43h3.13l-0.19,0.9h-4.88l3.51-4.49h-2.72l0.12-0.9h4.61L143.72,326.43z"/>
					<path d="M152.03,327.33h-1.02l0.1-0.62l-0.02-0.02c-0.42,0.46-0.94,0.76-1.45,0.76c-1,0-1.77-0.96-1.77-2.14
						c0-1.71,1.03-3.53,3.66-3.53c0.38,0,0.97,0.07,1.27,0.17L152.03,327.33z M151.67,322.67c-2.33-0.19-2.77,1.74-2.77,2.46
						c0,0.86,0.44,1.48,1.07,1.48c0.41,0,0.95-0.41,1.26-0.83L151.67,322.67z"/>
					<path d="M157.64,327.33c-0.43,0.12-0.85,0.17-1.38,0.17c-1.81,0-2.83-0.89-2.83-2.5c0-1.15,0.97-3.23,3.54-3.23h0.43l0.37-2.63
						h1.02L157.64,327.33z M157.28,322.63h-0.26c-1.67,0-2.54,1.2-2.54,2.35c0,1.07,0.64,1.68,1.79,1.68c0.16,0,0.3,0,0.47-0.02
						L157.28,322.63z"/>
					<path d="M161.15,327.5c-1.27,0-2.03-0.9-2.03-2.41c0-1.88,1.12-3.31,2.58-3.31c1.22,0,2,0.94,2,2.35
						C163.7,326.14,162.56,327.5,161.15,327.5z M161.11,326.62c0.85,0,1.55-1.07,1.55-2.55c0-0.9-0.37-1.49-0.96-1.49
						c-0.88,0-1.54,1.25-1.54,2.61C160.16,326.06,160.58,326.62,161.11,326.62z"/>
				</g>
				<g class="st2">
				</g>
				<g class="st2">
					<path d="M174.41,327.33h-1.02l0.1-0.62l-0.02-0.02c-0.42,0.46-0.94,0.76-1.45,0.76c-1,0-1.77-0.96-1.77-2.14
						c0-1.71,1.03-3.53,3.66-3.53c0.38,0,0.97,0.07,1.27,0.17L174.41,327.33z M174.05,322.67c-2.33-0.19-2.77,1.74-2.77,2.46
						c0,0.86,0.44,1.48,1.07,1.48c0.41,0,0.95-0.41,1.26-0.83L174.05,322.67z"/>
					<path d="M178.76,322.74h-1.08l-0.52,2.95c-0.12,0.68,0.04,0.9,0.53,0.9c0.3,0,0.54-0.07,0.98-0.32l-0.06,1
						c-0.43,0.18-0.72,0.24-1.12,0.24c-1.06,0-1.55-0.67-1.4-1.5l0.56-3.26h-0.95l0.12-0.79h0.98l0.2-1.1h1.01l-0.19,1.1h1.03
						L178.76,322.74z"/>
					<path d="M183.33,326.9c-0.54,0.4-1.15,0.6-1.8,0.6c-1.37,0-2.25-1.03-2.25-2.6c0-1.76,1.12-3.12,2.55-3.12
						c1.2,0,2.1,1.12,1.87,2.76h-3.36c-0.25,1.44,0.54,2.12,1.38,2.12c0.5,0,1.08-0.24,1.75-0.73L183.33,326.9z M182.75,323.83
						c0-0.68-0.3-1.21-0.97-1.21c-0.6,0-1.01,0.4-1.28,1.21H182.75z M183.38,319.29l-1.36,1.75h-0.67l0.82-1.75H183.38z"/>
				</g>
				<g class="st2">
				</g>
				<g class="st2">
					<path d="M191.39,319.61c0.67-0.4,1.2-0.56,1.85-0.56c1.19,0,1.98,0.78,1.98,1.96c0,1.14-0.88,2.52-3.21,5.32h3.12l-0.14,1.01
						h-4.96c3.3-4.03,4.16-5.45,4.16-6.25c0-0.63-0.43-1.02-1.15-1.02c-0.54,0-1.15,0.24-1.79,0.71L191.39,319.61z"/>
				</g>
				<g class="st2">
				</g>
				<g class="st2">
					<path d="M203.97,327.44h-0.5l-1.22-5.49h1.01l0.71,3.42h0.02l1.73-3.42h1.03L203.97,327.44z"/>
					<path d="M210.82,326.9c-0.54,0.4-1.15,0.6-1.8,0.6c-1.37,0-2.25-1.03-2.25-2.6c0-1.76,1.12-3.12,2.55-3.12
						c1.2,0,2.1,1.12,1.87,2.76h-3.36c-0.25,1.44,0.54,2.12,1.38,2.12c0.5,0,1.08-0.24,1.75-0.73L210.82,326.9z M210.24,323.83
						c0-0.68-0.3-1.21-0.97-1.21c-0.6,0-1.01,0.4-1.28,1.21H210.24z"/>
				</g>
				<g class="st2">
					<path d="M213.35,326.43h3.13l-0.19,0.9h-4.88l3.51-4.49h-2.72l0.12-0.9h4.61L213.35,326.43z"/>
				</g>
				<g class="st2">
					<path d="M221.33,326.9c-0.54,0.4-1.15,0.6-1.8,0.6c-1.37,0-2.25-1.03-2.25-2.6c0-1.76,1.12-3.12,2.55-3.12
						c1.2,0,2.1,1.12,1.87,2.76h-3.36c-0.25,1.44,0.54,2.12,1.38,2.12c0.5,0,1.08-0.24,1.75-0.73L221.33,326.9z M220.75,323.83
						c0-0.68-0.3-1.21-0.97-1.21c-0.6,0-1.01,0.4-1.28,1.21H220.75z"/>
					<path d="M225.95,323.41c-0.61-0.47-1.18-0.71-1.62-0.71c-0.42,0-0.73,0.25-0.73,0.56c0,0.77,2.15,1.14,2.15,2.63
						c0,0.97-0.72,1.61-1.67,1.61c-0.67,0-1.1-0.17-1.87-0.71l0.18-0.98c0.71,0.56,1.22,0.8,1.66,0.8c0.41,0,0.7-0.25,0.7-0.6
						c0-0.9-2.11-1.22-2.11-2.69c0-0.92,0.66-1.55,1.69-1.55c0.56,0,1.13,0.22,1.63,0.56V323.41z"/>
				</g>
				<g class="st2">
				</g>
				<g class="st2">
					<path d="M236.66,327.33h-1.02l0.1-0.62l-0.02-0.02c-0.42,0.46-0.94,0.76-1.45,0.76c-1,0-1.77-0.96-1.77-2.14
						c0-1.71,1.03-3.53,3.66-3.53c0.38,0,0.97,0.07,1.27,0.17L236.66,327.33z M236.3,322.67c-2.33-0.19-2.77,1.74-2.77,2.46
						c0,0.86,0.44,1.48,1.07,1.48c0.41,0,0.95-0.41,1.26-0.83L236.3,322.67z"/>
					<path d="M240.16,327.5c-1.27,0-2.03-0.9-2.03-2.41c0-1.88,1.12-3.31,2.58-3.31c1.22,0,2,0.94,2,2.35
						C242.71,326.14,241.57,327.5,240.16,327.5z M240.12,326.62c0.85,0,1.55-1.07,1.55-2.55c0-0.9-0.37-1.49-0.96-1.49
						c-0.88,0-1.54,1.25-1.54,2.61C239.17,326.06,239.59,326.62,240.12,326.62z"/>
				</g>
				<g class="st2">
					<path d="M104.31,347.33h-1.02l1.15-8.18h1.02L104.31,347.33z"/>
					<path d="M107.72,347.5c-1.27,0-2.03-0.9-2.03-2.41c0-1.88,1.12-3.31,2.58-3.31c1.22,0,2,0.94,2,2.35
						C110.28,346.14,109.14,347.5,107.72,347.5z M107.69,346.62c0.85,0,1.55-1.07,1.55-2.55c0-0.9-0.37-1.49-0.96-1.49
						c-0.88,0-1.54,1.25-1.54,2.61C106.74,346.06,107.16,346.62,107.69,346.62z"/>
					<path d="M112.64,342.89l0.02,0.02c0.59-0.72,1.19-1.05,1.79-1.05c1.14,0,1.43,1.19,1.28,2.07l-0.52,3.39h-1.01l0.49-3.43
						c0.13-0.94-0.28-1.2-0.59-1.2c-0.29,0-0.85,0.2-1.62,1.2l-0.49,3.43H111l0.75-5.38h1.02L112.64,342.89z"/>
				</g>
				<g class="st2">
					<path d="M121.5,342.74h-1.04c0.28,0.4,0.36,0.7,0.36,1.07c0,0.9-0.43,1.61-1.26,1.96c-0.64,0.26-1.83,0.2-1.83,0.72
						c0,0.67,2.95,0.29,2.95,2.08c0,0.89-0.92,1.54-2.19,1.54c-1.36,0-2.34-0.59-2.34-1.39c0-0.64,0.73-0.92,1.55-1.09v-0.02
						c-0.67-0.25-0.94-0.53-0.94-0.95c0-0.44,0.46-0.83,1.07-1c-0.64-0.3-0.97-0.84-0.97-1.55c0-1.24,0.91-2.15,2-2.15h2.76
						L121.5,342.74z M118.5,347.88c-0.7,0.13-1.39,0.43-1.39,0.79c0,0.4,0.55,0.65,1.45,0.65c0.7,0,1.14-0.28,1.14-0.67
						C119.7,348.31,119.14,348.03,118.5,347.88z M118.88,342.77c-0.55,0-1.07,0.6-1.07,1.25c0,0.64,0.41,1.09,0.97,1.09
						c0.67,0,1.06-0.66,1.06-1.26C119.84,343.22,119.44,342.77,118.88,342.77z"/>
				</g>
				<g class="st2">
					<path d="M123.73,347.5c-1.27,0-2.03-0.9-2.03-2.41c0-1.88,1.12-3.31,2.58-3.31c1.22,0,2,0.94,2,2.35
						C126.28,346.14,125.14,347.5,123.73,347.5z M123.69,346.62c0.85,0,1.55-1.07,1.55-2.55c0-0.9-0.37-1.49-0.96-1.49
						c-0.88,0-1.54,1.25-1.54,2.61C122.75,346.06,123.17,346.62,123.69,346.62z"/>
					<path d="M134.56,347.33c-0.43,0.12-0.85,0.17-1.38,0.17c-1.81,0-2.83-0.89-2.83-2.5c0-1.15,0.97-3.23,3.54-3.23h0.43l0.37-2.63
						h1.02L134.56,347.33z M134.2,342.63h-0.26c-1.67,0-2.54,1.2-2.54,2.35c0,1.07,0.64,1.68,1.79,1.68c0.16,0,0.3,0,0.47-0.02
						L134.2,342.63z"/>
					<path d="M138.07,347.5c-1.27,0-2.03-0.9-2.03-2.41c0-1.88,1.12-3.31,2.58-3.31c1.22,0,2,0.94,2,2.35
						C140.62,346.14,139.48,347.5,138.07,347.5z M138.03,346.62c0.85,0,1.55-1.07,1.55-2.55c0-0.9-0.37-1.49-0.96-1.49
						c-0.88,0-1.54,1.25-1.54,2.61C137.08,346.06,137.5,346.62,138.03,346.62z"/>
					<path d="M145.35,341.95h1.02l-0.83,6.48c-0.16,1.22-0.98,1.67-1.86,1.67c-0.19,0-0.43-0.04-0.6-0.11l0.13-0.9
						c0.76,0.18,1.22-0.01,1.34-0.95L145.35,341.95z M146.04,340.84c-0.32,0-0.59-0.26-0.59-0.59s0.26-0.59,0.59-0.59
						s0.59,0.26,0.59,0.59S146.36,340.84,146.04,340.84z"/>
				</g>
				<g class="st2">
					<path d="M149.05,347.5c-1.27,0-2.03-0.9-2.03-2.41c0-1.88,1.12-3.31,2.58-3.31c1.22,0,2,0.94,2,2.35
						C151.6,346.14,150.46,347.5,149.05,347.5z M149.01,346.62c0.85,0,1.55-1.07,1.55-2.55c0-0.9-0.37-1.49-0.96-1.49
						c-0.88,0-1.54,1.25-1.54,2.61C148.07,346.06,148.49,346.62,149.01,346.62z"/>
					<path d="M156.96,342.74h-1.04c0.28,0.4,0.36,0.7,0.36,1.07c0,0.9-0.43,1.61-1.26,1.96c-0.64,0.26-1.83,0.2-1.83,0.72
						c0,0.67,2.95,0.29,2.95,2.08c0,0.89-0.92,1.54-2.2,1.54c-1.35,0-2.34-0.59-2.34-1.39c0-0.64,0.73-0.92,1.55-1.09v-0.02
						c-0.67-0.25-0.94-0.53-0.94-0.95c0-0.44,0.46-0.83,1.07-1c-0.64-0.3-0.97-0.84-0.97-1.55c0-1.24,0.91-2.15,2-2.15h2.76
						L156.96,342.74z M153.96,347.88c-0.7,0.13-1.39,0.43-1.39,0.79c0,0.4,0.55,0.65,1.45,0.65c0.7,0,1.14-0.28,1.14-0.67
						C155.16,348.31,154.59,348.03,153.96,347.88z M154.34,342.77c-0.55,0-1.07,0.6-1.07,1.25c0,0.64,0.41,1.09,0.97,1.09
						c0.67,0,1.06-0.66,1.06-1.26C155.3,343.22,154.89,342.77,154.34,342.77z"/>
				</g>
				<g class="st2">
					<path d="M159.31,347.5c-1.27,0-2.03-0.9-2.03-2.41c0-1.88,1.12-3.31,2.58-3.31c1.22,0,2,0.94,2,2.35
						C161.86,346.14,160.72,347.5,159.31,347.5z M159.27,346.62c0.85,0,1.55-1.07,1.55-2.55c0-0.9-0.37-1.49-0.96-1.49
						c-0.88,0-1.54,1.25-1.54,2.61C158.33,346.06,158.75,346.62,159.27,346.62z"/>
				</g>
				<g class="st2">
					<path d="M163.81,346.8c0,0.38-0.31,0.7-0.7,0.7c-0.38,0-0.7-0.31-0.7-0.7s0.31-0.7,0.7-0.7
						C163.5,346.11,163.81,346.42,163.81,346.8z"/>
				</g>
				<g id="Border">
					<g id="Outer_Line">
						<path d="M269.19,1.39v379.89H1.39V1.39H269.19 M270.58,0H0v382.68h270.58V0z"/>
					</g>
					<path d="M266.68,4.47V378.2H3.9V4.47H266.68 M267.81,3.35H2.77v376h265v-376H267.81z"/>
					<path d="M264.18,7.55v367.57H6.4V7.55H264.18 M265.04,6.69H5.54V376H265V6.69H265.04z"/>
					<path d="M261.68,10.63V372H8.9V10.63H261.68 M262.27,10.04H8.31v362.6h254V10L262.27,10.04z"/>
					<path d="M259.17,13.71V369H11.41V13.71H259.17 M259.5,13.39H11.08v355.9H259.5V13.39z"/>
					<g id="Inner_Line">
						<path d="M256.67,16.79v349.09H13.91V16.79H256.67 M256.73,16.73H13.85V366h242.88C256.73,366,256.73,16.73,256.73,16.73z"/>
					</g>
				</g>
				<g id="Ecdise">
					<path d="M155.2,151.91c-1.93,0.22-3.78,0.88-5.41,1.94c-0.26,0.23-0.58,0.39-0.93,0.46c-1.16-1.76-2.76-3.18-4.63-4.15
						c0.51-1.42,0.91-2.88,1.17-4.36c0.58,0,2,0.45,5.49,3.48c2.51-0.76,4.9-1.86,7.11-3.28c0,0,3.41-3,2.49-6.29
						c0,0-1.1,4-3.2,4.83c-1.9,0.38-3.69,1.19-5.23,2.38c-0.25,0.25-0.55,0.43-0.89,0.53c-1.35-2-4.17-3.43-5.45-4
						c0.12-1.08,0.2-2.2,0.23-3.35c0.69,0,2.22,0.56,5.57,3c2.43-0.99,4.72-2.32,6.79-3.94c0,0,3.11-3.26,1.89-6.5
						c0,0-0.73,4.06-2.73,5.11c-1.87,0.56-3.58,1.54-5,2.87c-0.22,0.27-0.5,0.48-0.83,0.61c-1.5-1.87-4.36-3-5.72-3.42
						c-0.05-1.27-0.16-2.55-0.33-3.81c0.46-0.21,1.88-0.22,6.26,2.08c2.27-1.33,4.35-2.96,6.18-4.86c0,0,2.62-3.66,0.95-6.69
						c0,0-0.15,4.12-2,5.44c-1.77,0.81-3.32,2.02-4.54,3.53c-0.17,0.3-0.43,0.55-0.74,0.72c-1.95-1.82-5.42-2.48-6.56-2.65
						c-0.27-1.27-0.64-2.52-1.11-3.74c2.19-0.42,7.4,2.77,7.4,2.77c10.05-6,4-16.69,4-16.69c3.54-5,2.26-8.62,2.26-8.62
						c-4.53-9.82-13.36-4.67-13.36-4.67c7.55,0.23,7.4,9.52,7.4,9.52c-2.33-1.35-3.82-3.8-3.93-6.5c-4.31,7.4,4.3,10.65,4.3,10.65
						c-1,2.72,1.66,7.4,1.66,7.4c1.06,4.76-2.79,6.11-2.79,6.11c-4.31-2.85-7.09-2.65-8.14-2.41c-1.19-2-2.65-3.12-4.23-3.12
						s-3,1.17-4.24,3.13c-1-0.24-3.8-0.5-8.18,2.4c0,0-3.86-1.35-2.8-6.11c0,0,2.64-4.68,1.66-7.4c0,0,8.61-3.25,4.31-10.65
						c-0.11,2.7-1.6,5.15-3.93,6.5c0,0-0.15-9.29,7.4-9.52c0,0-8.83-5.15-13.37,4.67c0,0-1.28,3.64,2.27,8.62c0,0-6,10.65,4,16.69
						c0,0,5.3-3.24,7.46-2.76c-0.47,1.21-0.84,2.45-1.11,3.72c-1.07,0.16-4.63,0.8-6.61,2.66c-0.31-0.17-0.57-0.42-0.74-0.72
						c-1.22-1.51-2.78-2.72-4.54-3.53c-1.84-1.32-2-5.44-2-5.44c-1.66,3,1,6.69,1,6.69c1.83,1.9,3.91,3.53,6.18,4.86
						c4.56-2.39,5.91-2.29,6.3-2.05c-0.16,1.2-0.27,2.46-0.32,3.76c-1.34,0.43-4.25,1.54-5.77,3.44c-0.33-0.13-0.62-0.34-0.84-0.61
						c-1.42-1.33-3.13-2.31-5-2.87c-2-1.05-2.73-5.11-2.73-5.11c-1.23,3.24,1.88,6.5,1.88,6.5c2.07,1.62,4.36,2.95,6.8,3.94
						c3.43-2.47,5-3,5.63-3c0,1.15,0.1,2.26,0.22,3.34c-1.26,0.53-4.14,1.92-5.51,4c-0.33-0.1-0.64-0.28-0.88-0.53
						c-1.54-1.19-3.33-2-5.24-2.38c-2.09-0.86-3.19-4.83-3.19-4.83c-0.92,3.33,2.48,6.29,2.48,6.29c2.22,1.42,4.62,2.52,7.14,3.28
						c3.6-3.14,5-3.55,5.54-3.48c0.27,1.47,0.65,2.92,1.16,4.33c-1.89,0.97-3.5,2.41-4.68,4.18c-0.34-0.07-0.66-0.23-0.92-0.46
						c-1.63-1.05-3.49-1.72-5.42-1.94c-2.15-0.68-3.58-4.55-3.58-4.55c-0.64,3.4,3,6.06,3,6.06c2.32,1.23,4.81,2.14,7.38,2.69
						c3.1-3.19,4.5-3.86,5.12-3.92c0.58,1.22,1.43,2.3,2.48,3.14c-0.67,0.22-1.14,0.8-1.22,1.5c0.03,0.51,0.3,0.98,0.74,1.24
						c-0.76,0.84-1.17,1.94-1.14,3.07c-0.05,1.27,0.48,2.49,1.44,3.32c-1.29,0.02-2.5,0.63-3.28,1.66
						c-1.13,1.17-1.38,2.94-0.62,4.38c-0.89-0.14-1.8-0.1-2.67,0.13c-1.31,0.21-2.48,0.96-3.22,2.07c-1.53-1.05-3.22-1.84-5-2.34
						c-2.79-0.86-5.1-1.45-6.17-1.06c0.24-1.3-0.21-3.24-0.91-5.73c-0.45-1.67-1.12-3.27-2-4.76c0.48,0.07,0.96-0.03,1.38-0.27
						l0.94,0.58c0.75,0.64,1.68,1.03,2.66,1.1c3-0.65,2.14-3.09,2.14-3.09c-0.73,4.85-4.69-1-4.69-1c-3.8-1.75-4.19,1.12-4.19,1.12
						c0.02,0.06,0.04,0.12,0.07,0.17l0,0c-1,0.29-1,3.5,0,7.17s2.71,5.84,3.75,6.37c1.89,1.13,3.91,2.06,6,2.76
						c3.24,1,6.11,1.18,6.78,0.48c1.1,0.39,2.29,0.42,3.41,0.09c2.07-0.52,3.54-1.75,3.29-2.77c0,0,0-0.07,0-0.11
						c1.41,0.14,2.78-0.48,3.62-1.62c1.34-1.64,1.44-3.79,0.21-4.82h0.05c1.6,0,2.9-1.73,2.9-3.86c0.02-1.02-0.3-2.01-0.92-2.82
						c0.65-0.22,1.11-0.81,1.17-1.49c-0.02-0.46-0.25-0.88-0.62-1.14c1.34-0.83,2.41-2.05,3.06-3.49c0.64,0.08,2,0.8,5.07,3.91
						c2.57-0.55,5.06-1.46,7.38-2.69c0,0,3.63-2.66,3-6.06C158.78,147.36,157.36,151.23,155.2,151.91z"/>
					<path class="st3" d="M107.68,169.86L107.68,169.86c1.1,0.4,1.58,1.91,1.06,3.38c-0.31,0.98-1.1,1.74-2.09,2v0.06
						c0.43,0.64-0.27,1.87-1.58,2.74c-0.69,0.51-1.52,0.79-2.37,0.8c-0.29,0.65-2.32,1.24-4.81,1.37c-1.62,0.04-3.24-0.09-4.83-0.4
						c-0.85-0.1-2.54-1.18-4.19-3.46s-2.46-4.49-1.83-4.94l0,0l-0.09-0.1c0,0-0.46-2.08,2.6-1.83c0,0,4.21,3,3.5-0.49
						c0,0,1.21,1.46-0.71,2.67c-0.7,0.2-1.44,0.16-2.11-0.1l-0.79-0.15c-0.23,0.27-0.54,0.46-0.89,0.53
						c0.98,0.81,1.85,1.74,2.58,2.78c0.93,1.09,1.63,2.36,2.07,3.73c0.64-0.54,2.38-0.7,4.53-0.81c1.36-0.11,2.74,0.01,4.06,0.35
						c0.23-0.95,0.85-1.76,1.7-2.24c0.54-0.37,1.16-0.63,1.81-0.76c-0.88-0.81-1.15-2.09-0.67-3.18c0.27-0.92,0.96-1.66,1.85-2
						c-0.87-0.33-1.54-1.04-1.83-1.93c-0.31-0.77-0.31-1.64,0-2.41c-0.36-0.07-0.67-0.32-0.82-0.66c-0.13-0.5,0.05-1.03,0.46-1.35
						c-0.94-0.32-1.8-0.85-2.5-1.55c-0.42,0.19-1.21,1-2.56,4c-1.92,0.27-3.86,0.27-5.78,0c0,0-3.18-0.93-3.59-3.44
						c0,0,2,2.32,3.62,2.25c1.39-0.33,2.84-0.33,4.23,0c0.24,0.09,0.5,0.12,0.75,0.08c0.37-1.52,1.13-2.91,2.19-4.06
						c-0.7-0.85-1.33-1.75-1.89-2.7c-0.39,0.08-1.26,0.72-3,3.79c-1.93,0.11-3.87-0.04-5.76-0.47c0,0-3.09-1.19-3.29-3.72
						c0,0,1.75,2.47,3.42,2.53c1.41-0.21,2.85-0.1,4.21,0.33c0.23,0.12,0.49,0.17,0.75,0.15c0.55-1.61,1.52-3.04,2.8-4.16
						c-0.36-0.71-0.69-1.46-1-2.24c-0.46,0.17-1.39,0.9-3.14,3.46c-1.93-0.07-3.85-0.41-5.69-1c0,0-3-1.47-2.93-4
						c0,0,1.52,2.62,3.17,2.84c1.43-0.09,2.85,0.16,4.17,0.72c0.22,0.13,0.47,0.21,0.73,0.21c0.68-1.53,1.76-2.85,3.12-3.82
						c-0.29-0.91-0.53-1.81-0.72-2.68c-0.34-0.07-1.29,0.2-3.84,3c-1.9-0.34-3.75-0.95-5.49-1.8c0,0-2.74-1.87-2.35-4.38
						c0,0,1.14,2.8,2.74,3.25c1.42,0.12,2.78,0.57,4,1.3c0.2,0.16,0.44,0.27,0.69,0.32c0.96-1.5,2.31-2.71,3.9-3.51
						c-0.13-0.94-0.19-1.89-0.17-2.84c-1.62,0.2-4.46,3.77-4.46,3.77c-8.46-1.64-7-10.52-7-10.52c-3.71-2.55-3.73-5.39-3.73-5.39
						c0.65-7.92,8.06-6.59,8.06-6.59C83,128.66,85.4,135,85.4,135c1.28-1.52,1.69-3.59,1.09-5.48c4.83,4-0.3,8.44-0.3,8.44
						c1.36,1.63,0.71,5.54,0.71,5.54c0.06,1.9,1.57,3.44,3.47,3.52c2.3-3.11,4.3-3.63,5.06-3.72c0.33-1.65,1-2.82,2.12-3.22
						l10.7,29.39C108.09,169.64,107.9,169.77,107.68,169.86z"/>
					<path class="st3" d="M180.65,167.9c-0.42,2.51-3.6,3.44-3.6,3.44c-1.91,0.27-3.86,0.27-5.77,0c-1.31-2.91-2.1-3.76-2.52-4
						c-0.81,0.84-1.86,1.41-3,1.64c0.19,0.28,0.24,0.63,0.14,0.95c-0.22,0.45-0.68,0.73-1.18,0.73c0.22,0.72,0.19,1.48-0.08,2.18
						c-0.32,1.06-1.22,1.83-2.31,2L173,145.5l0,0c1.09,0.39,1.81,1.56,2.14,3.21c0.78,0.1,2.76,0.66,5,3.72
						c1.9-0.08,3.41-1.62,3.47-3.52c0,0-0.65-3.91,0.71-5.54c0,0-5.13-4.4-0.3-8.44c-0.6,1.89-0.19,3.96,1.08,5.48
						c0,0,2.44-6.38-2.72-8.44c0,0,7.4-1.34,8.06,6.59c0,0,0,2.84-3.73,5.39c0,0,1.5,8.88-7,10.52c0,0-2.8-3.51-4.42-3.77
						c0.01,0.96-0.04,1.91-0.17,2.86c1.57,0.8,2.9,2,3.86,3.48c0.25-0.04,0.49-0.15,0.69-0.31c1.22-0.73,2.58-1.18,4-1.3
						c1.6-0.45,2.74-3.25,2.74-3.25c0.38,2.51-2.35,4.38-2.35,4.38c-1.74,0.85-3.59,1.46-5.49,1.8c-2.45-2.69-3.43-3-3.8-3
						c-0.2,0.92-0.44,1.82-0.73,2.71c1.34,0.98,2.41,2.29,3.09,3.8c0.26,0,0.51-0.08,0.73-0.21c1.32-0.56,2.74-0.81,4.17-0.72
						c1.65-0.23,3.17-2.85,3.17-2.85c0,2.54-2.94,4-2.94,4c-1.84,0.59-3.75,0.93-5.68,1c-1.71-2.5-2.63-3.26-3.11-3.45
						c-0.31,0.79-0.64,1.55-1,2.26c1.27,1.11,2.22,2.53,2.77,4.12c0.26,0.02,0.52-0.02,0.75-0.14c1.36-0.43,2.8-0.54,4.21-0.33
						c1.67-0.06,3.42-2.53,3.42-2.53c-0.2,2.53-3.3,3.72-3.3,3.72c-1.89,0.42-3.82,0.58-5.75,0.47c-1.64-3-2.51-3.66-2.92-3.79
						c-0.55,0.96-1.19,1.87-1.9,2.72c1.04,1.13,1.78,2.51,2.15,4c0.26,0.04,0.52,0.01,0.76-0.08c1.39-0.33,2.84-0.33,4.23,0
						C178.69,170.22,180.65,167.9,180.65,167.9z"/>
				</g>
			</g>
		</g>
	</g>
</g>
</svg>
