<?xml version="1.0" encoding="utf-8"?>
<!-- Generator: Adobe Illustrator 21.1.0, SVG Export Plug-In . SVG Version: 6.00 Build 0)  -->
<svg version="1.1" id="ZooUno" xmlns="http://www.w3.org/2000/svg" xmlns:xlink="http://www.w3.org/1999/xlink" x="0px" y="0px"
	 viewBox="0 0 270.58 382.68" style="enable-background:new 0 0 270.58 382.68;" xml:space="preserve">
<style type="text/css">
	.st0{fill:#E41718;}
	.st1{fill:none;stroke:#000000;stroke-width:0.49;stroke-miterlimit:10;}
	.st2{enable-background:new    ;}
</style>
<title>ZooUno Fields Cartas Finais pra Lari</title>
<g id="Final_Cards">
	<g id="Mamíferos">
		<g id="Mamíferos-2">
			<g id="_3_1">
				<path class="st0" d="M102.46,66c8.42-3.96,17.47-6.4,26.74-7.2c2.32-0.21,4.64-0.29,7-0.28l3.49,0.06l3.49,0.24
					c4.65,0.41,9.26,1.21,13.77,2.4c9.05,2.4,17.61,6.38,25.26,11.78c3.85,2.68,7.46,5.7,10.79,9c3.32,3.3,6.36,6.88,9.07,10.69
					c5.41,7.65,9.45,16.18,11.93,25.21c1.23,4.51,2.08,9.12,2.55,13.77c0.44,4.66,0.46,9.34,0.08,14c-0.73,9.32-3.1,18.44-7,26.94
					c-3.89,8.45-9.21,16.16-15.74,22.79c6.21-6.85,11.22-14.68,14.84-23.19c3.66-8.44,5.8-17.46,6.32-26.65
					c2.4-37.96-21.98-72.46-58.57-82.87c-4.41-1.25-8.92-2.12-13.48-2.62l-3.43-0.3l-3.44-0.13c-2.3-0.06-4.6,0-6.89,0.13
					C120.03,60.32,110.97,62.42,102.46,66z"/>
				<path class="st0" d="M77.79,83.11c-6.44,6.82-11.67,14.68-15.48,23.25c-3.82,8.53-6.11,17.67-6.75,27
					c-0.68,9.28,0.23,18.61,2.69,27.59c5.07,18.02,16.19,33.75,31.5,44.53c23.45,16.36,53.77,19.21,79.86,7.52
					c-8.46,4.19-17.61,6.83-27,7.8c-9.43,0.93-18.96,0.22-28.15-2.09c-38.4-9.83-64-46.04-60.46-85.52
					C55.64,114.18,64.09,96.39,77.79,83.11z"/>
				<path class="st0" d="M104.82,69.36c8-3.58,16.55-5.77,25.29-6.45c2.19-0.17,4.38-0.24,6.57-0.19c2.19,0,4.38,0.16,6.56,0.33
					c4.37,0.43,8.69,1.23,12.93,2.38c8.5,2.31,16.53,6.1,23.72,11.2c7.23,5.05,13.53,11.31,18.62,18.51
					c5.1,7.19,8.91,15.22,11.26,23.72c2.4,8.49,3.29,17.34,2.63,26.14c-0.62,8.77-2.75,17.37-6.31,25.41
					c-3.59,7.99-8.5,15.32-14.53,21.68c5.85-6.47,10.56-13.89,13.93-21.94c3.4-8,5.39-16.54,5.88-25.22
					c2.19-35.94-20.87-68.57-55.47-78.52c-4.17-1.19-8.43-2.04-12.74-2.53c-2.16-0.19-4.33-0.39-6.5-0.41
					c-2.17-0.08-4.34-0.05-6.51,0.09C121.44,64.02,112.87,65.99,104.82,69.36z"/>
				<path class="st0" d="M80.14,86.44c-6.08,6.44-11,13.89-14.56,22c-3.59,8.08-5.72,16.74-6.31,25.56
					c-2.59,36.5,20.93,69.77,56.2,79.51c17.19,4.71,35.48,3.35,51.79-3.84c-8.05,3.8-16.69,6.17-25.55,7
					c-8.89,0.79-17.86,0.04-26.5-2.2c-36.02-9.49-60.05-43.45-57-80.58c0.73-8.9,3.03-17.6,6.79-25.7
					C68.76,100.13,73.88,92.77,80.14,86.44z"/>
				<path class="st0" d="M107.18,72.7c15.26-6.52,32.29-7.58,48.24-3c3.97,1.11,7.85,2.54,11.58,4.3c3.7,1.79,7.25,3.89,10.61,6.26
					c6.74,4.77,12.62,10.65,17.39,17.39c9.59,13.57,14.24,30.02,13.18,46.6c-0.49,8.22-2.4,16.3-5.63,23.88
					c-3.25,7.56-7.75,14.51-13.31,20.58c5.46-6.12,9.85-13.12,13-20.7c9.67-23.11,6.72-49.58-7.79-70
					c-9.47-13.51-23.3-23.37-39.16-27.91C139.42,65.54,122.47,66.46,107.18,72.7z"/>
				<path class="st0" d="M82.5,89.77c-8.54,9.19-14.62,20.39-17.66,32.56c-9.25,38.19,13.39,76.86,51.23,87.47
					c16.2,4.46,33.43,3.23,48.83-3.48c-7.62,3.46-15.77,5.57-24.11,6.25c-2.08,0.18-4.17,0.25-6.26,0.21l-3.13-0.08l-3.13-0.23
					c-4.15-0.4-8.25-1.15-12.27-2.24c-38.73-10.39-61.7-50.21-51.31-88.93C67.87,109.45,74,98.61,82.5,89.77z"/>
				<g id="Gland_Mam">
					<path d="M152.39,95.55c2.28,4.3,4.78,8.49,7.49,12.53l4.17,6c1.4,2,2.8,4,4.11,6.06c2.73,4.07,4.82,8.54,6.19,13.25
						c1.29,4.75,1.69,9.7,1.18,14.6c-0.49,4.91-1.87,9.69-4.07,14.1c-2.2,4.42-5.24,8.38-8.94,11.66
						c-7.48,6.59-17.08,10.28-27.05,10.41c-10.01,0.01-19.68-3.64-27.19-10.26c-3.76-3.26-6.85-7.22-9.11-11.66
						c-2.24-4.45-3.65-9.28-4.17-14.24c-0.49-4.94-0.06-9.93,1.25-14.72c1.39-4.74,3.52-9.24,6.3-13.32c2.67-4.11,5.61-8,8.36-12
						c2.76-4.01,5.31-8.16,7.64-12.43l0.13,0.07c-2.18,4.37-4.59,8.62-7.21,12.73c-2.66,4.09-5.51,8.05-8.06,12.17
						c-2.62,4.05-4.62,8.46-5.93,13.1c-3.67,14.23,0.85,29.31,11.74,39.18c7.21,6.49,16.54,10.12,26.24,10.22
						c9.72-0.07,19.1-3.62,26.43-10c7.3-6.45,11.91-15.41,12.91-25.1c0.55-4.81,0.22-9.68-1-14.36c-1.31-4.68-3.34-9.12-6-13.18
						c-1.28-2.06-2.66-4.07-4-6.08l-4.11-6c-2.68-4.08-5.14-8.29-7.38-12.62L152.39,95.55z"/>
					<path d="M142.17,143.63c0.02-1.78-0.71-3.48-2-4.7c-1.27-1.2-2.96-1.85-4.7-1.8c-3.55,0.03-6.39,2.93-6.36,6.48
						c0,0.01,0,0.01,0,0.02c0.03,1.67,0.73,3.27,1.93,4.43c1.19,1.15,2.78,1.8,4.43,1.83c1.69,0.03,3.32-0.57,4.59-1.68
						C141.37,147.05,142.14,145.38,142.17,143.63z M142.27,143.63c0.03,1.84-0.62,3.62-1.84,5c-1.28,1.42-3.09,2.25-5,2.28
						c-1.92,0.02-3.77-0.75-5.12-2.12c-1.31-1.38-2.03-3.22-2-5.12c0.03-1.88,0.8-3.68,2.14-5c2.69-2.68,7.05-2.67,9.73,0.03
						c0.04,0.04,0.08,0.08,0.12,0.12C141.53,140.12,142.24,141.84,142.27,143.63z"/>
					<circle cx="135.47" cy="143.63" r="2.23"/>
					<path id="Marker_Word" class="st1" d="M138.19,159.77h-0.22c-0.36-0.02-0.7-0.14-1-0.33c-0.3-0.18-0.55-0.42-0.73-0.71
						c-0.38-0.6-0.45-1.34-0.21-2c0.15-0.35,0.33-0.69,0.56-1l0.17-0.24c0.39-0.59,0.71-1.24,0.94-1.91c0.12-0.33,0.21-0.66,0.28-1
						l0.09-0.52c0,0,0-0.08,0-0.11c0.01-0.04,0.04-0.07,0.08-0.07c0.04,0,0.07,0.03,0.07,0.07v0c0.02,0.18,0.06,0.36,0.1,0.54v0.14
						c0.07,0.34,0.17,0.67,0.28,1c0.23,0.66,0.54,1.29,0.93,1.87l0.17,0.24c0.04,0.07,0.09,0.14,0.14,0.2
						c0.17,0.24,0.31,0.5,0.42,0.77c0.26,0.74,0.13,1.55-0.35,2.17c-0.22,0.27-0.49,0.48-0.8,0.63c-0.31,0.15-0.65,0.23-1,0.23
						L138.19,159.77z"/>
					<path id="Marker_Word-2" class="st1" d="M133.23,165.71H133c-0.35-0.03-0.7-0.15-1-0.33c-0.29-0.18-0.54-0.43-0.73-0.72
						c-0.38-0.6-0.46-1.34-0.21-2c0.14-0.36,0.33-0.69,0.56-1l0.17-0.24c0.39-0.59,0.71-1.24,0.94-1.91c0.12-0.33,0.21-0.66,0.28-1
						c0-0.17,0.06-0.35,0.08-0.52c0-0.04,0-0.07,0-0.11c0.01-0.04,0.04-0.06,0.08-0.06c0,0,0.07,0,0.07,0.06
						c0.02,0.18,0.06,0.36,0.1,0.54v0.14c0.08,0.34,0.17,0.67,0.28,1c0.23,0.66,0.54,1.28,0.93,1.86l0.17,0.24
						c0.04,0.07,0.09,0.14,0.14,0.2c0.17,0.24,0.31,0.51,0.42,0.78c0.26,0.73,0.12,1.55-0.35,2.16c-0.44,0.54-1.1,0.86-1.8,0.86
						L133.23,165.71z"/>
					<path id="Marker_Word-3" class="st1" d="M139.11,171.09h-0.23c-0.35-0.03-0.7-0.15-1-0.33c-0.29-0.18-0.54-0.42-0.73-0.71
						c-0.37-0.6-0.45-1.34-0.21-2c0.14-0.36,0.33-0.69,0.56-1l0.17-0.24c0.39-0.6,0.71-1.24,0.94-1.92c0.12-0.33,0.21-0.66,0.28-1
						l0.09-0.52c0-0.04,0-0.07,0-0.11c0,0,0-0.06,0.07-0.06c0.04,0,0.07,0.03,0.07,0.06c0,0.19,0.07,0.37,0.1,0.55v0.13
						c0.07,0.34,0.17,0.67,0.28,1c0.23,0.66,0.54,1.28,0.93,1.86l0.17,0.24c0,0.07,0.09,0.14,0.14,0.21
						c0.18,0.24,0.32,0.5,0.42,0.77c0.4,1.09-0.1,2.3-1.15,2.79c-0.31,0.15-0.65,0.23-1,0.23L139.11,171.09z"/>
				</g>
				<g class="st2">
					<path d="M50.3,30.79c-1.85-0.89-3.63-1.34-5.42-1.34c-3.93,0-5.31,2.42-5.31,4.57c0,2.57,2.02,4.27,5.02,4.27
						c0.89,0,1.34-0.08,2.4-0.51v-1.7h-2.1v-2.66h5.72v5.93c-1.08,1.13-3.76,1.96-6.1,1.96c-5.06,0-8.65-3.08-8.65-7.42
						c0-4.42,3.57-7.46,8.74-7.46c2.17,0,4.27,0.49,5.72,1.19V30.79z"/>
					<path d="M56.55,41.12h-3.08v-14.5h3.08V41.12z"/>
					<path d="M69.17,40.42c-0.85,0.51-2.06,0.89-2.89,0.89c-1.02,0-1.51-0.32-1.72-1.11c-1.19,0.81-2.17,1.11-3.23,1.11
						c-1.57,0-2.74-1.17-2.74-2.4c0-2.34,1.72-2.81,5.82-4.08c0.06-0.91-0.36-1.64-1.7-1.64c-1.23,0-2.64,0.64-3.61,1.64v-2.51
						c1.28-0.79,2.7-1.19,4.25-1.19c2.47,0,4.14,0.83,4.14,2.98v4.46c0,0.49,0.19,0.68,0.51,0.68c0.21,0,0.45-0.04,1.17-0.55V40.42z
						 M67.09,30.34H65.2l-1.66-1.85l-1.7,1.85h-1.87l2.1-3.72h2.91L67.09,30.34z M64.41,36.38c-1.83,0.66-2.7,1.08-2.7,2.06
						c0,0.57,0.45,1.04,1,1.04c0.57,0,1.19-0.28,1.7-0.74V36.38z"/>
					<path d="M73.53,32.72c0.98-1.13,1.93-1.59,3.19-1.59c1.53,0,3.57,0.87,3.57,3.76v6.23H77.2v-5.97c0-1.38-0.66-1.96-1.53-1.96
						c-0.77,0-1.34,0.4-2.15,1.62v6.31h-3.08v-9.8h3.08V32.72z"/>
					<path d="M92.69,41.12h-3.08v-0.79c-0.87,0.7-1.68,0.98-2.72,0.98c-2.64,0-4.59-2.17-4.59-5.1c0-3,1.96-5.08,4.76-5.08
						c0.89,0,1.72,0.21,2.55,0.62v-5.12h3.08V41.12z M89.61,33.77c-0.45-0.32-1.17-0.57-1.72-0.57c-1.55,0-2.47,1.13-2.47,3.08
						c0,1.79,0.91,2.98,2.36,2.98c0.66,0,1.19-0.23,1.83-0.81V33.77z"/>
					<path d="M101.98,39.72c-0.98,1.13-1.93,1.59-3.17,1.59c-1.93,0-3.59-1.19-3.59-3.72v-6.27h3.08v6.06
						c0,1.38,0.74,1.87,1.55,1.87c0.94,0,1.79-0.72,2.1-1.68v-6.25h3.1v9.8h-3.08V39.72z"/>
					<path d="M110.76,41.12h-3.08v-14.5h3.08V41.12z"/>
					<path d="M123.38,40.42c-0.85,0.51-2.06,0.89-2.89,0.89c-1.02,0-1.51-0.32-1.72-1.11c-1.19,0.81-2.17,1.11-3.23,1.11
						c-1.57,0-2.74-1.17-2.74-2.4c0-2.34,1.72-2.81,5.82-4.08c0.06-0.91-0.36-1.64-1.7-1.64c-1.23,0-2.64,0.64-3.61,1.64v-2.51
						c1.28-0.79,2.7-1.19,4.25-1.19c2.47,0,4.14,0.83,4.14,2.98v4.46c0,0.49,0.19,0.68,0.51,0.68c0.21,0,0.45-0.04,1.17-0.55V40.42z
						 M118.62,36.38c-1.83,0.66-2.7,1.08-2.7,2.06c0,0.57,0.45,1.04,1,1.04c0.57,0,1.19-0.28,1.7-0.74V36.38z"/>
					<path d="M131.39,34.04c-1.34-0.83-2.66-1.08-3.27-1.08c-0.4,0-1.1,0.08-1.1,0.77c0,1.08,4.87,1.13,4.87,4.4
						c0,2.04-1.45,3.19-4,3.19c-1.57,0-3.08-0.49-3.51-0.72v-2.17c1,0.42,2,0.83,3.17,0.83c0.91,0,1.49-0.28,1.49-0.72
						c0-1.42-4.87-1.17-4.87-4.38c0-1.81,1.64-3.02,4.06-3.02c1.23,0,2.15,0.21,3.17,0.72V34.04z"/>
					<path d="M152.43,26.62h3.15v14.5h-3.61v-9.05l-3.91,4.55h-0.55l-3.91-4.55v9.05h-3.61v-14.5h3.15l4.66,5.38L152.43,26.62z"/>
					<path d="M168.45,40.42c-0.85,0.51-2.06,0.89-2.89,0.89c-1.02,0-1.51-0.32-1.72-1.11c-1.19,0.81-2.17,1.11-3.23,1.11
						c-1.57,0-2.74-1.17-2.74-2.4c0-2.34,1.72-2.81,5.82-4.08c0.06-0.91-0.36-1.64-1.7-1.64c-1.23,0-2.64,0.64-3.61,1.64v-2.51
						c1.28-0.79,2.7-1.19,4.25-1.19c2.46,0,4.14,0.83,4.14,2.98v4.46c0,0.49,0.19,0.68,0.51,0.68c0.21,0,0.45-0.04,1.17-0.55V40.42z
						 M163.69,36.38c-1.83,0.66-2.7,1.08-2.7,2.06c0,0.57,0.45,1.04,1,1.04c0.57,0,1.19-0.28,1.7-0.74V36.38z"/>
					<path d="M172.87,32.58c0.53-0.49,1.08-0.85,1.64-1.11c0.57-0.23,1.15-0.34,1.76-0.34c1.7,0,2.85,0.68,3.53,2.08
						c1.28-1.47,2.4-2.08,3.87-2.08c2.23,0,3.83,1.47,3.83,3.7v6.29h-3.08v-5.74c0-1.4-0.68-2.19-1.81-2.19
						c-0.89,0-1.72,0.57-2.42,1.66v6.27h-3.08v-5.8c0-1.59-0.96-2.13-1.87-2.13c-0.81,0-1.62,0.47-2.36,1.36v6.57h-3.08v-9.8h3.08
						V32.58z"/>
					<path d="M200.09,40.42c-0.85,0.51-2.06,0.89-2.89,0.89c-1.02,0-1.51-0.32-1.72-1.11c-1.19,0.81-2.17,1.11-3.23,1.11
						c-1.57,0-2.74-1.17-2.74-2.4c0-2.34,1.72-2.81,5.82-4.08c0.06-0.91-0.36-1.64-1.7-1.64c-1.23,0-2.64,0.64-3.61,1.64v-2.51
						c1.28-0.79,2.7-1.19,4.25-1.19c2.47,0,4.14,0.83,4.14,2.98v4.46c0,0.49,0.19,0.68,0.51,0.68c0.21,0,0.45-0.04,1.17-0.55V40.42z
						 M195.33,36.38c-1.83,0.66-2.7,1.08-2.7,2.06c0,0.57,0.45,1.04,1,1.04c0.57,0,1.19-0.28,1.7-0.74V36.38z M194.33,29.85h-1.57
						l1.57-3.1h3.51L194.33,29.85z"/>
					<path d="M204.53,34.13h0.04c0.91-2.04,1.93-3,3.13-3c0.62,0,1.15,0.23,2.04,0.89l-0.85,2.72c-0.81-0.51-1.34-0.72-1.83-0.72
						c-1.13,0-1.85,1.06-2.53,2.87v4.23h-3.08v-9.8h3.08V34.13z"/>
					<path d="M214.18,28.13c0,0.94-0.77,1.7-1.7,1.7c-0.94,0-1.7-0.76-1.7-1.7c0-0.93,0.77-1.7,1.7-1.7
						C213.41,26.43,214.18,27.2,214.18,28.13z M214.03,41.12h-3.08v-9.8h3.08V41.12z"/>
					<path d="M226.65,40.42c-0.85,0.51-2.06,0.89-2.89,0.89c-1.02,0-1.51-0.32-1.72-1.11c-1.19,0.81-2.17,1.11-3.23,1.11
						c-1.57,0-2.74-1.17-2.74-2.4c0-2.34,1.72-2.81,5.82-4.08c0.06-0.91-0.36-1.64-1.7-1.64c-1.23,0-2.64,0.64-3.61,1.64v-2.51
						c1.28-0.79,2.7-1.19,4.25-1.19c2.46,0,4.14,0.83,4.14,2.98v4.46c0,0.49,0.19,0.68,0.51,0.68c0.21,0,0.45-0.04,1.17-0.55V40.42z
						 M221.89,36.38c-1.83,0.66-2.7,1.08-2.7,2.06c0,0.57,0.45,1.04,1,1.04c0.57,0,1.19-0.28,1.7-0.74V36.38z"/>
					<path d="M234.66,34.04c-1.34-0.83-2.66-1.08-3.27-1.08c-0.4,0-1.11,0.08-1.11,0.77c0,1.08,4.87,1.13,4.87,4.4
						c0,2.04-1.45,3.19-4,3.19c-1.57,0-3.08-0.49-3.51-0.72v-2.17c1,0.42,2,0.83,3.17,0.83c0.91,0,1.49-0.28,1.49-0.72
						c0-1.42-4.87-1.17-4.87-4.38c0-1.81,1.64-3.02,4.06-3.02c1.23,0,2.15,0.21,3.17,0.72V34.04z"/>
				</g>
				<g class="st2">
					<path d="M33.18,239.38c-1.26-0.74-2.34-1.07-3.52-1.07c-2.34,0-4.08,1.67-4.08,3.92c0,2.29,1.68,3.88,4.14,3.88
						c1.16,0,2.42-0.41,3.57-1.16v1.61c-1.01,0.52-2.1,0.9-3.71,0.9c-3.84,0-5.52-2.96-5.52-5.1c0-3.12,2.35-5.4,5.61-5.4
						c1.05,0,2.12,0.25,3.51,0.84V239.38z"/>
					<path d="M40.12,246.94c-0.61,0.4-0.87,0.52-1.29,0.52c-0.58,0-0.9-0.21-1.02-0.69c-0.58,0.46-1.2,0.69-1.81,0.69
						c-0.99,0-1.65-0.78-1.65-1.65c0-1.33,1.21-1.74,2.29-2.13l1.18-0.42v-0.36c0-0.84-0.4-1.18-1.21-1.18
						c-0.73,0-1.48,0.34-2.13,1.11v-1.46c0.52-0.61,1.26-0.92,2.23-0.92c1.37,0,2.44,0.69,2.44,2.22v3.46
						c0,0.25,0.09,0.34,0.26,0.34c0.13,0,0.4-0.13,0.7-0.36V246.94z M37.83,244c-1.14,0.39-2.13,0.78-2.13,1.58
						c0,0.55,0.41,0.95,0.96,0.95c0.42,0,0.81-0.21,1.17-0.56V244z"/>
					<path d="M45.22,242.33c-0.75-0.5-1.46-0.71-1.95-0.71c-0.54,0-0.88,0.26-0.88,0.62c0,0.3,0.45,0.66,1.63,1.35
						c1.11,0.73,1.52,1.2,1.52,1.89c0,1.18-0.94,1.98-2.22,1.98c-0.83,0-1.47-0.17-2.34-0.62v-1.44c0.87,0.6,1.67,0.88,2.21,0.88
						c0.54-0.03,0.99-0.29,0.99-0.76c0-0.93-3.15-1.42-3.15-3.24c0-1.14,0.87-1.83,2.22-1.83c0.63,0,1.27,0.18,1.98,0.56V242.33z"/>
					<path d="M53.88,243.9c0,2.13-1.48,3.57-3.65,3.57c-2.07,0-3.55-1.5-3.55-3.57c0-1.94,1.54-3.44,3.55-3.44
						C52.35,240.46,53.88,241.9,53.88,243.9z M48.04,243.9c0,1.42,0.89,2.37,2.18,2.37c1.41,0,2.29-0.9,2.29-2.35
						c0-1.3-0.96-2.25-2.29-2.25C48.96,241.66,48.04,242.61,48.04,243.9z"/>
				</g>
				<g class="st2">
				</g>
				<g class="st2">
					<path d="M62.85,240.6h1.46l1.81,4.14l1.77-4.14h1.42l-2.97,6.87H65.9L62.85,240.6z"/>
				</g>
				<g class="st2">
					<path d="M76.82,243.9c0,2.13-1.48,3.57-3.65,3.57c-2.07,0-3.55-1.5-3.55-3.57c0-1.94,1.54-3.44,3.55-3.44
						C75.29,240.46,76.82,241.9,76.82,243.9z M70.98,243.9c0,1.42,0.89,2.37,2.18,2.37c1.41,0,2.29-0.9,2.29-2.35
						c0-1.3-0.96-2.25-2.29-2.25C71.9,241.66,70.98,242.61,70.98,243.9z"/>
					<path d="M83.25,242.35c-0.76-0.51-1.27-0.66-1.86-0.66c-1.21,0-2.05,0.92-2.05,2.28c0,1.39,0.9,2.23,2.28,2.23
						c0.57,0,1.11-0.15,1.79-0.45v1.32c-0.45,0.21-1.31,0.39-2.01,0.39c-2.01,0-3.42-1.39-3.42-3.38c0-2.22,1.29-3.63,3.33-3.63
						c0.78,0,1.31,0.18,1.95,0.47V242.35z"/>
					<path d="M90.5,246.67c-0.81,0.54-1.54,0.79-2.69,0.79c-2.1,0-3.27-1.72-3.27-3.58c0-2.04,1.29-3.42,3.15-3.42
						c1.79,0,2.93,1.22,2.93,3.71h-4.74c0.21,1.33,0.98,2.03,2.27,2.03c0.81,0,1.57-0.3,2.35-0.81V246.67z M89.61,239.74h-0.82
						l-1.31-1.3l-1.24,1.3h-0.79l1.36-2.26h1.4L89.61,239.74z M89.3,243.28c-0.04-1.02-0.63-1.67-1.57-1.67
						c-1.02,0-1.63,0.6-1.81,1.67H89.3z"/>
				</g>
				<g class="st2">
				</g>
				<g class="st2">
					<path d="M101.75,241.48h0.03c0.51-0.65,1.26-1.02,2.01-1.02c1.27,0,2.29,0.87,2.29,2.71v4.16h-1.33v-4.17
						c0-0.99-0.51-1.63-1.32-1.63c-0.58,0-1.05,0.27-1.68,0.97v4.83h-1.33v-6.73h1.33V241.48z"/>
					<path d="M113.16,246.94c-0.61,0.4-0.87,0.52-1.29,0.52c-0.58,0-0.9-0.21-1.02-0.69c-0.58,0.46-1.2,0.69-1.81,0.69
						c-0.99,0-1.65-0.78-1.65-1.65c0-1.33,1.21-1.74,2.29-2.13l1.18-0.42v-0.36c0-0.84-0.4-1.18-1.21-1.18
						c-0.73,0-1.48,0.34-2.13,1.11v-1.46c0.52-0.61,1.26-0.92,2.23-0.92c1.37,0,2.44,0.69,2.44,2.22v3.46
						c0,0.25,0.09,0.34,0.26,0.34c0.13,0,0.4-0.13,0.7-0.36V246.94z M112.1,237.69c0,1.06-0.49,1.77-1.18,1.77
						c-0.83,0-1.38-0.52-2.08-0.52c-0.3,0-0.47,0.18-0.51,0.52h-0.61c0.07-1.09,0.48-1.72,1.17-1.72c0.75,0,1.68,0.53,2.11,0.53
						c0.3,0,0.48-0.17,0.54-0.57H112.1z M110.87,244c-1.14,0.39-2.13,0.78-2.13,1.58c0,0.55,0.41,0.95,0.96,0.95
						c0.42,0,0.81-0.21,1.17-0.56V244z"/>
					<path d="M121.14,243.9c0,2.13-1.48,3.57-3.65,3.57c-2.07,0-3.55-1.5-3.55-3.57c0-1.94,1.54-3.44,3.55-3.44
						C119.61,240.46,121.14,241.9,121.14,243.9z M115.31,243.9c0,1.42,0.89,2.37,2.17,2.37c1.41,0,2.29-0.9,2.29-2.35
						c0-1.3-0.96-2.25-2.29-2.25C116.22,241.66,115.31,242.61,115.31,243.9z"/>
				</g>
				<g class="st2">
				</g>
				<g class="st2">
					<path d="M132.58,240.6h2.13v1.2h-2.13v3.45c0,0.79,0.57,1.02,0.96,1.02c0.48,0,0.98-0.16,1.52-0.49v1.24
						c-0.47,0.26-1.19,0.45-1.62,0.45c-1.46,0-2.19-0.9-2.19-2.11v-3.56h-1.17v-0.15l2.5-2.45V240.6z"/>
					<path d="M141.64,246.67c-0.81,0.54-1.54,0.79-2.68,0.79c-2.1,0-3.27-1.72-3.27-3.58c0-2.04,1.29-3.42,3.15-3.42
						c1.79,0,2.92,1.22,2.92,3.71h-4.74c0.21,1.33,0.98,2.03,2.27,2.03c0.81,0,1.57-0.3,2.35-0.81V246.67z M140.44,243.28
						c-0.04-1.02-0.63-1.67-1.57-1.67c-1.02,0-1.63,0.6-1.82,1.67H140.44z"/>
					<path d="M144.51,241.48h0.03c0.51-0.65,1.26-1.02,2.01-1.02c1.27,0,2.29,0.87,2.29,2.71v4.16h-1.33v-4.17
						c0-0.99-0.51-1.63-1.32-1.63c-0.58,0-1.05,0.27-1.68,0.97v4.83h-1.33v-6.73h1.33V241.48z"/>
					<path d="M152.01,241.48h0.03c0.51-0.65,1.26-1.02,2.01-1.02c1.32,0,2.29,0.9,2.29,2.75v4.13h-1.33v-4.17
						c0-0.99-0.51-1.63-1.32-1.63c-0.58,0-1.05,0.27-1.68,0.97v4.83h-1.33V237.1h1.33V241.48z"/>
					<path d="M163.42,246.94c-0.61,0.4-0.87,0.52-1.29,0.52c-0.58,0-0.9-0.21-1.02-0.69c-0.58,0.46-1.2,0.69-1.81,0.69
						c-0.99,0-1.65-0.78-1.65-1.65c0-1.33,1.21-1.74,2.29-2.13l1.18-0.42v-0.36c0-0.84-0.4-1.18-1.21-1.18
						c-0.73,0-1.48,0.34-2.13,1.11v-1.46c0.53-0.61,1.26-0.92,2.24-0.92c1.37,0,2.44,0.69,2.44,2.22v3.46
						c0,0.25,0.09,0.34,0.26,0.34c0.13,0,0.4-0.13,0.7-0.36V246.94z M161.13,244c-1.14,0.39-2.13,0.78-2.13,1.58
						c0,0.55,0.41,0.95,0.96,0.95c0.42,0,0.81-0.21,1.17-0.56V244z"/>
				</g>
				<g class="st2">
				</g>
				<g class="st2">
					<path d="M177.95,242.35c-0.76-0.51-1.27-0.66-1.86-0.66c-1.21,0-2.05,0.92-2.05,2.28c0,1.39,0.9,2.23,2.28,2.23
						c0.57,0,1.11-0.15,1.79-0.45v1.32c-0.45,0.21-1.3,0.39-2.01,0.39c-2.01,0-3.42-1.39-3.42-3.38c0-2.22,1.29-3.63,3.33-3.63
						c0.78,0,1.3,0.18,1.95,0.47V242.35z"/>
					<path d="M184.79,246.94c-0.61,0.4-0.87,0.52-1.29,0.52c-0.58,0-0.9-0.21-1.02-0.69c-0.58,0.46-1.2,0.69-1.81,0.69
						c-0.99,0-1.65-0.78-1.65-1.65c0-1.33,1.21-1.74,2.29-2.13l1.18-0.42v-0.36c0-0.84-0.4-1.18-1.21-1.18
						c-0.73,0-1.48,0.34-2.13,1.11v-1.46c0.53-0.61,1.26-0.92,2.24-0.92c1.37,0,2.44,0.69,2.44,2.22v3.46
						c0,0.25,0.09,0.34,0.26,0.34c0.13,0,0.4-0.13,0.7-0.36V246.94z M182.5,244c-1.14,0.39-2.13,0.78-2.13,1.58
						c0,0.55,0.41,0.95,0.96,0.95c0.42,0,0.81-0.21,1.17-0.56V244z"/>
				</g>
				<g class="st2">
					<path d="M187.4,240.6v1.54h0.03c0.67-1.19,1.32-1.68,1.95-1.68c0.54,0,1.05,0.26,1.6,0.78l-0.7,1.16
						c-0.41-0.39-0.93-0.66-1.25-0.66c-0.92,0-1.63,0.92-1.63,2.07v3.52h-1.33v-6.73H187.4z"/>
				</g>
				<g class="st2">
					<path d="M193.78,240.6h2.13v1.2h-2.13v3.45c0,0.79,0.57,1.02,0.96,1.02c0.48,0,0.98-0.16,1.52-0.49v1.24
						c-0.46,0.26-1.19,0.45-1.62,0.45c-1.46,0-2.19-0.9-2.19-2.11v-3.56h-1.17v-0.15l2.51-2.45V240.6z"/>
					<path d="M202.43,246.94c-0.62,0.4-0.87,0.52-1.29,0.52c-0.59,0-0.9-0.21-1.02-0.69c-0.58,0.46-1.2,0.69-1.82,0.69
						c-0.99,0-1.65-0.78-1.65-1.65c0-1.33,1.21-1.74,2.29-2.13l1.18-0.42v-0.36c0-0.84-0.4-1.18-1.21-1.18
						c-0.73,0-1.48,0.34-2.13,1.11v-1.46c0.52-0.61,1.26-0.92,2.24-0.92c1.37,0,2.44,0.69,2.44,2.22v3.46
						c0,0.25,0.09,0.34,0.25,0.34c0.13,0,0.41-0.13,0.71-0.36V246.94z M200.13,244c-1.14,0.39-2.13,0.78-2.13,1.58
						c0,0.55,0.41,0.95,0.96,0.95c0.42,0,0.81-0.21,1.17-0.56V244z"/>
					<path d="M207.53,242.33c-0.75-0.5-1.46-0.71-1.95-0.71c-0.54,0-0.88,0.26-0.88,0.62c0,0.3,0.45,0.66,1.63,1.35
						c1.11,0.73,1.51,1.2,1.51,1.89c0,1.18-0.94,1.98-2.22,1.98c-0.83,0-1.47-0.17-2.34-0.62v-1.44c0.87,0.6,1.66,0.88,2.21,0.88
						c0.54-0.03,0.99-0.29,0.99-0.76c0-0.93-3.15-1.42-3.15-3.24c0-1.14,0.87-1.83,2.22-1.83c0.63,0,1.27,0.18,1.98,0.56V242.33z"/>
				</g>
				<g class="st2">
				</g>
				<g class="st2">
					<path d="M219.02,250.78h-1.33V240.6H220c2.46,0,3.79,1.2,3.79,3.42c0,2.02-1.43,3.45-3.42,3.45c-0.44,0-0.84-0.09-1.35-0.3
						V250.78z M219.02,245.96c0.41,0.2,0.84,0.3,1.26,0.3c1.25,0,2.15-0.96,2.15-2.26c0-1.39-0.74-2.21-2.19-2.21h-1.21V245.96z"/>
					<path d="M230.49,246.94c-0.61,0.4-0.87,0.52-1.29,0.52c-0.58,0-0.9-0.21-1.02-0.69c-0.58,0.46-1.2,0.69-1.81,0.69
						c-0.99,0-1.65-0.78-1.65-1.65c0-1.33,1.21-1.74,2.29-2.13l1.18-0.42v-0.36c0-0.84-0.4-1.18-1.21-1.18
						c-0.73,0-1.48,0.34-2.13,1.11v-1.46c0.53-0.61,1.26-0.92,2.24-0.92c1.37,0,2.44,0.69,2.44,2.22v3.46
						c0,0.25,0.09,0.34,0.26,0.34c0.13,0,0.4-0.13,0.7-0.36V246.94z M228.2,244c-1.14,0.39-2.13,0.78-2.13,1.58
						c0,0.55,0.41,0.95,0.96,0.95c0.42,0,0.81-0.21,1.17-0.56V244z"/>
					<path d="M233.1,240.6v1.54h0.03c0.67-1.19,1.32-1.68,1.95-1.68c0.54,0,1.05,0.26,1.61,0.78l-0.71,1.16
						c-0.41-0.39-0.93-0.66-1.25-0.66c-0.92,0-1.63,0.92-1.63,2.07v3.52h-1.33v-6.73H233.1z"/>
					<path d="M242.84,246.94c-0.61,0.4-0.87,0.52-1.29,0.52c-0.58,0-0.9-0.21-1.02-0.69c-0.58,0.46-1.2,0.69-1.81,0.69
						c-0.99,0-1.65-0.78-1.65-1.65c0-1.33,1.21-1.74,2.29-2.13l1.18-0.42v-0.36c0-0.84-0.4-1.18-1.21-1.18
						c-0.73,0-1.48,0.34-2.13,1.11v-1.46c0.53-0.61,1.26-0.92,2.24-0.92c1.37,0,2.44,0.69,2.44,2.22v3.46
						c0,0.25,0.09,0.34,0.26,0.34c0.13,0,0.4-0.13,0.7-0.36V246.94z M240.54,244c-1.14,0.39-2.13,0.78-2.13,1.58
						c0,0.55,0.41,0.95,0.96,0.95c0.42,0,0.81-0.21,1.17-0.56V244z"/>
				</g>
				<g class="st2">
					<path d="M25.59,268.21c0,1.44-0.45,2.08-1.33,2.57l-1-0.99c0.58-0.24,1-0.72,1-1.47v-7.72h1.33V268.21z M24.93,259.35
						c-0.44,0-0.79-0.36-0.79-0.79c0-0.44,0.36-0.79,0.79-0.79s0.79,0.36,0.79,0.79C25.72,258.99,25.36,259.35,24.93,259.35z"/>
					<path d="M34.36,263.9c0,2.13-1.48,3.57-3.65,3.57c-2.07,0-3.55-1.5-3.55-3.57c0-1.94,1.54-3.44,3.55-3.44
						C32.83,260.46,34.36,261.9,34.36,263.9z M28.53,263.9c0,1.42,0.89,2.37,2.18,2.37c1.41,0,2.29-0.9,2.29-2.35
						c0-1.3-0.96-2.25-2.29-2.25C29.44,261.66,28.53,262.61,28.53,263.9z"/>
					<path d="M41.22,261.63h-1.38c0.53,0.53,0.71,0.9,0.71,1.47c0,0.55-0.31,1.2-0.63,1.51c-0.9,0.96-2.73,0.48-2.73,1.28
						c0,0.37,0.71,0.6,2.06,0.87c1.44,0.29,1.95,1.02,1.95,1.88c0,1.33-1.19,2.15-3.18,2.15c-1.81,0-3.1-0.86-3.1-2.04
						c0-0.99,0.52-1.58,1.69-1.86c-0.46-0.29-0.67-0.55-0.67-0.85c0-0.44,0.42-0.81,1.06-0.96v-0.03c-0.5-0.21-0.87-0.5-1.13-0.85
						c-0.24-0.35-0.36-0.77-0.36-1.26c0-1.44,1.13-2.32,2.94-2.32h2.77V261.63z M37.69,267.66c-0.9,0-1.53,0.42-1.53,1.02
						c0,0.68,0.66,1.04,1.88,1.04c1.17,0,1.86-0.36,1.86-0.97C39.9,267.88,38.52,267.66,37.69,267.66z M38.04,261.75
						c-0.73,0-1.33,0.56-1.33,1.21c0,0.74,0.54,1.23,1.35,1.23c0.75,0,1.29-0.53,1.29-1.26C39.34,262.29,38.74,261.75,38.04,261.75z
						"/>
					<path d="M47.47,266.94c-0.61,0.4-0.87,0.52-1.29,0.52c-0.58,0-0.9-0.21-1.02-0.69c-0.58,0.46-1.2,0.69-1.81,0.69
						c-0.99,0-1.65-0.78-1.65-1.65c0-1.33,1.21-1.74,2.29-2.13l1.18-0.42v-0.36c0-0.84-0.4-1.18-1.21-1.18
						c-0.73,0-1.48,0.34-2.13,1.11v-1.46c0.52-0.61,1.26-0.92,2.23-0.92c1.37,0,2.44,0.69,2.44,2.22v3.46
						c0,0.25,0.09,0.34,0.26,0.34c0.13,0,0.4-0.13,0.7-0.36V266.94z M45.18,264c-1.14,0.39-2.13,0.78-2.13,1.58
						c0,0.55,0.41,0.95,0.96,0.95c0.42,0,0.81-0.21,1.17-0.56V264z"/>
					<path d="M50.08,260.6v1.54h0.03c0.67-1.19,1.32-1.68,1.95-1.68c0.54,0,1.05,0.26,1.6,0.78l-0.7,1.16
						c-0.41-0.39-0.93-0.66-1.25-0.66c-0.92,0-1.63,0.92-1.63,2.07v3.52h-1.33v-6.73H50.08z"/>
				</g>
				<g class="st2">
				</g>
				<g class="st2">
					<path d="M65.6,266.67c-0.81,0.54-1.54,0.79-2.68,0.79c-2.1,0-3.27-1.72-3.27-3.58c0-2.04,1.29-3.42,3.15-3.42
						c1.79,0,2.92,1.22,2.92,3.71h-4.74c0.21,1.33,0.98,2.03,2.27,2.03c0.81,0,1.57-0.3,2.35-0.81V266.67z M64.4,263.28
						c-0.04-1.02-0.63-1.67-1.57-1.67c-1.02,0-1.63,0.6-1.82,1.67H64.4z"/>
					<path d="M68.43,260.6v0.88c0.69-0.69,1.33-1.02,1.97-1.02c0.85,0,1.56,0.42,2.01,1.22c0.58-0.66,1.29-1.22,2.25-1.22
						c1.36,0,2.23,1.05,2.23,2.64v4.23h-1.33v-4.17c0-1.02-0.63-1.58-1.39-1.58c-0.44-0.01-1.02,0.36-1.5,0.86v4.89h-1.33v-4.18
						c0-1.09-0.55-1.56-1.21-1.56c-0.67,0-1.13,0.21-1.68,0.86v4.89H67.1v-6.73H68.43z"/>
				</g>
				<g class="st2">
				</g>
				<g class="st2">
					<path d="M88.02,262.33c-0.75-0.5-1.46-0.71-1.95-0.71c-0.54,0-0.88,0.26-0.88,0.62c0,0.3,0.45,0.66,1.63,1.35
						c1.11,0.73,1.52,1.2,1.52,1.89c0,1.18-0.94,1.98-2.22,1.98c-0.83,0-1.47-0.17-2.34-0.62v-1.44c0.87,0.6,1.67,0.88,2.21,0.88
						c0.54-0.03,0.99-0.29,0.99-0.76c0-0.93-3.15-1.42-3.15-3.24c0-1.14,0.87-1.83,2.22-1.83c0.63,0,1.27,0.18,1.98,0.56V262.33z"/>
					<path d="M95.5,266.67c-0.81,0.54-1.54,0.79-2.69,0.79c-2.1,0-3.27-1.72-3.27-3.58c0-2.04,1.29-3.42,3.15-3.42
						c1.79,0,2.93,1.22,2.93,3.71h-4.74c0.21,1.33,0.98,2.03,2.27,2.03c0.81,0,1.57-0.3,2.35-0.81V266.67z M94.3,263.28
						c-0.04-1.02-0.63-1.67-1.57-1.67c-1.02,0-1.64,0.6-1.81,1.67H94.3z"/>
					<path d="M101.34,267.33v-0.85c-0.55,0.6-1.33,0.99-1.99,0.99c-1.37,0-2.33-0.97-2.33-2.68v-4.18h1.33v4.27
						c0,0.95,0.46,1.49,1.38,1.49c0.6,0,1.17-0.33,1.6-0.95v-4.81h1.33v6.73H101.34z"/>
				</g>
				<g class="st2">
				</g>
				<g class="st2">
					<path d="M111.5,260.6h2.13v1.2h-2.13v3.45c0,0.79,0.57,1.02,0.96,1.02c0.48,0,0.98-0.16,1.52-0.49v1.24
						c-0.47,0.26-1.19,0.45-1.62,0.45c-1.46,0-2.19-0.9-2.19-2.11v-3.56H109v-0.15l2.5-2.45V260.6z"/>
					<path d="M119.21,267.33v-0.85c-0.55,0.6-1.33,0.99-1.99,0.99c-1.37,0-2.33-0.97-2.33-2.68v-4.18h1.33v4.27
						c0,0.95,0.46,1.49,1.38,1.49c0.6,0,1.17-0.33,1.6-0.95v-4.81h1.33v6.73H119.21z"/>
					<path d="M123.87,260.6v1.54h0.03c0.67-1.19,1.32-1.68,1.95-1.68c0.54,0,1.05,0.26,1.6,0.78l-0.7,1.16
						c-0.41-0.39-0.93-0.66-1.25-0.66c-0.92,0-1.63,0.92-1.63,2.07v3.52h-1.33v-6.73H123.87z"/>
					<path d="M129.69,261.48h0.03c0.51-0.65,1.26-1.02,2.01-1.02c1.27,0,2.29,0.87,2.29,2.71v4.16h-1.33v-4.17
						c0-0.99-0.51-1.63-1.32-1.63c-0.58,0-1.05,0.27-1.68,0.97v4.83h-1.33v-6.73h1.33V261.48z"/>
				</g>
				<g class="st2">
					<path d="M142.68,263.9c0,2.13-1.48,3.57-3.64,3.57c-2.07,0-3.56-1.5-3.56-3.57c0-1.94,1.55-3.44,3.56-3.44
						C141.15,260.46,142.68,261.9,142.68,263.9z M136.84,263.9c0,1.42,0.89,2.37,2.18,2.37c1.41,0,2.29-0.9,2.29-2.35
						c0-1.3-0.96-2.25-2.29-2.25C137.76,261.66,136.84,262.61,136.84,263.9z"/>
				</g>
				<g class="st2">
					<path d="M143.65,268.82c0.5-0.33,0.68-1.1,0.54-1.64c-0.44-0.01-0.74-0.34-0.74-0.84s0.38-0.85,0.88-0.85
						c0.65,0,1.07,0.57,1.07,1.46c0,0.85-0.57,1.83-1.76,2.16V268.82z"/>
				</g>
				<g class="st2">
				</g>
				<g class="st2">
					<path d="M152.12,270.78h-1.33V260.6h2.31c2.46,0,3.79,1.2,3.79,3.42c0,2.02-1.42,3.45-3.42,3.45c-0.43,0-0.84-0.09-1.35-0.3
						V270.78z M152.12,265.96c0.4,0.2,0.84,0.3,1.26,0.3c1.25,0,2.14-0.96,2.14-2.26c0-1.39-0.73-2.21-2.19-2.21h-1.21V265.96z"/>
					<path d="M165.17,263.9c0,2.13-1.49,3.57-3.65,3.57c-2.07,0-3.55-1.5-3.55-3.57c0-1.94,1.54-3.44,3.55-3.44
						C163.64,260.46,165.17,261.9,165.17,263.9z M159.33,263.9c0,1.42,0.88,2.37,2.17,2.37c1.41,0,2.29-0.9,2.29-2.35
						c0-1.3-0.96-2.25-2.29-2.25C160.25,261.66,159.33,262.61,159.33,263.9z"/>
					<path d="M172.47,267.33h-2.83c-2.01,0-3.27-1.37-3.27-3.52c0-1.95,1.39-3.35,3.36-3.35c0.45,0,0.87,0.08,1.41,0.27v-3.63h1.33
						V267.33z M171.14,261.92c-0.45-0.18-0.79-0.25-1.25-0.25c-1.29,0-2.16,0.93-2.16,2.34c0,1.26,0.51,2.21,2.05,2.21h1.35V261.92z
						"/>
					<path d="M179.93,266.67c-0.81,0.54-1.54,0.79-2.69,0.79c-2.1,0-3.27-1.72-3.27-3.58c0-2.04,1.29-3.42,3.15-3.42
						c1.79,0,2.93,1.22,2.93,3.71h-4.74c0.21,1.33,0.97,2.03,2.26,2.03c0.81,0,1.58-0.3,2.36-0.81V266.67z M178.73,263.28
						c-0.04-1.02-0.63-1.67-1.58-1.67c-1.02,0-1.63,0.6-1.81,1.67H178.73z"/>
				</g>
				<g class="st2">
				</g>
				<g class="st2">
					<path d="M192.68,267.33h-2.83c-2.01,0-3.27-1.37-3.27-3.52c0-1.95,1.39-3.35,3.36-3.35c0.45,0,0.87,0.08,1.41,0.27v-3.63h1.33
						V267.33z M191.35,261.92c-0.45-0.18-0.79-0.25-1.24-0.25c-1.29,0-2.16,0.93-2.16,2.34c0,1.26,0.51,2.21,2.05,2.21h1.35V261.92z
						"/>
					<path d="M200.14,266.67c-0.81,0.54-1.54,0.79-2.68,0.79c-2.1,0-3.27-1.72-3.27-3.58c0-2.04,1.29-3.42,3.15-3.42
						c1.79,0,2.92,1.22,2.92,3.71h-4.74c0.21,1.33,0.98,2.03,2.27,2.03c0.81,0,1.57-0.3,2.35-0.81V266.67z M198.94,263.28
						c-0.04-1.02-0.63-1.67-1.57-1.67c-1.02,0-1.64,0.6-1.82,1.67H198.94z"/>
					<path d="M205.62,262.33c-0.75-0.5-1.46-0.71-1.95-0.71c-0.54,0-0.88,0.26-0.88,0.62c0,0.3,0.45,0.66,1.63,1.35
						c1.11,0.73,1.51,1.2,1.51,1.89c0,1.18-0.94,1.98-2.22,1.98c-0.83,0-1.47-0.17-2.34-0.62v-1.44c0.87,0.6,1.67,0.88,2.21,0.88
						c0.54-0.03,0.99-0.29,0.99-0.76c0-0.93-3.15-1.42-3.15-3.24c0-1.14,0.87-1.83,2.22-1.83c0.63,0,1.28,0.18,1.98,0.56V262.33z"/>
					<path d="M212.42,262.35c-0.76-0.51-1.28-0.66-1.86-0.66c-1.21,0-2.05,0.92-2.05,2.28c0,1.39,0.9,2.23,2.28,2.23
						c0.57,0,1.11-0.15,1.79-0.45v1.32c-0.45,0.21-1.31,0.39-2.01,0.39c-2.01,0-3.42-1.39-3.42-3.38c0-2.22,1.29-3.63,3.33-3.63
						c0.78,0,1.31,0.18,1.95,0.47V262.35z"/>
					<path d="M219.26,266.94c-0.62,0.4-0.87,0.52-1.29,0.52c-0.58,0-0.9-0.21-1.02-0.69c-0.58,0.46-1.2,0.69-1.82,0.69
						c-0.99,0-1.65-0.78-1.65-1.65c0-1.33,1.21-1.74,2.29-2.13l1.18-0.42v-0.36c0-0.84-0.41-1.18-1.21-1.18
						c-0.74,0-1.49,0.34-2.13,1.11v-1.46c0.52-0.61,1.26-0.92,2.23-0.92c1.37,0,2.45,0.69,2.45,2.22v3.46
						c0,0.25,0.09,0.34,0.25,0.34c0.13,0,0.41-0.13,0.71-0.36V266.94z M216.97,264c-1.14,0.39-2.13,0.78-2.13,1.58
						c0,0.55,0.41,0.95,0.96,0.95c0.42,0,0.81-0.21,1.17-0.56V264z"/>
				</g>
				<g class="st2">
					<path d="M221.87,260.6v1.54h0.03c0.67-1.19,1.32-1.68,1.95-1.68c0.54,0,1.05,0.26,1.61,0.78l-0.71,1.16
						c-0.41-0.39-0.93-0.66-1.25-0.66c-0.92,0-1.63,0.92-1.63,2.07v3.52h-1.33v-6.73H221.87z"/>
				</g>
				<g class="st2">
					<path d="M228.25,260.6h2.13v1.2h-2.13v3.45c0,0.79,0.57,1.02,0.96,1.02c0.48,0,0.97-0.16,1.51-0.49v1.24
						c-0.46,0.26-1.18,0.45-1.62,0.45c-1.46,0-2.19-0.9-2.19-2.11v-3.56h-1.17v-0.15l2.5-2.45V260.6z"/>
					<path d="M236.9,266.94c-0.61,0.4-0.87,0.52-1.29,0.52c-0.58,0-0.9-0.21-1.02-0.69c-0.58,0.46-1.2,0.69-1.81,0.69
						c-0.99,0-1.65-0.78-1.65-1.65c0-1.33,1.21-1.74,2.29-2.13l1.18-0.42v-0.36c0-0.84-0.4-1.18-1.21-1.18
						c-0.73,0-1.48,0.34-2.13,1.11v-1.46c0.53-0.61,1.26-0.92,2.24-0.92c1.37,0,2.44,0.69,2.44,2.22v3.46
						c0,0.25,0.09,0.34,0.26,0.34c0.13,0,0.4-0.13,0.7-0.36V266.94z M234.6,264c-1.14,0.39-2.13,0.78-2.13,1.58
						c0,0.55,0.41,0.95,0.96,0.95c0.42,0,0.81-0.21,1.17-0.56V264z"/>
					<path d="M239.51,260.6v1.54h0.03c0.67-1.19,1.32-1.68,1.95-1.68c0.54,0,1.05,0.26,1.61,0.78l-0.71,1.16
						c-0.41-0.39-0.93-0.66-1.25-0.66c-0.92,0-1.63,0.92-1.63,2.07v3.52h-1.33v-6.73H239.51z"/>
				</g>
				<g class="st2">
					<path d="M28.56,287.33v-0.85c-0.55,0.6-1.33,0.99-1.99,0.99c-1.37,0-2.33-0.97-2.33-2.68v-4.18h1.33v4.27
						c0,0.95,0.46,1.49,1.38,1.49c0.6,0,1.17-0.33,1.6-0.95v-4.81h1.33v6.73H28.56z"/>
					<path d="M33.06,280.6v0.88c0.69-0.69,1.33-1.02,1.97-1.02c0.85,0,1.56,0.42,2.01,1.22c0.58-0.66,1.29-1.22,2.25-1.22
						c1.36,0,2.23,1.05,2.23,2.64v4.23h-1.33v-4.17c0-1.02-0.63-1.58-1.4-1.58c-0.44-0.01-1.02,0.36-1.5,0.86v4.89h-1.33v-4.18
						c0-1.09-0.56-1.56-1.21-1.56c-0.67,0-1.13,0.21-1.68,0.86v4.89h-1.33v-6.73H33.06z"/>
					<path d="M48.57,286.94c-0.61,0.4-0.87,0.52-1.29,0.52c-0.58,0-0.9-0.21-1.02-0.69c-0.58,0.46-1.2,0.69-1.81,0.69
						c-0.99,0-1.65-0.78-1.65-1.65c0-1.33,1.21-1.74,2.29-2.13l1.18-0.42v-0.36c0-0.84-0.4-1.18-1.21-1.18
						c-0.73,0-1.48,0.34-2.13,1.11v-1.46c0.52-0.61,1.26-0.92,2.23-0.92c1.37,0,2.44,0.69,2.44,2.22v3.46
						c0,0.25,0.09,0.34,0.26,0.34c0.13,0,0.4-0.13,0.7-0.36V286.94z M46.27,284c-1.14,0.39-2.13,0.78-2.13,1.58
						c0,0.55,0.41,0.95,0.96,0.95c0.42,0,0.81-0.21,1.17-0.56V284z"/>
				</g>
				<g class="st2">
				</g>
				<g class="st2">
					<path d="M61.07,282.35c-0.76-0.51-1.27-0.66-1.86-0.66c-1.21,0-2.05,0.92-2.05,2.28c0,1.39,0.9,2.23,2.28,2.23
						c0.57,0,1.11-0.15,1.79-0.45v1.32c-0.45,0.21-1.31,0.39-2.01,0.39c-2.01,0-3.42-1.39-3.42-3.38c0-2.22,1.29-3.63,3.33-3.63
						c0.78,0,1.31,0.18,1.95,0.47V282.35z"/>
					<path d="M67.91,286.94c-0.61,0.4-0.87,0.52-1.29,0.52c-0.58,0-0.9-0.21-1.02-0.69c-0.58,0.46-1.2,0.69-1.81,0.69
						c-0.99,0-1.65-0.78-1.65-1.65c0-1.33,1.21-1.74,2.29-2.13l1.18-0.42v-0.36c0-0.84-0.4-1.18-1.21-1.18
						c-0.73,0-1.48,0.34-2.13,1.11v-1.46c0.52-0.61,1.26-0.92,2.23-0.92c1.37,0,2.44,0.69,2.44,2.22v3.46
						c0,0.25,0.09,0.34,0.26,0.34c0.13,0,0.4-0.13,0.7-0.36V286.94z M65.62,284c-1.14,0.39-2.13,0.78-2.13,1.58
						c0,0.55,0.41,0.95,0.96,0.95c0.42,0,0.81-0.21,1.17-0.56V284z"/>
				</g>
				<g class="st2">
					<path d="M70.52,280.6v1.54h0.03c0.67-1.19,1.32-1.68,1.95-1.68c0.54,0,1.05,0.26,1.6,0.78l-0.7,1.16
						c-0.41-0.39-0.93-0.66-1.25-0.66c-0.92,0-1.63,0.92-1.63,2.07v3.52h-1.33v-6.73H70.52z"/>
				</g>
				<g class="st2">
					<path d="M76.9,280.6h2.13v1.2H76.9v3.45c0,0.79,0.57,1.02,0.96,1.02c0.48,0,0.98-0.16,1.52-0.49v1.24
						c-0.47,0.26-1.19,0.45-1.62,0.45c-1.46,0-2.19-0.9-2.19-2.11v-3.56h-1.17v-0.15l2.5-2.45V280.6z"/>
					<path d="M85.55,286.94c-0.61,0.4-0.87,0.52-1.29,0.52c-0.58,0-0.9-0.21-1.02-0.69c-0.58,0.46-1.2,0.69-1.81,0.69
						c-0.99,0-1.65-0.78-1.65-1.65c0-1.33,1.21-1.74,2.29-2.13l1.18-0.42v-0.36c0-0.84-0.4-1.18-1.21-1.18
						c-0.73,0-1.48,0.34-2.13,1.11v-1.46c0.52-0.61,1.26-0.92,2.23-0.92c1.37,0,2.44,0.69,2.44,2.22v3.46
						c0,0.25,0.09,0.34,0.26,0.34c0.13,0,0.4-0.13,0.7-0.36V286.94z M83.25,284c-1.14,0.39-2.13,0.78-2.13,1.58
						c0,0.55,0.41,0.95,0.96,0.95c0.42,0,0.81-0.21,1.17-0.56V284z"/>
				</g>
				<g class="st2">
				</g>
				<g class="st2">
					<path d="M98.92,287.33h-2.83c-2.01,0-3.27-1.37-3.27-3.52c0-1.95,1.39-3.35,3.36-3.35c0.45,0,0.87,0.08,1.41,0.27v-3.63h1.33
						V287.33z M97.59,281.92c-0.45-0.18-0.79-0.25-1.24-0.25c-1.29,0-2.16,0.93-2.16,2.34c0,1.26,0.51,2.21,2.06,2.21h1.35V281.92z"
						/>
					<path d="M106.38,286.67c-0.81,0.54-1.54,0.79-2.69,0.79c-2.1,0-3.27-1.72-3.27-3.58c0-2.04,1.29-3.42,3.15-3.42
						c1.79,0,2.93,1.22,2.93,3.71h-4.74c0.21,1.33,0.98,2.03,2.27,2.03c0.81,0,1.57-0.3,2.35-0.81V286.67z M105.18,283.28
						c-0.04-1.02-0.63-1.67-1.57-1.67c-1.02,0-1.64,0.6-1.81,1.67H105.18z"/>
				</g>
				<g class="st2">
				</g>
				<g class="st2">
					<path d="M123.99,287.33h-1.47v-7.96h-0.03l-3.15,3.96h-0.24l-3.15-3.96h-0.03v7.96h-1.47V277.1h1.38l3.39,4.2l3.4-4.2h1.37
						V287.33z"/>
					<path d="M131.24,286.94c-0.61,0.4-0.87,0.52-1.29,0.52c-0.58,0-0.9-0.21-1.02-0.69c-0.58,0.46-1.2,0.69-1.81,0.69
						c-0.99,0-1.65-0.78-1.65-1.65c0-1.33,1.21-1.74,2.29-2.13l1.18-0.42v-0.36c0-0.84-0.4-1.18-1.21-1.18
						c-0.73,0-1.48,0.34-2.13,1.11v-1.46c0.52-0.61,1.26-0.92,2.23-0.92c1.37,0,2.44,0.69,2.44,2.22v3.46
						c0,0.25,0.09,0.34,0.26,0.34c0.13,0,0.4-0.13,0.7-0.36V286.94z M128.94,284c-1.14,0.39-2.13,0.78-2.13,1.58
						c0,0.55,0.41,0.95,0.96,0.95c0.42,0,0.81-0.21,1.17-0.56V284z"/>
					<path d="M133.7,280.6v0.88c0.69-0.69,1.33-1.02,1.97-1.02c0.85,0,1.56,0.42,2.01,1.22c0.58-0.66,1.29-1.22,2.25-1.22
						c1.36,0,2.23,1.05,2.23,2.64v4.23h-1.33v-4.17c0-1.02-0.63-1.58-1.39-1.58c-0.44-0.01-1.02,0.36-1.5,0.86v4.89h-1.33v-4.18
						c0-1.09-0.55-1.56-1.22-1.56c-0.67,0-1.13,0.21-1.68,0.86v4.89h-1.33v-6.73H133.7z"/>
					<path d="M146.36,277.52l-1.68,2.21h-0.83l1-2.21H146.36z M145.35,287.33h-1.33v-6.73h1.33V287.33z"/>
				</g>
				<g class="st2">
					<path d="M150.76,278.41c-0.22-0.09-0.36-0.12-0.6-0.12c-1.08,0-1.42,0.63-1.42,1.67v0.65h1.21v1.2h-1.21v5.54h-1.33v-5.54
						h-0.95v-1.2h0.95v-0.5c0-1.32,0.31-1.95,0.85-2.49c0.57-0.57,1.33-0.84,2.5-0.51V278.41z"/>
				</g>
				<g class="st2">
					<path d="M156.5,286.67c-0.81,0.54-1.54,0.79-2.69,0.79c-2.1,0-3.27-1.72-3.27-3.58c0-2.04,1.29-3.42,3.15-3.42
						c1.79,0,2.93,1.22,2.93,3.71h-4.74c0.21,1.33,0.97,2.03,2.26,2.03c0.81,0,1.58-0.3,2.36-0.81V286.67z M155.3,283.28
						c-0.04-1.02-0.63-1.67-1.58-1.67c-1.02,0-1.63,0.6-1.81,1.67H155.3z"/>
				</g>
				<g class="st2">
					<path d="M159.48,280.6v1.54h0.03c0.67-1.19,1.32-1.68,1.95-1.68c0.54,0,1.05,0.26,1.6,0.78l-0.7,1.16
						c-0.41-0.39-0.93-0.66-1.25-0.66c-0.92,0-1.63,0.92-1.63,2.07v3.52h-1.33v-6.73H159.48z"/>
				</g>
				<g class="st2">
					<path d="M170.42,283.9c0,2.13-1.49,3.57-3.65,3.57c-2.07,0-3.55-1.5-3.55-3.57c0-1.94,1.54-3.44,3.55-3.44
						C168.89,280.46,170.42,281.9,170.42,283.9z M164.58,283.9c0,1.42,0.88,2.37,2.17,2.37c1.41,0,2.29-0.9,2.29-2.35
						c0-1.3-0.96-2.25-2.29-2.25C165.5,281.66,164.58,282.61,164.58,283.9z"/>
				</g>
				<g class="st2">
				</g>
				<g class="st2">
					<path d="M183.9,286.67c-0.81,0.54-1.54,0.79-2.68,0.79c-2.1,0-3.27-1.72-3.27-3.58c0-2.04,1.29-3.42,3.15-3.42
						c1.79,0,2.92,1.22,2.92,3.71h-4.74c0.21,1.33,0.98,2.03,2.27,2.03c0.81,0,1.57-0.3,2.35-0.81V286.67z M182.7,283.28
						c-0.04-1.02-0.63-1.67-1.57-1.67c-1.02,0-1.63,0.6-1.82,1.67H182.7z"/>
				</g>
				<g class="st2">
				</g>
				<g class="st2">
					<path d="M196.77,282.35c-0.76-0.51-1.27-0.66-1.86-0.66c-1.21,0-2.05,0.92-2.05,2.28c0,1.39,0.9,2.23,2.28,2.23
						c0.57,0,1.11-0.15,1.79-0.45v1.32c-0.45,0.21-1.3,0.39-2.01,0.39c-2.01,0-3.42-1.39-3.42-3.38c0-2.22,1.29-3.63,3.33-3.63
						c0.78,0,1.3,0.18,1.95,0.47V282.35z"/>
					<path d="M205.19,283.9c0,2.13-1.48,3.57-3.64,3.57c-2.07,0-3.55-1.5-3.55-3.57c0-1.94,1.54-3.44,3.55-3.44
						C203.66,280.46,205.19,281.9,205.19,283.9z M199.35,283.9c0,1.42,0.89,2.37,2.17,2.37c1.41,0,2.29-0.9,2.29-2.35
						c0-1.3-0.96-2.25-2.29-2.25C200.27,281.66,199.35,282.61,199.35,283.9z"/>
					<path d="M207.95,280.6v0.88c0.69-0.69,1.33-1.02,1.97-1.02c0.85,0,1.56,0.42,2.01,1.22c0.58-0.66,1.29-1.22,2.25-1.22
						c1.36,0,2.23,1.05,2.23,2.64v4.23h-1.33v-4.17c0-1.02-0.63-1.58-1.39-1.58c-0.44-0.01-1.02,0.36-1.5,0.86v4.89h-1.33v-4.18
						c0-1.09-0.56-1.56-1.21-1.56c-0.67,0-1.13,0.21-1.68,0.86v4.89h-1.33v-6.73H207.95z"/>
					<path d="M219.48,290.78h-1.33V280.6h2.31c2.46,0,3.79,1.2,3.79,3.42c0,2.02-1.42,3.45-3.42,3.45c-0.44,0-0.84-0.09-1.35-0.3
						V290.78z M219.48,285.96c0.41,0.2,0.84,0.3,1.26,0.3c1.25,0,2.15-0.96,2.15-2.26c0-1.39-0.74-2.21-2.19-2.21h-1.21V285.96z"/>
					<path d="M227.17,280.6v1.54h0.03c0.67-1.19,1.32-1.68,1.95-1.68c0.54,0,1.05,0.26,1.6,0.78l-0.7,1.16
						c-0.41-0.39-0.93-0.66-1.25-0.66c-0.92,0-1.63,0.92-1.63,2.07v3.52h-1.33v-6.73H227.17z"/>
					<path d="M236.9,286.94c-0.62,0.4-0.87,0.52-1.29,0.52c-0.58,0-0.9-0.21-1.02-0.69c-0.58,0.46-1.2,0.69-1.82,0.69
						c-0.99,0-1.65-0.78-1.65-1.65c0-1.33,1.21-1.74,2.29-2.13l1.18-0.42v-0.36c0-0.84-0.41-1.18-1.21-1.18
						c-0.74,0-1.49,0.34-2.13,1.11v-1.46c0.52-0.61,1.26-0.92,2.23-0.92c1.37,0,2.45,0.69,2.45,2.22v3.46
						c0,0.25,0.09,0.34,0.25,0.34c0.13,0,0.41-0.13,0.71-0.36V286.94z M234.6,284c-1.14,0.39-2.13,0.78-2.13,1.58
						c0,0.55,0.41,0.95,0.96,0.95c0.42,0,0.81-0.21,1.17-0.56V284z"/>
					<path d="M239.51,280.6v1.54h0.03c0.67-1.19,1.32-1.68,1.95-1.68c0.54,0,1.05,0.26,1.6,0.78l-0.7,1.16
						c-0.41-0.39-0.93-0.66-1.25-0.66c-0.92,0-1.63,0.92-1.63,2.07v3.52h-1.33v-6.73H239.51z"/>
				</g>
				<g class="st2">
					<path d="M42.75,307.33v-0.85c-0.55,0.6-1.33,0.99-2,0.99c-1.37,0-2.33-0.97-2.33-2.68v-4.18h1.33v4.27
						c0,0.95,0.46,1.49,1.38,1.49c0.6,0,1.17-0.33,1.61-0.95v-4.81h1.33v6.73H42.75z"/>
					<path d="M47.25,300.6v0.88c0.69-0.69,1.33-1.02,1.96-1.02c0.86,0,1.56,0.42,2.01,1.22c0.58-0.66,1.29-1.22,2.25-1.22
						c1.37,0,2.24,1.05,2.24,2.64v4.23h-1.33v-4.17c0-1.02-0.63-1.58-1.4-1.58c-0.43-0.01-1.02,0.36-1.5,0.86v4.89h-1.33v-4.18
						c0-1.09-0.55-1.56-1.21-1.56c-0.67,0-1.13,0.21-1.68,0.86v4.89h-1.33v-6.73H47.25z"/>
					<path d="M62.76,306.94c-0.62,0.4-0.87,0.52-1.29,0.52c-0.58,0-0.9-0.21-1.02-0.69c-0.58,0.46-1.2,0.69-1.82,0.69
						c-0.99,0-1.65-0.78-1.65-1.65c0-1.33,1.21-1.74,2.29-2.13l1.18-0.42v-0.36c0-0.84-0.41-1.18-1.21-1.18
						c-0.74,0-1.49,0.34-2.13,1.11v-1.46c0.52-0.61,1.26-0.92,2.23-0.92c1.37,0,2.45,0.69,2.45,2.22v3.46
						c0,0.25,0.09,0.34,0.25,0.34c0.13,0,0.41-0.13,0.71-0.36V306.94z M60.46,304c-1.14,0.39-2.13,0.78-2.13,1.58
						c0,0.55,0.41,0.95,0.96,0.95c0.42,0,0.81-0.21,1.17-0.56V304z"/>
					<path d="M69.42,301.48h0.03c0.51-0.65,1.26-1.02,2.01-1.02c1.27,0,2.29,0.87,2.29,2.71v4.16h-1.33v-4.17
						c0-0.99-0.51-1.63-1.32-1.63c-0.58,0-1.05,0.27-1.68,0.97v4.83h-1.33v-6.73h1.33V301.48z"/>
				</g>
				<g class="st2">
					<path d="M82.41,303.9c0,2.13-1.48,3.57-3.65,3.57c-2.07,0-3.55-1.5-3.55-3.57c0-1.94,1.54-3.44,3.55-3.44
						C80.88,300.46,82.41,301.9,82.41,303.9z M76.57,303.9c0,1.42,0.89,2.37,2.18,2.37c1.41,0,2.29-0.9,2.29-2.35
						c0-1.3-0.96-2.25-2.29-2.25C77.49,301.66,76.57,302.61,76.57,303.9z"/>
				</g>
				<g class="st2">
					<path d="M82.84,300.6h1.46l1.81,4.14l1.77-4.14h1.42l-2.97,6.87h-0.45L82.84,300.6z"/>
					<path d="M95.53,306.94c-0.61,0.4-0.87,0.52-1.29,0.52c-0.58,0-0.9-0.21-1.02-0.69c-0.58,0.46-1.2,0.69-1.81,0.69
						c-0.99,0-1.65-0.78-1.65-1.65c0-1.33,1.21-1.74,2.29-2.13l1.18-0.42v-0.36c0-0.84-0.4-1.18-1.21-1.18
						c-0.73,0-1.48,0.34-2.13,1.11v-1.46c0.52-0.61,1.26-0.92,2.23-0.92c1.37,0,2.44,0.69,2.44,2.22v3.46
						c0,0.25,0.09,0.34,0.26,0.34c0.13,0,0.4-0.13,0.7-0.36V306.94z M93.24,304c-1.14,0.39-2.13,0.78-2.13,1.58
						c0,0.55,0.41,0.95,0.96,0.95c0.42,0,0.81-0.21,1.17-0.56V304z"/>
					<path d="M104.8,302.33c-0.75-0.5-1.46-0.71-1.95-0.71c-0.54,0-0.88,0.26-0.88,0.62c0,0.3,0.45,0.66,1.63,1.35
						c1.11,0.73,1.52,1.2,1.52,1.89c0,1.18-0.94,1.98-2.22,1.98c-0.83,0-1.47-0.17-2.34-0.62v-1.44c0.87,0.6,1.67,0.88,2.21,0.88
						c0.54-0.03,0.99-0.29,0.99-0.76c0-0.93-3.15-1.42-3.15-3.24c0-1.14,0.87-1.83,2.22-1.83c0.63,0,1.27,0.18,1.98,0.56V302.33z"/>
					<path d="M112.29,306.67c-0.81,0.54-1.54,0.79-2.69,0.79c-2.1,0-3.27-1.72-3.27-3.58c0-2.04,1.29-3.42,3.15-3.42
						c1.79,0,2.93,1.22,2.93,3.71h-4.74c0.21,1.33,0.98,2.03,2.27,2.03c0.81,0,1.57-0.3,2.35-0.81V306.67z M111.09,303.28
						c-0.04-1.02-0.63-1.67-1.57-1.67c-1.02,0-1.64,0.6-1.81,1.67H111.09z"/>
					<path d="M115.12,300.6v0.88c0.69-0.69,1.33-1.02,1.97-1.02c0.85,0,1.56,0.42,2.01,1.22c0.58-0.66,1.29-1.22,2.25-1.22
						c1.36,0,2.23,1.05,2.23,2.64v4.23h-1.33v-4.17c0-1.02-0.63-1.58-1.4-1.58c-0.44-0.01-1.02,0.36-1.5,0.86v4.89h-1.33v-4.18
						c0-1.09-0.56-1.56-1.21-1.56c-0.67,0-1.13,0.21-1.68,0.86v4.89h-1.33v-6.73H115.12z"/>
					<path d="M134.95,301.63h-1.38c0.53,0.53,0.71,0.9,0.71,1.47c0,0.55-0.31,1.2-0.63,1.51c-0.9,0.96-2.73,0.48-2.73,1.28
						c0,0.37,0.71,0.6,2.06,0.87c1.44,0.29,1.95,1.02,1.95,1.88c0,1.33-1.19,2.15-3.18,2.15c-1.81,0-3.1-0.86-3.1-2.04
						c0-0.99,0.52-1.58,1.69-1.86c-0.46-0.29-0.67-0.55-0.67-0.85c0-0.44,0.42-0.81,1.06-0.96v-0.03c-0.5-0.21-0.87-0.5-1.13-0.85
						c-0.24-0.35-0.36-0.77-0.36-1.26c0-1.44,1.13-2.32,2.94-2.32h2.77V301.63z M131.43,307.66c-0.9,0-1.53,0.42-1.53,1.02
						c0,0.68,0.66,1.04,1.88,1.04c1.17,0,1.86-0.36,1.86-0.97C133.63,307.88,132.25,307.66,131.43,307.66z M131.77,301.75
						c-0.73,0-1.33,0.56-1.33,1.21c0,0.74,0.54,1.23,1.35,1.23c0.75,0,1.29-0.53,1.29-1.26
						C133.08,302.29,132.48,301.75,131.77,301.75z"/>
					<path d="M141.21,306.94c-0.62,0.4-0.87,0.52-1.29,0.52c-0.58,0-0.9-0.21-1.02-0.69c-0.58,0.46-1.2,0.69-1.82,0.69
						c-0.99,0-1.65-0.78-1.65-1.65c0-1.33,1.22-1.74,2.3-2.13l1.18-0.42v-0.36c0-0.84-0.41-1.18-1.21-1.18
						c-0.74,0-1.49,0.34-2.13,1.11v-1.46c0.52-0.61,1.26-0.92,2.23-0.92c1.37,0,2.45,0.69,2.45,2.22v3.46
						c0,0.25,0.09,0.34,0.25,0.34c0.13,0,0.41-0.13,0.71-0.36V306.94z M138.91,304c-1.14,0.39-2.13,0.78-2.13,1.58
						c0,0.55,0.41,0.95,0.96,0.95c0.42,0,0.81-0.21,1.17-0.56V304z"/>
					<path d="M146.31,302.33c-0.75-0.5-1.46-0.71-1.95-0.71c-0.54,0-0.88,0.26-0.88,0.62c0,0.3,0.45,0.66,1.63,1.35
						c1.11,0.73,1.52,1.2,1.52,1.89c0,1.18-0.95,1.98-2.22,1.98c-0.83,0-1.47-0.17-2.34-0.62v-1.44c0.87,0.6,1.67,0.88,2.21,0.88
						c0.54-0.03,0.99-0.29,0.99-0.76c0-0.93-3.15-1.42-3.15-3.24c0-1.14,0.87-1.83,2.22-1.83c0.63,0,1.27,0.18,1.98,0.56V302.33z"/>
					<path d="M149.73,300.6h2.13v1.2h-2.13v3.45c0,0.79,0.57,1.02,0.96,1.02c0.48,0,0.98-0.16,1.52-0.49v1.24
						c-0.47,0.26-1.19,0.45-1.62,0.45c-1.46,0-2.19-0.9-2.19-2.11v-3.56h-1.17v-0.15l2.5-2.45V300.6z"/>
					<path d="M158.38,306.94c-0.62,0.4-0.87,0.52-1.29,0.52c-0.58,0-0.9-0.21-1.02-0.69c-0.58,0.46-1.2,0.69-1.82,0.69
						c-0.99,0-1.65-0.78-1.65-1.65c0-1.33,1.21-1.74,2.29-2.13l1.18-0.42v-0.36c0-0.84-0.41-1.18-1.21-1.18
						c-0.74,0-1.49,0.34-2.13,1.11v-1.46c0.52-0.61,1.26-0.92,2.23-0.92c1.37,0,2.45,0.69,2.45,2.22v3.46
						c0,0.25,0.09,0.34,0.25,0.34c0.13,0,0.41-0.13,0.71-0.36V306.94z M156.09,304c-1.14,0.39-2.13,0.78-2.13,1.58
						c0,0.55,0.41,0.95,0.96,0.95c0.42,0,0.81-0.21,1.17-0.56V304z"/>
					<path d="M160.99,300.6v1.54h0.03c0.67-1.19,1.32-1.68,1.95-1.68c0.54,0,1.05,0.26,1.6,0.78l-0.7,1.16
						c-0.41-0.39-0.93-0.66-1.25-0.66c-0.92,0-1.63,0.92-1.63,2.07v3.52h-1.33v-6.73H160.99z"/>
					<path d="M173.59,302.33c-0.75-0.5-1.46-0.71-1.95-0.71c-0.54,0-0.88,0.26-0.88,0.62c0,0.3,0.45,0.66,1.63,1.35
						c1.11,0.73,1.51,1.2,1.51,1.89c0,1.18-0.94,1.98-2.22,1.98c-0.83,0-1.47-0.17-2.34-0.62v-1.44c0.87,0.6,1.67,0.88,2.21,0.88
						c0.54-0.03,0.99-0.29,0.99-0.76c0-0.93-3.15-1.42-3.15-3.24c0-1.14,0.87-1.83,2.22-1.83c0.63,0,1.28,0.18,1.98,0.56V302.33z"/>
					<path d="M181.08,306.67c-0.81,0.54-1.54,0.79-2.68,0.79c-2.1,0-3.27-1.72-3.27-3.58c0-2.04,1.29-3.42,3.15-3.42
						c1.79,0,2.92,1.22,2.92,3.71h-4.74c0.21,1.33,0.98,2.03,2.27,2.03c0.81,0,1.57-0.3,2.35-0.81V306.67z M179.88,303.28
						c-0.04-1.02-0.63-1.67-1.57-1.67c-1.02,0-1.64,0.6-1.82,1.67H179.88z"/>
					<path d="M186.91,307.33v-0.85c-0.55,0.6-1.33,0.99-2,0.99c-1.37,0-2.33-0.97-2.33-2.68v-4.18h1.33v4.27
						c0,0.95,0.46,1.49,1.38,1.49c0.6,0,1.17-0.33,1.61-0.95v-4.81h1.33v6.73H186.91z"/>
					<path d="M195.87,300.6H198v1.2h-2.13v3.45c0,0.79,0.57,1.02,0.96,1.02c0.48,0,0.97-0.16,1.51-0.49v1.24
						c-0.46,0.26-1.18,0.45-1.62,0.45c-1.46,0-2.19-0.9-2.19-2.11v-3.56h-1.17v-0.15l2.5-2.45V300.6z"/>
					<path d="M203.58,307.33v-0.85c-0.55,0.6-1.33,0.99-2,0.99c-1.37,0-2.33-0.97-2.33-2.68v-4.18h1.33v4.27
						c0,0.95,0.46,1.49,1.38,1.49c0.6,0,1.17-0.33,1.61-0.95v-4.81h1.33v6.73H203.58z"/>
					<path d="M208.23,300.6v1.54h0.03c0.67-1.19,1.32-1.68,1.95-1.68c0.54,0,1.05,0.26,1.6,0.78l-0.7,1.16
						c-0.41-0.39-0.93-0.66-1.25-0.66c-0.92,0-1.63,0.92-1.63,2.07v3.52h-1.33v-6.73H208.23z"/>
					<path d="M214.05,301.48h0.03c0.51-0.65,1.26-1.02,2.01-1.02c1.28,0,2.29,0.87,2.29,2.71v4.16h-1.33v-4.17
						c0-0.99-0.51-1.63-1.32-1.63c-0.58,0-1.05,0.27-1.68,0.97v4.83h-1.33v-6.73h1.33V301.48z"/>
				</g>
				<g class="st2">
					<path d="M227,303.9c0,2.13-1.49,3.57-3.65,3.57c-2.07,0-3.55-1.5-3.55-3.57c0-1.94,1.54-3.44,3.55-3.44
						C225.47,300.46,227,301.9,227,303.9z M221.17,303.9c0,1.42,0.88,2.37,2.17,2.37c1.41,0,2.29-0.9,2.29-2.35
						c0-1.3-0.96-2.25-2.29-2.25C222.08,301.66,221.17,302.61,221.17,303.9z"/>
				</g>
				<g class="st2">
					<path d="M229.63,306.57c0,0.5-0.41,0.9-0.9,0.9c-0.49,0-0.9-0.4-0.9-0.9s0.41-0.9,0.9-0.9
						C229.22,305.67,229.63,306.07,229.63,306.57z"/>
				</g>
				<g class="st2">
					<path d="M29.18,320.12h-3.27l-0.36,2.57h2.89l-0.13,0.97h-2.9l-0.4,2.7h4.31l-0.14,0.97H23.8l1.19-8.18h4.33L29.18,320.12z"/>
					<path d="M33.33,323.41c-0.61-0.47-1.18-0.71-1.62-0.71c-0.42,0-0.73,0.25-0.73,0.56c0,0.77,2.15,1.14,2.15,2.63
						c0,0.97-0.72,1.61-1.67,1.61c-0.67,0-1.1-0.17-1.87-0.71l0.18-0.98c0.71,0.56,1.22,0.8,1.65,0.8c0.41,0,0.7-0.25,0.7-0.6
						c0-0.9-2.11-1.22-2.11-2.69c0-0.92,0.66-1.55,1.69-1.55c0.56,0,1.13,0.22,1.63,0.56V323.41z"/>
					<path d="M37.58,323.41c-0.61-0.47-1.18-0.71-1.62-0.71c-0.42,0-0.73,0.25-0.73,0.56c0,0.77,2.15,1.14,2.15,2.63
						c0,0.97-0.72,1.61-1.67,1.61c-0.67,0-1.1-0.17-1.87-0.71l0.18-0.98c0.71,0.56,1.22,0.8,1.65,0.8c0.41,0,0.7-0.25,0.7-0.6
						c0-0.9-2.11-1.22-2.11-2.69c0-0.92,0.66-1.55,1.69-1.55c0.56,0,1.13,0.22,1.63,0.56V323.41z"/>
					<path d="M42.46,326.9c-0.54,0.4-1.15,0.6-1.8,0.6c-1.37,0-2.25-1.03-2.25-2.6c0-1.76,1.12-3.12,2.55-3.12
						c1.2,0,2.1,1.12,1.87,2.76h-3.36c-0.25,1.44,0.54,2.12,1.38,2.12c0.5,0,1.08-0.24,1.75-0.73L42.46,326.9z M41.89,323.83
						c0-0.68-0.3-1.21-0.97-1.21c-0.6,0-1.01,0.4-1.28,1.21H41.89z"/>
				</g>
				<g class="st2">
				</g>
				<g class="st2">
					<path d="M53.46,326.9c-0.54,0.4-1.15,0.6-1.8,0.6c-1.37,0-2.25-1.03-2.25-2.6c0-1.76,1.12-3.12,2.55-3.12
						c1.2,0,2.1,1.12,1.87,2.76h-3.36c-0.25,1.44,0.54,2.12,1.38,2.12c0.5,0,1.08-0.24,1.75-0.73L53.46,326.9z M52.88,323.83
						c0-0.68-0.3-1.21-0.97-1.21c-0.6,0-1.01,0.4-1.28,1.21H52.88z"/>
				</g>
				<g class="st2">
					<path d="M57.52,322.84h-1.09l-0.86,6.75h-1l0.86-6.75h-0.86l0.13-0.9h0.85c0.11-1.63,0.9-2.9,2.59-2.9
						c0.46,0,0.86,0.1,1.31,0.25l-0.14,1.01c-0.35-0.19-0.74-0.3-1.06-0.3c-1,0-1.58,0.68-1.69,1.94h1.09L57.52,322.84z"/>
				</g>
				<g class="st2">
					<path d="M61.79,326.9c-0.54,0.4-1.15,0.6-1.8,0.6c-1.37,0-2.25-1.03-2.25-2.6c0-1.76,1.12-3.12,2.55-3.12
						c1.2,0,2.1,1.12,1.87,2.76H58.8c-0.25,1.44,0.54,2.12,1.38,2.12c0.5,0,1.08-0.24,1.75-0.73L61.79,326.9z M61.21,323.83
						c0-0.68-0.3-1.21-0.97-1.21c-0.6,0-1.01,0.4-1.28,1.21H61.21z"/>
					<path d="M63.83,327.33h-1.02l0.76-5.38h1.02L63.83,327.33z M64.85,320.25c0,0.32-0.26,0.59-0.59,0.59
						c-0.32,0-0.59-0.26-0.59-0.59s0.26-0.59,0.59-0.59C64.59,319.67,64.85,319.93,64.85,320.25z"/>
					<path d="M68.1,322.74h-1.08l-0.52,2.95c-0.12,0.68,0.04,0.9,0.53,0.9c0.3,0,0.54-0.07,0.98-0.32l-0.06,1
						c-0.43,0.18-0.72,0.24-1.12,0.24c-1.06,0-1.55-0.67-1.4-1.5l0.56-3.26h-0.95l0.12-0.79h0.98l0.2-1.1h1.01l-0.19,1.1h1.03
						L68.1,322.74z"/>
					<path d="M70.62,327.5c-1.27,0-2.03-0.9-2.03-2.41c0-1.88,1.12-3.31,2.58-3.31c1.22,0,2,0.94,2,2.35
						C73.18,326.14,72.04,327.5,70.62,327.5z M70.59,326.62c0.85,0,1.55-1.07,1.55-2.55c0-0.9-0.37-1.49-0.96-1.49
						c-0.88,0-1.54,1.25-1.54,2.61C69.64,326.06,70.06,326.62,70.59,326.62z"/>
				</g>
				<g class="st2">
				</g>
				<g class="st2">
					<path d="M81.59,321.95c0.16-0.06,0.3-0.11,0.44-0.13c0.14-0.02,0.3-0.04,0.47-0.04c1.27,0,2.23,1.07,2.23,2.51
						c0,1.35-0.91,3.21-3.25,3.21h-0.67l-0.36,2.59h-1.02l0.96-6.81c-0.54,0.4-0.8,0.98-0.9,0.98c-0.04,0-0.05-0.02-0.05-0.07
						c0-0.37,0.49-1.2,1.04-1.63l0.28-1.98h1.02L81.59,321.95z M80.94,326.63h0.49c1.57,0,2.27-1.3,2.27-2.35
						c0-1.21-0.75-1.74-1.54-1.74c-0.26,0-0.38,0.02-0.67,0.16L80.94,326.63z"/>
					<path d="M87.62,327.5c-1.27,0-2.03-0.9-2.03-2.41c0-1.88,1.12-3.31,2.58-3.31c1.22,0,2,0.94,2,2.35
						C90.17,326.14,89.03,327.5,87.62,327.5z M87.58,326.62c0.85,0,1.55-1.07,1.55-2.55c0-0.9-0.37-1.49-0.96-1.49
						c-0.88,0-1.54,1.25-1.54,2.61C86.63,326.06,87.05,326.62,87.58,326.62z"/>
					<path d="M95.12,327.33c-0.43,0.12-0.85,0.17-1.38,0.17c-1.81,0-2.83-0.89-2.83-2.5c0-1.15,0.97-3.23,3.54-3.23h0.43l0.37-2.63
						h1.02L95.12,327.33z M94.76,322.63h-0.26c-1.67,0-2.54,1.2-2.54,2.35c0,1.07,0.64,1.68,1.79,1.68c0.16,0,0.3,0,0.47-0.02
						L94.76,322.63z"/>
					<path d="M100.67,326.9c-0.54,0.4-1.15,0.6-1.8,0.6c-1.37,0-2.25-1.03-2.25-2.6c0-1.76,1.12-3.12,2.55-3.12
						c1.2,0,2.1,1.12,1.87,2.76h-3.36c-0.25,1.44,0.54,2.12,1.38,2.12c0.5,0,1.08-0.24,1.75-0.73L100.67,326.9z M100.1,323.83
						c0-0.68-0.3-1.21-0.97-1.21c-0.6,0-1.01,0.4-1.28,1.21H100.1z"/>
				</g>
				<g class="st2">
				</g>
				<g class="st2">
					<path d="M111.04,323.41c-0.61-0.47-1.18-0.71-1.62-0.71c-0.42,0-0.73,0.25-0.73,0.56c0,0.77,2.15,1.14,2.15,2.63
						c0,0.97-0.72,1.61-1.67,1.61c-0.67,0-1.1-0.17-1.87-0.71l0.18-0.98c0.71,0.56,1.22,0.8,1.65,0.8c0.41,0,0.7-0.25,0.7-0.6
						c0-0.9-2.11-1.22-2.11-2.69c0-0.92,0.66-1.55,1.69-1.55c0.56,0,1.13,0.22,1.63,0.56V323.41z"/>
					<path d="M115.93,326.9c-0.54,0.4-1.15,0.6-1.8,0.6c-1.37,0-2.25-1.03-2.25-2.6c0-1.76,1.12-3.12,2.55-3.12
						c1.2,0,2.1,1.12,1.87,2.76h-3.36c-0.25,1.44,0.54,2.12,1.38,2.12c0.5,0,1.08-0.24,1.75-0.73L115.93,326.9z M115.35,323.83
						c0-0.68-0.3-1.21-0.97-1.21c-0.6,0-1.01,0.4-1.28,1.21H115.35z"/>
					<path d="M118.74,322.96l0.02,0.02c0.64-0.91,0.91-1.13,1.43-1.13c0.16,0,0.26,0.01,0.44,0.08v1.15
						c-0.24-0.13-0.41-0.18-0.62-0.18c-0.53,0-0.89,0.32-1.45,1.38l-0.42,3.03h-1.02l0.76-5.38h1.02L118.74,322.96z"/>
				</g>
				<g class="st2">
				</g>
				<g class="st2">
					<path d="M130.63,327.33h-1.01l0.12-0.89l-0.02-0.02c-0.42,0.44-1.04,1-1.77,1c-0.6,0-1.48-0.43-1.27-1.92l0.5-3.55h1.02
						l-0.5,3.55c-0.13,0.96,0.3,1.14,0.58,1.14c0.4,0,0.89-0.31,1.62-1.19l0.49-3.5h1.02L130.63,327.33z"/>
					<path d="M135.11,322.74h-1.08l-0.52,2.95c-0.12,0.68,0.04,0.9,0.53,0.9c0.3,0,0.54-0.07,0.98-0.32l-0.06,1
						c-0.43,0.18-0.72,0.24-1.12,0.24c-1.06,0-1.55-0.67-1.4-1.5l0.56-3.26h-0.95l0.12-0.79h0.98l0.2-1.1h1.01l-0.19,1.1h1.03
						L135.11,322.74z"/>
					<path d="M136.47,327.33h-1.02l0.76-5.38h1.02L136.47,327.33z M137.49,320.25c0,0.32-0.26,0.59-0.59,0.59
						c-0.32,0-0.59-0.26-0.59-0.59s0.26-0.59,0.59-0.59C137.22,319.67,137.49,319.93,137.49,320.25z"/>
					<path d="M138.72,327.33h-1.02l1.15-8.18h1.02L138.72,327.33z"/>
					<path d="M140.98,327.33h-1.02l0.75-5.38h1.02L140.98,327.33z M142,320.25c0,0.32-0.26,0.59-0.59,0.59
						c-0.32,0-0.59-0.26-0.59-0.59s0.26-0.59,0.59-0.59C141.73,319.67,142,319.93,142,320.25z"/>
					<path d="M143.72,326.43h3.13l-0.19,0.9h-4.88l3.51-4.49h-2.72l0.12-0.9h4.61L143.72,326.43z"/>
					<path d="M152.03,327.33h-1.02l0.1-0.62l-0.02-0.02c-0.42,0.46-0.94,0.76-1.45,0.76c-1,0-1.77-0.96-1.77-2.14
						c0-1.71,1.03-3.53,3.66-3.53c0.38,0,0.97,0.07,1.27,0.17L152.03,327.33z M151.67,322.67c-2.33-0.19-2.77,1.74-2.77,2.46
						c0,0.86,0.44,1.48,1.07,1.48c0.41,0,0.95-0.41,1.26-0.83L151.67,322.67z"/>
					<path d="M157.64,327.33c-0.43,0.12-0.85,0.17-1.38,0.17c-1.81,0-2.83-0.89-2.83-2.5c0-1.15,0.97-3.23,3.54-3.23h0.43l0.37-2.63
						h1.02L157.64,327.33z M157.28,322.63h-0.26c-1.67,0-2.54,1.2-2.54,2.35c0,1.07,0.64,1.68,1.79,1.68c0.16,0,0.3,0,0.47-0.02
						L157.28,322.63z"/>
					<path d="M161.15,327.5c-1.27,0-2.03-0.9-2.03-2.41c0-1.88,1.12-3.31,2.58-3.31c1.22,0,2,0.94,2,2.35
						C163.7,326.14,162.56,327.5,161.15,327.5z M161.11,326.62c0.85,0,1.55-1.07,1.55-2.55c0-0.9-0.37-1.49-0.96-1.49
						c-0.88,0-1.54,1.25-1.54,2.61C160.16,326.06,160.58,326.62,161.11,326.62z"/>
				</g>
				<g class="st2">
				</g>
				<g class="st2">
					<path d="M174.41,327.33h-1.02l0.1-0.62l-0.02-0.02c-0.42,0.46-0.94,0.76-1.45,0.76c-1,0-1.77-0.96-1.77-2.14
						c0-1.71,1.03-3.53,3.66-3.53c0.38,0,0.97,0.07,1.27,0.17L174.41,327.33z M174.05,322.67c-2.33-0.19-2.77,1.74-2.77,2.46
						c0,0.86,0.44,1.48,1.07,1.48c0.41,0,0.95-0.41,1.26-0.83L174.05,322.67z"/>
					<path d="M178.76,322.74h-1.08l-0.52,2.95c-0.12,0.68,0.04,0.9,0.53,0.9c0.3,0,0.54-0.07,0.98-0.32l-0.06,1
						c-0.43,0.18-0.72,0.24-1.12,0.24c-1.06,0-1.55-0.67-1.4-1.5l0.56-3.26h-0.95l0.12-0.79h0.98l0.2-1.1h1.01l-0.19,1.1h1.03
						L178.76,322.74z"/>
					<path d="M183.33,326.9c-0.54,0.4-1.15,0.6-1.8,0.6c-1.37,0-2.25-1.03-2.25-2.6c0-1.76,1.12-3.12,2.55-3.12
						c1.2,0,2.1,1.12,1.87,2.76h-3.36c-0.25,1.44,0.54,2.12,1.38,2.12c0.5,0,1.08-0.24,1.75-0.73L183.33,326.9z M182.75,323.83
						c0-0.68-0.3-1.21-0.97-1.21c-0.6,0-1.01,0.4-1.28,1.21H182.75z M183.38,319.29l-1.36,1.75h-0.67l0.82-1.75H183.38z"/>
				</g>
				<g class="st2">
				</g>
				<g class="st2">
					<path d="M191.51,319.4c0.55-0.24,1.13-0.36,1.69-0.36c1.33,0,2.19,0.84,2.19,2.12c0,0.9-0.55,1.57-1.59,1.96
						c0.73,0.31,1.1,0.92,1.1,1.85c0,0.92-0.7,2.47-2.84,2.47c-0.76,0-1.44-0.22-1.97-0.46l0.14-0.97c0.54,0.26,1.04,0.46,1.78,0.46
						c1.06,0,1.76-0.6,1.76-1.5c0-1-0.83-1.43-1.49-1.37l0.13-0.97c1.26-0.08,1.85-0.82,1.85-1.45c0-0.7-0.5-1.16-1.28-1.16
						c-0.54,0-1.14,0.19-1.63,0.52L191.51,319.4z"/>
				</g>
				<g class="st2">
				</g>
				<g class="st2">
					<path d="M203.97,327.44h-0.5l-1.22-5.49h1.01l0.71,3.42h0.02l1.73-3.42h1.03L203.97,327.44z"/>
					<path d="M210.82,326.9c-0.54,0.4-1.15,0.6-1.8,0.6c-1.37,0-2.25-1.03-2.25-2.6c0-1.76,1.12-3.12,2.55-3.12
						c1.2,0,2.1,1.12,1.87,2.76h-3.36c-0.25,1.44,0.54,2.12,1.38,2.12c0.5,0,1.08-0.24,1.75-0.73L210.82,326.9z M210.24,323.83
						c0-0.68-0.3-1.21-0.97-1.21c-0.6,0-1.01,0.4-1.28,1.21H210.24z"/>
				</g>
				<g class="st2">
					<path d="M213.35,326.43h3.13l-0.19,0.9h-4.88l3.51-4.49h-2.72l0.12-0.9h4.61L213.35,326.43z"/>
				</g>
				<g class="st2">
					<path d="M221.33,326.9c-0.54,0.4-1.15,0.6-1.8,0.6c-1.37,0-2.25-1.03-2.25-2.6c0-1.76,1.12-3.12,2.55-3.12
						c1.2,0,2.1,1.12,1.87,2.76h-3.36c-0.25,1.44,0.54,2.12,1.38,2.12c0.5,0,1.08-0.24,1.75-0.73L221.33,326.9z M220.75,323.83
						c0-0.68-0.3-1.21-0.97-1.21c-0.6,0-1.01,0.4-1.28,1.21H220.75z"/>
					<path d="M225.95,323.41c-0.61-0.47-1.18-0.71-1.62-0.71c-0.42,0-0.73,0.25-0.73,0.56c0,0.77,2.15,1.14,2.15,2.63
						c0,0.97-0.72,1.61-1.67,1.61c-0.67,0-1.1-0.17-1.87-0.71l0.18-0.98c0.71,0.56,1.22,0.8,1.66,0.8c0.41,0,0.7-0.25,0.7-0.6
						c0-0.9-2.11-1.22-2.11-2.69c0-0.92,0.66-1.55,1.69-1.55c0.56,0,1.13,0.22,1.63,0.56V323.41z"/>
				</g>
				<g class="st2">
				</g>
				<g class="st2">
					<path d="M236.66,327.33h-1.02l0.1-0.62l-0.02-0.02c-0.42,0.46-0.94,0.76-1.45,0.76c-1,0-1.77-0.96-1.77-2.14
						c0-1.71,1.03-3.53,3.66-3.53c0.38,0,0.97,0.07,1.27,0.17L236.66,327.33z M236.3,322.67c-2.33-0.19-2.77,1.74-2.77,2.46
						c0,0.86,0.44,1.48,1.07,1.48c0.41,0,0.95-0.41,1.26-0.83L236.3,322.67z"/>
					<path d="M240.16,327.5c-1.27,0-2.03-0.9-2.03-2.41c0-1.88,1.12-3.31,2.58-3.31c1.22,0,2,0.94,2,2.35
						C242.71,326.14,241.57,327.5,240.16,327.5z M240.12,326.62c0.85,0,1.55-1.07,1.55-2.55c0-0.9-0.37-1.49-0.96-1.49
						c-0.88,0-1.54,1.25-1.54,2.61C239.17,326.06,239.59,326.62,240.12,326.62z"/>
				</g>
				<g class="st2">
					<path d="M104.31,347.33h-1.02l1.15-8.18h1.02L104.31,347.33z"/>
					<path d="M107.72,347.5c-1.27,0-2.03-0.9-2.03-2.41c0-1.88,1.12-3.31,2.58-3.31c1.22,0,2,0.94,2,2.35
						C110.28,346.14,109.14,347.5,107.72,347.5z M107.69,346.62c0.85,0,1.55-1.07,1.55-2.55c0-0.9-0.37-1.49-0.96-1.49
						c-0.88,0-1.54,1.25-1.54,2.61C106.74,346.06,107.16,346.62,107.69,346.62z"/>
					<path d="M112.64,342.89l0.02,0.02c0.59-0.72,1.19-1.05,1.79-1.05c1.14,0,1.43,1.19,1.28,2.07l-0.52,3.39h-1.01l0.49-3.43
						c0.13-0.94-0.28-1.2-0.59-1.2c-0.29,0-0.85,0.2-1.62,1.2l-0.49,3.43H111l0.75-5.38h1.02L112.64,342.89z"/>
				</g>
				<g class="st2">
					<path d="M121.5,342.74h-1.04c0.28,0.4,0.36,0.7,0.36,1.07c0,0.9-0.43,1.61-1.26,1.96c-0.64,0.26-1.83,0.2-1.83,0.72
						c0,0.67,2.95,0.29,2.95,2.08c0,0.89-0.92,1.54-2.19,1.54c-1.36,0-2.34-0.59-2.34-1.39c0-0.64,0.73-0.92,1.55-1.09v-0.02
						c-0.67-0.25-0.94-0.53-0.94-0.95c0-0.44,0.46-0.83,1.07-1c-0.64-0.3-0.97-0.84-0.97-1.55c0-1.24,0.91-2.15,2-2.15h2.76
						L121.5,342.74z M118.5,347.88c-0.7,0.13-1.39,0.43-1.39,0.79c0,0.4,0.55,0.65,1.45,0.65c0.7,0,1.14-0.28,1.14-0.67
						C119.7,348.31,119.14,348.03,118.5,347.88z M118.88,342.77c-0.55,0-1.07,0.6-1.07,1.25c0,0.64,0.41,1.09,0.97,1.09
						c0.67,0,1.06-0.66,1.06-1.26C119.84,343.22,119.44,342.77,118.88,342.77z"/>
				</g>
				<g class="st2">
					<path d="M123.74,347.5c-1.27,0-2.03-0.9-2.03-2.41c0-1.88,1.12-3.31,2.58-3.31c1.22,0,2,0.94,2,2.35
						C126.29,346.14,125.15,347.5,123.74,347.5z M123.7,346.62c0.85,0,1.55-1.07,1.55-2.55c0-0.9-0.37-1.49-0.96-1.49
						c-0.88,0-1.54,1.25-1.54,2.61C122.75,346.06,123.17,346.62,123.7,346.62z"/>
					<path d="M134.57,347.33c-0.43,0.12-0.85,0.17-1.38,0.17c-1.81,0-2.83-0.89-2.83-2.5c0-1.15,0.97-3.23,3.54-3.23h0.43l0.37-2.63
						h1.02L134.57,347.33z M134.21,342.63h-0.26c-1.67,0-2.54,1.2-2.54,2.35c0,1.07,0.64,1.68,1.79,1.68c0.16,0,0.3,0,0.47-0.02
						L134.21,342.63z"/>
					<path d="M138.08,347.5c-1.27,0-2.03-0.9-2.03-2.41c0-1.88,1.12-3.31,2.58-3.31c1.22,0,2,0.94,2,2.35
						C140.63,346.14,139.49,347.5,138.08,347.5z M138.04,346.62c0.85,0,1.55-1.07,1.55-2.55c0-0.9-0.37-1.49-0.96-1.49
						c-0.88,0-1.54,1.25-1.54,2.61C137.09,346.06,137.51,346.62,138.04,346.62z"/>
					<path d="M145.36,341.95h1.02l-0.83,6.48c-0.16,1.22-0.98,1.67-1.86,1.67c-0.19,0-0.43-0.04-0.6-0.11l0.13-0.9
						c0.76,0.18,1.22-0.01,1.34-0.95L145.36,341.95z M146.05,340.84c-0.32,0-0.59-0.26-0.59-0.59s0.26-0.59,0.59-0.59
						s0.59,0.26,0.59,0.59S146.37,340.84,146.05,340.84z"/>
				</g>
				<g class="st2">
					<path d="M149.05,347.5c-1.27,0-2.03-0.9-2.03-2.41c0-1.88,1.12-3.31,2.58-3.31c1.22,0,2,0.94,2,2.35
						C151.6,346.14,150.46,347.5,149.05,347.5z M149.01,346.62c0.85,0,1.55-1.07,1.55-2.55c0-0.9-0.37-1.49-0.96-1.49
						c-0.88,0-1.54,1.25-1.54,2.61C148.07,346.06,148.49,346.62,149.01,346.62z"/>
					<path d="M156.96,342.74h-1.04c0.28,0.4,0.36,0.7,0.36,1.07c0,0.9-0.43,1.61-1.26,1.96c-0.64,0.26-1.83,0.2-1.83,0.72
						c0,0.67,2.95,0.29,2.95,2.08c0,0.89-0.92,1.54-2.2,1.54c-1.35,0-2.34-0.59-2.34-1.39c0-0.64,0.73-0.92,1.55-1.09v-0.02
						c-0.67-0.25-0.94-0.53-0.94-0.95c0-0.44,0.46-0.83,1.07-1c-0.64-0.3-0.97-0.84-0.97-1.55c0-1.24,0.91-2.15,2-2.15h2.76
						L156.96,342.74z M153.96,347.88c-0.7,0.13-1.39,0.43-1.39,0.79c0,0.4,0.55,0.65,1.45,0.65c0.7,0,1.14-0.28,1.14-0.67
						C155.16,348.31,154.59,348.03,153.96,347.88z M154.34,342.77c-0.55,0-1.07,0.6-1.07,1.25c0,0.64,0.41,1.09,0.97,1.09
						c0.67,0,1.06-0.66,1.06-1.26C155.3,343.22,154.89,342.77,154.34,342.77z"/>
				</g>
				<g class="st2">
					<path d="M159.31,347.5c-1.27,0-2.03-0.9-2.03-2.41c0-1.88,1.12-3.31,2.58-3.31c1.22,0,2,0.94,2,2.35
						C161.86,346.14,160.72,347.5,159.31,347.5z M159.27,346.62c0.85,0,1.55-1.07,1.55-2.55c0-0.9-0.37-1.49-0.96-1.49
						c-0.88,0-1.54,1.25-1.54,2.61C158.33,346.06,158.75,346.62,159.27,346.62z"/>
				</g>
				<g class="st2">
					<path d="M163.81,346.8c0,0.38-0.31,0.7-0.7,0.7c-0.38,0-0.7-0.31-0.7-0.7s0.31-0.7,0.7-0.7
						C163.5,346.11,163.81,346.42,163.81,346.8z"/>
				</g>
				<g id="Border">
					<g id="Outer_Line">
						<path d="M269.19,1.39v379.89H1.39V1.39H269.19 M270.58,0H0v382.68h270.58V0z"/>
					</g>
					<path d="M266.68,4.47V378.2H3.9V4.47H266.68 M267.81,3.35H2.77v376h265v-376H267.81z"/>
					<path d="M264.18,7.55v367.57H6.4V7.55H264.18 M265.04,6.69H5.54V376H265V6.69H265.04z"/>
					<path d="M261.68,10.63V372H8.9V10.63H261.68 M262.27,10.04H8.31v362.6h254V10L262.27,10.04z"/>
					<path d="M259.17,13.71V369H11.41V13.71H259.17 M259.5,13.39H11.08v355.9H259.5V13.39z"/>
					<g id="Inner_Line">
						<path d="M256.67,16.79v349.09H13.91V16.79H256.67 M256.73,16.73H13.85V366h242.88C256.73,366,256.73,16.73,256.73,16.73z"/>
					</g>
				</g>
			</g>
		</g>
	</g>
</g>
</svg>
