<?xml version="1.0" encoding="utf-8"?>
<!-- Generator: Adobe Illustrator 21.1.0, SVG Export Plug-In . SVG Version: 6.00 Build 0)  -->
<svg version="1.1" id="ZooUno" xmlns="http://www.w3.org/2000/svg" xmlns:xlink="http://www.w3.org/1999/xlink" x="0px" y="0px"
	 viewBox="0 0 270.58 382.68" style="enable-background:new 0 0 270.58 382.68;" xml:space="preserve">
<style type="text/css">
	.st0{fill:#FF33A2;}
	.st1{enable-background:new    ;}
	.st2{fill:none;stroke:#000000;stroke-width:1.03;stroke-miterlimit:10;}
</style>
<title>ZooUno Fields Cartas Finais pra Lari</title>
<g id="Final_Cards">
	<g id="Aves">
		<g id="Aves-2">
			<g id="_3_1">
				<path class="st0" d="M102.46,66c8.42-3.96,17.47-6.4,26.74-7.2c2.32-0.21,4.64-0.29,7-0.28l3.49,0.06l3.49,0.24
					c4.65,0.41,9.26,1.21,13.77,2.4c9.05,2.4,17.61,6.38,25.26,11.78c3.85,2.68,7.46,5.7,10.79,9c3.32,3.3,6.36,6.88,9.07,10.69
					c5.41,7.65,9.45,16.18,11.93,25.21c1.23,4.51,2.08,9.12,2.55,13.77c0.44,4.66,0.46,9.34,0.08,14c-0.73,9.32-3.1,18.44-7,26.94
					c-3.89,8.45-9.21,16.16-15.74,22.79c6.21-6.85,11.22-14.68,14.84-23.19c3.66-8.44,5.8-17.46,6.32-26.65
					c2.4-37.96-21.98-72.46-58.57-82.87c-4.41-1.25-8.92-2.12-13.48-2.62l-3.43-0.3l-3.44-0.13c-2.3-0.06-4.6,0-6.89,0.13
					C120.03,60.32,110.97,62.42,102.46,66z"/>
				<path class="st0" d="M77.79,83.11c-6.44,6.82-11.67,14.68-15.48,23.25c-3.82,8.53-6.11,17.67-6.75,27
					c-0.68,9.28,0.23,18.61,2.69,27.59c5.07,18.02,16.19,33.75,31.5,44.53c23.45,16.36,53.77,19.21,79.86,7.52
					c-8.46,4.19-17.61,6.83-27,7.8c-9.43,0.93-18.96,0.22-28.15-2.09c-38.4-9.83-64-46.04-60.46-85.52
					C55.64,114.18,64.09,96.39,77.79,83.11z"/>
				<path class="st0" d="M104.82,69.36c8-3.58,16.55-5.77,25.29-6.45c2.19-0.17,4.38-0.24,6.57-0.19c2.19,0,4.38,0.16,6.56,0.33
					c4.37,0.43,8.69,1.23,12.93,2.38c8.5,2.31,16.53,6.1,23.72,11.2c7.23,5.05,13.53,11.31,18.62,18.51
					c5.1,7.19,8.91,15.22,11.26,23.72c2.4,8.49,3.29,17.34,2.63,26.14c-0.62,8.77-2.75,17.37-6.31,25.41
					c-3.59,7.99-8.5,15.32-14.53,21.68c5.85-6.47,10.56-13.89,13.93-21.94c3.4-8,5.39-16.54,5.88-25.22
					c2.19-35.94-20.87-68.57-55.47-78.52c-4.17-1.19-8.43-2.04-12.74-2.53c-2.16-0.19-4.33-0.39-6.5-0.41
					c-2.17-0.08-4.34-0.05-6.51,0.09C121.44,64.02,112.87,65.99,104.82,69.36z"/>
				<path class="st0" d="M80.14,86.44c-6.08,6.44-11,13.89-14.56,22c-3.59,8.08-5.72,16.74-6.31,25.56
					c-2.59,36.5,20.93,69.77,56.2,79.51c17.19,4.71,35.48,3.35,51.79-3.84c-8.05,3.8-16.69,6.17-25.55,7
					c-8.89,0.79-17.86,0.04-26.5-2.2c-36.02-9.49-60.05-43.45-57-80.58c0.73-8.9,3.03-17.6,6.79-25.7
					C68.76,100.13,73.88,92.77,80.14,86.44z"/>
				<path class="st0" d="M107.18,72.7c15.26-6.52,32.29-7.58,48.24-3c3.97,1.11,7.85,2.54,11.58,4.3c3.7,1.79,7.25,3.89,10.61,6.26
					c6.74,4.77,12.62,10.65,17.39,17.39c9.59,13.57,14.24,30.02,13.18,46.6c-0.49,8.22-2.4,16.3-5.63,23.88
					c-3.25,7.56-7.75,14.51-13.31,20.58c5.46-6.12,9.85-13.12,13-20.7c9.67-23.11,6.72-49.58-7.79-70
					c-9.47-13.51-23.3-23.37-39.16-27.91C139.42,65.54,122.47,66.46,107.18,72.7z"/>
				<path class="st0" d="M82.5,89.77c-8.54,9.19-14.62,20.39-17.66,32.56c-9.25,38.19,13.39,76.86,51.23,87.47
					c16.2,4.46,33.43,3.23,48.83-3.48c-7.62,3.46-15.77,5.57-24.11,6.25c-2.08,0.18-4.17,0.25-6.26,0.21l-3.13-0.08l-3.13-0.23
					c-4.15-0.4-8.25-1.15-12.27-2.24c-38.73-10.39-61.7-50.21-51.31-88.93C67.87,109.45,74,98.61,82.5,89.77z"/>
				<g class="st1">
					<path d="M36.29,41.12H32.4l-1.19-2.87h-6.48l-1.08,2.87h-3.83l5.85-14.5h4.19L36.29,41.12z M27.81,30.09l-2.13,5.63h4.46
						L27.81,30.09z"/>
					<path d="M40.77,41.12h-3.08v-14.5h3.08V41.12z"/>
					<path d="M46.67,28.13c0,0.94-0.77,1.7-1.7,1.7c-0.94,0-1.7-0.76-1.7-1.7c0-0.93,0.77-1.7,1.7-1.7
						C45.91,26.43,46.67,27.2,46.67,28.13z M46.53,41.12h-3.08v-9.8h3.08V41.12z"/>
					<path d="M52.28,32.58c0.53-0.49,1.08-0.85,1.64-1.11c0.57-0.23,1.15-0.34,1.76-0.34c1.7,0,2.85,0.68,3.53,2.08
						c1.28-1.47,2.4-2.08,3.87-2.08c2.23,0,3.83,1.47,3.83,3.7v6.29h-3.08v-5.74c0-1.4-0.68-2.19-1.81-2.19
						c-0.89,0-1.72,0.57-2.42,1.66v6.27h-3.08v-5.8c0-1.59-0.96-2.13-1.87-2.13c-0.81,0-1.62,0.47-2.36,1.36v6.57H49.2v-9.8h3.08
						V32.58z"/>
					<path d="M79.06,40.01c-1.76,1.3-3.61,1.3-4.38,1.3c-3.44,0-5.68-2-5.68-5.06c0-3,2.15-5.12,5.17-5.12
						c2.85,0,5.21,2.02,5.06,5.59H72.2c0.11,1.74,1.3,2.76,3.23,2.76c1.23,0,2.19-0.36,3.63-1.4V40.01z M76.51,35.1
						c-0.13-1.34-0.94-2.15-2.13-2.15c-1.21,0-2,0.79-2.13,2.15H76.51z"/>
					<path d="M84.31,32.72c0.98-1.13,1.93-1.59,3.19-1.59c1.53,0,3.57,0.87,3.57,3.76v6.23h-3.08v-5.97c0-1.38-0.66-1.96-1.53-1.96
						c-0.77,0-1.34,0.4-2.15,1.62v6.31h-3.08v-9.8h3.08V32.72z"/>
					<path d="M100.65,33.43h-3.57v4.04c0,0.96,0.55,1.57,1.51,1.57c0.64,0,1.23-0.15,2.06-0.57v2.23c-1.08,0.45-1.89,0.62-2.85,0.62
						c-2.04,0-3.81-0.94-3.81-3.68v-4.21h-1.4v-0.6l4.1-4.59h0.38v3.08h3.57V33.43z"/>
					<path d="M112.25,40.42c-0.85,0.51-2.06,0.89-2.89,0.89c-1.02,0-1.51-0.32-1.72-1.11c-1.19,0.81-2.17,1.11-3.23,1.11
						c-1.57,0-2.74-1.17-2.74-2.4c0-2.34,1.72-2.81,5.82-4.08c0.06-0.91-0.36-1.64-1.7-1.64c-1.23,0-2.64,0.64-3.61,1.64v-2.51
						c1.28-0.79,2.7-1.19,4.25-1.19c2.47,0,4.14,0.83,4.14,2.98v4.46c0,0.49,0.19,0.68,0.51,0.68c0.21,0,0.45-0.04,1.17-0.55V40.42z
						 M107.49,36.38c-1.83,0.66-2.7,1.08-2.7,2.06c0,0.57,0.45,1.04,1,1.04c0.57,0,1.19-0.28,1.7-0.74V36.38z"/>
					<path d="M122.09,40.65c-1.23,0.45-2.19,0.66-3.53,0.66l-0.13,0.3c0.89,0.32,1.32,0.85,1.32,1.55c0,1.02-0.79,1.76-2.32,1.76
						c-0.79,0-1.19-0.06-1.57-0.19v-1.08c1.36,0.04,1.62-0.23,1.62-0.66c0-0.23-0.17-0.59-0.87-0.59l0.7-1.23
						c-2.59-0.47-4.21-2.3-4.21-4.91c0-3,2.32-5.12,5.55-5.12c1,0,2.27,0.25,3.29,0.64v2.3c-0.81-0.43-1.74-0.66-2.51-0.66
						c-1.85,0-3.04,1.11-3.04,2.83c0,1.74,1.17,2.89,2.93,2.89c0.74,0,1.4-0.17,2.76-0.68V40.65z"/>
					<path d="M134.16,40.42c-0.85,0.51-2.06,0.89-2.89,0.89c-1.02,0-1.51-0.32-1.72-1.11c-1.19,0.81-2.17,1.11-3.23,1.11
						c-1.57,0-2.74-1.17-2.74-2.4c0-2.34,1.72-2.81,5.82-4.08c0.06-0.91-0.36-1.64-1.7-1.64c-1.23,0-2.64,0.64-3.61,1.64v-2.51
						c1.28-0.79,2.7-1.19,4.25-1.19c2.47,0,4.14,0.83,4.14,2.98v4.46c0,0.49,0.19,0.68,0.51,0.68c0.21,0,0.45-0.04,1.17-0.55V40.42z
						 M132.65,26.86c-0.13,2.04-1.02,3.21-2.49,3.21c-1.21,0-2.55-1.15-3.42-1.15c-0.51,0-0.87,0.4-0.96,1.1h-1.4
						c0.15-2,1.08-3.17,2.53-3.17c1.25,0,2.44,1.15,3.36,1.15c0.51,0,0.81-0.38,0.94-1.15H132.65z M129.4,36.38
						c-1.83,0.66-2.7,1.08-2.7,2.06c0,0.57,0.45,1.04,1,1.04c0.57,0,1.19-0.28,1.7-0.74V36.38z"/>
					<path d="M140.49,41.31c-3.21,0-5.55-2.02-5.55-5.1c0-3.34,2.66-5.08,5.55-5.08c2.4,0,5.51,1.34,5.51,5.1
						C146,40.12,142.66,41.31,140.49,41.31z M140.49,32.96c-1.34,0-2.25,1.04-2.25,3.25c0,2.53,1.08,3.27,2.25,3.27
						c1.45,0,2.21-1.19,2.21-3.34C142.7,34.23,142.04,32.96,140.49,32.96z"/>
				</g>
				<g class="st1">
				</g>
				<g class="st1">
					<path d="M167.11,41.12h-3.89l-1.19-2.87h-6.48l-1.08,2.87h-3.83l5.85-14.5h4.19L167.11,41.12z M158.63,30.09l-2.13,5.63h4.46
						L158.63,30.09z"/>
					<path d="M178.3,41.12h-3.08v-0.79c-0.87,0.7-1.68,0.98-2.72,0.98c-2.64,0-4.59-2.17-4.59-5.1c0-3,1.96-5.08,4.76-5.08
						c0.89,0,1.72,0.21,2.55,0.62v-5.12h3.08V41.12z M175.22,33.77c-0.45-0.32-1.17-0.57-1.72-0.57c-1.55,0-2.46,1.13-2.46,3.08
						c0,1.79,0.91,2.98,2.36,2.98c0.66,0,1.19-0.23,1.83-0.81V33.77z"/>
				</g>
				<g class="st1">
					<path d="M190.85,40.42c-0.85,0.51-2.06,0.89-2.89,0.89c-1.02,0-1.51-0.32-1.72-1.11c-1.19,0.81-2.17,1.11-3.23,1.11
						c-1.57,0-2.74-1.17-2.74-2.4c0-2.34,1.72-2.81,5.82-4.08c0.06-0.91-0.36-1.64-1.7-1.64c-1.23,0-2.64,0.64-3.61,1.64v-2.51
						c1.28-0.79,2.7-1.19,4.25-1.19c2.47,0,4.14,0.83,4.14,2.98v4.46c0,0.49,0.19,0.68,0.51,0.68c0.21,0,0.45-0.04,1.17-0.55V40.42z
						 M186.08,36.38c-1.83,0.66-2.7,1.08-2.7,2.06c0,0.57,0.45,1.04,1,1.04c0.57,0,1.19-0.28,1.7-0.74V36.38z"/>
				</g>
				<g class="st1">
					<path d="M194.92,32.17c0.87-0.72,1.74-1.04,2.81-1.04c2.55,0,4.55,2.17,4.55,4.97c0,3.15-1.91,5.21-4.83,5.21
						c-0.87,0-1.81-0.25-2.53-0.68v5.38h-3.08V31.32h3.08V32.17z M194.92,38.61c0.62,0.45,1.17,0.64,1.79,0.64
						c1.51,0,2.44-1.15,2.44-2.98c0-1.87-0.85-2.95-2.32-2.95c-0.66,0-1.15,0.19-1.91,0.79V38.61z"/>
					<path d="M211.33,33.43h-3.57v4.04c0,0.96,0.55,1.57,1.51,1.57c0.64,0,1.23-0.15,2.06-0.57v2.23c-1.08,0.45-1.89,0.62-2.85,0.62
						c-2.04,0-3.8-0.94-3.8-3.68v-4.21h-1.4v-0.6l4.1-4.59h0.38v3.08h3.57V33.43z"/>
					<path d="M222.93,40.42c-0.85,0.51-2.06,0.89-2.89,0.89c-1.02,0-1.51-0.32-1.72-1.11c-1.19,0.81-2.17,1.11-3.23,1.11
						c-1.57,0-2.74-1.17-2.74-2.4c0-2.34,1.72-2.81,5.82-4.08c0.06-0.91-0.36-1.64-1.7-1.64c-1.23,0-2.64,0.64-3.61,1.64v-2.51
						c1.28-0.79,2.7-1.19,4.25-1.19c2.47,0,4.14,0.83,4.14,2.98v4.46c0,0.49,0.19,0.68,0.51,0.68c0.21,0,0.45-0.04,1.17-0.55V40.42z
						 M218.17,36.38c-1.83,0.66-2.7,1.08-2.7,2.06c0,0.57,0.45,1.04,1,1.04c0.57,0,1.19-0.28,1.7-0.74V36.38z M217.17,29.85h-1.57
						l1.57-3.1h3.51L217.17,29.85z"/>
				</g>
				<g class="st1">
					<path d="M222.97,31.32h3.29l2.08,5.4l2.1-5.4h3.27l-4.51,9.99h-1.72L222.97,31.32z"/>
				</g>
				<g class="st1">
					<path d="M244.18,40.01c-1.76,1.3-3.61,1.3-4.38,1.3c-3.44,0-5.67-2-5.67-5.06c0-3,2.15-5.12,5.17-5.12
						c2.85,0,5.21,2.02,5.06,5.59h-7.04c0.11,1.74,1.3,2.76,3.23,2.76c1.23,0,2.19-0.36,3.63-1.4V40.01z M241.63,35.1
						c-0.13-1.34-0.94-2.15-2.13-2.15c-1.21,0-2,0.79-2.13,2.15H241.63z"/>
					<path d="M249.49,41.12h-3.08v-14.5h3.08V41.12z"/>
				</g>
				<g class="st1">
					<path d="M33.34,247.33h-1.5l-1.37-3.01h-4.35l-1.29,3.01h-1.5l4.4-10.29h1.03L33.34,247.33z M26.7,243h3.18l-1.65-3.71
						L26.7,243z"/>
					<path d="M41.08,243.9c0,2.13-1.48,3.57-3.65,3.57c-2.07,0-3.55-1.5-3.55-3.57c0-1.94,1.54-3.44,3.55-3.44
						C39.55,240.46,41.08,241.9,41.08,243.9z M35.25,243.9c0,1.42,0.89,2.37,2.18,2.37c1.41,0,2.29-0.9,2.29-2.35
						c0-1.3-0.96-2.25-2.29-2.25C36.16,241.66,35.25,242.61,35.25,243.9z"/>
				</g>
				<g class="st1">
				</g>
				<g class="st1">
					<path d="M48.2,248.21c0,1.44-0.45,2.08-1.33,2.57l-1-0.99c0.58-0.24,1-0.72,1-1.47v-7.72h1.33V248.21z M47.54,239.35
						c-0.44,0-0.79-0.36-0.79-0.79c0-0.44,0.36-0.79,0.79-0.79s0.79,0.36,0.79,0.79C48.33,238.99,47.98,239.35,47.54,239.35z"/>
					<path d="M56.98,243.9c0,2.13-1.48,3.57-3.65,3.57c-2.07,0-3.55-1.5-3.55-3.57c0-1.94,1.54-3.44,3.55-3.44
						C55.45,240.46,56.98,241.9,56.98,243.9z M51.14,243.9c0,1.42,0.89,2.37,2.18,2.37c1.41,0,2.29-0.9,2.29-2.35
						c0-1.3-0.96-2.25-2.29-2.25C52.06,241.66,51.14,242.61,51.14,243.9z"/>
					<path d="M63.83,241.63h-1.38c0.53,0.53,0.71,0.9,0.71,1.47c0,0.55-0.31,1.2-0.63,1.51c-0.9,0.96-2.73,0.48-2.73,1.28
						c0,0.37,0.71,0.6,2.06,0.87c1.44,0.29,1.95,1.02,1.95,1.88c0,1.33-1.19,2.15-3.18,2.15c-1.81,0-3.1-0.86-3.1-2.04
						c0-0.99,0.52-1.58,1.69-1.86c-0.46-0.29-0.67-0.55-0.67-0.85c0-0.44,0.42-0.81,1.06-0.96v-0.03c-0.5-0.21-0.87-0.5-1.13-0.85
						c-0.24-0.35-0.36-0.77-0.36-1.26c0-1.44,1.13-2.32,2.94-2.32h2.77V241.63z M60.31,247.66c-0.9,0-1.53,0.42-1.53,1.02
						c0,0.68,0.66,1.04,1.88,1.04c1.17,0,1.86-0.36,1.86-0.97C62.51,247.88,61.13,247.66,60.31,247.66z M60.65,241.75
						c-0.73,0-1.33,0.56-1.33,1.21c0,0.74,0.54,1.23,1.35,1.23c0.75,0,1.29-0.53,1.29-1.26C61.96,242.29,61.35,241.75,60.65,241.75z
						"/>
					<path d="M70.08,246.94c-0.61,0.4-0.87,0.52-1.29,0.52c-0.58,0-0.9-0.21-1.02-0.69c-0.58,0.46-1.2,0.69-1.81,0.69
						c-0.99,0-1.65-0.78-1.65-1.65c0-1.33,1.21-1.74,2.29-2.13l1.18-0.42v-0.36c0-0.84-0.4-1.18-1.21-1.18
						c-0.73,0-1.48,0.34-2.13,1.11v-1.46c0.52-0.61,1.26-0.92,2.23-0.92c1.37,0,2.44,0.69,2.44,2.22v3.46
						c0,0.25,0.09,0.34,0.26,0.34c0.13,0,0.4-0.13,0.7-0.36V246.94z M67.79,244c-1.14,0.39-2.13,0.78-2.13,1.58
						c0,0.55,0.41,0.95,0.96,0.95c0.42,0,0.81-0.21,1.17-0.56V244z"/>
					<path d="M72.69,240.6v1.54h0.03c0.67-1.19,1.32-1.68,1.95-1.68c0.54,0,1.05,0.26,1.6,0.78l-0.7,1.16
						c-0.41-0.39-0.93-0.66-1.25-0.66c-0.92,0-1.63,0.92-1.63,2.07v3.52h-1.33v-6.73H72.69z"/>
				</g>
				<g class="st1">
				</g>
				<g class="st1">
					<path d="M85.81,247.33v-0.85c-0.55,0.6-1.33,0.99-1.99,0.99c-1.37,0-2.33-0.97-2.33-2.68v-4.18h1.33v4.27
						c0,0.95,0.46,1.49,1.38,1.49c0.6,0,1.17-0.33,1.6-0.95v-4.81h1.33v6.73H85.81z"/>
					<path d="M90.31,240.6v0.88c0.69-0.69,1.33-1.02,1.97-1.02c0.85,0,1.56,0.42,2.01,1.22c0.58-0.66,1.29-1.22,2.25-1.22
						c1.36,0,2.23,1.05,2.23,2.64v4.23h-1.33v-4.17c0-1.02-0.63-1.58-1.4-1.58c-0.44-0.01-1.02,0.36-1.5,0.86v4.89H93.2v-4.18
						c0-1.09-0.56-1.56-1.21-1.56c-0.67,0-1.13,0.21-1.68,0.86v4.89h-1.33v-6.73H90.31z"/>
				</g>
				<g class="st1">
				</g>
				<g class="st1">
					<path d="M108.23,237.1c2.24,0,3.25,1.32,3.25,2.94c0,1.61-1.08,2.87-3.45,2.87h-1.53v4.42h-1.47V237.1H108.23z M106.51,241.58
						h1.67c1.09,0,1.8-0.58,1.8-1.6c0-0.75-0.41-1.56-1.74-1.56h-1.72V241.58z"/>
				</g>
				<g class="st1">
					<path d="M117.83,246.67c-0.81,0.54-1.54,0.79-2.69,0.79c-2.1,0-3.27-1.72-3.27-3.58c0-2.04,1.29-3.42,3.15-3.42
						c1.79,0,2.93,1.22,2.93,3.71h-4.74c0.21,1.33,0.97,2.03,2.26,2.03c0.81,0,1.58-0.3,2.36-0.81V246.67z M116.63,243.28
						c-0.04-1.02-0.63-1.67-1.58-1.67c-1.02,0-1.63,0.6-1.81,1.67H116.63z"/>
					<path d="M120.09,239.35c-0.43,0-0.79-0.36-0.79-0.79c0-0.44,0.36-0.79,0.79-0.79c0.44,0,0.79,0.36,0.79,0.79
						C120.89,238.99,120.53,239.35,120.09,239.35z M120.75,247.33h-1.33v-6.73h1.33V247.33z"/>
				</g>
				<g class="st1">
					<path d="M126.26,243.91l2.97,3.42h-1.71l-2.11-2.42l-2,2.42h-1.68l2.83-3.42l-2.83-3.31h1.68l2,2.31l1.92-2.31h1.71
						L126.26,243.91z"/>
				</g>
				<g class="st1">
					<path d="M135.36,246.67c-0.81,0.54-1.54,0.79-2.69,0.79c-2.1,0-3.27-1.72-3.27-3.58c0-2.04,1.29-3.42,3.15-3.42
						c1.79,0,2.93,1.22,2.93,3.71h-4.74c0.21,1.33,0.98,2.03,2.27,2.03c0.81,0,1.57-0.3,2.35-0.81V246.67z M134.16,243.28
						c-0.04-1.02-0.63-1.67-1.57-1.67c-1.02,0-1.63,0.6-1.81,1.67H134.16z"/>
				</g>
				<g class="st1">
					<path d="M137.15,248.82c0.5-0.33,0.68-1.1,0.54-1.64c-0.44-0.01-0.74-0.34-0.74-0.84s0.38-0.85,0.88-0.85
						c0.65,0,1.07,0.57,1.07,1.46c0,0.85-0.57,1.83-1.76,2.16V248.82z"/>
				</g>
				<g class="st1">
				</g>
				<g class="st1">
					<path d="M142.43,240.6h1.46l1.82,4.14l1.77-4.14h1.42l-2.97,6.87h-0.45L142.43,240.6z"/>
				</g>
				<g class="st1">
					<path d="M156.4,243.9c0,2.13-1.48,3.57-3.64,3.57c-2.07,0-3.55-1.5-3.55-3.57c0-1.94,1.54-3.44,3.55-3.44
						C154.87,240.46,156.4,241.9,156.4,243.9z M150.56,243.9c0,1.42,0.89,2.37,2.18,2.37c1.41,0,2.29-0.9,2.29-2.35
						c0-1.3-0.96-2.25-2.29-2.25C151.48,241.66,150.56,242.61,150.56,243.9z"/>
					<path d="M162.83,242.35c-0.76-0.51-1.27-0.66-1.86-0.66c-1.21,0-2.05,0.92-2.05,2.28c0,1.39,0.9,2.23,2.28,2.23
						c0.57,0,1.11-0.15,1.79-0.45v1.32c-0.45,0.21-1.3,0.39-2.01,0.39c-2.01,0-3.42-1.39-3.42-3.38c0-2.22,1.29-3.63,3.33-3.63
						c0.78,0,1.3,0.18,1.95,0.47V242.35z"/>
					<path d="M170.08,246.67c-0.81,0.54-1.54,0.79-2.68,0.79c-2.1,0-3.27-1.72-3.27-3.58c0-2.04,1.29-3.42,3.15-3.42
						c1.79,0,2.92,1.22,2.92,3.71h-4.74c0.21,1.33,0.98,2.03,2.27,2.03c0.81,0,1.57-0.3,2.35-0.81V246.67z M169.19,239.74h-0.83
						l-1.3-1.3l-1.25,1.3h-0.79l1.37-2.26h1.39L169.19,239.74z M168.88,243.28c-0.04-1.02-0.63-1.67-1.57-1.67
						c-1.02,0-1.63,0.6-1.82,1.67H168.88z"/>
				</g>
				<g class="st1">
				</g>
				<g class="st1">
					<path d="M177.21,250.78h-1.33V240.6h2.31c2.46,0,3.79,1.2,3.79,3.42c0,2.02-1.43,3.45-3.42,3.45c-0.44,0-0.84-0.09-1.35-0.3
						V250.78z M177.21,245.96c0.41,0.2,0.84,0.3,1.26,0.3c1.25,0,2.15-0.96,2.15-2.26c0-1.39-0.74-2.21-2.19-2.21h-1.21V245.96z"/>
					<path d="M190.26,243.9c0,2.13-1.48,3.57-3.64,3.57c-2.07,0-3.55-1.5-3.55-3.57c0-1.94,1.54-3.44,3.55-3.44
						C188.73,240.46,190.26,241.9,190.26,243.9z M184.42,243.9c0,1.42,0.89,2.37,2.17,2.37c1.41,0,2.29-0.9,2.29-2.35
						c0-1.3-0.96-2.25-2.29-2.25C185.34,241.66,184.42,242.61,184.42,243.9z"/>
					<path d="M197.56,247.33h-2.83c-2.01,0-3.27-1.37-3.27-3.52c0-1.95,1.39-3.35,3.36-3.35c0.45,0,0.87,0.08,1.41,0.27v-3.63h1.33
						V247.33z M196.23,241.92c-0.45-0.18-0.79-0.25-1.25-0.25c-1.29,0-2.16,0.93-2.16,2.34c0,1.26,0.51,2.21,2.05,2.21h1.35V241.92z
						"/>
					<path d="M205.02,246.67c-0.81,0.54-1.54,0.79-2.69,0.79c-2.1,0-3.27-1.72-3.27-3.58c0-2.04,1.29-3.42,3.15-3.42
						c1.79,0,2.92,1.22,2.92,3.71h-4.74c0.21,1.33,0.98,2.03,2.26,2.03c0.81,0,1.58-0.3,2.36-0.81V246.67z M203.82,243.28
						c-0.04-1.02-0.63-1.67-1.58-1.67c-1.02,0-1.63,0.6-1.81,1.67H203.82z"/>
				</g>
				<g class="st1">
				</g>
				<g class="st1">
					<path d="M217.7,243.9c0,2.13-1.48,3.57-3.64,3.57c-2.07,0-3.55-1.5-3.55-3.57c0-1.94,1.54-3.44,3.55-3.44
						C216.17,240.46,217.7,241.9,217.7,243.9z M211.87,243.9c0,1.42,0.88,2.37,2.17,2.37c1.41,0,2.29-0.9,2.29-2.35
						c0-1.3-0.96-2.25-2.29-2.25C212.78,241.66,211.87,242.61,211.87,243.9z"/>
					<path d="M220.43,250.78h-1.33V240.6h2.31c2.46,0,3.79,1.2,3.79,3.42c0,2.02-1.42,3.45-3.42,3.45c-0.43,0-0.84-0.09-1.35-0.3
						V250.78z M220.43,245.96c0.4,0.2,0.84,0.3,1.26,0.3c1.25,0,2.14-0.96,2.14-2.26c0-1.39-0.73-2.21-2.19-2.21h-1.21V245.96z"/>
					<path d="M228.24,240.6h2.13v1.2h-2.13v3.45c0,0.79,0.57,1.02,0.96,1.02c0.48,0,0.97-0.16,1.51-0.49v1.24
						c-0.47,0.26-1.18,0.45-1.62,0.45c-1.46,0-2.19-0.9-2.19-2.11v-3.56h-1.17v-0.15l2.5-2.45V240.6z"/>
					<path d="M236.9,246.94c-0.61,0.4-0.87,0.52-1.29,0.52c-0.58,0-0.9-0.21-1.02-0.69c-0.58,0.46-1.2,0.69-1.81,0.69
						c-0.99,0-1.65-0.78-1.65-1.65c0-1.33,1.21-1.74,2.29-2.13l1.18-0.42v-0.36c0-0.84-0.41-1.18-1.21-1.18
						c-0.74,0-1.49,0.34-2.13,1.11v-1.46c0.53-0.61,1.26-0.92,2.23-0.92c1.37,0,2.45,0.69,2.45,2.22v3.46
						c0,0.25,0.09,0.34,0.26,0.34c0.13,0,0.4-0.13,0.7-0.36V246.94z M234.6,244c-1.14,0.39-2.13,0.78-2.13,1.58
						c0,0.55,0.41,0.95,0.96,0.95c0.42,0,0.81-0.21,1.17-0.56V244z"/>
					<path d="M239.51,240.6v1.54h0.03c0.68-1.19,1.32-1.68,1.95-1.68c0.54,0,1.05,0.26,1.6,0.78l-0.7,1.16
						c-0.41-0.39-0.93-0.66-1.25-0.66c-0.92,0-1.63,0.92-1.63,2.07v3.52h-1.33v-6.73H239.51z"/>
				</g>
				<g class="st1">
					<path d="M25.53,270.78h-1.33V260.6h2.31c2.46,0,3.79,1.2,3.79,3.42c0,2.02-1.43,3.45-3.42,3.45c-0.44,0-0.84-0.09-1.35-0.3
						V270.78z M25.53,265.96c0.4,0.2,0.84,0.3,1.26,0.3c1.25,0,2.15-0.96,2.15-2.26c0-1.39-0.73-2.21-2.19-2.21h-1.21V265.96z"/>
					<path d="M38.58,263.9c0,2.13-1.48,3.57-3.65,3.57c-2.07,0-3.55-1.5-3.55-3.57c0-1.94,1.54-3.44,3.55-3.44
						C37.05,260.46,38.58,261.9,38.58,263.9z M32.74,263.9c0,1.42,0.89,2.37,2.18,2.37c1.41,0,2.29-0.9,2.29-2.35
						c0-1.3-0.96-2.25-2.29-2.25C33.66,261.66,32.74,262.61,32.74,263.9z"/>
					<path d="M41.49,260.6v1.54h0.03c0.67-1.19,1.32-1.68,1.95-1.68c0.54,0,1.05,0.26,1.6,0.78l-0.7,1.16
						c-0.41-0.39-0.93-0.66-1.25-0.66c-0.92,0-1.63,0.92-1.63,2.07v3.52h-1.33v-6.73H41.49z"/>
				</g>
				<g class="st1">
				</g>
				<g class="st1">
					<path d="M56.37,260.6v0.88c0.69-0.69,1.33-1.02,1.97-1.02c0.85,0,1.56,0.42,2.01,1.22c0.58-0.66,1.29-1.22,2.25-1.22
						c1.36,0,2.23,1.05,2.23,2.64v4.23h-1.33v-4.17c0-1.02-0.63-1.58-1.4-1.58c-0.44-0.01-1.02,0.36-1.5,0.86v4.89h-1.33v-4.18
						c0-1.09-0.56-1.56-1.21-1.56c-0.67,0-1.13,0.21-1.68,0.86v4.89h-1.33v-6.73H56.37z"/>
				</g>
				<g class="st1">
					<path d="M70.78,267.33v-0.85c-0.55,0.6-1.33,0.99-1.99,0.99c-1.37,0-2.33-0.97-2.33-2.68v-4.18h1.33v4.27
						c0,0.95,0.46,1.49,1.38,1.49c0.6,0,1.17-0.33,1.6-0.95v-4.81h1.33v6.73H70.78z"/>
					<path d="M79.82,267.33h-2.83c-2.01,0-3.27-1.37-3.27-3.52c0-1.95,1.39-3.35,3.36-3.35c0.45,0,0.87,0.08,1.41,0.27v-3.63h1.33
						V267.33z M78.49,261.92c-0.45-0.18-0.79-0.25-1.24-0.25c-1.29,0-2.16,0.93-2.16,2.34c0,1.26,0.51,2.21,2.06,2.21h1.35V261.92z"
						/>
					<path d="M86.87,266.94c-0.61,0.4-0.87,0.52-1.29,0.52c-0.58,0-0.9-0.21-1.02-0.69c-0.58,0.46-1.2,0.69-1.81,0.69
						c-0.99,0-1.65-0.78-1.65-1.65c0-1.33,1.21-1.74,2.29-2.13l1.18-0.42v-0.36c0-0.84-0.4-1.18-1.21-1.18
						c-0.73,0-1.48,0.34-2.13,1.11v-1.46c0.52-0.61,1.26-0.92,2.23-0.92c1.37,0,2.44,0.69,2.44,2.22v3.46
						c0,0.25,0.09,0.34,0.26,0.34c0.13,0,0.4-0.13,0.7-0.36V266.94z M84.58,264c-1.14,0.39-2.13,0.78-2.13,1.58
						c0,0.55,0.41,0.95,0.96,0.95c0.42,0,0.81-0.21,1.17-0.56V264z"/>
					<path d="M89.48,260.6v1.54h0.03c0.67-1.19,1.32-1.68,1.95-1.68c0.54,0,1.05,0.26,1.6,0.78l-0.7,1.16
						c-0.41-0.39-0.93-0.66-1.25-0.66c-0.92,0-1.63,0.92-1.63,2.07v3.52h-1.33v-6.73H89.48z"/>
				</g>
				<g class="st1">
				</g>
				<g class="st1">
					<path d="M104.33,270.78H103V260.6h2.31c2.46,0,3.79,1.2,3.79,3.42c0,2.02-1.43,3.45-3.42,3.45c-0.44,0-0.84-0.09-1.35-0.3
						V270.78z M104.33,265.96c0.4,0.2,0.84,0.3,1.26,0.3c1.25,0,2.15-0.96,2.15-2.26c0-1.39-0.73-2.21-2.19-2.21h-1.21V265.96z"/>
					<path d="M116.21,266.67c-0.81,0.54-1.54,0.79-2.69,0.79c-2.1,0-3.27-1.72-3.27-3.58c0-2.04,1.29-3.42,3.15-3.42
						c1.79,0,2.93,1.22,2.93,3.71h-4.74c0.21,1.33,0.98,2.03,2.27,2.03c0.81,0,1.57-0.3,2.35-0.81V266.67z M115.01,263.28
						c-0.04-1.02-0.63-1.67-1.57-1.67c-1.02,0-1.63,0.6-1.81,1.67H115.01z"/>
					<path d="M119.2,260.6v1.54h0.03c0.67-1.19,1.32-1.68,1.95-1.68c0.54,0,1.05,0.26,1.6,0.78l-0.7,1.16
						c-0.41-0.39-0.93-0.66-1.25-0.66c-0.92,0-1.63,0.92-1.63,2.07v3.52h-1.33v-6.73H119.2z"/>
					<path d="M124.98,260.6v0.88c0.69-0.69,1.33-1.02,1.97-1.02c0.85,0,1.56,0.42,2.01,1.22c0.58-0.66,1.29-1.22,2.25-1.22
						c1.36,0,2.23,1.05,2.23,2.64v4.23h-1.33v-4.17c0-1.02-0.63-1.58-1.4-1.58c-0.44-0.01-1.02,0.36-1.5,0.86v4.89h-1.33v-4.18
						c0-1.09-0.56-1.56-1.21-1.56c-0.67,0-1.13,0.21-1.68,0.86v4.89h-1.33v-6.73H124.98z"/>
					<path d="M140.49,266.94c-0.61,0.4-0.87,0.52-1.29,0.52c-0.58,0-0.9-0.21-1.02-0.69c-0.58,0.46-1.2,0.69-1.81,0.69
						c-0.99,0-1.65-0.78-1.65-1.65c0-1.33,1.21-1.74,2.29-2.13l1.18-0.42v-0.36c0-0.84-0.4-1.18-1.21-1.18
						c-0.73,0-1.48,0.34-2.13,1.11v-1.46c0.52-0.61,1.26-0.92,2.23-0.92c1.37,0,2.44,0.69,2.44,2.22v3.46
						c0,0.25,0.09,0.34,0.26,0.34c0.13,0,0.4-0.13,0.7-0.36V266.94z M138.2,264c-1.14,0.39-2.13,0.78-2.13,1.58
						c0,0.55,0.41,0.95,0.96,0.95c0.42,0,0.81-0.21,1.17-0.56V264z"/>
					<path d="M142.98,261.48h0.03c0.51-0.65,1.26-1.02,2.01-1.02c1.28,0,2.29,0.87,2.29,2.71v4.16h-1.33v-4.17
						c0-0.99-0.51-1.63-1.32-1.63c-0.58,0-1.05,0.27-1.68,0.97v4.83h-1.33v-6.73h1.33V261.48z"/>
					<path d="M154.8,266.67c-0.81,0.54-1.54,0.79-2.69,0.79c-2.1,0-3.27-1.72-3.27-3.58c0-2.04,1.29-3.42,3.15-3.42
						c1.79,0,2.93,1.22,2.93,3.71h-4.74c0.21,1.33,0.97,2.03,2.26,2.03c0.81,0,1.58-0.3,2.36-0.81V266.67z M153.6,263.28
						c-0.04-1.02-0.63-1.67-1.58-1.67c-1.02,0-1.63,0.6-1.81,1.67H153.6z"/>
					<path d="M157.67,261.48h0.03c0.51-0.65,1.26-1.02,2.01-1.02c1.28,0,2.29,0.87,2.29,2.71v4.16h-1.33v-4.17
						c0-0.99-0.51-1.63-1.32-1.63c-0.58,0-1.05,0.27-1.68,0.97v4.83h-1.33v-6.73h1.33V261.48z"/>
					<path d="M165.42,260.6h2.13v1.2h-2.13v3.45c0,0.79,0.57,1.02,0.96,1.02c0.48,0,0.98-0.16,1.52-0.49v1.24
						c-0.47,0.26-1.19,0.45-1.62,0.45c-1.46,0-2.19-0.9-2.19-2.11v-3.56h-1.17v-0.15l2.5-2.45V260.6z"/>
					<path d="M174.48,266.67c-0.81,0.54-1.54,0.79-2.69,0.79c-2.1,0-3.27-1.72-3.27-3.58c0-2.04,1.29-3.42,3.15-3.42
						c1.79,0,2.93,1.22,2.93,3.71h-4.74c0.21,1.33,0.97,2.03,2.26,2.03c0.81,0,1.58-0.3,2.36-0.81V266.67z M173.28,263.28
						c-0.04-1.02-0.63-1.67-1.58-1.67c-1.02,0-1.63,0.6-1.81,1.67H173.28z"/>
					<path d="M177.32,260.6v0.88c0.69-0.69,1.33-1.02,1.97-1.02c0.85,0,1.56,0.42,2.01,1.22c0.58-0.66,1.29-1.22,2.25-1.22
						c1.36,0,2.23,1.05,2.23,2.64v4.23h-1.33v-4.17c0-1.02-0.63-1.58-1.39-1.58c-0.44-0.01-1.02,0.36-1.5,0.86v4.89h-1.33v-4.18
						c0-1.09-0.56-1.56-1.21-1.56c-0.67,0-1.13,0.21-1.68,0.86v4.89h-1.33v-6.73H177.32z"/>
					<path d="M193.23,266.67c-0.81,0.54-1.54,0.79-2.68,0.79c-2.1,0-3.27-1.72-3.27-3.58c0-2.04,1.29-3.42,3.15-3.42
						c1.79,0,2.92,1.22,2.92,3.71h-4.74c0.21,1.33,0.98,2.03,2.27,2.03c0.81,0,1.57-0.3,2.35-0.81V266.67z M192.03,263.28
						c-0.04-1.02-0.63-1.67-1.57-1.67c-1.02,0-1.64,0.6-1.82,1.67H192.03z"/>
					<path d="M196.1,261.48h0.03c0.51-0.65,1.26-1.02,2.01-1.02c1.28,0,2.29,0.87,2.29,2.71v4.16h-1.33v-4.17
						c0-0.99-0.51-1.63-1.32-1.63c-0.58,0-1.05,0.27-1.68,0.97v4.83h-1.33v-6.73h1.33V261.48z"/>
					<path d="M203.85,260.6h2.13v1.2h-2.13v3.45c0,0.79,0.57,1.02,0.96,1.02c0.48,0,0.98-0.16,1.52-0.49v1.24
						c-0.47,0.26-1.19,0.45-1.62,0.45c-1.46,0-2.19-0.9-2.19-2.11v-3.56h-1.17v-0.15l2.5-2.45V260.6z"/>
					<path d="M212.91,266.67c-0.81,0.54-1.54,0.79-2.68,0.79c-2.1,0-3.27-1.72-3.27-3.58c0-2.04,1.29-3.42,3.15-3.42
						c1.79,0,2.92,1.22,2.92,3.71h-4.74c0.21,1.33,0.98,2.03,2.27,2.03c0.81,0,1.57-0.3,2.35-0.81V266.67z M211.71,263.28
						c-0.04-1.02-0.63-1.67-1.57-1.67c-1.02,0-1.64,0.6-1.82,1.67H211.71z"/>
				</g>
				<g class="st1">
				</g>
				<g class="st1">
					<path d="M227.48,262.33c-0.75-0.5-1.46-0.71-1.95-0.71c-0.54,0-0.88,0.26-0.88,0.62c0,0.3,0.45,0.66,1.63,1.35
						c1.11,0.73,1.52,1.2,1.52,1.89c0,1.18-0.95,1.98-2.22,1.98c-0.83,0-1.47-0.17-2.34-0.62v-1.44c0.87,0.6,1.67,0.88,2.21,0.88
						c0.54-0.03,0.99-0.29,0.99-0.76c0-0.93-3.15-1.42-3.15-3.24c0-1.14,0.87-1.83,2.22-1.83c0.63,0,1.27,0.18,1.98,0.56V262.33z"/>
					<path d="M234.96,266.67c-0.81,0.54-1.54,0.79-2.69,0.79c-2.1,0-3.27-1.72-3.27-3.58c0-2.04,1.29-3.42,3.15-3.42
						c1.79,0,2.93,1.22,2.93,3.71h-4.74c0.21,1.33,0.97,2.03,2.26,2.03c0.81,0,1.58-0.3,2.36-0.81V266.67z M233.76,263.28
						c-0.04-1.02-0.63-1.67-1.58-1.67c-1.02,0-1.63,0.6-1.81,1.67H233.76z"/>
					<path d="M240.8,267.33v-0.85c-0.55,0.6-1.33,0.99-2,0.99c-1.37,0-2.33-0.97-2.33-2.68v-4.18h1.33v4.27
						c0,0.95,0.46,1.49,1.38,1.49c0.6,0,1.17-0.33,1.61-0.95v-4.81h1.33v6.73H240.8z"/>
				</g>
				<g class="st1">
					<path d="M25.59,281.48h0.03c0.51-0.65,1.26-1.02,2.01-1.02c1.32,0,2.29,0.9,2.29,2.75v4.13h-1.33v-4.17
						c0-0.99-0.51-1.63-1.32-1.63c-0.58,0-1.05,0.27-1.68,0.97v4.83h-1.33V277.1h1.33V281.48z"/>
					<path d="M37,286.94c-0.61,0.4-0.87,0.52-1.29,0.52c-0.58,0-0.9-0.21-1.02-0.69c-0.58,0.46-1.2,0.69-1.81,0.69
						c-0.99,0-1.65-0.78-1.65-1.65c0-1.33,1.21-1.74,2.29-2.13l1.18-0.42v-0.36c0-0.84-0.4-1.18-1.21-1.18
						c-0.73,0-1.48,0.34-2.13,1.11v-1.46c0.52-0.61,1.26-0.92,2.23-0.92c1.37,0,2.44,0.69,2.44,2.22v3.46
						c0,0.25,0.09,0.34,0.26,0.34c0.13,0,0.4-0.13,0.7-0.36V286.94z M34.71,284c-1.14,0.39-2.13,0.78-2.13,1.58
						c0,0.55,0.41,0.95,0.96,0.95c0.42,0,0.81-0.21,1.17-0.56V284z M35.71,277.52l-1.68,2.21h-0.82l1-2.21H35.71z"/>
					<path d="M39.46,281.08c0.58-0.42,1.19-0.62,1.86-0.62c1.68,0,2.91,1.43,2.91,3.36c0,2.28-1.35,3.64-3.6,3.64
						c-0.88,0-1.84-0.19-2.5-0.51v-9.85h1.33V281.08z M39.46,286c0.39,0.12,0.96,0.21,1.35,0.21c1.2,0,2.06-0.92,2.06-2.19
						c0-1.43-0.75-2.36-1.88-2.36c-0.56,0-0.96,0.18-1.53,0.69V286z"/>
					<path d="M46.39,279.35c-0.44,0-0.79-0.36-0.79-0.79c0-0.44,0.36-0.79,0.79-0.79s0.79,0.36,0.79,0.79
						C47.19,278.99,46.83,279.35,46.39,279.35z M47.05,287.33h-1.33v-6.73h1.33V287.33z"/>
					<path d="M50.53,280.6h2.13v1.2h-2.13v3.45c0,0.79,0.57,1.02,0.96,1.02c0.48,0,0.98-0.16,1.52-0.49v1.24
						c-0.47,0.26-1.19,0.45-1.62,0.45c-1.46,0-2.19-0.9-2.19-2.11v-3.56h-1.17v-0.15l2.5-2.45V280.6z"/>
					<path d="M60.76,283.9c0,2.13-1.48,3.57-3.65,3.57c-2.07,0-3.55-1.5-3.55-3.57c0-1.94,1.54-3.44,3.55-3.44
						C59.23,280.46,60.76,281.9,60.76,283.9z M54.93,283.9c0,1.42,0.89,2.37,2.18,2.37c1.41,0,2.29-0.9,2.29-2.35
						c0-1.3-0.96-2.25-2.29-2.25C55.84,281.66,54.93,282.61,54.93,283.9z"/>
				</g>
				<g class="st1">
				</g>
				<g class="st1">
					<path d="M82.85,286.94c-0.61,0.4-0.87,0.52-1.29,0.52c-0.58,0-0.9-0.21-1.02-0.69c-0.58,0.46-1.2,0.69-1.81,0.69
						c-0.99,0-1.65-0.78-1.65-1.65c0-1.33,1.21-1.74,2.29-2.13l1.18-0.42v-0.36c0-0.84-0.4-1.18-1.21-1.18
						c-0.73,0-1.48,0.34-2.13,1.11v-1.46c0.52-0.61,1.26-0.92,2.23-0.92c1.37,0,2.44,0.69,2.44,2.22v3.46
						c0,0.25,0.09,0.34,0.26,0.34c0.13,0,0.4-0.13,0.7-0.36V286.94z M80.56,284c-1.14,0.39-2.13,0.78-2.13,1.58
						c0,0.55,0.41,0.95,0.96,0.95c0.42,0,0.81-0.21,1.17-0.56V284z"/>
					<path d="M85.4,287.33h-1.33V277.1h1.33V287.33z"/>
					<path d="M88.03,279.35c-0.44,0-0.79-0.36-0.79-0.79c0-0.44,0.36-0.79,0.79-0.79s0.79,0.36,0.79,0.79
						C88.82,278.99,88.46,279.35,88.03,279.35z M88.69,287.33h-1.33v-6.73h1.33V287.33z"/>
					<path d="M91.88,280.6v0.88c0.69-0.69,1.33-1.02,1.97-1.02c0.85,0,1.56,0.42,2.01,1.22c0.58-0.66,1.29-1.22,2.25-1.22
						c1.36,0,2.23,1.05,2.23,2.64v4.23h-1.33v-4.17c0-1.02-0.63-1.58-1.4-1.58c-0.44-0.01-1.02,0.36-1.5,0.86v4.89h-1.33v-4.18
						c0-1.09-0.56-1.56-1.21-1.56c-0.67,0-1.13,0.21-1.68,0.86v4.89h-1.33v-6.73H91.88z"/>
					<path d="M107.8,286.67c-0.81,0.54-1.54,0.79-2.69,0.79c-2.1,0-3.27-1.72-3.27-3.58c0-2.04,1.29-3.42,3.15-3.42
						c1.79,0,2.93,1.22,2.93,3.71h-4.74c0.21,1.33,0.98,2.03,2.27,2.03c0.81,0,1.57-0.3,2.35-0.81V286.67z M106.6,283.28
						c-0.04-1.02-0.63-1.67-1.57-1.67c-1.02,0-1.64,0.6-1.81,1.67H106.6z"/>
					<path d="M110.66,281.48h0.03c0.51-0.65,1.26-1.02,2.01-1.02c1.27,0,2.29,0.87,2.29,2.71v4.16h-1.33v-4.17
						c0-0.99-0.51-1.63-1.32-1.63c-0.58,0-1.05,0.27-1.68,0.97v4.83h-1.33v-6.73h1.33V281.48z"/>
					<path d="M118.42,280.6h2.13v1.2h-2.13v3.45c0,0.79,0.57,1.02,0.96,1.02c0.48,0,0.98-0.16,1.52-0.49v1.24
						c-0.47,0.26-1.19,0.45-1.62,0.45c-1.46,0-2.19-0.9-2.19-2.11v-3.56h-1.17v-0.15l2.5-2.45V280.6z"/>
					<path d="M127.07,286.94c-0.61,0.4-0.87,0.52-1.29,0.52c-0.58,0-0.9-0.21-1.02-0.69c-0.58,0.46-1.2,0.69-1.81,0.69
						c-0.99,0-1.65-0.78-1.65-1.65c0-1.33,1.21-1.74,2.29-2.13l1.18-0.42v-0.36c0-0.84-0.4-1.18-1.21-1.18
						c-0.73,0-1.48,0.34-2.13,1.11v-1.46c0.52-0.61,1.26-0.92,2.23-0.92c1.37,0,2.44,0.69,2.44,2.22v3.46
						c0,0.25,0.09,0.34,0.26,0.34c0.13,0,0.4-0.13,0.7-0.36V286.94z M124.78,284c-1.14,0.39-2.13,0.78-2.13,1.58
						c0,0.55,0.41,0.95,0.96,0.95c0.42,0,0.81-0.21,1.17-0.56V284z"/>
					<path d="M129.68,280.6v1.54h0.03c0.67-1.19,1.32-1.68,1.95-1.68c0.54,0,1.05,0.26,1.6,0.78l-0.7,1.16
						c-0.41-0.39-0.93-0.66-1.25-0.66c-0.92,0-1.63,0.92-1.63,2.07v3.52h-1.33v-6.73H129.68z"/>
				</g>
				<g class="st1">
				</g>
				<g class="st1">
					<path d="M150.82,290.78h-1.33V280.6h2.31c2.46,0,3.79,1.2,3.79,3.42c0,2.02-1.42,3.45-3.42,3.45c-0.43,0-0.84-0.09-1.35-0.3
						V290.78z M150.82,285.96c0.4,0.2,0.84,0.3,1.26,0.3c1.25,0,2.14-0.96,2.14-2.26c0-1.39-0.73-2.21-2.19-2.21h-1.21V285.96z"/>
					<path d="M162.29,286.94c-0.62,0.4-0.87,0.52-1.29,0.52c-0.58,0-0.9-0.21-1.02-0.69c-0.58,0.46-1.2,0.69-1.82,0.69
						c-0.99,0-1.65-0.78-1.65-1.65c0-1.33,1.21-1.74,2.29-2.13l1.18-0.42v-0.36c0-0.84-0.41-1.18-1.21-1.18
						c-0.74,0-1.49,0.34-2.13,1.11v-1.46c0.52-0.61,1.26-0.92,2.23-0.92c1.37,0,2.45,0.69,2.45,2.22v3.46
						c0,0.25,0.09,0.34,0.25,0.34c0.13,0,0.41-0.13,0.71-0.36V286.94z M160,284c-1.14,0.39-2.13,0.78-2.13,1.58
						c0,0.55,0.41,0.95,0.96,0.95c0.42,0,0.81-0.21,1.17-0.56V284z"/>
					<path d="M164.91,280.6v1.54h0.03c0.67-1.19,1.32-1.68,1.95-1.68c0.54,0,1.05,0.26,1.6,0.78l-0.7,1.16
						c-0.41-0.39-0.93-0.66-1.25-0.66c-0.92,0-1.63,0.92-1.63,2.07v3.52h-1.33v-6.73H164.91z"/>
					<path d="M174.64,286.94c-0.62,0.4-0.87,0.52-1.29,0.52c-0.58,0-0.9-0.21-1.02-0.69c-0.58,0.46-1.2,0.69-1.82,0.69
						c-0.99,0-1.65-0.78-1.65-1.65c0-1.33,1.21-1.74,2.29-2.13l1.18-0.42v-0.36c0-0.84-0.41-1.18-1.21-1.18
						c-0.74,0-1.49,0.34-2.13,1.11v-1.46c0.52-0.61,1.26-0.92,2.23-0.92c1.37,0,2.45,0.69,2.45,2.22v3.46
						c0,0.25,0.09,0.34,0.25,0.34c0.13,0,0.41-0.13,0.71-0.36V286.94z M172.34,284c-1.14,0.39-2.13,0.78-2.13,1.58
						c0,0.55,0.41,0.95,0.96,0.95c0.42,0,0.81-0.21,1.17-0.56V284z"/>
				</g>
				<g class="st1">
				</g>
				<g class="st1">
					<path d="M195.57,287.22c-0.49,0.15-0.97,0.24-1.35,0.24c-2,0-3.42-1.42-3.42-3.45c0-1.08,0.54-3.42,3.65-3.42h2.46v10.18h-1.33
						V287.22z M194.35,281.79c-1.06,0-2.19,0.68-2.19,2.21c0,1.3,0.9,2.34,2.14,2.34c0.42,0,0.86-0.1,1.26-0.3v-4.25H194.35z"/>
					<path d="M202.98,287.33v-0.85c-0.55,0.6-1.33,0.99-1.99,0.99c-1.37,0-2.33-0.97-2.33-2.68v-4.18H200v4.27
						c0,0.95,0.46,1.49,1.38,1.49c0.6,0,1.17-0.33,1.6-0.95v-4.81h1.33v6.73H202.98z"/>
					<path d="M211.42,286.94c-0.62,0.4-0.87,0.52-1.29,0.52c-0.58,0-0.9-0.21-1.02-0.69c-0.58,0.46-1.2,0.69-1.82,0.69
						c-0.99,0-1.65-0.78-1.65-1.65c0-1.33,1.21-1.74,2.29-2.13l1.18-0.42v-0.36c0-0.84-0.41-1.18-1.21-1.18
						c-0.74,0-1.49,0.34-2.13,1.11v-1.46c0.52-0.61,1.26-0.92,2.23-0.92c1.37,0,2.45,0.69,2.45,2.22v3.46
						c0,0.25,0.09,0.34,0.25,0.34c0.13,0,0.41-0.13,0.71-0.36V286.94z M209.13,284c-1.14,0.39-2.13,0.78-2.13,1.58
						c0,0.55,0.41,0.95,0.96,0.95c0.42,0,0.81-0.21,1.17-0.56V284z"/>
					<path d="M213.97,287.33h-1.33V277.1h1.33V287.33z"/>
					<path d="M220.26,287.22c-0.5,0.15-0.97,0.24-1.35,0.24c-2,0-3.42-1.42-3.42-3.45c0-1.08,0.54-3.42,3.64-3.42h2.46v10.18h-1.33
						V287.22z M219.04,281.79c-1.07,0-2.19,0.68-2.19,2.21c0,1.3,0.9,2.34,2.15,2.34c0.42,0,0.85-0.1,1.26-0.3v-4.25H219.04z"/>
					<path d="M227.67,287.33v-0.85c-0.55,0.6-1.33,0.99-2,0.99c-1.37,0-2.33-0.97-2.33-2.68v-4.18h1.33v4.27
						c0,0.95,0.46,1.49,1.38,1.49c0.6,0,1.17-0.33,1.61-0.95v-4.81H229v6.73H227.67z"/>
					<path d="M236.52,286.67c-0.81,0.54-1.54,0.79-2.68,0.79c-2.1,0-3.27-1.72-3.27-3.58c0-2.04,1.29-3.42,3.15-3.42
						c1.79,0,2.92,1.22,2.92,3.71h-4.74c0.21,1.33,0.98,2.03,2.27,2.03c0.81,0,1.57-0.3,2.35-0.81V286.67z M235.32,283.28
						c-0.04-1.02-0.63-1.67-1.57-1.67c-1.02,0-1.64,0.6-1.82,1.67H235.32z"/>
					<path d="M239.5,280.6v1.54h0.03c0.67-1.19,1.32-1.68,1.95-1.68c0.54,0,1.05,0.26,1.6,0.78l-0.7,1.16
						c-0.41-0.39-0.93-0.66-1.25-0.66c-0.92,0-1.63,0.92-1.63,2.07v3.52h-1.33v-6.73H239.5z"/>
				</g>
				<g class="st1">
					<path d="M40.13,303.9c0,2.13-1.48,3.57-3.65,3.57c-2.07,0-3.55-1.5-3.55-3.57c0-1.94,1.54-3.44,3.55-3.44
						C38.6,300.46,40.13,301.9,40.13,303.9z M34.29,303.9c0,1.42,0.89,2.37,2.18,2.37c1.41,0,2.29-0.9,2.29-2.35
						c0-1.3-0.96-2.25-2.29-2.25C35.21,301.66,34.29,302.61,34.29,303.9z"/>
					<path d="M45.89,307.33v-0.85c-0.55,0.6-1.33,0.99-1.99,0.99c-1.37,0-2.33-0.97-2.33-2.68v-4.18h1.33v4.27
						c0,0.95,0.46,1.49,1.38,1.49c0.6,0,1.17-0.33,1.6-0.95v-4.81h1.33v6.73H45.89z"/>
					<path d="M50.67,300.6h2.13v1.2h-2.13v3.45c0,0.79,0.57,1.02,0.96,1.02c0.48,0,0.98-0.16,1.52-0.49v1.24
						c-0.47,0.26-1.19,0.45-1.62,0.45c-1.46,0-2.19-0.9-2.19-2.11v-3.56h-1.17v-0.15l2.5-2.45V300.6z"/>
				</g>
				<g class="st1">
					<path d="M55.53,300.6v1.54h0.03c0.67-1.19,1.32-1.68,1.95-1.68c0.54,0,1.05,0.26,1.6,0.78l-0.7,1.16
						c-0.41-0.39-0.93-0.66-1.25-0.66c-0.92,0-1.63,0.92-1.63,2.07v3.52H54.2v-6.73H55.53z"/>
				</g>
				<g class="st1">
					<path d="M66.47,303.9c0,2.13-1.48,3.57-3.65,3.57c-2.07,0-3.55-1.5-3.55-3.57c0-1.94,1.54-3.44,3.55-3.44
						C64.94,300.46,66.47,301.9,66.47,303.9z M60.63,303.9c0,1.42,0.89,2.37,2.18,2.37c1.41,0,2.29-0.9,2.29-2.35
						c0-1.3-0.96-2.25-2.29-2.25C61.55,301.66,60.63,302.61,60.63,303.9z"/>
					<path d="M77.75,306.67c-0.81,0.54-1.54,0.79-2.69,0.79c-2.1,0-3.27-1.72-3.27-3.58c0-2.04,1.29-3.42,3.15-3.42
						c1.79,0,2.93,1.22,2.93,3.71h-4.74c0.21,1.33,0.98,2.03,2.27,2.03c0.81,0,1.57-0.3,2.35-0.81V306.67z M76.55,303.28
						c-0.04-1.02-0.63-1.67-1.57-1.67c-1.02,0-1.64,0.6-1.81,1.67H76.55z"/>
					<path d="M82.89,303.91l2.97,3.42h-1.71l-2.11-2.42l-2,2.42h-1.68l2.83-3.42l-2.83-3.31h1.68l2,2.31l1.92-2.31h1.71
						L82.89,303.91z"/>
					<path d="M91.76,302.35c-0.76-0.51-1.27-0.66-1.86-0.66c-1.21,0-2.05,0.92-2.05,2.28c0,1.39,0.9,2.23,2.28,2.23
						c0.57,0,1.11-0.15,1.79-0.45v1.32c-0.45,0.21-1.31,0.39-2.01,0.39c-2.01,0-3.42-1.39-3.42-3.38c0-2.22,1.29-3.63,3.33-3.63
						c0.78,0,1.31,0.18,1.95,0.47V302.35z"/>
					<path d="M99,306.67c-0.81,0.54-1.54,0.79-2.69,0.79c-2.1,0-3.27-1.72-3.27-3.58c0-2.04,1.29-3.42,3.15-3.42
						c1.79,0,2.93,1.22,2.93,3.71h-4.74c0.21,1.33,0.98,2.03,2.27,2.03c0.81,0,1.57-0.3,2.35-0.81V306.67z M97.8,303.28
						c-0.04-1.02-0.63-1.67-1.57-1.67c-1.02,0-1.64,0.6-1.81,1.67H97.8z"/>
					<path d="M102.12,300.6h2.13v1.2h-2.13v3.45c0,0.79,0.57,1.02,0.96,1.02c0.48,0,0.98-0.16,1.52-0.49v1.24
						c-0.47,0.26-1.19,0.45-1.62,0.45c-1.46,0-2.19-0.9-2.19-2.11v-3.56h-1.17v-0.15l2.5-2.45V300.6z"/>
					<path d="M112.35,303.9c0,2.13-1.48,3.57-3.65,3.57c-2.07,0-3.55-1.5-3.55-3.57c0-1.94,1.54-3.44,3.55-3.44
						C110.82,300.46,112.35,301.9,112.35,303.9z M106.52,303.9c0,1.42,0.89,2.37,2.17,2.37c1.41,0,2.29-0.9,2.29-2.35
						c0-1.3-0.96-2.25-2.29-2.25C107.43,301.66,106.52,302.61,106.52,303.9z"/>
					<path d="M123.66,298.42h-3.99v2.83h3.99v1.32h-3.99v4.75h-1.47V297.1h5.46V298.42z"/>
					<path d="M125.75,299.35c-0.44,0-0.79-0.36-0.79-0.79c0-0.44,0.36-0.79,0.79-0.79s0.79,0.36,0.79,0.79
						C126.54,298.99,126.18,299.35,125.75,299.35z M126.41,307.33h-1.33v-6.73h1.33V307.33z"/>
					<path d="M129.69,307.33h-1.33V297.1h1.33V307.33z"/>
					<path d="M133.17,300.6h2.13v1.2h-2.13v3.45c0,0.79,0.57,1.02,0.96,1.02c0.48,0,0.98-0.16,1.52-0.49v1.24
						c-0.47,0.26-1.19,0.45-1.62,0.45c-1.46,0-2.19-0.9-2.19-2.11v-3.56h-1.17v-0.15l2.5-2.45V300.6z"/>
					<path d="M138.03,300.6v1.54h0.03c0.67-1.19,1.32-1.68,1.95-1.68c0.54,0,1.05,0.26,1.6,0.78l-0.7,1.16
						c-0.41-0.39-0.93-0.66-1.25-0.66c-0.91,0-1.63,0.92-1.63,2.07v3.52h-1.33v-6.73H138.03z"/>
					<path d="M147.77,306.94c-0.61,0.4-0.87,0.52-1.29,0.52c-0.58,0-0.9-0.21-1.02-0.69c-0.59,0.46-1.2,0.69-1.82,0.69
						c-0.99,0-1.65-0.78-1.65-1.65c0-1.33,1.21-1.74,2.29-2.13l1.18-0.42v-0.36c0-0.84-0.4-1.18-1.21-1.18
						c-0.73,0-1.48,0.34-2.13,1.11v-1.46c0.52-0.61,1.26-0.92,2.23-0.92c1.37,0,2.45,0.69,2.45,2.22v3.46
						c0,0.25,0.09,0.34,0.25,0.34c0.13,0,0.41-0.13,0.7-0.36V306.94z M145.47,304c-1.14,0.39-2.13,0.78-2.13,1.58
						c0,0.55,0.4,0.95,0.96,0.95c0.42,0,0.81-0.21,1.17-0.56V304z"/>
					<path d="M154.77,307.33h-2.84c-2.01,0-3.27-1.37-3.27-3.52c0-1.95,1.39-3.35,3.36-3.35c0.45,0,0.87,0.08,1.41,0.27v-3.63h1.34
						V307.33z M153.44,301.92c-0.45-0.18-0.79-0.25-1.24-0.25c-1.29,0-2.16,0.93-2.16,2.34c0,1.26,0.51,2.21,2.05,2.21h1.35V301.92z
						"/>
					<path d="M163.4,303.9c0,2.13-1.49,3.57-3.65,3.57c-2.07,0-3.55-1.5-3.55-3.57c0-1.94,1.54-3.44,3.55-3.44
						C161.87,300.46,163.4,301.9,163.4,303.9z M157.56,303.9c0,1.42,0.89,2.37,2.18,2.37c1.41,0,2.29-0.9,2.29-2.35
						c0-1.3-0.96-2.25-2.29-2.25C158.48,301.66,157.56,302.61,157.56,303.9z"/>
					<path d="M166.31,300.6v1.54h0.03c0.67-1.19,1.32-1.68,1.95-1.68c0.54,0,1.05,0.26,1.61,0.78l-0.71,1.16
						c-0.4-0.39-0.93-0.66-1.24-0.66c-0.92,0-1.63,0.92-1.63,2.07v3.52h-1.34v-6.73H166.31z"/>
					<path d="M180.62,306.67c-0.81,0.54-1.54,0.79-2.68,0.79c-2.1,0-3.27-1.72-3.27-3.58c0-2.04,1.29-3.42,3.15-3.42
						c1.79,0,2.93,1.22,2.93,3.71H176c0.21,1.33,0.97,2.03,2.26,2.03c0.81,0,1.58-0.3,2.35-0.81V306.67z M179.42,303.28
						c-0.04-1.02-0.63-1.67-1.58-1.67c-1.02,0-1.64,0.6-1.82,1.67H179.42z"/>
					<path d="M189.65,297.1c2.24,0,3.25,1.32,3.25,2.94c0,1.61-1.08,2.87-3.45,2.87h-1.53v4.42h-1.47V297.1H189.65z M187.92,301.58
						h1.67c1.09,0,1.8-0.58,1.8-1.6c0-0.75-0.41-1.56-1.74-1.56h-1.72V301.58z"/>
					<path d="M199.22,306.94c-0.61,0.4-0.87,0.52-1.29,0.52c-0.58,0-0.9-0.21-1.02-0.69c-0.59,0.46-1.2,0.69-1.82,0.69
						c-0.99,0-1.65-0.78-1.65-1.65c0-1.33,1.21-1.74,2.29-2.13l1.18-0.42v-0.36c0-0.84-0.4-1.18-1.21-1.18
						c-0.73,0-1.48,0.34-2.13,1.11v-1.46c0.52-0.61,1.26-0.92,2.23-0.92c1.37,0,2.45,0.69,2.45,2.22v3.46
						c0,0.25,0.09,0.34,0.25,0.34c0.13,0,0.41-0.13,0.7-0.36V306.94z M196.92,304c-1.14,0.39-2.13,0.78-2.13,1.58
						c0,0.55,0.4,0.95,0.96,0.95c0.42,0,0.81-0.21,1.17-0.56V304z"/>
					<path d="M201.83,300.6v1.54h0.03c0.67-1.19,1.32-1.68,1.95-1.68c0.54,0,1.05,0.26,1.61,0.78l-0.71,1.16
						c-0.4-0.39-0.93-0.66-1.24-0.66c-0.92,0-1.63,0.92-1.63,2.07v3.52h-1.34v-6.73H201.83z"/>
					<path d="M211.56,306.94c-0.62,0.4-0.87,0.52-1.29,0.52c-0.58,0-0.9-0.21-1.02-0.69c-0.58,0.46-1.2,0.69-1.81,0.69
						c-0.99,0-1.65-0.78-1.65-1.65c0-1.33,1.21-1.74,2.29-2.13l1.19-0.42v-0.36c0-0.84-0.41-1.18-1.21-1.18
						c-0.74,0-1.49,0.34-2.13,1.11v-1.46c0.53-0.61,1.26-0.92,2.24-0.92c1.37,0,2.44,0.69,2.44,2.22v3.46
						c0,0.25,0.09,0.34,0.26,0.34c0.13,0,0.4-0.13,0.71-0.36V306.94z M209.27,304c-1.14,0.39-2.13,0.78-2.13,1.58
						c0,0.55,0.41,0.95,0.96,0.95c0.42,0,0.81-0.21,1.17-0.56V304z"/>
					<path d="M216.66,302.33c-0.75-0.5-1.46-0.71-1.95-0.71c-0.54,0-0.88,0.26-0.88,0.62c0,0.3,0.45,0.66,1.63,1.35
						c1.11,0.73,1.51,1.2,1.51,1.89c0,1.18-0.94,1.98-2.22,1.98c-0.83,0-1.47-0.17-2.34-0.62v-1.44c0.87,0.6,1.67,0.88,2.21,0.88
						c0.54-0.03,0.99-0.29,0.99-0.76c0-0.93-3.15-1.42-3.15-3.24c0-1.14,0.87-1.83,2.22-1.83c0.63,0,1.28,0.18,1.98,0.56V302.33z"/>
					<path d="M219.23,299.35c-0.43,0-0.79-0.36-0.79-0.79c0-0.44,0.36-0.79,0.79-0.79c0.44,0,0.79,0.36,0.79,0.79
						C220.02,298.99,219.66,299.35,219.23,299.35z M219.89,307.33h-1.33v-6.73h1.33V307.33z"/>
					<path d="M223.37,300.6h2.13v1.2h-2.13v3.45c0,0.79,0.57,1.02,0.96,1.02c0.48,0,0.98-0.16,1.51-0.49v1.24
						c-0.46,0.26-1.18,0.45-1.62,0.45c-1.46,0-2.19-0.9-2.19-2.11v-3.56h-1.17v-0.15l2.5-2.45V300.6z"/>
					<path d="M232.02,306.94c-0.62,0.4-0.87,0.52-1.29,0.52c-0.59,0-0.9-0.21-1.02-0.69c-0.58,0.46-1.2,0.69-1.82,0.69
						c-0.99,0-1.65-0.78-1.65-1.65c0-1.33,1.21-1.74,2.29-2.13l1.18-0.42v-0.36c0-0.84-0.4-1.18-1.21-1.18
						c-0.73,0-1.48,0.34-2.13,1.11v-1.46c0.52-0.61,1.26-0.92,2.24-0.92c1.37,0,2.44,0.69,2.44,2.22v3.46
						c0,0.25,0.09,0.34,0.25,0.34c0.13,0,0.41-0.13,0.71-0.36V306.94z M229.73,304c-1.14,0.39-2.13,0.78-2.13,1.58
						c0,0.55,0.41,0.95,0.96,0.95c0.42,0,0.81-0.21,1.17-0.56V304z"/>
				</g>
				<g class="st1">
					<path d="M234.76,306.57c0,0.5-0.41,0.9-0.9,0.9c-0.5,0-0.9-0.4-0.9-0.9s0.41-0.9,0.9-0.9
						C234.36,305.67,234.76,306.07,234.76,306.57z"/>
				</g>
				<g class="st1">
					<path d="M29.18,320.12h-3.27l-0.36,2.57h2.89l-0.13,0.97h-2.9l-0.4,2.7h4.31l-0.14,0.97H23.8l1.19-8.18h4.33L29.18,320.12z"/>
					<path d="M33.33,323.41c-0.61-0.47-1.18-0.71-1.62-0.71c-0.42,0-0.73,0.25-0.73,0.56c0,0.77,2.15,1.14,2.15,2.63
						c0,0.97-0.72,1.61-1.67,1.61c-0.67,0-1.1-0.17-1.87-0.71l0.18-0.98c0.71,0.56,1.22,0.8,1.65,0.8c0.41,0,0.7-0.25,0.7-0.6
						c0-0.9-2.11-1.22-2.11-2.69c0-0.92,0.66-1.55,1.69-1.55c0.56,0,1.13,0.22,1.63,0.56V323.41z"/>
					<path d="M37.58,323.41c-0.61-0.47-1.18-0.71-1.62-0.71c-0.42,0-0.73,0.25-0.73,0.56c0,0.77,2.15,1.14,2.15,2.63
						c0,0.97-0.72,1.61-1.67,1.61c-0.67,0-1.1-0.17-1.87-0.71l0.18-0.98c0.71,0.56,1.22,0.8,1.65,0.8c0.41,0,0.7-0.25,0.7-0.6
						c0-0.9-2.11-1.22-2.11-2.69c0-0.92,0.66-1.55,1.69-1.55c0.56,0,1.13,0.22,1.63,0.56V323.41z"/>
					<path d="M42.46,326.9c-0.54,0.4-1.15,0.6-1.8,0.6c-1.37,0-2.25-1.03-2.25-2.6c0-1.76,1.12-3.12,2.55-3.12
						c1.2,0,2.1,1.12,1.87,2.76h-3.36c-0.25,1.44,0.54,2.12,1.38,2.12c0.5,0,1.08-0.24,1.75-0.73L42.46,326.9z M41.89,323.83
						c0-0.68-0.3-1.21-0.97-1.21c-0.6,0-1.01,0.4-1.28,1.21H41.89z"/>
				</g>
				<g class="st1">
				</g>
				<g class="st1">
					<path d="M53.46,326.9c-0.54,0.4-1.15,0.6-1.8,0.6c-1.37,0-2.25-1.03-2.25-2.6c0-1.76,1.12-3.12,2.55-3.12
						c1.2,0,2.1,1.12,1.87,2.76h-3.36c-0.25,1.44,0.54,2.12,1.38,2.12c0.5,0,1.08-0.24,1.75-0.73L53.46,326.9z M52.88,323.83
						c0-0.68-0.3-1.21-0.97-1.21c-0.6,0-1.01,0.4-1.28,1.21H52.88z"/>
				</g>
				<g class="st1">
					<path d="M57.52,322.84h-1.09l-0.86,6.75h-1l0.86-6.75h-0.86l0.13-0.9h0.85c0.11-1.63,0.9-2.9,2.59-2.9
						c0.46,0,0.86,0.1,1.31,0.25l-0.14,1.01c-0.35-0.19-0.74-0.3-1.06-0.3c-1,0-1.58,0.68-1.69,1.94h1.09L57.52,322.84z"/>
				</g>
				<g class="st1">
					<path d="M61.79,326.9c-0.54,0.4-1.15,0.6-1.8,0.6c-1.37,0-2.25-1.03-2.25-2.6c0-1.76,1.12-3.12,2.55-3.12
						c1.2,0,2.1,1.12,1.87,2.76H58.8c-0.25,1.44,0.54,2.12,1.38,2.12c0.5,0,1.08-0.24,1.75-0.73L61.79,326.9z M61.21,323.83
						c0-0.68-0.3-1.21-0.97-1.21c-0.6,0-1.01,0.4-1.28,1.21H61.21z"/>
					<path d="M63.83,327.33h-1.02l0.76-5.38h1.02L63.83,327.33z M64.85,320.25c0,0.32-0.26,0.59-0.59,0.59
						c-0.32,0-0.59-0.26-0.59-0.59s0.26-0.59,0.59-0.59C64.59,319.67,64.85,319.93,64.85,320.25z"/>
					<path d="M68.1,322.74h-1.08l-0.52,2.95c-0.12,0.68,0.04,0.9,0.53,0.9c0.3,0,0.54-0.07,0.98-0.32l-0.06,1
						c-0.43,0.18-0.72,0.24-1.12,0.24c-1.06,0-1.55-0.67-1.4-1.5l0.56-3.26h-0.95l0.12-0.79h0.98l0.2-1.1h1.01l-0.19,1.1h1.03
						L68.1,322.74z"/>
					<path d="M70.62,327.5c-1.27,0-2.03-0.9-2.03-2.41c0-1.88,1.12-3.31,2.58-3.31c1.22,0,2,0.94,2,2.35
						C73.18,326.14,72.04,327.5,70.62,327.5z M70.59,326.62c0.85,0,1.55-1.07,1.55-2.55c0-0.9-0.37-1.49-0.96-1.49
						c-0.88,0-1.54,1.25-1.54,2.61C69.64,326.06,70.06,326.62,70.59,326.62z"/>
				</g>
				<g class="st1">
				</g>
				<g class="st1">
					<path d="M81.59,321.95c0.16-0.06,0.3-0.11,0.44-0.13c0.14-0.02,0.3-0.04,0.47-0.04c1.27,0,2.23,1.07,2.23,2.51
						c0,1.35-0.91,3.21-3.25,3.21h-0.67l-0.36,2.59h-1.02l0.96-6.81c-0.54,0.4-0.8,0.98-0.9,0.98c-0.04,0-0.05-0.02-0.05-0.07
						c0-0.37,0.49-1.2,1.04-1.63l0.28-1.98h1.02L81.59,321.95z M80.94,326.63h0.49c1.57,0,2.27-1.3,2.27-2.35
						c0-1.21-0.75-1.74-1.54-1.74c-0.26,0-0.38,0.02-0.67,0.16L80.94,326.63z"/>
					<path d="M87.62,327.5c-1.27,0-2.03-0.9-2.03-2.41c0-1.88,1.12-3.31,2.58-3.31c1.22,0,2,0.94,2,2.35
						C90.17,326.14,89.03,327.5,87.62,327.5z M87.58,326.62c0.85,0,1.55-1.07,1.55-2.55c0-0.9-0.37-1.49-0.96-1.49
						c-0.88,0-1.54,1.25-1.54,2.61C86.63,326.06,87.05,326.62,87.58,326.62z"/>
					<path d="M95.12,327.33c-0.43,0.12-0.85,0.17-1.38,0.17c-1.81,0-2.83-0.89-2.83-2.5c0-1.15,0.97-3.23,3.54-3.23h0.43l0.37-2.63
						h1.02L95.12,327.33z M94.76,322.63h-0.26c-1.67,0-2.54,1.2-2.54,2.35c0,1.07,0.64,1.68,1.79,1.68c0.16,0,0.3,0,0.47-0.02
						L94.76,322.63z"/>
					<path d="M100.67,326.9c-0.54,0.4-1.15,0.6-1.8,0.6c-1.37,0-2.25-1.03-2.25-2.6c0-1.76,1.12-3.12,2.55-3.12
						c1.2,0,2.1,1.12,1.87,2.76h-3.36c-0.25,1.44,0.54,2.12,1.38,2.12c0.5,0,1.08-0.24,1.75-0.73L100.67,326.9z M100.1,323.83
						c0-0.68-0.3-1.21-0.97-1.21c-0.6,0-1.01,0.4-1.28,1.21H100.1z"/>
				</g>
				<g class="st1">
				</g>
				<g class="st1">
					<path d="M111.04,323.41c-0.61-0.47-1.18-0.71-1.62-0.71c-0.42,0-0.73,0.25-0.73,0.56c0,0.77,2.15,1.14,2.15,2.63
						c0,0.97-0.72,1.61-1.67,1.61c-0.67,0-1.1-0.17-1.87-0.71l0.18-0.98c0.71,0.56,1.22,0.8,1.65,0.8c0.41,0,0.7-0.25,0.7-0.6
						c0-0.9-2.11-1.22-2.11-2.69c0-0.92,0.66-1.55,1.69-1.55c0.56,0,1.13,0.22,1.63,0.56V323.41z"/>
					<path d="M115.93,326.9c-0.54,0.4-1.15,0.6-1.8,0.6c-1.37,0-2.25-1.03-2.25-2.6c0-1.76,1.12-3.12,2.55-3.12
						c1.2,0,2.1,1.12,1.87,2.76h-3.36c-0.25,1.44,0.54,2.12,1.38,2.12c0.5,0,1.08-0.24,1.75-0.73L115.93,326.9z M115.35,323.83
						c0-0.68-0.3-1.21-0.97-1.21c-0.6,0-1.01,0.4-1.28,1.21H115.35z"/>
					<path d="M118.74,322.96l0.02,0.02c0.64-0.91,0.91-1.13,1.43-1.13c0.16,0,0.26,0.01,0.44,0.08v1.15
						c-0.24-0.13-0.41-0.18-0.62-0.18c-0.53,0-0.89,0.32-1.45,1.38l-0.42,3.03h-1.02l0.76-5.38h1.02L118.74,322.96z"/>
				</g>
				<g class="st1">
				</g>
				<g class="st1">
					<path d="M130.63,327.33h-1.01l0.12-0.89l-0.02-0.02c-0.42,0.44-1.04,1-1.77,1c-0.6,0-1.48-0.43-1.27-1.92l0.5-3.55h1.02
						l-0.5,3.55c-0.13,0.96,0.3,1.14,0.58,1.14c0.4,0,0.89-0.31,1.62-1.19l0.49-3.5h1.02L130.63,327.33z"/>
					<path d="M135.11,322.74h-1.08l-0.52,2.95c-0.12,0.68,0.04,0.9,0.53,0.9c0.3,0,0.54-0.07,0.98-0.32l-0.06,1
						c-0.43,0.18-0.72,0.24-1.12,0.24c-1.06,0-1.55-0.67-1.4-1.5l0.56-3.26h-0.95l0.12-0.79h0.98l0.2-1.1h1.01l-0.19,1.1h1.03
						L135.11,322.74z"/>
					<path d="M136.47,327.33h-1.02l0.76-5.38h1.02L136.47,327.33z M137.49,320.25c0,0.32-0.26,0.59-0.59,0.59
						c-0.32,0-0.59-0.26-0.59-0.59s0.26-0.59,0.59-0.59C137.22,319.67,137.49,319.93,137.49,320.25z"/>
					<path d="M138.72,327.33h-1.02l1.15-8.18h1.02L138.72,327.33z"/>
					<path d="M140.98,327.33h-1.02l0.75-5.38h1.02L140.98,327.33z M142,320.25c0,0.32-0.26,0.59-0.59,0.59
						c-0.32,0-0.59-0.26-0.59-0.59s0.26-0.59,0.59-0.59C141.73,319.67,142,319.93,142,320.25z"/>
					<path d="M143.72,326.43h3.13l-0.19,0.9h-4.88l3.51-4.49h-2.72l0.12-0.9h4.61L143.72,326.43z"/>
					<path d="M152.03,327.33h-1.02l0.1-0.62l-0.02-0.02c-0.42,0.46-0.94,0.76-1.45,0.76c-1,0-1.77-0.96-1.77-2.14
						c0-1.71,1.03-3.53,3.66-3.53c0.38,0,0.97,0.07,1.27,0.17L152.03,327.33z M151.67,322.67c-2.33-0.19-2.77,1.74-2.77,2.46
						c0,0.86,0.44,1.48,1.07,1.48c0.41,0,0.95-0.41,1.26-0.83L151.67,322.67z"/>
					<path d="M157.64,327.33c-0.43,0.12-0.85,0.17-1.38,0.17c-1.81,0-2.83-0.89-2.83-2.5c0-1.15,0.97-3.23,3.54-3.23h0.43l0.37-2.63
						h1.02L157.64,327.33z M157.28,322.63h-0.26c-1.67,0-2.54,1.2-2.54,2.35c0,1.07,0.64,1.68,1.79,1.68c0.16,0,0.3,0,0.47-0.02
						L157.28,322.63z"/>
					<path d="M161.15,327.5c-1.27,0-2.03-0.9-2.03-2.41c0-1.88,1.12-3.31,2.58-3.31c1.22,0,2,0.94,2,2.35
						C163.7,326.14,162.56,327.5,161.15,327.5z M161.11,326.62c0.85,0,1.55-1.07,1.55-2.55c0-0.9-0.37-1.49-0.96-1.49
						c-0.88,0-1.54,1.25-1.54,2.61C160.16,326.06,160.58,326.62,161.11,326.62z"/>
				</g>
				<g class="st1">
				</g>
				<g class="st1">
					<path d="M174.41,327.33h-1.02l0.1-0.62l-0.02-0.02c-0.42,0.46-0.94,0.76-1.45,0.76c-1,0-1.77-0.96-1.77-2.14
						c0-1.71,1.03-3.53,3.66-3.53c0.38,0,0.97,0.07,1.27,0.17L174.41,327.33z M174.05,322.67c-2.33-0.19-2.77,1.74-2.77,2.46
						c0,0.86,0.44,1.48,1.07,1.48c0.41,0,0.95-0.41,1.26-0.83L174.05,322.67z"/>
					<path d="M178.76,322.74h-1.08l-0.52,2.95c-0.12,0.68,0.04,0.9,0.53,0.9c0.3,0,0.54-0.07,0.98-0.32l-0.06,1
						c-0.43,0.18-0.72,0.24-1.12,0.24c-1.06,0-1.55-0.67-1.4-1.5l0.56-3.26h-0.95l0.12-0.79h0.98l0.2-1.1h1.01l-0.19,1.1h1.03
						L178.76,322.74z"/>
					<path d="M183.33,326.9c-0.54,0.4-1.15,0.6-1.8,0.6c-1.37,0-2.25-1.03-2.25-2.6c0-1.76,1.12-3.12,2.55-3.12
						c1.2,0,2.1,1.12,1.87,2.76h-3.36c-0.25,1.44,0.54,2.12,1.38,2.12c0.5,0,1.08-0.24,1.75-0.73L183.33,326.9z M182.75,323.83
						c0-0.68-0.3-1.21-0.97-1.21c-0.6,0-1.01,0.4-1.28,1.21H182.75z M183.38,319.29l-1.36,1.75h-0.67l0.82-1.75H183.38z"/>
				</g>
				<g class="st1">
				</g>
				<g class="st1">
					<path d="M191.51,319.4c0.55-0.24,1.13-0.36,1.69-0.36c1.33,0,2.19,0.84,2.19,2.12c0,0.9-0.55,1.57-1.59,1.96
						c0.73,0.31,1.1,0.92,1.1,1.85c0,0.92-0.7,2.47-2.84,2.47c-0.76,0-1.44-0.22-1.97-0.46l0.14-0.97c0.54,0.26,1.04,0.46,1.78,0.46
						c1.06,0,1.76-0.6,1.76-1.5c0-1-0.83-1.43-1.49-1.37l0.13-0.97c1.26-0.08,1.85-0.82,1.85-1.45c0-0.7-0.5-1.16-1.28-1.16
						c-0.54,0-1.14,0.19-1.63,0.52L191.51,319.4z"/>
				</g>
				<g class="st1">
				</g>
				<g class="st1">
					<path d="M203.97,327.44h-0.5l-1.22-5.49h1.01l0.71,3.42h0.02l1.73-3.42h1.03L203.97,327.44z"/>
					<path d="M210.82,326.9c-0.54,0.4-1.15,0.6-1.8,0.6c-1.37,0-2.25-1.03-2.25-2.6c0-1.76,1.12-3.12,2.55-3.12
						c1.2,0,2.1,1.12,1.87,2.76h-3.36c-0.25,1.44,0.54,2.12,1.38,2.12c0.5,0,1.08-0.24,1.75-0.73L210.82,326.9z M210.24,323.83
						c0-0.68-0.3-1.21-0.97-1.21c-0.6,0-1.01,0.4-1.28,1.21H210.24z"/>
				</g>
				<g class="st1">
					<path d="M213.35,326.43h3.13l-0.19,0.9h-4.88l3.51-4.49h-2.72l0.12-0.9h4.61L213.35,326.43z"/>
				</g>
				<g class="st1">
					<path d="M221.33,326.9c-0.54,0.4-1.15,0.6-1.8,0.6c-1.37,0-2.25-1.03-2.25-2.6c0-1.76,1.12-3.12,2.55-3.12
						c1.2,0,2.1,1.12,1.87,2.76h-3.36c-0.25,1.44,0.54,2.12,1.38,2.12c0.5,0,1.08-0.24,1.75-0.73L221.33,326.9z M220.75,323.83
						c0-0.68-0.3-1.21-0.97-1.21c-0.6,0-1.01,0.4-1.28,1.21H220.75z"/>
					<path d="M225.95,323.41c-0.61-0.47-1.18-0.71-1.62-0.71c-0.42,0-0.73,0.25-0.73,0.56c0,0.77,2.15,1.14,2.15,2.63
						c0,0.97-0.72,1.61-1.67,1.61c-0.67,0-1.1-0.17-1.87-0.71l0.18-0.98c0.71,0.56,1.22,0.8,1.66,0.8c0.41,0,0.7-0.25,0.7-0.6
						c0-0.9-2.11-1.22-2.11-2.69c0-0.92,0.66-1.55,1.69-1.55c0.56,0,1.13,0.22,1.63,0.56V323.41z"/>
				</g>
				<g class="st1">
				</g>
				<g class="st1">
					<path d="M236.66,327.33h-1.02l0.1-0.62l-0.02-0.02c-0.42,0.46-0.94,0.76-1.45,0.76c-1,0-1.77-0.96-1.77-2.14
						c0-1.71,1.03-3.53,3.66-3.53c0.38,0,0.97,0.07,1.27,0.17L236.66,327.33z M236.3,322.67c-2.33-0.19-2.77,1.74-2.77,2.46
						c0,0.86,0.44,1.48,1.07,1.48c0.41,0,0.95-0.41,1.26-0.83L236.3,322.67z"/>
					<path d="M240.16,327.5c-1.27,0-2.03-0.9-2.03-2.41c0-1.88,1.12-3.31,2.58-3.31c1.22,0,2,0.94,2,2.35
						C242.71,326.14,241.57,327.5,240.16,327.5z M240.12,326.62c0.85,0,1.55-1.07,1.55-2.55c0-0.9-0.37-1.49-0.96-1.49
						c-0.88,0-1.54,1.25-1.54,2.61C239.17,326.06,239.59,326.62,240.12,326.62z"/>
				</g>
				<g class="st1">
					<path d="M104.31,347.33h-1.02l1.15-8.18h1.02L104.31,347.33z"/>
					<path d="M107.72,347.5c-1.27,0-2.03-0.9-2.03-2.41c0-1.88,1.12-3.31,2.58-3.31c1.22,0,2,0.94,2,2.35
						C110.28,346.14,109.14,347.5,107.72,347.5z M107.69,346.62c0.85,0,1.55-1.07,1.55-2.55c0-0.9-0.37-1.49-0.96-1.49
						c-0.88,0-1.54,1.25-1.54,2.61C106.74,346.06,107.16,346.62,107.69,346.62z"/>
					<path d="M112.64,342.89l0.02,0.02c0.59-0.72,1.19-1.05,1.79-1.05c1.14,0,1.43,1.19,1.28,2.07l-0.52,3.39h-1.01l0.49-3.43
						c0.13-0.94-0.28-1.2-0.59-1.2c-0.29,0-0.85,0.2-1.62,1.2l-0.49,3.43H111l0.75-5.38h1.02L112.64,342.89z"/>
				</g>
				<g class="st1">
					<path d="M121.5,342.74h-1.04c0.28,0.4,0.36,0.7,0.36,1.07c0,0.9-0.43,1.61-1.26,1.96c-0.64,0.26-1.83,0.2-1.83,0.72
						c0,0.67,2.95,0.29,2.95,2.08c0,0.89-0.92,1.54-2.19,1.54c-1.36,0-2.34-0.59-2.34-1.39c0-0.64,0.73-0.92,1.55-1.09v-0.02
						c-0.67-0.25-0.94-0.53-0.94-0.95c0-0.44,0.46-0.83,1.07-1c-0.64-0.3-0.97-0.84-0.97-1.55c0-1.24,0.91-2.15,2-2.15h2.76
						L121.5,342.74z M118.5,347.88c-0.7,0.13-1.39,0.43-1.39,0.79c0,0.4,0.55,0.65,1.45,0.65c0.7,0,1.14-0.28,1.14-0.67
						C119.7,348.31,119.14,348.03,118.5,347.88z M118.88,342.77c-0.55,0-1.07,0.6-1.07,1.25c0,0.64,0.41,1.09,0.97,1.09
						c0.67,0,1.06-0.66,1.06-1.26C119.84,343.22,119.44,342.77,118.88,342.77z"/>
				</g>
				<g class="st1">
					<path d="M123.74,347.5c-1.27,0-2.03-0.9-2.03-2.41c0-1.88,1.12-3.31,2.58-3.31c1.22,0,2,0.94,2,2.35
						C126.29,346.14,125.15,347.5,123.74,347.5z M123.7,346.62c0.85,0,1.55-1.07,1.55-2.55c0-0.9-0.37-1.49-0.96-1.49
						c-0.88,0-1.54,1.25-1.54,2.61C122.75,346.06,123.17,346.62,123.7,346.62z"/>
					<path d="M134.57,347.33c-0.43,0.12-0.85,0.17-1.38,0.17c-1.81,0-2.83-0.89-2.83-2.5c0-1.15,0.97-3.23,3.54-3.23h0.43l0.37-2.63
						h1.02L134.57,347.33z M134.21,342.63h-0.26c-1.67,0-2.54,1.2-2.54,2.35c0,1.07,0.64,1.68,1.79,1.68c0.16,0,0.3,0,0.47-0.02
						L134.21,342.63z"/>
					<path d="M138.08,347.5c-1.27,0-2.03-0.9-2.03-2.41c0-1.88,1.12-3.31,2.58-3.31c1.22,0,2,0.94,2,2.35
						C140.63,346.14,139.49,347.5,138.08,347.5z M138.04,346.62c0.85,0,1.55-1.07,1.55-2.55c0-0.9-0.37-1.49-0.96-1.49
						c-0.88,0-1.54,1.25-1.54,2.61C137.09,346.06,137.51,346.62,138.04,346.62z"/>
					<path d="M145.36,341.95h1.02l-0.83,6.48c-0.16,1.22-0.98,1.67-1.86,1.67c-0.19,0-0.43-0.04-0.6-0.11l0.13-0.9
						c0.76,0.18,1.22-0.01,1.34-0.95L145.36,341.95z M146.05,340.84c-0.32,0-0.59-0.26-0.59-0.59s0.26-0.59,0.59-0.59
						s0.59,0.26,0.59,0.59S146.37,340.84,146.05,340.84z"/>
				</g>
				<g class="st1">
					<path d="M149.05,347.5c-1.27,0-2.03-0.9-2.03-2.41c0-1.88,1.12-3.31,2.58-3.31c1.22,0,2,0.94,2,2.35
						C151.6,346.14,150.46,347.5,149.05,347.5z M149.01,346.62c0.85,0,1.55-1.07,1.55-2.55c0-0.9-0.37-1.49-0.96-1.49
						c-0.88,0-1.54,1.25-1.54,2.61C148.07,346.06,148.49,346.62,149.01,346.62z"/>
					<path d="M156.96,342.74h-1.04c0.28,0.4,0.36,0.7,0.36,1.07c0,0.9-0.43,1.61-1.26,1.96c-0.64,0.26-1.83,0.2-1.83,0.72
						c0,0.67,2.95,0.29,2.95,2.08c0,0.89-0.92,1.54-2.2,1.54c-1.35,0-2.34-0.59-2.34-1.39c0-0.64,0.73-0.92,1.55-1.09v-0.02
						c-0.67-0.25-0.94-0.53-0.94-0.95c0-0.44,0.46-0.83,1.07-1c-0.64-0.3-0.97-0.84-0.97-1.55c0-1.24,0.91-2.15,2-2.15h2.76
						L156.96,342.74z M153.96,347.88c-0.7,0.13-1.39,0.43-1.39,0.79c0,0.4,0.55,0.65,1.45,0.65c0.7,0,1.14-0.28,1.14-0.67
						C155.16,348.31,154.59,348.03,153.96,347.88z M154.34,342.77c-0.55,0-1.07,0.6-1.07,1.25c0,0.64,0.41,1.09,0.97,1.09
						c0.67,0,1.06-0.66,1.06-1.26C155.3,343.22,154.89,342.77,154.34,342.77z"/>
				</g>
				<g class="st1">
					<path d="M159.31,347.5c-1.27,0-2.03-0.9-2.03-2.41c0-1.88,1.12-3.31,2.58-3.31c1.22,0,2,0.94,2,2.35
						C161.86,346.14,160.72,347.5,159.31,347.5z M159.27,346.62c0.85,0,1.55-1.07,1.55-2.55c0-0.9-0.37-1.49-0.96-1.49
						c-0.88,0-1.54,1.25-1.54,2.61C158.33,346.06,158.75,346.62,159.27,346.62z"/>
				</g>
				<g class="st1">
					<path d="M163.81,346.8c0,0.38-0.31,0.7-0.7,0.7c-0.38,0-0.7-0.31-0.7-0.7s0.31-0.7,0.7-0.7
						C163.5,346.11,163.81,346.42,163.81,346.8z"/>
				</g>
				<g id="Border">
					<g id="Outer_Line">
						<path d="M269.19,1.39v379.89H1.39V1.39H269.19 M270.58,0H0v382.68h270.58V0z"/>
					</g>
					<path d="M266.68,4.47V378.2H3.9V4.47H266.68 M267.81,3.35H2.77v376h265v-376H267.81z"/>
					<path d="M264.18,7.55v367.57H6.4V7.55H264.18 M265.04,6.69H5.54V376H265V6.69H265.04z"/>
					<path d="M261.68,10.63V372H8.9V10.63H261.68 M262.27,10.04H8.31v362.6h254V10L262.27,10.04z"/>
					<path d="M259.17,13.71V369H11.41V13.71H259.17 M259.5,13.39H11.08v355.9H259.5V13.39z"/>
					<g id="Inner_Line">
						<path d="M256.67,16.79v349.09H13.91V16.79H256.67 M256.73,16.73H13.85V366h242.88C256.73,366,256.73,16.73,256.73,16.73z"/>
					</g>
				</g>
				<g id="Alim_Adap">
					<path d="M117.83,95.82c-0.98,8.7,1.48,17.43,6.86,24.33c0,0-3.18-18.54,1.67-24.33C123.64,94.62,120.55,94.62,117.83,95.82z"/>
					<path d="M128.21,95.66c-0.8,6.98,1.18,13.99,5.51,19.53c0,0-2.56-14.88,1.34-19.53C132.88,94.69,130.39,94.69,128.21,95.66z"/>
					<path d="M156.79,95.82c0.98,8.7-1.48,17.43-6.86,24.33c0,0,3.18-18.54-1.67-24.33C150.98,94.62,154.07,94.62,156.79,95.82z"/>
					<path d="M146.41,95.66c0.8,6.98-1.18,13.99-5.51,19.53c0,0,2.56-14.88-1.34-19.53C141.74,94.69,144.23,94.69,146.41,95.66z"/>
					<path d="M187.92,156.51c-0.11-0.07-0.23-0.13-0.35-0.19l-1.39-0.64l0,0l-0.65,1.2l-0.56,1.25c-0.34,0.84-0.61,1.71-0.8,2.6
						c-0.19,0.88-0.27,1.79-0.22,2.69c0.02,0.45,0.09,0.89,0.2,1.32c0.06,0.27,0.15,0.53,0.26,0.78c0.04-0.12,0.1-0.24,0.16-0.36
						c0.27-0.53,0.68-0.98,1.19-1.29c0.98-0.6,2.1-0.94,3.25-1c-0.06-0.81,0.05-1.62,0.32-2.39
						C189.85,158.99,189.26,157.34,187.92,156.51z"/>
					<path d="M180.41,183.7l-0.06-0.26c0-0.25-0.13-0.49-0.2-0.73s-0.17-0.49-0.26-0.72c-0.38-0.96-0.89-1.86-1.51-2.68
						c-1.27-1.68-2.87-3.08-4.69-4.13l-0.66-0.36c-0.51,0.06-1.01,0.15-1.5,0.28c-0.58,0.15-1.13,0.39-1.64,0.69
						c-0.51,0.3-0.93,0.74-1.19,1.27c-0.22,0.56-0.26,1.19-0.09,1.77c-0.2-0.59-0.2-1.22,0-1.81c0.24-0.58,0.65-1.08,1.18-1.42
						c0.51-0.35,1.07-0.63,1.66-0.82c0.33-0.11,0.66-0.2,1-0.28l-0.15-0.08c-0.49-0.26-0.96-0.55-1.41-0.88
						c-0.79-0.61-1.5-1.31-2.12-2.09l0,0c-0.43-0.2-0.88-0.36-1.34-0.46c-0.47-0.1-0.95-0.1-1.42,0c-0.47,0.09-0.88,0.37-1.13,0.77
						c-0.14,0.2-0.24,0.42-0.3,0.65c-0.07,0.24-0.09,0.49-0.14,0.73c0-0.5,0.12-0.99,0.34-1.44c0.25-0.46,0.67-0.8,1.18-0.93
						c0.49-0.14,1.01-0.16,1.52-0.07c0.3,0.04,0.59,0.1,0.88,0.19c-1.18-1.66-2.1-3.48-2.74-5.41c0.77,2.01,1.87,3.87,3.24,5.53
						c0,0,0,0,0,0.06h0.05l0,0c0.66,0.76,1.42,1.43,2.25,2h0.05c0.2-0.41,0.37-0.85,0.5-1.29c0.15-0.55,0.24-1.11,0.25-1.68
						c0.02-0.57-0.08-1.14-0.27-1.67c-0.2-0.54-0.5-1.04-0.88-1.47c0.42,0.41,0.76,0.9,1,1.43c0.22,0.54,0.36,1.12,0.39,1.71
						c0.02,0.59-0.04,1.18-0.16,1.76c-0.11,0.49-0.27,0.98-0.47,1.44c0.32,0.19,0.64,0.34,1,0.5l1.47,0.71
						c1.98,1.01,3.73,2.4,5.17,4.09c0.44,0.55,0.85,1.13,1.21,1.73c0-0.13,0-0.26,0-0.39c0-0.8-0.14-1.6-0.22-2.4
						s-0.23-1.6-0.34-2.4s-0.33-1.83-0.53-2.73c-0.1-0.22-0.2-0.44-0.32-0.65s-0.25-0.44-0.41-0.65l-0.44-0.63l-0.52-0.59l-0.25-0.3
						l-0.29-0.27l-0.56-0.55c-0.19-0.18-0.41-0.34-0.61-0.51l-0.61-0.51l-0.65-0.45c-0.43-0.31-0.88-0.6-1.34-0.87
						c-0.46-0.27-0.92-0.55-1.39-0.8l-1.45-0.71c-0.47-0.25-1-0.43-1.48-0.64s-1-0.41-1.49-0.6c-1-0.33-2-0.71-3.07-1
						s-2.08-0.58-3.14-0.83l-3.17-0.68l3.2,0.54c1.07,0.2,2.12,0.47,3.18,0.7c0.75,0.18,1.5,0.41,2.24,0.63
						c-0.16-0.21-0.29-0.42-0.43-0.63c-0.25-0.46-0.47-0.94-0.63-1.44c-0.16-0.49-0.29-0.99-0.39-1.5l-0.12-0.76L165,158l0.14,0.76
						l0.18,0.75c0.13,0.49,0.29,0.98,0.48,1.45c0.18,0.47,0.42,0.92,0.7,1.34c0.26,0.4,0.6,0.74,1,1h0.07
						c0.52,0.17,1,0.36,1.55,0.54s1,0.35,1.52,0.59l1.5,0.66c0.49,0.23,1,0.5,1.46,0.75s1,0.55,1.42,0.84
						c0.23,0.14,0.47,0.28,0.69,0.44l0.67,0.5c0.21,0.17,0.45,0.32,0.65,0.5l0.63,0.56l0.31,0.28l0.29,0.3l0.3,0.32
						c-0.35-1.3-0.72-2.59-1.13-3.88v-0.07c-0.43-1.03-0.97-2.01-1.61-2.92c-0.61-0.89-1.3-1.72-2.06-2.49
						c-0.64,0.13-1.3,0.17-1.95,0.14c-0.71-0.04-1.42-0.18-2.09-0.42c-0.34-0.13-0.68-0.27-1-0.44c-0.3-0.18-0.59-0.39-0.86-0.61
						c-0.55-0.45-1.02-0.98-1.41-1.57c0.42,0.56,0.91,1.06,1.47,1.48c0.28,0.2,0.57,0.39,0.88,0.55c0.33,0.14,0.66,0.27,1,0.37
						c0.65,0.2,1.32,0.3,2,0.3c0.53,0,1.06-0.06,1.58-0.17l-0.61-0.57c-0.28-0.26-0.6-0.48-0.89-0.73l-0.45-0.36l-0.48-0.33
						l-0.95-0.64l-1-0.57l-0.5-0.28l-0.53-0.25l-1-0.48c-0.71-0.3-1.45-0.54-2.18-0.81c0.74,0.23,1.49,0.44,2.22,0.7l1.09,0.44
						l0.54,0.22l0.51,0.26l1,0.52l1,0.61c0.17,0.11,0.34,0.2,0.5,0.31l0.48,0.35c0.31,0.23,0.64,0.44,0.93,0.7
						c1.17,0.93,2.22,1.99,3.13,3.17l-0.39-1l-0.44-1.15c-0.15-0.38-0.32-0.75-0.48-1.13l-1-2.25c-0.67-1.49-1.42-2.95-2.12-4.42
						l-2.34-4.33l2.58,4.27c0.77,1.44,1.59,2.87,2.34,4.33l1.09,2.22c0.17,0.37,0.36,0.73,0.53,1.11l0.5,1.13l0.84,1.92
						c0.33-0.45,0.62-0.92,0.89-1.4c0.39-0.71,0.73-1.45,1-2.21c0.26-0.77,0.47-1.55,0.62-2.35c0.09-0.4,0.13-0.81,0.19-1.21
						s0.07-0.82,0.11-1.23c0,0.41,0,0.82,0,1.24s0,0.82-0.07,1.23c-0.08,0.82-0.22,1.64-0.41,2.45c-0.21,0.81-0.47,1.6-0.79,2.37
						c-0.3,0.71-0.68,1.38-1.13,2l0.67,1.72c0.67,1.83,1.28,3.69,1.84,5.58c0.55-0.57,1.1-1.15,1.62-1.76c0.73-0.83,1.4-1.71,2-2.64
						c0.12-0.2,0.24-0.4,0.35-0.6c-0.19-0.39-0.32-0.8-0.4-1.22c-0.1-0.46-0.15-0.92-0.16-1.39c-0.01-0.93,0.11-1.85,0.34-2.75
						c0.23-0.89,0.54-1.76,0.92-2.59l0.61-1.23l0.7-1.18l-0.42-0.2c-0.22-0.09-0.42-0.2-0.62-0.33c-1.05-0.64-1.86-1.6-2.33-2.74
						l-1.15-2.77c-0.08-0.2-0.2-0.38-0.36-0.53c-0.07-0.07-0.16-0.14-0.25-0.19c-0.61-0.38-1.41-0.28-1.91,0.23
						c-1.02,1.05-2.64,1.25-3.89,0.49c-0.29-0.18-0.54-0.41-0.76-0.67l-0.94-1.12c-0.18-0.22-0.4-0.42-0.65-0.57
						c-1.14-0.69-2.61-0.44-3.45,0.6l-0.41,0.51c-0.87,1.07-2.15,1.71-3.52,1.77l-1.44,0.06c-1.48,0.05-2.64,1.3-2.59,2.79
						c0,0.01,0,0.02,0,0.03l0.06,1.36c0.03,0.74-0.47,1.41-1.19,1.58l-2.64,0.64c-0.98,0.23-1.58,1.21-1.35,2.19
						c0.07,0.3,0.22,0.58,0.43,0.81l1,1c0.15,0.16,0.27,0.36,0.33,0.57c0.27,0.81-0.17,1.68-0.98,1.94c-0.01,0-0.01,0-0.02,0.01
						l-0.59,0.19c-0.93,0.29-1.45,1.29-1.16,2.22c0.09,0.3,0.27,0.57,0.5,0.78l4.05,3.84c0.62,0.59,0.65,1.58,0.06,2.2
						c-0.14,0.14-0.3,0.25-0.47,0.34c-0.63,0.3-0.9,1.05-0.6,1.68c0.1,0.22,0.27,0.41,0.47,0.53l0.14,0.08l2,0.91l0.33,0.18
						c0.95,0.57,1.5,1.62,1.44,2.73l-0.05,1c-0.04,0.86,0.39,1.67,1.12,2.12c0.6,0.37,1.34,0.44,2,0.2
						c1.41-0.56,2.88-0.97,4.38-1.21c0.84-0.17,1.72-0.02,2.47,0.4c1,0.75,1.63,1.89,1.74,3.13c1.78,0.44,3.66,0.34,5.38-0.29l0,0
						L180.41,183.7z"/>
					<path d="M185.5,174.62c1.78-1.3,3.39-2.83,4.78-4.54c0.47-0.56,0.72-1.27,0.71-2c0.01-0.73-0.24-1.43-0.7-2
						c-0.63-0.78-1.05-1.7-1.22-2.69c-0.03-0.18-0.05-0.37-0.06-0.55c-1.11,0.14-2.17,0.55-3.09,1.2c-0.44,0.32-0.78,0.74-1,1.23
						c-0.08,0.23-0.17,0.54-0.29,0.8c-0.11,0.27-0.24,0.53-0.38,0.78c-0.57,0.99-1.22,1.93-1.93,2.83c-0.61,0.78-1.24,1.53-1.9,2.27
						c0.26,1,0.51,2,0.73,3c0.15,0.81,0.33,1.63,0.46,2.45s0.27,1.64,0.34,2.48s0.15,1.66,0.2,2.5c0,0.35,0,0.7,0,1
						c0.92-0.48,1.79-1.07,2.58-1.75C184.73,181.63,181.84,177.21,185.5,174.62z"/>
					<path d="M121.82,180.6c0.52,0,1,0,1.55-0.08c-8.12,5.44-19.11,3.28-24.56-4.84c-1-1.49-1.76-3.12-2.27-4.84l0,0
						c-5.53,0.01-11.01,1.03-16.18,3l-0.77,0.29v-1.83c2.83,0.29,5.66-0.53,7.9-2.28c0,0-5.85,1-7.9-0.45v-0.69
						c2.25,0.19,4.49-0.48,6.26-1.88c0,0-4.55,0.77-6.26-0.31V165c1.71-1.08,6.26-0.3,6.26-0.3c-1.78-1.38-4.02-2.04-6.26-1.85
						v-0.69c2-1.45,7.9-0.45,7.9-0.45c-2.24-1.75-5.07-2.56-7.9-2.28v-1.81l0.77,0.29c2.59,0.98,5.27,1.72,8,2.22
						c2.72,0.5,5.47,0.75,8.23,0.75l0,0c0.2-0.68,0.45-1.35,0.73-2c1.74,1.72,3.99,2.82,6.42,3.11c0,0-4.33-3.06-5.16-5.49
						c0.16-0.26,0.32-0.51,0.5-0.76c1.43,1.66,3.43,2.73,5.61,3c0,0-3.85-2.72-4.23-4.71c0.38-0.42,0.78-0.82,1.2-1.2
						c2,0.38,4.71,4.23,4.71,4.23c-0.28-2.18-1.34-4.17-3-5.61c0.25-0.18,0.5-0.34,0.76-0.51c2.43,0.84,5.49,5.17,5.49,5.17
						c-0.29-2.43-1.39-4.68-3.11-6.42c5.53-2.39,11.89-1.8,16.89,1.56c-0.51-0.06-1.03-0.09-1.55-0.09
						c-8.15-0.01-14.75,6.59-14.76,14.74c0,0.96,0.09,1.92,0.28,2.87c-1.92,1.78-3.14,4.18-3.46,6.77c1.17-1.65,2.56-3.13,4.13-4.41
						c0.18,0.49,0.39,0.97,0.63,1.43c-0.81,1.17-1.32,2.52-1.49,3.93c0.68-0.93,1.43-1.81,2.24-2.62c0.53,0.83,1.14,1.6,1.82,2.3
						c-0.74,0.72-1.54,1.39-2.38,2c1.17-0.13,2.3-0.51,3.32-1.11c0.44,0.38,0.9,0.74,1.38,1.07c-1.14,1.22-2.39,2.33-3.75,3.31
						c2.01-0.24,3.92-1.04,5.5-2.3C117.34,180.12,119.57,180.62,121.82,180.6z"/>
					<line class="st2" x1="146.62" y1="171.04" x2="127.93" y2="171.04"/>
					<path d="M149.74,171c-1.6-0.57-3.09-1.4-4.42-2.46l0.89,2.46l-0.89,2.46C146.65,172.41,148.14,171.58,149.74,171z"/>
					<path d="M124.87,171c1.57-0.56,3.03-1.37,4.33-2.41l-0.87,2.41l0.87,2.41C127.9,172.38,126.43,171.57,124.87,171z"/>
					<line class="st2" x1="166.18" y1="143.54" x2="154.91" y2="124.02"/>
					<path d="M167.74,146.24c-0.3-1.67-0.32-3.37-0.08-5.05l-1.68,2l-2.57,0.45C164.98,144.27,166.45,145.15,167.74,146.24z"/>
					<path d="M153.38,121.37c1.27,1.07,2.7,1.94,4.25,2.55l-2.52,0.45l-1.65,2C153.71,124.71,153.68,123.02,153.38,121.37z"/>
					<line class="st2" x1="119.68" y1="124.07" x2="108.41" y2="143.59"/>
					<path d="M121.24,121.37c-1.3,1.1-2.76,1.97-4.34,2.6l2.57,0.46l1.69,2C120.91,124.75,120.93,123.04,121.24,121.37z"/>
					<path d="M106.88,146.24c0.3-1.65,0.33-3.34,0.08-5l1.65,2l2.52,0.45C109.58,144.3,108.15,145.16,106.88,146.24z"/>
				</g>
			</g>
		</g>
	</g>
</g>
</svg>
