<?xml version="1.0" encoding="utf-8"?>
<!-- Generator: Adobe Illustrator 21.1.0, SVG Export Plug-In . SVG Version: 6.00 Build 0)  -->
<svg version="1.1" id="ZooUno" xmlns="http://www.w3.org/2000/svg" xmlns:xlink="http://www.w3.org/1999/xlink" x="0px" y="0px"
	 viewBox="0 0 270.58 382.68" style="enable-background:new 0 0 270.58 382.68;" xml:space="preserve">
<style type="text/css">
	.st0{fill:none;stroke:#FBF796;stroke-width:6.88;stroke-linecap:square;stroke-miterlimit:10;}
	.st1{fill:none;stroke:#000000;stroke-width:1.27;stroke-miterlimit:10;}
	.st2{fill:#F39400;}
	.st3{fill:#BFBFBF;}
	.st4{fill:#E41718;}
	.st5{fill:#002DAA;}
	.st6{fill:#5BB9EB;}
	.st7{fill:#FF33A2;}
	.st8{fill:#FBF796;}
	.st9{fill:#44AC36;}
	.st10{fill:none;stroke:url(#SVGID_1_);stroke-width:6.88;stroke-linecap:square;stroke-miterlimit:10;}
	.st11{enable-background:new    ;}
	.st12{fill:none;stroke:#000000;stroke-width:0.1;stroke-miterlimit:10;}
</style>
<g>
	<path d="M244.39,350.56c1.03,0,1.87,0.84,1.87,1.87c0,0.49-0.2,0.97-0.55,1.32c-0.35,0.36-0.82,0.55-1.32,0.55
		c-1.03,0-1.87-0.83-1.88-1.86c0-0.5,0.19-0.97,0.55-1.33C243.41,350.76,243.89,350.56,244.39,350.56z"/>
	<path d="M246.71,345c1.03,0,1.87,0.84,1.87,1.87c0,1.03-0.84,1.87-1.87,1.87c-1.03,0-1.87-0.84-1.87-1.87l0,0
		C244.84,345.84,245.68,345,246.71,345z"/>
	<path d="M244.39,339.34c0.5,0,0.97,0.19,1.32,0.55c0.73,0.73,0.73,1.92,0,2.64c-0.35,0.35-0.82,0.54-1.32,0.55
		c-0.5,0-0.98-0.2-1.33-0.55c-0.35-0.35-0.54-0.83-0.54-1.32c-0.02-1.02,0.79-1.85,1.81-1.87
		C244.35,339.34,244.37,339.34,244.39,339.34z"/>
	<circle cx="238.77" cy="338.88" r="1.87"/>
	<path d="M233.16,339.34c1.03,0,1.87,0.84,1.87,1.87c0,0.49-0.2,0.97-0.55,1.32c-0.73,0.73-1.91,0.73-2.64,0
		c-0.73-0.73-0.73-1.91,0-2.64C232.18,339.54,232.66,339.34,233.16,339.34z"/>
	<path d="M230.84,345c1.03,0,1.87,0.84,1.87,1.87c0,1.03-0.84,1.87-1.87,1.87c-1.03,0-1.87-0.84-1.87-1.87l0,0
		C228.97,345.84,229.81,345,230.84,345z"/>
	<path d="M233.16,350.56c0.5,0,0.97,0.2,1.32,0.55c0.77,0.69,0.84,1.87,0.16,2.64c-0.69,0.77-1.87,0.84-2.64,0.16
		c-0.05-0.05-0.11-0.1-0.16-0.16c-0.73-0.73-0.73-1.92,0-2.64C232.19,350.76,232.67,350.56,233.16,350.56L233.16,350.56z"/>
	<circle cx="238.77" cy="354.76" r="1.87"/>
</g>
<g>
	<path d="M26.19,32.12c-1.03,0-1.87-0.84-1.87-1.87c0-1.03,0.84-1.87,1.87-1.87c0,0,0,0,0,0c1.03,0,1.87,0.84,1.87,1.87
		C28.06,31.28,27.22,32.12,26.19,32.12C26.19,32.12,26.19,32.12,26.19,32.12z"/>
	<path d="M23.87,37.73c-1.03,0-1.87-0.84-1.87-1.87c0-1.03,0.84-1.87,1.87-1.87c1.03,0,1.87,0.84,1.87,1.87l0,0
		C25.74,36.89,24.9,37.73,23.87,37.73z"/>
	<path d="M26.19,43.34c-0.5,0-0.97-0.19-1.32-0.55c-0.73-0.72-0.73-1.9-0.01-2.63c0,0,0.01-0.01,0.01-0.01
		c0.35-0.36,0.82-0.55,1.32-0.55c1.03,0,1.87,0.84,1.87,1.87C28.06,42.5,27.22,43.34,26.19,43.34z"/>
	<circle cx="31.81" cy="43.79" r="1.87"/>
	<path d="M37.42,43.34c-1.03,0-1.87-0.83-1.87-1.87c0-1.03,0.83-1.87,1.87-1.87c0.5,0,0.98,0.2,1.33,0.55
		c0.73,0.72,0.73,1.9,0.01,2.63c0,0-0.01,0.01-0.01,0.01C38.39,43.15,37.92,43.34,37.42,43.34z"/>
	<path d="M39.74,37.73c-1.03,0-1.87-0.84-1.87-1.87c0-1.03,0.84-1.87,1.87-1.87c1.03,0,1.87,0.84,1.87,1.87c0,0,0,0,0,0
		C41.61,36.89,40.77,37.73,39.74,37.73z"/>
	<path d="M37.42,32.12c-1.04,0-1.88-0.83-1.89-1.87c0-1.04,0.83-1.88,1.87-1.89s1.88,0.83,1.89,1.87c0,0.5-0.2,0.98-0.55,1.34
		C38.39,31.92,37.92,32.12,37.42,32.12z"/>
	<circle cx="31.81" cy="27.92" r="1.87"/>
</g>
<g>
	<g id="Outer_Line">
		<path d="M150.07,169.6v43.47h-29.56V169.6H150.07 M152.07,167.6h-33.56v47.47h33.56V167.6z"/>
	</g>
	<path d="M145.92,189.86c-0.4-2.14-1.45-4.1-3-5.63c-1.52-1.48-3.45-2.45-5.54-2.78c-2.02-0.32-4.1-0.01-5.94,0.89
		c-1.78,0.87-3.25,2.27-4.21,4c-0.3,0.62-1.05,0.88-1.67,0.58c-0.62-0.3-0.88-1.05-0.58-1.67c0.02-0.04,0.04-0.07,0.06-0.1l0.06-0.1
		l0,0c1.37-2.02,3.32-3.57,5.59-4.44c2.22-0.84,4.64-0.97,6.94-0.39c2.24,0.57,4.24,1.82,5.74,3.58
		C144.82,185.51,145.71,187.62,145.92,189.86z"/>
	<path d="M124.66,189.86c0.06-2.39-0.28-4.77-1-7.05l2.78,2.42l3.68,0.09C128.07,186.53,126.23,188.06,124.66,189.86z"/>
	<path d="M145.5,197.61c-1.37,2.02-3.32,3.57-5.6,4.44c-2.22,0.84-4.64,0.98-6.94,0.4c-2.24-0.57-4.24-1.82-5.74-3.58
		c-1.45-1.71-2.34-3.83-2.56-6.06c0.4,2.14,1.45,4.11,3,5.64c1.52,1.47,3.45,2.44,5.54,2.78c2.02,0.32,4.1,0.01,5.94-0.89
		c1.78-0.87,3.25-2.27,4.21-4c0.36-0.59,1.13-0.77,1.72-0.41c0.55,0.34,0.75,1.04,0.47,1.61l-0.06,0.1L145.5,197.61z"/>
	<path d="M145.92,192.81c-1.57,1.8-3.43,3.34-5.49,4.55l3.68,0.09l2.78,2.42C146.18,197.59,145.85,195.2,145.92,192.81z"/>
</g>
<g>
	<path d="M216,175.19c8.92-8.91,23.37-8.91,32.29,0.01s8.91,23.37-0.01,32.29c-8.92,8.91-23.37,8.91-32.29-0.01
		c-4.28-4.28-6.68-10.08-6.68-16.14C209.29,185.28,211.7,179.46,216,175.19z"/>
	<path d="M187.65,106.69c8.91-8.92,23.37-8.92,32.29-0.01s8.92,23.37,0.01,32.29c-8.91,8.92-23.37,8.92-32.29,0.01
		c0,0,0,0-0.01-0.01C178.76,130.05,178.76,115.61,187.65,106.69z"/>
	<path d="M119.15,78.31c8.92-8.91,23.37-8.91,32.29,0.01c8.91,8.92,8.91,23.37-0.01,32.29s-23.37,8.91-32.29-0.01
		c-4.28-4.28-6.69-10.09-6.68-16.15C112.45,88.39,114.85,82.58,119.15,78.31z"/>
	<circle cx="66.78" cy="122.83" r="22.83"/>
	<path d="M22.26,175.2c8.91-8.92,23.37-8.93,32.29-0.01s8.93,23.37,0.01,32.29c-8.91,8.92-23.37,8.93-32.29,0.01
		c-4.28-4.28-6.69-10.09-6.69-16.15C15.56,185.28,17.97,179.47,22.26,175.2z"/>
	<path d="M50.64,243.7c8.92-8.91,23.37-8.91,32.29,0c8.91,8.92,8.91,23.37,0,32.29c-8.92,8.91-23.37,8.91-32.28,0
		C41.74,267.07,41.74,252.62,50.64,243.7z"/>
	<path d="M119.15,272.08c8.92-8.91,23.37-8.91,32.29,0.01c8.91,8.92,8.91,23.37-0.01,32.29s-23.37,8.91-32.29-0.01
		c-4.28-4.28-6.69-10.09-6.68-16.15C112.45,282.16,114.85,276.35,119.15,272.08z"/>
	<circle cx="203.8" cy="259.85" r="22.83"/>
</g>
<title>ZooUno Fields Cartas Finais pra Lari</title>
<g id="Final_Cards">
	<g id="Field_cards">
		<g id="_2_2">
			<g id="Border">
				<g id="Outer_Line-2">
					<path d="M269.19,1.39v379.89H1.39V1.39H269.19 M270.58,0H0v382.68h270.58V0z"/>
				</g>
				<path d="M266.68,4.47V378.2H3.9V4.47H266.68 M267.81,3.35H2.77v376h265v-376H267.81z"/>
				<path d="M264.18,7.55v367.57H6.4V7.55H264.18 M265.04,6.69H5.54V376H265V6.69H265.04z"/>
				<path d="M261.68,10.63V372H8.9V10.63H261.68 M262.27,10.04H8.31v362.6h254V10L262.27,10.04z"/>
				<path d="M259.17,13.71V369H11.41V13.71H259.17 M259.5,13.39H11.08v355.9H259.5V13.39z"/>
				<g id="Inner_Line">
					<path d="M256.67,16.79v349.09H13.91V16.79H256.67 M256.73,16.73H13.85V366h242.88C256.73,366,256.73,16.73,256.73,16.73z"/>
				</g>
			</g>
			<line class="st0" x1="193.15" y1="133.48" x2="164.97" y2="161.66"/>
			<g>
				<circle class="st1" cx="135.29" cy="191.34" r="96.88"/>
			</g>
			<circle class="st2" cx="66.78" cy="122.83" r="15.07"/>
			<circle class="st3" cx="38.41" cy="191.34" r="15.07"/>
			<circle class="st4" cx="66.78" cy="259.85" r="15.07"/>
			<circle class="st5" cx="135.29" cy="288.22" r="15.07"/>
			<circle class="st6" cx="203.8" cy="259.85" r="15.07"/>
			<circle class="st7" cx="232.17" cy="191.34" r="15.07"/>
			<circle class="st8" cx="203.8" cy="122.83" r="15.07"/>
			<circle id="Mammal" class="st9" cx="135.29" cy="94.45" r="15.07"/>
			
				<linearGradient id="SVGID_1_" gradientUnits="userSpaceOnUse" x1="-1408.0686" y1="376.0232" x2="-1361.3361" y2="376.0232" gradientTransform="matrix(-0.7071 0.7071 0.7071 0.7071 -1065.9609 860.8138)">
				<stop  offset="0" style="stop-color:#000000;stop-opacity:0"/>
				<stop  offset="0.15" style="stop-color:#040403;stop-opacity:0"/>
				<stop  offset="0.85" style="stop-color:#000000"/>
				<stop  offset="1" style="stop-color:#000000"/>
			</linearGradient>
			<line class="st10" x1="193.15" y1="133.48" x2="164.97" y2="161.66"/>
			<g>
				<circle cx="135.29" cy="191.34" r="41.98"/>
			</g>
			<g class="st11">
				<path d="M72.94,314.71c-0.75-0.71-1.48-0.92-2.08-0.92c-0.82,0-1.4,0.43-1.4,1.05c0,1.7,3.83,1.68,3.83,4.5
					c0,1.39-1.05,2.41-2.48,2.41c-0.96,0-1.74-0.26-2.48-0.82v-1.61c0.65,0.83,1.47,1.29,2.34,1.29c0.99,0,1.44-0.62,1.44-1.12
					c0-1.83-3.83-2.04-3.83-4.47c0-1.44,1.07-2.37,2.69-2.37c0.68,0,1.35,0.21,1.98,0.62V314.71z"/>
			</g>
			<g class="st11">
				<path d="M79.5,321.06c-0.7,0.47-1.34,0.69-2.33,0.69c-1.82,0-2.83-1.5-2.83-3.11c0-1.77,1.12-2.96,2.73-2.96
					c1.55,0,2.54,1.05,2.54,3.21H75.5c0.18,1.16,0.85,1.75,1.96,1.75c0.7,0,1.36-0.26,2.04-0.7V321.06z M78.46,318.12
					c-0.04-0.88-0.55-1.44-1.37-1.44c-0.88,0-1.42,0.52-1.57,1.44H78.46z"/>
				<path d="M88.99,321.29c-0.53,0.35-0.75,0.46-1.12,0.46c-0.51,0-0.78-0.18-0.88-0.6c-0.51,0.4-1.04,0.6-1.57,0.6
					c-0.86,0-1.43-0.68-1.43-1.43c0-1.16,1.05-1.51,1.99-1.85l1.03-0.36v-0.31c0-0.73-0.35-1.03-1.05-1.03
					c-0.64,0-1.29,0.3-1.85,0.96v-1.26c0.46-0.53,1.09-0.79,1.94-0.79c1.18,0,2.12,0.6,2.12,1.92v3c0,0.22,0.08,0.3,0.22,0.3
					c0.12,0,0.35-0.12,0.61-0.31V321.29z M87,318.74c-0.99,0.34-1.85,0.68-1.85,1.36c0,0.48,0.35,0.82,0.83,0.82
					c0.36,0,0.7-0.18,1.01-0.48V318.74z"/>
			</g>
			<g class="st11">
				<path d="M97.92,317.31c-0.66-0.44-1.11-0.57-1.61-0.57c-1.05,0-1.78,0.79-1.78,1.98c0,1.21,0.78,1.94,1.98,1.94
					c0.49,0,0.96-0.13,1.55-0.39v1.14c-0.39,0.18-1.13,0.34-1.74,0.34c-1.74,0-2.96-1.21-2.96-2.93c0-1.92,1.12-3.15,2.89-3.15
					c0.68,0,1.13,0.16,1.69,0.4V317.31z"/>
			</g>
			<g class="st11">
				<path d="M103.98,321.29c-0.53,0.35-0.75,0.46-1.12,0.46c-0.51,0-0.78-0.18-0.88-0.6c-0.51,0.4-1.04,0.6-1.57,0.6
					c-0.86,0-1.43-0.68-1.43-1.43c0-1.16,1.05-1.51,1.99-1.85l1.03-0.36v-0.31c0-0.73-0.35-1.03-1.05-1.03
					c-0.64,0-1.29,0.3-1.85,0.96v-1.26c0.46-0.53,1.09-0.79,1.94-0.79c1.18,0,2.12,0.6,2.12,1.92v3c0,0.22,0.08,0.3,0.22,0.3
					c0.12,0,0.35-0.12,0.61-0.31V321.29z M101.99,318.74c-0.99,0.34-1.85,0.68-1.85,1.36c0,0.48,0.35,0.82,0.83,0.82
					c0.36,0,0.7-0.18,1.01-0.48V318.74z"/>
			</g>
			<g class="st11">
				<path d="M106.22,315.79v1.34h0.03c0.58-1.03,1.14-1.46,1.69-1.46c0.47,0,0.91,0.22,1.39,0.68l-0.61,1
					c-0.35-0.34-0.81-0.57-1.08-0.57c-0.79,0-1.42,0.79-1.42,1.79v3.05h-1.16v-5.84H106.22z"/>
			</g>
			<g class="st11">
				<path d="M111.91,315.79h1.85v1.04h-1.85v2.99c0,0.69,0.49,0.88,0.83,0.88c0.42,0,0.84-0.14,1.31-0.43v1.08
					c-0.4,0.22-1.03,0.39-1.4,0.39c-1.26,0-1.9-0.78-1.9-1.83v-3.08h-1.01v-0.13l2.17-2.12V315.79z"/>
			</g>
			<g class="st11">
				<path d="M119.71,321.29c-0.53,0.35-0.75,0.46-1.12,0.46c-0.51,0-0.78-0.18-0.88-0.6c-0.51,0.4-1.04,0.6-1.57,0.6
					c-0.86,0-1.43-0.68-1.43-1.43c0-1.16,1.05-1.51,1.99-1.85l1.03-0.36v-0.31c0-0.73-0.35-1.03-1.05-1.03
					c-0.64,0-1.29,0.3-1.85,0.96v-1.26c0.46-0.53,1.09-0.79,1.94-0.79c1.18,0,2.12,0.6,2.12,1.92v3c0,0.22,0.08,0.3,0.22,0.3
					c0.12,0,0.35-0.12,0.61-0.31V321.29z M117.72,318.74c-0.99,0.34-1.85,0.68-1.85,1.36c0,0.48,0.35,0.82,0.83,0.82
					c0.36,0,0.7-0.18,1.01-0.48V318.74z"/>
			</g>
			<g class="st11">
				<path d="M127.73,317.3c-0.65-0.43-1.26-0.61-1.69-0.61c-0.47,0-0.77,0.22-0.77,0.53c0,0.26,0.39,0.57,1.42,1.17
					c0.96,0.64,1.31,1.04,1.31,1.64c0,1.03-0.82,1.72-1.92,1.72c-0.71,0-1.27-0.14-2.03-0.53v-1.25c0.75,0.52,1.44,0.77,1.91,0.77
					c0.47-0.03,0.86-0.25,0.86-0.66c0-0.81-2.73-1.23-2.73-2.81c0-0.99,0.75-1.59,1.92-1.59c0.55,0,1.1,0.16,1.72,0.48V317.3z"/>
			</g>
			<g class="st11">
				<path d="M135.14,318.65c0,1.85-1.29,3.09-3.16,3.09c-1.79,0-3.08-1.3-3.08-3.09c0-1.68,1.34-2.98,3.08-2.98
					C133.81,315.68,135.14,316.92,135.14,318.65z M130.08,318.65c0,1.24,0.77,2.05,1.89,2.05c1.22,0,1.99-0.78,1.99-2.04
					c0-1.13-0.83-1.95-1.99-1.95C130.87,316.72,130.08,317.54,130.08,318.65z"/>
			</g>
			<g class="st11">
				<path d="M137.53,316.21c0.51-0.36,1.03-0.53,1.61-0.53c1.46,0,2.52,1.24,2.52,2.91c0,1.98-1.17,3.16-3.12,3.16
					c-0.77,0-1.6-0.17-2.17-0.44v-8.54h1.16V316.21z M137.53,320.47c0.34,0.1,0.83,0.18,1.17,0.18c1.04,0,1.78-0.79,1.78-1.9
					c0-1.24-0.65-2.04-1.63-2.04c-0.48,0-0.83,0.16-1.33,0.6V320.47z"/>
			</g>
			<g class="st11">
				<path d="M151.41,321.06c-0.7,0.47-1.34,0.69-2.33,0.69c-1.82,0-2.83-1.5-2.83-3.11c0-1.77,1.12-2.96,2.73-2.96
					c1.55,0,2.54,1.05,2.54,3.21h-4.11c0.18,1.16,0.84,1.75,1.96,1.75c0.7,0,1.37-0.26,2.04-0.7V321.06z M150.37,318.12
					c-0.04-0.88-0.55-1.44-1.37-1.44c-0.88,0-1.42,0.52-1.57,1.44H150.37z"/>
			</g>
			<g class="st11">
				<path d="M156.25,317.3c-0.65-0.43-1.26-0.61-1.69-0.61c-0.47,0-0.77,0.22-0.77,0.53c0,0.26,0.39,0.57,1.42,1.17
					c0.96,0.64,1.31,1.04,1.31,1.64c0,1.03-0.82,1.72-1.92,1.72c-0.71,0-1.27-0.14-2.03-0.53v-1.25c0.75,0.52,1.44,0.77,1.91,0.77
					c0.47-0.03,0.86-0.25,0.86-0.66c0-0.81-2.73-1.23-2.73-2.81c0-0.99,0.75-1.59,1.92-1.59c0.55,0,1.1,0.16,1.72,0.48V317.3z"/>
			</g>
			<g class="st11">
				<path d="M159.28,315.79h1.85v1.04h-1.85v2.99c0,0.69,0.49,0.88,0.83,0.88c0.42,0,0.84-0.14,1.31-0.43v1.08
					c-0.4,0.22-1.03,0.39-1.4,0.39c-1.26,0-1.9-0.78-1.9-1.83v-3.08h-1.01v-0.13l2.17-2.12V315.79z"/>
			</g>
			<g class="st11">
				<path d="M167.07,321.29c-0.53,0.35-0.75,0.46-1.12,0.46c-0.51,0-0.78-0.18-0.88-0.6c-0.51,0.4-1.04,0.6-1.57,0.6
					c-0.86,0-1.43-0.68-1.43-1.43c0-1.16,1.05-1.51,1.99-1.85l1.03-0.36v-0.31c0-0.73-0.35-1.03-1.05-1.03
					c-0.64,0-1.29,0.3-1.85,0.96v-1.26c0.46-0.53,1.09-0.79,1.94-0.79c1.18,0,2.12,0.6,2.12,1.92v3c0,0.22,0.08,0.3,0.22,0.3
					c0.12,0,0.35-0.12,0.61-0.31V321.29z M165.08,318.74c-0.99,0.34-1.85,0.68-1.85,1.36c0,0.48,0.35,0.82,0.83,0.82
					c0.36,0,0.7-0.18,1.01-0.48V318.74z"/>
			</g>
			<g class="st11">
				<path d="M174.74,313.89c-0.2-0.08-0.31-0.1-0.52-0.1c-0.94,0-1.23,0.55-1.23,1.44v0.56h1.05v1.04h-1.05v4.8h-1.16v-4.8h-0.82
					v-1.04h0.82v-0.43c0-1.14,0.27-1.69,0.74-2.16c0.49-0.49,1.16-0.73,2.17-0.44V313.89z"/>
			</g>
			<g class="st11">
				<path d="M180.78,318.65c0,1.85-1.29,3.09-3.16,3.09c-1.79,0-3.08-1.3-3.08-3.09c0-1.68,1.34-2.98,3.08-2.98
					C179.45,315.68,180.78,316.92,180.78,318.65z M175.72,318.65c0,1.24,0.77,2.05,1.89,2.05c1.22,0,1.99-0.78,1.99-2.04
					c0-1.13-0.83-1.95-1.99-1.95C176.51,316.72,175.72,317.54,175.72,318.65z"/>
			</g>
			<g class="st11">
				<path d="M183.24,315.79v1.34h0.03c0.58-1.03,1.14-1.46,1.69-1.46c0.47,0,0.91,0.22,1.39,0.68l-0.61,1
					c-0.35-0.34-0.81-0.57-1.08-0.57c-0.79,0-1.42,0.79-1.42,1.79v3.05h-1.16v-5.84H183.24z"/>
			</g>
			<g class="st11">
				<path d="M195.81,321.63h-2.46c-1.74,0-2.83-1.18-2.83-3.05c0-1.69,1.21-2.9,2.91-2.9c0.39,0,0.75,0.06,1.22,0.23v-3.15h1.16
					V321.63z M194.66,316.94c-0.39-0.16-0.69-0.22-1.08-0.22c-1.12,0-1.87,0.81-1.87,2.03c0,1.09,0.44,1.91,1.78,1.91h1.17V316.94z"
					/>
			</g>
			<g class="st11">
				<path d="M202.29,321.06c-0.7,0.47-1.34,0.69-2.33,0.69c-1.82,0-2.83-1.5-2.83-3.11c0-1.77,1.12-2.96,2.73-2.96
					c1.55,0,2.54,1.05,2.54,3.21h-4.11c0.18,1.16,0.84,1.75,1.96,1.75c0.7,0,1.37-0.26,2.04-0.7V321.06z M201.25,318.12
					c-0.04-0.88-0.55-1.44-1.37-1.44c-0.88,0-1.42,0.52-1.57,1.44H201.25z"/>
			</g>
			<g class="st11">
				<path d="M55.13,337.23h-1.3l-1.18-2.61h-3.77l-1.12,2.61h-1.3l3.81-8.92h0.9L55.13,337.23z M49.37,333.47h2.76l-1.43-3.21
					L49.37,333.47z"/>
			</g>
			<g class="st11">
				<path d="M57.26,331.39v1.34h0.03c0.58-1.03,1.14-1.46,1.69-1.46c0.47,0,0.91,0.22,1.39,0.68l-0.61,1
					c-0.35-0.34-0.81-0.57-1.08-0.57c-0.79,0-1.42,0.79-1.42,1.79v3.05h-1.16v-5.84H57.26z"/>
			</g>
			<g class="st11">
				<path d="M65.94,336.89c-0.53,0.35-0.75,0.46-1.12,0.46c-0.51,0-0.78-0.18-0.88-0.6c-0.51,0.4-1.04,0.6-1.57,0.6
					c-0.86,0-1.43-0.68-1.43-1.43c0-1.16,1.05-1.51,1.99-1.85l1.03-0.36v-0.31c0-0.73-0.35-1.03-1.05-1.03
					c-0.64,0-1.29,0.3-1.85,0.96v-1.26c0.46-0.53,1.09-0.79,1.94-0.79c1.18,0,2.12,0.6,2.12,1.92v3c0,0.22,0.08,0.3,0.22,0.3
					c0.12,0,0.35-0.12,0.61-0.31V336.89z M63.95,334.34c-0.99,0.34-1.85,0.68-1.85,1.36c0,0.48,0.35,0.82,0.83,0.82
					c0.36,0,0.7-0.18,1.01-0.48V334.34z"/>
			</g>
			<g class="st11">
				<path d="M71.2,332.91c-0.66-0.44-1.11-0.57-1.61-0.57c-1.05,0-1.78,0.79-1.78,1.98c0,1.21,0.78,1.94,1.98,1.94
					c0.49,0,0.96-0.13,1.55-0.39v1.14c-0.39,0.18-1.13,0.34-1.74,0.34c-1.74,0-2.96-1.21-2.96-2.93c0-1.92,1.12-3.15,2.89-3.15
					c0.68,0,1.13,0.16,1.69,0.4V332.91z"/>
			</g>
			<g class="st11">
				<path d="M73.76,332.16h0.03c0.44-0.56,1.09-0.88,1.74-0.88c1.1,0,1.99,0.75,1.99,2.35v3.6h-1.16v-3.61
					c0-0.86-0.44-1.42-1.14-1.42c-0.51,0-0.91,0.23-1.46,0.84v4.19H72.6v-5.84h1.16V332.16z"/>
			</g>
			<g class="st11">
				<path d="M81.17,328.73l-1.46,1.91H79l0.87-1.91H81.17z M80.3,337.23h-1.16v-5.84h1.16V337.23z"/>
			</g>
			<g class="st11">
				<path d="M86.92,337.23h-2.46c-1.74,0-2.83-1.18-2.83-3.05c0-1.69,1.21-2.9,2.91-2.9c0.39,0,0.75,0.06,1.22,0.23v-3.15h1.16
					V337.23z M85.77,332.54c-0.39-0.16-0.69-0.22-1.08-0.22c-1.12,0-1.87,0.81-1.87,2.03c0,1.09,0.44,1.91,1.78,1.91h1.17V332.54z"
					/>
			</g>
			<g class="st11">
				<path d="M93.4,336.66c-0.7,0.47-1.34,0.69-2.33,0.69c-1.82,0-2.83-1.5-2.83-3.11c0-1.77,1.12-2.96,2.73-2.96
					c1.55,0,2.54,1.05,2.54,3.21H89.4c0.18,1.16,0.85,1.75,1.96,1.75c0.7,0,1.36-0.26,2.04-0.7V336.66z M92.36,333.72
					c-0.04-0.88-0.55-1.44-1.37-1.44c-0.88,0-1.42,0.52-1.57,1.44H92.36z"/>
			</g>
			<g class="st11">
				<path d="M100.71,334.25c0,1.85-1.29,3.09-3.16,3.09c-1.79,0-3.08-1.3-3.08-3.09c0-1.68,1.34-2.98,3.08-2.98
					C99.38,331.28,100.71,332.52,100.71,334.25z M95.65,334.25c0,1.24,0.77,2.05,1.89,2.05c1.22,0,1.99-0.78,1.99-2.04
					c0-1.13-0.83-1.95-1.99-1.95C96.44,332.32,95.65,333.14,95.65,334.25z"/>
			</g>
			<g class="st11">
				<path d="M101.92,338.52c0.43-0.29,0.58-0.95,0.47-1.42c-0.38-0.01-0.64-0.3-0.64-0.73c0-0.43,0.32-0.74,0.77-0.74
					c0.56,0,0.92,0.49,0.92,1.26c0,0.74-0.49,1.59-1.52,1.87V338.52z"/>
			</g>
			<g class="st11">
				<path d="M113.3,336.66c-0.7,0.47-1.34,0.69-2.33,0.69c-1.82,0-2.83-1.5-2.83-3.11c0-1.77,1.12-2.96,2.73-2.96
					c1.55,0,2.54,1.05,2.54,3.21h-4.11c0.18,1.16,0.85,1.75,1.96,1.75c0.7,0,1.36-0.26,2.04-0.7V336.66z M112.26,333.72
					c-0.04-0.88-0.55-1.44-1.37-1.44c-0.88,0-1.42,0.52-1.57,1.44H112.26z"/>
			</g>
			<g class="st11">
				<path d="M118.14,332.9c-0.65-0.43-1.26-0.61-1.69-0.61c-0.47,0-0.77,0.22-0.77,0.53c0,0.26,0.39,0.57,1.42,1.17
					c0.96,0.64,1.31,1.04,1.31,1.64c0,1.03-0.82,1.72-1.92,1.72c-0.71,0-1.27-0.14-2.03-0.53v-1.25c0.75,0.52,1.44,0.77,1.91,0.77
					c0.47-0.03,0.86-0.25,0.86-0.66c0-0.81-2.73-1.23-2.73-2.81c0-0.99,0.75-1.59,1.92-1.59c0.55,0,1.1,0.16,1.72,0.48V332.9z"/>
			</g>
			<g class="st11">
				<path d="M123.97,332.91c-0.66-0.44-1.11-0.57-1.61-0.57c-1.05,0-1.78,0.79-1.78,1.98c0,1.21,0.78,1.94,1.98,1.94
					c0.49,0,0.96-0.13,1.55-0.39v1.14c-0.39,0.18-1.13,0.34-1.74,0.34c-1.74,0-2.96-1.21-2.96-2.93c0-1.92,1.12-3.15,2.89-3.15
					c0.68,0,1.13,0.16,1.69,0.4V332.91z"/>
			</g>
			<g class="st11">
				<path d="M131.14,334.25c0,1.85-1.29,3.09-3.16,3.09c-1.79,0-3.08-1.3-3.08-3.09c0-1.68,1.34-2.98,3.08-2.98
					C129.81,331.28,131.14,332.52,131.14,334.25z M126.08,334.25c0,1.24,0.77,2.05,1.89,2.05c1.22,0,1.99-0.78,1.99-2.04
					c0-1.13-0.83-1.95-1.99-1.95C126.87,332.32,126.08,333.14,126.08,334.25z"/>
			</g>
			<g class="st11">
				<path d="M133.6,337.23h-1.16v-8.87h1.16V337.23z"/>
			</g>
			<g class="st11">
				<path d="M136.38,332.16h0.03c0.44-0.56,1.09-0.88,1.74-0.88c1.14,0,1.99,0.78,1.99,2.38v3.58h-1.16v-3.61
					c0-0.86-0.44-1.42-1.14-1.42c-0.51,0-0.91,0.23-1.46,0.84v4.19h-1.16v-8.87h1.16V332.16z"/>
			</g>
			<g class="st11">
				<path d="M146.36,336.89c-0.53,0.35-0.75,0.46-1.12,0.46c-0.51,0-0.78-0.18-0.88-0.6c-0.51,0.4-1.04,0.6-1.57,0.6
					c-0.86,0-1.43-0.68-1.43-1.43c0-1.16,1.05-1.51,1.99-1.85l1.03-0.36v-0.31c0-0.73-0.35-1.03-1.05-1.03
					c-0.64,0-1.29,0.3-1.85,0.96v-1.26c0.46-0.53,1.09-0.79,1.94-0.79c1.18,0,2.12,0.6,2.12,1.92v3c0,0.22,0.08,0.3,0.22,0.3
					c0.12,0,0.35-0.12,0.61-0.31V336.89z M144.37,334.34c-0.99,0.34-1.85,0.68-1.85,1.36c0,0.48,0.35,0.82,0.83,0.82
					c0.37,0,0.7-0.18,1.01-0.48V334.34z"/>
			</g>
			<g class="st11">
				<path d="M154.7,337.23v-0.74c-0.48,0.52-1.16,0.86-1.73,0.86c-1.18,0-2.01-0.85-2.01-2.33v-3.63h1.16v3.71
					c0,0.82,0.4,1.29,1.2,1.29c0.52,0,1.01-0.29,1.39-0.82v-4.17h1.16v5.84H154.7z"/>
			</g>
			<g class="st11">
				<path d="M158.62,331.39v0.77c0.6-0.6,1.16-0.88,1.7-0.88c0.74,0,1.35,0.36,1.74,1.05c0.51-0.57,1.12-1.05,1.95-1.05
					c1.18,0,1.94,0.91,1.94,2.29v3.67h-1.16v-3.61c0-0.88-0.55-1.37-1.21-1.37c-0.38-0.01-0.88,0.31-1.3,0.74v4.24h-1.16v-3.63
					c0-0.95-0.48-1.35-1.05-1.35c-0.58,0-0.97,0.18-1.46,0.74v4.24h-1.16v-5.84H158.62z"/>
			</g>
			<g class="st11">
				<path d="M172.17,336.89c-0.53,0.35-0.75,0.46-1.12,0.46c-0.51,0-0.78-0.18-0.88-0.6c-0.51,0.4-1.04,0.6-1.57,0.6
					c-0.86,0-1.43-0.68-1.43-1.43c0-1.16,1.05-1.51,1.99-1.85l1.03-0.36v-0.31c0-0.73-0.35-1.03-1.05-1.03
					c-0.64,0-1.29,0.3-1.85,0.96v-1.26c0.46-0.53,1.09-0.79,1.94-0.79c1.18,0,2.12,0.6,2.12,1.92v3c0,0.22,0.08,0.3,0.22,0.3
					c0.12,0,0.35-0.12,0.61-0.31V336.89z M170.18,334.34c-0.99,0.34-1.85,0.68-1.85,1.36c0,0.48,0.35,0.82,0.83,0.82
					c0.36,0,0.7-0.18,1.01-0.48V334.34z"/>
			</g>
			<g class="st11">
				<path d="M181.1,332.91c-0.66-0.44-1.11-0.57-1.61-0.57c-1.05,0-1.78,0.79-1.78,1.98c0,1.21,0.78,1.94,1.98,1.94
					c0.49,0,0.96-0.13,1.55-0.39v1.14c-0.39,0.18-1.13,0.34-1.74,0.34c-1.74,0-2.96-1.21-2.96-2.93c0-1.92,1.12-3.15,2.89-3.15
					c0.68,0,1.13,0.16,1.69,0.4V332.91z"/>
			</g>
			<g class="st11">
				<path d="M187.15,336.89c-0.53,0.35-0.75,0.46-1.12,0.46c-0.51,0-0.78-0.18-0.88-0.6c-0.51,0.4-1.04,0.6-1.57,0.6
					c-0.86,0-1.43-0.68-1.43-1.43c0-1.16,1.05-1.51,1.99-1.85l1.03-0.36v-0.31c0-0.73-0.35-1.03-1.05-1.03
					c-0.64,0-1.29,0.3-1.85,0.96v-1.26c0.46-0.53,1.09-0.79,1.94-0.79c1.18,0,2.12,0.6,2.12,1.92v3c0,0.22,0.08,0.3,0.22,0.3
					c0.12,0,0.35-0.12,0.61-0.31V336.89z M185.16,334.34c-0.99,0.34-1.85,0.68-1.85,1.36c0,0.48,0.35,0.82,0.83,0.82
					c0.36,0,0.7-0.18,1.01-0.48V334.34z"/>
			</g>
			<g class="st11">
				<path d="M189.39,331.39v1.34h0.03c0.58-1.03,1.14-1.46,1.69-1.46c0.47,0,0.91,0.22,1.39,0.68l-0.61,1
					c-0.35-0.34-0.81-0.57-1.08-0.57c-0.79,0-1.42,0.79-1.42,1.79v3.05h-1.16v-5.84H189.39z"/>
			</g>
			<g class="st11">
				<path d="M195.09,331.39h1.85v1.04h-1.85v2.99c0,0.69,0.49,0.88,0.83,0.88c0.42,0,0.85-0.14,1.31-0.43v1.08
					c-0.4,0.22-1.03,0.39-1.4,0.39c-1.26,0-1.9-0.78-1.9-1.83v-3.08h-1.01v-0.13l2.17-2.12V331.39z"/>
			</g>
			<g class="st11">
				<path d="M202.88,336.89c-0.53,0.35-0.75,0.46-1.12,0.46c-0.51,0-0.78-0.18-0.88-0.6c-0.51,0.4-1.04,0.6-1.57,0.6
					c-0.86,0-1.43-0.68-1.43-1.43c0-1.16,1.05-1.51,1.99-1.85l1.03-0.36v-0.31c0-0.73-0.35-1.03-1.05-1.03
					c-0.64,0-1.29,0.3-1.85,0.96v-1.26c0.46-0.53,1.09-0.79,1.94-0.79c1.18,0,2.12,0.6,2.12,1.92v3c0,0.22,0.08,0.3,0.22,0.3
					c0.12,0,0.35-0.12,0.61-0.31V336.89z M200.89,334.34c-0.99,0.34-1.85,0.68-1.85,1.36c0,0.48,0.35,0.82,0.83,0.82
					c0.36,0,0.7-0.18,1.01-0.48V334.34z"/>
			</g>
			<g class="st11">
				<path d="M208.6,340.22h-1.16v-8.83h2c2.13,0,3.29,1.04,3.29,2.96c0,1.75-1.24,2.99-2.96,2.99c-0.38,0-0.73-0.08-1.17-0.26
					V340.22z M208.6,336.05c0.35,0.17,0.73,0.26,1.09,0.26c1.08,0,1.86-0.83,1.86-1.96c0-1.21-0.64-1.91-1.9-1.91h-1.05V336.05z"/>
			</g>
			<g class="st11">
				<path d="M215.23,331.39v1.34h0.03c0.58-1.03,1.14-1.46,1.69-1.46c0.47,0,0.91,0.22,1.39,0.68l-0.61,1
					c-0.35-0.34-0.81-0.57-1.08-0.57c-0.79,0-1.42,0.79-1.42,1.79v3.05h-1.16v-5.84H215.23z"/>
			</g>
			<g class="st11">
				<path d="M223.91,336.89c-0.53,0.35-0.75,0.46-1.12,0.46c-0.51,0-0.78-0.18-0.88-0.6c-0.51,0.4-1.04,0.6-1.57,0.6
					c-0.86,0-1.43-0.68-1.43-1.43c0-1.16,1.05-1.51,1.99-1.85l1.03-0.36v-0.31c0-0.73-0.35-1.03-1.05-1.03
					c-0.64,0-1.29,0.3-1.85,0.96v-1.26c0.46-0.53,1.09-0.79,1.94-0.79c1.18,0,2.12,0.6,2.12,1.92v3c0,0.22,0.08,0.3,0.22,0.3
					c0.12,0,0.35-0.12,0.61-0.31V336.89z M221.92,334.34c-0.99,0.34-1.85,0.68-1.85,1.36c0,0.48,0.35,0.82,0.83,0.82
					c0.36,0,0.7-0.18,1.01-0.48V334.34z"/>
			</g>
			<g class="st11">
				<path d="M60.42,352.83h-2.46c-1.74,0-2.83-1.18-2.83-3.05c0-1.69,1.21-2.9,2.91-2.9c0.39,0,0.75,0.06,1.22,0.23v-3.15h1.16
					V352.83z M59.27,348.14c-0.39-0.16-0.69-0.22-1.08-0.22c-1.12,0-1.87,0.81-1.87,2.03c0,1.09,0.44,1.91,1.78,1.91h1.17V348.14z"
					/>
			</g>
			<g class="st11">
				<path d="M66.91,352.26c-0.7,0.47-1.34,0.69-2.33,0.69c-1.82,0-2.83-1.5-2.83-3.11c0-1.77,1.12-2.96,2.73-2.96
					c1.55,0,2.54,1.05,2.54,3.21h-4.11c0.18,1.16,0.84,1.75,1.96,1.75c0.7,0,1.37-0.26,2.04-0.7V352.26z M65.87,349.32
					c-0.04-0.88-0.55-1.44-1.37-1.44c-0.88,0-1.42,0.52-1.57,1.44H65.87z"/>
			</g>
			<g class="st11">
				<path d="M71.74,348.5c-0.65-0.43-1.26-0.61-1.69-0.61c-0.47,0-0.77,0.22-0.77,0.53c0,0.26,0.39,0.57,1.42,1.17
					c0.96,0.64,1.31,1.04,1.31,1.64c0,1.03-0.82,1.72-1.92,1.72c-0.71,0-1.27-0.14-2.03-0.53v-1.25c0.75,0.52,1.44,0.77,1.91,0.77
					c0.47-0.03,0.86-0.25,0.86-0.66c0-0.81-2.73-1.23-2.73-2.81c0-0.99,0.75-1.59,1.92-1.59c0.55,0,1.1,0.16,1.72,0.48V348.5z"/>
			</g>
			<g class="st11">
				<path d="M77.57,348.51c-0.66-0.44-1.11-0.57-1.61-0.57c-1.05,0-1.78,0.79-1.78,1.98c0,1.21,0.78,1.94,1.98,1.94
					c0.49,0,0.96-0.13,1.55-0.39v1.14c-0.39,0.18-1.13,0.34-1.74,0.34c-1.74,0-2.96-1.21-2.96-2.93c0-1.92,1.12-3.15,2.89-3.15
					c0.68,0,1.13,0.16,1.69,0.4V348.51z"/>
			</g>
			<g class="st11">
				<path d="M83.63,352.49c-0.53,0.35-0.75,0.46-1.12,0.46c-0.51,0-0.78-0.18-0.88-0.6c-0.51,0.4-1.04,0.6-1.57,0.6
					c-0.86,0-1.43-0.68-1.43-1.43c0-1.16,1.05-1.51,1.99-1.85l1.03-0.36V349c0-0.73-0.35-1.03-1.05-1.03c-0.64,0-1.29,0.3-1.85,0.96
					v-1.26c0.46-0.53,1.09-0.79,1.94-0.79c1.18,0,2.12,0.6,2.12,1.92v3c0,0.22,0.08,0.3,0.22,0.3c0.12,0,0.35-0.12,0.61-0.31V352.49
					z M81.64,349.94c-0.99,0.34-1.85,0.68-1.85,1.36c0,0.48,0.35,0.82,0.83,0.82c0.36,0,0.7-0.18,1.01-0.48V349.94z"/>
			</g>
			<g class="st11">
				<path d="M85.87,346.99v1.34h0.03c0.58-1.03,1.14-1.46,1.69-1.46c0.47,0,0.91,0.22,1.39,0.68l-0.61,1
					c-0.35-0.34-0.81-0.57-1.08-0.57c-0.79,0-1.42,0.79-1.42,1.79v3.05h-1.16v-5.84H85.87z"/>
			</g>
			<g class="st11">
				<path d="M91.56,346.99h1.85v1.04h-1.85v2.99c0,0.69,0.49,0.88,0.83,0.88c0.42,0,0.85-0.14,1.31-0.43v1.08
					c-0.4,0.22-1.03,0.39-1.4,0.39c-1.26,0-1.9-0.78-1.9-1.83v-3.08h-1.01v-0.13l2.17-2.12V346.99z"/>
			</g>
			<g class="st11">
				<path d="M99.36,352.49c-0.53,0.35-0.75,0.46-1.12,0.46c-0.51,0-0.78-0.18-0.88-0.6c-0.51,0.4-1.04,0.6-1.57,0.6
					c-0.86,0-1.43-0.68-1.43-1.43c0-1.16,1.05-1.51,1.99-1.85l1.03-0.36V349c0-0.73-0.35-1.03-1.05-1.03c-0.64,0-1.29,0.3-1.85,0.96
					v-1.26c0.46-0.53,1.09-0.79,1.94-0.79c1.18,0,2.12,0.6,2.12,1.92v3c0,0.22,0.08,0.3,0.22,0.3c0.12,0,0.35-0.12,0.61-0.31V352.49
					z M97.37,349.94c-0.99,0.34-1.85,0.68-1.85,1.36c0,0.48,0.35,0.82,0.83,0.82c0.36,0,0.7-0.18,1.01-0.48V349.94z"/>
			</g>
			<g class="st11">
				<path d="M101.59,346.99v1.34h0.03c0.58-1.03,1.14-1.46,1.69-1.46c0.47,0,0.91,0.22,1.39,0.68l-0.61,1
					c-0.35-0.34-0.81-0.57-1.08-0.57c-0.79,0-1.42,0.79-1.42,1.79v3.05h-1.16v-5.84H101.59z"/>
				<path d="M114,352.26c-0.7,0.47-1.34,0.69-2.33,0.69c-1.82,0-2.83-1.5-2.83-3.11c0-1.77,1.12-2.96,2.73-2.96
					c1.55,0,2.54,1.05,2.54,3.21h-4.11c0.18,1.16,0.85,1.75,1.96,1.75c0.7,0,1.36-0.26,2.04-0.7V352.26z M112.96,349.32
					c-0.04-0.88-0.55-1.44-1.37-1.44c-0.88,0-1.42,0.52-1.57,1.44H112.96z"/>
			</g>
			<g class="st11">
				<path d="M123.25,348.51c-0.66-0.44-1.11-0.57-1.61-0.57c-1.05,0-1.78,0.79-1.78,1.98c0,1.21,0.78,1.94,1.98,1.94
					c0.49,0,0.96-0.13,1.55-0.39v1.14c-0.39,0.18-1.13,0.34-1.74,0.34c-1.74,0-2.96-1.21-2.96-2.93c0-1.92,1.12-3.15,2.89-3.15
					c0.68,0,1.13,0.16,1.69,0.4V348.51z"/>
			</g>
			<g class="st11">
				<path d="M130.42,349.85c0,1.85-1.29,3.09-3.16,3.09c-1.79,0-3.08-1.3-3.08-3.09c0-1.68,1.34-2.98,3.08-2.98
					C129.09,346.88,130.42,348.12,130.42,349.85z M125.36,349.85c0,1.24,0.77,2.05,1.89,2.05c1.22,0,1.99-0.78,1.99-2.04
					c0-1.13-0.83-1.95-1.99-1.95C126.15,347.92,125.36,348.74,125.36,349.85z"/>
			</g>
			<g class="st11">
				<path d="M132.82,346.99v0.77c0.6-0.6,1.16-0.88,1.7-0.88c0.74,0,1.35,0.36,1.74,1.05c0.51-0.57,1.12-1.05,1.95-1.05
					c1.18,0,1.94,0.91,1.94,2.29v3.67H139v-3.61c0-0.88-0.55-1.37-1.21-1.37c-0.38-0.01-0.88,0.31-1.3,0.74v4.24h-1.16v-3.63
					c0-0.95-0.48-1.35-1.05-1.35c-0.58,0-0.97,0.18-1.46,0.74v4.24h-1.16v-5.84H132.82z"/>
			</g>
			<g class="st11">
				<path d="M142.86,355.82h-1.16v-8.83h2c2.13,0,3.29,1.04,3.29,2.96c0,1.75-1.23,2.99-2.96,2.99c-0.38,0-0.73-0.08-1.17-0.26
					V355.82z M142.86,351.65c0.35,0.17,0.73,0.26,1.09,0.26c1.08,0,1.86-0.83,1.86-1.96c0-1.21-0.64-1.91-1.9-1.91h-1.05V351.65z"/>
			</g>
			<g class="st11">
				<path d="M149.49,346.99v1.34h0.03c0.58-1.03,1.14-1.46,1.69-1.46c0.47,0,0.91,0.22,1.39,0.68l-0.61,1
					c-0.35-0.34-0.81-0.57-1.08-0.57c-0.79,0-1.42,0.79-1.42,1.79v3.05h-1.16v-5.84H149.49z"/>
			</g>
			<g class="st11">
				<path d="M158.16,352.26c-0.7,0.47-1.34,0.69-2.33,0.69c-1.82,0-2.83-1.5-2.83-3.11c0-1.77,1.12-2.96,2.73-2.96
					c1.55,0,2.54,1.05,2.54,3.21h-4.11c0.18,1.16,0.84,1.75,1.96,1.75c0.7,0,1.37-0.26,2.04-0.7V352.26z M157.12,349.32
					c-0.04-0.88-0.55-1.44-1.37-1.44c-0.88,0-1.42,0.52-1.57,1.44H157.12z"/>
			</g>
			<g class="st11">
				<path d="M166.82,352.83v-0.74c-0.48,0.52-1.16,0.86-1.73,0.86c-1.18,0-2.01-0.85-2.01-2.33v-3.63h1.16v3.71
					c0,0.82,0.4,1.29,1.2,1.29c0.52,0,1.01-0.29,1.39-0.82v-4.17h1.16v5.84H166.82z"/>
			</g>
			<g class="st11">
				<path d="M170.74,346.99v0.77c0.6-0.6,1.16-0.88,1.7-0.88c0.74,0,1.35,0.36,1.74,1.05c0.51-0.57,1.12-1.05,1.95-1.05
					c1.18,0,1.94,0.91,1.94,2.29v3.67h-1.16v-3.61c0-0.88-0.55-1.37-1.21-1.37c-0.38-0.01-0.88,0.31-1.3,0.74v4.24h-1.16v-3.63
					c0-0.95-0.48-1.35-1.05-1.35c-0.58,0-0.97,0.18-1.46,0.74v4.24h-1.16v-5.84H170.74z"/>
			</g>
			<g class="st11">
				<path d="M184.29,352.49c-0.53,0.35-0.75,0.46-1.12,0.46c-0.51,0-0.78-0.18-0.88-0.6c-0.51,0.4-1.04,0.6-1.57,0.6
					c-0.86,0-1.43-0.68-1.43-1.43c0-1.16,1.05-1.51,1.99-1.85l1.03-0.36V349c0-0.73-0.35-1.03-1.05-1.03c-0.64,0-1.29,0.3-1.85,0.96
					v-1.26c0.46-0.53,1.09-0.79,1.94-0.79c1.18,0,2.12,0.6,2.12,1.92v3c0,0.22,0.08,0.3,0.22,0.3c0.12,0,0.35-0.12,0.61-0.31V352.49
					z M182.3,349.94c-0.99,0.34-1.85,0.68-1.85,1.36c0,0.48,0.35,0.82,0.83,0.82c0.36,0,0.7-0.18,1.01-0.48V349.94z"/>
			</g>
			<g class="st11">
				<path d="M190.06,347.76h0.03c0.44-0.56,1.09-0.88,1.74-0.88c1.11,0,1.99,0.75,1.99,2.35v3.6h-1.16v-3.61
					c0-0.86-0.44-1.42-1.14-1.42c-0.51,0-0.91,0.23-1.46,0.84v4.19h-1.16v-5.84h1.16V347.76z"/>
			</g>
			<g class="st11">
				<path d="M201.3,349.85c0,1.85-1.29,3.09-3.16,3.09c-1.79,0-3.08-1.3-3.08-3.09c0-1.68,1.34-2.98,3.08-2.98
					C199.97,346.88,201.3,348.12,201.3,349.85z M196.24,349.85c0,1.24,0.77,2.05,1.88,2.05c1.22,0,1.99-0.78,1.99-2.04
					c0-1.13-0.83-1.95-1.99-1.95C197.03,347.92,196.24,348.74,196.24,349.85z"/>
			</g>
			<g class="st11">
				<path d="M201.56,346.99h1.26l1.57,3.59l1.54-3.59h1.23l-2.57,5.95h-0.39L201.56,346.99z"/>
			</g>
			<g class="st11">
				<path d="M212.67,352.49c-0.53,0.35-0.75,0.46-1.12,0.46c-0.51,0-0.78-0.18-0.88-0.6c-0.51,0.4-1.04,0.6-1.57,0.6
					c-0.86,0-1.43-0.68-1.43-1.43c0-1.16,1.05-1.51,1.99-1.85l1.03-0.36V349c0-0.73-0.35-1.03-1.05-1.03c-0.64,0-1.29,0.3-1.85,0.96
					v-1.26c0.46-0.53,1.09-0.79,1.94-0.79c1.18,0,2.12,0.6,2.12,1.92v3c0,0.22,0.08,0.3,0.22,0.3c0.12,0,0.35-0.12,0.61-0.31V352.49
					z M210.68,349.94c-0.99,0.34-1.85,0.68-1.85,1.36c0,0.48,0.35,0.82,0.83,0.82c0.36,0,0.7-0.18,1.01-0.48V349.94z"/>
			</g>
			<g class="st11">
				<path d="M215.36,352.17c0,0.43-0.35,0.78-0.78,0.78s-0.78-0.35-0.78-0.78s0.35-0.78,0.78-0.78S215.36,351.74,215.36,352.17z"/>
			</g>
			<g class="st11">
				<path d="M92.35,44.96h-4.72v11.88h-1.96V44.96h-4.72V43.2h11.4V44.96z"/>
			</g>
			<g class="st11">
				<path d="M93.35,47.86v2.06h0.04c0.9-1.58,1.76-2.24,2.6-2.24c0.72,0,1.4,0.34,2.14,1.04l-0.94,1.54
					c-0.54-0.52-1.24-0.88-1.66-0.88c-1.22,0-2.18,1.22-2.18,2.76v4.7h-1.78v-8.98H93.35z"/>
			</g>
			<g class="st11">
				<path d="M107.93,52.26c0,2.84-1.98,4.76-4.86,4.76c-2.76,0-4.74-2-4.74-4.76c0-2.58,2.06-4.58,4.74-4.58
					C105.89,47.68,107.93,49.6,107.93,52.26z M100.15,52.26c0,1.9,1.18,3.16,2.9,3.16c1.88,0,3.06-1.2,3.06-3.14
					c0-1.74-1.28-3-3.06-3C101.37,49.28,100.15,50.54,100.15,52.26z"/>
				<path d="M116.51,50.2c-1.02-0.68-1.7-0.88-2.48-0.88c-1.62,0-2.74,1.22-2.74,3.04c0,1.86,1.2,2.98,3.04,2.98
					c0.76,0,1.48-0.2,2.38-0.6v1.76c-0.6,0.28-1.74,0.52-2.68,0.52c-2.68,0-4.56-1.86-4.56-4.5c0-2.96,1.72-4.84,4.44-4.84
					c1.04,0,1.74,0.24,2.6,0.62V50.2z"/>
				<path d="M125.63,56.32c-0.82,0.54-1.16,0.7-1.72,0.7c-0.78,0-1.2-0.28-1.36-0.92c-0.78,0.62-1.6,0.92-2.42,0.92
					c-1.32,0-2.2-1.04-2.2-2.2c0-1.78,1.62-2.32,3.06-2.84l1.58-0.56v-0.48c0-1.12-0.54-1.58-1.62-1.58c-0.98,0-1.98,0.46-2.84,1.48
					V48.9c0.7-0.82,1.68-1.22,2.98-1.22c1.82,0,3.26,0.92,3.26,2.96v4.62c0,0.34,0.12,0.46,0.34,0.46c0.18,0,0.54-0.18,0.94-0.48
					V56.32z M122.57,52.4c-1.52,0.52-2.84,1.04-2.84,2.1c0,0.74,0.54,1.26,1.28,1.26c0.56,0,1.08-0.28,1.56-0.74V52.4z"/>
				<path d="M140.53,56.84h-3.78c-2.68,0-4.36-1.82-4.36-4.7c0-2.6,1.86-4.46,4.48-4.46c0.6,0,1.16,0.1,1.88,0.36V43.2h1.78V56.84z
					 M138.75,49.62c-0.6-0.24-1.06-0.34-1.66-0.34c-1.72,0-2.88,1.24-2.88,3.12c0,1.68,0.68,2.94,2.74,2.94h1.8V49.62z"/>
				<path d="M150.47,55.96c-1.08,0.72-2.06,1.06-3.58,1.06c-2.8,0-4.36-2.3-4.36-4.78c0-2.72,1.72-4.56,4.2-4.56
					c2.38,0,3.9,1.62,3.9,4.94h-6.32c0.28,1.78,1.3,2.7,3.02,2.7c1.08,0,2.1-0.4,3.14-1.08V55.96z M148.87,51.44
					c-0.06-1.36-0.84-2.22-2.1-2.22c-1.36,0-2.18,0.8-2.42,2.22H148.87z"/>
				<path d="M169.97,46.24c-1.68-0.98-3.12-1.42-4.7-1.42c-3.12,0-5.44,2.22-5.44,5.22c0,3.06,2.24,5.18,5.52,5.18
					c1.54,0,3.22-0.54,4.76-1.54v2.14c-1.34,0.7-2.8,1.2-4.94,1.2c-5.12,0-7.36-3.94-7.36-6.8c0-4.16,3.14-7.2,7.48-7.2
					c1.4,0,2.82,0.34,4.68,1.12V46.24z"/>
				<path d="M181.33,52.26c0,2.84-1.98,4.76-4.86,4.76c-2.76,0-4.74-2-4.74-4.76c0-2.58,2.06-4.58,4.74-4.58
					C179.29,47.68,181.33,49.6,181.33,52.26z M173.55,52.26c0,1.9,1.18,3.16,2.9,3.16c1.88,0,3.06-1.2,3.06-3.14
					c0-1.74-1.28-3-3.06-3C174.77,49.28,173.55,50.54,173.55,52.26z"/>
				<path d="M185.21,47.86v2.06h0.04c0.9-1.58,1.76-2.24,2.6-2.24c0.72,0,1.4,0.34,2.14,1.04l-0.94,1.54
					c-0.54-0.52-1.24-0.88-1.66-0.88c-1.22,0-2.18,1.22-2.18,2.76v4.7h-1.78v-8.98H185.21z"/>
			</g>
			<path d="M28.48,32.57h6.65v1h-2.77v7h-1.15v-7h-2.73V32.57z"/>
			<g>
				<circle class="st12" cx="31.81" cy="35.86" r="7.94"/>
			</g>
			<circle class="st2" cx="26.19" cy="30.25" r="1.23"/>
			<circle class="st3" cx="23.87" cy="35.86" r="1.23"/>
			<circle class="st4" cx="26.19" cy="41.47" r="1.23"/>
			<circle class="st5" cx="31.81" cy="43.79" r="1.23"/>
			<circle class="st6" cx="37.42" cy="41.47" r="1.23"/>
			<circle class="st7" cx="39.74" cy="35.86" r="1.23"/>
			<circle class="st8" cx="37.42" cy="30.25" r="1.23"/>
			<circle id="Mammal-2" class="st9" cx="31.81" cy="27.92" r="1.23"/>
			<g>
				<circle class="st12" cx="31.81" cy="35.86" r="7.94"/>
			</g>
			<circle cx="26.19" cy="30.25" r="1.23"/>
			<circle cx="23.87" cy="35.86" r="1.23"/>
			<circle cx="26.19" cy="41.47" r="1.23"/>
			<circle cx="31.81" cy="43.79" r="1.23"/>
			<circle cx="37.42" cy="41.47" r="1.23"/>
			<circle cx="39.74" cy="35.86" r="1.23"/>
			<circle cx="37.42" cy="30.25" r="1.23"/>
			<circle id="Mammal-3" cx="31.81" cy="27.92" r="1.23"/>
			<path d="M242.1,350.11h-6.65v-1h2.77v-7h1.15v7h2.73V350.11z"/>
			<g>
				<circle class="st12" cx="238.77" cy="346.82" r="7.94"/>
			</g>
			<circle class="st2" cx="244.39" cy="352.43" r="1.23"/>
			<circle class="st3" cx="246.71" cy="346.82" r="1.23"/>
			<circle class="st4" cx="244.39" cy="341.21" r="1.23"/>
			<circle class="st5" cx="238.77" cy="338.88" r="1.23"/>
			<circle class="st6" cx="233.16" cy="341.21" r="1.23"/>
			<circle class="st7" cx="230.84" cy="346.82" r="1.23"/>
			<circle class="st8" cx="233.16" cy="352.43" r="1.23"/>
			<circle id="Mammal-4" class="st9" cx="238.77" cy="354.76" r="1.23"/>
			<g>
				<circle class="st12" cx="238.77" cy="346.82" r="7.94"/>
			</g>
			<circle cx="244.39" cy="352.43" r="1.23"/>
			<circle cx="246.71" cy="346.82" r="1.23"/>
			<circle cx="244.39" cy="341.21" r="1.23"/>
			<circle cx="238.77" cy="338.88" r="1.23"/>
			<circle cx="233.16" cy="341.21" r="1.23"/>
			<circle cx="230.84" cy="346.82" r="1.23"/>
			<circle cx="233.16" cy="352.43" r="1.23"/>
			<circle id="Mammal-5" cx="238.77" cy="354.76" r="1.23"/>
		</g>
	</g>
</g>
</svg>
