<?xml version="1.0" encoding="utf-8"?>
<!-- Generator: Adobe Illustrator 21.1.0, SVG Export Plug-In . SVG Version: 6.00 Build 0)  -->
<svg version="1.1" id="ZooUno" xmlns="http://www.w3.org/2000/svg" xmlns:xlink="http://www.w3.org/1999/xlink" x="0px" y="0px"
	 viewBox="0 0 270.58 382.68" style="enable-background:new 0 0 270.58 382.68;" xml:space="preserve">
<style type="text/css">
	.st0{fill:none;stroke:#000000;stroke-width:1.27;stroke-miterlimit:10;}
	.st1{fill:#F39400;}
	.st2{fill:#BFBFBF;}
	.st3{fill:#E41718;}
	.st4{fill:#002DAA;}
	.st5{fill:#5BB9EB;}
	.st6{fill:#FF33A2;}
	.st7{fill:none;stroke:#BFBFBF;stroke-width:6.88;stroke-linecap:square;stroke-miterlimit:10;}
	.st8{fill:#FBF796;}
	.st9{fill:#44AC36;}
	.st10{fill:none;stroke:url(#SVGID_1_);stroke-width:6.88;stroke-linecap:square;stroke-miterlimit:10;}
	.st11{enable-background:new    ;}
	.st12{fill:none;stroke:#000000;stroke-width:0.1;stroke-miterlimit:10;}
</style>
<g>
	<path d="M244.39,350.56c1.03,0,1.87,0.84,1.87,1.87c0,0.49-0.2,0.97-0.55,1.32c-0.35,0.36-0.82,0.55-1.32,0.55
		c-1.03,0-1.87-0.83-1.88-1.86c0-0.5,0.19-0.97,0.55-1.33C243.41,350.76,243.89,350.56,244.39,350.56z"/>
	<path d="M246.71,345c1.03,0,1.87,0.84,1.87,1.87c0,1.03-0.84,1.87-1.87,1.87c-1.03,0-1.87-0.84-1.87-1.87l0,0
		C244.84,345.84,245.68,345,246.71,345z"/>
	<path d="M244.39,339.34c0.49,0,0.97,0.19,1.32,0.54c0.73,0.74,0.72,1.93-0.02,2.66c-0.35,0.34-0.81,0.54-1.3,0.54
		c-0.5,0-0.98-0.2-1.33-0.55c-0.35-0.35-0.54-0.83-0.54-1.32c-0.02-1.02,0.79-1.85,1.81-1.87
		C244.35,339.34,244.37,339.34,244.39,339.34L244.39,339.34z"/>
	<circle cx="238.77" cy="338.88" r="1.87"/>
	<path d="M233.16,339.34c1.03-0.01,1.86,0.82,1.87,1.85c0,0.01,0,0.01,0,0.02c0,0.5-0.19,0.97-0.55,1.32
		c-0.73,0.73-1.91,0.73-2.64,0c-0.73-0.73-0.73-1.91,0-2.64C232.18,339.54,232.66,339.34,233.16,339.34L233.16,339.34z"/>
	<path d="M230.84,345c1.03,0,1.87,0.84,1.87,1.87c0,1.03-0.84,1.87-1.87,1.87c-1.03,0-1.87-0.84-1.87-1.87l0,0
		C228.97,345.84,229.81,345,230.84,345z"/>
	<path d="M233.16,350.56c0.5,0,0.97,0.2,1.32,0.55c0.77,0.69,0.84,1.87,0.16,2.64c-0.69,0.77-1.87,0.84-2.64,0.16
		c-0.05-0.05-0.11-0.1-0.16-0.16c-0.73-0.73-0.73-1.92,0-2.64C232.19,350.76,232.67,350.56,233.16,350.56L233.16,350.56z"/>
	<circle cx="238.77" cy="354.76" r="1.87"/>
</g>
<g>
	<path d="M26.19,32.12c-1.03,0-1.87-0.84-1.87-1.87c0-1.03,0.84-1.87,1.87-1.87c0,0,0,0,0,0c1.03,0,1.87,0.84,1.87,1.87
		C28.06,31.28,27.22,32.12,26.19,32.12C26.19,32.12,26.19,32.12,26.19,32.12z"/>
	<path d="M23.87,37.73c-1.03,0-1.87-0.84-1.87-1.87c0-1.03,0.84-1.87,1.87-1.87c1.03,0,1.87,0.84,1.87,1.87l0,0
		C25.74,36.89,24.9,37.73,23.87,37.73z"/>
	<path d="M26.19,43.34c-0.5,0-0.97-0.19-1.32-0.55c-0.73-0.72-0.73-1.9-0.01-2.63c0,0,0.01-0.01,0.01-0.01
		c0.35-0.36,0.82-0.55,1.32-0.55c1.03,0,1.87,0.84,1.87,1.87C28.06,42.5,27.22,43.34,26.19,43.34z"/>
	<circle cx="31.81" cy="43.79" r="1.87"/>
	<path d="M37.42,43.34c-1.03,0-1.87-0.83-1.87-1.87c0-1.03,0.83-1.87,1.87-1.87c0.5,0,0.98,0.2,1.33,0.55
		c0.73,0.72,0.73,1.9,0.01,2.63c0,0-0.01,0.01-0.01,0.01C38.39,43.15,37.92,43.34,37.42,43.34z"/>
	<path d="M39.74,37.73c-1.03,0-1.87-0.84-1.87-1.87c0-1.03,0.84-1.87,1.87-1.87c1.03,0,1.87,0.84,1.87,1.87c0,0,0,0,0,0
		C41.61,36.89,40.77,37.73,39.74,37.73z"/>
	<path d="M37.42,32.12c-1.04,0-1.88-0.83-1.89-1.87c0-1.04,0.83-1.88,1.87-1.89s1.88,0.83,1.89,1.87c0,0.5-0.2,0.98-0.55,1.34
		C38.39,31.92,37.92,32.12,37.42,32.12z"/>
	<circle cx="31.81" cy="27.92" r="1.87"/>
</g>
<g>
	<path d="M108.32,195.08c1.69,11.51,10.55,20.64,22,22.67c2.75,0.45,5.56,0.51,8.33,0.15c2.76-0.37,5.44-1.19,7.94-2.41
		c5.02-2.42,9.15-6.35,11.83-11.24l0,0c0.18-0.35,0.61-0.48,0.96-0.3c0.01,0.01,0.03,0.02,0.04,0.02c0.35,0.18,0.49,0.62,0.31,0.97
		c-0.01,0.01-0.01,0.02-0.02,0.03l0,0c-2.91,5.06-7.32,9.09-12.63,11.53c-2.63,1.2-5.43,1.98-8.3,2.31
		c-2.86,0.31-5.75,0.2-8.58-0.33c-11.56-2.27-20.38-11.69-21.88-23.38V195.08z"/>
	<path d="M162.26,195.08c0.07,5,0.92,11.56,2.68,16l-6.49-5.35h-8.41C154.25,203.46,159,198.94,162.26,195.08z"/>
	<path d="M110.87,177.72c2.91-5.06,7.32-9.09,12.63-11.52c2.62-1.21,5.43-2,8.3-2.32c2.86-0.31,5.74-0.19,8.57,0.33
		c5.65,1.16,10.8,4.02,14.76,8.21c3.88,4.21,6.37,9.51,7.13,15.18c-1.7-11.5-10.56-20.63-22-22.67c-2.75-0.46-5.56-0.51-8.33-0.15
		c-2.78,0.37-5.48,1.18-8,2.4c-5.02,2.43-9.15,6.36-11.83,11.25l0,0c-0.19,0.35-0.63,0.48-0.98,0.29c-0.35-0.19-0.48-0.63-0.29-0.98
		L110.87,177.72z"/>
	<path d="M108.32,187.6c3.23-3.86,8-8.38,12.22-10.74h-8.41l-6.49-5.35C107.4,176,108.25,182.56,108.32,187.6z"/>
</g>
<g>
	<path d="M66.78,145.66c-12.6-0.02-22.79-10.25-22.77-22.85s10.25-22.79,22.85-22.77c12.6,0.02,22.79,10.25,22.77,22.85
		c-0.01,6.05-2.42,11.84-6.7,16.11C78.65,143.29,72.84,145.69,66.78,145.66z"/>
	<path d="M38.41,214.17c-12.61,0-22.83-10.22-22.83-22.83c0-12.61,10.22-22.83,22.83-22.83s22.83,10.22,22.83,22.83l0,0
		C61.23,203.94,51.01,214.16,38.41,214.17z"/>
	<path d="M66.78,282.68c-12.6-0.01-22.81-10.23-22.8-22.84c0.01-12.6,10.23-22.81,22.84-22.8s22.81,10.23,22.8,22.84
		c0,6.05-2.41,11.85-6.69,16.12C78.66,280.29,72.84,282.7,66.78,282.68z"/>
	<circle cx="135.29" cy="288.22" r="22.83"/>
	<path d="M203.8,282.68c-12.61,0-22.84-10.23-22.84-22.84c0-12.61,10.23-22.84,22.84-22.84c12.61,0,22.84,10.23,22.84,22.84
		c0,6.06-2.41,11.88-6.7,16.16C215.67,280.29,209.86,282.69,203.8,282.68z"/>
	<path d="M232.17,214.17c-12.61,0-22.83-10.22-22.83-22.83s10.22-22.83,22.83-22.83S255,178.73,255,191.34
		C254.98,203.94,244.77,214.15,232.17,214.17z"/>
	<path d="M203.8,145.66c-12.61-0.01-22.82-10.24-22.81-22.85s10.24-22.82,22.85-22.81c12.61,0.01,22.82,10.24,22.81,22.85
		c-0.01,6.06-2.42,11.87-6.71,16.15C215.66,143.28,209.85,145.68,203.8,145.66z"/>
	<circle cx="135.29" cy="94.45" r="22.83"/>
</g>
<title>ZooUno Fields Cartas Finais pra Lari</title>
<g id="Final_Cards">
	<g id="Field_cards">
		<g id="_1_1">
			<g id="Border">
				<g id="Outer_Line">
					<path d="M269.19,1.39v379.89H1.39V1.39H269.19 M270.58,0H0v382.68h270.58V0z"/>
				</g>
				<path d="M266.68,4.47V378.2H3.9V4.47H266.68 M267.81,3.35H2.77v376h265v-376H267.81z"/>
				<path d="M264.18,7.55v367.57H6.4V7.55H264.18 M265.04,6.69H5.54V376H265V6.69H265.04z"/>
				<path d="M261.68,10.63V372H8.9V10.63H261.68 M262.27,10.04H8.31v362.6h254V10L262.27,10.04z"/>
				<path d="M259.17,13.71V369H11.41V13.71H259.17 M259.5,13.39H11.08v355.9H259.5V13.39z"/>
				<g id="Inner_Line">
					<path d="M256.67,16.79v349.09H13.91V16.79H256.67 M256.73,16.73H13.85V366h242.88C256.73,366,256.73,16.73,256.73,16.73z"/>
				</g>
			</g>
			<g>
				<circle class="st0" cx="135.29" cy="191.34" r="96.88"/>
			</g>
			<circle class="st1" cx="66.78" cy="122.83" r="15.07"/>
			<circle class="st2" cx="38.41" cy="191.34" r="15.07"/>
			<circle class="st3" cx="66.78" cy="259.85" r="15.07"/>
			<circle class="st4" cx="135.29" cy="288.22" r="15.07"/>
			<circle class="st5" cx="203.8" cy="259.85" r="15.07"/>
			<circle class="st6" cx="232.17" cy="191.34" r="15.07"/>
			<line class="st7" x1="53.47" y1="191.34" x2="93.32" y2="191.34"/>
			<circle class="st8" cx="203.8" cy="122.83" r="15.07"/>
			<circle id="Mammal" class="st9" cx="135.29" cy="94.45" r="15.07"/>
			
				<linearGradient id="SVGID_1_" gradientUnits="userSpaceOnUse" x1="50.03" y1="192.66" x2="96.76" y2="192.66" gradientTransform="matrix(1 0 0 -1 0 384)">
				<stop  offset="0" style="stop-color:#000000;stop-opacity:0"/>
				<stop  offset="0.15" style="stop-color:#040403;stop-opacity:0"/>
				<stop  offset="0.85" style="stop-color:#000000"/>
				<stop  offset="1" style="stop-color:#000000"/>
			</linearGradient>
			<line class="st10" x1="53.47" y1="191.34" x2="93.32" y2="191.34"/>
			<g>
				<circle cx="135.29" cy="191.34" r="41.98"/>
			</g>
			<g class="st11">
				<path d="M46.76,318.34c-0.75-0.71-1.48-0.92-2.08-0.92c-0.82,0-1.4,0.43-1.4,1.05c0,1.7,3.83,1.68,3.83,4.5
					c0,1.39-1.05,2.41-2.48,2.41c-0.96,0-1.74-0.26-2.48-0.82v-1.61c0.65,0.83,1.47,1.29,2.34,1.29c0.99,0,1.44-0.62,1.44-1.12
					c0-1.83-3.83-2.04-3.83-4.47c0-1.44,1.07-2.37,2.69-2.37c0.68,0,1.35,0.21,1.98,0.62V318.34z"/>
			</g>
			<g class="st11">
				<path d="M53.32,324.69c-0.7,0.47-1.34,0.69-2.33,0.69c-1.82,0-2.83-1.5-2.83-3.11c0-1.77,1.12-2.96,2.73-2.96
					c1.55,0,2.54,1.05,2.54,3.21h-4.11c0.18,1.16,0.85,1.75,1.96,1.75c0.7,0,1.36-0.26,2.04-0.7V324.69z M52.28,321.75
					c-0.04-0.88-0.55-1.44-1.37-1.44c-0.88,0-1.42,0.52-1.57,1.44H52.28z"/>
				<path d="M62.81,324.92c-0.53,0.35-0.75,0.46-1.12,0.46c-0.51,0-0.78-0.18-0.88-0.6c-0.51,0.4-1.04,0.6-1.57,0.6
					c-0.86,0-1.43-0.68-1.43-1.43c0-1.16,1.05-1.51,1.99-1.85l1.03-0.36v-0.31c0-0.73-0.35-1.03-1.05-1.03
					c-0.64,0-1.29,0.3-1.85,0.96v-1.26c0.46-0.53,1.09-0.79,1.94-0.79c1.18,0,2.12,0.6,2.12,1.92v3c0,0.22,0.08,0.3,0.22,0.3
					c0.12,0,0.35-0.12,0.61-0.31V324.92z M60.82,322.37c-0.99,0.34-1.85,0.68-1.85,1.36c0,0.48,0.35,0.82,0.83,0.82
					c0.36,0,0.7-0.18,1.01-0.48V322.37z"/>
			</g>
			<g class="st11">
				<path d="M71.74,320.94c-0.66-0.44-1.11-0.57-1.61-0.57c-1.05,0-1.78,0.79-1.78,1.98c0,1.21,0.78,1.94,1.98,1.94
					c0.49,0,0.96-0.13,1.55-0.39v1.14c-0.39,0.18-1.13,0.34-1.74,0.34c-1.74,0-2.96-1.21-2.96-2.93c0-1.92,1.12-3.15,2.89-3.15
					c0.68,0,1.13,0.16,1.69,0.4V320.94z"/>
			</g>
			<g class="st11">
				<path d="M77.8,324.92c-0.53,0.35-0.75,0.46-1.12,0.46c-0.51,0-0.78-0.18-0.88-0.6c-0.51,0.4-1.04,0.6-1.57,0.6
					c-0.86,0-1.43-0.68-1.43-1.43c0-1.16,1.05-1.51,1.99-1.85l1.03-0.36v-0.31c0-0.73-0.35-1.03-1.05-1.03
					c-0.64,0-1.29,0.3-1.85,0.96v-1.26c0.46-0.53,1.09-0.79,1.94-0.79c1.18,0,2.12,0.6,2.12,1.92v3c0,0.22,0.08,0.3,0.22,0.3
					c0.12,0,0.35-0.12,0.61-0.31V324.92z M75.81,322.37c-0.99,0.34-1.85,0.68-1.85,1.36c0,0.48,0.35,0.82,0.83,0.82
					c0.36,0,0.7-0.18,1.01-0.48V322.37z"/>
			</g>
			<g class="st11">
				<path d="M80.04,319.42v1.34h0.03c0.58-1.03,1.14-1.46,1.69-1.46c0.47,0,0.91,0.22,1.39,0.68l-0.61,1
					c-0.35-0.34-0.81-0.57-1.08-0.57c-0.79,0-1.42,0.79-1.42,1.79v3.05h-1.16v-5.84H80.04z"/>
			</g>
			<g class="st11">
				<path d="M85.73,319.42h1.85v1.04h-1.85v2.99c0,0.69,0.49,0.88,0.83,0.88c0.42,0,0.85-0.14,1.31-0.43v1.08
					c-0.4,0.22-1.03,0.39-1.4,0.39c-1.26,0-1.9-0.78-1.9-1.83v-3.08h-1.01v-0.13l2.17-2.12V319.42z"/>
			</g>
			<g class="st11">
				<path d="M93.53,324.92c-0.53,0.35-0.75,0.46-1.12,0.46c-0.51,0-0.78-0.18-0.88-0.6c-0.51,0.4-1.04,0.6-1.57,0.6
					c-0.86,0-1.43-0.68-1.43-1.43c0-1.16,1.05-1.51,1.99-1.85l1.03-0.36v-0.31c0-0.73-0.35-1.03-1.05-1.03
					c-0.64,0-1.29,0.3-1.85,0.96v-1.26c0.46-0.53,1.09-0.79,1.94-0.79c1.18,0,2.12,0.6,2.12,1.92v3c0,0.22,0.08,0.3,0.22,0.3
					c0.12,0,0.35-0.12,0.61-0.31V324.92z M91.54,322.37c-0.99,0.34-1.85,0.68-1.85,1.36c0,0.48,0.35,0.82,0.83,0.82
					c0.36,0,0.7-0.18,1.01-0.48V322.37z"/>
			</g>
			<g class="st11">
				<path d="M101.55,320.93c-0.65-0.43-1.26-0.61-1.69-0.61c-0.47,0-0.77,0.22-0.77,0.53c0,0.26,0.39,0.57,1.42,1.17
					c0.96,0.64,1.31,1.04,1.31,1.64c0,1.03-0.82,1.72-1.92,1.72c-0.71,0-1.27-0.14-2.03-0.53v-1.25c0.75,0.52,1.44,0.77,1.91,0.77
					c0.47-0.03,0.86-0.25,0.86-0.66c0-0.81-2.73-1.23-2.73-2.81c0-0.99,0.75-1.59,1.92-1.59c0.55,0,1.1,0.16,1.72,0.48V320.93z"/>
			</g>
			<g class="st11">
				<path d="M108.96,322.28c0,1.85-1.29,3.09-3.16,3.09c-1.79,0-3.08-1.3-3.08-3.09c0-1.68,1.34-2.98,3.08-2.98
					C107.63,319.31,108.96,320.55,108.96,322.28z M103.9,322.28c0,1.24,0.77,2.05,1.89,2.05c1.22,0,1.99-0.78,1.99-2.04
					c0-1.13-0.83-1.95-1.99-1.95C104.69,320.35,103.9,321.17,103.9,322.28z"/>
			</g>
			<g class="st11">
				<path d="M111.35,319.84c0.51-0.36,1.03-0.53,1.61-0.53c1.46,0,2.52,1.24,2.52,2.91c0,1.98-1.17,3.16-3.12,3.16
					c-0.77,0-1.6-0.17-2.17-0.44v-8.54h1.16V319.84z M111.35,324.1c0.34,0.1,0.83,0.18,1.17,0.18c1.04,0,1.78-0.79,1.78-1.9
					c0-1.24-0.65-2.04-1.63-2.04c-0.48,0-0.83,0.16-1.33,0.6V324.1z"/>
			</g>
			<g class="st11">
				<path d="M125.23,324.69c-0.7,0.47-1.34,0.69-2.33,0.69c-1.82,0-2.83-1.5-2.83-3.11c0-1.77,1.12-2.96,2.73-2.96
					c1.55,0,2.54,1.05,2.54,3.21h-4.11c0.18,1.16,0.85,1.75,1.96,1.75c0.7,0,1.36-0.26,2.04-0.7V324.69z M124.19,321.75
					c-0.04-0.88-0.55-1.44-1.37-1.44c-0.88,0-1.42,0.52-1.57,1.44H124.19z"/>
			</g>
			<g class="st11">
				<path d="M130.07,320.93c-0.65-0.43-1.26-0.61-1.69-0.61c-0.47,0-0.77,0.22-0.77,0.53c0,0.26,0.39,0.57,1.42,1.17
					c0.96,0.64,1.31,1.04,1.31,1.64c0,1.03-0.82,1.72-1.92,1.72c-0.71,0-1.27-0.14-2.03-0.53v-1.25c0.75,0.52,1.44,0.77,1.91,0.77
					c0.47-0.03,0.86-0.25,0.86-0.66c0-0.81-2.73-1.23-2.73-2.81c0-0.99,0.75-1.59,1.92-1.59c0.55,0,1.1,0.16,1.72,0.48V320.93z"/>
			</g>
			<g class="st11">
				<path d="M133.1,319.42h1.85v1.04h-1.85v2.99c0,0.69,0.49,0.88,0.83,0.88c0.42,0,0.85-0.14,1.31-0.43v1.08
					c-0.4,0.22-1.03,0.39-1.4,0.39c-1.26,0-1.9-0.78-1.9-1.83v-3.08h-1.01v-0.13l2.17-2.12V319.42z"/>
			</g>
			<g class="st11">
				<path d="M140.89,324.92c-0.53,0.35-0.75,0.46-1.12,0.46c-0.51,0-0.78-0.18-0.88-0.6c-0.51,0.4-1.04,0.6-1.57,0.6
					c-0.86,0-1.43-0.68-1.43-1.43c0-1.16,1.05-1.51,1.99-1.85l1.03-0.36v-0.31c0-0.73-0.35-1.03-1.05-1.03
					c-0.64,0-1.29,0.3-1.85,0.96v-1.26c0.46-0.53,1.09-0.79,1.94-0.79c1.18,0,2.12,0.6,2.12,1.92v3c0,0.22,0.08,0.3,0.22,0.3
					c0.12,0,0.35-0.12,0.61-0.31V324.92z M138.9,322.37c-0.99,0.34-1.85,0.68-1.85,1.36c0,0.48,0.35,0.82,0.83,0.82
					c0.36,0,0.7-0.18,1.01-0.48V322.37z"/>
			</g>
			<g class="st11">
				<path d="M148.56,317.52c-0.2-0.08-0.31-0.1-0.52-0.1c-0.94,0-1.24,0.55-1.24,1.44v0.56h1.05v1.04h-1.05v4.8h-1.16v-4.8h-0.82
					v-1.04h0.82v-0.43c0-1.14,0.27-1.69,0.74-2.16c0.49-0.49,1.16-0.73,2.17-0.44V317.52z"/>
			</g>
			<g class="st11">
				<path d="M154.6,322.28c0,1.85-1.29,3.09-3.16,3.09c-1.79,0-3.08-1.3-3.08-3.09c0-1.68,1.34-2.98,3.08-2.98
					C153.27,319.31,154.6,320.55,154.6,322.28z M149.54,322.28c0,1.24,0.77,2.05,1.88,2.05c1.22,0,1.99-0.78,1.99-2.04
					c0-1.13-0.83-1.95-1.99-1.95C150.33,320.35,149.54,321.17,149.54,322.28z"/>
			</g>
			<g class="st11">
				<path d="M157.06,319.42v1.34h0.03c0.58-1.03,1.14-1.46,1.69-1.46c0.47,0,0.91,0.22,1.39,0.68l-0.61,1
					c-0.35-0.34-0.81-0.57-1.08-0.57c-0.79,0-1.42,0.79-1.42,1.79v3.05h-1.16v-5.84H157.06z"/>
			</g>
			<g class="st11">
				<path d="M169.63,325.26h-2.46c-1.74,0-2.83-1.18-2.83-3.05c0-1.69,1.21-2.9,2.91-2.9c0.39,0,0.75,0.06,1.22,0.23v-3.15h1.16
					V325.26z M168.48,320.57c-0.39-0.16-0.69-0.22-1.08-0.22c-1.12,0-1.87,0.81-1.87,2.03c0,1.09,0.44,1.91,1.78,1.91h1.17V320.57z"
					/>
			</g>
			<g class="st11">
				<path d="M176.11,324.69c-0.7,0.47-1.34,0.69-2.33,0.69c-1.82,0-2.83-1.5-2.83-3.11c0-1.77,1.12-2.96,2.73-2.96
					c1.55,0,2.54,1.05,2.54,3.21h-4.11c0.18,1.16,0.84,1.75,1.96,1.75c0.7,0,1.37-0.26,2.04-0.7V324.69z M175.07,321.75
					c-0.04-0.88-0.55-1.44-1.37-1.44c-0.88,0-1.42,0.52-1.57,1.44H175.07z"/>
			</g>
			<g class="st11">
				<path d="M188.79,318.37c-1.09-0.64-2.03-0.92-3.05-0.92c-2.03,0-3.54,1.44-3.54,3.39c0,1.99,1.46,3.37,3.59,3.37
					c1,0,2.09-0.35,3.09-1v1.39c-0.87,0.46-1.82,0.78-3.21,0.78c-3.33,0-4.78-2.56-4.78-4.42c0-2.7,2.04-4.68,4.86-4.68
					c0.91,0,1.83,0.22,3.04,0.73V318.37z"/>
			</g>
			<g class="st11">
				<path d="M191.4,320.19h0.03c0.44-0.56,1.09-0.88,1.74-0.88c1.11,0,1.99,0.75,1.99,2.35v3.6H194v-3.61
					c0-0.86-0.44-1.42-1.14-1.42c-0.51,0-0.91,0.23-1.46,0.84v4.19h-1.16v-5.84h1.16V320.19z"/>
			</g>
			<g class="st11">
				<path d="M197.35,318.34c-0.38,0-0.69-0.31-0.69-0.69s0.31-0.69,0.69-0.69s0.69,0.31,0.69,0.69S197.73,318.34,197.35,318.34z
					 M197.92,325.26h-1.16v-5.84h1.16V325.26z"/>
			</g>
			<g class="st11">
				<path d="M204.56,325.26h-2.46c-1.74,0-2.83-1.18-2.83-3.05c0-1.69,1.21-2.9,2.91-2.9c0.39,0,0.75,0.06,1.22,0.23v-3.15h1.16
					V325.26z M203.41,320.57c-0.39-0.16-0.69-0.22-1.08-0.22c-1.12,0-1.87,0.81-1.87,2.03c0,1.09,0.44,1.91,1.78,1.91h1.17V320.57z"
					/>
			</g>
			<g class="st11">
				<path d="M210.82,324.92c-0.53,0.35-0.75,0.46-1.12,0.46c-0.51,0-0.78-0.18-0.88-0.6c-0.51,0.4-1.04,0.6-1.57,0.6
					c-0.86,0-1.43-0.68-1.43-1.43c0-1.16,1.05-1.51,1.99-1.85l1.03-0.36v-0.31c0-0.73-0.35-1.03-1.05-1.03
					c-0.64,0-1.29,0.3-1.85,0.96v-1.26c0.46-0.53,1.09-0.79,1.94-0.79c1.18,0,2.12,0.6,2.12,1.92v3c0,0.22,0.08,0.3,0.22,0.3
					c0.12,0,0.35-0.12,0.61-0.31V324.92z M208.83,322.37c-0.99,0.34-1.85,0.68-1.85,1.36c0,0.48,0.35,0.82,0.83,0.82
					c0.36,0,0.7-0.18,1.01-0.48V322.37z M209.71,316.76l-1.46,1.91h-0.71l0.87-1.91H209.71z"/>
			</g>
			<g class="st11">
				<path d="M213.06,319.42v1.34h0.03c0.58-1.03,1.14-1.46,1.69-1.46c0.47,0,0.91,0.22,1.39,0.68l-0.61,1
					c-0.35-0.34-0.81-0.57-1.08-0.57c-0.79,0-1.42,0.79-1.42,1.79v3.05h-1.16v-5.84H213.06z"/>
			</g>
			<g class="st11">
				<path d="M217.64,318.34c-0.38,0-0.69-0.31-0.69-0.69s0.31-0.69,0.69-0.69s0.69,0.31,0.69,0.69S218.02,318.34,217.64,318.34z
					 M218.21,325.26h-1.16v-5.84h1.16V325.26z"/>
			</g>
			<g class="st11">
				<path d="M225.71,322.28c0,1.85-1.29,3.09-3.16,3.09c-1.79,0-3.08-1.3-3.08-3.09c0-1.68,1.34-2.98,3.08-2.98
					C224.38,319.31,225.71,320.55,225.71,322.28z M220.65,322.28c0,1.24,0.77,2.05,1.89,2.05c1.22,0,1.99-0.78,1.99-2.04
					c0-1.13-0.83-1.95-1.99-1.95C221.44,320.35,220.65,321.17,220.65,322.28z"/>
			</g>
			<g class="st11">
				<path d="M226.92,326.55c0.43-0.29,0.58-0.95,0.47-1.42c-0.38-0.01-0.64-0.3-0.64-0.73c0-0.43,0.33-0.74,0.77-0.74
					c0.56,0,0.92,0.49,0.92,1.26c0,0.74-0.49,1.59-1.52,1.87V326.55z"/>
			</g>
			<g class="st11">
				<path d="M62.63,333.94c-0.38,0-0.69-0.31-0.69-0.69s0.31-0.69,0.69-0.69s0.69,0.31,0.69,0.69S63.01,333.94,62.63,333.94z
					 M63.2,340.86h-1.16v-5.84h1.16V340.86z"/>
			</g>
			<g class="st11">
				<path d="M65.99,335.79h0.03c0.44-0.56,1.09-0.88,1.74-0.88c1.1,0,1.99,0.75,1.99,2.35v3.6h-1.16v-3.61
					c0-0.86-0.44-1.42-1.14-1.42c-0.51,0-0.91,0.23-1.46,0.84v4.19h-1.16v-5.84h1.16V335.79z"/>
				<path d="M70.12,335.02h1.26l1.57,3.59l1.53-3.59h1.23l-2.57,5.95h-0.39L70.12,335.02z"/>
			</g>
			<g class="st11">
				<path d="M81.48,340.29c-0.7,0.47-1.34,0.69-2.33,0.69c-1.82,0-2.83-1.5-2.83-3.11c0-1.77,1.12-2.96,2.73-2.96
					c1.55,0,2.54,1.05,2.54,3.21h-4.11c0.18,1.16,0.85,1.75,1.96,1.75c0.7,0,1.36-0.26,2.04-0.7V340.29z M80.44,337.35
					c-0.04-0.88-0.55-1.44-1.37-1.44c-0.88,0-1.42,0.52-1.57,1.44H80.44z"/>
			</g>
			<g class="st11">
				<path d="M84.12,335.02v1.34h0.03c0.58-1.03,1.14-1.46,1.69-1.46c0.47,0,0.91,0.22,1.39,0.68l-0.61,1
					c-0.35-0.34-0.81-0.57-1.08-0.57c-0.79,0-1.42,0.79-1.42,1.79v3.05h-1.16v-5.84H84.12z"/>
			</g>
			<g class="st11">
				<path d="M89.82,335.02h1.85v1.04h-1.85v2.99c0,0.69,0.49,0.88,0.83,0.88c0.42,0,0.85-0.14,1.31-0.43v1.08
					c-0.4,0.22-1.03,0.39-1.4,0.39c-1.26,0-1.9-0.78-1.9-1.83v-3.08h-1.01v-0.13l2.17-2.12V335.02z"/>
			</g>
			<g class="st11">
				<path d="M97.61,340.52c-0.53,0.35-0.75,0.46-1.12,0.46c-0.51,0-0.78-0.18-0.88-0.6c-0.51,0.4-1.04,0.6-1.57,0.6
					c-0.86,0-1.43-0.68-1.43-1.43c0-1.16,1.05-1.51,1.99-1.85l1.03-0.36v-0.31c0-0.73-0.35-1.03-1.05-1.03
					c-0.64,0-1.29,0.3-1.85,0.96v-1.26c0.46-0.53,1.09-0.79,1.94-0.79c1.18,0,2.12,0.6,2.12,1.92v3c0,0.22,0.08,0.3,0.22,0.3
					c0.12,0,0.35-0.12,0.61-0.31V340.52z M95.62,337.97c-0.99,0.34-1.85,0.68-1.85,1.36c0,0.48,0.35,0.82,0.83,0.82
					c0.36,0,0.7-0.18,1.01-0.48V337.97z"/>
				<path d="M106.78,340.52c-0.53,0.35-0.75,0.46-1.12,0.46c-0.51,0-0.78-0.18-0.88-0.6c-0.51,0.4-1.04,0.6-1.57,0.6
					c-0.86,0-1.43-0.68-1.43-1.43c0-1.16,1.05-1.51,1.99-1.85l1.03-0.36v-0.31c0-0.73-0.35-1.03-1.05-1.03
					c-0.64,0-1.29,0.3-1.85,0.96v-1.26c0.46-0.53,1.09-0.79,1.94-0.79c1.18,0,2.12,0.6,2.12,1.92v3c0,0.22,0.08,0.3,0.22,0.3
					c0.12,0,0.35-0.12,0.61-0.31V340.52z M104.79,337.97c-0.99,0.34-1.85,0.68-1.85,1.36c0,0.48,0.35,0.82,0.83,0.82
					c0.36,0,0.7-0.18,1.01-0.48V337.97z"/>
			</g>
			<g class="st11">
				<path d="M117.3,337.88c0,1.85-1.29,3.09-3.16,3.09c-1.79,0-3.08-1.3-3.08-3.09c0-1.68,1.34-2.98,3.08-2.98
					C115.97,334.91,117.3,336.15,117.3,337.88z M112.24,337.88c0,1.24,0.77,2.05,1.89,2.05c1.22,0,1.99-0.78,1.99-2.04
					c0-1.13-0.83-1.95-1.99-1.95C113.03,335.95,112.24,336.77,112.24,337.88z"/>
			</g>
			<g class="st11">
				<path d="M119.76,335.02v1.34h0.03c0.58-1.03,1.14-1.46,1.69-1.46c0.47,0,0.91,0.22,1.39,0.68l-0.61,1
					c-0.35-0.34-0.81-0.57-1.08-0.57c-0.79,0-1.42,0.79-1.42,1.79v3.05h-1.16v-5.84H119.76z"/>
			</g>
			<g class="st11">
				<path d="M128.58,340.86h-2.46c-1.74,0-2.83-1.18-2.83-3.05c0-1.69,1.21-2.9,2.91-2.9c0.39,0,0.75,0.06,1.22,0.23v-3.15h1.16
					V340.86z M127.43,336.17c-0.39-0.16-0.69-0.22-1.08-0.22c-1.12,0-1.87,0.81-1.87,2.03c0,1.09,0.44,1.91,1.78,1.91h1.17V336.17z"
					/>
			</g>
			<g class="st11">
				<path d="M135.06,340.29c-0.7,0.47-1.34,0.69-2.33,0.69c-1.82,0-2.83-1.5-2.83-3.11c0-1.77,1.12-2.96,2.73-2.96
					c1.55,0,2.54,1.05,2.54,3.21h-4.11c0.18,1.16,0.85,1.75,1.96,1.75c0.7,0,1.36-0.26,2.04-0.7V340.29z M134.02,337.35
					c-0.04-0.88-0.55-1.44-1.37-1.44c-0.88,0-1.42,0.52-1.57,1.44H134.02z"/>
			</g>
			<g class="st11">
				<path d="M137.63,335.02v0.77c0.6-0.6,1.16-0.88,1.7-0.88c0.74,0,1.35,0.36,1.74,1.05c0.51-0.57,1.12-1.05,1.95-1.05
					c1.18,0,1.94,0.91,1.94,2.29v3.67h-1.16v-3.61c0-0.88-0.54-1.37-1.21-1.37c-0.38-0.01-0.88,0.31-1.3,0.74v4.24h-1.16v-3.63
					c0-0.95-0.48-1.35-1.05-1.35c-0.58,0-0.97,0.18-1.46,0.74v4.24h-1.16v-5.84H137.63z"/>
			</g>
			<g class="st11">
				<path d="M155.2,340.86h-2.46c-1.74,0-2.83-1.18-2.83-3.05c0-1.69,1.21-2.9,2.91-2.9c0.39,0,0.75,0.06,1.22,0.23v-3.15h1.16
					V340.86z M154.05,336.17c-0.39-0.16-0.69-0.22-1.08-0.22c-1.12,0-1.87,0.81-1.87,2.03c0,1.09,0.44,1.91,1.78,1.91h1.17V336.17z"
					/>
			</g>
			<g class="st11">
				<path d="M162.71,337.88c0,1.85-1.29,3.09-3.16,3.09c-1.79,0-3.08-1.3-3.08-3.09c0-1.68,1.34-2.98,3.08-2.98
					C161.38,334.91,162.71,336.15,162.71,337.88z M157.65,337.88c0,1.24,0.77,2.05,1.89,2.05c1.22,0,1.99-0.78,1.99-2.04
					c0-1.13-0.83-1.95-1.99-1.95C158.44,335.95,157.65,336.77,157.65,337.88z"/>
			</g>
			<g class="st11">
				<path d="M167.35,336.53c-0.65-0.43-1.26-0.61-1.69-0.61c-0.47,0-0.77,0.22-0.77,0.53c0,0.26,0.39,0.57,1.42,1.17
					c0.96,0.64,1.31,1.04,1.31,1.64c0,1.03-0.82,1.72-1.92,1.72c-0.71,0-1.27-0.14-2.03-0.53v-1.25c0.75,0.52,1.44,0.77,1.91,0.77
					c0.47-0.03,0.86-0.25,0.86-0.66c0-0.81-2.73-1.23-2.73-2.81c0-0.99,0.75-1.59,1.92-1.59c0.55,0,1.11,0.16,1.72,0.48V336.53z"/>
			</g>
			<g class="st11">
				<path d="M173.92,335.02h1.85v1.04h-1.85v2.99c0,0.69,0.49,0.88,0.83,0.88c0.42,0,0.84-0.14,1.31-0.43v1.08
					c-0.4,0.22-1.03,0.39-1.4,0.39c-1.26,0-1.9-0.78-1.9-1.83v-3.08h-1.01v-0.13l2.17-2.12V335.02z"/>
			</g>
			<g class="st11">
				<path d="M180.64,340.86v-0.74c-0.48,0.52-1.16,0.86-1.73,0.86c-1.18,0-2.01-0.85-2.01-2.33v-3.63h1.16v3.71
					c0,0.82,0.4,1.29,1.2,1.29c0.52,0,1.01-0.29,1.39-0.82v-4.17h1.16v5.84H180.64z"/>
			</g>
			<g class="st11">
				<path d="M184.63,335.02v1.34h0.03c0.58-1.03,1.14-1.46,1.69-1.46c0.47,0,0.91,0.22,1.39,0.68l-0.61,1
					c-0.35-0.34-0.81-0.57-1.08-0.57c-0.79,0-1.42,0.79-1.42,1.79v3.05h-1.16v-5.84H184.63z"/>
			</g>
			<g class="st11">
				<path d="M189.75,335.79h0.03c0.44-0.56,1.09-0.88,1.74-0.88c1.1,0,1.99,0.75,1.99,2.35v3.6h-1.16v-3.61
					c0-0.86-0.44-1.42-1.14-1.42c-0.51,0-0.91,0.23-1.46,0.84v4.19h-1.16v-5.84h1.16V335.79z"/>
			</g>
			<g class="st11">
				<path d="M200.99,337.88c0,1.85-1.29,3.09-3.16,3.09c-1.79,0-3.08-1.3-3.08-3.09c0-1.68,1.34-2.98,3.08-2.98
					C199.66,334.91,200.99,336.15,200.99,337.88z M195.93,337.88c0,1.24,0.77,2.05,1.89,2.05c1.22,0,1.99-0.78,1.99-2.04
					c0-1.13-0.83-1.95-1.99-1.95C196.72,335.95,195.93,336.77,195.93,337.88z"/>
			</g>
			<g class="st11">
				<path d="M205.63,336.53c-0.65-0.43-1.26-0.61-1.69-0.61c-0.47,0-0.77,0.22-0.77,0.53c0,0.26,0.39,0.57,1.42,1.17
					c0.96,0.64,1.31,1.04,1.31,1.64c0,1.03-0.82,1.72-1.92,1.72c-0.71,0-1.27-0.14-2.03-0.53v-1.25c0.75,0.52,1.44,0.77,1.91,0.77
					c0.47-0.03,0.86-0.25,0.86-0.66c0-0.81-2.73-1.23-2.73-2.81c0-0.99,0.75-1.59,1.92-1.59c0.55,0,1.11,0.16,1.72,0.48V336.53z"/>
			</g>
			<g class="st11">
				<path d="M208.72,340.2c0,0.43-0.35,0.78-0.78,0.78c-0.43,0-0.78-0.35-0.78-0.78s0.35-0.78,0.78-0.78
					C208.37,339.42,208.72,339.77,208.72,340.2z"/>
			</g>
			<g class="st11">
				<path d="M92.35,44.96h-4.72v11.88h-1.96V44.96h-4.72V43.2h11.4V44.96z"/>
			</g>
			<g class="st11">
				<path d="M93.35,47.86v2.06h0.04c0.9-1.58,1.76-2.24,2.6-2.24c0.72,0,1.4,0.34,2.14,1.04l-0.94,1.54
					c-0.54-0.52-1.24-0.88-1.66-0.88c-1.22,0-2.18,1.22-2.18,2.76v4.7h-1.78v-8.98H93.35z"/>
			</g>
			<g class="st11">
				<path d="M107.93,52.26c0,2.84-1.98,4.76-4.86,4.76c-2.76,0-4.74-2-4.74-4.76c0-2.58,2.06-4.58,4.74-4.58
					C105.89,47.68,107.93,49.6,107.93,52.26z M100.15,52.26c0,1.9,1.18,3.16,2.9,3.16c1.88,0,3.06-1.2,3.06-3.14
					c0-1.74-1.28-3-3.06-3C101.37,49.28,100.15,50.54,100.15,52.26z"/>
				<path d="M116.51,50.2c-1.02-0.68-1.7-0.88-2.48-0.88c-1.62,0-2.74,1.22-2.74,3.04c0,1.86,1.2,2.98,3.04,2.98
					c0.76,0,1.48-0.2,2.38-0.6v1.76c-0.6,0.28-1.74,0.52-2.68,0.52c-2.68,0-4.56-1.86-4.56-4.5c0-2.96,1.72-4.84,4.44-4.84
					c1.04,0,1.74,0.24,2.6,0.62V50.2z"/>
				<path d="M125.63,56.32c-0.82,0.54-1.16,0.7-1.72,0.7c-0.78,0-1.2-0.28-1.36-0.92c-0.78,0.62-1.6,0.92-2.42,0.92
					c-1.32,0-2.2-1.04-2.2-2.2c0-1.78,1.62-2.32,3.06-2.84l1.58-0.56v-0.48c0-1.12-0.54-1.58-1.62-1.58c-0.98,0-1.98,0.46-2.84,1.48
					V48.9c0.7-0.82,1.68-1.22,2.98-1.22c1.82,0,3.26,0.92,3.26,2.96v4.62c0,0.34,0.12,0.46,0.34,0.46c0.18,0,0.54-0.18,0.94-0.48
					V56.32z M122.57,52.4c-1.52,0.52-2.84,1.04-2.84,2.1c0,0.74,0.54,1.26,1.28,1.26c0.56,0,1.08-0.28,1.56-0.74V52.4z"/>
				<path d="M140.53,56.84h-3.78c-2.68,0-4.36-1.82-4.36-4.7c0-2.6,1.86-4.46,4.48-4.46c0.6,0,1.16,0.1,1.88,0.36V43.2h1.78V56.84z
					 M138.75,49.62c-0.6-0.24-1.06-0.34-1.66-0.34c-1.72,0-2.88,1.24-2.88,3.12c0,1.68,0.68,2.94,2.74,2.94h1.8V49.62z"/>
				<path d="M150.47,55.96c-1.08,0.72-2.06,1.06-3.58,1.06c-2.8,0-4.36-2.3-4.36-4.78c0-2.72,1.72-4.56,4.2-4.56
					c2.38,0,3.9,1.62,3.9,4.94h-6.32c0.28,1.78,1.3,2.7,3.02,2.7c1.08,0,2.1-0.4,3.14-1.08V55.96z M148.87,51.44
					c-0.06-1.36-0.84-2.22-2.1-2.22c-1.36,0-2.18,0.8-2.42,2.22H148.87z"/>
				<path d="M169.97,46.24c-1.68-0.98-3.12-1.42-4.7-1.42c-3.12,0-5.44,2.22-5.44,5.22c0,3.06,2.24,5.18,5.52,5.18
					c1.54,0,3.22-0.54,4.76-1.54v2.14c-1.34,0.7-2.8,1.2-4.94,1.2c-5.12,0-7.36-3.94-7.36-6.8c0-4.16,3.14-7.2,7.48-7.2
					c1.4,0,2.82,0.34,4.68,1.12V46.24z"/>
				<path d="M181.33,52.26c0,2.84-1.98,4.76-4.86,4.76c-2.76,0-4.74-2-4.74-4.76c0-2.58,2.06-4.58,4.74-4.58
					C179.29,47.68,181.33,49.6,181.33,52.26z M173.55,52.26c0,1.9,1.18,3.16,2.9,3.16c1.88,0,3.06-1.2,3.06-3.14
					c0-1.74-1.28-3-3.06-3C174.77,49.28,173.55,50.54,173.55,52.26z"/>
				<path d="M185.21,47.86v2.06h0.04c0.9-1.58,1.76-2.24,2.6-2.24c0.72,0,1.4,0.34,2.14,1.04l-0.94,1.54
					c-0.54-0.52-1.24-0.88-1.66-0.88c-1.22,0-2.18,1.22-2.18,2.76v4.7h-1.78v-8.98H185.21z"/>
			</g>
			<path d="M28.48,32.57h6.65v1h-2.77v7h-1.15v-7h-2.73V32.57z"/>
			<g>
				<circle class="st12" cx="31.81" cy="35.86" r="7.94"/>
			</g>
			<circle class="st1" cx="26.19" cy="30.25" r="1.23"/>
			<circle class="st2" cx="23.87" cy="35.86" r="1.23"/>
			<circle class="st3" cx="26.19" cy="41.47" r="1.23"/>
			<circle class="st4" cx="31.81" cy="43.79" r="1.23"/>
			<circle class="st5" cx="37.42" cy="41.47" r="1.23"/>
			<circle class="st6" cx="39.74" cy="35.86" r="1.23"/>
			<circle class="st8" cx="37.42" cy="30.25" r="1.23"/>
			<circle id="Mammal-2" class="st9" cx="31.81" cy="27.92" r="1.23"/>
			<g>
				<circle class="st12" cx="31.81" cy="35.86" r="7.94"/>
			</g>
			<circle cx="26.19" cy="30.25" r="1.23"/>
			<circle cx="23.87" cy="35.86" r="1.23"/>
			<circle cx="26.19" cy="41.47" r="1.23"/>
			<circle cx="31.81" cy="43.79" r="1.23"/>
			<circle cx="37.42" cy="41.47" r="1.23"/>
			<circle cx="39.74" cy="35.86" r="1.23"/>
			<circle cx="37.42" cy="30.25" r="1.23"/>
			<circle id="Mammal-3" cx="31.81" cy="27.92" r="1.23"/>
			<path d="M242.1,350.11h-6.65v-1h2.77v-7h1.15v7h2.73V350.11z"/>
			<g>
				<circle class="st12" cx="238.77" cy="346.82" r="7.94"/>
			</g>
			<circle class="st1" cx="244.39" cy="352.43" r="1.23"/>
			<circle class="st2" cx="246.71" cy="346.82" r="1.23"/>
			<circle class="st3" cx="244.39" cy="341.21" r="1.23"/>
			<circle class="st4" cx="238.77" cy="338.88" r="1.23"/>
			<circle class="st5" cx="233.16" cy="341.21" r="1.23"/>
			<circle class="st6" cx="230.84" cy="346.82" r="1.23"/>
			<circle class="st8" cx="233.16" cy="352.43" r="1.23"/>
			<circle id="Mammal-4" class="st9" cx="238.77" cy="354.76" r="1.23"/>
			<g>
				<circle class="st12" cx="238.77" cy="346.82" r="7.94"/>
			</g>
			<circle cx="244.39" cy="352.43" r="1.23"/>
			<circle cx="246.71" cy="346.82" r="1.23"/>
			<circle cx="244.39" cy="341.21" r="1.23"/>
			<circle cx="238.77" cy="338.88" r="1.23"/>
			<circle cx="233.16" cy="341.21" r="1.23"/>
			<circle cx="230.84" cy="346.82" r="1.23"/>
			<circle cx="233.16" cy="352.43" r="1.23"/>
			<circle id="Mammal-5" cx="238.77" cy="354.76" r="1.23"/>
		</g>
	</g>
</g>
</svg>
